<?xml version="1.0" encoding="UTF-8" standalone="no"?>
<!DOCTYPE svg PUBLIC "-//W3C//DTD SVG 1.1//EN"
 "http://www.w3.org/Graphics/SVG/1.1/DTD/svg11.dtd">
<!-- Generated by graphviz version 2.40.1 (20161225.0304)
 -->
<!-- Title: G Pages: 1 -->
<svg width="1409pt" height="754pt"
 viewBox="0.00 0.00 1409.44 754.00" xmlns="http://www.w3.org/2000/svg" xmlns:xlink="http://www.w3.org/1999/xlink">
<g id="graph0" class="graph" transform="scale(1 1) rotate(0) translate(4 750)">
<title>G</title>
<polygon fill="#ffffff" stroke="transparent" points="-4,4 -4,-750 1405.44,-750 1405.44,4 -4,4"/>
<!-- Gene -->
<g id="node1" class="node">
<title>Gene</title>
<polygon fill="none" stroke="#000000" points="387.6955,-238.5 387.6955,-284.5 441.6955,-284.5 441.6955,-238.5 387.6955,-238.5"/>
<text text-anchor="middle" x="414.6955" y="-269.3" font-family="Times,serif" font-size="14.00" fill="#000000">Gene</text>
<polyline fill="none" stroke="#000000" points="387.6955,-261.5 441.6955,-261.5 "/>
<text text-anchor="middle" x="414.6955" y="-246.3" font-family="Times,serif" font-size="14.00" fill="#000000">id</text>
</g>
<!-- LocusList -->
<g id="node8" class="node">
<title>LocusList</title>
<polygon fill="none" stroke="#000000" points="127.1955,-155.5 127.1955,-201.5 198.1955,-201.5 198.1955,-155.5 127.1955,-155.5"/>
<text text-anchor="middle" x="162.6955" y="-186.3" font-family="Times,serif" font-size="14.00" fill="#000000">LocusList</text>
<polyline fill="none" stroke="#000000" points="127.1955,-178.5 198.1955,-178.5 "/>
<text text-anchor="middle" x="162.6955" y="-163.3" font-family="Times,serif" font-size="14.00" fill="#000000">count</text>
</g>
<!-- Gene&#45;&gt;LocusList -->
<g id="edge15" class="edge">
<title>Gene&#45;&gt;LocusList</title>
<path fill="none" stroke="#000000" d="M387.653,-255.5688C347.5647,-246.3676 270.36,-227.0712 207.6955,-202 207.5983,-201.9611 207.5011,-201.9221 207.4038,-201.8829"/>
<polygon fill="#000000" stroke="#000000" points="208.8162,-198.6806 198.2506,-197.8939 206.0195,-205.0976 208.8162,-198.6806"/>
</g>
<!-- ExternalReferenceList -->
<g id="node9" class="node">
<title>ExternalReferenceList</title>
<polygon fill="none" stroke="#000000" points="216.6955,-155.5 216.6955,-201.5 354.6955,-201.5 354.6955,-155.5 216.6955,-155.5"/>
<text text-anchor="middle" x="285.6955" y="-186.3" font-family="Times,serif" font-size="14.00" fill="#000000">ExternalReferenceList</text>
<polyline fill="none" stroke="#000000" points="216.6955,-178.5 354.6955,-178.5 "/>
<text text-anchor="middle" x="285.6955" y="-163.3" font-family="Times,serif" font-size="14.00" fill="#000000">count</text>
</g>
<!-- Gene&#45;&gt;ExternalReferenceList -->
<g id="edge2" class="edge">
<title>Gene&#45;&gt;ExternalReferenceList</title>
<path fill="none" stroke="#000000" d="M387.6529,-244.1005C370.9951,-233.3827 349.2364,-219.3829 330.0997,-207.0701"/>
<polygon fill="#000000" stroke="#000000" points="331.8229,-204.017 321.5194,-201.5495 328.0353,-209.9038 331.8229,-204.017"/>
</g>
<!-- SynonymList -->
<g id="node13" class="node">
<title>SynonymList</title>
<polygon fill="none" stroke="#000000" points="372.6955,-155.5 372.6955,-201.5 462.6955,-201.5 462.6955,-155.5 372.6955,-155.5"/>
<text text-anchor="middle" x="417.6955" y="-186.3" font-family="Times,serif" font-size="14.00" fill="#000000">SynonymList</text>
<polyline fill="none" stroke="#000000" points="372.6955,-178.5 462.6955,-178.5 "/>
<text text-anchor="middle" x="417.6955" y="-163.3" font-family="Times,serif" font-size="14.00" fill="#000000">count</text>
</g>
<!-- Gene&#45;&gt;SynonymList -->
<g id="edge22" class="edge">
<title>Gene&#45;&gt;SynonymList</title>
<path fill="none" stroke="#000000" d="M415.5312,-238.3799C415.8277,-230.1745 416.1677,-220.7679 416.489,-211.8786"/>
<polygon fill="#000000" stroke="#000000" points="419.9903,-211.9039 416.8539,-201.784 412.9949,-211.651 419.9903,-211.9039"/>
</g>
<!-- Name -->
<g id="node16" class="node">
<title>Name</title>
<polygon fill="none" stroke="#000000" points="732.6955,-72.5 732.6955,-118.5 786.6955,-118.5 786.6955,-72.5 732.6955,-72.5"/>
<text text-anchor="middle" x="759.6955" y="-103.3" font-family="Times,serif" font-size="14.00" fill="#000000">Name</text>
<polyline fill="none" stroke="#000000" points="732.6955,-95.5 786.6955,-95.5 "/>
<text text-anchor="middle" x="759.6955" y="-80.3" font-family="Times,serif" font-size="14.00" fill="#000000">lang</text>
</g>
<!-- Gene&#45;&gt;Name -->
<g id="edge17" class="edge">
<title>Gene&#45;&gt;Name</title>
<path fill="none" stroke="#000000" d="M437.5574,-238.4068C448.1314,-227.5313 460.7459,-214.2774 471.6955,-202 489.7624,-181.7422 487.6453,-169.3346 510.6955,-155 545.9285,-133.0891 662.2066,-111.4909 722.579,-101.4031"/>
<polygon fill="#000000" stroke="#000000" points="723.1729,-104.8525 732.4691,-99.77 722.0324,-97.946 723.1729,-104.8525"/>
</g>
<!-- GeneType -->
<g id="node17" class="node">
<title>GeneType</title>
<polygon fill="none" stroke="#000000" points="519.1955,-155.5 519.1955,-201.5 592.1955,-201.5 592.1955,-155.5 519.1955,-155.5"/>
<text text-anchor="middle" x="555.6955" y="-186.3" font-family="Times,serif" font-size="14.00" fill="#000000">GeneType</text>
<polyline fill="none" stroke="#000000" points="519.1955,-178.5 592.1955,-178.5 "/>
<text text-anchor="middle" x="555.6955" y="-163.3" font-family="Times,serif" font-size="14.00" fill="#000000">id</text>
</g>
<!-- Gene&#45;&gt;GeneType -->
<g id="edge31" class="edge">
<title>Gene&#45;&gt;GeneType</title>
<path fill="none" stroke="#000000" d="M442.0866,-243.9051C445.3122,-241.8919 448.5678,-239.8866 451.6955,-238 470.6766,-226.5509 491.8759,-214.3236 510.1578,-203.95"/>
<polygon fill="#000000" stroke="#000000" points="511.8954,-206.9882 518.8756,-199.0178 508.4485,-200.8957 511.8954,-206.9882"/>
</g>
<!-- Symbol -->
<g id="node23" class="node">
<title>Symbol</title>
<ellipse fill="none" stroke="#000000" cx="648.6955" cy="-178.5" rx="38.1938" ry="18"/>
<text text-anchor="middle" x="648.6955" y="-174.8" font-family="Times,serif" font-size="14.00" fill="#000000">Symbol</text>
</g>
<!-- Gene&#45;&gt;Symbol -->
<g id="edge21" class="edge">
<title>Gene&#45;&gt;Symbol</title>
<path fill="none" stroke="#000000" d="M442.0341,-242.76C445.2128,-240.9989 448.4723,-239.3654 451.6955,-238 514.8246,-211.2574 537.2828,-225.483 601.6955,-202 605.9569,-200.4464 610.3359,-198.6099 614.626,-196.6589"/>
<polygon fill="#000000" stroke="#000000" points="616.2863,-199.7445 623.7957,-192.2705 613.2645,-193.4304 616.2863,-199.7445"/>
</g>
<!-- Synonym -->
<g id="node2" class="node">
<title>Synonym</title>
<polygon fill="none" stroke="#000000" points="383.1955,-72.5 383.1955,-118.5 452.1955,-118.5 452.1955,-72.5 383.1955,-72.5"/>
<text text-anchor="middle" x="417.6955" y="-103.3" font-family="Times,serif" font-size="14.00" fill="#000000">Synonym</text>
<polyline fill="none" stroke="#000000" points="383.1955,-95.5 452.1955,-95.5 "/>
<text text-anchor="middle" x="417.6955" y="-80.3" font-family="Times,serif" font-size="14.00" fill="#000000">lang</text>
</g>
<!-- ExternalReference -->
<g id="node3" class="node">
<title>ExternalReference</title>
<polygon fill="none" stroke="#000000" points="227.1955,-72.5 227.1955,-118.5 344.1955,-118.5 344.1955,-72.5 227.1955,-72.5"/>
<text text-anchor="middle" x="285.6955" y="-103.3" font-family="Times,serif" font-size="14.00" fill="#000000">ExternalReference</text>
<polyline fill="none" stroke="#000000" points="227.1955,-95.5 344.1955,-95.5 "/>
<text text-anchor="middle" x="285.6955" y="-80.3" font-family="Times,serif" font-size="14.00" fill="#000000">id</text>
</g>
<!-- Reference -->
<g id="node20" class="node">
<title>Reference</title>
<ellipse fill="none" stroke="#000000" cx="282.6955" cy="-18" rx="46.2923" ry="18"/>
<text text-anchor="middle" x="282.6955" y="-14.3" font-family="Times,serif" font-size="14.00" fill="#000000">Reference</text>
</g>
<!-- ExternalReference&#45;&gt;Reference -->
<g id="edge7" class="edge">
<title>ExternalReference&#45;&gt;Reference</title>
<path fill="none" stroke="#000000" d="M284.7954,-72.2474C284.4799,-64.0965 284.122,-54.8503 283.7922,-46.3302"/>
<polygon fill="#000000" stroke="#000000" points="287.279,-45.9204 283.3947,-36.0633 280.2842,-46.1913 287.279,-45.9204"/>
</g>
<!-- Source -->
<g id="node25" class="node">
<title>Source</title>
<ellipse fill="none" stroke="#000000" cx="381.6955" cy="-18" rx="35.194" ry="18"/>
<text text-anchor="middle" x="381.6955" y="-14.3" font-family="Times,serif" font-size="14.00" fill="#000000">Source</text>
</g>
<!-- ExternalReference&#45;&gt;Source -->
<g id="edge24" class="edge">
<title>ExternalReference&#45;&gt;Source</title>
<path fill="none" stroke="#000000" d="M314.2387,-72.4573C327.1149,-62.0625 342.2396,-49.8524 354.9007,-39.6312"/>
<polygon fill="#000000" stroke="#000000" points="357.2343,-42.2455 362.8167,-33.2407 352.8372,-36.7989 357.2343,-42.2455"/>
</g>
<!-- DisorderGeneAssociationList -->
<g id="node4" class="node">
<title>DisorderGeneAssociationList</title>
<polygon fill="none" stroke="#000000" points="735.1955,-404.5 735.1955,-450.5 912.1955,-450.5 912.1955,-404.5 735.1955,-404.5"/>
<text text-anchor="middle" x="823.6955" y="-435.3" font-family="Times,serif" font-size="14.00" fill="#000000">DisorderGeneAssociationList</text>
<polyline fill="none" stroke="#000000" points="735.1955,-427.5 912.1955,-427.5 "/>
<text text-anchor="middle" x="823.6955" y="-412.3" font-family="Times,serif" font-size="14.00" fill="#000000">count</text>
</g>
<!-- DisorderGeneAssociation -->
<g id="node19" class="node">
<title>DisorderGeneAssociation</title>
<ellipse fill="none" stroke="#000000" cx="759.6955" cy="-344.5" rx="101.2821" ry="18"/>
<text text-anchor="middle" x="759.6955" y="-340.8" font-family="Times,serif" font-size="14.00" fill="#000000">DisorderGeneAssociation</text>
</g>
<!-- DisorderGeneAssociationList&#45;&gt;DisorderGeneAssociation -->
<g id="edge29" class="edge">
<title>DisorderGeneAssociationList&#45;&gt;DisorderGeneAssociation</title>
<path fill="none" stroke="#000000" d="M805.8679,-404.3799C797.7332,-393.8302 788.0673,-381.2946 779.6867,-370.426"/>
<polygon fill="#000000" stroke="#000000" points="782.4532,-368.2821 773.5752,-362.5002 776.9098,-372.5566 782.4532,-368.2821"/>
</g>
<!-- DisorderGroup -->
<g id="node5" class="node">
<title>DisorderGroup</title>
<polygon fill="none" stroke="#000000" points="917.6955,-321.5 917.6955,-367.5 1015.6955,-367.5 1015.6955,-321.5 917.6955,-321.5"/>
<text text-anchor="middle" x="966.6955" y="-352.3" font-family="Times,serif" font-size="14.00" fill="#000000">DisorderGroup</text>
<polyline fill="none" stroke="#000000" points="917.6955,-344.5 1015.6955,-344.5 "/>
<text text-anchor="middle" x="966.6955" y="-329.3" font-family="Times,serif" font-size="14.00" fill="#000000">id</text>
</g>
<!-- DisorderGroup&#45;&gt;Name -->
<g id="edge27" class="edge">
<title>DisorderGroup&#45;&gt;Name</title>
<path fill="none" stroke="#000000" d="M1008.098,-321.4198C1020.9795,-311.9511 1033.6439,-299.7182 1040.6955,-285 1049.7211,-266.1616 1051.627,-255.8003 1040.6955,-238 986.736,-150.1349 859.881,-114.4036 796.7413,-101.6701"/>
<polygon fill="#000000" stroke="#000000" points="797.2946,-98.2124 786.8123,-99.7523 795.967,-105.0853 797.2946,-98.2124"/>
</g>
<!-- JDBOR -->
<g id="node6" class="node">
<title>JDBOR</title>
<polygon fill="none" stroke="#000000" points="1100.6955,-653.5 1100.6955,-745.5 1168.6955,-745.5 1168.6955,-653.5 1100.6955,-653.5"/>
<text text-anchor="middle" x="1134.6955" y="-730.3" font-family="Times,serif" font-size="14.00" fill="#000000">JDBOR</text>
<polyline fill="none" stroke="#000000" points="1100.6955,-722.5 1168.6955,-722.5 "/>
<text text-anchor="middle" x="1134.6955" y="-707.3" font-family="Times,serif" font-size="14.00" fill="#000000">copyright</text>
<polyline fill="none" stroke="#000000" points="1100.6955,-699.5 1168.6955,-699.5 "/>
<text text-anchor="middle" x="1134.6955" y="-684.3" font-family="Times,serif" font-size="14.00" fill="#000000">version</text>
<polyline fill="none" stroke="#000000" points="1100.6955,-676.5 1168.6955,-676.5 "/>
<text text-anchor="middle" x="1134.6955" y="-661.3" font-family="Times,serif" font-size="14.00" fill="#000000">date</text>
</g>
<!-- DisorderList -->
<g id="node11" class="node">
<title>DisorderList</title>
<polygon fill="none" stroke="#000000" points="1092.1955,-570.5 1092.1955,-616.5 1177.1955,-616.5 1177.1955,-570.5 1092.1955,-570.5"/>
<text text-anchor="middle" x="1134.6955" y="-601.3" font-family="Times,serif" font-size="14.00" fill="#000000">DisorderList</text>
<polyline fill="none" stroke="#000000" points="1092.1955,-593.5 1177.1955,-593.5 "/>
<text text-anchor="middle" x="1134.6955" y="-578.3" font-family="Times,serif" font-size="14.00" fill="#000000">count</text>
</g>
<!-- JDBOR&#45;&gt;DisorderList -->
<g id="edge8" class="edge">
<title>JDBOR&#45;&gt;DisorderList</title>
<path fill="none" stroke="#000000" d="M1134.6955,-653.3152C1134.6955,-644.3713 1134.6955,-635.164 1134.6955,-626.7353"/>
<polygon fill="#000000" stroke="#000000" points="1138.1956,-626.5535 1134.6955,-616.5535 1131.1956,-626.5535 1138.1956,-626.5535"/>
</g>
<!-- Locus -->
<g id="node7" class="node">
<title>Locus</title>
<polygon fill="none" stroke="#000000" points="135.6955,-72.5 135.6955,-118.5 189.6955,-118.5 189.6955,-72.5 135.6955,-72.5"/>
<text text-anchor="middle" x="162.6955" y="-103.3" font-family="Times,serif" font-size="14.00" fill="#000000">Locus</text>
<polyline fill="none" stroke="#000000" points="135.6955,-95.5 189.6955,-95.5 "/>
<text text-anchor="middle" x="162.6955" y="-80.3" font-family="Times,serif" font-size="14.00" fill="#000000">id</text>
</g>
<!-- GeneLocus -->
<g id="node21" class="node">
<title>GeneLocus</title>
<ellipse fill="none" stroke="#000000" cx="50.6955" cy="-18" rx="50.8918" ry="18"/>
<text text-anchor="middle" x="50.6955" y="-14.3" font-family="Times,serif" font-size="14.00" fill="#000000">GeneLocus</text>
</g>
<!-- Locus&#45;&gt;GeneLocus -->
<g id="edge9" class="edge">
<title>Locus&#45;&gt;GeneLocus</title>
<path fill="none" stroke="#000000" d="M135.5834,-76.7394C119.5958,-65.6765 99.2822,-51.6203 82.5352,-40.032"/>
<polygon fill="#000000" stroke="#000000" points="84.3594,-37.038 74.1445,-34.2259 80.3762,-42.7943 84.3594,-37.038"/>
</g>
<!-- LocusKey -->
<g id="node24" class="node">
<title>LocusKey</title>
<ellipse fill="none" stroke="#000000" cx="165.6955" cy="-18" rx="46.5926" ry="18"/>
<text text-anchor="middle" x="165.6955" y="-14.3" font-family="Times,serif" font-size="14.00" fill="#000000">LocusKey</text>
</g>
<!-- Locus&#45;&gt;LocusKey -->
<g id="edge23" class="edge">
<title>Locus&#45;&gt;LocusKey</title>
<path fill="none" stroke="#000000" d="M163.5956,-72.2474C163.9111,-64.0965 164.269,-54.8503 164.5988,-46.3302"/>
<polygon fill="#000000" stroke="#000000" points="168.1068,-46.1913 164.9963,-36.0633 161.112,-45.9204 168.1068,-46.1913"/>
</g>
<!-- LocusList&#45;&gt;Locus -->
<g id="edge12" class="edge">
<title>LocusList&#45;&gt;Locus</title>
<path fill="none" stroke="#000000" d="M162.6955,-155.3799C162.6955,-147.1745 162.6955,-137.7679 162.6955,-128.8786"/>
<polygon fill="#000000" stroke="#000000" points="166.1956,-128.784 162.6955,-118.784 159.1956,-128.784 166.1956,-128.784"/>
</g>
<!-- ExternalReferenceList&#45;&gt;ExternalReference -->
<g id="edge10" class="edge">
<title>ExternalReferenceList&#45;&gt;ExternalReference</title>
<path fill="none" stroke="#000000" d="M285.6955,-155.3799C285.6955,-147.1745 285.6955,-137.7679 285.6955,-128.8786"/>
<polygon fill="#000000" stroke="#000000" points="289.1956,-128.784 285.6955,-118.784 282.1956,-128.784 289.1956,-128.784"/>
</g>
<!-- DisorderGeneAssociationStatus -->
<g id="node10" class="node">
<title>DisorderGeneAssociationStatus</title>
<polygon fill="none" stroke="#000000" points="460.1955,-238.5 460.1955,-284.5 649.1955,-284.5 649.1955,-238.5 460.1955,-238.5"/>
<text text-anchor="middle" x="554.6955" y="-269.3" font-family="Times,serif" font-size="14.00" fill="#000000">DisorderGeneAssociationStatus</text>
<polyline fill="none" stroke="#000000" points="460.1955,-261.5 649.1955,-261.5 "/>
<text text-anchor="middle" x="554.6955" y="-246.3" font-family="Times,serif" font-size="14.00" fill="#000000">id</text>
</g>
<!-- DisorderGeneAssociationStatus&#45;&gt;Name -->
<g id="edge18" class="edge">
<title>DisorderGeneAssociationStatus&#45;&gt;Name</title>
<path fill="none" stroke="#000000" d="M633.6139,-238.355C655.3476,-229.4067 677.8322,-217.4943 695.6955,-202 718.8974,-181.8751 736.088,-151.1918 746.7768,-127.9203"/>
<polygon fill="#000000" stroke="#000000" points="749.9796,-129.3317 750.8233,-118.7705 743.5777,-126.5004 749.9796,-129.3317"/>
</g>
<!-- Disorder -->
<g id="node15" class="node">
<title>Disorder</title>
<polygon fill="none" stroke="#000000" points="1102.6955,-487.5 1102.6955,-533.5 1166.6955,-533.5 1166.6955,-487.5 1102.6955,-487.5"/>
<text text-anchor="middle" x="1134.6955" y="-518.3" font-family="Times,serif" font-size="14.00" fill="#000000">Disorder</text>
<polyline fill="none" stroke="#000000" points="1102.6955,-510.5 1166.6955,-510.5 "/>
<text text-anchor="middle" x="1134.6955" y="-495.3" font-family="Times,serif" font-size="14.00" fill="#000000">id</text>
</g>
<!-- DisorderList&#45;&gt;Disorder -->
<g id="edge30" class="edge">
<title>DisorderList&#45;&gt;Disorder</title>
<path fill="none" stroke="#000000" d="M1134.6955,-570.3799C1134.6955,-562.1745 1134.6955,-552.7679 1134.6955,-543.8786"/>
<polygon fill="#000000" stroke="#000000" points="1138.1956,-543.784 1134.6955,-533.784 1131.1956,-543.784 1138.1956,-543.784"/>
</g>
<!-- DisorderGeneAssociationType -->
<g id="node12" class="node">
<title>DisorderGeneAssociationType</title>
<polygon fill="none" stroke="#000000" points="667.6955,-238.5 667.6955,-284.5 851.6955,-284.5 851.6955,-238.5 667.6955,-238.5"/>
<text text-anchor="middle" x="759.6955" y="-269.3" font-family="Times,serif" font-size="14.00" fill="#000000">DisorderGeneAssociationType</text>
<polyline fill="none" stroke="#000000" points="667.6955,-261.5 851.6955,-261.5 "/>
<text text-anchor="middle" x="759.6955" y="-246.3" font-family="Times,serif" font-size="14.00" fill="#000000">id</text>
</g>
<!-- DisorderGeneAssociationType&#45;&gt;Name -->
<g id="edge3" class="edge">
<title>DisorderGeneAssociationType&#45;&gt;Name</title>
<path fill="none" stroke="#000000" d="M759.6955,-238.4184C759.6955,-210.0047 759.6955,-161.531 759.6955,-129.0156"/>
<polygon fill="#000000" stroke="#000000" points="763.1956,-128.6525 759.6955,-118.6525 756.1956,-128.6526 763.1956,-128.6525"/>
</g>
<!-- SynonymList&#45;&gt;Synonym -->
<g id="edge1" class="edge">
<title>SynonymList&#45;&gt;Synonym</title>
<path fill="none" stroke="#000000" d="M417.6955,-155.3799C417.6955,-147.1745 417.6955,-137.7679 417.6955,-128.8786"/>
<polygon fill="#000000" stroke="#000000" points="421.1956,-128.784 417.6955,-118.784 414.1956,-128.784 421.1956,-128.784"/>
</g>
<!-- DisorderType -->
<g id="node14" class="node">
<title>DisorderType</title>
<polygon fill="none" stroke="#000000" points="1033.6955,-321.5 1033.6955,-367.5 1125.6955,-367.5 1125.6955,-321.5 1033.6955,-321.5"/>
<text text-anchor="middle" x="1079.6955" y="-352.3" font-family="Times,serif" font-size="14.00" fill="#000000">DisorderType</text>
<polyline fill="none" stroke="#000000" points="1033.6955,-344.5 1125.6955,-344.5 "/>
<text text-anchor="middle" x="1079.6955" y="-329.3" font-family="Times,serif" font-size="14.00" fill="#000000">id</text>
</g>
<!-- DisorderType&#45;&gt;Name -->
<g id="edge26" class="edge">
<title>DisorderType&#45;&gt;Name</title>
<path fill="none" stroke="#000000" d="M1077.8246,-321.1657C1075.3735,-298.9647 1069.8535,-265.0334 1057.6955,-238 1038.8095,-196.0069 1034.0044,-180.5446 995.6955,-155 963.2618,-133.373 854.98,-112.0117 797.0366,-101.7682"/>
<polygon fill="#000000" stroke="#000000" points="797.2856,-98.2589 786.8327,-99.9874 796.082,-105.1546 797.2856,-98.2589"/>
</g>
<!-- Disorder&#45;&gt;DisorderGeneAssociationList -->
<g id="edge19" class="edge">
<title>Disorder&#45;&gt;DisorderGeneAssociationList</title>
<path fill="none" stroke="#000000" d="M1102.5844,-501.9302C1059.8633,-490.5287 982.4639,-469.8723 920.0243,-453.2083"/>
<polygon fill="#000000" stroke="#000000" points="920.7035,-449.7672 910.1391,-450.5702 918.8984,-456.5304 920.7035,-449.7672"/>
</g>
<!-- Disorder&#45;&gt;DisorderGroup -->
<g id="edge6" class="edge">
<title>Disorder&#45;&gt;DisorderGroup</title>
<path fill="none" stroke="#000000" d="M1111.3358,-487.4184C1081.5796,-458.0164 1030.0847,-407.1346 997.2413,-374.6822"/>
<polygon fill="#000000" stroke="#000000" points="999.7003,-372.1915 990.127,-367.6525 994.7803,-377.1708 999.7003,-372.1915"/>
</g>
<!-- Disorder&#45;&gt;DisorderType -->
<g id="edge14" class="edge">
<title>Disorder&#45;&gt;DisorderType</title>
<path fill="none" stroke="#000000" d="M1127.048,-487.4184C1117.5519,-458.7576 1101.2934,-409.6864 1090.5203,-377.1711"/>
<polygon fill="#000000" stroke="#000000" points="1093.8341,-376.0443 1087.3665,-367.6525 1087.1893,-378.2459 1093.8341,-376.0443"/>
</g>
<!-- Disorder&#45;&gt;Name -->
<g id="edge5" class="edge">
<title>Disorder&#45;&gt;Name</title>
<path fill="none" stroke="#000000" d="M1139.0545,-487.2289C1144.6639,-455.2064 1153.6955,-395.6984 1153.6955,-344.5 1153.6955,-344.5 1153.6955,-344.5 1153.6955,-261.5 1153.6955,-189.5244 1095.98,-187.3728 1031.6955,-155 954.1856,-115.9671 851.617,-102.4184 797.2571,-97.8069"/>
<polygon fill="#000000" stroke="#000000" points="797.2946,-94.299 787.0496,-96.9989 796.7422,-101.2772 797.2946,-94.299"/>
</g>
<!-- ExpertLink -->
<g id="node18" class="node">
<title>ExpertLink</title>
<polygon fill="none" stroke="#000000" points="1181.6955,-404.5 1181.6955,-450.5 1259.6955,-450.5 1259.6955,-404.5 1181.6955,-404.5"/>
<text text-anchor="middle" x="1220.6955" y="-435.3" font-family="Times,serif" font-size="14.00" fill="#000000">ExpertLink</text>
<polyline fill="none" stroke="#000000" points="1181.6955,-427.5 1259.6955,-427.5 "/>
<text text-anchor="middle" x="1220.6955" y="-412.3" font-family="Times,serif" font-size="14.00" fill="#000000">lang</text>
</g>
<!-- Disorder&#45;&gt;ExpertLink -->
<g id="edge11" class="edge">
<title>Disorder&#45;&gt;ExpertLink</title>
<path fill="none" stroke="#000000" d="M1158.6513,-487.3799C1168.0773,-478.2827 1179.0334,-467.7088 1189.0926,-458.0005"/>
<polygon fill="#000000" stroke="#000000" points="1191.805,-460.2469 1196.5699,-450.784 1186.9439,-455.2101 1191.805,-460.2469"/>
</g>
<!-- OrphaNumber -->
<g id="node26" class="node">
<title>OrphaNumber</title>
<ellipse fill="none" stroke="#000000" cx="1339.6955" cy="-427.5" rx="61.99" ry="18"/>
<text text-anchor="middle" x="1339.6955" y="-423.8" font-family="Times,serif" font-size="14.00" fill="#000000">OrphaNumber</text>
</g>
<!-- Disorder&#45;&gt;OrphaNumber -->
<g id="edge28" class="edge">
<title>Disorder&#45;&gt;OrphaNumber</title>
<path fill="none" stroke="#000000" d="M1166.7268,-497.5313C1200.881,-483.703 1255.2674,-461.6831 1293.9307,-446.0292"/>
<polygon fill="#000000" stroke="#000000" points="1295.4442,-449.1925 1303.3997,-442.1954 1292.8171,-442.7041 1295.4442,-449.1925"/>
</g>
<!-- GeneType&#45;&gt;Name -->
<g id="edge16" class="edge">
<title>GeneType&#45;&gt;Name</title>
<path fill="none" stroke="#000000" d="M592.4277,-159.2762C595.5422,-157.7862 598.6607,-156.3416 601.6955,-155 642.5115,-136.9569 690.6633,-119.3301 722.9887,-108.0063"/>
<polygon fill="#000000" stroke="#000000" points="724.1929,-111.2931 732.487,-104.7008 721.8922,-104.682 724.1929,-111.2931"/>
</g>
<!-- DisorderGeneAssociation&#45;&gt;Gene -->
<g id="edge13" class="edge">
<title>DisorderGeneAssociation&#45;&gt;Gene</title>
<path fill="none" stroke="#000000" d="M669.5799,-336.0976C606.8,-328.1008 522.0424,-312.9624 451.6955,-285 451.4922,-284.9192 451.2888,-284.8372 451.0853,-284.7542"/>
<polygon fill="#000000" stroke="#000000" points="452.5045,-281.5531 441.9741,-280.3862 449.4784,-287.8653 452.5045,-281.5531"/>
</g>
<!-- DisorderGeneAssociation&#45;&gt;DisorderGeneAssociationStatus -->
<g id="edge4" class="edge">
<title>DisorderGeneAssociation&#45;&gt;DisorderGeneAssociationStatus</title>
<path fill="none" stroke="#000000" d="M718.7034,-327.9032C690.7343,-316.5791 653.0692,-301.3294 620.8877,-288.2998"/>
<polygon fill="#000000" stroke="#000000" points="622.1151,-285.0208 611.5325,-284.5121 619.4881,-291.5092 622.1151,-285.0208"/>
</g>
<!-- DisorderGeneAssociation&#45;&gt;DisorderGeneAssociationType -->
<g id="edge25" class="edge">
<title>DisorderGeneAssociation&#45;&gt;DisorderGeneAssociationType</title>
<path fill="none" stroke="#000000" d="M759.6955,-326.4902C759.6955,-317.1685 759.6955,-305.4891 759.6955,-294.6119"/>
<polygon fill="#000000" stroke="#000000" points="763.1956,-294.5322 759.6955,-284.5323 756.1956,-294.5323 763.1956,-294.5322"/>
</g>
<!-- SourceOfValidation -->
<g id="node22" class="node">
<title>SourceOfValidation</title>
<ellipse fill="none" stroke="#000000" cx="950.6955" cy="-261.5" rx="81.4863" ry="18"/>
<text text-anchor="middle" x="950.6955" y="-257.8" font-family="Times,serif" font-size="14.00" fill="#000000">SourceOfValidation</text>
</g>
<!-- DisorderGeneAssociation&#45;&gt;SourceOfValidation -->
<g id="edge20" class="edge">
<title>DisorderGeneAssociation&#45;&gt;SourceOfValidation</title>
<path fill="none" stroke="#000000" d="M798.3472,-327.7037C829.0037,-314.3818 871.9484,-295.7199 904.4319,-281.6041"/>
<polygon fill="#000000" stroke="#000000" points="905.9472,-284.7618 913.7238,-277.5663 903.1573,-278.3418 905.9472,-284.7618"/>
</g>
</g>
</svg>
