<?xml version="1.0" encoding="UTF-8" standalone="no"?>
<!DOCTYPE svg PUBLIC "-//W3C//DTD SVG 1.1//EN"
 "http://www.w3.org/Graphics/SVG/1.1/DTD/svg11.dtd">
<!-- Generated by graphviz version 2.38.0 (20140413.2041)
 -->
<!-- Title: %3 Pages: 1 -->
<svg width="4561pt" height="584pt"
 viewBox="0.00 0.00 4560.50 584.00" xmlns="http://www.w3.org/2000/svg" xmlns:xlink="http://www.w3.org/1999/xlink">
<g id="graph0" class="graph" transform="scale(1 1) rotate(0) translate(4 580)">
<title>%3</title>
<polygon fill="white" stroke="none" points="-4,4 -4,-580 4556.5,-580 4556.5,4 -4,4"/>
<!-- node1 -->
<g id="node1" class="node"><title>node1</title>
<polygon fill="grey" stroke="none" points="1242.5,-428.5 1242.5,-447.5 1634.5,-447.5 1634.5,-428.5 1242.5,-428.5"/>
<text text-anchor="start" x="1244.5" y="-435.3" font-family="DejaVu Sans" font-weight="bold" font-size="14.00">&quot;NM_018136.4(ASPM):c.[10168C&gt;T];[8098C&gt;T]&quot;</text>
<g id="a_node1_0"><a xlink:href="http://www.ncbi.nlm.nih.gov/clinvar/variation/424707" xlink:title="&lt;TABLE&gt;">
<polygon fill="#eeeeee" stroke="none" points="389,-299 389,-314 843,-314 843,-299 389,-299"/>
<text text-anchor="start" x="1315" y="-418.5" font-family="DejaVu Sans" font-size="10.00" fill="#6666ff">http://www.ncbi.nlm.nih.gov/clinvar/variation/424707</text>
</a>
</g>
<polygon fill="none" stroke="#666666" points="388,-203.5 388,-334.5 844,-334.5 844,-203.5 388,-203.5"/>
</g>
<!-- node0 -->
<g id="node2" class="node"><title>node0</title>
<polygon fill="grey" stroke="none" points="562.5,-314 562.5,-333 1016.5,-333 1016.5,-314 562.5,-314"/>
<text text-anchor="start" x="585" y="-320.8" font-family="DejaVu Sans" font-weight="bold" font-size="14.00">&quot;NM_018136.4(ASPM):c.10168C&gt;T (p.Arg3390Ter)&quot;</text>
<g id="a_node2_1"><a xlink:href="http://www.ncbi.nlm.nih.gov/clinvar/variation/165918" xlink:title="&lt;TABLE&gt;">
<polygon fill="#eeeeee" stroke="none" points="1001,-100 1001,-115 1205,-115 1205,-100 1001,-100"/>
<text text-anchor="start" x="666" y="-304" font-family="DejaVu Sans" font-size="10.00" fill="#6666ff">http://www.ncbi.nlm.nih.gov/clinvar/variation/165918</text>
</a>
</g>
<text text-anchor="start" x="564.5" y="-285.8" font-family="DejaVu Sans" font-size="14.00">oboInOwl:hasExactSynonym</text>
<text text-anchor="start" x="766.5" y="-285.8" font-family="DejaVu Sans" font-size="14.00">&quot;NC_000001.10:g.197056096G&gt;A&quot;</text>
<text text-anchor="start" x="564.5" y="-266.8" font-family="DejaVu Sans" font-size="14.00">oboInOwl:hasExactSynonym</text>
<text text-anchor="start" x="766.5" y="-266.8" font-family="DejaVu Sans" font-size="14.00">&quot;NC_000001.11:g.197086966G&gt;A&quot;</text>
<text text-anchor="start" x="564.5" y="-247.8" font-family="DejaVu Sans" font-size="14.00">oboInOwl:hasExactSynonym</text>
<text text-anchor="start" x="766.5" y="-247.8" font-family="DejaVu Sans" font-size="14.00">&quot;NG_015867.1:g.64729C&gt;T&quot;</text>
<text text-anchor="start" x="564.5" y="-228.8" font-family="DejaVu Sans" font-size="14.00">oboInOwl:hasExactSynonym</text>
<text text-anchor="start" x="766.5" y="-228.8" font-family="DejaVu Sans" font-size="14.00">&quot;NM_018136.4:c.10168C&gt;T&quot;</text>
<text text-anchor="start" x="564.5" y="-209.8" font-family="DejaVu Sans" font-size="14.00">oboInOwl:hasExactSynonym</text>
<text text-anchor="start" x="766.5" y="-209.8" font-family="DejaVu Sans" font-size="14.00">&quot;NP_060606.3:p.Arg3390Ter&quot;</text>
<polygon fill="none" stroke="#666666" points="1000,-99 1000,-135 1206,-135 1206,-99 1000,-99"/>
</g>
<!-- node1&#45;&gt;node0 -->
<g id="edge1" class="edge"><title>node1&#45;&gt;node0</title>
<path fill="none" stroke="BLACK" d="M1294.7,-408.483C1248.44,-400.87 1197.12,-391.522 1150.5,-381 1098.21,-369.198 1085.82,-363.466 1034.5,-348 1027.52,-345.897 1020.44,-343.745 1013.29,-341.559"/>
<polygon fill="BLACK" stroke="BLACK" points="1014.09,-338.144 1003.5,-338.558 1012.04,-344.836 1014.09,-338.144"/>
<text text-anchor="start" x="1150.5" y="-370.8" font-family="Times,serif" font-size="14.00"> </text>
<text text-anchor="start" x="1154.5" y="-370.8" font-family="Times,serif" font-size="10.00" fill="#336633">OBO:GENO_0000382</text>
<text text-anchor="start" x="1250.5" y="-370.8" font-family="Times,serif" font-size="14.00"> </text>
</g>
<!-- node2 -->
<g id="node3" class="node"><title>node2</title>
<polygon fill="grey" stroke="none" points="1052.5,-267 1052.5,-286 1270.5,-286 1270.5,-267 1052.5,-267"/>
<text text-anchor="start" x="1100.5" y="-273.8" font-family="DejaVu Sans" font-weight="bold" font-size="14.00">GENO_0000402</text>
<g id="a_node3_2"><a xlink:href="http://purl.obolibrary.org/obo/GENO_0000402" xlink:title="&lt;TABLE&gt;">
<polygon fill="#eeeeee" stroke="none" points="1241,-100 1241,-115 1463,-115 1463,-100 1241,-100"/>
<text text-anchor="start" x="1054.5" y="-257" font-family="DejaVu Sans" font-size="10.00" fill="#6666ff">http://purl.obolibrary.org/obo/GENO_0000402</text>
</a>
</g>
<polygon fill="none" stroke="#666666" points="1240,-99 1240,-135 1464,-135 1464,-99 1240,-99"/>
</g>
<!-- node1&#45;&gt;node2 -->
<g id="edge2" class="edge"><title>node1&#45;&gt;node2</title>
<path fill="none" stroke="BLACK" d="M1344.91,-408.41C1322.97,-401.422 1300.25,-392.418 1280.5,-381 1242.98,-359.307 1207.7,-323.756 1185.44,-298.744"/>
<polygon fill="BLACK" stroke="BLACK" points="1187.91,-296.246 1178.69,-291.025 1182.64,-300.855 1187.91,-296.246"/>
<text text-anchor="start" x="1280.5" y="-370.8" font-family="Times,serif" font-size="14.00"> </text>
<text text-anchor="start" x="1284.5" y="-370.8" font-family="Times,serif" font-size="10.00" fill="#336633">OBO:GENO_0000608</text>
<text text-anchor="start" x="1380.5" y="-370.8" font-family="Times,serif" font-size="14.00"> </text>
</g>
<!-- node1&#45;&gt;node2 -->
<g id="edge7" class="edge"><title>node1&#45;&gt;node2</title>
<path fill="none" stroke="BLACK" d="M1426.08,-408.464C1416.53,-394.205 1402.02,-376.167 1384.5,-366 1346.95,-344.216 1329,-363.619 1288.5,-348 1255.67,-335.341 1221.89,-314.126 1197.43,-297.014"/>
<polygon fill="BLACK" stroke="BLACK" points="1199.36,-294.093 1189.18,-291.153 1195.31,-299.799 1199.36,-294.093"/>
<text text-anchor="start" x="1402.5" y="-370.8" font-family="Times,serif" font-size="14.00"> </text>
<text text-anchor="start" x="1406.5" y="-370.8" font-family="Times,serif" font-size="10.00" fill="#336633">rdf:type</text>
<text text-anchor="start" x="1439.5" y="-370.8" font-family="Times,serif" font-size="14.00"> </text>
</g>
<!-- node3 -->
<g id="node4" class="node"><title>node3</title>
<polygon fill="grey" stroke="none" points="1307.5,-324 1307.5,-343 1774.5,-343 1774.5,-324 1307.5,-324"/>
<text text-anchor="start" x="1341" y="-330.8" font-family="DejaVu Sans" font-weight="bold" font-size="14.00">&quot;NM_018136.4(ASPM):c.8098C&gt;T (p.Arg2700Ter)&quot;</text>
<g id="a_node4_3"><a xlink:href="http://www.ncbi.nlm.nih.gov/clinvar/variation/165917" xlink:title="&lt;TABLE&gt;">
<polygon fill="#eeeeee" stroke="none" points="9,-100 9,-115 365,-115 365,-100 9,-100"/>
<text text-anchor="start" x="1417.5" y="-314" font-family="DejaVu Sans" font-size="10.00" fill="#6666ff">http://www.ncbi.nlm.nih.gov/clinvar/variation/165917</text>
</a>
</g>
<text text-anchor="start" x="1309.5" y="-295.8" font-family="DejaVu Sans" font-size="14.00">oboInOwl:hasExactSynonym</text>
<text text-anchor="start" x="1511.5" y="-295.8" font-family="DejaVu Sans" font-size="14.00">&quot;NC_000001.10:g.197070283G&gt;A&quot;</text>
<text text-anchor="start" x="1309.5" y="-276.8" font-family="DejaVu Sans" font-size="14.00">oboInOwl:hasExactSynonym</text>
<text text-anchor="start" x="1511.5" y="-276.8" font-family="DejaVu Sans" font-size="14.00">&quot;NC_000001.11:g.197101153G&gt;A&quot;</text>
<text text-anchor="start" x="1309.5" y="-257.8" font-family="DejaVu Sans" font-size="14.00">oboInOwl:hasExactSynonym</text>
<text text-anchor="start" x="1511.5" y="-257.8" font-family="DejaVu Sans" font-size="14.00">&quot;NG_015867.1:g.50542C&gt;T&quot;</text>
<text text-anchor="start" x="1309.5" y="-238.8" font-family="DejaVu Sans" font-size="14.00">oboInOwl:hasExactSynonym</text>
<text text-anchor="start" x="1511.5" y="-238.8" font-family="DejaVu Sans" font-size="14.00">&quot;NM_001206846.1:c.4066&#45;4989C&gt;T&quot;</text>
<text text-anchor="start" x="1309.5" y="-219.8" font-family="DejaVu Sans" font-size="14.00">oboInOwl:hasExactSynonym</text>
<text text-anchor="start" x="1511.5" y="-219.8" font-family="DejaVu Sans" font-size="14.00">&quot;NM_018136.4:c.8098C&gt;T&quot;</text>
<text text-anchor="start" x="1309.5" y="-200.8" font-family="DejaVu Sans" font-size="14.00">oboInOwl:hasExactSynonym</text>
<text text-anchor="start" x="1511.5" y="-200.8" font-family="DejaVu Sans" font-size="14.00">&quot;NP_060606.3:p.Arg2700Ter&quot;</text>
<polygon fill="none" stroke="#666666" points="8,-99 8,-135 366,-135 366,-99 8,-99"/>
</g>
<!-- node1&#45;&gt;node3 -->
<g id="edge29" class="edge"><title>node1&#45;&gt;node3</title>
<path fill="none" stroke="BLACK" d="M1452.04,-408.32C1460.78,-394.664 1472.78,-375.901 1485.12,-356.599"/>
<polygon fill="BLACK" stroke="BLACK" points="1488.17,-358.32 1490.61,-348.01 1482.28,-354.549 1488.17,-358.32"/>
<text text-anchor="start" x="1477.5" y="-370.8" font-family="Times,serif" font-size="14.00"> </text>
<text text-anchor="start" x="1481.5" y="-370.8" font-family="Times,serif" font-size="10.00" fill="#336633">OBO:GENO_0000382</text>
<text text-anchor="start" x="1577.5" y="-370.8" font-family="Times,serif" font-size="14.00"> </text>
</g>
<!-- node5 -->
<g id="node5" class="node"><title>node5</title>
<polygon fill="grey" stroke="none" points="1706.5,-115 1706.5,-134 2062.5,-134 2062.5,-115 1706.5,-115"/>
<text text-anchor="start" x="1708.5" y="-121.8" font-family="DejaVu Sans" font-weight="bold" font-size="14.00">https://www.ncbi.nlm.nih.gov/gene/259266</text>
<g id="a_node5_4"><a xlink:href="https://www.ncbi.nlm.nih.gov/gene/259266" xlink:title="&lt;TABLE&gt;">
<polygon fill="#eeeeee" stroke="none" points="402,-100 402,-115 965,-115 965,-100 402,-100"/>
<text text-anchor="start" x="1784" y="-105" font-family="DejaVu Sans" font-size="10.00" fill="#6666ff">https://www.ncbi.nlm.nih.gov/gene/259266</text>
</a>
</g>
<polygon fill="none" stroke="#666666" points="400.5,-99 400.5,-135 965.5,-135 965.5,-99 400.5,-99"/>
</g>
<!-- node1&#45;&gt;node5 -->
<g id="edge14" class="edge"><title>node1&#45;&gt;node5</title>
<path fill="none" stroke="BLACK" d="M1603.15,-408.477C1681.54,-395.19 1764.11,-375.309 1791.5,-348 1842.58,-297.082 1797.42,-255.081 1828.5,-190 1835.89,-174.527 1847.05,-159.262 1857.46,-146.797"/>
<polygon fill="BLACK" stroke="BLACK" points="1860.27,-148.896 1864.15,-139.036 1854.97,-144.325 1860.27,-148.896"/>
<text text-anchor="start" x="1828.5" y="-266.3" font-family="Times,serif" font-size="14.00"> </text>
<text text-anchor="start" x="1832.5" y="-266.3" font-family="Times,serif" font-size="10.00" fill="#336633">OBO:GENO_0000418</text>
<text text-anchor="start" x="1928.5" y="-266.3" font-family="Times,serif" font-size="14.00"> </text>
</g>
<!-- node6 -->
<g id="node6" class="node"><title>node6</title>
<polygon fill="grey" stroke="none" points="1951.5,-267 1951.5,-286 2334.5,-286 2334.5,-267 1951.5,-267"/>
<text text-anchor="start" x="1953.5" y="-273.8" font-family="DejaVu Sans" font-weight="bold" font-size="14.00">&quot;Primary autosomal recessive microcephaly 5&quot;</text>
<g id="a_node6_5"><a xlink:href="http://omim.org/entry/608716" xlink:title="&lt;TABLE&gt;">
<polygon fill="#eeeeee" stroke="none" points="886,-413.5 886,-428.5 1278,-428.5 1278,-413.5 886,-413.5"/>
<text text-anchor="start" x="2072" y="-257" font-family="DejaVu Sans" font-size="10.00" fill="#6666ff">http://omim.org/entry/608716</text>
</a>
</g>
<polygon fill="none" stroke="#666666" points="885,-412.5 885,-448.5 1279,-448.5 1279,-412.5 885,-412.5"/>
</g>
<!-- node1&#45;&gt;node6 -->
<g id="edge4" class="edge"><title>node1&#45;&gt;node6</title>
<path fill="none" stroke="BLACK" d="M1643.72,-412.794C1705.23,-405.513 1772.53,-395.268 1833.5,-381 1876.61,-370.91 1885.8,-362.884 1927.5,-348 1977.11,-330.293 2033.04,-309.99 2075.42,-294.538"/>
<polygon fill="BLACK" stroke="BLACK" points="2076.87,-297.735 2085.07,-291.019 2074.47,-291.158 2076.87,-297.735"/>
<text text-anchor="start" x="1881.5" y="-370.8" font-family="Times,serif" font-size="14.00"> </text>
<text text-anchor="start" x="1885.5" y="-370.8" font-family="Times,serif" font-size="10.00" fill="#336633">OBO:GENO_0000840</text>
<text text-anchor="start" x="1981.5" y="-370.8" font-family="Times,serif" font-size="14.00"> </text>
</g>
<!-- node9 -->
<g id="node9" class="node"><title>node9</title>
<polygon fill="grey" stroke="none" points="608.5,-115 608.5,-134 830.5,-134 830.5,-115 608.5,-115"/>
<text text-anchor="start" x="653" y="-121.8" font-family="DejaVu Sans" font-weight="bold" font-size="14.00">NCBITaxon_9606</text>
<g id="a_node9_6"><a xlink:href="http://purl.obolibrary.org/obo/NCBITaxon_9606" xlink:title="&lt;TABLE&gt;">
<polygon fill="#eeeeee" stroke="none" points="879,-252 879,-267 1097,-267 1097,-252 879,-252"/>
<text text-anchor="start" x="610.5" y="-105" font-family="DejaVu Sans" font-size="10.00" fill="#6666ff">http://purl.obolibrary.org/obo/NCBITaxon_9606</text>
</a>
</g>
<polygon fill="none" stroke="#666666" points="878,-251 878,-287 1098,-287 1098,-251 878,-251"/>
</g>
<!-- node1&#45;&gt;node9 -->
<g id="edge28" class="edge"><title>node1&#45;&gt;node9</title>
<path fill="none" stroke="BLACK" d="M1233.36,-427.019C960.429,-421.551 506.092,-404.042 454.5,-348 406.939,-296.337 411.849,-245.786 454.5,-190 464.522,-176.892 541.204,-156.905 609.517,-141.312"/>
<polygon fill="BLACK" stroke="BLACK" points="610.547,-144.668 619.526,-139.045 609,-137.841 610.547,-144.668"/>
<text text-anchor="start" x="454.5" y="-266.3" font-family="Times,serif" font-size="14.00"> </text>
<text text-anchor="start" x="458.5" y="-266.3" font-family="Times,serif" font-size="10.00" fill="#336633">OBO:RO_0002162</text>
<text text-anchor="start" x="540.5" y="-266.3" font-family="Times,serif" font-size="14.00"> </text>
</g>
<!-- node0&#45;&gt;node5 -->
<g id="edge9" class="edge"><title>node0&#45;&gt;node5</title>
<path fill="none" stroke="BLACK" d="M989.63,-199.498C1004.7,-195.816 1019.77,-192.577 1034.5,-190 1240.85,-153.896 1298.11,-201.562 1505.5,-172 1532.71,-168.121 1538.47,-162.011 1565.5,-157 1590.19,-152.423 1636.94,-146.244 1687.2,-140.155"/>
<polygon fill="BLACK" stroke="BLACK" points="1687.78,-143.61 1697.29,-138.939 1686.95,-136.661 1687.78,-143.61"/>
<text text-anchor="start" x="1565.5" y="-161.8" font-family="Times,serif" font-size="14.00"> </text>
<text text-anchor="start" x="1569.5" y="-161.8" font-family="Times,serif" font-size="10.00" fill="#336633">OBO:GENO_0000418</text>
<text text-anchor="start" x="1665.5" y="-161.8" font-family="Times,serif" font-size="14.00"> </text>
</g>
<!-- node0&#45;&gt;node9 -->
<g id="edge27" class="edge"><title>node0&#45;&gt;node9</title>
<path fill="none" stroke="BLACK" d="M739.348,-199.442C734.386,-190.517 729.928,-181.253 726.5,-172 723.835,-164.809 722.157,-156.752 721.107,-149.101"/>
<polygon fill="BLACK" stroke="BLACK" points="724.574,-148.61 720.031,-139.039 717.614,-149.354 724.574,-148.61"/>
<text text-anchor="start" x="726.5" y="-161.8" font-family="Times,serif" font-size="14.00"> </text>
<text text-anchor="start" x="730.5" y="-161.8" font-family="Times,serif" font-size="10.00" fill="#336633">OBO:RO_0002162</text>
<text text-anchor="start" x="812.5" y="-161.8" font-family="Times,serif" font-size="14.00"> </text>
</g>
<!-- node16 -->
<g id="node16" class="node"><title>node16</title>
<polygon fill="grey" stroke="none" points="866.5,-115 866.5,-134 1070.5,-134 1070.5,-115 866.5,-115"/>
<text text-anchor="start" x="919" y="-121.8" font-family="DejaVu Sans" font-weight="bold" font-size="14.00">SO_0001483</text>
<g id="a_node16_7"><a xlink:href="http://purl.obolibrary.org/obo/SO_0001483" xlink:title="&lt;TABLE&gt;">
<polygon fill="#eeeeee" stroke="none" points="1763,-252 1763,-267 2146,-267 2146,-252 1763,-252"/>
<text text-anchor="start" x="868.5" y="-105" font-family="DejaVu Sans" font-size="10.00" fill="#6666ff">http://purl.obolibrary.org/obo/SO_0001483</text>
</a>
</g>
<polygon fill="none" stroke="#666666" points="1761.5,-251 1761.5,-287 2146.5,-287 2146.5,-251 1761.5,-251"/>
</g>
<!-- node0&#45;&gt;node16 -->
<g id="edge13" class="edge"><title>node0&#45;&gt;node16</title>
<path fill="none" stroke="BLACK" d="M901.438,-199.278C912.422,-190.676 923.001,-181.53 932.5,-172 939.643,-164.834 946.205,-156.05 951.714,-147.665"/>
<polygon fill="BLACK" stroke="BLACK" points="954.703,-149.488 957.055,-139.157 948.774,-145.766 954.703,-149.488"/>
<text text-anchor="start" x="945.5" y="-161.8" font-family="Times,serif" font-size="14.00"> </text>
<text text-anchor="start" x="949.5" y="-161.8" font-family="Times,serif" font-size="10.00" fill="#336633">rdf:type</text>
<text text-anchor="start" x="982.5" y="-161.8" font-family="Times,serif" font-size="14.00"> </text>
</g>
<!-- node19 -->
<g id="node19" class="node"><title>node19</title>
<polygon fill="grey" stroke="none" points="9.5,-115 9.5,-134 572.5,-134 572.5,-115 9.5,-115"/>
<text text-anchor="start" x="11.5" y="-121.8" font-family="DejaVu Sans" font-weight="bold" font-size="14.00">http://www.ncbi.nlm.nih.gov/projects/SNP/snp_ref.cgi?rs=587783211</text>
<g id="a_node19_8"><a xlink:href="http://www.ncbi.nlm.nih.gov/projects/SNP/snp_ref.cgi?rs=587783211" xlink:title="&lt;TABLE&gt;">
<polygon fill="#eeeeee" stroke="none" points="1260,-309 1260,-324 1727,-324 1727,-309 1260,-309"/>
<text text-anchor="start" x="128.5" y="-105" font-family="DejaVu Sans" font-size="10.00" fill="#6666ff">http://www.ncbi.nlm.nih.gov/projects/SNP/snp_ref.cgi?rs=587783211</text>
</a>
</g>
<polygon fill="none" stroke="#666666" points="1258.5,-194 1258.5,-344 1727.5,-344 1727.5,-194 1258.5,-194"/>
</g>
<!-- node0&#45;&gt;node19 -->
<g id="edge21" class="edge"><title>node0&#45;&gt;node19</title>
<path fill="none" stroke="BLACK" d="M570.753,-199.461C560.193,-196.243 549.732,-193.075 539.5,-190 484.667,-173.52 422.832,-155.637 374.499,-141.815"/>
<polygon fill="BLACK" stroke="BLACK" points="375.285,-138.4 364.709,-139.018 373.362,-145.13 375.285,-138.4"/>
<text text-anchor="start" x="478.5" y="-161.8" font-family="Times,serif" font-size="14.00"> </text>
<text text-anchor="start" x="482.5" y="-161.8" font-family="Times,serif" font-size="10.00" fill="#336633">owl:sameAs</text>
<text text-anchor="start" x="533.5" y="-161.8" font-family="Times,serif" font-size="14.00"> </text>
</g>
<!-- node3&#45;&gt;node5 -->
<g id="edge3" class="edge"><title>node3&#45;&gt;node5</title>
<path fill="none" stroke="BLACK" d="M1640.91,-189.98C1660.25,-177.538 1680.92,-165.866 1701.5,-157 1715.2,-151.096 1729.88,-146.055 1744.75,-141.757"/>
<polygon fill="BLACK" stroke="BLACK" points="1745.83,-145.088 1754.53,-139.039 1743.96,-138.343 1745.83,-145.088"/>
<text text-anchor="start" x="1701.5" y="-161.8" font-family="Times,serif" font-size="14.00"> </text>
<text text-anchor="start" x="1705.5" y="-161.8" font-family="Times,serif" font-size="10.00" fill="#336633">OBO:GENO_0000418</text>
<text text-anchor="start" x="1801.5" y="-161.8" font-family="Times,serif" font-size="14.00"> </text>
</g>
<!-- node3&#45;&gt;node9 -->
<g id="edge6" class="edge"><title>node3&#45;&gt;node9</title>
<path fill="none" stroke="BLACK" d="M1297.68,-191.648C1294.61,-191.073 1291.55,-190.523 1288.5,-190 1189.86,-173.061 933.525,-203.406 838.5,-172 827.264,-168.286 826.94,-162.573 816.5,-157 807.278,-152.077 797.296,-147.395 787.363,-143.095"/>
<polygon fill="BLACK" stroke="BLACK" points="788.454,-139.757 777.88,-139.094 785.733,-146.206 788.454,-139.757"/>
<text text-anchor="start" x="838.5" y="-161.8" font-family="Times,serif" font-size="14.00"> </text>
<text text-anchor="start" x="842.5" y="-161.8" font-family="Times,serif" font-size="10.00" fill="#336633">OBO:RO_0002162</text>
<text text-anchor="start" x="924.5" y="-161.8" font-family="Times,serif" font-size="14.00"> </text>
</g>
<!-- node3&#45;&gt;node16 -->
<g id="edge16" class="edge"><title>node3&#45;&gt;node16</title>
<path fill="none" stroke="BLACK" d="M1297.85,-192.517C1294.71,-191.666 1291.6,-190.826 1288.5,-190 1220.36,-171.818 1143.25,-154.376 1081.8,-141.214"/>
<polygon fill="BLACK" stroke="BLACK" points="1082.19,-137.72 1071.68,-139.056 1080.73,-144.566 1082.19,-137.72"/>
<text text-anchor="start" x="1210.5" y="-161.8" font-family="Times,serif" font-size="14.00"> </text>
<text text-anchor="start" x="1214.5" y="-161.8" font-family="Times,serif" font-size="10.00" fill="#336633">rdf:type</text>
<text text-anchor="start" x="1247.5" y="-161.8" font-family="Times,serif" font-size="14.00"> </text>
</g>
<!-- node22 -->
<g id="node23" class="node"><title>node22</title>
<polygon fill="grey" stroke="none" points="1107.5,-115 1107.5,-134 1670.5,-134 1670.5,-115 1107.5,-115"/>
<text text-anchor="start" x="1109.5" y="-121.8" font-family="DejaVu Sans" font-weight="bold" font-size="14.00">http://www.ncbi.nlm.nih.gov/projects/SNP/snp_ref.cgi?rs=730882076</text>
<g id="a_node23_9"><a xlink:href="http://www.ncbi.nlm.nih.gov/projects/SNP/snp_ref.cgi?rs=730882076" xlink:title="&lt;TABLE&gt;">
<polygon fill="#eeeeee" stroke="none" points="2783,-527.5 2783,-542.5 3099,-542.5 3099,-527.5 2783,-527.5"/>
<text text-anchor="start" x="1226.5" y="-105" font-family="DejaVu Sans" font-size="10.00" fill="#6666ff">http://www.ncbi.nlm.nih.gov/projects/SNP/snp_ref.cgi?rs=730882076</text>
</a>
</g>
<polygon fill="none" stroke="#666666" points="2782,-526.5 2782,-562.5 3100,-562.5 3100,-526.5 2782,-526.5"/>
</g>
<!-- node3&#45;&gt;node22 -->
<g id="edge30" class="edge"><title>node3&#45;&gt;node22</title>
<path fill="none" stroke="BLACK" d="M1461.38,-189.925C1445.46,-174.215 1429.73,-158.685 1416.97,-146.099"/>
<polygon fill="BLACK" stroke="BLACK" points="1419.41,-143.582 1409.83,-139.049 1414.49,-148.565 1419.41,-143.582"/>
<text text-anchor="start" x="1442.5" y="-161.8" font-family="Times,serif" font-size="14.00"> </text>
<text text-anchor="start" x="1446.5" y="-161.8" font-family="Times,serif" font-size="10.00" fill="#336633">owl:sameAs</text>
<text text-anchor="start" x="1497.5" y="-161.8" font-family="Times,serif" font-size="14.00"> </text>
</g>
<!-- node7 -->
<g id="node7" class="node"><title>node7</title>
<polygon fill="grey" stroke="none" points="3421.5,-115 3421.5,-134 3815.5,-134 3815.5,-115 3421.5,-115"/>
<text text-anchor="start" x="3423.5" y="-121.8" font-family="DejaVu Sans" font-weight="bold" font-size="14.00">http://www.ncbi.nlm.nih.gov/pubmed/25786579</text>
<g id="a_node7_10"><a xlink:href="http://www.ncbi.nlm.nih.gov/pubmed/25786579" xlink:title="&lt;TABLE&gt;">
<polygon fill="#eeeeee" stroke="none" points="3196,-100 3196,-115 3590,-115 3590,-100 3196,-100"/>
<text text-anchor="start" x="3507" y="-105" font-family="DejaVu Sans" font-size="10.00" fill="#6666ff">http://www.ncbi.nlm.nih.gov/pubmed/25786579</text>
</a>
</g>
<polygon fill="none" stroke="#666666" points="3195,-99 3195,-135 3591,-135 3591,-99 3195,-99"/>
</g>
<!-- node8 -->
<g id="node8" class="node"><title>node8</title>
<polygon fill="grey" stroke="none" points="3515.5,-20 3515.5,-39 3721.5,-39 3721.5,-20 3515.5,-20"/>
<text text-anchor="start" x="3566" y="-26.8" font-family="DejaVu Sans" font-weight="bold" font-size="14.00">IAO_0000013</text>
<g id="a_node8_11"><a xlink:href="http://purl.obolibrary.org/obo/IAO_0000013" xlink:title="&lt;TABLE&gt;">
<polygon fill="#eeeeee" stroke="none" points="2579,-422.5 2579,-437.5 2928,-437.5 2928,-422.5 2579,-422.5"/>
<text text-anchor="start" x="3517.5" y="-10" font-family="DejaVu Sans" font-size="10.00" fill="#6666ff">http://purl.obolibrary.org/obo/IAO_0000013</text>
</a>
</g>
<polygon fill="none" stroke="#666666" points="2577.5,-403 2577.5,-458 2928.5,-458 2928.5,-403 2577.5,-403"/>
</g>
<!-- node7&#45;&gt;node8 -->
<g id="edge5" class="edge"><title>node7&#45;&gt;node8</title>
<path fill="none" stroke="BLACK" d="M3618.5,-94.8969C3618.5,-82.8873 3618.5,-67.6175 3618.5,-54.242"/>
<polygon fill="BLACK" stroke="BLACK" points="3622,-54.0196 3618.5,-44.0196 3615,-54.0197 3622,-54.0196"/>
<text text-anchor="start" x="3618.5" y="-66.8" font-family="Times,serif" font-size="14.00"> </text>
<text text-anchor="start" x="3622.5" y="-66.8" font-family="Times,serif" font-size="10.00" fill="#336633">rdf:type</text>
<text text-anchor="start" x="3655.5" y="-66.8" font-family="Times,serif" font-size="14.00"> </text>
</g>
<!-- node10 -->
<g id="node10" class="node"><title>node10</title>
<polygon fill="grey" stroke="none" points="3041.5,-115 3041.5,-134 3385.5,-134 3385.5,-115 3041.5,-115"/>
<text text-anchor="start" x="3043.5" y="-121.8" font-family="DejaVu Sans" font-weight="bold" font-size="14.00">&quot;_:b8e43a4f4ce6a8409c4aSEPIO:0000066&quot;</text>
<g id="a_node10_12"><a xlink:href="https://monarchinitiative.org/.well-known/genid/bcff6acb169553f68e9b" xlink:title="&lt;TABLE&gt;">
<polygon fill="#eeeeee" stroke="none" points="2182,-252 2182,-267 2526,-267 2526,-252 2182,-252"/>
<text text-anchor="start" x="3046.5" y="-105" font-family="DejaVu Sans" font-size="10.00" fill="#6666ff">https://monarchinitiative.org/.well&#45;known/genid/bcff6acb169553f68e9b</text>
</a>
</g>
<polygon fill="none" stroke="#666666" points="2181,-251 2181,-287 2527,-287 2527,-251 2181,-251"/>
</g>
<!-- node11 -->
<g id="node11" class="node"><title>node11</title>
<polygon fill="grey" stroke="none" points="3104.5,-20 3104.5,-39 3322.5,-39 3322.5,-20 3104.5,-20"/>
<text text-anchor="start" x="3151.5" y="-26.8" font-family="DejaVu Sans" font-weight="bold" font-size="14.00">SEPIO_0000066</text>
<g id="a_node11_13"><a xlink:href="http://purl.obolibrary.org/obo/SEPIO_0000066" xlink:title="&lt;TABLE&gt;">
<polygon fill="#eeeeee" stroke="none" points="3166,-413.5 3166,-428.5 3384,-428.5 3384,-413.5 3166,-413.5"/>
<text text-anchor="start" x="3106.5" y="-10" font-family="DejaVu Sans" font-size="10.00" fill="#6666ff">http://purl.obolibrary.org/obo/SEPIO_0000066</text>
</a>
</g>
<polygon fill="none" stroke="#666666" points="3165,-412.5 3165,-448.5 3385,-448.5 3385,-412.5 3165,-412.5"/>
</g>
<!-- node10&#45;&gt;node11 -->
<g id="edge8" class="edge"><title>node10&#45;&gt;node11</title>
<path fill="none" stroke="BLACK" d="M3213.5,-94.8969C3213.5,-82.8873 3213.5,-67.6175 3213.5,-54.242"/>
<polygon fill="BLACK" stroke="BLACK" points="3217,-54.0196 3213.5,-44.0196 3210,-54.0197 3217,-54.0196"/>
<text text-anchor="start" x="3213.5" y="-66.8" font-family="Times,serif" font-size="14.00"> </text>
<text text-anchor="start" x="3217.5" y="-66.8" font-family="Times,serif" font-size="10.00" fill="#336633">rdf:type</text>
<text text-anchor="start" x="3250.5" y="-66.8" font-family="Times,serif" font-size="14.00"> </text>
</g>
<!-- node12 -->
<g id="node12" class="node"><title>node12</title>
<polygon fill="grey" stroke="none" points="2928.5,-437.5 2928.5,-456.5 3277.5,-456.5 3277.5,-437.5 2928.5,-437.5"/>
<text text-anchor="start" x="2994.5" y="-444.3" font-family="DejaVu Sans" font-weight="bold" font-size="14.00">&quot;ClinVarAssertion_336174&quot;</text>
<g id="a_node12_14"><a xlink:href="https://monarchinitiative.org/.well-known/genid/bd539326250b4352d101" xlink:title="&lt;TABLE&gt;">
<polygon fill="#eeeeee" stroke="none" points="3421,-413.5 3421,-428.5 3664,-428.5 3664,-413.5 3421,-413.5"/>
<text text-anchor="start" x="2930.5" y="-427.5" font-family="DejaVu Sans" font-size="10.00" fill="#6666ff">https://monarchinitiative.org/.well&#45;known/genid/bd539326250b4352d101</text>
</a>
</g>
<text text-anchor="start" x="2930.5" y="-409.3" font-family="DejaVu Sans" font-size="14.00">dc:identifier</text>
<text text-anchor="start" x="3077.5" y="-409.3" font-family="DejaVu Sans" font-size="14.00">&quot;SCV000189126.2&quot;</text>
<polygon fill="none" stroke="#666666" points="3419.5,-412.5 3419.5,-448.5 3664.5,-448.5 3664.5,-412.5 3419.5,-412.5"/>
</g>
<!-- node4 -->
<g id="node13" class="node"><title>node4</title>
<polygon fill="grey" stroke="none" points="3199.5,-267 3199.5,-286 3543.5,-286 3543.5,-267 3199.5,-267"/>
<text text-anchor="start" x="3225.5" y="-273.8" font-family="DejaVu Sans" font-weight="bold" font-size="14.00">&quot;b25e1dcae8dd05dc4d16_evidence&quot;</text>
<g id="a_node13_15"><a xlink:href="https://monarchinitiative.org/.well-known/genid/b8e43a4f4ce6a8409c4a" xlink:title="&lt;TABLE&gt;">
<polygon fill="#eeeeee" stroke="none" points="3700,-413.5 3700,-428.5 3854,-428.5 3854,-413.5 3700,-413.5"/>
<text text-anchor="start" x="3201.5" y="-257" font-family="DejaVu Sans" font-size="10.00" fill="#6666ff">https://monarchinitiative.org/.well&#45;known/genid/b8e43a4f4ce6a8409c4a</text>
</a>
</g>
<polygon fill="none" stroke="#666666" points="3699,-412.5 3699,-448.5 3855,-448.5 3855,-412.5 3699,-412.5"/>
</g>
<!-- node12&#45;&gt;node4 -->
<g id="edge10" class="edge"><title>node12&#45;&gt;node4</title>
<path fill="none" stroke="BLACK" d="M3154.05,-398.936C3204.21,-369.193 3279.63,-324.475 3327.17,-296.284"/>
<polygon fill="BLACK" stroke="BLACK" points="3329.19,-299.158 3336,-291.047 3325.62,-293.137 3329.19,-299.158"/>
<text text-anchor="start" x="3205.5" y="-370.8" font-family="Times,serif" font-size="14.00"> </text>
<text text-anchor="start" x="3209.5" y="-370.8" font-family="Times,serif" font-size="10.00" fill="#336633">OBO:SEPIO_0000111</text>
<text text-anchor="start" x="3303.5" y="-370.8" font-family="Times,serif" font-size="14.00"> </text>
</g>
<!-- node14 -->
<g id="node14" class="node"><title>node14</title>
<polygon fill="grey" stroke="none" points="2370.5,-267 2370.5,-286 2909.5,-286 2909.5,-267 2370.5,-267"/>
<text text-anchor="start" x="2372.5" y="-273.8" font-family="DejaVu Sans" font-weight="bold" font-size="14.00">&quot;Medical Research Institute,Tokyo Medical and Dental University&quot;</text>
<g id="a_node14_16"><a xlink:href="http://www.ncbi.nlm.nih.gov/clinvar/submitters/505721" xlink:title="&lt;TABLE&gt;">
<polygon fill="#eeeeee" stroke="none" points="3290,-5 3290,-20 3496,-20 3496,-5 3290,-5"/>
<text text-anchor="start" x="2511.5" y="-257" font-family="DejaVu Sans" font-size="10.00" fill="#6666ff">http://www.ncbi.nlm.nih.gov/clinvar/submitters/505721</text>
</a>
</g>
<polygon fill="none" stroke="#666666" points="3289,-4 3289,-40 3497,-40 3497,-4 3289,-4"/>
</g>
<!-- node12&#45;&gt;node14 -->
<g id="edge11" class="edge"><title>node12&#45;&gt;node14</title>
<path fill="none" stroke="BLACK" d="M3013.78,-398.936C2925.46,-368.513 2791.67,-322.422 2710.26,-294.376"/>
<polygon fill="BLACK" stroke="BLACK" points="2711.19,-290.995 2700.6,-291.047 2708.91,-297.614 2711.19,-290.995"/>
<text text-anchor="start" x="2953.5" y="-370.8" font-family="Times,serif" font-size="14.00"> </text>
<text text-anchor="start" x="2957.5" y="-370.8" font-family="Times,serif" font-size="10.00" fill="#336633">OBO:SEPIO_0000018</text>
<text text-anchor="start" x="3051.5" y="-370.8" font-family="Times,serif" font-size="14.00"> </text>
</g>
<!-- node24 -->
<g id="node25" class="node"><title>node24</title>
<polygon fill="grey" stroke="none" points="2945.5,-267 2945.5,-286 3163.5,-286 3163.5,-267 2945.5,-267"/>
<text text-anchor="start" x="2992.5" y="-273.8" font-family="DejaVu Sans" font-weight="bold" font-size="14.00">SEPIO_0000001</text>
<g id="a_node25_17"><a xlink:href="http://purl.obolibrary.org/obo/SEPIO_0000001" xlink:title="&lt;TABLE&gt;">
<polygon fill="#eeeeee" stroke="none" points="2817,-252 2817,-267 3356,-267 3356,-252 2817,-252"/>
<text text-anchor="start" x="2947.5" y="-257" font-family="DejaVu Sans" font-size="10.00" fill="#6666ff">http://purl.obolibrary.org/obo/SEPIO_0000001</text>
</a>
</g>
<polygon fill="none" stroke="#666666" points="2815.5,-251 2815.5,-287 3356.5,-287 3356.5,-251 2815.5,-251"/>
</g>
<!-- node12&#45;&gt;node24 -->
<g id="edge32" class="edge"><title>node12&#45;&gt;node24</title>
<path fill="none" stroke="BLACK" d="M3093.25,-398.747C3084.8,-370.69 3072.38,-329.423 3063.9,-301.22"/>
<polygon fill="BLACK" stroke="BLACK" points="3067.19,-300.037 3060.96,-291.469 3060.49,-302.054 3067.19,-300.037"/>
<text text-anchor="start" x="3087.5" y="-370.8" font-family="Times,serif" font-size="14.00"> </text>
<text text-anchor="start" x="3091.5" y="-370.8" font-family="Times,serif" font-size="10.00" fill="#336633">rdf:type</text>
<text text-anchor="start" x="3124.5" y="-370.8" font-family="Times,serif" font-size="14.00"> </text>
</g>
<!-- node4&#45;&gt;node7 -->
<g id="edge20" class="edge"><title>node4&#45;&gt;node7</title>
<path fill="none" stroke="BLACK" d="M3383.41,-246.976C3398.83,-221.708 3428.09,-179.862 3464.5,-157 3473.26,-151.498 3482.76,-146.771 3492.6,-142.71"/>
<polygon fill="BLACK" stroke="BLACK" points="3494.06,-145.898 3502.11,-139.018 3491.53,-139.372 3494.06,-145.898"/>
<text text-anchor="start" x="3464.5" y="-161.8" font-family="Times,serif" font-size="14.00"> </text>
<text text-anchor="start" x="3468.5" y="-161.8" font-family="Times,serif" font-size="10.00" fill="#336633">OBO:SEPIO_0000124</text>
<text text-anchor="start" x="3562.5" y="-161.8" font-family="Times,serif" font-size="14.00"> </text>
</g>
<!-- node4&#45;&gt;node10 -->
<g id="edge15" class="edge"><title>node4&#45;&gt;node10</title>
<path fill="none" stroke="BLACK" d="M3349.2,-246.827C3321.44,-220.472 3273.94,-175.376 3243.14,-146.137"/>
<polygon fill="BLACK" stroke="BLACK" points="3245.35,-143.412 3235.69,-139.065 3240.53,-148.489 3245.35,-143.412"/>
<text text-anchor="start" x="3269.5" y="-161.8" font-family="Times,serif" font-size="14.00"> </text>
<text text-anchor="start" x="3273.5" y="-161.8" font-family="Times,serif" font-size="10.00" fill="#336633">OBO:SEPIO_0000085</text>
<text text-anchor="start" x="3367.5" y="-161.8" font-family="Times,serif" font-size="14.00"> </text>
</g>
<!-- node23 -->
<g id="node24" class="node"><title>node23</title>
<polygon fill="grey" stroke="none" points="2795.5,-115 2795.5,-134 3005.5,-134 3005.5,-115 2795.5,-115"/>
<text text-anchor="start" x="2846" y="-121.8" font-family="DejaVu Sans" font-weight="bold" font-size="14.00">ECO_0000000</text>
<g id="a_node24_18"><a xlink:href="http://purl.obolibrary.org/obo/ECO_0000000" xlink:title="&lt;TABLE&gt;">
<polygon fill="#eeeeee" stroke="none" points="2562,-252 2562,-267 2780,-267 2780,-252 2562,-252"/>
<text text-anchor="start" x="2797.5" y="-105" font-family="DejaVu Sans" font-size="10.00" fill="#6666ff">http://purl.obolibrary.org/obo/ECO_0000000</text>
</a>
</g>
<polygon fill="none" stroke="#666666" points="2561,-251 2561,-287 2781,-287 2781,-251 2561,-251"/>
</g>
<!-- node4&#45;&gt;node23 -->
<g id="edge31" class="edge"><title>node4&#45;&gt;node23</title>
<path fill="none" stroke="BLACK" d="M3325.33,-246.935C3287.27,-230.085 3231.59,-206.61 3181.5,-190 3124.24,-171.012 3059.03,-154.028 3005.86,-141.331"/>
<polygon fill="BLACK" stroke="BLACK" points="3006.62,-137.913 2996.08,-139.011 3005,-144.724 3006.62,-137.913"/>
<text text-anchor="start" x="3121.5" y="-161.8" font-family="Times,serif" font-size="14.00"> </text>
<text text-anchor="start" x="3125.5" y="-161.8" font-family="Times,serif" font-size="10.00" fill="#336633">rdf:type</text>
<text text-anchor="start" x="3158.5" y="-161.8" font-family="Times,serif" font-size="14.00"> </text>
</g>
<!-- node15 -->
<g id="node15" class="node"><title>node15</title>
<polygon fill="grey" stroke="none" points="2546.5,-115 2546.5,-134 2733.5,-134 2733.5,-115 2546.5,-115"/>
<text text-anchor="start" x="2588.5" y="-121.8" font-family="DejaVu Sans" font-weight="bold" font-size="14.00">organization</text>
<g id="a_node15_19"><a xlink:href="http://xmlns.com/foaf/0.1/organization" xlink:title="&lt;TABLE&gt;">
<polygon fill="#eeeeee" stroke="none" points="2973,-100 2973,-115 3160,-115 3160,-100 2973,-100"/>
<text text-anchor="start" x="2548.5" y="-105" font-family="DejaVu Sans" font-size="10.00" fill="#6666ff">http://xmlns.com/foaf/0.1/organization</text>
</a>
</g>
<polygon fill="none" stroke="#666666" points="2971.5,-99 2971.5,-135 3160.5,-135 3160.5,-99 2971.5,-99"/>
</g>
<!-- node14&#45;&gt;node15 -->
<g id="edge12" class="edge"><title>node14&#45;&gt;node15</title>
<path fill="none" stroke="BLACK" d="M2639.5,-246.827C2639.5,-221.366 2639.5,-178.412 2639.5,-149.163"/>
<polygon fill="BLACK" stroke="BLACK" points="2643,-149.065 2639.5,-139.065 2636,-149.066 2643,-149.065"/>
<text text-anchor="start" x="2639.5" y="-161.8" font-family="Times,serif" font-size="14.00"> </text>
<text text-anchor="start" x="2643.5" y="-161.8" font-family="Times,serif" font-size="10.00" fill="#336633">rdf:type</text>
<text text-anchor="start" x="2676.5" y="-161.8" font-family="Times,serif" font-size="14.00"> </text>
</g>
<!-- node17 -->
<g id="node17" class="node"><title>node17</title>
<polygon fill="grey" stroke="none" points="3288.5,-542.5 3288.5,-561.5 3604.5,-561.5 3604.5,-542.5 3288.5,-542.5"/>
<text text-anchor="start" x="3302.5" y="-549.3" font-family="DejaVu Sans" font-weight="bold" font-size="14.00">MONARCH_b25e1dcae8dd05dc4d16</text>
<g id="a_node17_20"><a xlink:href="https://monarchinitiative.org/MONARCH_b25e1dcae8dd05dc4d16" xlink:title="&lt;TABLE&gt;">
<polygon fill="#eeeeee" stroke="none" points="2463,-100 2463,-115 2801,-115 2801,-100 2463,-100"/>
<text text-anchor="start" x="3290.5" y="-532.5" font-family="DejaVu Sans" font-size="10.00" fill="#6666ff">https://monarchinitiative.org/MONARCH_b25e1dcae8dd05dc4d16</text>
</a>
</g>
<polygon fill="none" stroke="#666666" points="2462,-99 2462,-135 2802,-135 2802,-99 2462,-99"/>
</g>
<!-- node17&#45;&gt;node1 -->
<g id="edge26" class="edge"><title>node17&#45;&gt;node1</title>
<path fill="none" stroke="BLACK" d="M3279.4,-534.525C3100.35,-524.879 2807.82,-509.039 2555.5,-495 2241.9,-477.551 1878.81,-456.81 1653.87,-443.898"/>
<polygon fill="BLACK" stroke="BLACK" points="1653.78,-440.387 1643.6,-443.308 1653.38,-447.375 1653.78,-440.387"/>
<text text-anchor="start" x="2555.5" y="-484.8" font-family="Times,serif" font-size="14.00"> </text>
<text text-anchor="start" x="2559.5" y="-484.8" font-family="Times,serif" font-size="10.00" fill="#336633">OBAN:association_has_subject</text>
<text text-anchor="start" x="2691.5" y="-484.8" font-family="Times,serif" font-size="14.00"> </text>
</g>
<!-- node17&#45;&gt;node6 -->
<g id="edge24" class="edge"><title>node17&#45;&gt;node6</title>
<path fill="none" stroke="BLACK" d="M3279.17,-529.955C3142.37,-517.273 2944.34,-495.241 2773.5,-462 2582.8,-424.893 2536.49,-407.363 2351.5,-348 2301.38,-331.916 2245.57,-310.925 2204.24,-294.771"/>
<polygon fill="BLACK" stroke="BLACK" points="2205.44,-291.482 2194.85,-291.088 2202.88,-297.999 2205.44,-291.482"/>
<text text-anchor="start" x="2773.5" y="-427.8" font-family="Times,serif" font-size="14.00"> </text>
<text text-anchor="start" x="2777.5" y="-427.8" font-family="Times,serif" font-size="10.00" fill="#336633">OBAN:association_has_object</text>
<text text-anchor="start" x="2905.5" y="-427.8" font-family="Times,serif" font-size="14.00"> </text>
</g>
<!-- node17&#45;&gt;node7 -->
<g id="edge25" class="edge"><title>node17&#45;&gt;node7</title>
<path fill="none" stroke="BLACK" d="M3475.31,-522.254C3493.63,-507.315 3516.46,-485.801 3530.5,-462 3591.65,-358.356 3610.71,-212.757 3616.31,-149.45"/>
<polygon fill="BLACK" stroke="BLACK" points="3619.82,-149.569 3617.16,-139.313 3612.84,-148.988 3619.82,-149.569"/>
<text text-anchor="start" x="3573.5" y="-370.8" font-family="Times,serif" font-size="14.00"> </text>
<text text-anchor="start" x="3577.5" y="-370.8" font-family="Times,serif" font-size="10.00" fill="#336633">dc:source</text>
<text text-anchor="start" x="3617.5" y="-370.8" font-family="Times,serif" font-size="14.00"> </text>
</g>
<!-- node17&#45;&gt;node12 -->
<g id="edge18" class="edge"><title>node17&#45;&gt;node12</title>
<path fill="none" stroke="BLACK" d="M3360.3,-522.465C3330.11,-514.554 3296.11,-505.029 3265.5,-495 3239.27,-486.405 3211.12,-475.909 3185.72,-465.945"/>
<polygon fill="BLACK" stroke="BLACK" points="3186.71,-462.575 3176.13,-462.157 3184.14,-469.086 3186.71,-462.575"/>
<text text-anchor="start" x="3265.5" y="-484.8" font-family="Times,serif" font-size="14.00"> </text>
<text text-anchor="start" x="3269.5" y="-484.8" font-family="Times,serif" font-size="10.00" fill="#336633">OBO:SEPIO_0000015</text>
<text text-anchor="start" x="3363.5" y="-484.8" font-family="Times,serif" font-size="14.00"> </text>
</g>
<!-- node17&#45;&gt;node4 -->
<g id="edge17" class="edge"><title>node17&#45;&gt;node4</title>
<path fill="none" stroke="BLACK" d="M3440.74,-522.493C3427.6,-474.567 3395.35,-356.97 3379.95,-300.818"/>
<polygon fill="BLACK" stroke="BLACK" points="3383.3,-299.797 3377.28,-291.079 3376.55,-301.648 3383.3,-299.797"/>
<text text-anchor="start" x="3424.5" y="-427.8" font-family="Times,serif" font-size="14.00"> </text>
<text text-anchor="start" x="3428.5" y="-427.8" font-family="Times,serif" font-size="10.00" fill="#336633">OBO:SEPIO_0000007</text>
<text text-anchor="start" x="3522.5" y="-427.8" font-family="Times,serif" font-size="14.00"> </text>
</g>
<!-- node18 -->
<g id="node18" class="node"><title>node18</title>
<polygon fill="grey" stroke="none" points="3588.5,-428.5 3588.5,-447.5 3831.5,-447.5 3831.5,-428.5 3588.5,-428.5"/>
<text text-anchor="start" x="3649.5" y="-435.3" font-family="DejaVu Sans" font-weight="bold" font-size="14.00">RCV000162061</text>
<g id="a_node18_21"><a xlink:href="http://www.ncbi.nlm.nih.gov/clinvar/RCV000162061" xlink:title="&lt;TABLE&gt;">
<polygon fill="#eeeeee" stroke="none" points="2217,-100 2217,-115 2427,-115 2427,-100 2217,-100"/>
<text text-anchor="start" x="3590.5" y="-418.5" font-family="DejaVu Sans" font-size="10.00" fill="#6666ff">http://www.ncbi.nlm.nih.gov/clinvar/RCV000162061</text>
</a>
</g>
<polygon fill="none" stroke="#666666" points="2216,-99 2216,-135 2428,-135 2428,-99 2216,-99"/>
</g>
<!-- node17&#45;&gt;node18 -->
<g id="edge19" class="edge"><title>node17&#45;&gt;node18</title>
<path fill="none" stroke="BLACK" d="M3498.59,-522.387C3519.17,-513.971 3542.99,-504.129 3564.5,-495 3593.81,-482.563 3626.28,-468.379 3653.05,-456.576"/>
<polygon fill="BLACK" stroke="BLACK" points="3654.54,-459.747 3662.27,-452.507 3651.71,-453.343 3654.54,-459.747"/>
<text text-anchor="start" x="3596.5" y="-484.8" font-family="Times,serif" font-size="14.00"> </text>
<text text-anchor="start" x="3600.5" y="-484.8" font-family="Times,serif" font-size="10.00" fill="#336633">oboInOwl:hasdbxref</text>
<text text-anchor="start" x="3685.5" y="-484.8" font-family="Times,serif" font-size="14.00"> </text>
</g>
<!-- node21 -->
<g id="node22" class="node"><title>node21</title>
<polygon fill="grey" stroke="none" points="3867.5,-428.5 3867.5,-447.5 4085.5,-447.5 4085.5,-428.5 3867.5,-428.5"/>
<text text-anchor="start" x="3915.5" y="-435.3" font-family="DejaVu Sans" font-weight="bold" font-size="14.00">GENO_0000840</text>
<g id="a_node22_22"><a xlink:href="http://purl.obolibrary.org/obo/GENO_0000840" xlink:title="&lt;TABLE&gt;">
<polygon fill="#eeeeee" stroke="none" points="1500,-100 1500,-115 2063,-115 2063,-100 1500,-100"/>
<text text-anchor="start" x="3869.5" y="-418.5" font-family="DejaVu Sans" font-size="10.00" fill="#6666ff">http://purl.obolibrary.org/obo/GENO_0000840</text>
</a>
</g>
<polygon fill="none" stroke="#666666" points="1498.5,-99 1498.5,-135 2063.5,-135 2063.5,-99 1498.5,-99"/>
</g>
<!-- node17&#45;&gt;node21 -->
<g id="edge23" class="edge"><title>node17&#45;&gt;node21</title>
<path fill="none" stroke="BLACK" d="M3556.83,-522.479C3637.76,-506.732 3750.21,-484.171 3848.5,-462 3858.55,-459.734 3869.03,-457.319 3879.47,-454.88"/>
<polygon fill="BLACK" stroke="BLACK" points="3880.53,-458.227 3889.47,-452.537 3878.93,-451.412 3880.53,-458.227"/>
<text text-anchor="start" x="3761.5" y="-484.8" font-family="Times,serif" font-size="14.00"> </text>
<text text-anchor="start" x="3765.5" y="-484.8" font-family="Times,serif" font-size="10.00" fill="#336633">OBAN:association_has_predicate</text>
<text text-anchor="start" x="3905.5" y="-484.8" font-family="Times,serif" font-size="14.00"> </text>
</g>
<!-- node25 -->
<g id="node26" class="node"><title>node25</title>
<polygon fill="grey" stroke="none" points="4121.5,-428.5 4121.5,-447.5 4275.5,-447.5 4275.5,-428.5 4121.5,-428.5"/>
<text text-anchor="start" x="4152.5" y="-435.3" font-family="DejaVu Sans" font-weight="bold" font-size="14.00">association</text>
<g id="a_node26_23"><a xlink:href="http://purl.org/oban/association" xlink:title="&lt;TABLE&gt;">
<polygon fill="#eeeeee" stroke="none" points="3856,-536.5 3856,-551.5 4122,-551.5 4122,-536.5 3856,-536.5"/>
<text text-anchor="start" x="4123.5" y="-418.5" font-family="DejaVu Sans" font-size="10.00" fill="#6666ff">http://purl.org/oban/association</text>
</a>
</g>
<text text-anchor="start" x="3858" y="-523.3" font-family="DejaVu Sans" font-size="14.00">owl:versionInfo</text>
<text text-anchor="start" x="3996" y="-523.3" font-family="DejaVu Sans" font-size="14.00">&quot;2019&#45;04&#45;03&quot;</text>
<polygon fill="none" stroke="#666666" points="3855,-517 3855,-572 4123,-572 4123,-517 3855,-517"/>
</g>
<!-- node17&#45;&gt;node25 -->
<g id="edge33" class="edge"><title>node17&#45;&gt;node25</title>
<path fill="none" stroke="BLACK" d="M3613.51,-533.69C3747.49,-523.221 3939.58,-502.343 4103.5,-462 4111.33,-460.072 4119.46,-457.837 4127.51,-455.469"/>
<polygon fill="BLACK" stroke="BLACK" points="4128.71,-458.763 4137.28,-452.527 4126.69,-452.061 4128.71,-458.763"/>
<text text-anchor="start" x="4016.5" y="-484.8" font-family="Times,serif" font-size="14.00"> </text>
<text text-anchor="start" x="4020.5" y="-484.8" font-family="Times,serif" font-size="10.00" fill="#336633">rdf:type</text>
<text text-anchor="start" x="4053.5" y="-484.8" font-family="Times,serif" font-size="14.00"> </text>
</g>
<!-- node13 -->
<g id="node20" class="node"><title>node13</title>
<polygon fill="grey" stroke="none" points="4277.5,-551.5 4277.5,-570.5 4543.5,-570.5 4543.5,-551.5 4277.5,-551.5"/>
<text text-anchor="start" x="4338.5" y="-558.3" font-family="DejaVu Sans" font-weight="bold" font-size="14.00">RCV000162061.nt</text>
<g id="a_node20_24"><a xlink:href="https://data.monarchinitiative.org/ttl/RCV000162061.nt" xlink:title="&lt;TABLE&gt;">
<polygon fill="#eeeeee" stroke="none" points="3890,-413.5 3890,-428.5 4088,-428.5 4088,-413.5 3890,-413.5"/>
<text text-anchor="start" x="4279.5" y="-541.5" font-family="DejaVu Sans" font-size="10.00" fill="#6666ff">https://data.monarchinitiative.org/ttl/RCV000162061.nt</text>
</a>
</g>
<text text-anchor="start" x="4279.5" y="-523.3" font-family="DejaVu Sans" font-size="14.00">owl:versionInfo</text>
<text text-anchor="start" x="4417.5" y="-523.3" font-family="DejaVu Sans" font-size="14.00">&quot;2019&#45;04&#45;03&quot;</text>
<polygon fill="none" stroke="#666666" points="3889,-412.5 3889,-448.5 4089,-448.5 4089,-412.5 3889,-412.5"/>
</g>
<!-- node20 -->
<g id="node21" class="node"><title>node20</title>
<polygon fill="grey" stroke="none" points="4311.5,-428.5 4311.5,-447.5 4509.5,-447.5 4509.5,-428.5 4311.5,-428.5"/>
<text text-anchor="start" x="4373.5" y="-435.3" font-family="DejaVu Sans" font-weight="bold" font-size="14.00">Ontology</text>
<g id="a_node21_25"><a xlink:href="http://www.w3.org/2002/07/owl#Ontology" xlink:title="&lt;TABLE&gt;">
<polygon fill="#eeeeee" stroke="none" points="2523,-5 2523,-20 2741,-20 2741,-5 2523,-5"/>
<text text-anchor="start" x="4313.5" y="-418.5" font-family="DejaVu Sans" font-size="10.00" fill="#6666ff">http://www.w3.org/2002/07/owl#Ontology</text>
</a>
</g>
<polygon fill="none" stroke="#666666" points="2522,-4 2522,-40 2742,-40 2742,-4 2522,-4"/>
</g>
<!-- node13&#45;&gt;node20 -->
<g id="edge22" class="edge"><title>node13&#45;&gt;node20</title>
<path fill="none" stroke="BLACK" d="M4410.5,-512.896C4410.5,-497.319 4410.5,-478.416 4410.5,-462.749"/>
<polygon fill="BLACK" stroke="BLACK" points="4414,-462.501 4410.5,-452.501 4407,-462.501 4414,-462.501"/>
<text text-anchor="start" x="4410.5" y="-484.8" font-family="Times,serif" font-size="14.00"> </text>
<text text-anchor="start" x="4414.5" y="-484.8" font-family="Times,serif" font-size="10.00" fill="#336633">rdf:type</text>
<text text-anchor="start" x="4447.5" y="-484.8" font-family="Times,serif" font-size="14.00"> </text>
</g>
</g>
</svg>
