<?xml version="1.0" encoding="UTF-8" standalone="no"?>
<!DOCTYPE svg PUBLIC "-//W3C//DTD SVG 1.1//EN"
 "http://www.w3.org/Graphics/SVG/1.1/DTD/svg11.dtd">
<!-- Generated by graphviz version 2.38.0 (20140413.2041)
 -->
<!-- Title: %3 Pages: 1 -->
<svg width="3551pt" height="565pt"
 viewBox="0.00 0.00 3550.50 565.00" xmlns="http://www.w3.org/2000/svg" xmlns:xlink="http://www.w3.org/1999/xlink">
<g id="graph0" class="graph" transform="scale(1 1) rotate(0) translate(4 561)">
<title>%3</title>
<polygon fill="white" stroke="none" points="-4,4 -4,-561 3546.5,-561 3546.5,4 -4,4"/>
<!-- node0 -->
<g id="node1" class="node"><title>node0</title>
<polygon fill="grey" stroke="none" points="656.5,-409.5 656.5,-428.5 1096.5,-428.5 1096.5,-409.5 656.5,-409.5"/>
<text text-anchor="start" x="658.5" y="-416.3" font-family="DejaVu Sans" font-weight="bold" font-size="14.00">http://www.ncbi.nlm.nih.gov/clinvar/variation/101408</text>
<g id="a_node1_0"><a xlink:href="http://www.ncbi.nlm.nih.gov/clinvar/variation/101408" xlink:title="&lt;TABLE&gt;">
<polygon fill="#eeeeee" stroke="none" points="656.5,-394.5 656.5,-409.5 1096.5,-409.5 1096.5,-394.5 656.5,-394.5"/>
<text text-anchor="start" x="753" y="-399.5" font-family="DejaVu Sans" font-size="10.00" fill="#6666ff">http://www.ncbi.nlm.nih.gov/clinvar/variation/101408</text>
</a>
</g>
<polygon fill="none" stroke="#666666" points="655.5,-393.5 655.5,-429.5 1097.5,-429.5 1097.5,-393.5 655.5,-393.5"/>
</g>
<!-- node1 -->
<g id="node2" class="node"><title>node1</title>
<polygon fill="grey" stroke="none" points="9.5,-257.5 9.5,-276.5 236.5,-276.5 236.5,-257.5 9.5,-257.5"/>
<text text-anchor="start" x="52" y="-264.3" font-family="DejaVu Sans" font-weight="bold" font-size="14.00">mosaic_genotype</text>
<g id="a_node2_1"><a xlink:href="https://monarchinitiative.org/mosaic_genotype" xlink:title="&lt;TABLE&gt;">
<polygon fill="#eeeeee" stroke="none" points="9.5,-242.5 9.5,-257.5 236.5,-257.5 236.5,-242.5 9.5,-242.5"/>
<text text-anchor="start" x="11.5" y="-247.5" font-family="DejaVu Sans" font-size="10.00" fill="#6666ff">https://monarchinitiative.org/mosaic_genotype</text>
</a>
</g>
<polygon fill="none" stroke="#666666" points="8,-241.5 8,-277.5 237,-277.5 237,-241.5 8,-241.5"/>
</g>
<!-- node0&#45;&gt;node1 -->
<g id="edge1" class="edge"><title>node0&#45;&gt;node1</title>
<path fill="none" stroke="BLACK" d="M647.349,-409.852C491.04,-406.312 299.606,-394.986 226.5,-362 191.734,-346.314 161.762,-313.758 143.045,-289.727"/>
<polygon fill="BLACK" stroke="BLACK" points="145.734,-287.48 136.904,-281.624 140.154,-291.708 145.734,-287.48"/>
<text text-anchor="start" x="226.5" y="-351.8" font-family="Times,serif" font-size="14.00"> </text>
<text text-anchor="start" x="230.5" y="-351.8" font-family="Times,serif" font-size="10.00" fill="#336633">rdf:type</text>
<text text-anchor="start" x="263.5" y="-351.8" font-family="Times,serif" font-size="14.00"> </text>
</g>
<!-- node4 -->
<g id="node10" class="node"><title>node4</title>
<polygon fill="grey" stroke="none" points="398.5,-304.5 398.5,-323.5 980.5,-323.5 980.5,-304.5 398.5,-304.5"/>
<text text-anchor="start" x="400.5" y="-311.3" font-family="DejaVu Sans" font-weight="bold" font-size="14.00">&quot;NM_000090.3(COL3A1):c.[=/3440_3466del27] (p.Pro1147_Gly1155del)&quot;</text>
<g id="a_node10_2"><a xlink:href="http://www.ncbi.nlm.nih.gov/clinvar/variation/107155" xlink:title="&lt;TABLE&gt;">
<polygon fill="#eeeeee" stroke="none" points="398.5,-289.5 398.5,-304.5 980.5,-304.5 980.5,-289.5 398.5,-289.5"/>
<text text-anchor="start" x="566" y="-294.5" font-family="DejaVu Sans" font-size="10.00" fill="#6666ff">http://www.ncbi.nlm.nih.gov/clinvar/variation/107155</text>
</a>
</g>
<text text-anchor="start" x="400.5" y="-276.3" font-family="DejaVu Sans" font-size="14.00">oboInOwl:hasExactSynonym</text>
<text text-anchor="start" x="654.5" y="-276.3" font-family="DejaVu Sans" font-size="14.00">&quot;LRG_3p1:p.Pro1147_Gly1155del&quot;</text>
<text text-anchor="start" x="400.5" y="-257.3" font-family="DejaVu Sans" font-size="14.00">oboInOwl:hasExactSynonym</text>
<text text-anchor="start" x="654.5" y="-257.3" font-family="DejaVu Sans" font-size="14.00">&quot;LRG_3t1:c.[=/3440_3466del27]&quot;</text>
<text text-anchor="start" x="400.5" y="-238.3" font-family="DejaVu Sans" font-size="14.00">oboInOwl:hasExactSynonym</text>
<text text-anchor="start" x="654.5" y="-238.3" font-family="DejaVu Sans" font-size="14.00">&quot;NM_000090.3:c.3440&#45;3466del&quot;</text>
<text text-anchor="start" x="400.5" y="-219.3" font-family="DejaVu Sans" font-size="14.00">oboInOwl:hasExactSynonym</text>
<text text-anchor="start" x="654.5" y="-219.3" font-family="DejaVu Sans" font-size="14.00">&quot;NM_000090.3:c.[=/3440_3466del27]&quot;</text>
<text text-anchor="start" x="400.5" y="-200.3" font-family="DejaVu Sans" font-size="14.00">oboInOwl:hasExactSynonym</text>
<text text-anchor="start" x="654.5" y="-200.3" font-family="DejaVu Sans" font-size="14.00">&quot;NP_000081.1:p.Pro1147_Gly1155del&quot;</text>
<polygon fill="none" stroke="#666666" points="397.5,-194 397.5,-325 981.5,-325 981.5,-194 397.5,-194"/>
</g>
<!-- node0&#45;&gt;node4 -->
<g id="edge19" class="edge"><title>node0&#45;&gt;node4</title>
<path fill="none" stroke="BLACK" d="M850.104,-389.327C832.298,-375.044 807.63,-355.257 782.966,-335.473"/>
<polygon fill="BLACK" stroke="BLACK" points="784.957,-332.583 774.967,-329.056 780.577,-338.043 784.957,-332.583"/>
<text text-anchor="start" x="816.5" y="-351.8" font-family="Times,serif" font-size="14.00"> </text>
<text text-anchor="start" x="820.5" y="-351.8" font-family="Times,serif" font-size="10.00" fill="#336633">OBO:GENO_0000382</text>
<text text-anchor="start" x="916.5" y="-351.8" font-family="Times,serif" font-size="14.00"> </text>
</g>
<!-- node11 -->
<g id="node11" class="node"><title>node11</title>
<polygon fill="grey" stroke="none" points="577.5,-115 577.5,-134 799.5,-134 799.5,-115 577.5,-115"/>
<text text-anchor="start" x="622" y="-121.8" font-family="DejaVu Sans" font-weight="bold" font-size="14.00">NCBITaxon_9606</text>
<g id="a_node11_3"><a xlink:href="http://purl.obolibrary.org/obo/NCBITaxon_9606" xlink:title="&lt;TABLE&gt;">
<polygon fill="#eeeeee" stroke="none" points="577.5,-100 577.5,-115 799.5,-115 799.5,-100 577.5,-100"/>
<text text-anchor="start" x="579.5" y="-105" font-family="DejaVu Sans" font-size="10.00" fill="#6666ff">http://purl.obolibrary.org/obo/NCBITaxon_9606</text>
</a>
</g>
<polygon fill="none" stroke="#666666" points="576.5,-99 576.5,-135 800.5,-135 800.5,-99 576.5,-99"/>
</g>
<!-- node0&#45;&gt;node11 -->
<g id="edge7" class="edge"><title>node0&#45;&gt;node11</title>
<path fill="none" stroke="BLACK" d="M647.243,-392.92C493.376,-378.726 314.527,-356.599 290.5,-329 249.937,-282.405 250.895,-237.412 290.5,-190 324.318,-149.515 455.533,-131.751 558.171,-123.983"/>
<polygon fill="BLACK" stroke="BLACK" points="558.607,-127.461 568.325,-123.24 558.096,-120.479 558.607,-127.461"/>
<text text-anchor="start" x="290.5" y="-256.8" font-family="Times,serif" font-size="14.00"> </text>
<text text-anchor="start" x="294.5" y="-256.8" font-family="Times,serif" font-size="10.00" fill="#336633">OBO:RO_0002162</text>
<text text-anchor="start" x="376.5" y="-256.8" font-family="Times,serif" font-size="14.00"> </text>
</g>
<!-- node12 -->
<g id="node13" class="node"><title>node12</title>
<polygon fill="grey" stroke="none" points="1638.5,-257.5 1638.5,-276.5 1916.5,-276.5 1916.5,-257.5 1638.5,-257.5"/>
<text text-anchor="start" x="1640.5" y="-264.3" font-family="DejaVu Sans" font-weight="bold" font-size="14.00">&quot;Ehlers&#45;Danlos syndrome, type 4&quot;</text>
<g id="a_node13_4"><a xlink:href="http://omim.org/entry/130050" xlink:title="&lt;TABLE&gt;">
<polygon fill="#eeeeee" stroke="none" points="1638.5,-242.5 1638.5,-257.5 1916.5,-257.5 1916.5,-242.5 1638.5,-242.5"/>
<text text-anchor="start" x="1706.5" y="-247.5" font-family="DejaVu Sans" font-size="10.00" fill="#6666ff">http://omim.org/entry/130050</text>
</a>
</g>
<polygon fill="none" stroke="#666666" points="1637.5,-241.5 1637.5,-277.5 1917.5,-277.5 1917.5,-241.5 1637.5,-241.5"/>
</g>
<!-- node0&#45;&gt;node12 -->
<g id="edge10" class="edge"><title>node0&#45;&gt;node12</title>
<path fill="none" stroke="BLACK" d="M1105.72,-403.078C1254.27,-393.955 1450.79,-373.73 1619.5,-329 1657.61,-318.897 1698.38,-301.028 1728.95,-286.074"/>
<polygon fill="BLACK" stroke="BLACK" points="1730.7,-289.116 1738.1,-281.539 1727.59,-282.845 1730.7,-289.116"/>
<text text-anchor="start" x="1541.5" y="-351.8" font-family="Times,serif" font-size="14.00"> </text>
<text text-anchor="start" x="1545.5" y="-351.8" font-family="Times,serif" font-size="10.00" fill="#336633">OBO:GENO_0000840</text>
<text text-anchor="start" x="1641.5" y="-351.8" font-family="Times,serif" font-size="14.00"> </text>
</g>
<!-- node5 -->
<g id="node15" class="node"><title>node5</title>
<polygon fill="grey" stroke="none" points="1017.5,-304.5 1017.5,-323.5 1602.5,-323.5 1602.5,-304.5 1017.5,-304.5"/>
<text text-anchor="start" x="1019.5" y="-311.3" font-family="DejaVu Sans" font-weight="bold" font-size="14.00">&quot;NM_000090.3(COL3A1):c.[=/3426_3452del27] (p.Gly1143_Asp1151del)&quot;</text>
<g id="a_node15_5"><a xlink:href="http://www.ncbi.nlm.nih.gov/clinvar/variation/107154" xlink:title="&lt;TABLE&gt;">
<polygon fill="#eeeeee" stroke="none" points="1017.5,-289.5 1017.5,-304.5 1602.5,-304.5 1602.5,-289.5 1017.5,-289.5"/>
<text text-anchor="start" x="1186.5" y="-294.5" font-family="DejaVu Sans" font-size="10.00" fill="#6666ff">http://www.ncbi.nlm.nih.gov/clinvar/variation/107154</text>
</a>
</g>
<text text-anchor="start" x="1019.5" y="-276.3" font-family="DejaVu Sans" font-size="14.00">oboInOwl:hasExactSynonym</text>
<text text-anchor="start" x="1274.5" y="-276.3" font-family="DejaVu Sans" font-size="14.00">&quot;LRG_3p1:p.Gly1143_Asp1151del&quot;</text>
<text text-anchor="start" x="1019.5" y="-257.3" font-family="DejaVu Sans" font-size="14.00">oboInOwl:hasExactSynonym</text>
<text text-anchor="start" x="1274.5" y="-257.3" font-family="DejaVu Sans" font-size="14.00">&quot;LRG_3t1:c.[=/3426_3452del27]&quot;</text>
<text text-anchor="start" x="1019.5" y="-238.3" font-family="DejaVu Sans" font-size="14.00">oboInOwl:hasExactSynonym</text>
<text text-anchor="start" x="1274.5" y="-238.3" font-family="DejaVu Sans" font-size="14.00">&quot;NM_000090.3:c.3426&#45;3452del&quot;</text>
<text text-anchor="start" x="1019.5" y="-219.3" font-family="DejaVu Sans" font-size="14.00">oboInOwl:hasExactSynonym</text>
<text text-anchor="start" x="1274.5" y="-219.3" font-family="DejaVu Sans" font-size="14.00">&quot;NM_000090.3:c.[=/3426_3452del27]&quot;</text>
<text text-anchor="start" x="1019.5" y="-200.3" font-family="DejaVu Sans" font-size="14.00">oboInOwl:hasExactSynonym</text>
<text text-anchor="start" x="1274.5" y="-200.3" font-family="DejaVu Sans" font-size="14.00">&quot;NP_000081.1:p.Gly1143_Asp1151del&quot;</text>
<polygon fill="none" stroke="#666666" points="1016,-194 1016,-325 1603,-325 1603,-194 1016,-194"/>
</g>
<!-- node0&#45;&gt;node5 -->
<g id="edge24" class="edge"><title>node0&#45;&gt;node5</title>
<path fill="none" stroke="BLACK" d="M937.163,-389.485C980.575,-374.446 1041.77,-353.246 1102.03,-332.37"/>
<polygon fill="BLACK" stroke="BLACK" points="1103.39,-335.604 1111.69,-329.024 1101.1,-328.99 1103.39,-335.604"/>
<text text-anchor="start" x="1054.5" y="-351.8" font-family="Times,serif" font-size="14.00"> </text>
<text text-anchor="start" x="1058.5" y="-351.8" font-family="Times,serif" font-size="10.00" fill="#336633">OBO:GENO_0000382</text>
<text text-anchor="start" x="1154.5" y="-351.8" font-family="Times,serif" font-size="14.00"> </text>
</g>
<!-- node2 -->
<g id="node3" class="node"><title>node2</title>
<polygon fill="grey" stroke="none" points="2166.5,-115 2166.5,-134 2514.5,-134 2514.5,-115 2166.5,-115"/>
<text text-anchor="start" x="2272.5" y="-121.8" font-family="DejaVu Sans" font-weight="bold" font-size="14.00">&quot;clinical testing&quot;</text>
<g id="a_node3_6"><a xlink:href="https://monarchinitiative.org/.well-known/genid/b344a747065c549662e8" xlink:title="&lt;TABLE&gt;">
<polygon fill="#eeeeee" stroke="none" points="2166.5,-100 2166.5,-115 2514.5,-115 2514.5,-100 2166.5,-100"/>
<text text-anchor="start" x="2168.5" y="-105" font-family="DejaVu Sans" font-size="10.00" fill="#6666ff">https://monarchinitiative.org/.well&#45;known/genid/b344a747065c549662e8</text>
</a>
</g>
<polygon fill="none" stroke="#666666" points="2165.5,-99 2165.5,-135 2515.5,-135 2515.5,-99 2165.5,-99"/>
</g>
<!-- node3 -->
<g id="node4" class="node"><title>node3</title>
<polygon fill="grey" stroke="none" points="2231.5,-20 2231.5,-39 2449.5,-39 2449.5,-20 2231.5,-20"/>
<text text-anchor="start" x="2278.5" y="-26.8" font-family="DejaVu Sans" font-weight="bold" font-size="14.00">SEPIO_0000067</text>
<g id="a_node4_7"><a xlink:href="http://purl.obolibrary.org/obo/SEPIO_0000067" xlink:title="&lt;TABLE&gt;">
<polygon fill="#eeeeee" stroke="none" points="2231.5,-5 2231.5,-20 2449.5,-20 2449.5,-5 2231.5,-5"/>
<text text-anchor="start" x="2233.5" y="-10" font-family="DejaVu Sans" font-size="10.00" fill="#6666ff">http://purl.obolibrary.org/obo/SEPIO_0000067</text>
</a>
</g>
<polygon fill="none" stroke="#666666" points="2230.5,-4 2230.5,-40 2450.5,-40 2450.5,-4 2230.5,-4"/>
</g>
<!-- node2&#45;&gt;node3 -->
<g id="edge2" class="edge"><title>node2&#45;&gt;node3</title>
<path fill="none" stroke="BLACK" d="M2340.5,-94.8969C2340.5,-82.8873 2340.5,-67.6175 2340.5,-54.242"/>
<polygon fill="BLACK" stroke="BLACK" points="2344,-54.0196 2340.5,-44.0196 2337,-54.0197 2344,-54.0196"/>
<text text-anchor="start" x="2340.5" y="-66.8" font-family="Times,serif" font-size="14.00"> </text>
<text text-anchor="start" x="2344.5" y="-66.8" font-family="Times,serif" font-size="10.00" fill="#336633">rdf:type</text>
<text text-anchor="start" x="2377.5" y="-66.8" font-family="Times,serif" font-size="14.00"> </text>
</g>
<!-- node6 -->
<g id="node5" class="node"><title>node6</title>
<polygon fill="grey" stroke="none" points="2211.5,-523.5 2211.5,-542.5 2528.5,-542.5 2528.5,-523.5 2211.5,-523.5"/>
<text text-anchor="start" x="2226.5" y="-530.3" font-family="DejaVu Sans" font-weight="bold" font-size="14.00">MONARCH_b409eb231ce1985a1a4d</text>
<g id="a_node5_8"><a xlink:href="https://monarchinitiative.org/MONARCH_b409eb231ce1985a1a4d" xlink:title="&lt;TABLE&gt;">
<polygon fill="#eeeeee" stroke="none" points="2211.5,-508.5 2211.5,-523.5 2528.5,-523.5 2528.5,-508.5 2211.5,-508.5"/>
<text text-anchor="start" x="2213.5" y="-513.5" font-family="DejaVu Sans" font-size="10.00" fill="#6666ff">https://monarchinitiative.org/MONARCH_b409eb231ce1985a1a4d</text>
</a>
</g>
<polygon fill="none" stroke="#666666" points="2210,-507.5 2210,-543.5 2529,-543.5 2529,-507.5 2210,-507.5"/>
</g>
<!-- node6&#45;&gt;node0 -->
<g id="edge3" class="edge"><title>node6&#45;&gt;node0</title>
<path fill="none" stroke="BLACK" d="M2201.83,-513.046C2062.72,-503.45 1859.71,-489.236 1682.5,-476 1491.93,-461.766 1276.08,-444.712 1115.76,-431.863"/>
<polygon fill="BLACK" stroke="BLACK" points="1116.01,-428.372 1105.76,-431.061 1115.45,-435.349 1116.01,-428.372"/>
<text text-anchor="start" x="1682.5" y="-465.8" font-family="Times,serif" font-size="14.00"> </text>
<text text-anchor="start" x="1686.5" y="-465.8" font-family="Times,serif" font-size="10.00" fill="#336633">OBAN:association_has_subject</text>
<text text-anchor="start" x="1818.5" y="-465.8" font-family="Times,serif" font-size="14.00"> </text>
</g>
<!-- node7 -->
<g id="node6" class="node"><title>node7</title>
<polygon fill="grey" stroke="none" points="2197.5,-418.5 2197.5,-437.5 2541.5,-437.5 2541.5,-418.5 2197.5,-418.5"/>
<text text-anchor="start" x="2222.5" y="-425.3" font-family="DejaVu Sans" font-weight="bold" font-size="14.00">&quot;b409eb231ce1985a1a4d_assertion&quot;</text>
<g id="a_node6_9"><a xlink:href="https://monarchinitiative.org/.well-known/genid/bb77ce61eda1e1160cfd" xlink:title="&lt;TABLE&gt;">
<polygon fill="#eeeeee" stroke="none" points="2197.5,-403.5 2197.5,-418.5 2541.5,-418.5 2541.5,-403.5 2197.5,-403.5"/>
<text text-anchor="start" x="2199.5" y="-408.5" font-family="DejaVu Sans" font-size="10.00" fill="#6666ff">https://monarchinitiative.org/.well&#45;known/genid/bb77ce61eda1e1160cfd</text>
</a>
</g>
<text text-anchor="start" x="2199.5" y="-390.3" font-family="DejaVu Sans" font-size="14.00">dc:identifier</text>
<text text-anchor="start" x="2344.5" y="-390.3" font-family="DejaVu Sans" font-size="14.00">&quot;SCV000120538.1&quot;</text>
<polygon fill="none" stroke="#666666" points="2196.5,-384 2196.5,-439 2542.5,-439 2542.5,-384 2196.5,-384"/>
</g>
<!-- node6&#45;&gt;node7 -->
<g id="edge23" class="edge"><title>node6&#45;&gt;node7</title>
<path fill="none" stroke="BLACK" d="M2369.5,-503.434C2369.5,-489.37 2369.5,-470.413 2369.5,-453.447"/>
<polygon fill="BLACK" stroke="BLACK" points="2373,-453.202 2369.5,-443.202 2366,-453.202 2373,-453.202"/>
<text text-anchor="start" x="2369.5" y="-465.8" font-family="Times,serif" font-size="14.00"> </text>
<text text-anchor="start" x="2373.5" y="-465.8" font-family="Times,serif" font-size="10.00" fill="#336633">OBO:SEPIO_0000015</text>
<text text-anchor="start" x="2467.5" y="-465.8" font-family="Times,serif" font-size="14.00"> </text>
</g>
<!-- node8 -->
<g id="node7" class="node"><title>node8</title>
<polygon fill="grey" stroke="none" points="1953.5,-257.5 1953.5,-276.5 2286.5,-276.5 2286.5,-257.5 1953.5,-257.5"/>
<text text-anchor="start" x="1974" y="-264.3" font-family="DejaVu Sans" font-weight="bold" font-size="14.00">&quot;b409eb231ce1985a1a4d_evidence&quot;</text>
<g id="a_node7_10"><a xlink:href="https://monarchinitiative.org/.well-known/genid/bcffea4366ef7f890f2a" xlink:title="&lt;TABLE&gt;">
<polygon fill="#eeeeee" stroke="none" points="1953.5,-242.5 1953.5,-257.5 2286.5,-257.5 2286.5,-242.5 1953.5,-242.5"/>
<text text-anchor="start" x="1955.5" y="-247.5" font-family="DejaVu Sans" font-size="10.00" fill="#6666ff">https://monarchinitiative.org/.well&#45;known/genid/bcffea4366ef7f890f2a</text>
</a>
</g>
<polygon fill="none" stroke="#666666" points="1952,-241.5 1952,-277.5 2287,-277.5 2287,-241.5 1952,-241.5"/>
</g>
<!-- node6&#45;&gt;node8 -->
<g id="edge16" class="edge"><title>node6&#45;&gt;node8</title>
<path fill="none" stroke="BLACK" d="M2236.78,-503.47C2169.45,-489.806 2097.67,-469.568 2077.5,-443 2043.19,-397.809 2075.18,-329.424 2099.01,-290.467"/>
<polygon fill="BLACK" stroke="BLACK" points="2102.17,-292.017 2104.55,-281.692 2096.25,-288.281 2102.17,-292.017"/>
<text text-anchor="start" x="2077.5" y="-408.8" font-family="Times,serif" font-size="14.00"> </text>
<text text-anchor="start" x="2081.5" y="-408.8" font-family="Times,serif" font-size="10.00" fill="#336633">OBO:SEPIO_0000007</text>
<text text-anchor="start" x="2175.5" y="-408.8" font-family="Times,serif" font-size="14.00"> </text>
</g>
<!-- node6&#45;&gt;node12 -->
<g id="edge22" class="edge"><title>node6&#45;&gt;node12</title>
<path fill="none" stroke="BLACK" d="M2201.84,-506.439C2095.36,-492.605 1969.1,-471.119 1922.5,-443 1860.94,-405.858 1814.99,-332.373 1792.63,-290.876"/>
<polygon fill="BLACK" stroke="BLACK" points="1795.6,-289.005 1787.84,-281.793 1789.41,-292.271 1795.6,-289.005"/>
<text text-anchor="start" x="1922.5" y="-408.8" font-family="Times,serif" font-size="14.00"> </text>
<text text-anchor="start" x="1926.5" y="-408.8" font-family="Times,serif" font-size="10.00" fill="#336633">OBAN:association_has_object</text>
<text text-anchor="start" x="2054.5" y="-408.8" font-family="Times,serif" font-size="14.00"> </text>
</g>
<!-- node18 -->
<g id="node19" class="node"><title>node18</title>
<polygon fill="grey" stroke="none" points="2578.5,-409.5 2578.5,-428.5 2821.5,-428.5 2821.5,-409.5 2578.5,-409.5"/>
<text text-anchor="start" x="2639.5" y="-416.3" font-family="DejaVu Sans" font-weight="bold" font-size="14.00">RCV000087646</text>
<g id="a_node19_11"><a xlink:href="http://www.ncbi.nlm.nih.gov/clinvar/RCV000087646" xlink:title="&lt;TABLE&gt;">
<polygon fill="#eeeeee" stroke="none" points="2578.5,-394.5 2578.5,-409.5 2821.5,-409.5 2821.5,-394.5 2578.5,-394.5"/>
<text text-anchor="start" x="2580.5" y="-399.5" font-family="DejaVu Sans" font-size="10.00" fill="#6666ff">http://www.ncbi.nlm.nih.gov/clinvar/RCV000087646</text>
</a>
</g>
<polygon fill="none" stroke="#666666" points="2577,-393.5 2577,-429.5 2822,-429.5 2822,-393.5 2577,-393.5"/>
</g>
<!-- node6&#45;&gt;node18 -->
<g id="edge18" class="edge"><title>node6&#45;&gt;node18</title>
<path fill="none" stroke="BLACK" d="M2431.57,-503.434C2487.37,-484.496 2569.32,-456.683 2627.87,-436.809"/>
<polygon fill="BLACK" stroke="BLACK" points="2629.08,-440.095 2637.43,-433.567 2626.83,-433.466 2629.08,-440.095"/>
<text text-anchor="start" x="2554.5" y="-465.8" font-family="Times,serif" font-size="14.00"> </text>
<text text-anchor="start" x="2558.5" y="-465.8" font-family="Times,serif" font-size="10.00" fill="#336633">oboInOwl:hasdbxref</text>
<text text-anchor="start" x="2643.5" y="-465.8" font-family="Times,serif" font-size="14.00"> </text>
</g>
<!-- node19 -->
<g id="node20" class="node"><title>node19</title>
<polygon fill="grey" stroke="none" points="2857.5,-409.5 2857.5,-428.5 3075.5,-428.5 3075.5,-409.5 2857.5,-409.5"/>
<text text-anchor="start" x="2905.5" y="-416.3" font-family="DejaVu Sans" font-weight="bold" font-size="14.00">GENO_0000840</text>
<g id="a_node20_12"><a xlink:href="http://purl.obolibrary.org/obo/GENO_0000840" xlink:title="&lt;TABLE&gt;">
<polygon fill="#eeeeee" stroke="none" points="2857.5,-394.5 2857.5,-409.5 3075.5,-409.5 3075.5,-394.5 2857.5,-394.5"/>
<text text-anchor="start" x="2859.5" y="-399.5" font-family="DejaVu Sans" font-size="10.00" fill="#6666ff">http://purl.obolibrary.org/obo/GENO_0000840</text>
</a>
</g>
<polygon fill="none" stroke="#666666" points="2856.5,-393.5 2856.5,-429.5 3076.5,-429.5 3076.5,-393.5 2856.5,-393.5"/>
</g>
<!-- node6&#45;&gt;node19 -->
<g id="edge20" class="edge"><title>node6&#45;&gt;node19</title>
<path fill="none" stroke="BLACK" d="M2504.12,-503.47C2598.11,-488.211 2726.32,-466.243 2838.5,-443 2849.12,-440.8 2860.2,-438.367 2871.21,-435.864"/>
<polygon fill="BLACK" stroke="BLACK" points="2872.32,-439.2 2881.28,-433.549 2870.75,-432.377 2872.32,-439.2"/>
<text text-anchor="start" x="2736.5" y="-465.8" font-family="Times,serif" font-size="14.00"> </text>
<text text-anchor="start" x="2740.5" y="-465.8" font-family="Times,serif" font-size="10.00" fill="#336633">OBAN:association_has_predicate</text>
<text text-anchor="start" x="2880.5" y="-465.8" font-family="Times,serif" font-size="14.00"> </text>
</g>
<!-- node20 -->
<g id="node21" class="node"><title>node20</title>
<polygon fill="grey" stroke="none" points="3111.5,-409.5 3111.5,-428.5 3265.5,-428.5 3265.5,-409.5 3111.5,-409.5"/>
<text text-anchor="start" x="3142.5" y="-416.3" font-family="DejaVu Sans" font-weight="bold" font-size="14.00">association</text>
<g id="a_node21_13"><a xlink:href="http://purl.org/oban/association" xlink:title="&lt;TABLE&gt;">
<polygon fill="#eeeeee" stroke="none" points="3111.5,-394.5 3111.5,-409.5 3265.5,-409.5 3265.5,-394.5 3111.5,-394.5"/>
<text text-anchor="start" x="3113.5" y="-399.5" font-family="DejaVu Sans" font-size="10.00" fill="#6666ff">http://purl.org/oban/association</text>
</a>
</g>
<polygon fill="none" stroke="#666666" points="3110.5,-393.5 3110.5,-429.5 3266.5,-429.5 3266.5,-393.5 3110.5,-393.5"/>
</g>
<!-- node6&#45;&gt;node20 -->
<g id="edge21" class="edge"><title>node6&#45;&gt;node20</title>
<path fill="none" stroke="BLACK" d="M2537.21,-517.321C2685.26,-508.225 2906.07,-487.902 3093.5,-443 3101.4,-441.106 3109.6,-438.882 3117.72,-436.513"/>
<polygon fill="BLACK" stroke="BLACK" points="3118.99,-439.787 3127.56,-433.562 3116.98,-433.082 3118.99,-439.787"/>
<text text-anchor="start" x="2997.5" y="-465.8" font-family="Times,serif" font-size="14.00"> </text>
<text text-anchor="start" x="3001.5" y="-465.8" font-family="Times,serif" font-size="10.00" fill="#336633">rdf:type</text>
<text text-anchor="start" x="3034.5" y="-465.8" font-family="Times,serif" font-size="14.00"> </text>
</g>
<!-- node7&#45;&gt;node8 -->
<g id="edge4" class="edge"><title>node7&#45;&gt;node8</title>
<path fill="none" stroke="BLACK" d="M2315.39,-379.978C2305.1,-374.073 2294.44,-367.89 2284.5,-362 2242.4,-337.052 2194.86,-307.675 2161.66,-286.963"/>
<polygon fill="BLACK" stroke="BLACK" points="2163.45,-283.956 2153.12,-281.627 2159.74,-289.893 2163.45,-283.956"/>
<text text-anchor="start" x="2284.5" y="-351.8" font-family="Times,serif" font-size="14.00"> </text>
<text text-anchor="start" x="2288.5" y="-351.8" font-family="Times,serif" font-size="10.00" fill="#336633">OBO:SEPIO_0000111</text>
<text text-anchor="start" x="2382.5" y="-351.8" font-family="Times,serif" font-size="14.00"> </text>
</g>
<!-- node13 -->
<g id="node12" class="node"><title>node13</title>
<polygon fill="grey" stroke="none" points="2577.5,-257.5 2577.5,-276.5 3062.5,-276.5 3062.5,-257.5 2577.5,-257.5"/>
<text text-anchor="start" x="2579.5" y="-264.3" font-family="DejaVu Sans" font-weight="bold" font-size="14.00">&quot;Collagen Diagnostic Laboratory,University of Washington&quot;</text>
<g id="a_node12_14"><a xlink:href="http://www.ncbi.nlm.nih.gov/clinvar/submitters/1058" xlink:title="&lt;TABLE&gt;">
<polygon fill="#eeeeee" stroke="none" points="2577.5,-242.5 2577.5,-257.5 3062.5,-257.5 3062.5,-242.5 2577.5,-242.5"/>
<text text-anchor="start" x="2697.5" y="-247.5" font-family="DejaVu Sans" font-size="10.00" fill="#6666ff">http://www.ncbi.nlm.nih.gov/clinvar/submitters/1058</text>
</a>
</g>
<polygon fill="none" stroke="#666666" points="2576,-241.5 2576,-277.5 3063,-277.5 3063,-241.5 2576,-241.5"/>
</g>
<!-- node7&#45;&gt;node13 -->
<g id="edge9" class="edge"><title>node7&#45;&gt;node13</title>
<path fill="none" stroke="BLACK" d="M2461.11,-379.964C2545.39,-351.87 2668.75,-310.749 2746.55,-284.818"/>
<polygon fill="BLACK" stroke="BLACK" points="2747.89,-288.059 2756.27,-281.576 2745.68,-281.418 2747.89,-288.059"/>
<text text-anchor="start" x="2554.5" y="-351.8" font-family="Times,serif" font-size="14.00"> </text>
<text text-anchor="start" x="2558.5" y="-351.8" font-family="Times,serif" font-size="10.00" fill="#336633">OBO:SEPIO_0000018</text>
<text text-anchor="start" x="2652.5" y="-351.8" font-family="Times,serif" font-size="14.00"> </text>
</g>
<!-- node17 -->
<g id="node18" class="node"><title>node17</title>
<polygon fill="grey" stroke="none" points="2322.5,-257.5 2322.5,-276.5 2540.5,-276.5 2540.5,-257.5 2322.5,-257.5"/>
<text text-anchor="start" x="2369.5" y="-264.3" font-family="DejaVu Sans" font-weight="bold" font-size="14.00">SEPIO_0000001</text>
<g id="a_node18_15"><a xlink:href="http://purl.obolibrary.org/obo/SEPIO_0000001" xlink:title="&lt;TABLE&gt;">
<polygon fill="#eeeeee" stroke="none" points="2322.5,-242.5 2322.5,-257.5 2540.5,-257.5 2540.5,-242.5 2322.5,-242.5"/>
<text text-anchor="start" x="2324.5" y="-247.5" font-family="DejaVu Sans" font-size="10.00" fill="#6666ff">http://purl.obolibrary.org/obo/SEPIO_0000001</text>
</a>
</g>
<polygon fill="none" stroke="#666666" points="2321.5,-241.5 2321.5,-277.5 2541.5,-277.5 2541.5,-241.5 2321.5,-241.5"/>
</g>
<!-- node7&#45;&gt;node17 -->
<g id="edge17" class="edge"><title>node7&#45;&gt;node17</title>
<path fill="none" stroke="BLACK" d="M2382.2,-379.783C2392.94,-353.791 2408.25,-316.742 2418.95,-290.853"/>
<polygon fill="BLACK" stroke="BLACK" points="2422.22,-292.102 2422.81,-281.523 2415.76,-289.428 2422.22,-292.102"/>
<text text-anchor="start" x="2395.5" y="-351.8" font-family="Times,serif" font-size="14.00"> </text>
<text text-anchor="start" x="2399.5" y="-351.8" font-family="Times,serif" font-size="10.00" fill="#336633">rdf:type</text>
<text text-anchor="start" x="2432.5" y="-351.8" font-family="Times,serif" font-size="14.00"> </text>
</g>
<!-- node8&#45;&gt;node2 -->
<g id="edge8" class="edge"><title>node8&#45;&gt;node2</title>
<path fill="none" stroke="BLACK" d="M2152.59,-237.466C2191.48,-212.738 2256.1,-171.659 2298.49,-144.705"/>
<polygon fill="BLACK" stroke="BLACK" points="2300.63,-147.497 2307.19,-139.178 2296.87,-141.59 2300.63,-147.497"/>
<text text-anchor="start" x="2275.5" y="-161.8" font-family="Times,serif" font-size="14.00"> </text>
<text text-anchor="start" x="2279.5" y="-161.8" font-family="Times,serif" font-size="10.00" fill="#336633">OBO:SEPIO_0000085</text>
<text text-anchor="start" x="2373.5" y="-161.8" font-family="Times,serif" font-size="14.00"> </text>
</g>
<!-- node16 -->
<g id="node17" class="node"><title>node16</title>
<polygon fill="grey" stroke="none" points="1920.5,-115 1920.5,-134 2130.5,-134 2130.5,-115 1920.5,-115"/>
<text text-anchor="start" x="1971" y="-121.8" font-family="DejaVu Sans" font-weight="bold" font-size="14.00">ECO_0000000</text>
<g id="a_node17_16"><a xlink:href="http://purl.obolibrary.org/obo/ECO_0000000" xlink:title="&lt;TABLE&gt;">
<polygon fill="#eeeeee" stroke="none" points="1920.5,-100 1920.5,-115 2130.5,-115 2130.5,-100 1920.5,-100"/>
<text text-anchor="start" x="1922.5" y="-105" font-family="DejaVu Sans" font-size="10.00" fill="#6666ff">http://purl.obolibrary.org/obo/ECO_0000000</text>
</a>
</g>
<polygon fill="none" stroke="#666666" points="1919.5,-99 1919.5,-135 2131.5,-135 2131.5,-99 1919.5,-99"/>
</g>
<!-- node8&#45;&gt;node16 -->
<g id="edge14" class="edge"><title>node8&#45;&gt;node16</title>
<path fill="none" stroke="BLACK" d="M2105.43,-237.466C2089.51,-213.669 2063.45,-174.73 2045.44,-147.808"/>
<polygon fill="BLACK" stroke="BLACK" points="2048.14,-145.543 2039.67,-139.178 2042.32,-149.436 2048.14,-145.543"/>
<text text-anchor="start" x="2061.5" y="-161.8" font-family="Times,serif" font-size="14.00"> </text>
<text text-anchor="start" x="2065.5" y="-161.8" font-family="Times,serif" font-size="10.00" fill="#336633">rdf:type</text>
<text text-anchor="start" x="2098.5" y="-161.8" font-family="Times,serif" font-size="14.00"> </text>
</g>
<!-- node9 -->
<g id="node8" class="node"><title>node9</title>
<polygon fill="grey" stroke="none" points="3267.5,-532.5 3267.5,-551.5 3533.5,-551.5 3533.5,-532.5 3267.5,-532.5"/>
<text text-anchor="start" x="3328.5" y="-539.3" font-family="DejaVu Sans" font-weight="bold" font-size="14.00">RCV000087646.nt</text>
<g id="a_node8_17"><a xlink:href="https://data.monarchinitiative.org/ttl/RCV000087646.nt" xlink:title="&lt;TABLE&gt;">
<polygon fill="#eeeeee" stroke="none" points="3267.5,-517.5 3267.5,-532.5 3533.5,-532.5 3533.5,-517.5 3267.5,-517.5"/>
<text text-anchor="start" x="3269.5" y="-522.5" font-family="DejaVu Sans" font-size="10.00" fill="#6666ff">https://data.monarchinitiative.org/ttl/RCV000087646.nt</text>
</a>
</g>
<text text-anchor="start" x="3269.5" y="-504.3" font-family="DejaVu Sans" font-size="14.00">owl:versionInfo</text>
<text text-anchor="start" x="3407.5" y="-504.3" font-family="DejaVu Sans" font-size="14.00">&quot;2019&#45;07&#45;01&quot;</text>
<polygon fill="none" stroke="#666666" points="3266.5,-498 3266.5,-553 3534.5,-553 3534.5,-498 3266.5,-498"/>
</g>
<!-- node10 -->
<g id="node9" class="node"><title>node10</title>
<polygon fill="grey" stroke="none" points="3301.5,-409.5 3301.5,-428.5 3499.5,-428.5 3499.5,-409.5 3301.5,-409.5"/>
<text text-anchor="start" x="3363.5" y="-416.3" font-family="DejaVu Sans" font-weight="bold" font-size="14.00">Ontology</text>
<g id="a_node9_18"><a xlink:href="http://www.w3.org/2002/07/owl#Ontology" xlink:title="&lt;TABLE&gt;">
<polygon fill="#eeeeee" stroke="none" points="3301.5,-394.5 3301.5,-409.5 3499.5,-409.5 3499.5,-394.5 3301.5,-394.5"/>
<text text-anchor="start" x="3303.5" y="-399.5" font-family="DejaVu Sans" font-size="10.00" fill="#6666ff">http://www.w3.org/2002/07/owl#Ontology</text>
</a>
</g>
<polygon fill="none" stroke="#666666" points="3300.5,-393.5 3300.5,-429.5 3500.5,-429.5 3500.5,-393.5 3300.5,-393.5"/>
</g>
<!-- node9&#45;&gt;node10 -->
<g id="edge5" class="edge"><title>node9&#45;&gt;node10</title>
<path fill="none" stroke="BLACK" d="M3400.5,-493.896C3400.5,-478.319 3400.5,-459.416 3400.5,-443.749"/>
<polygon fill="BLACK" stroke="BLACK" points="3404,-443.501 3400.5,-433.501 3397,-443.501 3404,-443.501"/>
<text text-anchor="start" x="3400.5" y="-465.8" font-family="Times,serif" font-size="14.00"> </text>
<text text-anchor="start" x="3404.5" y="-465.8" font-family="Times,serif" font-size="10.00" fill="#336633">rdf:type</text>
<text text-anchor="start" x="3437.5" y="-465.8" font-family="Times,serif" font-size="14.00"> </text>
</g>
<!-- node4&#45;&gt;node11 -->
<g id="edge6" class="edge"><title>node4&#45;&gt;node11</title>
<path fill="none" stroke="BLACK" d="M689.012,-189.896C688.91,-175.565 688.807,-161.143 688.721,-149.016"/>
<polygon fill="BLACK" stroke="BLACK" points="692.221,-148.985 688.65,-139.011 685.221,-149.035 692.221,-148.985"/>
<text text-anchor="start" x="689.5" y="-161.8" font-family="Times,serif" font-size="14.00"> </text>
<text text-anchor="start" x="693.5" y="-161.8" font-family="Times,serif" font-size="10.00" fill="#336633">OBO:RO_0002162</text>
<text text-anchor="start" x="775.5" y="-161.8" font-family="Times,serif" font-size="14.00"> </text>
</g>
<!-- node14 -->
<g id="node14" class="node"><title>node14</title>
<polygon fill="grey" stroke="none" points="835.5,-115 835.5,-134 1171.5,-134 1171.5,-115 835.5,-115"/>
<text text-anchor="start" x="837.5" y="-121.8" font-family="DejaVu Sans" font-weight="bold" font-size="14.00">https://www.ncbi.nlm.nih.gov/gene/1281</text>
<g id="a_node14_19"><a xlink:href="https://www.ncbi.nlm.nih.gov/gene/1281" xlink:title="&lt;TABLE&gt;">
<polygon fill="#eeeeee" stroke="none" points="835.5,-100 835.5,-115 1171.5,-115 1171.5,-100 835.5,-100"/>
<text text-anchor="start" x="909" y="-105" font-family="DejaVu Sans" font-size="10.00" fill="#6666ff">https://www.ncbi.nlm.nih.gov/gene/1281</text>
</a>
</g>
<polygon fill="none" stroke="#666666" points="834.5,-99 834.5,-135 1172.5,-135 1172.5,-99 834.5,-99"/>
</g>
<!-- node4&#45;&gt;node14 -->
<g id="edge11" class="edge"><title>node4&#45;&gt;node14</title>
<path fill="none" stroke="BLACK" d="M804.942,-189.964C827.274,-178.105 850.797,-166.539 873.5,-157 886.261,-151.638 900.01,-146.684 913.623,-142.232"/>
<polygon fill="BLACK" stroke="BLACK" points="915.033,-145.456 923.494,-139.08 912.904,-138.787 915.033,-145.456"/>
<text text-anchor="start" x="873.5" y="-161.8" font-family="Times,serif" font-size="14.00"> </text>
<text text-anchor="start" x="877.5" y="-161.8" font-family="Times,serif" font-size="10.00" fill="#336633">OBO:BFO_0000050</text>
<text text-anchor="start" x="964.5" y="-161.8" font-family="Times,serif" font-size="14.00"> </text>
</g>
<!-- node21 -->
<g id="node22" class="node"><title>node21</title>
<polygon fill="grey" stroke="none" points="1207.5,-115 1207.5,-134 1411.5,-134 1411.5,-115 1207.5,-115"/>
<text text-anchor="start" x="1260" y="-121.8" font-family="DejaVu Sans" font-weight="bold" font-size="14.00">SO_0000159</text>
<g id="a_node22_20"><a xlink:href="http://purl.obolibrary.org/obo/SO_0000159" xlink:title="&lt;TABLE&gt;">
<polygon fill="#eeeeee" stroke="none" points="1207.5,-100 1207.5,-115 1411.5,-115 1411.5,-100 1207.5,-100"/>
<text text-anchor="start" x="1209.5" y="-105" font-family="DejaVu Sans" font-size="10.00" fill="#6666ff">http://purl.obolibrary.org/obo/SO_0000159</text>
</a>
</g>
<polygon fill="none" stroke="#666666" points="1206.5,-99 1206.5,-135 1412.5,-135 1412.5,-99 1206.5,-99"/>
</g>
<!-- node4&#45;&gt;node21 -->
<g id="edge25" class="edge"><title>node4&#45;&gt;node21</title>
<path fill="none" stroke="BLACK" d="M989.592,-191.922C992.576,-191.277 995.546,-190.637 998.5,-190 1036.67,-181.774 1047.54,-184.598 1084.5,-172 1098.99,-167.062 1100.99,-161.88 1115.5,-157 1130.04,-152.107 1158.06,-145.88 1188.38,-139.846"/>
<polygon fill="BLACK" stroke="BLACK" points="1189.15,-143.261 1198.29,-137.895 1187.8,-136.393 1189.15,-143.261"/>
<text text-anchor="start" x="1115.5" y="-161.8" font-family="Times,serif" font-size="14.00"> </text>
<text text-anchor="start" x="1119.5" y="-161.8" font-family="Times,serif" font-size="10.00" fill="#336633">rdf:type</text>
<text text-anchor="start" x="1152.5" y="-161.8" font-family="Times,serif" font-size="14.00"> </text>
</g>
<!-- node15 -->
<g id="node16" class="node"><title>node15</title>
<polygon fill="grey" stroke="none" points="2726.5,-115 2726.5,-134 2913.5,-134 2913.5,-115 2726.5,-115"/>
<text text-anchor="start" x="2768.5" y="-121.8" font-family="DejaVu Sans" font-weight="bold" font-size="14.00">organization</text>
<g id="a_node16_21"><a xlink:href="http://xmlns.com/foaf/0.1/organization" xlink:title="&lt;TABLE&gt;">
<polygon fill="#eeeeee" stroke="none" points="2726.5,-100 2726.5,-115 2913.5,-115 2913.5,-100 2726.5,-100"/>
<text text-anchor="start" x="2728.5" y="-105" font-family="DejaVu Sans" font-size="10.00" fill="#6666ff">http://xmlns.com/foaf/0.1/organization</text>
</a>
</g>
<polygon fill="none" stroke="#666666" points="2725,-99 2725,-135 2914,-135 2914,-99 2725,-99"/>
</g>
<!-- node13&#45;&gt;node15 -->
<g id="edge13" class="edge"><title>node13&#45;&gt;node15</title>
<path fill="none" stroke="BLACK" d="M2819.5,-237.466C2819.5,-214.083 2819.5,-176.08 2819.5,-149.224"/>
<polygon fill="BLACK" stroke="BLACK" points="2823,-149.178 2819.5,-139.178 2816,-149.178 2823,-149.178"/>
<text text-anchor="start" x="2819.5" y="-161.8" font-family="Times,serif" font-size="14.00"> </text>
<text text-anchor="start" x="2823.5" y="-161.8" font-family="Times,serif" font-size="10.00" fill="#336633">rdf:type</text>
<text text-anchor="start" x="2856.5" y="-161.8" font-family="Times,serif" font-size="14.00"> </text>
</g>
<!-- node5&#45;&gt;node11 -->
<g id="edge12" class="edge"><title>node5&#45;&gt;node11</title>
<path fill="none" stroke="BLACK" d="M1033.35,-189.926C1018.68,-184.332 1004.31,-178.361 990.5,-172 979.751,-167.049 979.582,-161.153 968.5,-157 908.178,-134.396 886.467,-147.097 818.945,-139.072"/>
<polygon fill="BLACK" stroke="BLACK" points="819.009,-135.55 808.64,-137.73 818.105,-142.492 819.009,-135.55"/>
<text text-anchor="start" x="990.5" y="-161.8" font-family="Times,serif" font-size="14.00"> </text>
<text text-anchor="start" x="994.5" y="-161.8" font-family="Times,serif" font-size="10.00" fill="#336633">OBO:RO_0002162</text>
<text text-anchor="start" x="1076.5" y="-161.8" font-family="Times,serif" font-size="14.00"> </text>
</g>
<!-- node5&#45;&gt;node14 -->
<g id="edge15" class="edge"><title>node5&#45;&gt;node14</title>
<path fill="none" stroke="BLACK" d="M1219.5,-189.789C1200.7,-177.593 1180.5,-165.949 1160.5,-157 1147.69,-151.268 1133.9,-146.288 1120,-141.984"/>
<polygon fill="BLACK" stroke="BLACK" points="1120.95,-138.616 1110.37,-139.112 1118.95,-145.324 1120.95,-138.616"/>
<text text-anchor="start" x="1187.5" y="-161.8" font-family="Times,serif" font-size="14.00"> </text>
<text text-anchor="start" x="1191.5" y="-161.8" font-family="Times,serif" font-size="10.00" fill="#336633">OBO:BFO_0000050</text>
<text text-anchor="start" x="1278.5" y="-161.8" font-family="Times,serif" font-size="14.00"> </text>
</g>
<!-- node5&#45;&gt;node21 -->
<g id="edge26" class="edge"><title>node5&#45;&gt;node21</title>
<path fill="none" stroke="BLACK" d="M1309.5,-189.896C1309.5,-175.565 1309.5,-161.143 1309.5,-149.016"/>
<polygon fill="BLACK" stroke="BLACK" points="1313,-149.011 1309.5,-139.011 1306,-149.011 1313,-149.011"/>
<text text-anchor="start" x="1309.5" y="-161.8" font-family="Times,serif" font-size="14.00"> </text>
<text text-anchor="start" x="1313.5" y="-161.8" font-family="Times,serif" font-size="10.00" fill="#336633">rdf:type</text>
<text text-anchor="start" x="1346.5" y="-161.8" font-family="Times,serif" font-size="14.00"> </text>
</g>
</g>
</svg>
