<?xml version="1.0" encoding="UTF-8" standalone="no"?>
<!DOCTYPE svg PUBLIC "-//W3C//DTD SVG 1.1//EN"
 "http://www.w3.org/Graphics/SVG/1.1/DTD/svg11.dtd">
<!-- Generated by graphviz version 2.38.0 (20140413.2041)
 -->
<!-- Title: %3 Pages: 1 -->
<svg width="4588pt" height="546pt"
 viewBox="0.00 0.00 4587.50 546.00" xmlns="http://www.w3.org/2000/svg" xmlns:xlink="http://www.w3.org/1999/xlink">
<g id="graph0" class="graph" transform="scale(1 1) rotate(0) translate(4 542)">
<title>%3</title>
<polygon fill="white" stroke="none" points="-4,4 -4,-542 4583.5,-542 4583.5,4 -4,4"/>
<!-- node0 -->
<g id="node1" class="node"><title>node0</title>
<polygon fill="grey" stroke="none" points="2700.5,-504.5 2700.5,-523.5 3011.5,-523.5 3011.5,-504.5 2700.5,-504.5"/>
<text text-anchor="start" x="2716" y="-511.3" font-family="DejaVu Sans" font-weight="bold" font-size="14.00">MONARCH_b0c2b8f4b93e10f01eba</text>
<g id="a_node1_0"><a xlink:href="https://monarchinitiative.org/MONARCH_b0c2b8f4b93e10f01eba" xlink:title="&lt;TABLE&gt;">
<polygon fill="#eeeeee" stroke="none" points="2700.5,-489.5 2700.5,-504.5 3011.5,-504.5 3011.5,-489.5 2700.5,-489.5"/>
<text text-anchor="start" x="2702.5" y="-494.5" font-family="DejaVu Sans" font-size="10.00" fill="#6666ff">https://monarchinitiative.org/MONARCH_b0c2b8f4b93e10f01eba</text>
</a>
</g>
<polygon fill="none" stroke="#666666" points="2699,-488.5 2699,-524.5 3012,-524.5 3012,-488.5 2699,-488.5"/>
</g>
<!-- node1 -->
<g id="node2" class="node"><title>node1</title>
<polygon fill="grey" stroke="none" points="245.5,-219.5 245.5,-238.5 588.5,-238.5 588.5,-219.5 245.5,-219.5"/>
<text text-anchor="start" x="274.5" y="-226.3" font-family="DejaVu Sans" font-weight="bold" font-size="14.00">&quot;b0c2b8f4b93e10f01eba_evidence&quot;</text>
<g id="a_node2_1"><a xlink:href="https://monarchinitiative.org/.well-known/genid/bec67224cccaa828d90f" xlink:title="&lt;TABLE&gt;">
<polygon fill="#eeeeee" stroke="none" points="245.5,-204.5 245.5,-219.5 588.5,-219.5 588.5,-204.5 245.5,-204.5"/>
<text text-anchor="start" x="247.5" y="-209.5" font-family="DejaVu Sans" font-size="10.00" fill="#6666ff">https://monarchinitiative.org/.well&#45;known/genid/bec67224cccaa828d90f</text>
</a>
</g>
<polygon fill="none" stroke="#666666" points="244,-203.5 244,-239.5 589,-239.5 589,-203.5 244,-203.5"/>
</g>
<!-- node0&#45;&gt;node1 -->
<g id="edge1" class="edge"><title>node0&#45;&gt;node1</title>
<path fill="none" stroke="BLACK" d="M2690.8,-501.891C2437.28,-494.893 1936.47,-475.351 1514.5,-424 1145.52,-379.097 713.127,-288.379 519.437,-245.696"/>
<polygon fill="BLACK" stroke="BLACK" points="520.071,-242.252 509.552,-243.513 518.562,-249.087 520.071,-242.252"/>
<text text-anchor="start" x="1514.5" y="-361.3" font-family="Times,serif" font-size="14.00"> </text>
<text text-anchor="start" x="1518.5" y="-361.3" font-family="Times,serif" font-size="10.00" fill="#336633">OBO:SEPIO_0000007</text>
<text text-anchor="start" x="1612.5" y="-361.3" font-family="Times,serif" font-size="14.00"> </text>
</g>
<!-- node2 -->
<g id="node5" class="node"><title>node2</title>
<polygon fill="grey" stroke="none" points="2634.5,-400 2634.5,-419 3077.5,-419 3077.5,-400 2634.5,-400"/>
<text text-anchor="start" x="2701" y="-406.8" font-family="DejaVu Sans" font-weight="bold" font-size="14.00">&quot;NM_000182.4(HADHA):c.2146+1G&gt;A&quot;</text>
<g id="a_node5_2"><a xlink:href="http://www.ncbi.nlm.nih.gov/clinvar/variation/192079" xlink:title="&lt;TABLE&gt;">
<polygon fill="#eeeeee" stroke="none" points="2634.5,-385 2634.5,-400 3077.5,-400 3077.5,-385 2634.5,-385"/>
<text text-anchor="start" x="2732.5" y="-390" font-family="DejaVu Sans" font-size="10.00" fill="#6666ff">http://www.ncbi.nlm.nih.gov/clinvar/variation/192079</text>
</a>
</g>
<text text-anchor="start" x="2636.5" y="-371.8" font-family="DejaVu Sans" font-size="14.00">oboInOwl:hasExactSynonym</text>
<text text-anchor="start" x="2838.5" y="-371.8" font-family="DejaVu Sans" font-size="14.00">&quot;NC_000002.11:g.26414351C&gt;T&quot;</text>
<text text-anchor="start" x="2636.5" y="-352.8" font-family="DejaVu Sans" font-size="14.00">oboInOwl:hasExactSynonym</text>
<text text-anchor="start" x="2838.5" y="-352.8" font-family="DejaVu Sans" font-size="14.00">&quot;NC_000002.12:g.26191482C&gt;T&quot;</text>
<text text-anchor="start" x="2636.5" y="-333.8" font-family="DejaVu Sans" font-size="14.00">oboInOwl:hasExactSynonym</text>
<text text-anchor="start" x="2838.5" y="-333.8" font-family="DejaVu Sans" font-size="14.00">&quot;NG_007121.1:g.58139G&gt;A&quot;</text>
<text text-anchor="start" x="2636.5" y="-314.8" font-family="DejaVu Sans" font-size="14.00">oboInOwl:hasExactSynonym</text>
<text text-anchor="start" x="2838.5" y="-314.8" font-family="DejaVu Sans" font-size="14.00">&quot;NM_000182.4:c.2146+1G&gt;A&quot;</text>
<polygon fill="none" stroke="#666666" points="2633,-308 2633,-420 3078,-420 3078,-308 2633,-308"/>
</g>
<!-- node0&#45;&gt;node2 -->
<g id="edge20" class="edge"><title>node0&#45;&gt;node2</title>
<path fill="none" stroke="BLACK" d="M2855.5,-484.466C2855.5,-470.966 2855.5,-452.594 2855.5,-434.307"/>
<polygon fill="BLACK" stroke="BLACK" points="2859,-434.188 2855.5,-424.188 2852,-434.188 2859,-434.188"/>
<text text-anchor="start" x="2855.5" y="-446.8" font-family="Times,serif" font-size="14.00"> </text>
<text text-anchor="start" x="2859.5" y="-446.8" font-family="Times,serif" font-size="10.00" fill="#336633">OBAN:association_has_subject</text>
<text text-anchor="start" x="2991.5" y="-446.8" font-family="Times,serif" font-size="14.00"> </text>
</g>
<!-- node4 -->
<g id="node7" class="node"><title>node4</title>
<polygon fill="grey" stroke="none" points="1634.5,-381 1634.5,-400 1976.5,-400 1976.5,-381 1634.5,-381"/>
<text text-anchor="start" x="1692.5" y="-387.8" font-family="DejaVu Sans" font-weight="bold" font-size="14.00">&quot;ClinVarAssertion_1540968&quot;</text>
<g id="a_node7_3"><a xlink:href="https://monarchinitiative.org/.well-known/genid/b13b11feeac6001ef4e1" xlink:title="&lt;TABLE&gt;">
<polygon fill="#eeeeee" stroke="none" points="1634.5,-366 1634.5,-381 1976.5,-381 1976.5,-366 1634.5,-366"/>
<text text-anchor="start" x="1636.5" y="-371" font-family="DejaVu Sans" font-size="10.00" fill="#6666ff">https://monarchinitiative.org/.well&#45;known/genid/b13b11feeac6001ef4e1</text>
</a>
</g>
<text text-anchor="start" x="1636.5" y="-352.8" font-family="DejaVu Sans" font-size="14.00">OBO:SEPIO_0000021</text>
<text text-anchor="start" x="1814.5" y="-352.8" font-family="DejaVu Sans" font-size="14.00">&quot;2017&#45;04&#45;04&quot;</text>
<text text-anchor="start" x="1636.5" y="-333.8" font-family="DejaVu Sans" font-size="14.00">dc:identifier</text>
<text text-anchor="start" x="1814.5" y="-333.8" font-family="DejaVu Sans" font-size="14.00">&quot;SCV000790664.1&quot;</text>
<polygon fill="none" stroke="#666666" points="1633.5,-327 1633.5,-401 1977.5,-401 1977.5,-327 1633.5,-327"/>
</g>
<!-- node0&#45;&gt;node4 -->
<g id="edge18" class="edge"><title>node0&#45;&gt;node4</title>
<path fill="none" stroke="BLACK" d="M2690.93,-492.579C2592.53,-484.12 2465.13,-471.883 2352.5,-457 2233.54,-441.281 2100.79,-419.068 1995.86,-400.406"/>
<polygon fill="BLACK" stroke="BLACK" points="1996.26,-396.921 1985.8,-398.612 1995.03,-403.813 1996.26,-396.921"/>
<text text-anchor="start" x="2352.5" y="-446.8" font-family="Times,serif" font-size="14.00"> </text>
<text text-anchor="start" x="2356.5" y="-446.8" font-family="Times,serif" font-size="10.00" fill="#336633">OBO:SEPIO_0000015</text>
<text text-anchor="start" x="2450.5" y="-446.8" font-family="Times,serif" font-size="14.00"> </text>
</g>
<!-- node10 -->
<g id="node10" class="node"><title>node10</title>
<polygon fill="grey" stroke="none" points="2226.5,-219.5 2226.5,-238.5 2708.5,-238.5 2708.5,-219.5 2226.5,-219.5"/>
<text text-anchor="start" x="2228.5" y="-226.3" font-family="DejaVu Sans" font-weight="bold" font-size="14.00">&quot;Long&#45;chain 3&#45;hydroxyacyl&#45;CoA dehydrogenase deficiency&quot;</text>
<g id="a_node10_4"><a xlink:href="http://omim.org/entry/609016" xlink:title="&lt;TABLE&gt;">
<polygon fill="#eeeeee" stroke="none" points="2226.5,-204.5 2226.5,-219.5 2708.5,-219.5 2708.5,-204.5 2226.5,-204.5"/>
<text text-anchor="start" x="2396.5" y="-209.5" font-family="DejaVu Sans" font-size="10.00" fill="#6666ff">http://omim.org/entry/609016</text>
</a>
</g>
<polygon fill="none" stroke="#666666" points="2225.5,-203.5 2225.5,-239.5 2709.5,-239.5 2709.5,-203.5 2225.5,-203.5"/>
</g>
<!-- node0&#45;&gt;node10 -->
<g id="edge7" class="edge"><title>node0&#45;&gt;node10</title>
<path fill="none" stroke="BLACK" d="M2690.91,-489.454C2603.16,-477.234 2507.58,-456.78 2479.5,-424 2438.76,-376.45 2449.04,-297.117 2458.97,-253.53"/>
<polygon fill="BLACK" stroke="BLACK" points="2462.38,-254.314 2461.33,-243.772 2455.58,-252.672 2462.38,-254.314"/>
<text text-anchor="start" x="2479.5" y="-361.3" font-family="Times,serif" font-size="14.00"> </text>
<text text-anchor="start" x="2483.5" y="-361.3" font-family="Times,serif" font-size="10.00" fill="#336633">OBAN:association_has_object</text>
<text text-anchor="start" x="2611.5" y="-361.3" font-family="Times,serif" font-size="14.00"> </text>
</g>
<!-- node16 -->
<g id="node16" class="node"><title>node16</title>
<polygon fill="grey" stroke="none" points="3113.5,-362 3113.5,-381 3356.5,-381 3356.5,-362 3113.5,-362"/>
<text text-anchor="start" x="3174.5" y="-368.8" font-family="DejaVu Sans" font-weight="bold" font-size="14.00">RCV000175394</text>
<g id="a_node16_5"><a xlink:href="http://www.ncbi.nlm.nih.gov/clinvar/RCV000175394" xlink:title="&lt;TABLE&gt;">
<polygon fill="#eeeeee" stroke="none" points="3113.5,-347 3113.5,-362 3356.5,-362 3356.5,-347 3113.5,-347"/>
<text text-anchor="start" x="3115.5" y="-352" font-family="DejaVu Sans" font-size="10.00" fill="#6666ff">http://www.ncbi.nlm.nih.gov/clinvar/RCV000175394</text>
</a>
</g>
<polygon fill="none" stroke="#666666" points="3112,-346 3112,-382 3357,-382 3357,-346 3112,-346"/>
</g>
<!-- node0&#45;&gt;node16 -->
<g id="edge15" class="edge"><title>node0&#45;&gt;node16</title>
<path fill="none" stroke="BLACK" d="M2921.67,-484.433C2969.92,-468.709 3036.69,-446.195 3094.5,-424 3121.9,-413.479 3151.94,-400.957 3177.13,-390.16"/>
<polygon fill="BLACK" stroke="BLACK" points="3178.74,-393.281 3186.54,-386.115 3175.97,-386.851 3178.74,-393.281"/>
<text text-anchor="start" x="3043.5" y="-446.8" font-family="Times,serif" font-size="14.00"> </text>
<text text-anchor="start" x="3047.5" y="-446.8" font-family="Times,serif" font-size="10.00" fill="#336633">oboInOwl:hasdbxref</text>
<text text-anchor="start" x="3132.5" y="-446.8" font-family="Times,serif" font-size="14.00"> </text>
</g>
<!-- node18 -->
<g id="node18" class="node"><title>node18</title>
<polygon fill="grey" stroke="none" points="3392.5,-362 3392.5,-381 3610.5,-381 3610.5,-362 3392.5,-362"/>
<text text-anchor="start" x="3440.5" y="-368.8" font-family="DejaVu Sans" font-weight="bold" font-size="14.00">GENO_0000841</text>
<g id="a_node18_6"><a xlink:href="http://purl.obolibrary.org/obo/GENO_0000841" xlink:title="&lt;TABLE&gt;">
<polygon fill="#eeeeee" stroke="none" points="3392.5,-347 3392.5,-362 3610.5,-362 3610.5,-347 3392.5,-347"/>
<text text-anchor="start" x="3394.5" y="-352" font-family="DejaVu Sans" font-size="10.00" fill="#6666ff">http://purl.obolibrary.org/obo/GENO_0000841</text>
</a>
</g>
<polygon fill="none" stroke="#666666" points="3391.5,-346 3391.5,-382 3611.5,-382 3611.5,-346 3391.5,-346"/>
</g>
<!-- node0&#45;&gt;node18 -->
<g id="edge17" class="edge"><title>node0&#45;&gt;node18</title>
<path fill="none" stroke="BLACK" d="M3020.24,-491.302C3123.34,-479.557 3258.05,-458.953 3373.5,-424 3401.1,-415.644 3430.42,-402.477 3454.02,-390.7"/>
<polygon fill="BLACK" stroke="BLACK" points="3455.76,-393.74 3463.1,-386.098 3452.6,-387.497 3455.76,-393.74"/>
<text text-anchor="start" x="3305.5" y="-446.8" font-family="Times,serif" font-size="14.00"> </text>
<text text-anchor="start" x="3309.5" y="-446.8" font-family="Times,serif" font-size="10.00" fill="#336633">OBAN:association_has_predicate</text>
<text text-anchor="start" x="3449.5" y="-446.8" font-family="Times,serif" font-size="14.00"> </text>
</g>
<!-- node20 -->
<g id="node20" class="node"><title>node20</title>
<polygon fill="grey" stroke="none" points="3646.5,-362 3646.5,-381 3800.5,-381 3800.5,-362 3646.5,-362"/>
<text text-anchor="start" x="3677.5" y="-368.8" font-family="DejaVu Sans" font-weight="bold" font-size="14.00">association</text>
<g id="a_node20_7"><a xlink:href="http://purl.org/oban/association" xlink:title="&lt;TABLE&gt;">
<polygon fill="#eeeeee" stroke="none" points="3646.5,-347 3646.5,-362 3800.5,-362 3800.5,-347 3646.5,-347"/>
<text text-anchor="start" x="3648.5" y="-352" font-family="DejaVu Sans" font-size="10.00" fill="#6666ff">http://purl.org/oban/association</text>
</a>
</g>
<polygon fill="none" stroke="#666666" points="3645.5,-346 3645.5,-382 3801.5,-382 3801.5,-346 3645.5,-346"/>
</g>
<!-- node0&#45;&gt;node20 -->
<g id="edge21" class="edge"><title>node0&#45;&gt;node20</title>
<path fill="none" stroke="BLACK" d="M3020.19,-497.141C3141.48,-489.793 3310.23,-477.08 3457.5,-457 3534.19,-446.543 3556.43,-452.22 3628.5,-424 3648.98,-415.983 3669.93,-403.512 3686.93,-392.096"/>
<polygon fill="BLACK" stroke="BLACK" points="3689.17,-394.8 3695.43,-386.252 3685.21,-389.03 3689.17,-394.8"/>
<text text-anchor="start" x="3571.5" y="-446.8" font-family="Times,serif" font-size="14.00"> </text>
<text text-anchor="start" x="3575.5" y="-446.8" font-family="Times,serif" font-size="10.00" fill="#336633">rdf:type</text>
<text text-anchor="start" x="3608.5" y="-446.8" font-family="Times,serif" font-size="14.00"> </text>
</g>
<!-- node11 -->
<g id="node11" class="node"><title>node11</title>
<polygon fill="grey" stroke="none" points="9.5,-115 9.5,-134 354.5,-134 354.5,-115 9.5,-115"/>
<text text-anchor="start" x="114" y="-121.8" font-family="DejaVu Sans" font-weight="bold" font-size="14.00">&quot;clinical testing&quot;</text>
<g id="a_node11_8"><a xlink:href="https://monarchinitiative.org/.well-known/genid/bfcd925176aeb5112036" xlink:title="&lt;TABLE&gt;">
<polygon fill="#eeeeee" stroke="none" points="9.5,-100 9.5,-115 354.5,-115 354.5,-100 9.5,-100"/>
<text text-anchor="start" x="11.5" y="-105" font-family="DejaVu Sans" font-size="10.00" fill="#6666ff">https://monarchinitiative.org/.well&#45;known/genid/bfcd925176aeb5112036</text>
</a>
</g>
<polygon fill="none" stroke="#666666" points="8,-99 8,-135 355,-135 355,-99 8,-99"/>
</g>
<!-- node1&#45;&gt;node11 -->
<g id="edge13" class="edge"><title>node1&#45;&gt;node11</title>
<path fill="none" stroke="BLACK" d="M368.093,-199.386C330.652,-183.055 278.694,-160.393 239.112,-143.128"/>
<polygon fill="BLACK" stroke="BLACK" points="240.41,-139.876 229.844,-139.086 237.611,-146.293 240.41,-139.876"/>
<text text-anchor="start" x="299.5" y="-161.8" font-family="Times,serif" font-size="14.00"> </text>
<text text-anchor="start" x="303.5" y="-161.8" font-family="Times,serif" font-size="10.00" fill="#336633">OBO:SEPIO_0000085</text>
<text text-anchor="start" x="397.5" y="-161.8" font-family="Times,serif" font-size="14.00"> </text>
</g>
<!-- node17 -->
<g id="node17" class="node"><title>node17</title>
<polygon fill="grey" stroke="none" points="390.5,-115 390.5,-134 600.5,-134 600.5,-115 390.5,-115"/>
<text text-anchor="start" x="441" y="-121.8" font-family="DejaVu Sans" font-weight="bold" font-size="14.00">ECO_0000000</text>
<g id="a_node17_9"><a xlink:href="http://purl.obolibrary.org/obo/ECO_0000000" xlink:title="&lt;TABLE&gt;">
<polygon fill="#eeeeee" stroke="none" points="390.5,-100 390.5,-115 600.5,-115 600.5,-100 390.5,-100"/>
<text text-anchor="start" x="392.5" y="-105" font-family="DejaVu Sans" font-size="10.00" fill="#6666ff">http://purl.obolibrary.org/obo/ECO_0000000</text>
</a>
</g>
<polygon fill="none" stroke="#666666" points="389.5,-99 389.5,-135 601.5,-135 601.5,-99 389.5,-99"/>
</g>
<!-- node1&#45;&gt;node17 -->
<g id="edge16" class="edge"><title>node1&#45;&gt;node17</title>
<path fill="none" stroke="BLACK" d="M432.869,-199.262C444.415,-184.282 460.031,-164.019 472.782,-147.476"/>
<polygon fill="BLACK" stroke="BLACK" points="475.82,-149.268 479.152,-139.211 470.275,-144.995 475.82,-149.268"/>
<text text-anchor="start" x="465.5" y="-161.8" font-family="Times,serif" font-size="14.00"> </text>
<text text-anchor="start" x="469.5" y="-161.8" font-family="Times,serif" font-size="10.00" fill="#336633">rdf:type</text>
<text text-anchor="start" x="502.5" y="-161.8" font-family="Times,serif" font-size="14.00"> </text>
</g>
<!-- node5 -->
<g id="node3" class="node"><title>node5</title>
<polygon fill="grey" stroke="none" points="624.5,-228.5 624.5,-247.5 1639.5,-247.5 1639.5,-228.5 624.5,-228.5"/>
<text text-anchor="start" x="830" y="-235.3" font-family="DejaVu Sans" font-weight="bold" font-size="14.00">&quot;Counsyl Autosomal Recessive and X&#45;Linked Classification Criteria (2018)&quot;</text>
<g id="a_node3_10"><a xlink:href="https://monarchinitiative.org/.well-known/genid/bc99926ac85cd459a025" xlink:title="&lt;TABLE&gt;">
<polygon fill="#eeeeee" stroke="none" points="624.5,-213.5 624.5,-228.5 1639.5,-228.5 1639.5,-213.5 624.5,-213.5"/>
<text text-anchor="start" x="960.5" y="-218.5" font-family="DejaVu Sans" font-size="10.00" fill="#6666ff">https://monarchinitiative.org/.well&#45;known/genid/bc99926ac85cd459a025</text>
</a>
</g>
<text text-anchor="start" x="626.5" y="-200.3" font-family="DejaVu Sans" font-size="14.00">OBO:ERO_0000480</text>
<text text-anchor="start" x="768.5" y="-200.3" font-family="DejaVu Sans" font-size="14.00">&quot;https://submit.ncbi.nlm.nih.gov/ft/byid/3ys2zqtz/counsyl_autosomal_recessive_and_x&#45;linked_classification_criteria_2018_.pdf&quot;</text>
<polygon fill="none" stroke="#666666" points="623,-194 623,-249 1640,-249 1640,-194 623,-194"/>
</g>
<!-- node6 -->
<g id="node4" class="node"><title>node6</title>
<polygon fill="grey" stroke="none" points="1022.5,-115 1022.5,-134 1240.5,-134 1240.5,-115 1022.5,-115"/>
<text text-anchor="start" x="1069.5" y="-121.8" font-family="DejaVu Sans" font-weight="bold" font-size="14.00">SEPIO_0000037</text>
<g id="a_node4_11"><a xlink:href="http://purl.obolibrary.org/obo/SEPIO_0000037" xlink:title="&lt;TABLE&gt;">
<polygon fill="#eeeeee" stroke="none" points="1022.5,-100 1022.5,-115 1240.5,-115 1240.5,-100 1022.5,-100"/>
<text text-anchor="start" x="1024.5" y="-105" font-family="DejaVu Sans" font-size="10.00" fill="#6666ff">http://purl.obolibrary.org/obo/SEPIO_0000037</text>
</a>
</g>
<polygon fill="none" stroke="#666666" points="1021.5,-99 1021.5,-135 1241.5,-135 1241.5,-99 1021.5,-99"/>
</g>
<!-- node5&#45;&gt;node6 -->
<g id="edge2" class="edge"><title>node5&#45;&gt;node6</title>
<path fill="none" stroke="BLACK" d="M1131.5,-189.747C1131.5,-177.031 1131.5,-162.301 1131.5,-149.508"/>
<polygon fill="BLACK" stroke="BLACK" points="1135,-149.304 1131.5,-139.304 1128,-149.304 1135,-149.304"/>
<text text-anchor="start" x="1131.5" y="-161.8" font-family="Times,serif" font-size="14.00"> </text>
<text text-anchor="start" x="1135.5" y="-161.8" font-family="Times,serif" font-size="10.00" fill="#336633">rdf:type</text>
<text text-anchor="start" x="1168.5" y="-161.8" font-family="Times,serif" font-size="14.00"> </text>
</g>
<!-- node7 -->
<g id="node6" class="node"><title>node7</title>
<polygon fill="grey" stroke="none" points="2744.5,-219.5 2744.5,-238.5 2966.5,-238.5 2966.5,-219.5 2744.5,-219.5"/>
<text text-anchor="start" x="2789" y="-226.3" font-family="DejaVu Sans" font-weight="bold" font-size="14.00">NCBITaxon_9606</text>
<g id="a_node6_12"><a xlink:href="http://purl.obolibrary.org/obo/NCBITaxon_9606" xlink:title="&lt;TABLE&gt;">
<polygon fill="#eeeeee" stroke="none" points="2744.5,-204.5 2744.5,-219.5 2966.5,-219.5 2966.5,-204.5 2744.5,-204.5"/>
<text text-anchor="start" x="2746.5" y="-209.5" font-family="DejaVu Sans" font-size="10.00" fill="#6666ff">http://purl.obolibrary.org/obo/NCBITaxon_9606</text>
</a>
</g>
<polygon fill="none" stroke="#666666" points="2743.5,-203.5 2743.5,-239.5 2967.5,-239.5 2967.5,-203.5 2743.5,-203.5"/>
</g>
<!-- node2&#45;&gt;node7 -->
<g id="edge3" class="edge"><title>node2&#45;&gt;node7</title>
<path fill="none" stroke="BLACK" d="M2855.5,-303.823C2855.5,-286.563 2855.5,-268.389 2855.5,-253.609"/>
<polygon fill="BLACK" stroke="BLACK" points="2859,-253.509 2855.5,-243.509 2852,-253.509 2859,-253.509"/>
<text text-anchor="start" x="2855.5" y="-275.8" font-family="Times,serif" font-size="14.00"> </text>
<text text-anchor="start" x="2859.5" y="-275.8" font-family="Times,serif" font-size="10.00" fill="#336633">OBO:RO_0002162</text>
<text text-anchor="start" x="2941.5" y="-275.8" font-family="Times,serif" font-size="14.00"> </text>
</g>
<!-- node8 -->
<g id="node8" class="node"><title>node8</title>
<polygon fill="grey" stroke="none" points="3002.5,-219.5 3002.5,-238.5 3206.5,-238.5 3206.5,-219.5 3002.5,-219.5"/>
<text text-anchor="start" x="3055" y="-226.3" font-family="DejaVu Sans" font-weight="bold" font-size="14.00">SO_0001483</text>
<g id="a_node8_13"><a xlink:href="http://purl.obolibrary.org/obo/SO_0001483" xlink:title="&lt;TABLE&gt;">
<polygon fill="#eeeeee" stroke="none" points="3002.5,-204.5 3002.5,-219.5 3206.5,-219.5 3206.5,-204.5 3002.5,-204.5"/>
<text text-anchor="start" x="3004.5" y="-209.5" font-family="DejaVu Sans" font-size="10.00" fill="#6666ff">http://purl.obolibrary.org/obo/SO_0001483</text>
</a>
</g>
<polygon fill="none" stroke="#666666" points="3001.5,-203.5 3001.5,-239.5 3207.5,-239.5 3207.5,-203.5 3001.5,-203.5"/>
</g>
<!-- node2&#45;&gt;node8 -->
<g id="edge5" class="edge"><title>node2&#45;&gt;node8</title>
<path fill="none" stroke="BLACK" d="M2960.38,-303.823C2994.53,-284.552 3030.7,-264.142 3058.26,-248.589"/>
<polygon fill="BLACK" stroke="BLACK" points="3060.28,-251.472 3067.27,-243.509 3056.84,-245.375 3060.28,-251.472"/>
<text text-anchor="start" x="3017.5" y="-275.8" font-family="Times,serif" font-size="14.00"> </text>
<text text-anchor="start" x="3021.5" y="-275.8" font-family="Times,serif" font-size="10.00" fill="#336633">rdf:type</text>
<text text-anchor="start" x="3054.5" y="-275.8" font-family="Times,serif" font-size="14.00"> </text>
</g>
<!-- node2&#45;&gt;node10 -->
<g id="edge8" class="edge"><title>node2&#45;&gt;node10</title>
<path fill="none" stroke="BLACK" d="M2692.36,-303.924C2637.25,-283.97 2578.74,-262.782 2535.22,-247.022"/>
<polygon fill="BLACK" stroke="BLACK" points="2536.21,-243.657 2525.61,-243.543 2533.82,-250.239 2536.21,-243.657"/>
<text text-anchor="start" x="2638.5" y="-275.8" font-family="Times,serif" font-size="14.00"> </text>
<text text-anchor="start" x="2642.5" y="-275.8" font-family="Times,serif" font-size="10.00" fill="#336633">OBO:GENO_0000841</text>
<text text-anchor="start" x="2738.5" y="-275.8" font-family="Times,serif" font-size="14.00"> </text>
</g>
<!-- node14 -->
<g id="node14" class="node"><title>node14</title>
<polygon fill="grey" stroke="none" points="3242.5,-219.5 3242.5,-238.5 3578.5,-238.5 3578.5,-219.5 3242.5,-219.5"/>
<text text-anchor="start" x="3244.5" y="-226.3" font-family="DejaVu Sans" font-weight="bold" font-size="14.00">https://www.ncbi.nlm.nih.gov/gene/3030</text>
<g id="a_node14_14"><a xlink:href="https://www.ncbi.nlm.nih.gov/gene/3030" xlink:title="&lt;TABLE&gt;">
<polygon fill="#eeeeee" stroke="none" points="3242.5,-204.5 3242.5,-219.5 3578.5,-219.5 3578.5,-204.5 3242.5,-204.5"/>
<text text-anchor="start" x="3316" y="-209.5" font-family="DejaVu Sans" font-size="10.00" fill="#6666ff">https://www.ncbi.nlm.nih.gov/gene/3030</text>
</a>
</g>
<polygon fill="none" stroke="#666666" points="3241.5,-203.5 3241.5,-239.5 3579.5,-239.5 3579.5,-203.5 3241.5,-203.5"/>
</g>
<!-- node2&#45;&gt;node14 -->
<g id="edge12" class="edge"><title>node2&#45;&gt;node14</title>
<path fill="none" stroke="BLACK" d="M3086.05,-304.636C3167.32,-284.061 3254.13,-262.084 3317.49,-246.046"/>
<polygon fill="BLACK" stroke="BLACK" points="3318.62,-249.371 3327.45,-243.524 3316.9,-242.585 3318.62,-249.371"/>
<text text-anchor="start" x="3215.5" y="-275.8" font-family="Times,serif" font-size="14.00"> </text>
<text text-anchor="start" x="3219.5" y="-275.8" font-family="Times,serif" font-size="10.00" fill="#336633">OBO:GENO_0000418</text>
<text text-anchor="start" x="3315.5" y="-275.8" font-family="Times,serif" font-size="14.00"> </text>
</g>
<!-- node15 -->
<g id="node15" class="node"><title>node15</title>
<polygon fill="grey" stroke="none" points="3615.5,-219.5 3615.5,-238.5 4178.5,-238.5 4178.5,-219.5 3615.5,-219.5"/>
<text text-anchor="start" x="3617.5" y="-226.3" font-family="DejaVu Sans" font-weight="bold" font-size="14.00">http://www.ncbi.nlm.nih.gov/projects/SNP/snp_ref.cgi?rs=794727219</text>
<g id="a_node15_15"><a xlink:href="http://www.ncbi.nlm.nih.gov/projects/SNP/snp_ref.cgi?rs=794727219" xlink:title="&lt;TABLE&gt;">
<polygon fill="#eeeeee" stroke="none" points="3615.5,-204.5 3615.5,-219.5 4178.5,-219.5 4178.5,-204.5 3615.5,-204.5"/>
<text text-anchor="start" x="3734.5" y="-209.5" font-family="DejaVu Sans" font-size="10.00" fill="#6666ff">http://www.ncbi.nlm.nih.gov/projects/SNP/snp_ref.cgi?rs=794727219</text>
</a>
</g>
<polygon fill="none" stroke="#666666" points="3614,-203.5 3614,-239.5 4179,-239.5 4179,-203.5 3614,-203.5"/>
</g>
<!-- node2&#45;&gt;node15 -->
<g id="edge14" class="edge"><title>node2&#45;&gt;node15</title>
<path fill="none" stroke="BLACK" d="M3086.23,-305.375C3089,-304.902 3091.76,-304.443 3094.5,-304 3195.28,-287.712 3221.86,-295.624 3323.5,-286 3452.75,-273.762 3598.12,-257.623 3710.1,-244.679"/>
<polygon fill="BLACK" stroke="BLACK" points="3710.62,-248.143 3720.15,-243.516 3709.81,-241.189 3710.62,-248.143"/>
<text text-anchor="start" x="3465.5" y="-275.8" font-family="Times,serif" font-size="14.00"> </text>
<text text-anchor="start" x="3469.5" y="-275.8" font-family="Times,serif" font-size="10.00" fill="#336633">owl:sameAs</text>
<text text-anchor="start" x="3520.5" y="-275.8" font-family="Times,serif" font-size="14.00"> </text>
</g>
<!-- node21 -->
<g id="node21" class="node"><title>node21</title>
<polygon fill="grey" stroke="none" points="4214.5,-219.5 4214.5,-238.5 4570.5,-238.5 4570.5,-219.5 4214.5,-219.5"/>
<text text-anchor="start" x="4216.5" y="-226.3" font-family="DejaVu Sans" font-weight="bold" font-size="14.00">https://www.ncbi.nlm.nih.gov/gene/150946</text>
<g id="a_node21_16"><a xlink:href="https://www.ncbi.nlm.nih.gov/gene/150946" xlink:title="&lt;TABLE&gt;">
<polygon fill="#eeeeee" stroke="none" points="4214.5,-204.5 4214.5,-219.5 4570.5,-219.5 4570.5,-204.5 4214.5,-204.5"/>
<text text-anchor="start" x="4292" y="-209.5" font-family="DejaVu Sans" font-size="10.00" fill="#6666ff">https://www.ncbi.nlm.nih.gov/gene/150946</text>
</a>
</g>
<polygon fill="none" stroke="#666666" points="4213.5,-203.5 4213.5,-239.5 4571.5,-239.5 4571.5,-203.5 4213.5,-203.5"/>
</g>
<!-- node2&#45;&gt;node21 -->
<g id="edge22" class="edge"><title>node2&#45;&gt;node21</title>
<path fill="none" stroke="BLACK" d="M3086.21,-305.23C3088.99,-304.803 3091.75,-304.392 3094.5,-304 3285.62,-276.729 3335.64,-294.77 3528.5,-286 3825,-272.517 3900.22,-283.08 4195.5,-253 4216.31,-250.88 4238.27,-248.062 4259.68,-244.993"/>
<polygon fill="BLACK" stroke="BLACK" points="4260.41,-248.423 4269.8,-243.518 4259.4,-241.496 4260.41,-248.423"/>
<text text-anchor="start" x="3965.5" y="-275.8" font-family="Times,serif" font-size="14.00"> </text>
<text text-anchor="start" x="3969.5" y="-275.8" font-family="Times,serif" font-size="10.00" fill="#336633">OBO:BFO_0000050</text>
<text text-anchor="start" x="4056.5" y="-275.8" font-family="Times,serif" font-size="14.00"> </text>
</g>
<!-- node4&#45;&gt;node1 -->
<g id="edge4" class="edge"><title>node4&#45;&gt;node1</title>
<path fill="none" stroke="BLACK" d="M1625.14,-332.939C1464.1,-306.1 1253.5,-271 1253.5,-271 966.728,-243.252 892.342,-280.009 605.5,-253 584.718,-251.043 562.758,-248.211 541.448,-245.05"/>
<polygon fill="BLACK" stroke="BLACK" points="541.791,-241.562 531.38,-243.526 540.743,-248.484 541.791,-241.562"/>
<text text-anchor="start" x="1334.5" y="-275.8" font-family="Times,serif" font-size="14.00"> </text>
<text text-anchor="start" x="1338.5" y="-275.8" font-family="Times,serif" font-size="10.00" fill="#336633">OBO:SEPIO_0000111</text>
<text text-anchor="start" x="1432.5" y="-275.8" font-family="Times,serif" font-size="14.00"> </text>
</g>
<!-- node4&#45;&gt;node5 -->
<g id="edge9" class="edge"><title>node4&#45;&gt;node5</title>
<path fill="none" stroke="BLACK" d="M1664.22,-322.968C1599.19,-305.451 1520.79,-285.609 1449.5,-271 1421.11,-265.183 1391.17,-259.732 1361.47,-254.737"/>
<polygon fill="BLACK" stroke="BLACK" points="1361.85,-251.252 1351.41,-253.061 1360.7,-258.157 1361.85,-251.252"/>
<text text-anchor="start" x="1508.5" y="-275.8" font-family="Times,serif" font-size="14.00"> </text>
<text text-anchor="start" x="1512.5" y="-275.8" font-family="Times,serif" font-size="10.00" fill="#336633">OBO:SEPIO_0000041</text>
<text text-anchor="start" x="1606.5" y="-275.8" font-family="Times,serif" font-size="14.00"> </text>
</g>
<!-- node9 -->
<g id="node9" class="node"><title>node9</title>
<polygon fill="grey" stroke="none" points="1675.5,-219.5 1675.5,-238.5 1936.5,-238.5 1936.5,-219.5 1675.5,-219.5"/>
<text text-anchor="start" x="1766.5" y="-226.3" font-family="DejaVu Sans" font-weight="bold" font-size="14.00">&quot;Counsyl&quot;</text>
<g id="a_node9_17"><a xlink:href="http://www.ncbi.nlm.nih.gov/clinvar/submitters/320494" xlink:title="&lt;TABLE&gt;">
<polygon fill="#eeeeee" stroke="none" points="1675.5,-204.5 1675.5,-219.5 1936.5,-219.5 1936.5,-204.5 1675.5,-204.5"/>
<text text-anchor="start" x="1677.5" y="-209.5" font-family="DejaVu Sans" font-size="10.00" fill="#6666ff">http://www.ncbi.nlm.nih.gov/clinvar/submitters/320494</text>
</a>
</g>
<polygon fill="none" stroke="#666666" points="1674,-203.5 1674,-239.5 1937,-239.5 1937,-203.5 1674,-203.5"/>
</g>
<!-- node4&#45;&gt;node9 -->
<g id="edge6" class="edge"><title>node4&#45;&gt;node9</title>
<path fill="none" stroke="BLACK" d="M1805.5,-322.738C1805.5,-300.88 1805.5,-274.254 1805.5,-253.939"/>
<polygon fill="BLACK" stroke="BLACK" points="1809,-253.661 1805.5,-243.661 1802,-253.661 1809,-253.661"/>
<text text-anchor="start" x="1805.5" y="-275.8" font-family="Times,serif" font-size="14.00"> </text>
<text text-anchor="start" x="1809.5" y="-275.8" font-family="Times,serif" font-size="10.00" fill="#336633">OBO:SEPIO_0000018</text>
<text text-anchor="start" x="1903.5" y="-275.8" font-family="Times,serif" font-size="14.00"> </text>
</g>
<!-- node13 -->
<g id="node13" class="node"><title>node13</title>
<polygon fill="grey" stroke="none" points="1972.5,-219.5 1972.5,-238.5 2190.5,-238.5 2190.5,-219.5 1972.5,-219.5"/>
<text text-anchor="start" x="2019.5" y="-226.3" font-family="DejaVu Sans" font-weight="bold" font-size="14.00">SEPIO_0000001</text>
<g id="a_node13_18"><a xlink:href="http://purl.obolibrary.org/obo/SEPIO_0000001" xlink:title="&lt;TABLE&gt;">
<polygon fill="#eeeeee" stroke="none" points="1972.5,-204.5 1972.5,-219.5 2190.5,-219.5 2190.5,-204.5 1972.5,-204.5"/>
<text text-anchor="start" x="1974.5" y="-209.5" font-family="DejaVu Sans" font-size="10.00" fill="#6666ff">http://purl.obolibrary.org/obo/SEPIO_0000001</text>
</a>
</g>
<polygon fill="none" stroke="#666666" points="1971.5,-203.5 1971.5,-239.5 2191.5,-239.5 2191.5,-203.5 1971.5,-203.5"/>
</g>
<!-- node4&#45;&gt;node13 -->
<g id="edge11" class="edge"><title>node4&#45;&gt;node13</title>
<path fill="none" stroke="BLACK" d="M1884.22,-322.926C1931.47,-298.872 1990.18,-268.989 2031.21,-248.101"/>
<polygon fill="BLACK" stroke="BLACK" points="2032.88,-251.178 2040.2,-243.522 2029.7,-244.94 2032.88,-251.178"/>
<text text-anchor="start" x="1984.5" y="-275.8" font-family="Times,serif" font-size="14.00"> </text>
<text text-anchor="start" x="1988.5" y="-275.8" font-family="Times,serif" font-size="10.00" fill="#336633">rdf:type</text>
<text text-anchor="start" x="2021.5" y="-275.8" font-family="Times,serif" font-size="14.00"> </text>
</g>
<!-- node19 -->
<g id="node19" class="node"><title>node19</title>
<polygon fill="grey" stroke="none" points="1712.5,-115 1712.5,-134 1899.5,-134 1899.5,-115 1712.5,-115"/>
<text text-anchor="start" x="1754.5" y="-121.8" font-family="DejaVu Sans" font-weight="bold" font-size="14.00">organization</text>
<g id="a_node19_19"><a xlink:href="http://xmlns.com/foaf/0.1/organization" xlink:title="&lt;TABLE&gt;">
<polygon fill="#eeeeee" stroke="none" points="1712.5,-100 1712.5,-115 1899.5,-115 1899.5,-100 1712.5,-100"/>
<text text-anchor="start" x="1714.5" y="-105" font-family="DejaVu Sans" font-size="10.00" fill="#6666ff">http://xmlns.com/foaf/0.1/organization</text>
</a>
</g>
<polygon fill="none" stroke="#666666" points="1711,-99 1711,-135 1900,-135 1900,-99 1711,-99"/>
</g>
<!-- node9&#45;&gt;node19 -->
<g id="edge19" class="edge"><title>node9&#45;&gt;node19</title>
<path fill="none" stroke="BLACK" d="M1805.5,-199.262C1805.5,-184.831 1805.5,-165.499 1805.5,-149.311"/>
<polygon fill="BLACK" stroke="BLACK" points="1809,-149.211 1805.5,-139.211 1802,-149.211 1809,-149.211"/>
<text text-anchor="start" x="1805.5" y="-161.8" font-family="Times,serif" font-size="14.00"> </text>
<text text-anchor="start" x="1809.5" y="-161.8" font-family="Times,serif" font-size="10.00" fill="#336633">rdf:type</text>
<text text-anchor="start" x="1842.5" y="-161.8" font-family="Times,serif" font-size="14.00"> </text>
</g>
<!-- node12 -->
<g id="node12" class="node"><title>node12</title>
<polygon fill="grey" stroke="none" points="72.5,-20 72.5,-39 290.5,-39 290.5,-20 72.5,-20"/>
<text text-anchor="start" x="119.5" y="-26.8" font-family="DejaVu Sans" font-weight="bold" font-size="14.00">SEPIO_0000067</text>
<g id="a_node12_20"><a xlink:href="http://purl.obolibrary.org/obo/SEPIO_0000067" xlink:title="&lt;TABLE&gt;">
<polygon fill="#eeeeee" stroke="none" points="72.5,-5 72.5,-20 290.5,-20 290.5,-5 72.5,-5"/>
<text text-anchor="start" x="74.5" y="-10" font-family="DejaVu Sans" font-size="10.00" fill="#6666ff">http://purl.obolibrary.org/obo/SEPIO_0000067</text>
</a>
</g>
<polygon fill="none" stroke="#666666" points="71.5,-4 71.5,-40 291.5,-40 291.5,-4 71.5,-4"/>
</g>
<!-- node11&#45;&gt;node12 -->
<g id="edge10" class="edge"><title>node11&#45;&gt;node12</title>
<path fill="none" stroke="BLACK" d="M181.5,-94.8969C181.5,-82.8873 181.5,-67.6175 181.5,-54.242"/>
<polygon fill="BLACK" stroke="BLACK" points="185,-54.0196 181.5,-44.0196 178,-54.0197 185,-54.0196"/>
<text text-anchor="start" x="181.5" y="-66.8" font-family="Times,serif" font-size="14.00"> </text>
<text text-anchor="start" x="185.5" y="-66.8" font-family="Times,serif" font-size="10.00" fill="#336633">rdf:type</text>
<text text-anchor="start" x="218.5" y="-66.8" font-family="Times,serif" font-size="14.00"> </text>
</g>
<!-- node3 -->
<g id="node22" class="node"><title>node3</title>
<polygon fill="grey" stroke="none" points="3802.5,-513.5 3802.5,-532.5 4068.5,-532.5 4068.5,-513.5 3802.5,-513.5"/>
<text text-anchor="start" x="3863.5" y="-520.3" font-family="DejaVu Sans" font-weight="bold" font-size="14.00">RCV000175394.nt</text>
<g id="a_node22_21"><a xlink:href="https://data.monarchinitiative.org/ttl/RCV000175394.nt" xlink:title="&lt;TABLE&gt;">
<polygon fill="#eeeeee" stroke="none" points="3802.5,-498.5 3802.5,-513.5 4068.5,-513.5 4068.5,-498.5 3802.5,-498.5"/>
<text text-anchor="start" x="3804.5" y="-503.5" font-family="DejaVu Sans" font-size="10.00" fill="#6666ff">https://data.monarchinitiative.org/ttl/RCV000175394.nt</text>
</a>
</g>
<text text-anchor="start" x="3804.5" y="-485.3" font-family="DejaVu Sans" font-size="14.00">owl:versionInfo</text>
<text text-anchor="start" x="3942.5" y="-485.3" font-family="DejaVu Sans" font-size="14.00">&quot;2019&#45;06&#45;03&quot;</text>
<polygon fill="none" stroke="#666666" points="3801.5,-479 3801.5,-534 4069.5,-534 4069.5,-479 3801.5,-479"/>
</g>
<!-- node22 -->
<g id="node23" class="node"><title>node22</title>
<polygon fill="grey" stroke="none" points="3836.5,-362 3836.5,-381 4034.5,-381 4034.5,-362 3836.5,-362"/>
<text text-anchor="start" x="3898.5" y="-368.8" font-family="DejaVu Sans" font-weight="bold" font-size="14.00">Ontology</text>
<g id="a_node23_22"><a xlink:href="http://www.w3.org/2002/07/owl#Ontology" xlink:title="&lt;TABLE&gt;">
<polygon fill="#eeeeee" stroke="none" points="3836.5,-347 3836.5,-362 4034.5,-362 4034.5,-347 3836.5,-347"/>
<text text-anchor="start" x="3838.5" y="-352" font-family="DejaVu Sans" font-size="10.00" fill="#6666ff">http://www.w3.org/2002/07/owl#Ontology</text>
</a>
</g>
<polygon fill="none" stroke="#666666" points="3835.5,-346 3835.5,-382 4035.5,-382 4035.5,-346 3835.5,-346"/>
</g>
<!-- node3&#45;&gt;node22 -->
<g id="edge23" class="edge"><title>node3&#45;&gt;node22</title>
<path fill="none" stroke="BLACK" d="M3935.5,-474.667C3935.5,-451.41 3935.5,-419.632 3935.5,-396.27"/>
<polygon fill="BLACK" stroke="BLACK" points="3939,-396.189 3935.5,-386.189 3932,-396.189 3939,-396.189"/>
<text text-anchor="start" x="3935.5" y="-446.8" font-family="Times,serif" font-size="14.00"> </text>
<text text-anchor="start" x="3939.5" y="-446.8" font-family="Times,serif" font-size="10.00" fill="#336633">rdf:type</text>
<text text-anchor="start" x="3972.5" y="-446.8" font-family="Times,serif" font-size="14.00"> </text>
</g>
</g>
</svg>
