<?xml version="1.0" encoding="UTF-8" standalone="no"?>
<!DOCTYPE svg PUBLIC "-//W3C//DTD SVG 1.1//EN"
 "http://www.w3.org/Graphics/SVG/1.1/DTD/svg11.dtd">
<!-- Generated by graphviz version 2.38.0 (20140413.2041)
 -->
<!-- Title: %3 Pages: 1 -->
<svg width="4352pt" height="546pt"
 viewBox="0.00 0.00 4351.50 546.00" xmlns="http://www.w3.org/2000/svg" xmlns:xlink="http://www.w3.org/1999/xlink">
<g id="graph0" class="graph" transform="scale(1 1) rotate(0) translate(4 542)">
<title>%3</title>
<polygon fill="white" stroke="none" points="-4,4 -4,-542 4347.5,-542 4347.5,4 -4,4"/>
<!-- node0 -->
<g id="node1" class="node"><title>node0</title>
<polygon fill="grey" stroke="none" points="1074,-400 1074,-419 1517,-419 1517,-400 1074,-400"/>
<text text-anchor="start" x="1140.5" y="-406.8" font-family="DejaVu Sans" font-weight="bold" font-size="14.00">&quot;NM_000182.4(HADHA):c.2146+1G&gt;A&quot;</text>
<g id="a_node1_0"><a xlink:href="http://www.ncbi.nlm.nih.gov/clinvar/variation/194917" xlink:title="&lt;TABLE&gt;">
<polygon fill="#eeeeee" stroke="none" points="1074,-385 1074,-400 1517,-400 1517,-385 1074,-385"/>
<text text-anchor="start" x="1172" y="-390" font-family="DejaVu Sans" font-size="10.00" fill="#6666ff">http://www.ncbi.nlm.nih.gov/clinvar/variation/194917</text>
</a>
</g>
<text text-anchor="start" x="1076" y="-371.8" font-family="DejaVu Sans" font-size="14.00">oboInOwl:hasExactSynonym</text>
<text text-anchor="start" x="1278" y="-371.8" font-family="DejaVu Sans" font-size="14.00">&quot;NC_000002.11:g.26414351C&gt;T&quot;</text>
<text text-anchor="start" x="1076" y="-352.8" font-family="DejaVu Sans" font-size="14.00">oboInOwl:hasExactSynonym</text>
<text text-anchor="start" x="1278" y="-352.8" font-family="DejaVu Sans" font-size="14.00">&quot;NC_000002.12:g.26191482C&gt;T&quot;</text>
<text text-anchor="start" x="1076" y="-333.8" font-family="DejaVu Sans" font-size="14.00">oboInOwl:hasExactSynonym</text>
<text text-anchor="start" x="1278" y="-333.8" font-family="DejaVu Sans" font-size="14.00">&quot;NG_007121.1:g.58139G&gt;A&quot;</text>
<text text-anchor="start" x="1076" y="-314.8" font-family="DejaVu Sans" font-size="14.00">oboInOwl:hasExactSynonym</text>
<text text-anchor="start" x="1278" y="-314.8" font-family="DejaVu Sans" font-size="14.00">&quot;NM_000182.4:c.2146+1G&gt;A&quot;</text>
<polygon fill="none" stroke="#666666" points="1072.5,-308 1072.5,-420 1517.5,-420 1517.5,-308 1072.5,-308"/>
</g>
<!-- node1 -->
<g id="node2" class="node"><title>node1</title>
<polygon fill="grey" stroke="none" points="9,-219.5 9,-238.5 365,-238.5 365,-219.5 9,-219.5"/>
<text text-anchor="start" x="11" y="-226.3" font-family="DejaVu Sans" font-weight="bold" font-size="14.00">https://www.ncbi.nlm.nih.gov/gene/150946</text>
<g id="a_node2_1"><a xlink:href="https://www.ncbi.nlm.nih.gov/gene/150946" xlink:title="&lt;TABLE&gt;">
<polygon fill="#eeeeee" stroke="none" points="9,-204.5 9,-219.5 365,-219.5 365,-204.5 9,-204.5"/>
<text text-anchor="start" x="86.5" y="-209.5" font-family="DejaVu Sans" font-size="10.00" fill="#6666ff">https://www.ncbi.nlm.nih.gov/gene/150946</text>
</a>
</g>
<polygon fill="none" stroke="#666666" points="8,-203.5 8,-239.5 366,-239.5 366,-203.5 8,-203.5"/>
</g>
<!-- node0&#45;&gt;node1 -->
<g id="edge1" class="edge"><title>node0&#45;&gt;node1</title>
<path fill="none" stroke="BLACK" d="M1064.25,-338.525C932.533,-324.14 764.378,-305.077 615,-286 511.69,-272.806 486.013,-268.341 383,-253 366.129,-250.488 348.45,-247.806 330.907,-245.114"/>
<polygon fill="BLACK" stroke="BLACK" points="331.016,-241.59 320.6,-243.529 329.952,-248.508 331.016,-241.59"/>
<text text-anchor="start" x="615" y="-275.8" font-family="Times,serif" font-size="14.00"> </text>
<text text-anchor="start" x="619" y="-275.8" font-family="Times,serif" font-size="10.00" fill="#336633">OBO:BFO_0000050</text>
<text text-anchor="start" x="706" y="-275.8" font-family="Times,serif" font-size="14.00"> </text>
</g>
<!-- node4 -->
<g id="node5" class="node"><title>node4</title>
<polygon fill="grey" stroke="none" points="401,-219.5 401,-238.5 605,-238.5 605,-219.5 401,-219.5"/>
<text text-anchor="start" x="453.5" y="-226.3" font-family="DejaVu Sans" font-weight="bold" font-size="14.00">SO_0001483</text>
<g id="a_node5_2"><a xlink:href="http://purl.obolibrary.org/obo/SO_0001483" xlink:title="&lt;TABLE&gt;">
<polygon fill="#eeeeee" stroke="none" points="401,-204.5 401,-219.5 605,-219.5 605,-204.5 401,-204.5"/>
<text text-anchor="start" x="403" y="-209.5" font-family="DejaVu Sans" font-size="10.00" fill="#6666ff">http://purl.obolibrary.org/obo/SO_0001483</text>
</a>
</g>
<polygon fill="none" stroke="#666666" points="400,-203.5 400,-239.5 606,-239.5 606,-203.5 400,-203.5"/>
</g>
<!-- node0&#45;&gt;node4 -->
<g id="edge3" class="edge"><title>node0&#45;&gt;node4</title>
<path fill="none" stroke="BLACK" d="M1064.32,-330.293C934.217,-310.583 768.965,-283.436 623,-253 612.874,-250.888 602.314,-248.493 591.843,-245.995"/>
<polygon fill="BLACK" stroke="BLACK" points="592.389,-242.526 581.846,-243.575 590.742,-249.33 592.389,-242.526"/>
<text text-anchor="start" x="789" y="-275.8" font-family="Times,serif" font-size="14.00"> </text>
<text text-anchor="start" x="793" y="-275.8" font-family="Times,serif" font-size="10.00" fill="#336633">rdf:type</text>
<text text-anchor="start" x="826" y="-275.8" font-family="Times,serif" font-size="14.00"> </text>
</g>
<!-- node5 -->
<g id="node6" class="node"><title>node5</title>
<polygon fill="grey" stroke="none" points="641,-219.5 641,-238.5 977,-238.5 977,-219.5 641,-219.5"/>
<text text-anchor="start" x="643" y="-226.3" font-family="DejaVu Sans" font-weight="bold" font-size="14.00">https://www.ncbi.nlm.nih.gov/gene/3030</text>
<g id="a_node6_3"><a xlink:href="https://www.ncbi.nlm.nih.gov/gene/3030" xlink:title="&lt;TABLE&gt;">
<polygon fill="#eeeeee" stroke="none" points="641,-204.5 641,-219.5 977,-219.5 977,-204.5 641,-204.5"/>
<text text-anchor="start" x="714.5" y="-209.5" font-family="DejaVu Sans" font-size="10.00" fill="#6666ff">https://www.ncbi.nlm.nih.gov/gene/3030</text>
</a>
</g>
<polygon fill="none" stroke="#666666" points="640,-203.5 640,-239.5 978,-239.5 978,-203.5 640,-203.5"/>
</g>
<!-- node0&#45;&gt;node5 -->
<g id="edge4" class="edge"><title>node0&#45;&gt;node5</title>
<path fill="none" stroke="BLACK" d="M1090.65,-303.924C1020.62,-283.677 946.181,-262.158 891.432,-246.331"/>
<polygon fill="BLACK" stroke="BLACK" points="892.368,-242.958 881.789,-243.543 890.423,-249.682 892.368,-242.958"/>
<text text-anchor="start" x="1023" y="-275.8" font-family="Times,serif" font-size="14.00"> </text>
<text text-anchor="start" x="1027" y="-275.8" font-family="Times,serif" font-size="10.00" fill="#336633">OBO:GENO_0000418</text>
<text text-anchor="start" x="1123" y="-275.8" font-family="Times,serif" font-size="14.00"> </text>
</g>
<!-- node14 -->
<g id="node14" class="node"><title>node14</title>
<polygon fill="grey" stroke="none" points="1014,-219.5 1014,-238.5 1577,-238.5 1577,-219.5 1014,-219.5"/>
<text text-anchor="start" x="1016" y="-226.3" font-family="DejaVu Sans" font-weight="bold" font-size="14.00">http://www.ncbi.nlm.nih.gov/projects/SNP/snp_ref.cgi?rs=794727219</text>
<g id="a_node14_4"><a xlink:href="http://www.ncbi.nlm.nih.gov/projects/SNP/snp_ref.cgi?rs=794727219" xlink:title="&lt;TABLE&gt;">
<polygon fill="#eeeeee" stroke="none" points="1014,-204.5 1014,-219.5 1577,-219.5 1577,-204.5 1014,-204.5"/>
<text text-anchor="start" x="1133" y="-209.5" font-family="DejaVu Sans" font-size="10.00" fill="#6666ff">http://www.ncbi.nlm.nih.gov/projects/SNP/snp_ref.cgi?rs=794727219</text>
</a>
</g>
<polygon fill="none" stroke="#666666" points="1012.5,-203.5 1012.5,-239.5 1577.5,-239.5 1577.5,-203.5 1012.5,-203.5"/>
</g>
<!-- node0&#45;&gt;node14 -->
<g id="edge11" class="edge"><title>node0&#45;&gt;node14</title>
<path fill="none" stroke="BLACK" d="M1295,-303.823C1295,-286.563 1295,-268.389 1295,-253.609"/>
<polygon fill="BLACK" stroke="BLACK" points="1298.5,-253.509 1295,-243.509 1291.5,-253.509 1298.5,-253.509"/>
<text text-anchor="start" x="1295" y="-275.8" font-family="Times,serif" font-size="14.00"> </text>
<text text-anchor="start" x="1299" y="-275.8" font-family="Times,serif" font-size="10.00" fill="#336633">owl:sameAs</text>
<text text-anchor="start" x="1350" y="-275.8" font-family="Times,serif" font-size="14.00"> </text>
</g>
<!-- node16 -->
<g id="node16" class="node"><title>node16</title>
<polygon fill="grey" stroke="none" points="1613,-219.5 1613,-238.5 1835,-238.5 1835,-219.5 1613,-219.5"/>
<text text-anchor="start" x="1657.5" y="-226.3" font-family="DejaVu Sans" font-weight="bold" font-size="14.00">NCBITaxon_9606</text>
<g id="a_node16_5"><a xlink:href="http://purl.obolibrary.org/obo/NCBITaxon_9606" xlink:title="&lt;TABLE&gt;">
<polygon fill="#eeeeee" stroke="none" points="1613,-204.5 1613,-219.5 1835,-219.5 1835,-204.5 1613,-204.5"/>
<text text-anchor="start" x="1615" y="-209.5" font-family="DejaVu Sans" font-size="10.00" fill="#6666ff">http://purl.obolibrary.org/obo/NCBITaxon_9606</text>
</a>
</g>
<polygon fill="none" stroke="#666666" points="1612,-203.5 1612,-239.5 1836,-239.5 1836,-203.5 1612,-203.5"/>
</g>
<!-- node0&#45;&gt;node16 -->
<g id="edge13" class="edge"><title>node0&#45;&gt;node16</title>
<path fill="none" stroke="BLACK" d="M1475.38,-303.924C1536.69,-283.845 1601.82,-262.515 1650.03,-246.725"/>
<polygon fill="BLACK" stroke="BLACK" points="1651.33,-249.981 1659.75,-243.543 1649.16,-243.329 1651.33,-249.981"/>
<text text-anchor="start" x="1573" y="-275.8" font-family="Times,serif" font-size="14.00"> </text>
<text text-anchor="start" x="1577" y="-275.8" font-family="Times,serif" font-size="10.00" fill="#336633">OBO:RO_0002162</text>
<text text-anchor="start" x="1659" y="-275.8" font-family="Times,serif" font-size="14.00"> </text>
</g>
<!-- node10 -->
<g id="node20" class="node"><title>node10</title>
<polygon fill="grey" stroke="none" points="1871,-219.5 1871,-238.5 2353,-238.5 2353,-219.5 1871,-219.5"/>
<text text-anchor="start" x="1873" y="-226.3" font-family="DejaVu Sans" font-weight="bold" font-size="14.00">&quot;Long&#45;chain 3&#45;hydroxyacyl&#45;CoA dehydrogenase deficiency&quot;</text>
<g id="a_node20_6"><a xlink:href="http://omim.org/entry/609016" xlink:title="&lt;TABLE&gt;">
<polygon fill="#eeeeee" stroke="none" points="1871,-204.5 1871,-219.5 2353,-219.5 2353,-204.5 1871,-204.5"/>
<text text-anchor="start" x="2041" y="-209.5" font-family="DejaVu Sans" font-size="10.00" fill="#6666ff">http://omim.org/entry/609016</text>
</a>
</g>
<polygon fill="none" stroke="#666666" points="1870,-203.5 1870,-239.5 2354,-239.5 2354,-203.5 1870,-203.5"/>
</g>
<!-- node0&#45;&gt;node10 -->
<g id="edge20" class="edge"><title>node0&#45;&gt;node10</title>
<path fill="none" stroke="BLACK" d="M1525.57,-323.349C1672.33,-298.11 1857.18,-266.322 1979.69,-245.254"/>
<polygon fill="BLACK" stroke="BLACK" points="1980.61,-248.647 1989.87,-243.503 1979.42,-241.748 1980.61,-248.647"/>
<text text-anchor="start" x="1825" y="-275.8" font-family="Times,serif" font-size="14.00"> </text>
<text text-anchor="start" x="1829" y="-275.8" font-family="Times,serif" font-size="10.00" fill="#336633">OBO:GENO_0000841</text>
<text text-anchor="start" x="1925" y="-275.8" font-family="Times,serif" font-size="14.00"> </text>
</g>
<!-- node2 -->
<g id="node3" class="node"><title>node2</title>
<polygon fill="grey" stroke="none" points="2689,-381 2689,-400 3031,-400 3031,-381 2689,-381"/>
<text text-anchor="start" x="2716.5" y="-387.8" font-family="DejaVu Sans" font-weight="bold" font-size="14.00">&quot;b0c2b8f4b93e10f01eba_assertion&quot;</text>
<g id="a_node3_7"><a xlink:href="https://monarchinitiative.org/.well-known/genid/b13b11feeac6001ef4e1" xlink:title="&lt;TABLE&gt;">
<polygon fill="#eeeeee" stroke="none" points="2689,-366 2689,-381 3031,-381 3031,-366 2689,-366"/>
<text text-anchor="start" x="2691" y="-371" font-family="DejaVu Sans" font-size="10.00" fill="#6666ff">https://monarchinitiative.org/.well&#45;known/genid/b13b11feeac6001ef4e1</text>
</a>
</g>
<text text-anchor="start" x="2691" y="-352.8" font-family="DejaVu Sans" font-size="14.00">OBO:SEPIO_0000021</text>
<text text-anchor="start" x="2869" y="-352.8" font-family="DejaVu Sans" font-size="14.00">&quot;2017&#45;04&#45;04&quot;</text>
<text text-anchor="start" x="2691" y="-333.8" font-family="DejaVu Sans" font-size="14.00">dc:identifier</text>
<text text-anchor="start" x="2869" y="-333.8" font-family="DejaVu Sans" font-size="14.00">&quot;SCV000790664.1&quot;</text>
<polygon fill="none" stroke="#666666" points="2688,-327 2688,-401 3032,-401 3032,-327 2688,-327"/>
</g>
<!-- node3 -->
<g id="node4" class="node"><title>node3</title>
<polygon fill="grey" stroke="none" points="3023,-219.5 3023,-238.5 3284,-238.5 3284,-219.5 3023,-219.5"/>
<text text-anchor="start" x="3114" y="-226.3" font-family="DejaVu Sans" font-weight="bold" font-size="14.00">&quot;Counsyl&quot;</text>
<g id="a_node4_8"><a xlink:href="http://www.ncbi.nlm.nih.gov/clinvar/submitters/320494" xlink:title="&lt;TABLE&gt;">
<polygon fill="#eeeeee" stroke="none" points="3023,-204.5 3023,-219.5 3284,-219.5 3284,-204.5 3023,-204.5"/>
<text text-anchor="start" x="3025" y="-209.5" font-family="DejaVu Sans" font-size="10.00" fill="#6666ff">http://www.ncbi.nlm.nih.gov/clinvar/submitters/320494</text>
</a>
</g>
<polygon fill="none" stroke="#666666" points="3021.5,-203.5 3021.5,-239.5 3284.5,-239.5 3284.5,-203.5 3021.5,-203.5"/>
</g>
<!-- node2&#45;&gt;node3 -->
<g id="edge2" class="edge"><title>node2&#45;&gt;node3</title>
<path fill="none" stroke="BLACK" d="M2943.57,-322.926C2993.84,-298.821 3056.31,-268.863 3099.89,-247.969"/>
<polygon fill="BLACK" stroke="BLACK" points="3101.66,-251.002 3109.16,-243.522 3098.63,-244.69 3101.66,-251.002"/>
<text text-anchor="start" x="3050" y="-275.8" font-family="Times,serif" font-size="14.00"> </text>
<text text-anchor="start" x="3054" y="-275.8" font-family="Times,serif" font-size="10.00" fill="#336633">OBO:SEPIO_0000018</text>
<text text-anchor="start" x="3148" y="-275.8" font-family="Times,serif" font-size="14.00"> </text>
</g>
<!-- node6 -->
<g id="node7" class="node"><title>node6</title>
<polygon fill="grey" stroke="none" points="2389,-219.5 2389,-238.5 2732,-238.5 2732,-219.5 2389,-219.5"/>
<text text-anchor="start" x="2418" y="-226.3" font-family="DejaVu Sans" font-weight="bold" font-size="14.00">&quot;b0c2b8f4b93e10f01eba_evidence&quot;</text>
<g id="a_node7_9"><a xlink:href="https://monarchinitiative.org/.well-known/genid/bec67224cccaa828d90f" xlink:title="&lt;TABLE&gt;">
<polygon fill="#eeeeee" stroke="none" points="2389,-204.5 2389,-219.5 2732,-219.5 2732,-204.5 2389,-204.5"/>
<text text-anchor="start" x="2391" y="-209.5" font-family="DejaVu Sans" font-size="10.00" fill="#6666ff">https://monarchinitiative.org/.well&#45;known/genid/bec67224cccaa828d90f</text>
</a>
</g>
<polygon fill="none" stroke="#666666" points="2387.5,-203.5 2387.5,-239.5 2732.5,-239.5 2732.5,-203.5 2387.5,-203.5"/>
</g>
<!-- node2&#45;&gt;node6 -->
<g id="edge5" class="edge"><title>node2&#45;&gt;node6</title>
<path fill="none" stroke="BLACK" d="M2774.43,-322.926C2722.86,-298.771 2658.73,-268.738 2614.1,-247.838"/>
<polygon fill="BLACK" stroke="BLACK" points="2615.43,-244.594 2604.89,-243.522 2612.46,-250.933 2615.43,-244.594"/>
<text text-anchor="start" x="2693" y="-275.8" font-family="Times,serif" font-size="14.00"> </text>
<text text-anchor="start" x="2697" y="-275.8" font-family="Times,serif" font-size="10.00" fill="#336633">OBO:SEPIO_0000111</text>
<text text-anchor="start" x="2791" y="-275.8" font-family="Times,serif" font-size="14.00"> </text>
</g>
<!-- node9 -->
<g id="node9" class="node"><title>node9</title>
<polygon fill="grey" stroke="none" points="3320,-228.5 3320,-247.5 4335,-247.5 4335,-228.5 3320,-228.5"/>
<text text-anchor="start" x="3525.5" y="-235.3" font-family="DejaVu Sans" font-weight="bold" font-size="14.00">&quot;Counsyl Autosomal Recessive and X&#45;Linked Classification Criteria (2018)&quot;</text>
<g id="a_node9_10"><a xlink:href="https://monarchinitiative.org/.well-known/genid/bc99926ac85cd459a025" xlink:title="&lt;TABLE&gt;">
<polygon fill="#eeeeee" stroke="none" points="3320,-213.5 3320,-228.5 4335,-228.5 4335,-213.5 3320,-213.5"/>
<text text-anchor="start" x="3656" y="-218.5" font-family="DejaVu Sans" font-size="10.00" fill="#6666ff">https://monarchinitiative.org/.well&#45;known/genid/bc99926ac85cd459a025</text>
</a>
</g>
<text text-anchor="start" x="3322" y="-200.3" font-family="DejaVu Sans" font-size="14.00">OBO:ERO_0000480</text>
<text text-anchor="start" x="3464" y="-200.3" font-family="DejaVu Sans" font-size="14.00">&quot;https://submit.ncbi.nlm.nih.gov/ft/byid/3ys2zqtz/counsyl_autosomal_recessive_and_x&#45;linked_classification_criteria_2018_.pdf&quot;</text>
<polygon fill="none" stroke="#666666" points="3318.5,-194 3318.5,-249 4335.5,-249 4335.5,-194 3318.5,-194"/>
</g>
<!-- node2&#45;&gt;node9 -->
<g id="edge7" class="edge"><title>node2&#45;&gt;node9</title>
<path fill="none" stroke="BLACK" d="M2975.5,-322.975C2999.56,-315.761 3024.93,-308.967 3049,-304 3127.37,-287.829 3298.45,-269.276 3460.28,-253.96"/>
<polygon fill="BLACK" stroke="BLACK" points="3460.8,-257.427 3470.43,-253.003 3460.15,-250.458 3460.8,-257.427"/>
<text text-anchor="start" x="3272" y="-275.8" font-family="Times,serif" font-size="14.00"> </text>
<text text-anchor="start" x="3276" y="-275.8" font-family="Times,serif" font-size="10.00" fill="#336633">OBO:SEPIO_0000041</text>
<text text-anchor="start" x="3370" y="-275.8" font-family="Times,serif" font-size="14.00"> </text>
</g>
<!-- node18 -->
<g id="node18" class="node"><title>node18</title>
<polygon fill="grey" stroke="none" points="2768,-219.5 2768,-238.5 2986,-238.5 2986,-219.5 2768,-219.5"/>
<text text-anchor="start" x="2815" y="-226.3" font-family="DejaVu Sans" font-weight="bold" font-size="14.00">SEPIO_0000001</text>
<g id="a_node18_11"><a xlink:href="http://purl.obolibrary.org/obo/SEPIO_0000001" xlink:title="&lt;TABLE&gt;">
<polygon fill="#eeeeee" stroke="none" points="2768,-204.5 2768,-219.5 2986,-219.5 2986,-204.5 2768,-204.5"/>
<text text-anchor="start" x="2770" y="-209.5" font-family="DejaVu Sans" font-size="10.00" fill="#6666ff">http://purl.obolibrary.org/obo/SEPIO_0000001</text>
</a>
</g>
<polygon fill="none" stroke="#666666" points="2767,-203.5 2767,-239.5 2987,-239.5 2987,-203.5 2767,-203.5"/>
</g>
<!-- node2&#45;&gt;node18 -->
<g id="edge15" class="edge"><title>node2&#45;&gt;node18</title>
<path fill="none" stroke="BLACK" d="M2864.87,-322.738C2867.53,-300.78 2870.77,-274.009 2873.23,-253.659"/>
<polygon fill="BLACK" stroke="BLACK" points="2876.71,-254.009 2874.44,-243.661 2869.76,-253.169 2876.71,-254.009"/>
<text text-anchor="start" x="2872" y="-275.8" font-family="Times,serif" font-size="14.00"> </text>
<text text-anchor="start" x="2876" y="-275.8" font-family="Times,serif" font-size="10.00" fill="#336633">rdf:type</text>
<text text-anchor="start" x="2909" y="-275.8" font-family="Times,serif" font-size="14.00"> </text>
</g>
<!-- node17 -->
<g id="node17" class="node"><title>node17</title>
<polygon fill="grey" stroke="none" points="3060,-115 3060,-134 3247,-134 3247,-115 3060,-115"/>
<text text-anchor="start" x="3102" y="-121.8" font-family="DejaVu Sans" font-weight="bold" font-size="14.00">organization</text>
<g id="a_node17_12"><a xlink:href="http://xmlns.com/foaf/0.1/organization" xlink:title="&lt;TABLE&gt;">
<polygon fill="#eeeeee" stroke="none" points="3060,-100 3060,-115 3247,-115 3247,-100 3060,-100"/>
<text text-anchor="start" x="3062" y="-105" font-family="DejaVu Sans" font-size="10.00" fill="#6666ff">http://xmlns.com/foaf/0.1/organization</text>
</a>
</g>
<polygon fill="none" stroke="#666666" points="3058.5,-99 3058.5,-135 3247.5,-135 3247.5,-99 3058.5,-99"/>
</g>
<!-- node3&#45;&gt;node17 -->
<g id="edge14" class="edge"><title>node3&#45;&gt;node17</title>
<path fill="none" stroke="BLACK" d="M3153,-199.262C3153,-184.831 3153,-165.499 3153,-149.311"/>
<polygon fill="BLACK" stroke="BLACK" points="3156.5,-149.211 3153,-139.211 3149.5,-149.211 3156.5,-149.211"/>
<text text-anchor="start" x="3153" y="-161.8" font-family="Times,serif" font-size="14.00"> </text>
<text text-anchor="start" x="3157" y="-161.8" font-family="Times,serif" font-size="10.00" fill="#336633">rdf:type</text>
<text text-anchor="start" x="3190" y="-161.8" font-family="Times,serif" font-size="14.00"> </text>
</g>
<!-- node11 -->
<g id="node10" class="node"><title>node11</title>
<polygon fill="grey" stroke="none" points="2153,-115 2153,-134 2498,-134 2498,-115 2153,-115"/>
<text text-anchor="start" x="2156.5" y="-121.8" font-family="DejaVu Sans" font-weight="bold" font-size="14.00">&quot;_:bec67224cccaa828d90fSEPIO:0000067&quot;</text>
<g id="a_node10_13"><a xlink:href="https://monarchinitiative.org/.well-known/genid/bfcd925176aeb5112036" xlink:title="&lt;TABLE&gt;">
<polygon fill="#eeeeee" stroke="none" points="2153,-100 2153,-115 2498,-115 2498,-100 2153,-100"/>
<text text-anchor="start" x="2155" y="-105" font-family="DejaVu Sans" font-size="10.00" fill="#6666ff">https://monarchinitiative.org/.well&#45;known/genid/bfcd925176aeb5112036</text>
</a>
</g>
<polygon fill="none" stroke="#666666" points="2151.5,-99 2151.5,-135 2498.5,-135 2498.5,-99 2151.5,-99"/>
</g>
<!-- node6&#45;&gt;node11 -->
<g id="edge8" class="edge"><title>node6&#45;&gt;node11</title>
<path fill="none" stroke="BLACK" d="M2511.59,-199.386C2474.15,-183.055 2422.19,-160.393 2382.61,-143.128"/>
<polygon fill="BLACK" stroke="BLACK" points="2383.91,-139.876 2373.34,-139.086 2381.11,-146.293 2383.91,-139.876"/>
<text text-anchor="start" x="2443" y="-161.8" font-family="Times,serif" font-size="14.00"> </text>
<text text-anchor="start" x="2447" y="-161.8" font-family="Times,serif" font-size="10.00" fill="#336633">OBO:SEPIO_0000085</text>
<text text-anchor="start" x="2541" y="-161.8" font-family="Times,serif" font-size="14.00"> </text>
</g>
<!-- node19 -->
<g id="node19" class="node"><title>node19</title>
<polygon fill="grey" stroke="none" points="2534,-115 2534,-134 2744,-134 2744,-115 2534,-115"/>
<text text-anchor="start" x="2584.5" y="-121.8" font-family="DejaVu Sans" font-weight="bold" font-size="14.00">ECO_0000000</text>
<g id="a_node19_14"><a xlink:href="http://purl.obolibrary.org/obo/ECO_0000000" xlink:title="&lt;TABLE&gt;">
<polygon fill="#eeeeee" stroke="none" points="2534,-100 2534,-115 2744,-115 2744,-100 2534,-100"/>
<text text-anchor="start" x="2536" y="-105" font-family="DejaVu Sans" font-size="10.00" fill="#6666ff">http://purl.obolibrary.org/obo/ECO_0000000</text>
</a>
</g>
<polygon fill="none" stroke="#666666" points="2533,-99 2533,-135 2745,-135 2745,-99 2533,-99"/>
</g>
<!-- node6&#45;&gt;node19 -->
<g id="edge16" class="edge"><title>node6&#45;&gt;node19</title>
<path fill="none" stroke="BLACK" d="M2576.37,-199.262C2587.91,-184.282 2603.53,-164.019 2616.28,-147.476"/>
<polygon fill="BLACK" stroke="BLACK" points="2619.32,-149.268 2622.65,-139.211 2613.78,-144.995 2619.32,-149.268"/>
<text text-anchor="start" x="2609" y="-161.8" font-family="Times,serif" font-size="14.00"> </text>
<text text-anchor="start" x="2613" y="-161.8" font-family="Times,serif" font-size="10.00" fill="#336633">rdf:type</text>
<text text-anchor="start" x="2646" y="-161.8" font-family="Times,serif" font-size="14.00"> </text>
</g>
<!-- node8 -->
<g id="node8" class="node"><title>node8</title>
<polygon fill="grey" stroke="none" points="2705,-504.5 2705,-523.5 3016,-523.5 3016,-504.5 2705,-504.5"/>
<text text-anchor="start" x="2720.5" y="-511.3" font-family="DejaVu Sans" font-weight="bold" font-size="14.00">MONARCH_b0c2b8f4b93e10f01eba</text>
<g id="a_node8_15"><a xlink:href="https://monarchinitiative.org/MONARCH_b0c2b8f4b93e10f01eba" xlink:title="&lt;TABLE&gt;">
<polygon fill="#eeeeee" stroke="none" points="2705,-489.5 2705,-504.5 3016,-504.5 3016,-489.5 2705,-489.5"/>
<text text-anchor="start" x="2707" y="-494.5" font-family="DejaVu Sans" font-size="10.00" fill="#6666ff">https://monarchinitiative.org/MONARCH_b0c2b8f4b93e10f01eba</text>
</a>
</g>
<polygon fill="none" stroke="#666666" points="2703.5,-488.5 2703.5,-524.5 3016.5,-524.5 3016.5,-488.5 2703.5,-488.5"/>
</g>
<!-- node8&#45;&gt;node0 -->
<g id="edge6" class="edge"><title>node8&#45;&gt;node0</title>
<path fill="none" stroke="BLACK" d="M2695.23,-498.434C2532.75,-490.787 2277.47,-476.949 2057,-457 1882.19,-441.182 1685.53,-417.285 1535.79,-397.81"/>
<polygon fill="BLACK" stroke="BLACK" points="1535.91,-394.297 1525.54,-396.475 1535.01,-401.238 1535.91,-394.297"/>
<text text-anchor="start" x="2057" y="-446.8" font-family="Times,serif" font-size="14.00"> </text>
<text text-anchor="start" x="2061" y="-446.8" font-family="Times,serif" font-size="10.00" fill="#336633">OBAN:association_has_subject</text>
<text text-anchor="start" x="2193" y="-446.8" font-family="Times,serif" font-size="14.00"> </text>
</g>
<!-- node8&#45;&gt;node2 -->
<g id="edge18" class="edge"><title>node8&#45;&gt;node2</title>
<path fill="none" stroke="BLACK" d="M2860,-484.466C2860,-466.261 2860,-439.195 2860,-415.426"/>
<polygon fill="BLACK" stroke="BLACK" points="2863.5,-415.13 2860,-405.13 2856.5,-415.13 2863.5,-415.13"/>
<text text-anchor="start" x="2860" y="-446.8" font-family="Times,serif" font-size="14.00"> </text>
<text text-anchor="start" x="2864" y="-446.8" font-family="Times,serif" font-size="10.00" fill="#336633">OBO:SEPIO_0000015</text>
<text text-anchor="start" x="2958" y="-446.8" font-family="Times,serif" font-size="14.00"> </text>
</g>
<!-- node8&#45;&gt;node6 -->
<g id="edge21" class="edge"><title>node8&#45;&gt;node6</title>
<path fill="none" stroke="BLACK" d="M2730.16,-484.471C2662.63,-470.669 2589.88,-450.294 2569,-424 2530.27,-375.234 2541.01,-296.982 2551.17,-253.744"/>
<polygon fill="BLACK" stroke="BLACK" points="2554.63,-254.349 2553.65,-243.799 2547.84,-252.658 2554.63,-254.349"/>
<text text-anchor="start" x="2569" y="-361.3" font-family="Times,serif" font-size="14.00"> </text>
<text text-anchor="start" x="2573" y="-361.3" font-family="Times,serif" font-size="10.00" fill="#336633">OBO:SEPIO_0000007</text>
<text text-anchor="start" x="2667" y="-361.3" font-family="Times,serif" font-size="14.00"> </text>
</g>
<!-- node13 -->
<g id="node13" class="node"><title>node13</title>
<polygon fill="grey" stroke="none" points="3067,-362 3067,-381 3285,-381 3285,-362 3067,-362"/>
<text text-anchor="start" x="3115" y="-368.8" font-family="DejaVu Sans" font-weight="bold" font-size="14.00">GENO_0000841</text>
<g id="a_node13_16"><a xlink:href="http://purl.obolibrary.org/obo/GENO_0000841" xlink:title="&lt;TABLE&gt;">
<polygon fill="#eeeeee" stroke="none" points="3067,-347 3067,-362 3285,-362 3285,-347 3067,-347"/>
<text text-anchor="start" x="3069" y="-352" font-family="DejaVu Sans" font-size="10.00" fill="#6666ff">http://purl.obolibrary.org/obo/GENO_0000841</text>
</a>
</g>
<polygon fill="none" stroke="#666666" points="3066,-346 3066,-382 3286,-382 3286,-346 3066,-346"/>
</g>
<!-- node8&#45;&gt;node13 -->
<g id="edge10" class="edge"><title>node8&#45;&gt;node13</title>
<path fill="none" stroke="BLACK" d="M2909.91,-484.426C2948.11,-468.188 3002.04,-445.029 3049,-424 3073.18,-413.171 3099.79,-400.87 3122.38,-390.312"/>
<polygon fill="BLACK" stroke="BLACK" points="3123.9,-393.466 3131.47,-386.055 3120.93,-387.126 3123.9,-393.466"/>
<text text-anchor="start" x="3008" y="-446.8" font-family="Times,serif" font-size="14.00"> </text>
<text text-anchor="start" x="3012" y="-446.8" font-family="Times,serif" font-size="10.00" fill="#336633">OBAN:association_has_predicate</text>
<text text-anchor="start" x="3152" y="-446.8" font-family="Times,serif" font-size="14.00"> </text>
</g>
<!-- node15 -->
<g id="node15" class="node"><title>node15</title>
<polygon fill="grey" stroke="none" points="3321,-362 3321,-381 3475,-381 3475,-362 3321,-362"/>
<text text-anchor="start" x="3352" y="-368.8" font-family="DejaVu Sans" font-weight="bold" font-size="14.00">association</text>
<g id="a_node15_17"><a xlink:href="http://purl.org/oban/association" xlink:title="&lt;TABLE&gt;">
<polygon fill="#eeeeee" stroke="none" points="3321,-347 3321,-362 3475,-362 3475,-347 3321,-347"/>
<text text-anchor="start" x="3323" y="-352" font-family="DejaVu Sans" font-size="10.00" fill="#6666ff">http://purl.org/oban/association</text>
</a>
</g>
<polygon fill="none" stroke="#666666" points="3320,-346 3320,-382 3476,-382 3476,-346 3320,-346"/>
</g>
<!-- node8&#45;&gt;node15 -->
<g id="edge12" class="edge"><title>node8&#45;&gt;node15</title>
<path fill="none" stroke="BLACK" d="M3024.57,-491.793C3110.06,-480.6 3214.81,-460.384 3303,-424 3323.17,-415.677 3343.95,-403.288 3360.9,-392.008"/>
<polygon fill="BLACK" stroke="BLACK" points="3363.09,-394.752 3369.4,-386.238 3359.16,-388.961 3363.09,-394.752"/>
<text text-anchor="start" x="3246" y="-446.8" font-family="Times,serif" font-size="14.00"> </text>
<text text-anchor="start" x="3250" y="-446.8" font-family="Times,serif" font-size="10.00" fill="#336633">rdf:type</text>
<text text-anchor="start" x="3283" y="-446.8" font-family="Times,serif" font-size="14.00"> </text>
</g>
<!-- node8&#45;&gt;node10 -->
<g id="edge17" class="edge"><title>node8&#45;&gt;node10</title>
<path fill="none" stroke="BLACK" d="M2695.44,-493.495C2606.02,-482.75 2495.03,-462.422 2402,-424 2297.11,-380.681 2192.29,-294.664 2142.28,-250.339"/>
<polygon fill="BLACK" stroke="BLACK" points="2144.52,-247.648 2134.73,-243.597 2139.85,-252.869 2144.52,-247.648"/>
<text text-anchor="start" x="2402" y="-361.3" font-family="Times,serif" font-size="14.00"> </text>
<text text-anchor="start" x="2406" y="-361.3" font-family="Times,serif" font-size="10.00" fill="#336633">OBAN:association_has_object</text>
<text text-anchor="start" x="2534" y="-361.3" font-family="Times,serif" font-size="14.00"> </text>
</g>
<!-- node20 -->
<g id="node21" class="node"><title>node20</title>
<polygon fill="grey" stroke="none" points="3512,-362 3512,-381 3755,-381 3755,-362 3512,-362"/>
<text text-anchor="start" x="3573" y="-368.8" font-family="DejaVu Sans" font-weight="bold" font-size="14.00">RCV000175394</text>
<g id="a_node21_18"><a xlink:href="http://www.ncbi.nlm.nih.gov/clinvar/RCV000175394" xlink:title="&lt;TABLE&gt;">
<polygon fill="#eeeeee" stroke="none" points="3512,-347 3512,-362 3755,-362 3755,-347 3512,-347"/>
<text text-anchor="start" x="3514" y="-352" font-family="DejaVu Sans" font-size="10.00" fill="#6666ff">http://www.ncbi.nlm.nih.gov/clinvar/RCV000175394</text>
</a>
</g>
<polygon fill="none" stroke="#666666" points="3510.5,-346 3510.5,-382 3755.5,-382 3755.5,-346 3510.5,-346"/>
</g>
<!-- node8&#45;&gt;node20 -->
<g id="edge19" class="edge"><title>node8&#45;&gt;node20</title>
<path fill="none" stroke="BLACK" d="M3024.74,-498.038C3154.15,-488.911 3337.81,-468.69 3493,-424 3523.02,-415.354 3555.24,-402.078 3581.18,-390.307"/>
<polygon fill="BLACK" stroke="BLACK" points="3582.82,-393.406 3590.45,-386.049 3579.9,-387.046 3582.82,-393.406"/>
<text text-anchor="start" x="3410" y="-446.8" font-family="Times,serif" font-size="14.00"> </text>
<text text-anchor="start" x="3414" y="-446.8" font-family="Times,serif" font-size="10.00" fill="#336633">oboInOwl:hasdbxref</text>
<text text-anchor="start" x="3499" y="-446.8" font-family="Times,serif" font-size="14.00"> </text>
</g>
<!-- node22 -->
<g id="node23" class="node"><title>node22</title>
<polygon fill="grey" stroke="none" points="3718,-115 3718,-134 3936,-134 3936,-115 3718,-115"/>
<text text-anchor="start" x="3765" y="-121.8" font-family="DejaVu Sans" font-weight="bold" font-size="14.00">SEPIO_0000037</text>
<g id="a_node23_19"><a xlink:href="http://purl.obolibrary.org/obo/SEPIO_0000037" xlink:title="&lt;TABLE&gt;">
<polygon fill="#eeeeee" stroke="none" points="3718,-100 3718,-115 3936,-115 3936,-100 3718,-100"/>
<text text-anchor="start" x="3720" y="-105" font-family="DejaVu Sans" font-size="10.00" fill="#6666ff">http://purl.obolibrary.org/obo/SEPIO_0000037</text>
</a>
</g>
<polygon fill="none" stroke="#666666" points="3717,-99 3717,-135 3937,-135 3937,-99 3717,-99"/>
</g>
<!-- node9&#45;&gt;node22 -->
<g id="edge23" class="edge"><title>node9&#45;&gt;node22</title>
<path fill="none" stroke="BLACK" d="M3827,-189.747C3827,-177.031 3827,-162.301 3827,-149.508"/>
<polygon fill="BLACK" stroke="BLACK" points="3830.5,-149.304 3827,-139.304 3823.5,-149.304 3830.5,-149.304"/>
<text text-anchor="start" x="3827" y="-161.8" font-family="Times,serif" font-size="14.00"> </text>
<text text-anchor="start" x="3831" y="-161.8" font-family="Times,serif" font-size="10.00" fill="#336633">rdf:type</text>
<text text-anchor="start" x="3864" y="-161.8" font-family="Times,serif" font-size="14.00"> </text>
</g>
<!-- node21 -->
<g id="node22" class="node"><title>node21</title>
<polygon fill="grey" stroke="none" points="2216,-20 2216,-39 2434,-39 2434,-20 2216,-20"/>
<text text-anchor="start" x="2263" y="-26.8" font-family="DejaVu Sans" font-weight="bold" font-size="14.00">SEPIO_0000067</text>
<g id="a_node22_20"><a xlink:href="http://purl.obolibrary.org/obo/SEPIO_0000067" xlink:title="&lt;TABLE&gt;">
<polygon fill="#eeeeee" stroke="none" points="2216,-5 2216,-20 2434,-20 2434,-5 2216,-5"/>
<text text-anchor="start" x="2218" y="-10" font-family="DejaVu Sans" font-size="10.00" fill="#6666ff">http://purl.obolibrary.org/obo/SEPIO_0000067</text>
</a>
</g>
<polygon fill="none" stroke="#666666" points="2215,-4 2215,-40 2435,-40 2435,-4 2215,-4"/>
</g>
<!-- node11&#45;&gt;node21 -->
<g id="edge22" class="edge"><title>node11&#45;&gt;node21</title>
<path fill="none" stroke="BLACK" d="M2325,-94.8969C2325,-82.8873 2325,-67.6175 2325,-54.242"/>
<polygon fill="BLACK" stroke="BLACK" points="2328.5,-54.0196 2325,-44.0196 2321.5,-54.0197 2328.5,-54.0196"/>
<text text-anchor="start" x="2325" y="-66.8" font-family="Times,serif" font-size="14.00"> </text>
<text text-anchor="start" x="2329" y="-66.8" font-family="Times,serif" font-size="10.00" fill="#336633">rdf:type</text>
<text text-anchor="start" x="2362" y="-66.8" font-family="Times,serif" font-size="14.00"> </text>
</g>
<!-- node7 -->
<g id="node11" class="node"><title>node7</title>
<polygon fill="grey" stroke="none" points="3757,-513.5 3757,-532.5 4023,-532.5 4023,-513.5 3757,-513.5"/>
<text text-anchor="start" x="3818" y="-520.3" font-family="DejaVu Sans" font-weight="bold" font-size="14.00">RCV000175394.nt</text>
<g id="a_node11_21"><a xlink:href="https://data.monarchinitiative.org/ttl/RCV000175394.nt" xlink:title="&lt;TABLE&gt;">
<polygon fill="#eeeeee" stroke="none" points="3757,-498.5 3757,-513.5 4023,-513.5 4023,-498.5 3757,-498.5"/>
<text text-anchor="start" x="3759" y="-503.5" font-family="DejaVu Sans" font-size="10.00" fill="#6666ff">https://data.monarchinitiative.org/ttl/RCV000175394.nt</text>
</a>
</g>
<text text-anchor="start" x="3759" y="-485.3" font-family="DejaVu Sans" font-size="14.00">owl:versionInfo</text>
<text text-anchor="start" x="3897" y="-485.3" font-family="DejaVu Sans" font-size="14.00">&quot;2019&#45;07&#45;01&quot;</text>
<polygon fill="none" stroke="#666666" points="3756,-479 3756,-534 4024,-534 4024,-479 3756,-479"/>
</g>
<!-- node12 -->
<g id="node12" class="node"><title>node12</title>
<polygon fill="grey" stroke="none" points="3791,-362 3791,-381 3989,-381 3989,-362 3791,-362"/>
<text text-anchor="start" x="3853" y="-368.8" font-family="DejaVu Sans" font-weight="bold" font-size="14.00">Ontology</text>
<g id="a_node12_22"><a xlink:href="http://www.w3.org/2002/07/owl#Ontology" xlink:title="&lt;TABLE&gt;">
<polygon fill="#eeeeee" stroke="none" points="3791,-347 3791,-362 3989,-362 3989,-347 3791,-347"/>
<text text-anchor="start" x="3793" y="-352" font-family="DejaVu Sans" font-size="10.00" fill="#6666ff">http://www.w3.org/2002/07/owl#Ontology</text>
</a>
</g>
<polygon fill="none" stroke="#666666" points="3790,-346 3790,-382 3990,-382 3990,-346 3790,-346"/>
</g>
<!-- node7&#45;&gt;node12 -->
<g id="edge9" class="edge"><title>node7&#45;&gt;node12</title>
<path fill="none" stroke="BLACK" d="M3890,-474.667C3890,-451.41 3890,-419.632 3890,-396.27"/>
<polygon fill="BLACK" stroke="BLACK" points="3893.5,-396.189 3890,-386.189 3886.5,-396.189 3893.5,-396.189"/>
<text text-anchor="start" x="3890" y="-446.8" font-family="Times,serif" font-size="14.00"> </text>
<text text-anchor="start" x="3894" y="-446.8" font-family="Times,serif" font-size="10.00" fill="#336633">rdf:type</text>
<text text-anchor="start" x="3927" y="-446.8" font-family="Times,serif" font-size="14.00"> </text>
</g>
</g>
</svg>
