<?xml version="1.0" encoding="UTF-8" standalone="no"?>
<!DOCTYPE svg PUBLIC "-//W3C//DTD SVG 1.1//EN"
 "http://www.w3.org/Graphics/SVG/1.1/DTD/svg11.dtd">
<!-- Generated by graphviz version 2.38.0 (20140413.2041)
 -->
<!-- Title: %3 Pages: 1 -->
<svg width="3654pt" height="584pt"
 viewBox="0.00 0.00 3654.00 584.00" xmlns="http://www.w3.org/2000/svg" xmlns:xlink="http://www.w3.org/1999/xlink">
<g id="graph0" class="graph" transform="scale(1 1) rotate(0) translate(4 580)">
<title>%3</title>
<polygon fill="white" stroke="none" points="-4,4 -4,-580 3650,-580 3650,4 -4,4"/>
<!-- node1 -->
<g id="node1" class="node"><title>node1</title>
<polygon fill="grey" stroke="none" points="1739,-314 1739,-333 2193,-333 2193,-314 1739,-314"/>
<text text-anchor="start" x="1761.5" y="-320.8" font-family="DejaVu Sans" font-weight="bold" font-size="14.00">&quot;NM_018136.4(ASPM):c.10168C&gt;T (p.Arg3390Ter)&quot;</text>
<g id="a_node1_0"><a xlink:href="http://www.ncbi.nlm.nih.gov/clinvar/variation/157773" xlink:title="&lt;TABLE&gt;">
<polygon fill="#eeeeee" stroke="none" points="1739,-299 1739,-314 2193,-314 2193,-299 1739,-299"/>
<text text-anchor="start" x="1842.5" y="-304" font-family="DejaVu Sans" font-size="10.00" fill="#6666ff">http://www.ncbi.nlm.nih.gov/clinvar/variation/157773</text>
</a>
</g>
<text text-anchor="start" x="1741" y="-285.8" font-family="DejaVu Sans" font-size="14.00">oboInOwl:hasExactSynonym</text>
<text text-anchor="start" x="1943" y="-285.8" font-family="DejaVu Sans" font-size="14.00">&quot;NC_000001.10:g.197056096G&gt;A&quot;</text>
<text text-anchor="start" x="1741" y="-266.8" font-family="DejaVu Sans" font-size="14.00">oboInOwl:hasExactSynonym</text>
<text text-anchor="start" x="1943" y="-266.8" font-family="DejaVu Sans" font-size="14.00">&quot;NC_000001.11:g.197086966G&gt;A&quot;</text>
<text text-anchor="start" x="1741" y="-247.8" font-family="DejaVu Sans" font-size="14.00">oboInOwl:hasExactSynonym</text>
<text text-anchor="start" x="1943" y="-247.8" font-family="DejaVu Sans" font-size="14.00">&quot;NG_015867.1:g.64729C&gt;T&quot;</text>
<text text-anchor="start" x="1741" y="-228.8" font-family="DejaVu Sans" font-size="14.00">oboInOwl:hasExactSynonym</text>
<text text-anchor="start" x="1943" y="-228.8" font-family="DejaVu Sans" font-size="14.00">&quot;NM_018136.4:c.10168C&gt;T&quot;</text>
<text text-anchor="start" x="1741" y="-209.8" font-family="DejaVu Sans" font-size="14.00">oboInOwl:hasExactSynonym</text>
<text text-anchor="start" x="1943" y="-209.8" font-family="DejaVu Sans" font-size="14.00">&quot;NP_060606.3:p.Arg3390Ter&quot;</text>
<polygon fill="none" stroke="#666666" points="1738,-203.5 1738,-334.5 2194,-334.5 2194,-203.5 1738,-203.5"/>
</g>
<!-- node2 -->
<g id="node2" class="node"><title>node2</title>
<polygon fill="grey" stroke="none" points="2759,-115 2759,-134 2963,-134 2963,-115 2759,-115"/>
<text text-anchor="start" x="2811.5" y="-121.8" font-family="DejaVu Sans" font-weight="bold" font-size="14.00">SO_0001483</text>
<g id="a_node2_1"><a xlink:href="http://purl.obolibrary.org/obo/SO_0001483" xlink:title="&lt;TABLE&gt;">
<polygon fill="#eeeeee" stroke="none" points="2759,-100 2759,-115 2963,-115 2963,-100 2759,-100"/>
<text text-anchor="start" x="2761" y="-105" font-family="DejaVu Sans" font-size="10.00" fill="#6666ff">http://purl.obolibrary.org/obo/SO_0001483</text>
</a>
</g>
<polygon fill="none" stroke="#666666" points="2758,-99 2758,-135 2964,-135 2964,-99 2758,-99"/>
</g>
<!-- node1&#45;&gt;node2 -->
<g id="edge1" class="edge"><title>node1&#45;&gt;node2</title>
<path fill="none" stroke="BLACK" d="M2172.41,-199.478C2187.06,-195.887 2201.7,-192.667 2216,-190 2334.66,-167.87 2367.02,-185.236 2487,-172 2530.36,-167.217 2540.77,-162.819 2584,-157 2650.48,-148.052 2669.78,-148.952 2739.68,-139.139"/>
<polygon fill="BLACK" stroke="BLACK" points="2740.49,-142.56 2749.89,-137.682 2739.5,-135.63 2740.49,-142.56"/>
<text text-anchor="start" x="2584" y="-161.8" font-family="Times,serif" font-size="14.00"> </text>
<text text-anchor="start" x="2588" y="-161.8" font-family="Times,serif" font-size="10.00" fill="#336633">rdf:type</text>
<text text-anchor="start" x="2621" y="-161.8" font-family="Times,serif" font-size="14.00"> </text>
</g>
<!-- node13 -->
<g id="node12" class="node"><title>node13</title>
<polygon fill="grey" stroke="none" points="2367,-115 2367,-134 2723,-134 2723,-115 2367,-115"/>
<text text-anchor="start" x="2369" y="-121.8" font-family="DejaVu Sans" font-weight="bold" font-size="14.00">https://www.ncbi.nlm.nih.gov/gene/259266</text>
<g id="a_node12_2"><a xlink:href="https://www.ncbi.nlm.nih.gov/gene/259266" xlink:title="&lt;TABLE&gt;">
<polygon fill="#eeeeee" stroke="none" points="2367,-100 2367,-115 2723,-115 2723,-100 2367,-100"/>
<text text-anchor="start" x="2444.5" y="-105" font-family="DejaVu Sans" font-size="10.00" fill="#6666ff">https://www.ncbi.nlm.nih.gov/gene/259266</text>
</a>
</g>
<polygon fill="none" stroke="#666666" points="2366,-99 2366,-135 2724,-135 2724,-99 2366,-99"/>
</g>
<!-- node1&#45;&gt;node13 -->
<g id="edge7" class="edge"><title>node1&#45;&gt;node13</title>
<path fill="none" stroke="BLACK" d="M2052.65,-199.403C2078.98,-179.954 2104.92,-162.534 2120,-157 2165.2,-140.416 2283.94,-143.311 2347.72,-138.887"/>
<polygon fill="BLACK" stroke="BLACK" points="2348.16,-142.364 2357.84,-138.076 2347.6,-135.387 2348.16,-142.364"/>
<text text-anchor="start" x="2120" y="-161.8" font-family="Times,serif" font-size="14.00"> </text>
<text text-anchor="start" x="2124" y="-161.8" font-family="Times,serif" font-size="10.00" fill="#336633">OBO:GENO_0000418</text>
<text text-anchor="start" x="2220" y="-161.8" font-family="Times,serif" font-size="14.00"> </text>
</g>
<!-- node19 -->
<g id="node19" class="node"><title>node19</title>
<polygon fill="grey" stroke="none" points="1768,-115 1768,-134 2331,-134 2331,-115 1768,-115"/>
<text text-anchor="start" x="1770" y="-121.8" font-family="DejaVu Sans" font-weight="bold" font-size="14.00">http://www.ncbi.nlm.nih.gov/projects/SNP/snp_ref.cgi?rs=587783211</text>
<g id="a_node19_3"><a xlink:href="http://www.ncbi.nlm.nih.gov/projects/SNP/snp_ref.cgi?rs=587783211" xlink:title="&lt;TABLE&gt;">
<polygon fill="#eeeeee" stroke="none" points="1768,-100 1768,-115 2331,-115 2331,-100 1768,-100"/>
<text text-anchor="start" x="1887" y="-105" font-family="DejaVu Sans" font-size="10.00" fill="#6666ff">http://www.ncbi.nlm.nih.gov/projects/SNP/snp_ref.cgi?rs=587783211</text>
</a>
</g>
<polygon fill="none" stroke="#666666" points="1766.5,-99 1766.5,-135 2331.5,-135 2331.5,-99 1766.5,-99"/>
</g>
<!-- node1&#45;&gt;node19 -->
<g id="edge16" class="edge"><title>node1&#45;&gt;node19</title>
<path fill="none" stroke="BLACK" d="M2004.1,-199.146C2013.96,-181.33 2024.07,-163.048 2032.2,-148.359"/>
<polygon fill="BLACK" stroke="BLACK" points="2035.45,-149.709 2037.23,-139.265 2029.33,-146.32 2035.45,-149.709"/>
<text text-anchor="start" x="2027" y="-161.8" font-family="Times,serif" font-size="14.00"> </text>
<text text-anchor="start" x="2031" y="-161.8" font-family="Times,serif" font-size="10.00" fill="#336633">owl:sameAs</text>
<text text-anchor="start" x="2082" y="-161.8" font-family="Times,serif" font-size="14.00"> </text>
</g>
<!-- node21 -->
<g id="node22" class="node"><title>node21</title>
<polygon fill="grey" stroke="none" points="1509,-115 1509,-134 1731,-134 1731,-115 1509,-115"/>
<text text-anchor="start" x="1553.5" y="-121.8" font-family="DejaVu Sans" font-weight="bold" font-size="14.00">NCBITaxon_9606</text>
<g id="a_node22_4"><a xlink:href="http://purl.obolibrary.org/obo/NCBITaxon_9606" xlink:title="&lt;TABLE&gt;">
<polygon fill="#eeeeee" stroke="none" points="1509,-100 1509,-115 1731,-115 1731,-100 1509,-100"/>
<text text-anchor="start" x="1511" y="-105" font-family="DejaVu Sans" font-size="10.00" fill="#6666ff">http://purl.obolibrary.org/obo/NCBITaxon_9606</text>
</a>
</g>
<polygon fill="none" stroke="#666666" points="1508,-99 1508,-135 1732,-135 1732,-99 1508,-99"/>
</g>
<!-- node1&#45;&gt;node21 -->
<g id="edge18" class="edge"><title>node1&#45;&gt;node21</title>
<path fill="none" stroke="BLACK" d="M1807.94,-199.475C1761.51,-179.347 1713.63,-158.593 1677.83,-143.069"/>
<polygon fill="BLACK" stroke="BLACK" points="1679.09,-139.803 1668.52,-139.036 1676.31,-146.225 1679.09,-139.803"/>
<text text-anchor="start" x="1742" y="-161.8" font-family="Times,serif" font-size="14.00"> </text>
<text text-anchor="start" x="1746" y="-161.8" font-family="Times,serif" font-size="10.00" fill="#336633">OBO:RO_0002162</text>
<text text-anchor="start" x="1828" y="-161.8" font-family="Times,serif" font-size="14.00"> </text>
</g>
<!-- node3 -->
<g id="node3" class="node"><title>node3</title>
<polygon fill="grey" stroke="none" points="682,-437.5 682,-456.5 1031,-456.5 1031,-437.5 682,-437.5"/>
<text text-anchor="start" x="709" y="-444.3" font-family="DejaVu Sans" font-weight="bold" font-size="14.00">&quot;b25e1dcae8dd05dc4d16_assertion&quot;</text>
<g id="a_node3_5"><a xlink:href="https://monarchinitiative.org/.well-known/genid/bd539326250b4352d101" xlink:title="&lt;TABLE&gt;">
<polygon fill="#eeeeee" stroke="none" points="682,-422.5 682,-437.5 1031,-437.5 1031,-422.5 682,-422.5"/>
<text text-anchor="start" x="684" y="-427.5" font-family="DejaVu Sans" font-size="10.00" fill="#6666ff">https://monarchinitiative.org/.well&#45;known/genid/bd539326250b4352d101</text>
</a>
</g>
<text text-anchor="start" x="684" y="-409.3" font-family="DejaVu Sans" font-size="14.00">dc:identifier</text>
<text text-anchor="start" x="831" y="-409.3" font-family="DejaVu Sans" font-size="14.00">&quot;SCV000189126.2&quot;</text>
<polygon fill="none" stroke="#666666" points="680.5,-403 680.5,-458 1031.5,-458 1031.5,-403 680.5,-403"/>
</g>
<!-- node4 -->
<g id="node4" class="node"><title>node4</title>
<polygon fill="grey" stroke="none" points="839,-267 839,-286 1183,-286 1183,-267 839,-267"/>
<text text-anchor="start" x="865" y="-273.8" font-family="DejaVu Sans" font-weight="bold" font-size="14.00">&quot;b25e1dcae8dd05dc4d16_evidence&quot;</text>
<g id="a_node4_6"><a xlink:href="https://monarchinitiative.org/.well-known/genid/b8e43a4f4ce6a8409c4a" xlink:title="&lt;TABLE&gt;">
<polygon fill="#eeeeee" stroke="none" points="839,-252 839,-267 1183,-267 1183,-252 839,-252"/>
<text text-anchor="start" x="841" y="-257" font-family="DejaVu Sans" font-size="10.00" fill="#6666ff">https://monarchinitiative.org/.well&#45;known/genid/b8e43a4f4ce6a8409c4a</text>
</a>
</g>
<polygon fill="none" stroke="#666666" points="838,-251 838,-287 1184,-287 1184,-251 838,-251"/>
</g>
<!-- node3&#45;&gt;node4 -->
<g id="edge2" class="edge"><title>node3&#45;&gt;node4</title>
<path fill="none" stroke="BLACK" d="M885.886,-398.747C913.988,-369.828 955.728,-326.876 983.148,-298.66"/>
<polygon fill="BLACK" stroke="BLACK" points="985.677,-301.08 990.136,-291.469 980.657,-296.202 985.677,-301.08"/>
<text text-anchor="start" x="916" y="-370.8" font-family="Times,serif" font-size="14.00"> </text>
<text text-anchor="start" x="920" y="-370.8" font-family="Times,serif" font-size="10.00" fill="#336633">OBO:SEPIO_0000111</text>
<text text-anchor="start" x="1014" y="-370.8" font-family="Times,serif" font-size="14.00"> </text>
</g>
<!-- node16 -->
<g id="node16" class="node"><title>node16</title>
<polygon fill="grey" stroke="none" points="9,-267 9,-286 227,-286 227,-267 9,-267"/>
<text text-anchor="start" x="56" y="-273.8" font-family="DejaVu Sans" font-weight="bold" font-size="14.00">SEPIO_0000001</text>
<g id="a_node16_7"><a xlink:href="http://purl.obolibrary.org/obo/SEPIO_0000001" xlink:title="&lt;TABLE&gt;">
<polygon fill="#eeeeee" stroke="none" points="9,-252 9,-267 227,-267 227,-252 9,-252"/>
<text text-anchor="start" x="11" y="-257" font-family="DejaVu Sans" font-size="10.00" fill="#6666ff">http://purl.obolibrary.org/obo/SEPIO_0000001</text>
</a>
</g>
<polygon fill="none" stroke="#666666" points="8,-251 8,-287 228,-287 228,-251 8,-251"/>
</g>
<!-- node3&#45;&gt;node16 -->
<g id="edge14" class="edge"><title>node3&#45;&gt;node16</title>
<path fill="none" stroke="BLACK" d="M672.213,-424.887C548.409,-417.013 383.136,-397.127 245,-348 211.634,-336.134 177.645,-314.661 153.236,-297.246"/>
<polygon fill="BLACK" stroke="BLACK" points="155.166,-294.322 145.019,-291.277 151.053,-299.986 155.166,-294.322"/>
<text text-anchor="start" x="358" y="-370.8" font-family="Times,serif" font-size="14.00"> </text>
<text text-anchor="start" x="362" y="-370.8" font-family="Times,serif" font-size="10.00" fill="#336633">rdf:type</text>
<text text-anchor="start" x="395" y="-370.8" font-family="Times,serif" font-size="14.00"> </text>
</g>
<!-- node0 -->
<g id="node20" class="node"><title>node0</title>
<polygon fill="grey" stroke="none" points="264,-267 264,-286 803,-286 803,-267 264,-267"/>
<text text-anchor="start" x="266" y="-273.8" font-family="DejaVu Sans" font-weight="bold" font-size="14.00">&quot;Medical Research Institute,Tokyo Medical and Dental University&quot;</text>
<g id="a_node20_8"><a xlink:href="http://www.ncbi.nlm.nih.gov/clinvar/submitters/505721" xlink:title="&lt;TABLE&gt;">
<polygon fill="#eeeeee" stroke="none" points="264,-252 264,-267 803,-267 803,-252 264,-252"/>
<text text-anchor="start" x="405" y="-257" font-family="DejaVu Sans" font-size="10.00" fill="#6666ff">http://www.ncbi.nlm.nih.gov/clinvar/submitters/505721</text>
</a>
</g>
<polygon fill="none" stroke="#666666" points="262.5,-251 262.5,-287 803.5,-287 803.5,-251 262.5,-251"/>
</g>
<!-- node3&#45;&gt;node0 -->
<g id="edge32" class="edge"><title>node3&#45;&gt;node0</title>
<path fill="none" stroke="BLACK" d="M794.105,-398.936C733.372,-368.945 641.809,-323.731 584.809,-295.584"/>
<polygon fill="BLACK" stroke="BLACK" points="586.139,-292.337 575.622,-291.047 583.039,-298.613 586.139,-292.337"/>
<text text-anchor="start" x="752" y="-370.8" font-family="Times,serif" font-size="14.00"> </text>
<text text-anchor="start" x="756" y="-370.8" font-family="Times,serif" font-size="10.00" fill="#336633">OBO:SEPIO_0000018</text>
<text text-anchor="start" x="850" y="-370.8" font-family="Times,serif" font-size="14.00"> </text>
</g>
<!-- node12 -->
<g id="node11" class="node"><title>node12</title>
<polygon fill="grey" stroke="none" points="459,-115 459,-134 797,-134 797,-115 459,-115"/>
<text text-anchor="start" x="585.5" y="-121.8" font-family="DejaVu Sans" font-weight="bold" font-size="14.00">&quot;research&quot;</text>
<g id="a_node11_9"><a xlink:href="https://monarchinitiative.org/.well-known/genid/bcff6acb169553f68e9b" xlink:title="&lt;TABLE&gt;">
<polygon fill="#eeeeee" stroke="none" points="459,-100 459,-115 797,-115 797,-100 459,-100"/>
<text text-anchor="start" x="461" y="-105" font-family="DejaVu Sans" font-size="10.00" fill="#6666ff">https://monarchinitiative.org/.well&#45;known/genid/bcff6acb169553f68e9b</text>
</a>
</g>
<polygon fill="none" stroke="#666666" points="458,-99 458,-135 798,-135 798,-99 458,-99"/>
</g>
<!-- node4&#45;&gt;node12 -->
<g id="edge6" class="edge"><title>node4&#45;&gt;node12</title>
<path fill="none" stroke="BLACK" d="M960.49,-246.908C922.079,-230.981 867.86,-208.742 820,-190 778.768,-173.854 732.276,-156.4 695.37,-142.721"/>
<polygon fill="BLACK" stroke="BLACK" points="696.31,-139.337 685.717,-139.148 693.88,-145.902 696.31,-139.337"/>
<text text-anchor="start" x="773" y="-161.8" font-family="Times,serif" font-size="14.00"> </text>
<text text-anchor="start" x="777" y="-161.8" font-family="Times,serif" font-size="10.00" fill="#336633">OBO:SEPIO_0000085</text>
<text text-anchor="start" x="871" y="-161.8" font-family="Times,serif" font-size="14.00"> </text>
</g>
<!-- node17 -->
<g id="node17" class="node"><title>node17</title>
<polygon fill="grey" stroke="none" points="1079,-115 1079,-134 1473,-134 1473,-115 1079,-115"/>
<text text-anchor="start" x="1081" y="-121.8" font-family="DejaVu Sans" font-weight="bold" font-size="14.00">http://www.ncbi.nlm.nih.gov/pubmed/25786579</text>
<g id="a_node17_10"><a xlink:href="http://www.ncbi.nlm.nih.gov/pubmed/25786579" xlink:title="&lt;TABLE&gt;">
<polygon fill="#eeeeee" stroke="none" points="1079,-100 1079,-115 1473,-115 1473,-100 1079,-100"/>
<text text-anchor="start" x="1164.5" y="-105" font-family="DejaVu Sans" font-size="10.00" fill="#6666ff">http://www.ncbi.nlm.nih.gov/pubmed/25786579</text>
</a>
</g>
<polygon fill="none" stroke="#666666" points="1078,-99 1078,-135 1474,-135 1474,-99 1078,-99"/>
</g>
<!-- node4&#45;&gt;node17 -->
<g id="edge31" class="edge"><title>node4&#45;&gt;node17</title>
<path fill="none" stroke="BLACK" d="M1048.13,-246.985C1095.7,-220.059 1178.15,-173.385 1229.75,-144.178"/>
<polygon fill="BLACK" stroke="BLACK" points="1231.72,-147.086 1238.7,-139.114 1228.27,-140.994 1231.72,-147.086"/>
<text text-anchor="start" x="1205" y="-161.8" font-family="Times,serif" font-size="14.00"> </text>
<text text-anchor="start" x="1209" y="-161.8" font-family="Times,serif" font-size="10.00" fill="#336633">OBO:SEPIO_0000124</text>
<text text-anchor="start" x="1303" y="-161.8" font-family="Times,serif" font-size="14.00"> </text>
</g>
<!-- node24 -->
<g id="node25" class="node"><title>node24</title>
<polygon fill="grey" stroke="none" points="833,-115 833,-134 1043,-134 1043,-115 833,-115"/>
<text text-anchor="start" x="883.5" y="-121.8" font-family="DejaVu Sans" font-weight="bold" font-size="14.00">ECO_0000000</text>
<g id="a_node25_11"><a xlink:href="http://purl.obolibrary.org/obo/ECO_0000000" xlink:title="&lt;TABLE&gt;">
<polygon fill="#eeeeee" stroke="none" points="833,-100 833,-115 1043,-115 1043,-100 833,-100"/>
<text text-anchor="start" x="835" y="-105" font-family="DejaVu Sans" font-size="10.00" fill="#6666ff">http://purl.obolibrary.org/obo/ECO_0000000</text>
</a>
</g>
<polygon fill="none" stroke="#666666" points="832,-99 832,-135 1044,-135 1044,-99 832,-99"/>
</g>
<!-- node4&#45;&gt;node24 -->
<g id="edge25" class="edge"><title>node4&#45;&gt;node24</title>
<path fill="none" stroke="BLACK" d="M1000.7,-246.827C988.196,-221.142 967.033,-177.657 952.793,-148.397"/>
<polygon fill="BLACK" stroke="BLACK" points="955.775,-146.526 948.252,-139.065 949.481,-149.589 955.775,-146.526"/>
<text text-anchor="start" x="964" y="-161.8" font-family="Times,serif" font-size="14.00"> </text>
<text text-anchor="start" x="968" y="-161.8" font-family="Times,serif" font-size="10.00" fill="#336633">rdf:type</text>
<text text-anchor="start" x="1001" y="-161.8" font-family="Times,serif" font-size="14.00"> </text>
</g>
<!-- node5 -->
<g id="node5" class="node"><title>node5</title>
<polygon fill="grey" stroke="none" points="1579,-542.5 1579,-561.5 1895,-561.5 1895,-542.5 1579,-542.5"/>
<text text-anchor="start" x="1593" y="-549.3" font-family="DejaVu Sans" font-weight="bold" font-size="14.00">MONARCH_b25e1dcae8dd05dc4d16</text>
<g id="a_node5_12"><a xlink:href="https://monarchinitiative.org/MONARCH_b25e1dcae8dd05dc4d16" xlink:title="&lt;TABLE&gt;">
<polygon fill="#eeeeee" stroke="none" points="1579,-527.5 1579,-542.5 1895,-542.5 1895,-527.5 1579,-527.5"/>
<text text-anchor="start" x="1581" y="-532.5" font-family="DejaVu Sans" font-size="10.00" fill="#6666ff">https://monarchinitiative.org/MONARCH_b25e1dcae8dd05dc4d16</text>
</a>
</g>
<polygon fill="none" stroke="#666666" points="1578,-526.5 1578,-562.5 1896,-562.5 1896,-526.5 1578,-526.5"/>
</g>
<!-- node5&#45;&gt;node3 -->
<g id="edge13" class="edge"><title>node5&#45;&gt;node3</title>
<path fill="none" stroke="BLACK" d="M1569.6,-541.438C1378.74,-537.587 1079.17,-526.559 971,-495 949.642,-488.769 927.863,-478.066 909.085,-467.204"/>
<polygon fill="BLACK" stroke="BLACK" points="910.788,-464.145 900.402,-462.049 907.214,-470.164 910.788,-464.145"/>
<text text-anchor="start" x="971" y="-484.8" font-family="Times,serif" font-size="14.00"> </text>
<text text-anchor="start" x="975" y="-484.8" font-family="Times,serif" font-size="10.00" fill="#336633">OBO:SEPIO_0000015</text>
<text text-anchor="start" x="1069" y="-484.8" font-family="Times,serif" font-size="14.00"> </text>
</g>
<!-- node5&#45;&gt;node4 -->
<g id="edge28" class="edge"><title>node5&#45;&gt;node4</title>
<path fill="none" stroke="BLACK" d="M1569.83,-536.853C1472.38,-527.877 1349.14,-507.534 1248,-462 1160.04,-422.401 1077.26,-341.941 1036.82,-298.821"/>
<polygon fill="BLACK" stroke="BLACK" points="1039.14,-296.174 1029.77,-291.223 1034.01,-300.934 1039.14,-296.174"/>
<text text-anchor="start" x="1248" y="-427.8" font-family="Times,serif" font-size="14.00"> </text>
<text text-anchor="start" x="1252" y="-427.8" font-family="Times,serif" font-size="10.00" fill="#336633">OBO:SEPIO_0000007</text>
<text text-anchor="start" x="1346" y="-427.8" font-family="Times,serif" font-size="14.00"> </text>
</g>
<!-- node6 -->
<g id="node6" class="node"><title>node6</title>
<polygon fill="grey" stroke="none" points="1368,-428.5 1368,-447.5 1522,-447.5 1522,-428.5 1368,-428.5"/>
<text text-anchor="start" x="1399" y="-435.3" font-family="DejaVu Sans" font-weight="bold" font-size="14.00">association</text>
<g id="a_node6_13"><a xlink:href="http://purl.org/oban/association" xlink:title="&lt;TABLE&gt;">
<polygon fill="#eeeeee" stroke="none" points="1368,-413.5 1368,-428.5 1522,-428.5 1522,-413.5 1368,-413.5"/>
<text text-anchor="start" x="1370" y="-418.5" font-family="DejaVu Sans" font-size="10.00" fill="#6666ff">http://purl.org/oban/association</text>
</a>
</g>
<polygon fill="none" stroke="#666666" points="1367,-412.5 1367,-448.5 1523,-448.5 1523,-412.5 1367,-412.5"/>
</g>
<!-- node5&#45;&gt;node6 -->
<g id="edge3" class="edge"><title>node5&#45;&gt;node6</title>
<path fill="none" stroke="BLACK" d="M1571.92,-522.473C1548.25,-515.705 1524.87,-506.776 1504,-495 1489.06,-486.569 1475.72,-473.051 1465.52,-460.65"/>
<polygon fill="BLACK" stroke="BLACK" points="1468.22,-458.423 1459.29,-452.727 1462.72,-462.75 1468.22,-458.423"/>
<text text-anchor="start" x="1504" y="-484.8" font-family="Times,serif" font-size="14.00"> </text>
<text text-anchor="start" x="1508" y="-484.8" font-family="Times,serif" font-size="10.00" fill="#336633">rdf:type</text>
<text text-anchor="start" x="1541" y="-484.8" font-family="Times,serif" font-size="14.00"> </text>
</g>
<!-- node8 -->
<g id="node7" class="node"><title>node8</title>
<polygon fill="grey" stroke="none" points="2058,-428.5 2058,-447.5 2450,-447.5 2450,-428.5 2058,-428.5"/>
<text text-anchor="start" x="2060" y="-435.3" font-family="DejaVu Sans" font-weight="bold" font-size="14.00">&quot;NM_018136.4(ASPM):c.[10168C&gt;T];[8098C&gt;T]&quot;</text>
<g id="a_node7_14"><a xlink:href="http://www.ncbi.nlm.nih.gov/clinvar/variation/424707" xlink:title="&lt;TABLE&gt;">
<polygon fill="#eeeeee" stroke="none" points="2058,-413.5 2058,-428.5 2450,-428.5 2450,-413.5 2058,-413.5"/>
<text text-anchor="start" x="2130.5" y="-418.5" font-family="DejaVu Sans" font-size="10.00" fill="#6666ff">http://www.ncbi.nlm.nih.gov/clinvar/variation/424707</text>
</a>
</g>
<polygon fill="none" stroke="#666666" points="2057,-412.5 2057,-448.5 2451,-448.5 2451,-412.5 2057,-412.5"/>
</g>
<!-- node5&#45;&gt;node8 -->
<g id="edge33" class="edge"><title>node5&#45;&gt;node8</title>
<path fill="none" stroke="BLACK" d="M1833.94,-522.499C1922.94,-503.218 2054.6,-474.697 2146.73,-454.739"/>
<polygon fill="BLACK" stroke="BLACK" points="2147.61,-458.13 2156.64,-452.592 2146.12,-451.289 2147.61,-458.13"/>
<text text-anchor="start" x="2027" y="-484.8" font-family="Times,serif" font-size="14.00"> </text>
<text text-anchor="start" x="2031" y="-484.8" font-family="Times,serif" font-size="10.00" fill="#336633">OBAN:association_has_subject</text>
<text text-anchor="start" x="2163" y="-484.8" font-family="Times,serif" font-size="14.00"> </text>
</g>
<!-- node9 -->
<g id="node8" class="node"><title>node9</title>
<polygon fill="grey" stroke="none" points="3127,-267 3127,-286 3510,-286 3510,-267 3127,-267"/>
<text text-anchor="start" x="3129" y="-273.8" font-family="DejaVu Sans" font-weight="bold" font-size="14.00">&quot;Primary autosomal recessive microcephaly 5&quot;</text>
<g id="a_node8_15"><a xlink:href="http://omim.org/entry/608716" xlink:title="&lt;TABLE&gt;">
<polygon fill="#eeeeee" stroke="none" points="3127,-252 3127,-267 3510,-267 3510,-252 3127,-252"/>
<text text-anchor="start" x="3247.5" y="-257" font-family="DejaVu Sans" font-size="10.00" fill="#6666ff">http://omim.org/entry/608716</text>
</a>
</g>
<polygon fill="none" stroke="#666666" points="3125.5,-251 3125.5,-287 3510.5,-287 3510.5,-251 3125.5,-251"/>
</g>
<!-- node5&#45;&gt;node9 -->
<g id="edge10" class="edge"><title>node5&#45;&gt;node9</title>
<path fill="none" stroke="BLACK" d="M1904.15,-531.409C2052.93,-519.095 2276.08,-496.81 2468,-462 2580.32,-441.628 2604.87,-420.42 2717,-399 2889.14,-366.116 2937.89,-390.112 3108,-348 3161.24,-334.821 3219.54,-312.494 3261.18,-295.096"/>
<polygon fill="BLACK" stroke="BLACK" points="3262.74,-298.236 3270.6,-291.127 3260.02,-291.786 3262.74,-298.236"/>
<text text-anchor="start" x="2717" y="-427.8" font-family="Times,serif" font-size="14.00"> </text>
<text text-anchor="start" x="2721" y="-427.8" font-family="Times,serif" font-size="10.00" fill="#336633">OBAN:association_has_object</text>
<text text-anchor="start" x="2849" y="-427.8" font-family="Times,serif" font-size="14.00"> </text>
</g>
<!-- node5&#45;&gt;node17 -->
<g id="edge27" class="edge"><title>node5&#45;&gt;node17</title>
<path fill="none" stroke="BLACK" d="M1714.14,-522.399C1637.95,-452.08 1392.66,-225.672 1306.37,-146.03"/>
<polygon fill="BLACK" stroke="BLACK" points="1308.72,-143.439 1299,-139.228 1303.97,-148.582 1308.72,-143.439"/>
<text text-anchor="start" x="1560" y="-370.8" font-family="Times,serif" font-size="14.00"> </text>
<text text-anchor="start" x="1564" y="-370.8" font-family="Times,serif" font-size="10.00" fill="#336633">dc:source</text>
<text text-anchor="start" x="1604" y="-370.8" font-family="Times,serif" font-size="14.00"> </text>
</g>
<!-- node22 -->
<g id="node23" class="node"><title>node22</title>
<polygon fill="grey" stroke="none" points="2872,-428.5 2872,-447.5 3115,-447.5 3115,-428.5 2872,-428.5"/>
<text text-anchor="start" x="2933" y="-435.3" font-family="DejaVu Sans" font-weight="bold" font-size="14.00">RCV000162061</text>
<g id="a_node23_16"><a xlink:href="http://www.ncbi.nlm.nih.gov/clinvar/RCV000162061" xlink:title="&lt;TABLE&gt;">
<polygon fill="#eeeeee" stroke="none" points="2872,-413.5 2872,-428.5 3115,-428.5 3115,-413.5 2872,-413.5"/>
<text text-anchor="start" x="2874" y="-418.5" font-family="DejaVu Sans" font-size="10.00" fill="#6666ff">http://www.ncbi.nlm.nih.gov/clinvar/RCV000162061</text>
</a>
</g>
<polygon fill="none" stroke="#666666" points="2870.5,-412.5 2870.5,-448.5 3115.5,-448.5 3115.5,-412.5 2870.5,-412.5"/>
</g>
<!-- node5&#45;&gt;node22 -->
<g id="edge19" class="edge"><title>node5&#45;&gt;node22</title>
<path fill="none" stroke="BLACK" d="M1904.06,-538.932C2142.66,-531.78 2569.09,-516.499 2722,-495 2785.74,-486.038 2856.53,-469.209 2909.76,-455.127"/>
<polygon fill="BLACK" stroke="BLACK" points="2910.73,-458.491 2919.49,-452.532 2908.93,-451.727 2910.73,-458.491"/>
<text text-anchor="start" x="2805" y="-484.8" font-family="Times,serif" font-size="14.00"> </text>
<text text-anchor="start" x="2809" y="-484.8" font-family="Times,serif" font-size="10.00" fill="#336633">oboInOwl:hasdbxref</text>
<text text-anchor="start" x="2894" y="-484.8" font-family="Times,serif" font-size="14.00"> </text>
</g>
<!-- node25 -->
<g id="node26" class="node"><title>node25</title>
<polygon fill="grey" stroke="none" points="3151,-428.5 3151,-447.5 3369,-447.5 3369,-428.5 3151,-428.5"/>
<text text-anchor="start" x="3199" y="-435.3" font-family="DejaVu Sans" font-weight="bold" font-size="14.00">GENO_0000840</text>
<g id="a_node26_17"><a xlink:href="http://purl.obolibrary.org/obo/GENO_0000840" xlink:title="&lt;TABLE&gt;">
<polygon fill="#eeeeee" stroke="none" points="3151,-413.5 3151,-428.5 3369,-428.5 3369,-413.5 3151,-413.5"/>
<text text-anchor="start" x="3153" y="-418.5" font-family="DejaVu Sans" font-size="10.00" fill="#6666ff">http://purl.obolibrary.org/obo/GENO_0000840</text>
</a>
</g>
<polygon fill="none" stroke="#666666" points="3150,-412.5 3150,-448.5 3370,-448.5 3370,-412.5 3150,-412.5"/>
</g>
<!-- node5&#45;&gt;node25 -->
<g id="edge30" class="edge"><title>node5&#45;&gt;node25</title>
<path fill="none" stroke="BLACK" d="M1904.23,-541.832C2130.81,-538.363 2547.73,-527.705 2902,-495 3004.83,-485.507 3030.55,-481.322 3132,-462 3143.31,-459.846 3155.12,-457.359 3166.81,-454.752"/>
<polygon fill="BLACK" stroke="BLACK" points="3167.6,-458.161 3176.58,-452.539 3166.05,-451.334 3167.6,-458.161"/>
<text text-anchor="start" x="3030" y="-484.8" font-family="Times,serif" font-size="14.00"> </text>
<text text-anchor="start" x="3034" y="-484.8" font-family="Times,serif" font-size="10.00" fill="#336633">OBAN:association_has_predicate</text>
<text text-anchor="start" x="3174" y="-484.8" font-family="Times,serif" font-size="14.00"> </text>
</g>
<!-- node8&#45;&gt;node1 -->
<g id="edge20" class="edge"><title>node8&#45;&gt;node1</title>
<path fill="none" stroke="BLACK" d="M2184.6,-408.499C2163.34,-400.984 2140.24,-391.688 2120,-381 2100.07,-370.475 2079.8,-357.653 2060.8,-344.512"/>
<polygon fill="BLACK" stroke="BLACK" points="2062.64,-341.534 2052.45,-338.664 2058.63,-347.268 2062.64,-341.534"/>
<text text-anchor="start" x="2120" y="-370.8" font-family="Times,serif" font-size="14.00"> </text>
<text text-anchor="start" x="2124" y="-370.8" font-family="Times,serif" font-size="10.00" fill="#336633">OBO:GENO_0000382</text>
<text text-anchor="start" x="2220" y="-370.8" font-family="Times,serif" font-size="14.00"> </text>
</g>
<!-- node8&#45;&gt;node9 -->
<g id="edge4" class="edge"><title>node8&#45;&gt;node9</title>
<path fill="none" stroke="BLACK" d="M2459.31,-410.462C2495.89,-403.494 2533.11,-393.982 2567,-381 2578.4,-376.634 2578.36,-369.68 2590,-366 2699.82,-331.267 2995.01,-370.339 3108,-348 3163.22,-337.083 3223.12,-313.58 3264.76,-295.211"/>
<polygon fill="BLACK" stroke="BLACK" points="3266.44,-298.293 3274.15,-291.021 3263.59,-291.901 3266.44,-298.293"/>
<text text-anchor="start" x="2590" y="-370.8" font-family="Times,serif" font-size="14.00"> </text>
<text text-anchor="start" x="2594" y="-370.8" font-family="Times,serif" font-size="10.00" fill="#336633">OBO:GENO_0000840</text>
<text text-anchor="start" x="2690" y="-370.8" font-family="Times,serif" font-size="14.00"> </text>
</g>
<!-- node8&#45;&gt;node13 -->
<g id="edge11" class="edge"><title>node8&#45;&gt;node13</title>
<path fill="none" stroke="BLACK" d="M2245.12,-408.331C2225.09,-356.862 2183.31,-224.461 2252,-157 2256.33,-152.744 2297.55,-146.301 2347.76,-139.871"/>
<polygon fill="BLACK" stroke="BLACK" points="2348.44,-143.314 2357.92,-138.586 2347.56,-136.369 2348.44,-143.314"/>
<text text-anchor="start" x="2228" y="-266.3" font-family="Times,serif" font-size="14.00"> </text>
<text text-anchor="start" x="2232" y="-266.3" font-family="Times,serif" font-size="10.00" fill="#336633">OBO:GENO_0000418</text>
<text text-anchor="start" x="2328" y="-266.3" font-family="Times,serif" font-size="14.00"> </text>
</g>
<!-- node7 -->
<g id="node13" class="node"><title>node7</title>
<polygon fill="grey" stroke="none" points="2624,-324 2624,-343 3091,-343 3091,-324 2624,-324"/>
<text text-anchor="start" x="2657.5" y="-330.8" font-family="DejaVu Sans" font-weight="bold" font-size="14.00">&quot;NM_018136.4(ASPM):c.8098C&gt;T (p.Arg2700Ter)&quot;</text>
<g id="a_node13_18"><a xlink:href="http://www.ncbi.nlm.nih.gov/clinvar/variation/242641" xlink:title="&lt;TABLE&gt;">
<polygon fill="#eeeeee" stroke="none" points="2624,-309 2624,-324 3091,-324 3091,-309 2624,-309"/>
<text text-anchor="start" x="2734" y="-314" font-family="DejaVu Sans" font-size="10.00" fill="#6666ff">http://www.ncbi.nlm.nih.gov/clinvar/variation/242641</text>
</a>
</g>
<text text-anchor="start" x="2626" y="-295.8" font-family="DejaVu Sans" font-size="14.00">oboInOwl:hasExactSynonym</text>
<text text-anchor="start" x="2828" y="-295.8" font-family="DejaVu Sans" font-size="14.00">&quot;NC_000001.10:g.197070283G&gt;A&quot;</text>
<text text-anchor="start" x="2626" y="-276.8" font-family="DejaVu Sans" font-size="14.00">oboInOwl:hasExactSynonym</text>
<text text-anchor="start" x="2828" y="-276.8" font-family="DejaVu Sans" font-size="14.00">&quot;NC_000001.11:g.197101153G&gt;A&quot;</text>
<text text-anchor="start" x="2626" y="-257.8" font-family="DejaVu Sans" font-size="14.00">oboInOwl:hasExactSynonym</text>
<text text-anchor="start" x="2828" y="-257.8" font-family="DejaVu Sans" font-size="14.00">&quot;NG_015867.1:g.50542C&gt;T&quot;</text>
<text text-anchor="start" x="2626" y="-238.8" font-family="DejaVu Sans" font-size="14.00">oboInOwl:hasExactSynonym</text>
<text text-anchor="start" x="2828" y="-238.8" font-family="DejaVu Sans" font-size="14.00">&quot;NM_001206846.1:c.4066&#45;4989C&gt;T&quot;</text>
<text text-anchor="start" x="2626" y="-219.8" font-family="DejaVu Sans" font-size="14.00">oboInOwl:hasExactSynonym</text>
<text text-anchor="start" x="2828" y="-219.8" font-family="DejaVu Sans" font-size="14.00">&quot;NM_018136.4:c.8098C&gt;T&quot;</text>
<text text-anchor="start" x="2626" y="-200.8" font-family="DejaVu Sans" font-size="14.00">oboInOwl:hasExactSynonym</text>
<text text-anchor="start" x="2828" y="-200.8" font-family="DejaVu Sans" font-size="14.00">&quot;NP_060606.3:p.Arg2700Ter&quot;</text>
<polygon fill="none" stroke="#666666" points="2622.5,-194 2622.5,-344 3091.5,-344 3091.5,-194 2622.5,-194"/>
</g>
<!-- node8&#45;&gt;node7 -->
<g id="edge23" class="edge"><title>node8&#45;&gt;node7</title>
<path fill="none" stroke="BLACK" d="M2354.55,-408.473C2382.13,-401.241 2411.67,-392.103 2438,-381 2449.94,-375.965 2450.76,-370.239 2463,-366 2520.18,-346.206 2540.8,-359.956 2604.32,-347.962"/>
<polygon fill="BLACK" stroke="BLACK" points="2605.35,-351.325 2614.45,-345.904 2603.95,-344.465 2605.35,-351.325"/>
<text text-anchor="start" x="2463" y="-370.8" font-family="Times,serif" font-size="14.00"> </text>
<text text-anchor="start" x="2467" y="-370.8" font-family="Times,serif" font-size="10.00" fill="#336633">OBO:GENO_0000382</text>
<text text-anchor="start" x="2563" y="-370.8" font-family="Times,serif" font-size="14.00"> </text>
</g>
<!-- node15 -->
<g id="node15" class="node"><title>node15</title>
<polygon fill="grey" stroke="none" points="2369,-267 2369,-286 2587,-286 2587,-267 2369,-267"/>
<text text-anchor="start" x="2417" y="-273.8" font-family="DejaVu Sans" font-weight="bold" font-size="14.00">GENO_0000402</text>
<g id="a_node15_19"><a xlink:href="http://purl.obolibrary.org/obo/GENO_0000402" xlink:title="&lt;TABLE&gt;">
<polygon fill="#eeeeee" stroke="none" points="2369,-252 2369,-267 2587,-267 2587,-252 2369,-252"/>
<text text-anchor="start" x="2371" y="-257" font-family="DejaVu Sans" font-size="10.00" fill="#6666ff">http://purl.obolibrary.org/obo/GENO_0000402</text>
</a>
</g>
<polygon fill="none" stroke="#666666" points="2368,-251 2368,-287 2588,-287 2588,-251 2368,-251"/>
</g>
<!-- node8&#45;&gt;node15 -->
<g id="edge9" class="edge"><title>node8&#45;&gt;node15</title>
<path fill="none" stroke="BLACK" d="M2254.69,-408.455C2256.27,-394.565 2260.61,-376.969 2272,-366 2296.38,-342.52 2314.64,-360.748 2346,-348 2379.2,-334.503 2413.98,-313.63 2439.51,-296.872"/>
<polygon fill="BLACK" stroke="BLACK" points="2441.74,-299.588 2448.13,-291.135 2437.87,-293.76 2441.74,-299.588"/>
<text text-anchor="start" x="2272" y="-370.8" font-family="Times,serif" font-size="14.00"> </text>
<text text-anchor="start" x="2276" y="-370.8" font-family="Times,serif" font-size="10.00" fill="#336633">OBO:GENO_0000608</text>
<text text-anchor="start" x="2372" y="-370.8" font-family="Times,serif" font-size="14.00"> </text>
</g>
<!-- node8&#45;&gt;node15 -->
<g id="edge26" class="edge"><title>node8&#45;&gt;node15</title>
<path fill="none" stroke="BLACK" d="M2322.59,-408.449C2340.79,-401.238 2359.86,-392.117 2376,-381 2408.59,-358.562 2438.26,-323.916 2457.09,-299.305"/>
<polygon fill="BLACK" stroke="BLACK" points="2460.08,-301.153 2463.29,-291.055 2454.48,-296.949 2460.08,-301.153"/>
<text text-anchor="start" x="2393" y="-370.8" font-family="Times,serif" font-size="14.00"> </text>
<text text-anchor="start" x="2397" y="-370.8" font-family="Times,serif" font-size="10.00" fill="#336633">rdf:type</text>
<text text-anchor="start" x="2430" y="-370.8" font-family="Times,serif" font-size="14.00"> </text>
</g>
<!-- node8&#45;&gt;node21 -->
<g id="edge24" class="edge"><title>node8&#45;&gt;node21</title>
<path fill="none" stroke="BLACK" d="M2048.82,-415.642C1878.41,-402.035 1659.4,-378.842 1631,-348 1580.94,-293.642 1597.44,-197.865 1610.48,-148.826"/>
<polygon fill="BLACK" stroke="BLACK" points="1613.87,-149.675 1613.18,-139.102 1607.13,-147.799 1613.87,-149.675"/>
<text text-anchor="start" x="1631" y="-266.3" font-family="Times,serif" font-size="14.00"> </text>
<text text-anchor="start" x="1635" y="-266.3" font-family="Times,serif" font-size="10.00" fill="#336633">OBO:RO_0002162</text>
<text text-anchor="start" x="1717" y="-266.3" font-family="Times,serif" font-size="14.00"> </text>
</g>
<!-- node10 -->
<g id="node9" class="node"><title>node10</title>
<polygon fill="grey" stroke="none" points="3371,-551.5 3371,-570.5 3637,-570.5 3637,-551.5 3371,-551.5"/>
<text text-anchor="start" x="3432" y="-558.3" font-family="DejaVu Sans" font-weight="bold" font-size="14.00">RCV000162061.nt</text>
<g id="a_node9_20"><a xlink:href="https://data.monarchinitiative.org/ttl/RCV000162061.nt" xlink:title="&lt;TABLE&gt;">
<polygon fill="#eeeeee" stroke="none" points="3371,-536.5 3371,-551.5 3637,-551.5 3637,-536.5 3371,-536.5"/>
<text text-anchor="start" x="3373" y="-541.5" font-family="DejaVu Sans" font-size="10.00" fill="#6666ff">https://data.monarchinitiative.org/ttl/RCV000162061.nt</text>
</a>
</g>
<text text-anchor="start" x="3373" y="-523.3" font-family="DejaVu Sans" font-size="14.00">owl:versionInfo</text>
<text text-anchor="start" x="3511" y="-523.3" font-family="DejaVu Sans" font-size="14.00">&quot;2019&#45;07&#45;01&quot;</text>
<polygon fill="none" stroke="#666666" points="3370,-517 3370,-572 3638,-572 3638,-517 3370,-517"/>
</g>
<!-- node11 -->
<g id="node10" class="node"><title>node11</title>
<polygon fill="grey" stroke="none" points="3405,-428.5 3405,-447.5 3603,-447.5 3603,-428.5 3405,-428.5"/>
<text text-anchor="start" x="3467" y="-435.3" font-family="DejaVu Sans" font-weight="bold" font-size="14.00">Ontology</text>
<g id="a_node10_21"><a xlink:href="http://www.w3.org/2002/07/owl#Ontology" xlink:title="&lt;TABLE&gt;">
<polygon fill="#eeeeee" stroke="none" points="3405,-413.5 3405,-428.5 3603,-428.5 3603,-413.5 3405,-413.5"/>
<text text-anchor="start" x="3407" y="-418.5" font-family="DejaVu Sans" font-size="10.00" fill="#6666ff">http://www.w3.org/2002/07/owl#Ontology</text>
</a>
</g>
<polygon fill="none" stroke="#666666" points="3404,-412.5 3404,-448.5 3604,-448.5 3604,-412.5 3404,-412.5"/>
</g>
<!-- node10&#45;&gt;node11 -->
<g id="edge5" class="edge"><title>node10&#45;&gt;node11</title>
<path fill="none" stroke="BLACK" d="M3504,-512.896C3504,-497.319 3504,-478.416 3504,-462.749"/>
<polygon fill="BLACK" stroke="BLACK" points="3507.5,-462.501 3504,-452.501 3500.5,-462.501 3507.5,-462.501"/>
<text text-anchor="start" x="3504" y="-484.8" font-family="Times,serif" font-size="14.00"> </text>
<text text-anchor="start" x="3508" y="-484.8" font-family="Times,serif" font-size="10.00" fill="#336633">rdf:type</text>
<text text-anchor="start" x="3541" y="-484.8" font-family="Times,serif" font-size="14.00"> </text>
</g>
<!-- node23 -->
<g id="node24" class="node"><title>node23</title>
<polygon fill="grey" stroke="none" points="519,-20 519,-39 737,-39 737,-20 519,-20"/>
<text text-anchor="start" x="566" y="-26.8" font-family="DejaVu Sans" font-weight="bold" font-size="14.00">SEPIO_0000066</text>
<g id="a_node24_22"><a xlink:href="http://purl.obolibrary.org/obo/SEPIO_0000066" xlink:title="&lt;TABLE&gt;">
<polygon fill="#eeeeee" stroke="none" points="519,-5 519,-20 737,-20 737,-5 519,-5"/>
<text text-anchor="start" x="521" y="-10" font-family="DejaVu Sans" font-size="10.00" fill="#6666ff">http://purl.obolibrary.org/obo/SEPIO_0000066</text>
</a>
</g>
<polygon fill="none" stroke="#666666" points="518,-4 518,-40 738,-40 738,-4 518,-4"/>
</g>
<!-- node12&#45;&gt;node23 -->
<g id="edge21" class="edge"><title>node12&#45;&gt;node23</title>
<path fill="none" stroke="BLACK" d="M628,-94.8969C628,-82.8873 628,-67.6175 628,-54.242"/>
<polygon fill="BLACK" stroke="BLACK" points="631.5,-54.0196 628,-44.0196 624.5,-54.0197 631.5,-54.0196"/>
<text text-anchor="start" x="628" y="-66.8" font-family="Times,serif" font-size="14.00"> </text>
<text text-anchor="start" x="632" y="-66.8" font-family="Times,serif" font-size="10.00" fill="#336633">rdf:type</text>
<text text-anchor="start" x="665" y="-66.8" font-family="Times,serif" font-size="14.00"> </text>
</g>
<!-- node7&#45;&gt;node2 -->
<g id="edge29" class="edge"><title>node7&#45;&gt;node2</title>
<path fill="none" stroke="BLACK" d="M2859.08,-189.925C2859.47,-175.536 2859.85,-161.299 2860.16,-149.336"/>
<polygon fill="BLACK" stroke="BLACK" points="2863.67,-149.139 2860.44,-139.049 2856.67,-148.953 2863.67,-149.139"/>
<text text-anchor="start" x="2860" y="-161.8" font-family="Times,serif" font-size="14.00"> </text>
<text text-anchor="start" x="2864" y="-161.8" font-family="Times,serif" font-size="10.00" fill="#336633">rdf:type</text>
<text text-anchor="start" x="2897" y="-161.8" font-family="Times,serif" font-size="14.00"> </text>
</g>
<!-- node7&#45;&gt;node13 -->
<g id="edge12" class="edge"><title>node7&#45;&gt;node13</title>
<path fill="none" stroke="BLACK" d="M2694.6,-189.925C2659.64,-173.114 2625.1,-156.509 2598.03,-143.497"/>
<polygon fill="BLACK" stroke="BLACK" points="2599.31,-140.228 2588.78,-139.049 2596.28,-146.537 2599.31,-140.228"/>
<text text-anchor="start" x="2655" y="-161.8" font-family="Times,serif" font-size="14.00"> </text>
<text text-anchor="start" x="2659" y="-161.8" font-family="Times,serif" font-size="10.00" fill="#336633">OBO:GENO_0000418</text>
<text text-anchor="start" x="2755" y="-161.8" font-family="Times,serif" font-size="14.00"> </text>
</g>
<!-- node14 -->
<g id="node14" class="node"><title>node14</title>
<polygon fill="grey" stroke="none" points="3000,-115 3000,-134 3563,-134 3563,-115 3000,-115"/>
<text text-anchor="start" x="3002" y="-121.8" font-family="DejaVu Sans" font-weight="bold" font-size="14.00">http://www.ncbi.nlm.nih.gov/projects/SNP/snp_ref.cgi?rs=730882076</text>
<g id="a_node14_23"><a xlink:href="http://www.ncbi.nlm.nih.gov/projects/SNP/snp_ref.cgi?rs=730882076" xlink:title="&lt;TABLE&gt;">
<polygon fill="#eeeeee" stroke="none" points="3000,-100 3000,-115 3563,-115 3563,-100 3000,-100"/>
<text text-anchor="start" x="3119" y="-105" font-family="DejaVu Sans" font-size="10.00" fill="#6666ff">http://www.ncbi.nlm.nih.gov/projects/SNP/snp_ref.cgi?rs=730882076</text>
</a>
</g>
<polygon fill="none" stroke="#666666" points="2998.5,-99 2998.5,-135 3563.5,-135 3563.5,-99 2998.5,-99"/>
</g>
<!-- node7&#45;&gt;node14 -->
<g id="edge8" class="edge"><title>node7&#45;&gt;node14</title>
<path fill="none" stroke="BLACK" d="M3077.69,-189.925C3126.46,-172.673 3174.61,-155.639 3211.8,-142.481"/>
<polygon fill="BLACK" stroke="BLACK" points="3213.24,-145.684 3221.5,-139.049 3210.91,-139.085 3213.24,-145.684"/>
<text text-anchor="start" x="3168" y="-161.8" font-family="Times,serif" font-size="14.00"> </text>
<text text-anchor="start" x="3172" y="-161.8" font-family="Times,serif" font-size="10.00" fill="#336633">owl:sameAs</text>
<text text-anchor="start" x="3223" y="-161.8" font-family="Times,serif" font-size="14.00"> </text>
</g>
<!-- node7&#45;&gt;node21 -->
<g id="edge22" class="edge"><title>node7&#45;&gt;node21</title>
<path fill="none" stroke="BLACK" d="M2614.49,-191.912C2611.31,-191.251 2608.15,-190.613 2605,-190 2512.18,-171.915 2487.2,-180.281 2393,-172 2319.65,-165.552 2301.48,-161.718 2228,-157 2018.72,-143.565 1962.73,-159.638 1750.34,-139.059"/>
<polygon fill="BLACK" stroke="BLACK" points="1750.4,-135.548 1740.1,-138.051 1749.71,-142.515 1750.4,-135.548"/>
<text text-anchor="start" x="2393" y="-161.8" font-family="Times,serif" font-size="14.00"> </text>
<text text-anchor="start" x="2397" y="-161.8" font-family="Times,serif" font-size="10.00" fill="#336633">OBO:RO_0002162</text>
<text text-anchor="start" x="2479" y="-161.8" font-family="Times,serif" font-size="14.00"> </text>
</g>
<!-- node18 -->
<g id="node18" class="node"><title>node18</title>
<polygon fill="grey" stroke="none" points="1173,-20 1173,-39 1379,-39 1379,-20 1173,-20"/>
<text text-anchor="start" x="1223.5" y="-26.8" font-family="DejaVu Sans" font-weight="bold" font-size="14.00">IAO_0000013</text>
<g id="a_node18_24"><a xlink:href="http://purl.obolibrary.org/obo/IAO_0000013" xlink:title="&lt;TABLE&gt;">
<polygon fill="#eeeeee" stroke="none" points="1173,-5 1173,-20 1379,-20 1379,-5 1173,-5"/>
<text text-anchor="start" x="1175" y="-10" font-family="DejaVu Sans" font-size="10.00" fill="#6666ff">http://purl.obolibrary.org/obo/IAO_0000013</text>
</a>
</g>
<polygon fill="none" stroke="#666666" points="1172,-4 1172,-40 1380,-40 1380,-4 1172,-4"/>
</g>
<!-- node17&#45;&gt;node18 -->
<g id="edge15" class="edge"><title>node17&#45;&gt;node18</title>
<path fill="none" stroke="BLACK" d="M1276,-94.8969C1276,-82.8873 1276,-67.6175 1276,-54.242"/>
<polygon fill="BLACK" stroke="BLACK" points="1279.5,-54.0196 1276,-44.0196 1272.5,-54.0197 1279.5,-54.0196"/>
<text text-anchor="start" x="1276" y="-66.8" font-family="Times,serif" font-size="14.00"> </text>
<text text-anchor="start" x="1280" y="-66.8" font-family="Times,serif" font-size="10.00" fill="#336633">rdf:type</text>
<text text-anchor="start" x="1313" y="-66.8" font-family="Times,serif" font-size="14.00"> </text>
</g>
<!-- node20 -->
<g id="node21" class="node"><title>node20</title>
<polygon fill="grey" stroke="none" points="237,-115 237,-134 424,-134 424,-115 237,-115"/>
<text text-anchor="start" x="279" y="-121.8" font-family="DejaVu Sans" font-weight="bold" font-size="14.00">organization</text>
<g id="a_node21_25"><a xlink:href="http://xmlns.com/foaf/0.1/organization" xlink:title="&lt;TABLE&gt;">
<polygon fill="#eeeeee" stroke="none" points="237,-100 237,-115 424,-115 424,-100 237,-100"/>
<text text-anchor="start" x="239" y="-105" font-family="DejaVu Sans" font-size="10.00" fill="#6666ff">http://xmlns.com/foaf/0.1/organization</text>
</a>
</g>
<polygon fill="none" stroke="#666666" points="235.5,-99 235.5,-135 424.5,-135 424.5,-99 235.5,-99"/>
</g>
<!-- node0&#45;&gt;node20 -->
<g id="edge17" class="edge"><title>node0&#45;&gt;node20</title>
<path fill="none" stroke="BLACK" d="M504.346,-246.827C468.226,-220.137 406.093,-174.226 366.58,-145.029"/>
<polygon fill="BLACK" stroke="BLACK" points="368.631,-142.193 358.509,-139.065 364.471,-147.823 368.631,-142.193"/>
<text text-anchor="start" x="402" y="-161.8" font-family="Times,serif" font-size="14.00"> </text>
<text text-anchor="start" x="406" y="-161.8" font-family="Times,serif" font-size="10.00" fill="#336633">rdf:type</text>
<text text-anchor="start" x="439" y="-161.8" font-family="Times,serif" font-size="14.00"> </text>
</g>
</g>
</svg>
