<?xml version="1.0" encoding="UTF-8" standalone="no"?>
<!DOCTYPE svg PUBLIC "-//W3C//DTD SVG 1.1//EN"
 "http://www.w3.org/Graphics/SVG/1.1/DTD/svg11.dtd">
<!-- Generated by graphviz version 2.38.0 (20140413.2041)
 -->
<!-- Title: %3 Pages: 1 -->
<svg width="4351pt" height="546pt"
 viewBox="0.00 0.00 4351.00 546.00" xmlns="http://www.w3.org/2000/svg" xmlns:xlink="http://www.w3.org/1999/xlink">
<g id="graph0" class="graph" transform="scale(1 1) rotate(0) translate(4 542)">
<title>%3</title>
<polygon fill="white" stroke="none" points="-4,4 -4,-542 4347,-542 4347,4 -4,4"/>
<!-- node0 -->
<g id="node1" class="node"><title>node0</title>
<polygon fill="grey" stroke="none" points="1205.5,-400 1205.5,-419 1648.5,-419 1648.5,-400 1205.5,-400"/>
<text text-anchor="start" x="1272" y="-406.8" font-family="DejaVu Sans" font-weight="bold" font-size="14.00">&quot;NM_000182.4(HADHA):c.2146+1G&gt;A&quot;</text>
<g id="a_node1_0"><a xlink:href="http://www.ncbi.nlm.nih.gov/clinvar/variation/192079" xlink:title="&lt;TABLE&gt;">
<polygon fill="#eeeeee" stroke="none" points="1215.5,-366 1215.5,-381 1557.5,-381 1557.5,-366 1215.5,-366"/>
<text text-anchor="start" x="1303.5" y="-390" font-family="DejaVu Sans" font-size="10.00" fill="#6666ff">http://www.ncbi.nlm.nih.gov/clinvar/variation/192079</text>
</a>
</g>
<text text-anchor="start" x="1207.5" y="-371.8" font-family="DejaVu Sans" font-size="14.00">oboInOwl:hasExactSynonym</text>
<text text-anchor="start" x="1409.5" y="-371.8" font-family="DejaVu Sans" font-size="14.00">&quot;NC_000002.11:g.26414351C&gt;T&quot;</text>
<text text-anchor="start" x="1207.5" y="-352.8" font-family="DejaVu Sans" font-size="14.00">oboInOwl:hasExactSynonym</text>
<text text-anchor="start" x="1409.5" y="-352.8" font-family="DejaVu Sans" font-size="14.00">&quot;NC_000002.12:g.26191482C&gt;T&quot;</text>
<text text-anchor="start" x="1207.5" y="-333.8" font-family="DejaVu Sans" font-size="14.00">oboInOwl:hasExactSynonym</text>
<text text-anchor="start" x="1409.5" y="-333.8" font-family="DejaVu Sans" font-size="14.00">&quot;NG_007121.1:g.58139G&gt;A&quot;</text>
<text text-anchor="start" x="1207.5" y="-314.8" font-family="DejaVu Sans" font-size="14.00">oboInOwl:hasExactSynonym</text>
<text text-anchor="start" x="1409.5" y="-314.8" font-family="DejaVu Sans" font-size="14.00">&quot;NM_000182.4:c.2146+1G&gt;A&quot;</text>
<polygon fill="none" stroke="#666666" points="1214.5,-327 1214.5,-401 1558.5,-401 1558.5,-327 1214.5,-327"/>
</g>
<!-- node1 -->
<g id="node2" class="node"><title>node1</title>
<polygon fill="grey" stroke="none" points="9.5,-219.5 9.5,-238.5 572.5,-238.5 572.5,-219.5 9.5,-219.5"/>
<text text-anchor="start" x="11.5" y="-226.3" font-family="DejaVu Sans" font-weight="bold" font-size="14.00">http://www.ncbi.nlm.nih.gov/projects/SNP/snp_ref.cgi?rs=794727219</text>
<g id="a_node2_1"><a xlink:href="http://www.ncbi.nlm.nih.gov/projects/SNP/snp_ref.cgi?rs=794727219" xlink:title="&lt;TABLE&gt;">
<polygon fill="#eeeeee" stroke="none" points="624.5,-204.5 624.5,-219.5 842.5,-219.5 842.5,-204.5 624.5,-204.5"/>
<text text-anchor="start" x="128.5" y="-209.5" font-family="DejaVu Sans" font-size="10.00" fill="#6666ff">http://www.ncbi.nlm.nih.gov/projects/SNP/snp_ref.cgi?rs=794727219</text>
</a>
</g>
<polygon fill="none" stroke="#666666" points="623.5,-203.5 623.5,-239.5 843.5,-239.5 843.5,-203.5 623.5,-203.5"/>
</g>
<!-- node0&#45;&gt;node1 -->
<g id="edge1" class="edge"><title>node0&#45;&gt;node1</title>
<path fill="none" stroke="BLACK" d="M1195.93,-334.483C981.747,-307.993 667.153,-269.084 470.8,-244.799"/>
<polygon fill="BLACK" stroke="BLACK" points="471.021,-241.3 460.667,-243.546 470.161,-248.247 471.021,-241.3"/>
<text text-anchor="start" x="790.5" y="-275.8" font-family="Times,serif" font-size="14.00"> </text>
<text text-anchor="start" x="794.5" y="-275.8" font-family="Times,serif" font-size="10.00" fill="#336633">owl:sameAs</text>
<text text-anchor="start" x="845.5" y="-275.8" font-family="Times,serif" font-size="14.00"> </text>
</g>
<!-- node16 -->
<g id="node15" class="node"><title>node16</title>
<polygon fill="grey" stroke="none" points="608.5,-219.5 608.5,-238.5 964.5,-238.5 964.5,-219.5 608.5,-219.5"/>
<text text-anchor="start" x="610.5" y="-226.3" font-family="DejaVu Sans" font-weight="bold" font-size="14.00">https://www.ncbi.nlm.nih.gov/gene/150946</text>
<g id="a_node15_2"><a xlink:href="https://www.ncbi.nlm.nih.gov/gene/150946" xlink:title="&lt;TABLE&gt;">
<polygon fill="#eeeeee" stroke="none" points="879.5,-213.5 879.5,-228.5 1894.5,-228.5 1894.5,-213.5 879.5,-213.5"/>
<text text-anchor="start" x="686" y="-209.5" font-family="DejaVu Sans" font-size="10.00" fill="#6666ff">https://www.ncbi.nlm.nih.gov/gene/150946</text>
</a>
</g>
<polygon fill="none" stroke="#666666" points="878,-194 878,-249 1895,-249 1895,-194 878,-194"/>
</g>
<!-- node0&#45;&gt;node7 -->
<g id="edge12" class="edge"><title>node0&#45;&gt;node16</title>
<path fill="none" stroke="BLACK" d="M1195.9,-312.376C1092.12,-289.593 974.698,-263.815 892.306,-245.728"/>
<polygon fill="BLACK" stroke="BLACK" points="892.953,-242.286 882.435,-243.561 891.452,-249.124 892.953,-242.286"/>
<text text-anchor="start" x="1068.5" y="-275.8" font-family="Times,serif" font-size="14.00"> </text>
<text text-anchor="start" x="1072.5" y="-275.8" font-family="Times,serif" font-size="10.00" fill="#336633">OBO:BFO_0000050</text>
<text text-anchor="start" x="1159.5" y="-275.8" font-family="Times,serif" font-size="14.00"> </text>
</g>
<!-- node17 -->
<g id="node16" class="node"><title>node17</title>
<polygon fill="grey" stroke="none" points="1000.5,-219.5 1000.5,-238.5 1222.5,-238.5 1222.5,-219.5 1000.5,-219.5"/>
<text text-anchor="start" x="1045" y="-226.3" font-family="DejaVu Sans" font-weight="bold" font-size="14.00">NCBITaxon_9606</text>
<g id="a_node16_3"><a xlink:href="http://purl.obolibrary.org/obo/NCBITaxon_9606" xlink:title="&lt;TABLE&gt;">
<polygon fill="#eeeeee" stroke="none" points="245.5,-204.5 245.5,-219.5 588.5,-219.5 588.5,-204.5 245.5,-204.5"/>
<text text-anchor="start" x="1002.5" y="-209.5" font-family="DejaVu Sans" font-size="10.00" fill="#6666ff">http://purl.obolibrary.org/obo/NCBITaxon_9606</text>
</a>
</g>
<polygon fill="none" stroke="#666666" points="244,-203.5 244,-239.5 589,-239.5 589,-203.5 244,-203.5"/>
</g>
<!-- node0&#45;&gt;node13 -->
<g id="edge14" class="edge"><title>node0&#45;&gt;node17</title>
<path fill="none" stroke="BLACK" d="M1293.82,-303.823C1249.87,-284.217 1203.27,-263.431 1168.18,-247.782"/>
<polygon fill="BLACK" stroke="BLACK" points="1169.16,-244.386 1158.6,-243.509 1166.31,-250.779 1169.16,-244.386"/>
<text text-anchor="start" x="1250.5" y="-275.8" font-family="Times,serif" font-size="14.00"> </text>
<text text-anchor="start" x="1254.5" y="-275.8" font-family="Times,serif" font-size="10.00" fill="#336633">OBO:RO_0002162</text>
<text text-anchor="start" x="1336.5" y="-275.8" font-family="Times,serif" font-size="14.00"> </text>
</g>
<!-- node12 -->
<g id="node18" class="node"><title>node12</title>
<polygon fill="grey" stroke="none" points="1870.5,-219.5 1870.5,-238.5 2352.5,-238.5 2352.5,-219.5 1870.5,-219.5"/>
<text text-anchor="start" x="1872.5" y="-226.3" font-family="DejaVu Sans" font-weight="bold" font-size="14.00">&quot;Long&#45;chain 3&#45;hydroxyacyl&#45;CoA dehydrogenase deficiency&quot;</text>
<g id="a_node18_4"><a xlink:href="http://omim.org/entry/609016" xlink:title="&lt;TABLE&gt;">
<polygon fill="#eeeeee" stroke="none" points="1930.5,-204.5 1930.5,-219.5 2191.5,-219.5 2191.5,-204.5 1930.5,-204.5"/>
<text text-anchor="start" x="2040.5" y="-209.5" font-family="DejaVu Sans" font-size="10.00" fill="#6666ff">http://omim.org/entry/609016</text>
</a>
</g>
<polygon fill="none" stroke="#666666" points="1929,-203.5 1929,-239.5 2192,-239.5 2192,-203.5 1929,-203.5"/>
</g>
<!-- node0&#45;&gt;node14 -->
<g id="edge18" class="edge"><title>node0&#45;&gt;node12</title>
<path fill="none" stroke="BLACK" d="M1657.45,-315.629C1772.5,-292.032 1906.4,-264.568 1998.83,-245.609"/>
<polygon fill="BLACK" stroke="BLACK" points="1999.67,-249.009 2008.77,-243.571 1998.27,-242.152 1999.67,-249.009"/>
<text text-anchor="start" x="1870.5" y="-275.8" font-family="Times,serif" font-size="14.00"> </text>
<text text-anchor="start" x="1874.5" y="-275.8" font-family="Times,serif" font-size="10.00" fill="#336633">OBO:GENO_0000841</text>
<text text-anchor="start" x="1970.5" y="-275.8" font-family="Times,serif" font-size="14.00"> </text>
</g>
<!-- node19 -->
<g id="node19" class="node"><title>node19</title>
<polygon fill="grey" stroke="none" points="1258.5,-219.5 1258.5,-238.5 1594.5,-238.5 1594.5,-219.5 1258.5,-219.5"/>
<text text-anchor="start" x="1260.5" y="-226.3" font-family="DejaVu Sans" font-weight="bold" font-size="14.00">https://www.ncbi.nlm.nih.gov/gene/3030</text>
<g id="a_node19_5"><a xlink:href="https://www.ncbi.nlm.nih.gov/gene/3030" xlink:title="&lt;TABLE&gt;">
<polygon fill="#eeeeee" stroke="none" points="3329.5,-385 3329.5,-400 3772.5,-400 3772.5,-385 3329.5,-385"/>
<text text-anchor="start" x="1332" y="-209.5" font-family="DejaVu Sans" font-size="10.00" fill="#6666ff">https://www.ncbi.nlm.nih.gov/gene/3030</text>
</a>
</g>
<polygon fill="none" stroke="#666666" points="3328,-308 3328,-420 3773,-420 3773,-308 3328,-308"/>
</g>
<!-- node0&#45;&gt;node19 -->
<g id="edge17" class="edge"><title>node0&#45;&gt;node19</title>
<path fill="none" stroke="BLACK" d="M1426.5,-303.823C1426.5,-286.563 1426.5,-268.389 1426.5,-253.609"/>
<polygon fill="BLACK" stroke="BLACK" points="1430,-253.509 1426.5,-243.509 1423,-253.509 1430,-253.509"/>
<text text-anchor="start" x="1426.5" y="-275.8" font-family="Times,serif" font-size="14.00"> </text>
<text text-anchor="start" x="1430.5" y="-275.8" font-family="Times,serif" font-size="10.00" fill="#336633">OBO:GENO_0000418</text>
<text text-anchor="start" x="1526.5" y="-275.8" font-family="Times,serif" font-size="14.00"> </text>
</g>
<!-- node21 -->
<g id="node22" class="node"><title>node21</title>
<polygon fill="grey" stroke="none" points="1630.5,-219.5 1630.5,-238.5 1834.5,-238.5 1834.5,-219.5 1630.5,-219.5"/>
<text text-anchor="start" x="1683" y="-226.3" font-family="DejaVu Sans" font-weight="bold" font-size="14.00">SO_0001483</text>
<g id="a_node22_6"><a xlink:href="http://purl.obolibrary.org/obo/SO_0001483" xlink:title="&lt;TABLE&gt;">
<polygon fill="#eeeeee" stroke="none" points="3439.5,-204.5 3439.5,-219.5 3661.5,-219.5 3661.5,-204.5 3439.5,-204.5"/>
<text text-anchor="start" x="1632.5" y="-209.5" font-family="DejaVu Sans" font-size="10.00" fill="#6666ff">http://purl.obolibrary.org/obo/SO_0001483</text>
</a>
</g>
<polygon fill="none" stroke="#666666" points="3438.5,-203.5 3438.5,-239.5 3662.5,-239.5 3662.5,-203.5 3438.5,-203.5"/>
</g>
<!-- node0&#45;&gt;node21 -->
<g id="edge22" class="edge"><title>node0&#45;&gt;node21</title>
<path fill="none" stroke="BLACK" d="M1555.38,-303.823C1598.08,-284.217 1643.35,-263.431 1677.44,-247.782"/>
<polygon fill="BLACK" stroke="BLACK" points="1679.12,-250.863 1686.74,-243.509 1676.19,-244.501 1679.12,-250.863"/>
<text text-anchor="start" x="1625.5" y="-275.8" font-family="Times,serif" font-size="14.00"> </text>
<text text-anchor="start" x="1629.5" y="-275.8" font-family="Times,serif" font-size="10.00" fill="#336633">rdf:type</text>
<text text-anchor="start" x="1662.5" y="-275.8" font-family="Times,serif" font-size="14.00"> </text>
</g>
<!-- node2 -->
<g id="node3" class="node"><title>node2</title>
<polygon fill="grey" stroke="none" points="2152.5,-115 2152.5,-134 2497.5,-134 2497.5,-115 2152.5,-115"/>
<text text-anchor="start" x="2257" y="-121.8" font-family="DejaVu Sans" font-weight="bold" font-size="14.00">&quot;clinical testing&quot;</text>
<g id="a_node3_7"><a xlink:href="https://monarchinitiative.org/.well-known/genid/bfcd925176aeb5112036" xlink:title="&lt;TABLE&gt;">
<polygon fill="#eeeeee" stroke="none" points="2599.5,-204.5 2599.5,-219.5 2803.5,-219.5 2803.5,-204.5 2599.5,-204.5"/>
<text text-anchor="start" x="2154.5" y="-105" font-family="DejaVu Sans" font-size="10.00" fill="#6666ff">https://monarchinitiative.org/.well&#45;known/genid/bfcd925176aeb5112036</text>
</a>
</g>
<polygon fill="none" stroke="#666666" points="2598.5,-203.5 2598.5,-239.5 2804.5,-239.5 2804.5,-203.5 2598.5,-203.5"/>
</g>
<!-- node3 -->
<g id="node4" class="node"><title>node3</title>
<polygon fill="grey" stroke="none" points="2215.5,-20 2215.5,-39 2433.5,-39 2433.5,-20 2215.5,-20"/>
<text text-anchor="start" x="2262.5" y="-26.8" font-family="DejaVu Sans" font-weight="bold" font-size="14.00">SEPIO_0000067</text>
<g id="a_node4_8"><a xlink:href="http://purl.obolibrary.org/obo/SEPIO_0000067" xlink:title="&lt;TABLE&gt;">
<polygon fill="#eeeeee" stroke="none" points="2840.5,-204.5 2840.5,-219.5 3403.5,-219.5 3403.5,-204.5 2840.5,-204.5"/>
<text text-anchor="start" x="2217.5" y="-10" font-family="DejaVu Sans" font-size="10.00" fill="#6666ff">http://purl.obolibrary.org/obo/SEPIO_0000067</text>
</a>
</g>
<polygon fill="none" stroke="#666666" points="2839,-203.5 2839,-239.5 3404,-239.5 3404,-203.5 2839,-203.5"/>
</g>
<!-- node2&#45;&gt;node3 -->
<g id="edge2" class="edge"><title>node2&#45;&gt;node3</title>
<path fill="none" stroke="BLACK" d="M2324.5,-94.8969C2324.5,-82.8873 2324.5,-67.6175 2324.5,-54.242"/>
<polygon fill="BLACK" stroke="BLACK" points="2328,-54.0196 2324.5,-44.0196 2321,-54.0197 2328,-54.0196"/>
<text text-anchor="start" x="2324.5" y="-66.8" font-family="Times,serif" font-size="14.00"> </text>
<text text-anchor="start" x="2328.5" y="-66.8" font-family="Times,serif" font-size="10.00" fill="#336633">rdf:type</text>
<text text-anchor="start" x="2361.5" y="-66.8" font-family="Times,serif" font-size="14.00"> </text>
</g>
<!-- node4 -->
<g id="node5" class="node"><title>node4</title>
<polygon fill="grey" stroke="none" points="2955.5,-381 2955.5,-400 3297.5,-400 3297.5,-381 2955.5,-381"/>
<text text-anchor="start" x="3013.5" y="-387.8" font-family="DejaVu Sans" font-weight="bold" font-size="14.00">&quot;ClinVarAssertion_1540968&quot;</text>
<g id="a_node5_9"><a xlink:href="https://monarchinitiative.org/.well-known/genid/b13b11feeac6001ef4e1" xlink:title="&lt;TABLE&gt;">
<polygon fill="#eeeeee" stroke="none" points="4089.5,-204.5 4089.5,-219.5 4571.5,-219.5 4571.5,-204.5 4089.5,-204.5"/>
<text text-anchor="start" x="2957.5" y="-371" font-family="DejaVu Sans" font-size="10.00" fill="#6666ff">https://monarchinitiative.org/.well&#45;known/genid/b13b11feeac6001ef4e1</text>
</a>
</g>
<text text-anchor="start" x="2957.5" y="-352.8" font-family="DejaVu Sans" font-size="14.00">OBO:SEPIO_0000021</text>
<text text-anchor="start" x="3135.5" y="-352.8" font-family="DejaVu Sans" font-size="14.00">&quot;2017&#45;04&#45;04&quot;</text>
<text text-anchor="start" x="2957.5" y="-333.8" font-family="DejaVu Sans" font-size="14.00">dc:identifier</text>
<text text-anchor="start" x="3135.5" y="-333.8" font-family="DejaVu Sans" font-size="14.00">&quot;SCV000790664.1&quot;</text>
<polygon fill="none" stroke="#666666" points="4088.5,-203.5 4088.5,-239.5 4572.5,-239.5 4572.5,-203.5 4088.5,-203.5"/>
</g>
<!-- node5 -->
<g id="node6" class="node"><title>node5</title>
<polygon fill="grey" stroke="none" points="2767.5,-219.5 2767.5,-238.5 2985.5,-238.5 2985.5,-219.5 2767.5,-219.5"/>
<text text-anchor="start" x="2814.5" y="-226.3" font-family="DejaVu Sans" font-weight="bold" font-size="14.00">SEPIO_0000001</text>
<g id="a_node6_10"><a xlink:href="http://purl.obolibrary.org/obo/SEPIO_0000001" xlink:title="&lt;TABLE&gt;">
<polygon fill="#eeeeee" stroke="none" points="3697.5,-204.5 3697.5,-219.5 4053.5,-219.5 4053.5,-204.5 3697.5,-204.5"/>
<text text-anchor="start" x="2769.5" y="-209.5" font-family="DejaVu Sans" font-size="10.00" fill="#6666ff">http://purl.obolibrary.org/obo/SEPIO_0000001</text>
</a>
</g>
<polygon fill="none" stroke="#666666" points="3696.5,-203.5 3696.5,-239.5 4054.5,-239.5 4054.5,-203.5 3696.5,-203.5"/>
</g>
<!-- node4&#45;&gt;node5 -->
<g id="edge3" class="edge"><title>node4&#45;&gt;node5</title>
<path fill="none" stroke="BLACK" d="M3055.19,-322.926C3012.75,-299.074 2960.11,-269.491 2922.99,-248.629"/>
<polygon fill="BLACK" stroke="BLACK" points="2924.34,-245.37 2913.91,-243.522 2920.91,-251.473 2924.34,-245.37"/>
<text text-anchor="start" x="2987.5" y="-275.8" font-family="Times,serif" font-size="14.00"> </text>
<text text-anchor="start" x="2991.5" y="-275.8" font-family="Times,serif" font-size="10.00" fill="#336633">rdf:type</text>
<text text-anchor="start" x="3024.5" y="-275.8" font-family="Times,serif" font-size="14.00"> </text>
</g>
<!-- node10 -->
<g id="node11" class="node"><title>node10</title>
<polygon fill="grey" stroke="none" points="2388.5,-219.5 2388.5,-238.5 2731.5,-238.5 2731.5,-219.5 2388.5,-219.5"/>
<text text-anchor="start" x="2417.5" y="-226.3" font-family="DejaVu Sans" font-weight="bold" font-size="14.00">&quot;b0c2b8f4b93e10f01eba_evidence&quot;</text>
<g id="a_node11_11"><a xlink:href="https://monarchinitiative.org/.well-known/genid/bec67224cccaa828d90f" xlink:title="&lt;TABLE&gt;">
<polygon fill="#eeeeee" stroke="none" points="2227.5,-204.5 2227.5,-219.5 2563.5,-219.5 2563.5,-204.5 2227.5,-204.5"/>
<text text-anchor="start" x="2390.5" y="-209.5" font-family="DejaVu Sans" font-size="10.00" fill="#6666ff">https://monarchinitiative.org/.well&#45;known/genid/bec67224cccaa828d90f</text>
</a>
</g>
<polygon fill="none" stroke="#666666" points="2226.5,-203.5 2226.5,-239.5 2564.5,-239.5 2564.5,-203.5 2226.5,-203.5"/>
</g>
<!-- node4&#45;&gt;node10 -->
<g id="edge9" class="edge"><title>node4&#45;&gt;node10</title>
<path fill="none" stroke="BLACK" d="M3003.03,-322.932C2980.97,-316.268 2958.13,-309.685 2936.5,-304 2910.68,-297.216 2770.79,-267.268 2668.93,-245.642"/>
<polygon fill="BLACK" stroke="BLACK" points="2669.39,-242.163 2658.88,-243.511 2667.94,-249.011 2669.39,-242.163"/>
<text text-anchor="start" x="2856.5" y="-275.8" font-family="Times,serif" font-size="14.00"> </text>
<text text-anchor="start" x="2860.5" y="-275.8" font-family="Times,serif" font-size="10.00" fill="#336633">OBO:SEPIO_0000111</text>
<text text-anchor="start" x="2954.5" y="-275.8" font-family="Times,serif" font-size="14.00"> </text>
</g>
<!-- node13 -->
<g id="node12" class="node"><title>node13</title>
<polygon fill="grey" stroke="none" points="3022.5,-228.5 3022.5,-247.5 4037.5,-247.5 4037.5,-228.5 3022.5,-228.5"/>
<text text-anchor="start" x="3228" y="-235.3" font-family="DejaVu Sans" font-weight="bold" font-size="14.00">&quot;Counsyl Autosomal Recessive and X&#45;Linked Classification Criteria (2018)&quot;</text>
<g id="a_node12_12"><a xlink:href="https://monarchinitiative.org/.well-known/genid/bc99926ac85cd459a025" xlink:title="&lt;TABLE&gt;">
<polygon fill="#eeeeee" stroke="none" points="9.5,-100 9.5,-115 354.5,-115 354.5,-100 9.5,-100"/>
<text text-anchor="start" x="3358.5" y="-218.5" font-family="DejaVu Sans" font-size="10.00" fill="#6666ff">https://monarchinitiative.org/.well&#45;known/genid/bc99926ac85cd459a025</text>
</a>
</g>
<text text-anchor="start" x="3024.5" y="-200.3" font-family="DejaVu Sans" font-size="14.00">OBO:ERO_0000480</text>
<text text-anchor="start" x="3166.5" y="-200.3" font-family="DejaVu Sans" font-size="14.00">&quot;https://submit.ncbi.nlm.nih.gov/ft/byid/3ys2zqtz/counsyl_autosomal_recessive_and_x&#45;linked_classification_criteria_2018_.pdf&quot;</text>
<polygon fill="none" stroke="#666666" points="8,-99 8,-135 355,-135 355,-99 8,-99"/>
</g>
<!-- node4&#45;&gt;node13 -->
<g id="edge13" class="edge"><title>node4&#45;&gt;node13</title>
<path fill="none" stroke="BLACK" d="M3241.44,-322.926C3301.83,-301.874 3375.02,-276.358 3432.51,-256.315"/>
<polygon fill="BLACK" stroke="BLACK" points="3433.67,-259.617 3441.96,-253.02 3431.37,-253.007 3433.67,-259.617"/>
<text text-anchor="start" x="3388.5" y="-275.8" font-family="Times,serif" font-size="14.00"> </text>
<text text-anchor="start" x="3392.5" y="-275.8" font-family="Times,serif" font-size="10.00" fill="#336633">OBO:SEPIO_0000041</text>
<text text-anchor="start" x="3486.5" y="-275.8" font-family="Times,serif" font-size="14.00"> </text>
</g>
<!-- node11 -->
<g id="node21" class="node"><title>node11</title>
<polygon fill="grey" stroke="none" points="4073.5,-219.5 4073.5,-238.5 4334.5,-238.5 4334.5,-219.5 4073.5,-219.5"/>
<text text-anchor="start" x="4164.5" y="-226.3" font-family="DejaVu Sans" font-weight="bold" font-size="14.00">&quot;Counsyl&quot;</text>
<g id="a_node21_13"><a xlink:href="http://www.ncbi.nlm.nih.gov/clinvar/submitters/320494" xlink:title="&lt;TABLE&gt;">
<polygon fill="#eeeeee" stroke="none" points="72.5,-5 72.5,-20 290.5,-20 290.5,-5 72.5,-5"/>
<text text-anchor="start" x="4075.5" y="-209.5" font-family="DejaVu Sans" font-size="10.00" fill="#6666ff">http://www.ncbi.nlm.nih.gov/clinvar/submitters/320494</text>
</a>
</g>
<polygon fill="none" stroke="#666666" points="71.5,-4 71.5,-40 291.5,-40 291.5,-4 71.5,-4"/>
</g>
<!-- node4&#45;&gt;node11 -->
<g id="edge21" class="edge"><title>node4&#45;&gt;node11</title>
<path fill="none" stroke="BLACK" d="M3239.6,-322.985C3264.34,-315.561 3290.58,-308.681 3315.5,-304 3396.5,-288.783 3973.84,-264.176 4055.5,-253 4070.32,-250.972 4085.88,-248.334 4101.11,-245.459"/>
<polygon fill="BLACK" stroke="BLACK" points="4101.91,-248.87 4111.06,-243.54 4100.58,-241.997 4101.91,-248.87"/>
<text text-anchor="start" x="3783.5" y="-275.8" font-family="Times,serif" font-size="14.00"> </text>
<text text-anchor="start" x="3787.5" y="-275.8" font-family="Times,serif" font-size="10.00" fill="#336633">OBO:SEPIO_0000018</text>
<text text-anchor="start" x="3881.5" y="-275.8" font-family="Times,serif" font-size="14.00"> </text>
</g>
<!-- node6 -->
<g id="node7" class="node"><title>node6</title>
<polygon fill="grey" stroke="none" points="3489.5,-513.5 3489.5,-532.5 3755.5,-532.5 3755.5,-513.5 3489.5,-513.5"/>
<text text-anchor="start" x="3550.5" y="-520.3" font-family="DejaVu Sans" font-weight="bold" font-size="14.00">RCV000175394.nt</text>
<g id="a_node7_14"><a xlink:href="https://data.monarchinitiative.org/ttl/RCV000175394.nt" xlink:title="&lt;TABLE&gt;">
<polygon fill="#eeeeee" stroke="none" points="3745.5,-489.5 3745.5,-504.5 4056.5,-504.5 4056.5,-489.5 3745.5,-489.5"/>
<text text-anchor="start" x="3491.5" y="-503.5" font-family="DejaVu Sans" font-size="10.00" fill="#6666ff">https://data.monarchinitiative.org/ttl/RCV000175394.nt</text>
</a>
</g>
<text text-anchor="start" x="3491.5" y="-485.3" font-family="DejaVu Sans" font-size="14.00">owl:versionInfo</text>
<text text-anchor="start" x="3629.5" y="-485.3" font-family="DejaVu Sans" font-size="14.00">&quot;2019&#45;04&#45;03&quot;</text>
<polygon fill="none" stroke="#666666" points="3744,-488.5 3744,-524.5 4057,-524.5 4057,-488.5 3744,-488.5"/>
</g>
<!-- node7 -->
<g id="node8" class="node"><title>node7</title>
<polygon fill="grey" stroke="none" points="3523.5,-362 3523.5,-381 3721.5,-381 3721.5,-362 3523.5,-362"/>
<text text-anchor="start" x="3585.5" y="-368.8" font-family="DejaVu Sans" font-weight="bold" font-size="14.00">Ontology</text>
<g id="a_node8_15"><a xlink:href="http://www.w3.org/2002/07/owl#Ontology" xlink:title="&lt;TABLE&gt;">
<polygon fill="#eeeeee" stroke="none" points="3523.5,-347 3523.5,-362 3721.5,-362 3721.5,-347 3523.5,-347"/>
<text text-anchor="start" x="3525.5" y="-352" font-family="DejaVu Sans" font-size="10.00" fill="#6666ff">http://www.w3.org/2002/07/owl#Ontology</text>
</a>
</g>
<polygon fill="none" stroke="#666666" points="3522.5,-346 3522.5,-382 3722.5,-382 3722.5,-346 3522.5,-346"/>
</g>
<!-- node6&#45;&gt;node7 -->
<g id="edge4" class="edge"><title>node6&#45;&gt;node7</title>
<path fill="none" stroke="BLACK" d="M3622.5,-474.667C3622.5,-451.41 3622.5,-419.632 3622.5,-396.27"/>
<polygon fill="BLACK" stroke="BLACK" points="3626,-396.189 3622.5,-386.189 3619,-396.189 3626,-396.189"/>
<text text-anchor="start" x="3622.5" y="-446.8" font-family="Times,serif" font-size="14.00"> </text>
<text text-anchor="start" x="3626.5" y="-446.8" font-family="Times,serif" font-size="10.00" fill="#336633">rdf:type</text>
<text text-anchor="start" x="3659.5" y="-446.8" font-family="Times,serif" font-size="14.00"> </text>
</g>
<!-- node8 -->
<g id="node9" class="node"><title>node8</title>
<polygon fill="grey" stroke="none" points="2391.5,-504.5 2391.5,-523.5 2702.5,-523.5 2702.5,-504.5 2391.5,-504.5"/>
<text text-anchor="start" x="2407" y="-511.3" font-family="DejaVu Sans" font-weight="bold" font-size="14.00">MONARCH_b0c2b8f4b93e10f01eba</text>
<g id="a_node9_16"><a xlink:href="https://monarchinitiative.org/MONARCH_b0c2b8f4b93e10f01eba" xlink:title="&lt;TABLE&gt;">
<polygon fill="#eeeeee" stroke="none" points="4064.5,-347 4064.5,-362 4307.5,-362 4307.5,-347 4064.5,-347"/>
<text text-anchor="start" x="2393.5" y="-494.5" font-family="DejaVu Sans" font-size="10.00" fill="#6666ff">https://monarchinitiative.org/MONARCH_b0c2b8f4b93e10f01eba</text>
</a>
</g>
<polygon fill="none" stroke="#666666" points="4063,-346 4063,-382 4308,-382 4308,-346 4063,-346"/>
</g>
<!-- node8&#45;&gt;node0 -->
<g id="edge19" class="edge"><title>node8&#45;&gt;node0</title>
<path fill="none" stroke="BLACK" d="M2381.7,-495.886C2263.37,-488.02 2100.24,-475.206 1957.5,-457 1862.13,-444.837 1757.77,-427.615 1667.01,-411.356"/>
<polygon fill="BLACK" stroke="BLACK" points="1667.6,-407.907 1657.14,-409.583 1666.36,-414.797 1667.6,-407.907"/>
<text text-anchor="start" x="1957.5" y="-446.8" font-family="Times,serif" font-size="14.00"> </text>
<text text-anchor="start" x="1961.5" y="-446.8" font-family="Times,serif" font-size="10.00" fill="#336633">OBAN:association_has_subject</text>
<text text-anchor="start" x="2093.5" y="-446.8" font-family="Times,serif" font-size="14.00"> </text>
</g>
<!-- node8&#45;&gt;node4 -->
<g id="edge11" class="edge"><title>node8&#45;&gt;node4</title>
<path fill="none" stroke="BLACK" d="M2661.5,-484.45C2739.52,-469.44 2844.77,-447.771 2936.5,-424 2955.16,-419.164 2974.72,-413.632 2993.9,-407.937"/>
<polygon fill="BLACK" stroke="BLACK" points="2995,-411.26 3003.58,-405.039 2992.99,-404.554 2995,-411.26"/>
<text text-anchor="start" x="2862.5" y="-446.8" font-family="Times,serif" font-size="14.00"> </text>
<text text-anchor="start" x="2866.5" y="-446.8" font-family="Times,serif" font-size="10.00" fill="#336633">OBO:SEPIO_0000015</text>
<text text-anchor="start" x="2960.5" y="-446.8" font-family="Times,serif" font-size="14.00"> </text>
</g>
<!-- node9 -->
<g id="node10" class="node"><title>node9</title>
<polygon fill="grey" stroke="none" points="2274.5,-362 2274.5,-381 2492.5,-381 2492.5,-362 2274.5,-362"/>
<text text-anchor="start" x="2322.5" y="-368.8" font-family="DejaVu Sans" font-weight="bold" font-size="14.00">GENO_0000841</text>
<g id="a_node10_17"><a xlink:href="http://purl.obolibrary.org/obo/GENO_0000841" xlink:title="&lt;TABLE&gt;">
<polygon fill="#eeeeee" stroke="none" points="4343.5,-347 4343.5,-362 4497.5,-362 4497.5,-347 4343.5,-347"/>
<text text-anchor="start" x="2276.5" y="-352" font-family="DejaVu Sans" font-size="10.00" fill="#6666ff">http://purl.obolibrary.org/obo/GENO_0000841</text>
</a>
</g>
<polygon fill="none" stroke="#666666" points="4342.5,-346 4342.5,-382 4498.5,-382 4498.5,-346 4342.5,-346"/>
</g>
<!-- node8&#45;&gt;node9 -->
<g id="edge5" class="edge"><title>node8&#45;&gt;node9</title>
<path fill="none" stroke="BLACK" d="M2417.39,-484.4C2404.66,-477.543 2393.24,-468.609 2384.5,-457 2371.63,-439.91 2371.95,-415.521 2375.19,-396.148"/>
<polygon fill="BLACK" stroke="BLACK" points="2378.64,-396.751 2377.15,-386.261 2371.77,-395.386 2378.64,-396.751"/>
<text text-anchor="start" x="2384.5" y="-446.8" font-family="Times,serif" font-size="14.00"> </text>
<text text-anchor="start" x="2388.5" y="-446.8" font-family="Times,serif" font-size="10.00" fill="#336633">OBAN:association_has_predicate</text>
<text text-anchor="start" x="2528.5" y="-446.8" font-family="Times,serif" font-size="14.00"> </text>
</g>
<!-- node8&#45;&gt;node10 -->
<g id="edge7" class="edge"><title>node8&#45;&gt;node10</title>
<path fill="none" stroke="BLACK" d="M2547.42,-484.321C2549.01,-447.606 2552.42,-369.761 2555.5,-304 2556.27,-287.489 2557.17,-269.098 2557.92,-253.971"/>
<polygon fill="BLACK" stroke="BLACK" points="2561.44,-253.768 2558.44,-243.607 2554.45,-253.421 2561.44,-253.768"/>
<text text-anchor="start" x="2555.5" y="-361.3" font-family="Times,serif" font-size="14.00"> </text>
<text text-anchor="start" x="2559.5" y="-361.3" font-family="Times,serif" font-size="10.00" fill="#336633">OBO:SEPIO_0000007</text>
<text text-anchor="start" x="2653.5" y="-361.3" font-family="Times,serif" font-size="14.00"> </text>
</g>
<!-- node18 -->
<g id="node17" class="node"><title>node18</title>
<polygon fill="grey" stroke="none" points="2676.5,-362 2676.5,-381 2919.5,-381 2919.5,-362 2676.5,-362"/>
<text text-anchor="start" x="2737.5" y="-368.8" font-family="DejaVu Sans" font-weight="bold" font-size="14.00">RCV000175394</text>
<g id="a_node17_18"><a xlink:href="http://www.ncbi.nlm.nih.gov/clinvar/RCV000175394" xlink:title="&lt;TABLE&gt;">
<polygon fill="#eeeeee" stroke="none" points="4533.5,-347 4533.5,-362 4751.5,-362 4751.5,-347 4533.5,-347"/>
<text text-anchor="start" x="2678.5" y="-352" font-family="DejaVu Sans" font-size="10.00" fill="#6666ff">http://www.ncbi.nlm.nih.gov/clinvar/RCV000175394</text>
</a>
</g>
<polygon fill="none" stroke="#666666" points="4532.5,-346 4532.5,-382 4752.5,-382 4752.5,-346 4532.5,-346"/>
</g>
<!-- node8&#45;&gt;node18 -->
<g id="edge15" class="edge"><title>node8&#45;&gt;node18</title>
<path fill="none" stroke="BLACK" d="M2584.08,-484.466C2628.53,-459.582 2702.56,-418.143 2750.7,-391.199"/>
<polygon fill="BLACK" stroke="BLACK" points="2752.65,-394.117 2759.67,-386.178 2749.23,-388.008 2752.65,-394.117"/>
<text text-anchor="start" x="2657.5" y="-446.8" font-family="Times,serif" font-size="14.00"> </text>
<text text-anchor="start" x="2661.5" y="-446.8" font-family="Times,serif" font-size="10.00" fill="#336633">oboInOwl:hasdbxref</text>
<text text-anchor="start" x="2746.5" y="-446.8" font-family="Times,serif" font-size="14.00"> </text>
</g>
<!-- node8&#45;&gt;node12 -->
<g id="edge16" class="edge"><title>node8&#45;&gt;node12</title>
<path fill="none" stroke="BLACK" d="M2381.78,-494.734C2276.95,-484.13 2154.68,-463.507 2120.5,-424 2079.46,-376.559 2091.45,-296.845 2102.35,-253.255"/>
<polygon fill="BLACK" stroke="BLACK" points="2105.75,-254.065 2104.92,-243.503 2098.99,-252.28 2105.75,-254.065"/>
<text text-anchor="start" x="2120.5" y="-361.3" font-family="Times,serif" font-size="14.00"> </text>
<text text-anchor="start" x="2124.5" y="-361.3" font-family="Times,serif" font-size="10.00" fill="#336633">OBAN:association_has_object</text>
<text text-anchor="start" x="2252.5" y="-361.3" font-family="Times,serif" font-size="14.00"> </text>
</g>
<!-- node20 -->
<g id="node20" class="node"><title>node20</title>
<polygon fill="grey" stroke="none" points="3333.5,-362 3333.5,-381 3487.5,-381 3487.5,-362 3333.5,-362"/>
<text text-anchor="start" x="3364.5" y="-368.8" font-family="DejaVu Sans" font-weight="bold" font-size="14.00">association</text>
<g id="a_node20_19"><a xlink:href="http://purl.org/oban/association" xlink:title="&lt;TABLE&gt;">
<polygon fill="#eeeeee" stroke="none" points="1277.5,-100 1277.5,-115 1495.5,-115 1495.5,-100 1277.5,-100"/>
<text text-anchor="start" x="3335.5" y="-352" font-family="DejaVu Sans" font-size="10.00" fill="#6666ff">http://purl.org/oban/association</text>
</a>
</g>
<polygon fill="none" stroke="#666666" points="1276.5,-99 1276.5,-135 1496.5,-135 1496.5,-99 1276.5,-99"/>
</g>
<!-- node8&#45;&gt;node20 -->
<g id="edge20" class="edge"><title>node8&#45;&gt;node20</title>
<path fill="none" stroke="BLACK" d="M2711.16,-496.683C2902.98,-484.903 3207.41,-461.106 3315.5,-424 3336.77,-416.7 3358.23,-403.93 3375.37,-392.133"/>
<polygon fill="BLACK" stroke="BLACK" points="3377.77,-394.721 3383.91,-386.087 3373.73,-389.008 3377.77,-394.721"/>
<text text-anchor="start" x="3240.5" y="-446.8" font-family="Times,serif" font-size="14.00"> </text>
<text text-anchor="start" x="3244.5" y="-446.8" font-family="Times,serif" font-size="10.00" fill="#336633">rdf:type</text>
<text text-anchor="start" x="3277.5" y="-446.8" font-family="Times,serif" font-size="14.00"> </text>
</g>
<!-- node10&#45;&gt;node2 -->
<g id="edge6" class="edge"><title>node10&#45;&gt;node2</title>
<path fill="none" stroke="BLACK" d="M2511.09,-199.386C2473.65,-183.055 2421.69,-160.393 2382.11,-143.128"/>
<polygon fill="BLACK" stroke="BLACK" points="2383.41,-139.876 2372.84,-139.086 2380.61,-146.293 2383.41,-139.876"/>
<text text-anchor="start" x="2442.5" y="-161.8" font-family="Times,serif" font-size="14.00"> </text>
<text text-anchor="start" x="2446.5" y="-161.8" font-family="Times,serif" font-size="10.00" fill="#336633">OBO:SEPIO_0000085</text>
<text text-anchor="start" x="2540.5" y="-161.8" font-family="Times,serif" font-size="14.00"> </text>
</g>
<!-- node15 -->
<g id="node14" class="node"><title>node15</title>
<polygon fill="grey" stroke="none" points="2533.5,-115 2533.5,-134 2743.5,-134 2743.5,-115 2533.5,-115"/>
<text text-anchor="start" x="2584" y="-121.8" font-family="DejaVu Sans" font-weight="bold" font-size="14.00">ECO_0000000</text>
<g id="a_node14_20"><a xlink:href="http://purl.obolibrary.org/obo/ECO_0000000" xlink:title="&lt;TABLE&gt;">
<polygon fill="#eeeeee" stroke="none" points="4753.5,-498.5 4753.5,-513.5 5019.5,-513.5 5019.5,-498.5 4753.5,-498.5"/>
<text text-anchor="start" x="2535.5" y="-105" font-family="DejaVu Sans" font-size="10.00" fill="#6666ff">http://purl.obolibrary.org/obo/ECO_0000000</text>
</a>
</g>
<text text-anchor="start" x="4755.5" y="-485.3" font-family="DejaVu Sans" font-size="14.00">owl:versionInfo</text>
<text text-anchor="start" x="4893.5" y="-485.3" font-family="DejaVu Sans" font-size="14.00">&quot;2019&#45;04&#45;03&quot;</text>
<polygon fill="none" stroke="#666666" points="4752.5,-479 4752.5,-534 5020.5,-534 5020.5,-479 4752.5,-479"/>
</g>
<!-- node10&#45;&gt;node15 -->
<g id="edge10" class="edge"><title>node10&#45;&gt;node15</title>
<path fill="none" stroke="BLACK" d="M2575.87,-199.262C2587.41,-184.282 2603.03,-164.019 2615.78,-147.476"/>
<polygon fill="BLACK" stroke="BLACK" points="2618.82,-149.268 2622.15,-139.211 2613.28,-144.995 2618.82,-149.268"/>
<text text-anchor="start" x="2608.5" y="-161.8" font-family="Times,serif" font-size="14.00"> </text>
<text text-anchor="start" x="2612.5" y="-161.8" font-family="Times,serif" font-size="10.00" fill="#336633">rdf:type</text>
<text text-anchor="start" x="2645.5" y="-161.8" font-family="Times,serif" font-size="14.00"> </text>
</g>
<!-- node14 -->
<g id="node13" class="node"><title>node14</title>
<polygon fill="grey" stroke="none" points="3420.5,-115 3420.5,-134 3638.5,-134 3638.5,-115 3420.5,-115"/>
<text text-anchor="start" x="3467.5" y="-121.8" font-family="DejaVu Sans" font-weight="bold" font-size="14.00">SEPIO_0000037</text>
<g id="a_node13_21"><a xlink:href="http://purl.obolibrary.org/obo/SEPIO_0000037" xlink:title="&lt;TABLE&gt;">
<polygon fill="#eeeeee" stroke="none" points="4787.5,-347 4787.5,-362 4985.5,-362 4985.5,-347 4787.5,-347"/>
<text text-anchor="start" x="3422.5" y="-105" font-family="DejaVu Sans" font-size="10.00" fill="#6666ff">http://purl.obolibrary.org/obo/SEPIO_0000037</text>
</a>
</g>
<polygon fill="none" stroke="#666666" points="4786.5,-346 4786.5,-382 4986.5,-382 4986.5,-346 4786.5,-346"/>
</g>
<!-- node13&#45;&gt;node14 -->
<g id="edge8" class="edge"><title>node13&#45;&gt;node14</title>
<path fill="none" stroke="BLACK" d="M3529.5,-189.747C3529.5,-177.031 3529.5,-162.301 3529.5,-149.508"/>
<polygon fill="BLACK" stroke="BLACK" points="3533,-149.304 3529.5,-139.304 3526,-149.304 3533,-149.304"/>
<text text-anchor="start" x="3529.5" y="-161.8" font-family="Times,serif" font-size="14.00"> </text>
<text text-anchor="start" x="3533.5" y="-161.8" font-family="Times,serif" font-size="10.00" fill="#336633">rdf:type</text>
<text text-anchor="start" x="3566.5" y="-161.8" font-family="Times,serif" font-size="14.00"> </text>
</g>
<!-- node22 -->
<g id="node23" class="node"><title>node22</title>
<polygon fill="grey" stroke="none" points="4110.5,-115 4110.5,-134 4297.5,-134 4297.5,-115 4110.5,-115"/>
<text text-anchor="start" x="4152.5" y="-121.8" font-family="DejaVu Sans" font-weight="bold" font-size="14.00">organization</text>
<g id="a_node23_22"><a xlink:href="http://xmlns.com/foaf/0.1/organization" xlink:title="&lt;TABLE&gt;">
<polygon fill="#eeeeee" stroke="none" points="390.5,-100 390.5,-115 600.5,-115 600.5,-100 390.5,-100"/>
<text text-anchor="start" x="4112.5" y="-105" font-family="DejaVu Sans" font-size="10.00" fill="#6666ff">http://xmlns.com/foaf/0.1/organization</text>
</a>
</g>
<polygon fill="none" stroke="#666666" points="389.5,-99 389.5,-135 601.5,-135 601.5,-99 389.5,-99"/>
</g>
<!-- node11&#45;&gt;node22 -->
<g id="edge23" class="edge"><title>node11&#45;&gt;node22</title>
<path fill="none" stroke="BLACK" d="M4203.5,-199.262C4203.5,-184.831 4203.5,-165.499 4203.5,-149.311"/>
<polygon fill="BLACK" stroke="BLACK" points="4207,-149.211 4203.5,-139.211 4200,-149.211 4207,-149.211"/>
<text text-anchor="start" x="4203.5" y="-161.8" font-family="Times,serif" font-size="14.00"> </text>
<text text-anchor="start" x="4207.5" y="-161.8" font-family="Times,serif" font-size="10.00" fill="#336633">rdf:type</text>
<text text-anchor="start" x="4240.5" y="-161.8" font-family="Times,serif" font-size="14.00"> </text>
</g>
</g>
</svg>
