<?xml version="1.0" encoding="UTF-8" standalone="no"?>
<!DOCTYPE svg PUBLIC "-//W3C//DTD SVG 1.1//EN"
 "http://www.w3.org/Graphics/SVG/1.1/DTD/svg11.dtd">
<!-- Generated by graphviz version 2.38.0 (20140413.2041)
 -->
<!-- Title: %3 Pages: 1 -->
<svg width="3942pt" height="489pt"
 viewBox="0.00 0.00 3941.50 489.00" xmlns="http://www.w3.org/2000/svg" xmlns:xlink="http://www.w3.org/1999/xlink">
<g id="graph0" class="graph" transform="scale(1 1) rotate(0) translate(4 485)">
<title>%3</title>
<polygon fill="white" stroke="none" points="-4,4 -4,-485 3937.5,-485 3937.5,4 -4,4"/>
<!-- node0 -->
<g id="node1" class="node"><title>node0</title>
<polygon fill="grey" stroke="none" points="677.5,-342.5 677.5,-361.5 1019.5,-361.5 1019.5,-342.5 677.5,-342.5"/>
<text text-anchor="start" x="735.5" y="-349.3" font-family="DejaVu Sans" font-weight="bold" font-size="14.00">&quot;ClinVarAssertion_1142533&quot;</text>
<g id="a_node1_0"><a xlink:href="https://monarchinitiative.org/.well-known/genid/bd8e0f2fc4633580d875" xlink:title="&lt;TABLE&gt;">
<polygon fill="#eeeeee" stroke="none" points="677.5,-327.5 677.5,-342.5 1019.5,-342.5 1019.5,-327.5 677.5,-327.5"/>
<text text-anchor="start" x="679.5" y="-332.5" font-family="DejaVu Sans" font-size="10.00" fill="#6666ff">https://monarchinitiative.org/.well&#45;known/genid/bd8e0f2fc4633580d875</text>
</a>
</g>
<text text-anchor="start" x="679.5" y="-314.3" font-family="DejaVu Sans" font-size="14.00">dc:identifier</text>
<text text-anchor="start" x="823.5" y="-314.3" font-family="DejaVu Sans" font-size="14.00">&quot;SCV000296057.1&quot;</text>
<polygon fill="none" stroke="#666666" points="676.5,-308 676.5,-363 1020.5,-363 1020.5,-308 676.5,-308"/>
</g>
<!-- node1 -->
<g id="node2" class="node"><title>node1</title>
<polygon fill="grey" stroke="none" points="9.5,-219.5 9.5,-238.5 584.5,-238.5 584.5,-219.5 9.5,-219.5"/>
<text text-anchor="start" x="11.5" y="-226.3" font-family="DejaVu Sans" font-weight="bold" font-size="14.00">&quot;Center for Human Disease Modeling,Duke University Medical Center&quot;</text>
<g id="a_node2_1"><a xlink:href="http://www.ncbi.nlm.nih.gov/clinvar/submitters/505664" xlink:title="&lt;TABLE&gt;">
<polygon fill="#eeeeee" stroke="none" points="9.5,-204.5 9.5,-219.5 584.5,-219.5 584.5,-204.5 9.5,-204.5"/>
<text text-anchor="start" x="168.5" y="-209.5" font-family="DejaVu Sans" font-size="10.00" fill="#6666ff">http://www.ncbi.nlm.nih.gov/clinvar/submitters/505664</text>
</a>
</g>
<polygon fill="none" stroke="#666666" points="8,-203.5 8,-239.5 585,-239.5 585,-203.5 8,-203.5"/>
</g>
<!-- node0&#45;&gt;node1 -->
<g id="edge1" class="edge"><title>node0&#45;&gt;node1</title>
<path fill="none" stroke="BLACK" d="M698.028,-303.97C607.226,-285.546 493.39,-262.449 410.137,-245.557"/>
<polygon fill="BLACK" stroke="BLACK" points="410.636,-242.087 400.14,-243.528 409.244,-248.947 410.636,-242.087"/>
<text text-anchor="start" x="606.5" y="-275.8" font-family="Times,serif" font-size="14.00"> </text>
<text text-anchor="start" x="610.5" y="-275.8" font-family="Times,serif" font-size="10.00" fill="#336633">OBO:SEPIO_0000018</text>
<text text-anchor="start" x="704.5" y="-275.8" font-family="Times,serif" font-size="14.00"> </text>
</g>
<!-- node6 -->
<g id="node7" class="node"><title>node6</title>
<polygon fill="grey" stroke="none" points="643.5,-219.5 643.5,-238.5 861.5,-238.5 861.5,-219.5 643.5,-219.5"/>
<text text-anchor="start" x="690.5" y="-226.3" font-family="DejaVu Sans" font-weight="bold" font-size="14.00">SEPIO_0000001</text>
<g id="a_node7_2"><a xlink:href="http://purl.obolibrary.org/obo/SEPIO_0000001" xlink:title="&lt;TABLE&gt;">
<polygon fill="#eeeeee" stroke="none" points="643.5,-204.5 643.5,-219.5 861.5,-219.5 861.5,-204.5 643.5,-204.5"/>
<text text-anchor="start" x="645.5" y="-209.5" font-family="DejaVu Sans" font-size="10.00" fill="#6666ff">http://purl.obolibrary.org/obo/SEPIO_0000001</text>
</a>
</g>
<polygon fill="none" stroke="#666666" points="642.5,-203.5 642.5,-239.5 862.5,-239.5 862.5,-203.5 642.5,-203.5"/>
</g>
<!-- node0&#45;&gt;node6 -->
<g id="edge4" class="edge"><title>node0&#45;&gt;node6</title>
<path fill="none" stroke="BLACK" d="M822.268,-303.896C808.274,-287.57 791.15,-267.591 777.368,-251.513"/>
<polygon fill="BLACK" stroke="BLACK" points="779.666,-248.815 770.501,-243.501 774.351,-253.371 779.666,-248.815"/>
<text text-anchor="start" x="806.5" y="-275.8" font-family="Times,serif" font-size="14.00"> </text>
<text text-anchor="start" x="810.5" y="-275.8" font-family="Times,serif" font-size="10.00" fill="#336633">rdf:type</text>
<text text-anchor="start" x="843.5" y="-275.8" font-family="Times,serif" font-size="14.00"> </text>
</g>
<!-- node8 -->
<g id="node9" class="node"><title>node8</title>
<polygon fill="grey" stroke="none" points="898.5,-219.5 898.5,-238.5 1243.5,-238.5 1243.5,-219.5 898.5,-219.5"/>
<text text-anchor="start" x="928" y="-226.3" font-family="DejaVu Sans" font-weight="bold" font-size="14.00">&quot;bcd52bafc1e2e04193a9_evidence&quot;</text>
<g id="a_node9_3"><a xlink:href="https://monarchinitiative.org/.well-known/genid/be870b3d47783bbdcf05" xlink:title="&lt;TABLE&gt;">
<polygon fill="#eeeeee" stroke="none" points="898.5,-204.5 898.5,-219.5 1243.5,-219.5 1243.5,-204.5 898.5,-204.5"/>
<text text-anchor="start" x="900.5" y="-209.5" font-family="DejaVu Sans" font-size="10.00" fill="#6666ff">https://monarchinitiative.org/.well&#45;known/genid/be870b3d47783bbdcf05</text>
</a>
</g>
<polygon fill="none" stroke="#666666" points="897,-203.5 897,-239.5 1244,-239.5 1244,-203.5 897,-203.5"/>
</g>
<!-- node0&#45;&gt;node8 -->
<g id="edge11" class="edge"><title>node0&#45;&gt;node8</title>
<path fill="none" stroke="BLACK" d="M909.162,-303.896C943.897,-286.372 986.975,-264.639 1019.88,-248.039"/>
<polygon fill="BLACK" stroke="BLACK" points="1021.52,-251.13 1028.87,-243.501 1018.37,-244.88 1021.52,-251.13"/>
<text text-anchor="start" x="973.5" y="-275.8" font-family="Times,serif" font-size="14.00"> </text>
<text text-anchor="start" x="977.5" y="-275.8" font-family="Times,serif" font-size="10.00" fill="#336633">OBO:SEPIO_0000111</text>
<text text-anchor="start" x="1071.5" y="-275.8" font-family="Times,serif" font-size="14.00"> </text>
</g>
<!-- node14 -->
<g id="node15" class="node"><title>node14</title>
<polygon fill="grey" stroke="none" points="165.5,-115 165.5,-134 352.5,-134 352.5,-115 165.5,-115"/>
<text text-anchor="start" x="207.5" y="-121.8" font-family="DejaVu Sans" font-weight="bold" font-size="14.00">organization</text>
<g id="a_node15_4"><a xlink:href="http://xmlns.com/foaf/0.1/organization" xlink:title="&lt;TABLE&gt;">
<polygon fill="#eeeeee" stroke="none" points="165.5,-100 165.5,-115 352.5,-115 352.5,-100 165.5,-100"/>
<text text-anchor="start" x="167.5" y="-105" font-family="DejaVu Sans" font-size="10.00" fill="#6666ff">http://xmlns.com/foaf/0.1/organization</text>
</a>
</g>
<polygon fill="none" stroke="#666666" points="164,-99 164,-135 353,-135 353,-99 164,-99"/>
</g>
<!-- node1&#45;&gt;node14 -->
<g id="edge14" class="edge"><title>node1&#45;&gt;node14</title>
<path fill="none" stroke="BLACK" d="M288.626,-199.262C283.226,-184.694 275.973,-165.131 269.937,-148.85"/>
<polygon fill="BLACK" stroke="BLACK" points="273.121,-147.371 266.364,-139.211 266.558,-149.804 273.121,-147.371"/>
<text text-anchor="start" x="277.5" y="-161.8" font-family="Times,serif" font-size="14.00"> </text>
<text text-anchor="start" x="281.5" y="-161.8" font-family="Times,serif" font-size="10.00" fill="#336633">rdf:type</text>
<text text-anchor="start" x="314.5" y="-161.8" font-family="Times,serif" font-size="14.00"> </text>
</g>
<!-- node2 -->
<g id="node3" class="node"><title>node2</title>
<polygon fill="grey" stroke="none" points="2320.5,-333.5 2320.5,-352.5 2760.5,-352.5 2760.5,-333.5 2320.5,-333.5"/>
<text text-anchor="start" x="2322.5" y="-340.3" font-family="DejaVu Sans" font-weight="bold" font-size="14.00">http://www.ncbi.nlm.nih.gov/clinvar/variation/431733</text>
<g id="a_node3_5"><a xlink:href="http://www.ncbi.nlm.nih.gov/clinvar/variation/431733" xlink:title="&lt;TABLE&gt;">
<polygon fill="#eeeeee" stroke="none" points="2320.5,-318.5 2320.5,-333.5 2760.5,-333.5 2760.5,-318.5 2320.5,-318.5"/>
<text text-anchor="start" x="2417" y="-323.5" font-family="DejaVu Sans" font-size="10.00" fill="#6666ff">http://www.ncbi.nlm.nih.gov/clinvar/variation/431733</text>
</a>
</g>
<polygon fill="none" stroke="#666666" points="2319.5,-317.5 2319.5,-353.5 2761.5,-353.5 2761.5,-317.5 2319.5,-317.5"/>
</g>
<!-- node3 -->
<g id="node4" class="node"><title>node3</title>
<polygon fill="grey" stroke="none" points="2922.5,-219.5 2922.5,-238.5 3128.5,-238.5 3128.5,-219.5 2922.5,-219.5"/>
<text text-anchor="start" x="2924.5" y="-226.3" font-family="DejaVu Sans" font-weight="bold" font-size="14.00">&quot;Bardet&#45;Biedl syndrome&quot;</text>
<g id="a_node4_6"><a xlink:href="http://omim.org/entry/PS209900" xlink:title="&lt;TABLE&gt;">
<polygon fill="#eeeeee" stroke="none" points="2922.5,-204.5 2922.5,-219.5 3128.5,-219.5 3128.5,-204.5 2922.5,-204.5"/>
<text text-anchor="start" x="2948" y="-209.5" font-family="DejaVu Sans" font-size="10.00" fill="#6666ff">http://omim.org/entry/PS209900</text>
</a>
</g>
<polygon fill="none" stroke="#666666" points="2921.5,-203.5 2921.5,-239.5 3129.5,-239.5 3129.5,-203.5 2921.5,-203.5"/>
</g>
<!-- node2&#45;&gt;node3 -->
<g id="edge2" class="edge"><title>node2&#45;&gt;node3</title>
<path fill="none" stroke="BLACK" d="M2601.51,-313.489C2621.93,-305.71 2644.56,-296.262 2664.5,-286 2675.35,-280.415 2675.96,-274.958 2687.5,-271 2779.04,-239.61 2809.04,-268.88 2904.5,-253 2916.1,-251.07 2928.23,-248.586 2940.13,-245.871"/>
<polygon fill="BLACK" stroke="BLACK" points="2941.12,-249.233 2950.06,-243.543 2939.53,-242.418 2941.12,-249.233"/>
<text text-anchor="start" x="2687.5" y="-275.8" font-family="Times,serif" font-size="14.00"> </text>
<text text-anchor="start" x="2691.5" y="-275.8" font-family="Times,serif" font-size="10.00" fill="#336633">OBO:GENO_0000841</text>
<text text-anchor="start" x="2787.5" y="-275.8" font-family="Times,serif" font-size="14.00"> </text>
</g>
<!-- node4 -->
<g id="node5" class="node"><title>node4</title>
<polygon fill="grey" stroke="none" points="1486.5,-228.5 1486.5,-247.5 1985.5,-247.5 1985.5,-228.5 1486.5,-228.5"/>
<text text-anchor="start" x="1540" y="-235.3" font-family="DejaVu Sans" font-weight="bold" font-size="14.00">&quot;GRCh37/hg19 1p36.31(chr1:6051187&#45;6158763)&quot;</text>
<g id="a_node5_7"><a xlink:href="http://www.ncbi.nlm.nih.gov/clinvar/variation/425239" xlink:title="&lt;TABLE&gt;">
<polygon fill="#eeeeee" stroke="none" points="1486.5,-213.5 1486.5,-228.5 1985.5,-228.5 1985.5,-213.5 1486.5,-213.5"/>
<text text-anchor="start" x="1612.5" y="-218.5" font-family="DejaVu Sans" font-size="10.00" fill="#6666ff">http://www.ncbi.nlm.nih.gov/clinvar/variation/425239</text>
</a>
</g>
<text text-anchor="start" x="1488.5" y="-200.3" font-family="DejaVu Sans" font-size="14.00">oboInOwl:hasExactSynonym</text>
<text text-anchor="start" x="1690.5" y="-200.3" font-family="DejaVu Sans" font-size="14.00">&quot;NC_000001.10:g.6051187_6158763dup&quot;</text>
<polygon fill="none" stroke="#666666" points="1485,-194 1485,-249 1986,-249 1986,-194 1485,-194"/>
</g>
<!-- node2&#45;&gt;node4 -->
<g id="edge26" class="edge"><title>node2&#45;&gt;node4</title>
<path fill="none" stroke="BLACK" d="M2389.56,-313.499C2270.08,-296.877 2101.25,-273.387 1965.05,-254.437"/>
<polygon fill="BLACK" stroke="BLACK" points="1965.27,-250.934 1954.88,-253.023 1964.31,-257.868 1965.27,-250.934"/>
<text text-anchor="start" x="2186.5" y="-275.8" font-family="Times,serif" font-size="14.00"> </text>
<text text-anchor="start" x="2190.5" y="-275.8" font-family="Times,serif" font-size="10.00" fill="#336633">OBO:GENO_0000382</text>
<text text-anchor="start" x="2286.5" y="-275.8" font-family="Times,serif" font-size="14.00"> </text>
</g>
<!-- node10 -->
<g id="node11" class="node"><title>node10</title>
<polygon fill="grey" stroke="none" points="2454.5,-115 2454.5,-134 2676.5,-134 2676.5,-115 2454.5,-115"/>
<text text-anchor="start" x="2499" y="-121.8" font-family="DejaVu Sans" font-weight="bold" font-size="14.00">NCBITaxon_9606</text>
<g id="a_node11_8"><a xlink:href="http://purl.obolibrary.org/obo/NCBITaxon_9606" xlink:title="&lt;TABLE&gt;">
<polygon fill="#eeeeee" stroke="none" points="2454.5,-100 2454.5,-115 2676.5,-115 2676.5,-100 2454.5,-100"/>
<text text-anchor="start" x="2456.5" y="-105" font-family="DejaVu Sans" font-size="10.00" fill="#6666ff">http://purl.obolibrary.org/obo/NCBITaxon_9606</text>
</a>
</g>
<polygon fill="none" stroke="#666666" points="2453.5,-99 2453.5,-135 2677.5,-135 2677.5,-99 2453.5,-99"/>
</g>
<!-- node2&#45;&gt;node10 -->
<g id="edge19" class="edge"><title>node2&#45;&gt;node10</title>
<path fill="none" stroke="BLACK" d="M2542.94,-313.347C2547.37,-275.029 2556.73,-193.969 2561.89,-149.252"/>
<polygon fill="BLACK" stroke="BLACK" points="2565.38,-149.574 2563.05,-139.239 2558.42,-148.771 2565.38,-149.574"/>
<text text-anchor="start" x="2557.5" y="-218.8" font-family="Times,serif" font-size="14.00"> </text>
<text text-anchor="start" x="2561.5" y="-218.8" font-family="Times,serif" font-size="10.00" fill="#336633">OBO:RO_0002162</text>
<text text-anchor="start" x="2643.5" y="-218.8" font-family="Times,serif" font-size="14.00"> </text>
</g>
<!-- node11 -->
<g id="node12" class="node"><title>node11</title>
<polygon fill="grey" stroke="none" points="2682.5,-219.5 2682.5,-238.5 2886.5,-238.5 2886.5,-219.5 2682.5,-219.5"/>
<text text-anchor="start" x="2735" y="-226.3" font-family="DejaVu Sans" font-weight="bold" font-size="14.00">SO_0001024</text>
<g id="a_node12_9"><a xlink:href="http://purl.obolibrary.org/obo/SO_0001024" xlink:title="&lt;TABLE&gt;">
<polygon fill="#eeeeee" stroke="none" points="2682.5,-204.5 2682.5,-219.5 2886.5,-219.5 2886.5,-204.5 2682.5,-204.5"/>
<text text-anchor="start" x="2684.5" y="-209.5" font-family="DejaVu Sans" font-size="10.00" fill="#6666ff">http://purl.obolibrary.org/obo/SO_0001024</text>
</a>
</g>
<polygon fill="none" stroke="#666666" points="2681.5,-203.5 2681.5,-239.5 2887.5,-239.5 2887.5,-203.5 2681.5,-203.5"/>
</g>
<!-- node2&#45;&gt;node11 -->
<g id="edge10" class="edge"><title>node2&#45;&gt;node11</title>
<path fill="none" stroke="BLACK" d="M2563.29,-313.431C2579.16,-299.71 2601.37,-282.32 2623.5,-271 2642.46,-261.302 2663.69,-253.193 2684.35,-246.555"/>
<polygon fill="BLACK" stroke="BLACK" points="2685.61,-249.829 2694.11,-243.511 2683.52,-243.146 2685.61,-249.829"/>
<text text-anchor="start" x="2623.5" y="-275.8" font-family="Times,serif" font-size="14.00"> </text>
<text text-anchor="start" x="2627.5" y="-275.8" font-family="Times,serif" font-size="10.00" fill="#336633">rdf:type</text>
<text text-anchor="start" x="2660.5" y="-275.8" font-family="Times,serif" font-size="14.00"> </text>
</g>
<!-- node15 -->
<g id="node16" class="node"><title>node15</title>
<polygon fill="grey" stroke="none" points="2021.5,-228.5 2021.5,-247.5 2520.5,-247.5 2520.5,-228.5 2021.5,-228.5"/>
<text text-anchor="start" x="2075" y="-235.3" font-family="DejaVu Sans" font-weight="bold" font-size="14.00">&quot;GRCh37/hg19 1p36.31(chr1:5910699&#45;6038368)&quot;</text>
<g id="a_node16_10"><a xlink:href="http://www.ncbi.nlm.nih.gov/clinvar/variation/425238" xlink:title="&lt;TABLE&gt;">
<polygon fill="#eeeeee" stroke="none" points="2021.5,-213.5 2021.5,-228.5 2520.5,-228.5 2520.5,-213.5 2021.5,-213.5"/>
<text text-anchor="start" x="2147.5" y="-218.5" font-family="DejaVu Sans" font-size="10.00" fill="#6666ff">http://www.ncbi.nlm.nih.gov/clinvar/variation/425238</text>
</a>
</g>
<text text-anchor="start" x="2023.5" y="-200.3" font-family="DejaVu Sans" font-size="14.00">oboInOwl:hasExactSynonym</text>
<text text-anchor="start" x="2225.5" y="-200.3" font-family="DejaVu Sans" font-size="14.00">&quot;NC_000001.10:g.5910699_6038368dup&quot;</text>
<polygon fill="none" stroke="#666666" points="2020,-194 2020,-249 2521,-249 2521,-194 2020,-194"/>
</g>
<!-- node2&#45;&gt;node15 -->
<g id="edge27" class="edge"><title>node2&#45;&gt;node15</title>
<path fill="none" stroke="BLACK" d="M2489.72,-313.434C2451.42,-297.55 2398.08,-275.422 2353.6,-256.972"/>
<polygon fill="BLACK" stroke="BLACK" points="2354.83,-253.693 2344.25,-253.095 2352.15,-260.159 2354.83,-253.693"/>
<text text-anchor="start" x="2422.5" y="-275.8" font-family="Times,serif" font-size="14.00"> </text>
<text text-anchor="start" x="2426.5" y="-275.8" font-family="Times,serif" font-size="10.00" fill="#336633">OBO:GENO_0000382</text>
<text text-anchor="start" x="2522.5" y="-275.8" font-family="Times,serif" font-size="14.00"> </text>
</g>
<!-- node5 -->
<g id="node6" class="node"><title>node5</title>
<polygon fill="grey" stroke="none" points="2214.5,-115 2214.5,-134 2418.5,-134 2418.5,-115 2214.5,-115"/>
<text text-anchor="start" x="2267" y="-121.8" font-family="DejaVu Sans" font-weight="bold" font-size="14.00">SO_0001742</text>
<g id="a_node6_11"><a xlink:href="http://purl.obolibrary.org/obo/SO_0001742" xlink:title="&lt;TABLE&gt;">
<polygon fill="#eeeeee" stroke="none" points="2214.5,-100 2214.5,-115 2418.5,-115 2418.5,-100 2214.5,-100"/>
<text text-anchor="start" x="2216.5" y="-105" font-family="DejaVu Sans" font-size="10.00" fill="#6666ff">http://purl.obolibrary.org/obo/SO_0001742</text>
</a>
</g>
<polygon fill="none" stroke="#666666" points="2213.5,-99 2213.5,-135 2419.5,-135 2419.5,-99 2213.5,-99"/>
</g>
<!-- node4&#45;&gt;node5 -->
<g id="edge3" class="edge"><title>node4&#45;&gt;node5</title>
<path fill="none" stroke="BLACK" d="M1846.36,-189.955C1901.9,-174.829 1960.17,-159.297 1973.5,-157 2068.33,-140.659 2096.09,-150.874 2195.26,-139.068"/>
<polygon fill="BLACK" stroke="BLACK" points="2195.92,-142.514 2205.41,-137.814 2195.06,-135.567 2195.92,-142.514"/>
<text text-anchor="start" x="1973.5" y="-161.8" font-family="Times,serif" font-size="14.00"> </text>
<text text-anchor="start" x="1977.5" y="-161.8" font-family="Times,serif" font-size="10.00" fill="#336633">rdf:type</text>
<text text-anchor="start" x="2010.5" y="-161.8" font-family="Times,serif" font-size="14.00"> </text>
</g>
<!-- node4&#45;&gt;node10 -->
<g id="edge7" class="edge"><title>node4&#45;&gt;node10</title>
<path fill="none" stroke="BLACK" d="M1994.17,-190.112C2049.58,-183.225 2099.76,-176.597 2127.5,-172 2159.75,-166.655 2167.14,-161.581 2199.5,-157 2300.93,-142.645 2329.87,-150.957 2435.28,-139.073"/>
<polygon fill="BLACK" stroke="BLACK" points="2435.85,-142.53 2445.38,-137.9 2435.04,-135.577 2435.85,-142.53"/>
<text text-anchor="start" x="2199.5" y="-161.8" font-family="Times,serif" font-size="14.00"> </text>
<text text-anchor="start" x="2203.5" y="-161.8" font-family="Times,serif" font-size="10.00" fill="#336633">OBO:RO_0002162</text>
<text text-anchor="start" x="2285.5" y="-161.8" font-family="Times,serif" font-size="14.00"> </text>
</g>
<!-- node12 -->
<g id="node13" class="node"><title>node12</title>
<polygon fill="grey" stroke="none" points="1822.5,-115 1822.5,-134 2178.5,-134 2178.5,-115 1822.5,-115"/>
<text text-anchor="start" x="1824.5" y="-121.8" font-family="DejaVu Sans" font-weight="bold" font-size="14.00">https://www.ncbi.nlm.nih.gov/gene/261734</text>
<g id="a_node13_12"><a xlink:href="https://www.ncbi.nlm.nih.gov/gene/261734" xlink:title="&lt;TABLE&gt;">
<polygon fill="#eeeeee" stroke="none" points="1822.5,-100 1822.5,-115 2178.5,-115 2178.5,-100 1822.5,-100"/>
<text text-anchor="start" x="1900" y="-105" font-family="DejaVu Sans" font-size="10.00" fill="#6666ff">https://www.ncbi.nlm.nih.gov/gene/261734</text>
</a>
</g>
<polygon fill="none" stroke="#666666" points="1821.5,-99 1821.5,-135 2179.5,-135 2179.5,-99 1821.5,-99"/>
</g>
<!-- node4&#45;&gt;node12 -->
<g id="edge12" class="edge"><title>node4&#45;&gt;node12</title>
<path fill="none" stroke="BLACK" d="M1766.58,-189.846C1780.27,-177.931 1797.16,-165.202 1814.5,-157 1826.74,-151.21 1839.84,-146.274 1853.2,-142.067"/>
<polygon fill="BLACK" stroke="BLACK" points="1854.4,-145.361 1862.97,-139.131 1852.38,-138.657 1854.4,-145.361"/>
<text text-anchor="start" x="1814.5" y="-161.8" font-family="Times,serif" font-size="14.00"> </text>
<text text-anchor="start" x="1818.5" y="-161.8" font-family="Times,serif" font-size="10.00" fill="#336633">OBO:BFO_0000050</text>
<text text-anchor="start" x="1905.5" y="-161.8" font-family="Times,serif" font-size="14.00"> </text>
</g>
<!-- node21 -->
<g id="node22" class="node"><title>node21</title>
<polygon fill="grey" stroke="none" points="1450.5,-115 1450.5,-134 1786.5,-134 1786.5,-115 1450.5,-115"/>
<text text-anchor="start" x="1452.5" y="-121.8" font-family="DejaVu Sans" font-weight="bold" font-size="14.00">https://www.ncbi.nlm.nih.gov/gene/8514</text>
<g id="a_node22_13"><a xlink:href="https://www.ncbi.nlm.nih.gov/gene/8514" xlink:title="&lt;TABLE&gt;">
<polygon fill="#eeeeee" stroke="none" points="1450.5,-100 1450.5,-115 1786.5,-115 1786.5,-100 1450.5,-100"/>
<text text-anchor="start" x="1524" y="-105" font-family="DejaVu Sans" font-size="10.00" fill="#6666ff">https://www.ncbi.nlm.nih.gov/gene/8514</text>
</a>
</g>
<polygon fill="none" stroke="#666666" points="1449.5,-99 1449.5,-135 1787.5,-135 1787.5,-99 1449.5,-99"/>
</g>
<!-- node4&#45;&gt;node21 -->
<g id="edge23" class="edge"><title>node4&#45;&gt;node21</title>
<path fill="none" stroke="BLACK" d="M1678.24,-189.957C1670.19,-184.503 1662.34,-178.473 1655.5,-172 1648.02,-164.929 1641.21,-156.105 1635.52,-147.652"/>
<polygon fill="BLACK" stroke="BLACK" points="1638.36,-145.599 1630.02,-139.066 1632.47,-149.375 1638.36,-145.599"/>
<text text-anchor="start" x="1655.5" y="-161.8" font-family="Times,serif" font-size="14.00"> </text>
<text text-anchor="start" x="1659.5" y="-161.8" font-family="Times,serif" font-size="10.00" fill="#336633">OBO:BFO_0000050</text>
<text text-anchor="start" x="1746.5" y="-161.8" font-family="Times,serif" font-size="14.00"> </text>
</g>
<!-- node7 -->
<g id="node8" class="node"><title>node7</title>
<polygon fill="grey" stroke="none" points="2516.5,-447.5 2516.5,-466.5 2829.5,-466.5 2829.5,-447.5 2516.5,-447.5"/>
<text text-anchor="start" x="2532" y="-454.3" font-family="DejaVu Sans" font-weight="bold" font-size="14.00">MONARCH_bcd52bafc1e2e04193a9</text>
<g id="a_node8_14"><a xlink:href="https://monarchinitiative.org/MONARCH_bcd52bafc1e2e04193a9" xlink:title="&lt;TABLE&gt;">
<polygon fill="#eeeeee" stroke="none" points="2516.5,-432.5 2516.5,-447.5 2829.5,-447.5 2829.5,-432.5 2516.5,-432.5"/>
<text text-anchor="start" x="2518.5" y="-437.5" font-family="DejaVu Sans" font-size="10.00" fill="#6666ff">https://monarchinitiative.org/MONARCH_bcd52bafc1e2e04193a9</text>
</a>
</g>
<polygon fill="none" stroke="#666666" points="2515,-431.5 2515,-467.5 2830,-467.5 2830,-431.5 2515,-431.5"/>
</g>
<!-- node7&#45;&gt;node0 -->
<g id="edge8" class="edge"><title>node7&#45;&gt;node0</title>
<path fill="none" stroke="BLACK" d="M2506.83,-448.385C2156.87,-447.335 1352.25,-440.441 1081.5,-400 1037.92,-393.491 990.863,-381.626 950.519,-369.899"/>
<polygon fill="BLACK" stroke="BLACK" points="951.264,-366.47 940.683,-367.004 949.288,-373.185 951.264,-366.47"/>
<text text-anchor="start" x="1081.5" y="-389.8" font-family="Times,serif" font-size="14.00"> </text>
<text text-anchor="start" x="1085.5" y="-389.8" font-family="Times,serif" font-size="10.00" fill="#336633">OBO:SEPIO_0000015</text>
<text text-anchor="start" x="1179.5" y="-389.8" font-family="Times,serif" font-size="14.00"> </text>
</g>
<!-- node7&#45;&gt;node2 -->
<g id="edge9" class="edge"><title>node7&#45;&gt;node2</title>
<path fill="none" stroke="BLACK" d="M2647.67,-427.434C2626.69,-409.635 2596.48,-383.998 2573.47,-364.479"/>
<polygon fill="BLACK" stroke="BLACK" points="2575.56,-361.654 2565.67,-357.853 2571.03,-366.991 2575.56,-361.654"/>
<text text-anchor="start" x="2614.5" y="-389.8" font-family="Times,serif" font-size="14.00"> </text>
<text text-anchor="start" x="2618.5" y="-389.8" font-family="Times,serif" font-size="10.00" fill="#336633">OBAN:association_has_subject</text>
<text text-anchor="start" x="2750.5" y="-389.8" font-family="Times,serif" font-size="14.00"> </text>
</g>
<!-- node7&#45;&gt;node3 -->
<g id="edge5" class="edge"><title>node7&#45;&gt;node3</title>
<path fill="none" stroke="BLACK" d="M2720.11,-427.311C2733.5,-419.918 2747.42,-410.736 2758.5,-400 2793.97,-365.624 2777.04,-336.202 2814.5,-304 2845.18,-277.62 2885.35,-259.273 2922.4,-246.765"/>
<polygon fill="BLACK" stroke="BLACK" points="2923.82,-249.981 2932.24,-243.55 2921.65,-243.326 2923.82,-249.981"/>
<text text-anchor="start" x="2814.5" y="-332.8" font-family="Times,serif" font-size="14.00"> </text>
<text text-anchor="start" x="2818.5" y="-332.8" font-family="Times,serif" font-size="10.00" fill="#336633">OBAN:association_has_object</text>
<text text-anchor="start" x="2946.5" y="-332.8" font-family="Times,serif" font-size="14.00"> </text>
</g>
<!-- node7&#45;&gt;node8 -->
<g id="edge17" class="edge"><title>node7&#45;&gt;node8</title>
<path fill="none" stroke="BLACK" d="M2506.89,-448.062C2204.65,-446.319 1574.93,-438.07 1359.5,-400 1312.58,-391.708 1299.64,-389.23 1257.5,-367 1196.43,-334.789 1134.85,-282.49 1099.82,-250.429"/>
<polygon fill="BLACK" stroke="BLACK" points="1102.05,-247.732 1092.33,-243.519 1097.31,-252.875 1102.05,-247.732"/>
<text text-anchor="start" x="1257.5" y="-332.8" font-family="Times,serif" font-size="14.00"> </text>
<text text-anchor="start" x="1261.5" y="-332.8" font-family="Times,serif" font-size="10.00" fill="#336633">OBO:SEPIO_0000007</text>
<text text-anchor="start" x="1355.5" y="-332.8" font-family="Times,serif" font-size="14.00"> </text>
</g>
<!-- node13 -->
<g id="node14" class="node"><title>node13</title>
<polygon fill="grey" stroke="none" points="2968.5,-333.5 2968.5,-352.5 3122.5,-352.5 3122.5,-333.5 2968.5,-333.5"/>
<text text-anchor="start" x="2999.5" y="-340.3" font-family="DejaVu Sans" font-weight="bold" font-size="14.00">association</text>
<g id="a_node14_15"><a xlink:href="http://purl.org/oban/association" xlink:title="&lt;TABLE&gt;">
<polygon fill="#eeeeee" stroke="none" points="2968.5,-318.5 2968.5,-333.5 3122.5,-333.5 3122.5,-318.5 2968.5,-318.5"/>
<text text-anchor="start" x="2970.5" y="-323.5" font-family="DejaVu Sans" font-size="10.00" fill="#6666ff">http://purl.org/oban/association</text>
</a>
</g>
<polygon fill="none" stroke="#666666" points="2967.5,-317.5 2967.5,-353.5 3123.5,-353.5 3123.5,-317.5 2967.5,-317.5"/>
</g>
<!-- node7&#45;&gt;node13 -->
<g id="edge13" class="edge"><title>node7&#45;&gt;node13</title>
<path fill="none" stroke="BLACK" d="M2743.53,-427.422C2798.64,-411.034 2876.96,-387.684 2945.5,-367 2952.43,-364.909 2959.63,-362.73 2966.84,-360.54"/>
<polygon fill="BLACK" stroke="BLACK" points="2968.11,-363.811 2976.66,-357.555 2966.07,-357.114 2968.11,-363.811"/>
<text text-anchor="start" x="2878.5" y="-389.8" font-family="Times,serif" font-size="14.00"> </text>
<text text-anchor="start" x="2882.5" y="-389.8" font-family="Times,serif" font-size="10.00" fill="#336633">rdf:type</text>
<text text-anchor="start" x="2915.5" y="-389.8" font-family="Times,serif" font-size="14.00"> </text>
</g>
<!-- node18 -->
<g id="node19" class="node"><title>node18</title>
<polygon fill="grey" stroke="none" points="3158.5,-333.5 3158.5,-352.5 3376.5,-352.5 3376.5,-333.5 3158.5,-333.5"/>
<text text-anchor="start" x="3206.5" y="-340.3" font-family="DejaVu Sans" font-weight="bold" font-size="14.00">GENO_0000841</text>
<g id="a_node19_16"><a xlink:href="http://purl.obolibrary.org/obo/GENO_0000841" xlink:title="&lt;TABLE&gt;">
<polygon fill="#eeeeee" stroke="none" points="3158.5,-318.5 3158.5,-333.5 3376.5,-333.5 3376.5,-318.5 3158.5,-318.5"/>
<text text-anchor="start" x="3160.5" y="-323.5" font-family="DejaVu Sans" font-size="10.00" fill="#6666ff">http://purl.obolibrary.org/obo/GENO_0000841</text>
</a>
</g>
<polygon fill="none" stroke="#666666" points="3157.5,-317.5 3157.5,-353.5 3377.5,-353.5 3377.5,-317.5 3157.5,-317.5"/>
</g>
<!-- node7&#45;&gt;node18 -->
<g id="edge18" class="edge"><title>node7&#45;&gt;node18</title>
<path fill="none" stroke="BLACK" d="M2806.57,-427.464C2900.38,-412.182 3028.44,-390.189 3140.5,-367 3151.13,-364.801 3162.22,-362.359 3173.23,-359.841"/>
<polygon fill="BLACK" stroke="BLACK" points="3174.35,-363.174 3183.3,-357.512 3172.77,-356.354 3174.35,-363.174"/>
<text text-anchor="start" x="3038.5" y="-389.8" font-family="Times,serif" font-size="14.00"> </text>
<text text-anchor="start" x="3042.5" y="-389.8" font-family="Times,serif" font-size="10.00" fill="#336633">OBAN:association_has_predicate</text>
<text text-anchor="start" x="3182.5" y="-389.8" font-family="Times,serif" font-size="14.00"> </text>
</g>
<!-- node19 -->
<g id="node20" class="node"><title>node19</title>
<polygon fill="grey" stroke="none" points="3413.5,-333.5 3413.5,-352.5 3656.5,-352.5 3656.5,-333.5 3413.5,-333.5"/>
<text text-anchor="start" x="3474.5" y="-340.3" font-family="DejaVu Sans" font-weight="bold" font-size="14.00">RCV000498447</text>
<g id="a_node20_17"><a xlink:href="http://www.ncbi.nlm.nih.gov/clinvar/RCV000498447" xlink:title="&lt;TABLE&gt;">
<polygon fill="#eeeeee" stroke="none" points="3413.5,-318.5 3413.5,-333.5 3656.5,-333.5 3656.5,-318.5 3413.5,-318.5"/>
<text text-anchor="start" x="3415.5" y="-323.5" font-family="DejaVu Sans" font-size="10.00" fill="#6666ff">http://www.ncbi.nlm.nih.gov/clinvar/RCV000498447</text>
</a>
</g>
<polygon fill="none" stroke="#666666" points="3412,-317.5 3412,-353.5 3657,-353.5 3657,-317.5 3412,-317.5"/>
</g>
<!-- node7&#45;&gt;node19 -->
<g id="edge21" class="edge"><title>node7&#45;&gt;node19</title>
<path fill="none" stroke="BLACK" d="M2838.15,-435.835C2939.98,-427.344 3073.01,-414.985 3190.5,-400 3281.61,-388.379 3304.26,-384.115 3394.5,-367 3406.46,-364.732 3418.96,-362.217 3431.35,-359.633"/>
<polygon fill="BLACK" stroke="BLACK" points="3432.2,-363.032 3441.26,-357.548 3430.76,-356.182 3432.2,-363.032"/>
<text text-anchor="start" x="3293.5" y="-389.8" font-family="Times,serif" font-size="14.00"> </text>
<text text-anchor="start" x="3297.5" y="-389.8" font-family="Times,serif" font-size="10.00" fill="#336633">oboInOwl:hasdbxref</text>
<text text-anchor="start" x="3382.5" y="-389.8" font-family="Times,serif" font-size="14.00"> </text>
</g>
<!-- node22 -->
<g id="node23" class="node"><title>node22</title>
<polygon fill="grey" stroke="none" points="1020.5,-115 1020.5,-134 1414.5,-134 1414.5,-115 1020.5,-115"/>
<text text-anchor="start" x="1022.5" y="-121.8" font-family="DejaVu Sans" font-weight="bold" font-size="14.00">http://www.ncbi.nlm.nih.gov/pubmed/27486776</text>
<g id="a_node23_18"><a xlink:href="http://www.ncbi.nlm.nih.gov/pubmed/27486776" xlink:title="&lt;TABLE&gt;">
<polygon fill="#eeeeee" stroke="none" points="1020.5,-100 1020.5,-115 1414.5,-115 1414.5,-100 1020.5,-100"/>
<text text-anchor="start" x="1106" y="-105" font-family="DejaVu Sans" font-size="10.00" fill="#6666ff">http://www.ncbi.nlm.nih.gov/pubmed/27486776</text>
</a>
</g>
<polygon fill="none" stroke="#666666" points="1019.5,-99 1019.5,-135 1415.5,-135 1415.5,-99 1019.5,-99"/>
</g>
<!-- node7&#45;&gt;node22 -->
<g id="edge29" class="edge"><title>node7&#45;&gt;node22</title>
<path fill="none" stroke="BLACK" d="M2506.53,-439.103C2270.19,-421.835 1825.64,-374.867 1467.5,-253 1388.37,-226.074 1304.46,-175.644 1256.77,-144.624"/>
<polygon fill="BLACK" stroke="BLACK" points="1258.58,-141.624 1248.29,-139.068 1254.74,-147.478 1258.58,-141.624"/>
<text text-anchor="start" x="1564.5" y="-275.8" font-family="Times,serif" font-size="14.00"> </text>
<text text-anchor="start" x="1568.5" y="-275.8" font-family="Times,serif" font-size="10.00" fill="#336633">dc:source</text>
<text text-anchor="start" x="1608.5" y="-275.8" font-family="Times,serif" font-size="14.00"> </text>
</g>
<!-- node9 -->
<g id="node10" class="node"><title>node9</title>
<polygon fill="grey" stroke="none" points="388.5,-115 388.5,-134 738.5,-134 738.5,-115 388.5,-115"/>
<text text-anchor="start" x="390.5" y="-121.8" font-family="DejaVu Sans" font-weight="bold" font-size="14.00">&quot;_:be870b3d47783bbdcf05SEPIO:0000066&quot;</text>
<g id="a_node10_19"><a xlink:href="https://monarchinitiative.org/.well-known/genid/b664828053687f26b867" xlink:title="&lt;TABLE&gt;">
<polygon fill="#eeeeee" stroke="none" points="388.5,-100 388.5,-115 738.5,-115 738.5,-100 388.5,-100"/>
<text text-anchor="start" x="392.5" y="-105" font-family="DejaVu Sans" font-size="10.00" fill="#6666ff">https://monarchinitiative.org/.well&#45;known/genid/b664828053687f26b867</text>
</a>
</g>
<polygon fill="none" stroke="#666666" points="387.5,-99 387.5,-135 739.5,-135 739.5,-99 387.5,-99"/>
</g>
<!-- node8&#45;&gt;node9 -->
<g id="edge6" class="edge"><title>node8&#45;&gt;node9</title>
<path fill="none" stroke="BLACK" d="M966.371,-199.448C882.241,-182.44 763.991,-158.533 677.363,-141.02"/>
<polygon fill="BLACK" stroke="BLACK" points="677.987,-137.575 667.492,-139.024 676.6,-144.436 677.987,-137.575"/>
<text text-anchor="start" x="817.5" y="-161.8" font-family="Times,serif" font-size="14.00"> </text>
<text text-anchor="start" x="821.5" y="-161.8" font-family="Times,serif" font-size="10.00" fill="#336633">OBO:SEPIO_0000085</text>
<text text-anchor="start" x="915.5" y="-161.8" font-family="Times,serif" font-size="14.00"> </text>
</g>
<!-- node8&#45;&gt;node22 -->
<g id="edge28" class="edge"><title>node8&#45;&gt;node22</title>
<path fill="none" stroke="BLACK" d="M1100.96,-199.262C1123.6,-183.473 1154.66,-161.817 1179.02,-144.831"/>
<polygon fill="BLACK" stroke="BLACK" points="1181.13,-147.626 1187.33,-139.035 1177.13,-141.884 1181.13,-147.626"/>
<text text-anchor="start" x="1161.5" y="-161.8" font-family="Times,serif" font-size="14.00"> </text>
<text text-anchor="start" x="1165.5" y="-161.8" font-family="Times,serif" font-size="10.00" fill="#336633">OBO:SEPIO_0000124</text>
<text text-anchor="start" x="1259.5" y="-161.8" font-family="Times,serif" font-size="14.00"> </text>
</g>
<!-- node24 -->
<g id="node25" class="node"><title>node24</title>
<polygon fill="grey" stroke="none" points="774.5,-115 774.5,-134 984.5,-134 984.5,-115 774.5,-115"/>
<text text-anchor="start" x="825" y="-121.8" font-family="DejaVu Sans" font-weight="bold" font-size="14.00">ECO_0000000</text>
<g id="a_node25_20"><a xlink:href="http://purl.obolibrary.org/obo/ECO_0000000" xlink:title="&lt;TABLE&gt;">
<polygon fill="#eeeeee" stroke="none" points="774.5,-100 774.5,-115 984.5,-115 984.5,-100 774.5,-100"/>
<text text-anchor="start" x="776.5" y="-105" font-family="DejaVu Sans" font-size="10.00" fill="#6666ff">http://purl.obolibrary.org/obo/ECO_0000000</text>
</a>
</g>
<polygon fill="none" stroke="#666666" points="773.5,-99 773.5,-135 985.5,-135 985.5,-99 773.5,-99"/>
</g>
<!-- node8&#45;&gt;node24 -->
<g id="edge30" class="edge"><title>node8&#45;&gt;node24</title>
<path fill="none" stroke="BLACK" d="M1030.92,-199.262C1000.99,-183.198 959.737,-161.059 927.847,-143.946"/>
<polygon fill="BLACK" stroke="BLACK" points="929.164,-140.68 918.697,-139.035 925.854,-146.848 929.164,-140.68"/>
<text text-anchor="start" x="975.5" y="-161.8" font-family="Times,serif" font-size="14.00"> </text>
<text text-anchor="start" x="979.5" y="-161.8" font-family="Times,serif" font-size="10.00" fill="#336633">rdf:type</text>
<text text-anchor="start" x="1012.5" y="-161.8" font-family="Times,serif" font-size="14.00"> </text>
</g>
<!-- node20 -->
<g id="node21" class="node"><title>node20</title>
<polygon fill="grey" stroke="none" points="454.5,-20 454.5,-39 672.5,-39 672.5,-20 454.5,-20"/>
<text text-anchor="start" x="501.5" y="-26.8" font-family="DejaVu Sans" font-weight="bold" font-size="14.00">SEPIO_0000066</text>
<g id="a_node21_21"><a xlink:href="http://purl.obolibrary.org/obo/SEPIO_0000066" xlink:title="&lt;TABLE&gt;">
<polygon fill="#eeeeee" stroke="none" points="454.5,-5 454.5,-20 672.5,-20 672.5,-5 454.5,-5"/>
<text text-anchor="start" x="456.5" y="-10" font-family="DejaVu Sans" font-size="10.00" fill="#6666ff">http://purl.obolibrary.org/obo/SEPIO_0000066</text>
</a>
</g>
<polygon fill="none" stroke="#666666" points="453.5,-4 453.5,-40 673.5,-40 673.5,-4 453.5,-4"/>
</g>
<!-- node9&#45;&gt;node20 -->
<g id="edge22" class="edge"><title>node9&#45;&gt;node20</title>
<path fill="none" stroke="BLACK" d="M563.5,-94.8969C563.5,-82.8873 563.5,-67.6175 563.5,-54.242"/>
<polygon fill="BLACK" stroke="BLACK" points="567,-54.0196 563.5,-44.0196 560,-54.0197 567,-54.0196"/>
<text text-anchor="start" x="563.5" y="-66.8" font-family="Times,serif" font-size="14.00"> </text>
<text text-anchor="start" x="567.5" y="-66.8" font-family="Times,serif" font-size="10.00" fill="#336633">rdf:type</text>
<text text-anchor="start" x="600.5" y="-66.8" font-family="Times,serif" font-size="14.00"> </text>
</g>
<!-- node15&#45;&gt;node5 -->
<g id="edge20" class="edge"><title>node15&#45;&gt;node5</title>
<path fill="none" stroke="BLACK" d="M2284.3,-189.747C2290.12,-176.777 2296.88,-161.711 2302.7,-148.743"/>
<polygon fill="BLACK" stroke="BLACK" points="2306.04,-149.861 2306.94,-139.304 2299.65,-146.995 2306.04,-149.861"/>
<text text-anchor="start" x="2299.5" y="-161.8" font-family="Times,serif" font-size="14.00"> </text>
<text text-anchor="start" x="2303.5" y="-161.8" font-family="Times,serif" font-size="10.00" fill="#336633">rdf:type</text>
<text text-anchor="start" x="2336.5" y="-161.8" font-family="Times,serif" font-size="14.00"> </text>
</g>
<!-- node15&#45;&gt;node10 -->
<g id="edge24" class="edge"><title>node15&#45;&gt;node10</title>
<path fill="none" stroke="BLACK" d="M2358.61,-189.885C2402.31,-174.703 2454.35,-156.62 2495.31,-142.389"/>
<polygon fill="BLACK" stroke="BLACK" points="2496.64,-145.633 2504.93,-139.044 2494.34,-139.021 2496.64,-145.633"/>
<text text-anchor="start" x="2453.5" y="-161.8" font-family="Times,serif" font-size="14.00"> </text>
<text text-anchor="start" x="2457.5" y="-161.8" font-family="Times,serif" font-size="10.00" fill="#336633">OBO:RO_0002162</text>
<text text-anchor="start" x="2539.5" y="-161.8" font-family="Times,serif" font-size="14.00"> </text>
</g>
<!-- node15&#45;&gt;node12 -->
<g id="edge15" class="edge"><title>node15&#45;&gt;node12</title>
<path fill="none" stroke="BLACK" d="M2077.4,-189.967C2057.88,-184.63 2041.82,-178.631 2032.5,-172 2024.13,-166.045 2017.59,-157.154 2012.66,-148.297"/>
<polygon fill="BLACK" stroke="BLACK" points="2015.71,-146.574 2008.1,-139.204 2009.45,-149.712 2015.71,-146.574"/>
<text text-anchor="start" x="2032.5" y="-161.8" font-family="Times,serif" font-size="14.00"> </text>
<text text-anchor="start" x="2036.5" y="-161.8" font-family="Times,serif" font-size="10.00" fill="#336633">OBO:BFO_0000050</text>
<text text-anchor="start" x="2123.5" y="-161.8" font-family="Times,serif" font-size="14.00"> </text>
</g>
<!-- node16 -->
<g id="node17" class="node"><title>node16</title>
<polygon fill="grey" stroke="none" points="3658.5,-456.5 3658.5,-475.5 3924.5,-475.5 3924.5,-456.5 3658.5,-456.5"/>
<text text-anchor="start" x="3719.5" y="-463.3" font-family="DejaVu Sans" font-weight="bold" font-size="14.00">RCV000498447.nt</text>
<g id="a_node17_22"><a xlink:href="https://data.monarchinitiative.org/ttl/RCV000498447.nt" xlink:title="&lt;TABLE&gt;">
<polygon fill="#eeeeee" stroke="none" points="3658.5,-441.5 3658.5,-456.5 3924.5,-456.5 3924.5,-441.5 3658.5,-441.5"/>
<text text-anchor="start" x="3660.5" y="-446.5" font-family="DejaVu Sans" font-size="10.00" fill="#6666ff">https://data.monarchinitiative.org/ttl/RCV000498447.nt</text>
</a>
</g>
<text text-anchor="start" x="3660.5" y="-428.3" font-family="DejaVu Sans" font-size="14.00">owl:versionInfo</text>
<text text-anchor="start" x="3798.5" y="-428.3" font-family="DejaVu Sans" font-size="14.00">&quot;2019&#45;07&#45;01&quot;</text>
<polygon fill="none" stroke="#666666" points="3657.5,-422 3657.5,-477 3925.5,-477 3925.5,-422 3657.5,-422"/>
</g>
<!-- node17 -->
<g id="node18" class="node"><title>node17</title>
<polygon fill="grey" stroke="none" points="3692.5,-333.5 3692.5,-352.5 3890.5,-352.5 3890.5,-333.5 3692.5,-333.5"/>
<text text-anchor="start" x="3754.5" y="-340.3" font-family="DejaVu Sans" font-weight="bold" font-size="14.00">Ontology</text>
<g id="a_node18_23"><a xlink:href="http://www.w3.org/2002/07/owl#Ontology" xlink:title="&lt;TABLE&gt;">
<polygon fill="#eeeeee" stroke="none" points="3692.5,-318.5 3692.5,-333.5 3890.5,-333.5 3890.5,-318.5 3692.5,-318.5"/>
<text text-anchor="start" x="3694.5" y="-323.5" font-family="DejaVu Sans" font-size="10.00" fill="#6666ff">http://www.w3.org/2002/07/owl#Ontology</text>
</a>
</g>
<polygon fill="none" stroke="#666666" points="3691.5,-317.5 3691.5,-353.5 3891.5,-353.5 3891.5,-317.5 3691.5,-317.5"/>
</g>
<!-- node16&#45;&gt;node17 -->
<g id="edge16" class="edge"><title>node16&#45;&gt;node17</title>
<path fill="none" stroke="BLACK" d="M3791.5,-417.896C3791.5,-402.319 3791.5,-383.416 3791.5,-367.749"/>
<polygon fill="BLACK" stroke="BLACK" points="3795,-367.501 3791.5,-357.501 3788,-367.501 3795,-367.501"/>
<text text-anchor="start" x="3791.5" y="-389.8" font-family="Times,serif" font-size="14.00"> </text>
<text text-anchor="start" x="3795.5" y="-389.8" font-family="Times,serif" font-size="10.00" fill="#336633">rdf:type</text>
<text text-anchor="start" x="3828.5" y="-389.8" font-family="Times,serif" font-size="14.00"> </text>
</g>
<!-- node23 -->
<g id="node24" class="node"><title>node23</title>
<polygon fill="grey" stroke="none" points="1114.5,-20 1114.5,-39 1320.5,-39 1320.5,-20 1114.5,-20"/>
<text text-anchor="start" x="1165" y="-26.8" font-family="DejaVu Sans" font-weight="bold" font-size="14.00">IAO_0000013</text>
<g id="a_node24_24"><a xlink:href="http://purl.obolibrary.org/obo/IAO_0000013" xlink:title="&lt;TABLE&gt;">
<polygon fill="#eeeeee" stroke="none" points="1114.5,-5 1114.5,-20 1320.5,-20 1320.5,-5 1114.5,-5"/>
<text text-anchor="start" x="1116.5" y="-10" font-family="DejaVu Sans" font-size="10.00" fill="#6666ff">http://purl.obolibrary.org/obo/IAO_0000013</text>
</a>
</g>
<polygon fill="none" stroke="#666666" points="1113.5,-4 1113.5,-40 1321.5,-40 1321.5,-4 1113.5,-4"/>
</g>
<!-- node22&#45;&gt;node23 -->
<g id="edge25" class="edge"><title>node22&#45;&gt;node23</title>
<path fill="none" stroke="BLACK" d="M1217.5,-94.8969C1217.5,-82.8873 1217.5,-67.6175 1217.5,-54.242"/>
<polygon fill="BLACK" stroke="BLACK" points="1221,-54.0196 1217.5,-44.0196 1214,-54.0197 1221,-54.0196"/>
<text text-anchor="start" x="1217.5" y="-66.8" font-family="Times,serif" font-size="14.00"> </text>
<text text-anchor="start" x="1221.5" y="-66.8" font-family="Times,serif" font-size="10.00" fill="#336633">rdf:type</text>
<text text-anchor="start" x="1254.5" y="-66.8" font-family="Times,serif" font-size="14.00"> </text>
</g>
</g>
</svg>
