<?xml version="1.0" encoding="UTF-8" standalone="no"?>
<!DOCTYPE svg PUBLIC "-//W3C//DTD SVG 1.1//EN"
 "http://www.w3.org/Graphics/SVG/1.1/DTD/svg11.dtd">
<!-- Generated by graphviz version 2.40.1 (20161225.0304)
 -->
<!-- Title: G Pages: 1 -->
<svg width="1361pt" height="516pt"
 viewBox="0.00 0.00 1361.00 515.50" xmlns="http://www.w3.org/2000/svg" xmlns:xlink="http://www.w3.org/1999/xlink">
<g id="graph0" class="graph" transform="scale(1 1) rotate(0) translate(4 511.5)">
<title>G</title>
<polygon fill="#ffffff" stroke="transparent" points="-4,4 -4,-511.5 1357,-511.5 1357,4 -4,4"/>
<!-- all_summary_view -->
<g id="node1" class="node">
<title>all_summary_view</title>
<polygon fill="none" stroke="#000000" points="198.5,-403 198.5,-449 274.5,-449 274.5,-403 198.5,-403"/>
<text text-anchor="middle" x="236.5" y="-433.8" font-family="Times,serif" font-size="14.00" fill="#000000">allele</text>
<polyline fill="none" stroke="#000000" points="198.5,-426 274.5,-426 "/>
<text text-anchor="middle" x="236.5" y="-410.8" font-family="Times,serif" font-size="14.00" fill="#000000">object_key</text>
</g>
<!-- all_allele_view -->
<g id="node2" class="node">
<title>all_allele_view</title>
<polygon fill="none" stroke="#000000" points="549.5,-262.5 549.5,-354.5 625.5,-354.5 625.5,-262.5 549.5,-262.5"/>
<text text-anchor="middle" x="587.5" y="-339.3" font-family="Times,serif" font-size="14.00" fill="#000000">seqalt</text>
<polyline fill="none" stroke="#000000" points="549.5,-331.5 625.5,-331.5 "/>
<text text-anchor="middle" x="587.5" y="-316.3" font-family="Times,serif" font-size="14.00" fill="#000000">allele_key</text>
<polyline fill="none" stroke="#000000" points="549.5,-308.5 625.5,-308.5 "/>
<text text-anchor="middle" x="587.5" y="-293.3" font-family="Times,serif" font-size="14.00" fill="#000000">object_key</text>
<polyline fill="none" stroke="#000000" points="549.5,-285.5 625.5,-285.5 "/>
<text text-anchor="middle" x="587.5" y="-270.3" font-family="Times,serif" font-size="14.00" fill="#000000">strain_key</text>
</g>
<!-- all_summary_view&#45;&gt;all_allele_view -->
<g id="edge1" class="edge">
<title>all_summary_view:f0&#45;&gt;all_allele_view:f0</title>
<path fill="none" stroke="#000000" d="M274.5,-414C334.8308,-414 495.5161,-396.2943 539.5,-355 547.047,-347.9144 542.2986,-335.5117 542.3798,-327.6668"/>
<polygon fill="#000000" stroke="#000000" points="544.9349,-330.0609 549.5,-320.5 539.9691,-325.1273 544.9349,-330.0609"/>
</g>
<!-- gxd_allelepair_view -->
<g id="node3" class="node">
<title>gxd_allelepair_view</title>
<polygon fill="none" stroke="#000000" points="0,-262.5 0,-354.5 127,-354.5 127,-262.5 0,-262.5"/>
<text text-anchor="middle" x="63.5" y="-339.3" font-family="Times,serif" font-size="14.00" fill="#000000">gxd_allelepair_view</text>
<polyline fill="none" stroke="#000000" points="0,-331.5 127,-331.5 "/>
<text text-anchor="middle" x="63.5" y="-316.3" font-family="Times,serif" font-size="14.00" fill="#000000">genotype_key</text>
<polyline fill="none" stroke="#000000" points="0,-308.5 127,-308.5 "/>
<text text-anchor="middle" x="63.5" y="-293.3" font-family="Times,serif" font-size="14.00" fill="#000000">allele_key_1</text>
<polyline fill="none" stroke="#000000" points="0,-285.5 127,-285.5 "/>
<text text-anchor="middle" x="63.5" y="-270.3" font-family="Times,serif" font-size="14.00" fill="#000000">allele_key_2</text>
</g>
<!-- all_summary_view&#45;&gt;gxd_allelepair_view -->
<g id="edge2" class="edge">
<title>all_summary_view:f0&#45;&gt;gxd_allelepair_view:f1</title>
<path fill="none" stroke="#000000" d="M198.5,-414C184.3544,-414 186.6532,-400.8495 176.5,-391 159.3329,-374.3464 147.8682,-376.0431 136.5,-355 131.8601,-346.4112 136.3951,-318.3472 133.6647,-304.4475"/>
<polygon fill="#000000" stroke="#000000" points="136.3946,-302.2564 127.5,-296.5 130.8635,-306.5468 136.3946,-302.2564"/>
</g>
<!-- all_summary_view&#45;&gt;gxd_allelepair_view -->
<g id="edge3" class="edge">
<title>all_summary_view:f0&#45;&gt;gxd_allelepair_view:f2</title>
<path fill="none" stroke="#000000" d="M198.5,-414C184.3544,-414 186.6532,-400.8495 176.5,-391 159.3329,-374.3464 147.4168,-376.2808 136.5,-355 129.8726,-342.0807 139.6632,-297.9982 134.6937,-280.6228"/>
<polygon fill="#000000" stroke="#000000" points="137.0686,-278.0489 127.5,-273.5 132.1434,-283.0231 137.0686,-278.0489"/>
</g>
<!-- all_allele_mutation_view -->
<g id="node4" class="node">
<title>all_allele_mutation_view</title>
<polygon fill="none" stroke="#000000" points="328,-168 328,-214 483,-214 483,-168 328,-168"/>
<text text-anchor="middle" x="405.5" y="-198.8" font-family="Times,serif" font-size="14.00" fill="#000000">all_allele_mutation_view</text>
<polyline fill="none" stroke="#000000" points="328,-191 483,-191 "/>
<text text-anchor="middle" x="405.5" y="-175.8" font-family="Times,serif" font-size="14.00" fill="#000000">allele_key</text>
</g>
<!-- all_summary_view&#45;&gt;all_allele_mutation_view -->
<g id="edge4" class="edge">
<title>all_summary_view:f0&#45;&gt;all_allele_mutation_view:f0</title>
<path fill="none" stroke="#000000" d="M274.5,-414C330.3693,-414 347.842,-396.2705 385.5,-355 415.7108,-321.8911 397.6277,-297.8716 424.5,-262 444.5799,-235.1956 468.6014,-244.7384 483,-214.5 483,-214.5 434.268,-185.2608 414.09,-173.154"/>
<polygon fill="#000000" stroke="#000000" points="415.8757,-170.1438 405.5,-168 412.2742,-176.1462 415.8757,-170.1438"/>
</g>
<!-- voc_annot_view -->
<g id="node5" class="node">
<title>voc_annot_view</title>
<polygon fill="none" stroke="#000000" points="145.5,-274 145.5,-343 221.5,-343 221.5,-274 145.5,-274"/>
<text text-anchor="middle" x="183.5" y="-327.8" font-family="Times,serif" font-size="14.00" fill="#000000">annot</text>
<polyline fill="none" stroke="#000000" points="145.5,-320 221.5,-320 "/>
<text text-anchor="middle" x="183.5" y="-304.8" font-family="Times,serif" font-size="14.00" fill="#000000">annot_key</text>
<polyline fill="none" stroke="#000000" points="145.5,-297 221.5,-297 "/>
<text text-anchor="middle" x="183.5" y="-281.8" font-family="Times,serif" font-size="14.00" fill="#000000">object_key</text>
</g>
<!-- all_summary_view&#45;&gt;voc_annot_view -->
<g id="edge5" class="edge">
<title>all_summary_view:f0&#45;&gt;voc_annot_view:f1</title>
<path fill="none" stroke="#000000" d="M198.5,-414C193.3889,-414 197.5555,-407.5231 198.5,-402.5 203.7007,-374.8404 216.2993,-371.1596 221.5,-343.5 223.2491,-334.1977 229.3802,-307.2784 227.4094,-293.6338"/>
<polygon fill="#000000" stroke="#000000" points="230.2094,-291.5331 221.5,-285.5 224.5462,-295.6475 230.2094,-291.5331"/>
</g>
<!-- mgi_note_allele_view -->
<g id="node6" class="node">
<title>mgi_note_allele_view</title>
<polygon fill="none" stroke="#000000" points="240,-285.5 240,-331.5 377,-331.5 377,-285.5 240,-285.5"/>
<text text-anchor="middle" x="308.5" y="-316.3" font-family="Times,serif" font-size="14.00" fill="#000000">mgi_note_allele_view</text>
<polyline fill="none" stroke="#000000" points="240,-308.5 377,-308.5 "/>
<text text-anchor="middle" x="308.5" y="-293.3" font-family="Times,serif" font-size="14.00" fill="#000000">allele_key</text>
</g>
<!-- all_summary_view&#45;&gt;mgi_note_allele_view -->
<g id="edge6" class="edge">
<title>all_summary_view:f0&#45;&gt;mgi_note_allele_view:f0</title>
<path fill="none" stroke="#000000" d="M274.5,-414C279.6111,-414 275.6672,-407.476 274.5,-402.5 266.5111,-368.4422 247.4889,-366.0578 239.5,-332 237.1636,-322.0395 231.2231,-310.0698 231.6368,-302.8847"/>
<polygon fill="#000000" stroke="#000000" points="233.943,-305.5206 239.5,-296.5 229.5306,-300.0863 233.943,-305.5206"/>
</g>
<!-- all_allele_view&#45;&gt;all_allele_mutation_view -->
<g id="edge23" class="edge">
<title>all_allele_view:f0&#45;&gt;all_allele_mutation_view:f0</title>
<path fill="none" stroke="#000000" d="M549.5,-320.5C536.3114,-320.5 546.3744,-273.2553 539.5,-262 525.6004,-239.2423 505.3916,-248.7626 491.5,-226 487.6625,-219.7119 490.4159,-199.4456 488.8886,-187.6796"/>
<polygon fill="#000000" stroke="#000000" points="491.7481,-185.6497 483.5,-179 485.801,-189.342 491.7481,-185.6497"/>
</g>
<!-- mgi_relationship_transgene_genes -->
<g id="node20" class="node">
<title>mgi_relationship_transgene_genes</title>
<polygon fill="none" stroke="#000000" points="501,-168 501,-214 706,-214 706,-168 501,-168"/>
<text text-anchor="middle" x="603.5" y="-198.8" font-family="Times,serif" font-size="14.00" fill="#000000">mgi_relationship_transgene_genes</text>
<polyline fill="none" stroke="#000000" points="501,-191 706,-191 "/>
<text text-anchor="middle" x="603.5" y="-175.8" font-family="Times,serif" font-size="14.00" fill="#000000">allele_key</text>
</g>
<!-- all_allele_view&#45;&gt;mgi_relationship_transgene_genes -->
<g id="edge24" class="edge">
<title>all_allele_view:f0&#45;&gt;mgi_relationship_transgene_genes:f0</title>
<path fill="none" stroke="#000000" d="M625.5,-320.5C638.6529,-320.5 627.4185,-273.0839 634.5,-262 655.0403,-229.8503 687.9709,-248.1223 706,-214.5 715.7664,-196.2866 720.6135,-182.6135 706,-168 692.3474,-154.3474 628.1918,-147.4739 608.9613,-159.5695"/>
<polygon fill="#000000" stroke="#000000" points="605.9994,-157.7042 603.5,-168 611.8744,-161.51 605.9994,-157.7042"/>
</g>
<!-- evidence_view -->
<g id="node17" class="node">
<title>evidence_view</title>
<polygon fill="none" stroke="#000000" points="150.5,-156.5 150.5,-225.5 278.5,-225.5 278.5,-156.5 150.5,-156.5"/>
<text text-anchor="middle" x="214.5" y="-210.3" font-family="Times,serif" font-size="14.00" fill="#000000">notes</text>
<polyline fill="none" stroke="#000000" points="150.5,-202.5 278.5,-202.5 "/>
<text text-anchor="middle" x="214.5" y="-187.3" font-family="Times,serif" font-size="14.00" fill="#000000">annot_evidence_key</text>
<polyline fill="none" stroke="#000000" points="150.5,-179.5 278.5,-179.5 "/>
<text text-anchor="middle" x="214.5" y="-164.3" font-family="Times,serif" font-size="14.00" fill="#000000">annot_key</text>
</g>
<!-- voc_annot_view&#45;&gt;evidence_view -->
<g id="edge19" class="edge">
<title>voc_annot_view:f0&#45;&gt;evidence_view:f1</title>
<path fill="none" stroke="#000000" d="M221.5,-308.5C237.0556,-308.5 228.8289,-287.2209 221.5,-273.5 203.6125,-240.0116 168.3875,-259.4884 150.5,-226 145.9931,-217.5623 141.0764,-189.7004 144.1101,-175.895"/>
<polygon fill="#000000" stroke="#000000" points="146.9293,-177.975 150.5,-168 141.4882,-173.5712 146.9293,-177.975"/>
</g>
<!-- mgi_note_vocevidence_view -->
<g id="node18" class="node">
<title>mgi_note_vocevidence_view</title>
<polygon fill="none" stroke="#000000" points="80.5,-73.5 80.5,-119.5 256.5,-119.5 256.5,-73.5 80.5,-73.5"/>
<text text-anchor="middle" x="168.5" y="-104.3" font-family="Times,serif" font-size="14.00" fill="#000000">mgi_note_vocevidence_view</text>
<polyline fill="none" stroke="#000000" points="80.5,-96.5 256.5,-96.5 "/>
<text text-anchor="middle" x="168.5" y="-81.3" font-family="Times,serif" font-size="14.00" fill="#000000">object_key</text>
</g>
<!-- voc_annot_view&#45;&gt;mgi_note_vocevidence_view -->
<g id="edge20" class="edge">
<title>voc_annot_view:f0&#45;&gt;mgi_note_vocevidence_view</title>
<path fill="none" stroke="#000000" d="M145.5,-308.5C128.5497,-308.5 137.9169,-172.5672 141.5,-156 143.4687,-146.8971 146.9518,-137.5132 150.7753,-128.9647"/>
<polygon fill="#000000" stroke="#000000" points="154.0345,-130.2611 155.1743,-119.7277 147.7146,-127.2513 154.0345,-130.2611"/>
</g>
<!-- mrk_summary_view -->
<g id="node7" class="node">
<title>mrk_summary_view</title>
<polygon fill="none" stroke="#000000" points="549.5,-403 549.5,-449 625.5,-449 625.5,-403 549.5,-403"/>
<text text-anchor="middle" x="587.5" y="-433.8" font-family="Times,serif" font-size="14.00" fill="#000000">marker</text>
<polyline fill="none" stroke="#000000" points="549.5,-426 625.5,-426 "/>
<text text-anchor="middle" x="587.5" y="-410.8" font-family="Times,serif" font-size="14.00" fill="#000000">object_key</text>
</g>
<!-- mrk_summary_view&#45;&gt;all_allele_view -->
<g id="edge7" class="edge">
<title>mrk_summary_view:f0&#45;&gt;all_allele_view:f1</title>
<path fill="none" stroke="#000000" d="M587.5,-403C587.5,-375.7907 616.5591,-380.6984 625.5,-355 628.6371,-345.9833 634.1776,-318.6604 631.7509,-304.7814"/>
<polygon fill="#000000" stroke="#000000" points="634.3182,-302.3729 625.5,-296.5 628.7311,-306.5901 634.3182,-302.3729"/>
</g>
<!-- mrk_summary_view&#45;&gt;voc_annot_view -->
<g id="edge8" class="edge">
<title>mrk_summary_view:f0&#45;&gt;voc_annot_view:f1</title>
<path fill="none" stroke="#000000" d="M549.5,-414C477.4088,-414 280.0786,-407.3364 230.5,-355 222.3,-346.3439 230.5095,-310.2028 227.8188,-293.7372"/>
<polygon fill="#000000" stroke="#000000" points="230.3636,-291.3041 221.5,-285.5 224.8095,-295.5647 230.3636,-291.3041"/>
</g>
<!-- mrk_marker_view -->
<g id="node8" class="node">
<title>mrk_marker_view</title>
<polygon fill="none" stroke="#000000" points="789.5,-285.5 789.5,-331.5 907.5,-331.5 907.5,-285.5 789.5,-285.5"/>
<text text-anchor="middle" x="848.5" y="-316.3" font-family="Times,serif" font-size="14.00" fill="#000000">mrk_marker_view</text>
<polyline fill="none" stroke="#000000" points="789.5,-308.5 907.5,-308.5 "/>
<text text-anchor="middle" x="848.5" y="-293.3" font-family="Times,serif" font-size="14.00" fill="#000000">marker_key</text>
</g>
<!-- mrk_summary_view&#45;&gt;mrk_marker_view -->
<g id="edge9" class="edge">
<title>mrk_summary_view:f0&#45;&gt;mrk_marker_view:f0</title>
<path fill="none" stroke="#000000" d="M625.5,-414C698.7956,-414 733.0078,-411.6633 779.5,-355 785.7089,-347.4328 780.9451,-318.8739 783.4679,-304.6512"/>
<polygon fill="#000000" stroke="#000000" points="786.3648,-306.6203 789.5,-296.5 780.738,-302.4563 786.3648,-306.6203"/>
</g>
<!-- mrk_acc_view -->
<g id="node9" class="node">
<title>mrk_acc_view</title>
<polygon fill="none" stroke="#000000" points="434,-285.5 434,-331.5 531,-331.5 531,-285.5 434,-285.5"/>
<text text-anchor="middle" x="482.5" y="-316.3" font-family="Times,serif" font-size="14.00" fill="#000000">mrk_acc_view</text>
<polyline fill="none" stroke="#000000" points="434,-308.5 531,-308.5 "/>
<text text-anchor="middle" x="482.5" y="-293.3" font-family="Times,serif" font-size="14.00" fill="#000000">object_key</text>
</g>
<!-- mrk_summary_view&#45;&gt;mrk_acc_view -->
<g id="edge10" class="edge">
<title>mrk_summary_view:f0&#45;&gt;mrk_acc_view:f0</title>
<path fill="none" stroke="#000000" d="M549.5,-414C538.5106,-414 542.4908,-332.6576 536.5302,-305.3316"/>
<polygon fill="#000000" stroke="#000000" points="539.4906,-303.4571 531.5,-296.5 533.408,-306.9216 539.4906,-303.4571"/>
</g>
<!-- mrk_location_cache -->
<g id="node10" class="node">
<title>mrk_location_cache</title>
<polygon fill="none" stroke="#000000" points="644,-285.5 644,-331.5 771,-331.5 771,-285.5 644,-285.5"/>
<text text-anchor="middle" x="707.5" y="-316.3" font-family="Times,serif" font-size="14.00" fill="#000000">mrk_location_cache</text>
<polyline fill="none" stroke="#000000" points="644,-308.5 771,-308.5 "/>
<text text-anchor="middle" x="707.5" y="-293.3" font-family="Times,serif" font-size="14.00" fill="#000000">marker_key</text>
</g>
<!-- mrk_summary_view&#45;&gt;mrk_location_cache -->
<g id="edge11" class="edge">
<title>mrk_summary_view:f0&#45;&gt;mrk_location_cache:f0</title>
<path fill="none" stroke="#000000" d="M625.5,-414C636.4894,-414 632.5092,-332.6576 638.4698,-305.3316"/>
<polygon fill="#000000" stroke="#000000" points="641.592,-306.9216 643.5,-296.5 635.5094,-303.4571 641.592,-306.9216"/>
</g>
<!-- bib_acc_view -->
<g id="node11" class="node">
<title>bib_acc_view</title>
<polygon fill="none" stroke="#000000" points="1129,-403 1129,-449 1206,-449 1206,-403 1129,-403"/>
<text text-anchor="middle" x="1167.5" y="-433.8" font-family="Times,serif" font-size="14.00" fill="#000000">publication</text>
<polyline fill="none" stroke="#000000" points="1129,-426 1206,-426 "/>
<text text-anchor="middle" x="1167.5" y="-410.8" font-family="Times,serif" font-size="14.00" fill="#000000">object_key</text>
</g>
<!-- bib_acc_view&#45;&gt;bib_acc_view -->
<g id="edge12" class="edge">
<title>bib_acc_view:f0&#45;&gt;bib_acc_view:f0</title>
<path fill="none" stroke="#000000" d="M1170.5318,-426.2324C1176.3504,-457.166 1175.3398,-507.5 1167.5,-507.5 1160.4564,-507.5 1158.9253,-466.8709 1162.9066,-436.1847"/>
<polygon fill="#000000" stroke="#000000" points="1166.3758,-436.654 1164.4682,-426.2324 1159.4604,-435.5689 1166.3758,-436.654"/>
</g>
<!-- prb_strain_acc_view -->
<g id="node12" class="node">
<title>prb_strain_acc_view</title>
<polygon fill="none" stroke="#000000" points="998.5,-391.5 998.5,-460.5 1110.5,-460.5 1110.5,-391.5 998.5,-391.5"/>
<text text-anchor="middle" x="1054.5" y="-445.3" font-family="Times,serif" font-size="14.00" fill="#000000">strain</text>
<polyline fill="none" stroke="#000000" points="998.5,-437.5 1110.5,-437.5 "/>
<text text-anchor="middle" x="1054.5" y="-422.3" font-family="Times,serif" font-size="14.00" fill="#000000">object_key</text>
<polyline fill="none" stroke="#000000" points="998.5,-414.5 1110.5,-414.5 "/>
<text text-anchor="middle" x="1054.5" y="-399.3" font-family="Times,serif" font-size="14.00" fill="#000000">(bnode hardcode)</text>
</g>
<!-- prb_strain_acc_view&#45;&gt;all_allele_view -->
<g id="edge14" class="edge">
<title>prb_strain_acc_view:f0&#45;&gt;all_allele_view:f2</title>
<path fill="none" stroke="#000000" d="M998.5,-426C916.0867,-426 690.3176,-415.6328 634.5,-355 624.6657,-344.3174 636.3604,-298.9069 632.2967,-280.8996"/>
<polygon fill="#000000" stroke="#000000" points="634.8424,-278.4971 625.5,-273.5 629.687,-283.2324 634.8424,-278.4971"/>
</g>
<!-- gxd_genotype_view -->
<g id="node13" class="node">
<title>gxd_genotype_view</title>
<polygon fill="none" stroke="#000000" points="925.5,-285.5 925.5,-331.5 1051.5,-331.5 1051.5,-285.5 925.5,-285.5"/>
<text text-anchor="middle" x="988.5" y="-316.3" font-family="Times,serif" font-size="14.00" fill="#000000">gxd_genotype_view</text>
<polyline fill="none" stroke="#000000" points="925.5,-308.5 1051.5,-308.5 "/>
<text text-anchor="middle" x="988.5" y="-293.3" font-family="Times,serif" font-size="14.00" fill="#000000">strain_key</text>
</g>
<!-- prb_strain_acc_view&#45;&gt;gxd_genotype_view -->
<g id="edge13" class="edge">
<title>prb_strain_acc_view:f0&#45;&gt;gxd_genotype_view:f0</title>
<path fill="none" stroke="#000000" d="M998.5,-426C982.9444,-426 992.9338,-405.5256 998.5,-391 1011.1129,-358.0852 1038.8871,-364.9148 1051.5,-332 1055.2932,-322.1012 1061.1116,-309.4786 1059.7363,-302.2609"/>
<polygon fill="#000000" stroke="#000000" points="1061.7005,-299.3636 1051.5,-296.5 1057.6884,-305.0997 1061.7005,-299.3636"/>
</g>
<!-- prb_strain_view -->
<g id="node14" class="node">
<title>prb_strain_view</title>
<polygon fill="none" stroke="#000000" points="1069.5,-285.5 1069.5,-331.5 1173.5,-331.5 1173.5,-285.5 1069.5,-285.5"/>
<text text-anchor="middle" x="1121.5" y="-316.3" font-family="Times,serif" font-size="14.00" fill="#000000">prb_strain_view</text>
<polyline fill="none" stroke="#000000" points="1069.5,-308.5 1173.5,-308.5 "/>
<text text-anchor="middle" x="1121.5" y="-293.3" font-family="Times,serif" font-size="14.00" fill="#000000">strain_key</text>
</g>
<!-- prb_strain_acc_view&#45;&gt;prb_strain_view -->
<g id="edge15" class="edge">
<title>prb_strain_acc_view:f0&#45;&gt;prb_strain_view:f0</title>
<path fill="none" stroke="#000000" d="M1110.5,-426C1126.0556,-426 1115.1512,-405.8439 1110.5,-391 1100.9521,-360.5288 1079.0479,-362.4712 1069.5,-332 1066.3672,-322.0019 1060.4375,-309.6278 1061.4273,-302.4422"/>
<polygon fill="#000000" stroke="#000000" points="1063.5214,-305.2468 1069.5,-296.5 1059.3717,-299.6094 1063.5214,-305.2468"/>
</g>
<!-- prb_strain_genotype_view -->
<g id="node15" class="node">
<title>prb_strain_genotype_view</title>
<polygon fill="none" stroke="#000000" points="1192,-285.5 1192,-331.5 1353,-331.5 1353,-285.5 1192,-285.5"/>
<text text-anchor="middle" x="1272.5" y="-316.3" font-family="Times,serif" font-size="14.00" fill="#000000">prb_strain_genotype_view</text>
<polyline fill="none" stroke="#000000" points="1192,-308.5 1353,-308.5 "/>
<text text-anchor="middle" x="1272.5" y="-293.3" font-family="Times,serif" font-size="14.00" fill="#000000">strain_key</text>
</g>
<!-- prb_strain_acc_view&#45;&gt;prb_strain_genotype_view -->
<g id="edge16" class="edge">
<title>prb_strain_acc_view:f0&#45;&gt;prb_strain_genotype_view:f0</title>
<path fill="none" stroke="#000000" d="M1110.5,-426C1126.678,-426 1110.5616,-403.7655 1120.5,-391 1140.0744,-365.8574 1164.5428,-381.322 1182.5,-355 1188.0015,-346.9359 1183.0491,-318.6177 1185.5071,-304.5521"/>
<polygon fill="#000000" stroke="#000000" points="1188.3372,-306.6117 1191.5,-296.5 1182.7217,-302.4324 1188.3372,-306.6117"/>
</g>
<!-- gxd_genotype_summary_view -->
<g id="node16" class="node">
<title>gxd_genotype_summary_view</title>
<polygon fill="none" stroke="#000000" points="91.5,-403 91.5,-449 167.5,-449 167.5,-403 91.5,-403"/>
<text text-anchor="middle" x="129.5" y="-433.8" font-family="Times,serif" font-size="14.00" fill="#000000">genotype</text>
<polyline fill="none" stroke="#000000" points="91.5,-426 167.5,-426 "/>
<text text-anchor="middle" x="129.5" y="-410.8" font-family="Times,serif" font-size="14.00" fill="#000000">object_key</text>
</g>
<!-- gxd_genotype_summary_view&#45;&gt;gxd_allelepair_view -->
<g id="edge17" class="edge">
<title>gxd_genotype_summary_view:f0&#45;&gt;gxd_allelepair_view:f0</title>
<path fill="none" stroke="#000000" d="M91.5,-414C86.3889,-414 89.8715,-407.3447 91.5,-402.5 99.9398,-377.3913 119.0602,-380.1087 127.5,-355 130.6679,-345.5755 136.1746,-333.8671 135.4744,-326.7995"/>
<polygon fill="#000000" stroke="#000000" points="137.5166,-323.9524 127.5,-320.5 133.1774,-329.4453 137.5166,-323.9524"/>
</g>
<!-- gxd_genotype_summary_view&#45;&gt;voc_annot_view -->
<g id="edge18" class="edge">
<title>gxd_genotype_summary_view:f0&#45;&gt;voc_annot_view:f1</title>
<path fill="none" stroke="#000000" d="M167.5,-414C172.6111,-414 168.4073,-407.5299 167.5,-402.5 162.5322,-374.9586 150.4678,-371.0414 145.5,-343.5 143.8198,-334.185 137.6563,-307.2716 139.6052,-293.6311"/>
<polygon fill="#000000" stroke="#000000" points="142.4642,-295.6506 145.5,-285.5 136.7968,-291.5419 142.4642,-295.6506"/>
</g>
<!-- evidence_view&#45;&gt;mgi_note_vocevidence_view -->
<g id="edge22" class="edge">
<title>evidence_view:f0&#45;&gt;mgi_note_vocevidence_view:f0</title>
<path fill="none" stroke="#000000" d="M150.5,-191C134.9444,-191 141.4402,-168.645 150.5,-156 179.4775,-115.5555 227.5225,-160.4445 256.5,-120 262.9612,-110.982 268.1366,-97.0949 265.1555,-89.6442"/>
<polygon fill="#000000" stroke="#000000" points="266.8846,-86.6004 256.5,-84.5 263.3082,-92.6179 266.8846,-86.6004"/>
</g>
<!-- notes -->
<g id="node19" class="node">
<title>notes</title>
<polygon fill="none" stroke="#000000" points="141.5,-.5 141.5,-36.5 195.5,-36.5 195.5,-.5 141.5,-.5"/>
<text text-anchor="middle" x="168.5" y="-14.8" font-family="Times,serif" font-size="14.00" fill="#000000">notes</text>
</g>
<!-- mgi_note_vocevidence_view&#45;&gt;notes -->
<g id="edge21" class="edge">
<title>mgi_note_vocevidence_view&#45;&gt;notes:object_key</title>
<path fill="none" stroke="#000000" d="M168.5,-73.0974C168.5,-64.8028 168.5,-55.3812 168.5,-46.7274"/>
<polygon fill="#000000" stroke="#000000" points="172.0001,-46.6798 168.5,-36.6799 165.0001,-46.6799 172.0001,-46.6798"/>
</g>
</g>
</svg>
