<?xml version="1.0" encoding="UTF-8" standalone="no"?>
<!DOCTYPE svg PUBLIC "-//W3C//DTD SVG 1.1//EN"
 "http://www.w3.org/Graphics/SVG/1.1/DTD/svg11.dtd">
<!-- Generated by graphviz version 2.38.0 (20140413.2041)
 -->
<!-- Title: %3 Pages: 1 -->
<svg width="2337pt" height="915pt"
 viewBox="0.00 0.00 2337.00 915.00" xmlns="http://www.w3.org/2000/svg" xmlns:xlink="http://www.w3.org/1999/xlink">
<g id="graph0" class="graph" transform="scale(1 1) rotate(0) translate(4 911)">
<title>%3</title>
<polygon fill="white" stroke="none" points="-4,4 -4,-911 2333,-911 2333,4 -4,4"/>
<!-- node0 -->
<g id="node1" class="node"><title>node0</title>
<polygon fill="grey" stroke="none" points="9.5,-739 9.5,-758 626.5,-758 626.5,-739 9.5,-739"/>
<text text-anchor="start" x="174.5" y="-745.8" font-family="DejaVu Sans" font-weight="bold" font-size="14.00">MONARCH_b618c5e3940e56edb188</text>
<g id="a_node1_0"><a xlink:href="https://monarchinitiative.org/MONARCH_b618c5e3940e56edb188" xlink:title="&lt;TABLE&gt;">
<polygon fill="#eeeeee" stroke="none" points="9.5,-724 9.5,-739 626.5,-739 626.5,-724 9.5,-724"/>
<text text-anchor="start" x="161.5" y="-729" font-family="DejaVu Sans" font-size="10.00" fill="#6666ff">https://monarchinitiative.org/MONARCH_b618c5e3940e56edb188</text>
</a>
</g>
<text text-anchor="start" x="11.5" y="-710.8" font-family="DejaVu Sans" font-size="14.00">dc:description</text>
<text text-anchor="start" x="110.5" y="-710.8" font-family="DejaVu Sans" font-size="14.00">&quot;in combination with FLYBASE:Hsap\APP[695.UAS.Exel]; FB:FBal0256652&quot;</text>
<polygon fill="none" stroke="#666666" points="8,-704.5 8,-759.5 627,-759.5 627,-704.5 8,-704.5"/>
</g>
<!-- node1 -->
<g id="node2" class="node"><title>node1</title>
<polygon fill="grey" stroke="none" points="828,-706 828,-725 1222,-725 1222,-706 828,-706"/>
<text text-anchor="start" x="830" y="-712.8" font-family="DejaVu Sans" font-weight="bold" font-size="14.00">http://www.ncbi.nlm.nih.gov/pubmed/26530776</text>
<g id="a_node2_1"><a xlink:href="http://www.ncbi.nlm.nih.gov/pubmed/26530776" xlink:title="&lt;TABLE&gt;">
<polygon fill="#eeeeee" stroke="none" points="828,-691 828,-706 1222,-706 1222,-691 828,-691"/>
<text text-anchor="start" x="913.5" y="-696" font-family="DejaVu Sans" font-size="10.00" fill="#6666ff">http://www.ncbi.nlm.nih.gov/pubmed/26530776</text>
</a>
</g>
<polygon fill="none" stroke="#666666" points="827,-690 827,-726 1223,-726 1223,-690 827,-690"/>
</g>
<!-- node0&#45;&gt;node1 -->
<g id="edge1" class="edge"><title>node0&#45;&gt;node1</title>
<path fill="none" stroke="BLACK" d="M635.136,-721.229C693.846,-719.231 753.905,-717.188 808.715,-715.324"/>
<polygon fill="BLACK" stroke="BLACK" points="809.011,-718.816 818.886,-714.978 808.773,-711.82 809.011,-718.816"/>
<text text-anchor="start" x="703" y="-724.8" font-family="Times,serif" font-size="14.00"> </text>
<text text-anchor="start" x="707" y="-724.8" font-family="Times,serif" font-size="10.00" fill="#336633">dc:source</text>
<text text-anchor="start" x="747" y="-724.8" font-family="Times,serif" font-size="14.00"> </text>
</g>
<!-- node4 -->
<g id="node5" class="node"><title>node4</title>
<polygon fill="grey" stroke="none" points="924,-349 924,-368 1126,-368 1126,-349 924,-349"/>
<text text-anchor="start" x="926" y="-355.8" font-family="DejaVu Sans" font-weight="bold" font-size="14.00">&quot;Hsap\BACE1[UAS.Exel]&quot;</text>
<g id="a_node5_2"><a xlink:href="http://flybase.org/reports/FBal0256668" xlink:title="&lt;TABLE&gt;">
<polygon fill="#eeeeee" stroke="none" points="924,-334 924,-349 1126,-349 1126,-334 924,-334"/>
<text text-anchor="start" x="933" y="-339" font-family="DejaVu Sans" font-size="10.00" fill="#6666ff">http://flybase.org/reports/FBal0256668</text>
</a>
</g>
<polygon fill="none" stroke="#666666" points="923,-333 923,-369 1127,-369 1127,-333 923,-333"/>
</g>
<!-- node0&#45;&gt;node4 -->
<g id="edge10" class="edge"><title>node0&#45;&gt;node4</title>
<path fill="none" stroke="BLACK" d="M374.001,-700.376C438.856,-664.839 550.394,-608.072 653,-577 684.855,-567.353 777.808,-577.873 801,-554 845.635,-508.054 777.458,-459.76 819,-411 840.74,-385.483 872.689,-370.505 904.925,-361.805"/>
<polygon fill="BLACK" stroke="BLACK" points="906.077,-365.125 914.928,-359.302 904.377,-358.335 906.077,-365.125"/>
<text text-anchor="start" x="657" y="-581.8" font-family="Times,serif" font-size="14.00"> </text>
<text text-anchor="start" x="661" y="-581.8" font-family="Times,serif" font-size="10.00" fill="#336633">OBAN:association_has_subject</text>
<text text-anchor="start" x="793" y="-581.8" font-family="Times,serif" font-size="14.00"> </text>
</g>
<!-- node6 -->
<g id="node7" class="node"><title>node6</title>
<polygon fill="grey" stroke="none" points="948,-548 948,-567 1102,-567 1102,-548 948,-548"/>
<text text-anchor="start" x="979" y="-554.8" font-family="DejaVu Sans" font-weight="bold" font-size="14.00">association</text>
<g id="a_node7_3"><a xlink:href="http://purl.org/oban/association" xlink:title="&lt;TABLE&gt;">
<polygon fill="#eeeeee" stroke="none" points="948,-533 948,-548 1102,-548 1102,-533 948,-533"/>
<text text-anchor="start" x="950" y="-538" font-family="DejaVu Sans" font-size="10.00" fill="#6666ff">http://purl.org/oban/association</text>
</a>
</g>
<polygon fill="none" stroke="#666666" points="947,-532 947,-568 1103,-568 1103,-532 947,-532"/>
</g>
<!-- node0&#45;&gt;node6 -->
<g id="edge4" class="edge"><title>node0&#45;&gt;node6</title>
<path fill="none" stroke="BLACK" d="M438.629,-700.426C502.049,-684.571 581.376,-666.019 653,-653 685.624,-647.07 773.625,-652.711 801,-634 814.793,-624.573 805.778,-611.212 819,-601 850.308,-576.82 891.626,-563.962 928.96,-557.178"/>
<polygon fill="BLACK" stroke="BLACK" points="929.589,-560.621 938.864,-555.501 928.42,-553.72 929.589,-560.621"/>
<text text-anchor="start" x="706.5" y="-657.8" font-family="Times,serif" font-size="14.00"> </text>
<text text-anchor="start" x="710.5" y="-657.8" font-family="Times,serif" font-size="10.00" fill="#336633">rdf:type</text>
<text text-anchor="start" x="743.5" y="-657.8" font-family="Times,serif" font-size="14.00"> </text>
</g>
<!-- node10 -->
<g id="node11" class="node"><title>node10</title>
<polygon fill="grey" stroke="none" points="1390,-701 1390,-720 1593,-720 1593,-701 1390,-701"/>
<text text-anchor="start" x="1442.5" y="-707.8" font-family="DejaVu Sans" font-weight="bold" font-size="14.00">DOID_10652</text>
<g id="a_node11_4"><a xlink:href="http://purl.obolibrary.org/obo/DOID_10652" xlink:title="&lt;TABLE&gt;">
<polygon fill="#eeeeee" stroke="none" points="1390,-686 1390,-701 1593,-701 1593,-686 1390,-686"/>
<text text-anchor="start" x="1392" y="-691" font-family="DejaVu Sans" font-size="10.00" fill="#6666ff">http://purl.obolibrary.org/obo/DOID_10652</text>
</a>
</g>
<polygon fill="none" stroke="#666666" points="1388.5,-685 1388.5,-721 1593.5,-721 1593.5,-685 1388.5,-685"/>
</g>
<!-- node0&#45;&gt;node10 -->
<g id="edge8" class="edge"><title>node0&#45;&gt;node10</title>
<path fill="none" stroke="BLACK" d="M393.535,-763.509C551.315,-825.281 927.897,-949.073 1231,-863 1321.17,-837.394 1410.71,-770.476 1457.22,-731.775"/>
<polygon fill="BLACK" stroke="BLACK" points="1459.72,-734.241 1465.12,-725.124 1455.21,-728.886 1459.72,-734.241"/>
<text text-anchor="start" x="957" y="-896.8" font-family="Times,serif" font-size="14.00"> </text>
<text text-anchor="start" x="961" y="-896.8" font-family="Times,serif" font-size="10.00" fill="#336633">OBAN:association_has_object</text>
<text text-anchor="start" x="1089" y="-896.8" font-family="Times,serif" font-size="14.00"> </text>
</g>
<!-- node11 -->
<g id="node12" class="node"><title>node11</title>
<polygon fill="grey" stroke="none" points="828,-830 828,-849 1222,-849 1222,-830 828,-830"/>
<text text-anchor="start" x="830" y="-836.8" font-family="DejaVu Sans" font-weight="bold" font-size="14.00">http://www.ncbi.nlm.nih.gov/pubmed/29245900</text>
<g id="a_node12_5"><a xlink:href="http://www.ncbi.nlm.nih.gov/pubmed/29245900" xlink:title="&lt;TABLE&gt;">
<polygon fill="#eeeeee" stroke="none" points="828,-815 828,-830 1222,-830 1222,-815 828,-815"/>
<text text-anchor="start" x="913.5" y="-820" font-family="DejaVu Sans" font-size="10.00" fill="#6666ff">http://www.ncbi.nlm.nih.gov/pubmed/29245900</text>
</a>
</g>
<polygon fill="none" stroke="#666666" points="827,-814 827,-850 1223,-850 1223,-814 827,-814"/>
</g>
<!-- node0&#45;&gt;node11 -->
<g id="edge9" class="edge"><title>node0&#45;&gt;node11</title>
<path fill="none" stroke="BLACK" d="M540.756,-763.503C643.741,-778.101 763.999,-795.147 858.786,-808.582"/>
<polygon fill="BLACK" stroke="BLACK" points="858.36,-812.057 868.752,-809.995 859.342,-805.126 858.36,-812.057"/>
<text text-anchor="start" x="703" y="-804.8" font-family="Times,serif" font-size="14.00"> </text>
<text text-anchor="start" x="707" y="-804.8" font-family="Times,serif" font-size="10.00" fill="#336633">dc:source</text>
<text text-anchor="start" x="747" y="-804.8" font-family="Times,serif" font-size="14.00"> </text>
</g>
<!-- node15 -->
<g id="node16" class="node"><title>node15</title>
<polygon fill="grey" stroke="none" points="924,-630 924,-649 1127,-649 1127,-630 924,-630"/>
<text text-anchor="start" x="975.5" y="-636.8" font-family="DejaVu Sans" font-weight="bold" font-size="14.00">RO_0003301</text>
<g id="a_node16_6"><a xlink:href="http://purl.obolibrary.org/obo/RO_0003301" xlink:title="&lt;TABLE&gt;">
<polygon fill="#eeeeee" stroke="none" points="924,-615 924,-630 1127,-630 1127,-615 924,-615"/>
<text text-anchor="start" x="926" y="-620" font-family="DejaVu Sans" font-size="10.00" fill="#6666ff">http://purl.obolibrary.org/obo/RO_0003301</text>
</a>
</g>
<polygon fill="none" stroke="#666666" points="922.5,-614 922.5,-650 1127.5,-650 1127.5,-614 922.5,-614"/>
</g>
<!-- node0&#45;&gt;node15 -->
<g id="edge16" class="edge"><title>node0&#45;&gt;node15</title>
<path fill="none" stroke="BLACK" d="M592.836,-700.481C660.95,-691.941 733.713,-682.211 801,-672 834.568,-666.906 870.853,-660.699 904.206,-654.71"/>
<polygon fill="BLACK" stroke="BLACK" points="905.237,-658.08 914.456,-652.859 903.994,-651.192 905.237,-658.08"/>
<text text-anchor="start" x="653" y="-697.8" font-family="Times,serif" font-size="14.00"> </text>
<text text-anchor="start" x="657" y="-697.8" font-family="Times,serif" font-size="10.00" fill="#336633">OBAN:association_has_predicate</text>
<text text-anchor="start" x="797" y="-697.8" font-family="Times,serif" font-size="14.00"> </text>
</g>
<!-- node21 -->
<g id="node22" class="node"><title>node21</title>
<polygon fill="grey" stroke="none" points="828,-768 828,-787 1222,-787 1222,-768 828,-768"/>
<text text-anchor="start" x="830" y="-774.8" font-family="DejaVu Sans" font-weight="bold" font-size="14.00">http://www.ncbi.nlm.nih.gov/pubmed/24597901</text>
<g id="a_node22_7"><a xlink:href="http://www.ncbi.nlm.nih.gov/pubmed/24597901" xlink:title="&lt;TABLE&gt;">
<polygon fill="#eeeeee" stroke="none" points="828,-753 828,-768 1222,-768 1222,-753 828,-753"/>
<text text-anchor="start" x="913.5" y="-758" font-family="DejaVu Sans" font-size="10.00" fill="#6666ff">http://www.ncbi.nlm.nih.gov/pubmed/24597901</text>
</a>
</g>
<polygon fill="none" stroke="#666666" points="827,-752 827,-788 1223,-788 1223,-752 827,-752"/>
</g>
<!-- node0&#45;&gt;node21 -->
<g id="edge24" class="edge"><title>node0&#45;&gt;node21</title>
<path fill="none" stroke="BLACK" d="M635.136,-749.055C693.846,-752.217 753.905,-755.452 808.715,-758.404"/>
<polygon fill="BLACK" stroke="BLACK" points="808.713,-761.909 818.886,-758.952 809.089,-754.919 808.713,-761.909"/>
<text text-anchor="start" x="703" y="-762.8" font-family="Times,serif" font-size="14.00"> </text>
<text text-anchor="start" x="707" y="-762.8" font-family="Times,serif" font-size="10.00" fill="#336633">dc:source</text>
<text text-anchor="start" x="747" y="-762.8" font-family="Times,serif" font-size="14.00"> </text>
</g>
<!-- node2 -->
<g id="node3" class="node"><title>node2</title>
<polygon fill="grey" stroke="none" points="163.5,-202 163.5,-221 471.5,-221 471.5,-202 163.5,-202"/>
<text text-anchor="start" x="179" y="-208.8" font-family="DejaVu Sans" font-weight="bold" font-size="14.00">MONARCH_b9ff92b425779b68f939</text>
<g id="a_node3_8"><a xlink:href="https://monarchinitiative.org/MONARCH_b9ff92b425779b68f939" xlink:title="&lt;TABLE&gt;">
<polygon fill="#eeeeee" stroke="none" points="163.5,-187 163.5,-202 471.5,-202 471.5,-187 163.5,-187"/>
<text text-anchor="start" x="165.5" y="-192" font-family="DejaVu Sans" font-size="10.00" fill="#6666ff">https://monarchinitiative.org/MONARCH_b9ff92b425779b68f939</text>
</a>
</g>
<polygon fill="none" stroke="#666666" points="162.5,-186 162.5,-222 472.5,-222 472.5,-186 162.5,-186"/>
</g>
<!-- node3 -->
<g id="node4" class="node"><title>node3</title>
<polygon fill="grey" stroke="none" points="924,-257 924,-276 1127,-276 1127,-257 924,-257"/>
<text text-anchor="start" x="975.5" y="-263.8" font-family="DejaVu Sans" font-weight="bold" font-size="14.00">RO_0002200</text>
<g id="a_node4_9"><a xlink:href="http://purl.obolibrary.org/obo/RO_0002200" xlink:title="&lt;TABLE&gt;">
<polygon fill="#eeeeee" stroke="none" points="924,-242 924,-257 1127,-257 1127,-242 924,-242"/>
<text text-anchor="start" x="926" y="-247" font-family="DejaVu Sans" font-size="10.00" fill="#6666ff">http://purl.obolibrary.org/obo/RO_0002200</text>
</a>
</g>
<polygon fill="none" stroke="#666666" points="922.5,-241 922.5,-277 1127.5,-277 1127.5,-241 922.5,-241"/>
</g>
<!-- node2&#45;&gt;node3 -->
<g id="edge2" class="edge"><title>node2&#45;&gt;node3</title>
<path fill="none" stroke="BLACK" d="M480.799,-216.653C609.98,-226.723 787.829,-240.588 904.312,-249.669"/>
<polygon fill="BLACK" stroke="BLACK" points="904.096,-253.163 914.337,-250.451 904.64,-246.184 904.096,-253.163"/>
<text text-anchor="start" x="653" y="-246.8" font-family="Times,serif" font-size="14.00"> </text>
<text text-anchor="start" x="657" y="-246.8" font-family="Times,serif" font-size="10.00" fill="#336633">OBAN:association_has_predicate</text>
<text text-anchor="start" x="797" y="-246.8" font-family="Times,serif" font-size="14.00"> </text>
</g>
<!-- node2&#45;&gt;node4 -->
<g id="edge27" class="edge"><title>node2&#45;&gt;node4</title>
<path fill="none" stroke="BLACK" d="M424.12,-226.007C554.062,-253.082 773.913,-298.891 908.309,-326.894"/>
<polygon fill="BLACK" stroke="BLACK" points="907.731,-330.349 918.235,-328.962 909.159,-323.496 907.731,-330.349"/>
<text text-anchor="start" x="657" y="-308.8" font-family="Times,serif" font-size="14.00"> </text>
<text text-anchor="start" x="661" y="-308.8" font-family="Times,serif" font-size="10.00" fill="#336633">OBAN:association_has_subject</text>
<text text-anchor="start" x="793" y="-308.8" font-family="Times,serif" font-size="14.00"> </text>
</g>
<!-- node2&#45;&gt;node6 -->
<g id="edge29" class="edge"><title>node2&#45;&gt;node6</title>
<path fill="none" stroke="BLACK" d="M368.779,-226.132C438.597,-259.375 564.278,-328.725 635,-425 650.728,-446.411 632.618,-464.961 653,-482 703.88,-524.535 741.474,-471.764 801,-501 811.155,-505.988 808.902,-513.899 819,-519 852.552,-535.948 892.845,-544.228 928.795,-548.091"/>
<polygon fill="BLACK" stroke="BLACK" points="928.518,-551.58 938.81,-549.066 929.197,-544.613 928.518,-551.58"/>
<text text-anchor="start" x="706.5" y="-505.8" font-family="Times,serif" font-size="14.00"> </text>
<text text-anchor="start" x="710.5" y="-505.8" font-family="Times,serif" font-size="10.00" fill="#336633">rdf:type</text>
<text text-anchor="start" x="743.5" y="-505.8" font-family="Times,serif" font-size="14.00"> </text>
</g>
<!-- node16 -->
<g id="node17" class="node"><title>node16</title>
<polygon fill="grey" stroke="none" points="1385,-202 1385,-221 1597,-221 1597,-202 1385,-202"/>
<text text-anchor="start" x="1434" y="-208.8" font-family="DejaVu Sans" font-weight="bold" font-size="14.00">FBcv_0000414</text>
<g id="a_node17_10"><a xlink:href="http://purl.obolibrary.org/obo/FBcv_0000414" xlink:title="&lt;TABLE&gt;">
<polygon fill="#eeeeee" stroke="none" points="1385,-187 1385,-202 1597,-202 1597,-187 1385,-187"/>
<text text-anchor="start" x="1387" y="-192" font-family="DejaVu Sans" font-size="10.00" fill="#6666ff">http://purl.obolibrary.org/obo/FBcv_0000414</text>
</a>
</g>
<polygon fill="none" stroke="#666666" points="1384,-186 1384,-222 1598,-222 1598,-186 1384,-186"/>
</g>
<!-- node2&#45;&gt;node16 -->
<g id="edge21" class="edge"><title>node2&#45;&gt;node16</title>
<path fill="none" stroke="BLACK" d="M480.777,-204C717.498,-204 1152.45,-204 1365.61,-204"/>
<polygon fill="BLACK" stroke="BLACK" points="1365.91,-207.5 1375.91,-204 1365.91,-200.5 1365.91,-207.5"/>
<text text-anchor="start" x="957" y="-208.8" font-family="Times,serif" font-size="14.00"> </text>
<text text-anchor="start" x="961" y="-208.8" font-family="Times,serif" font-size="10.00" fill="#336633">OBAN:association_has_object</text>
<text text-anchor="start" x="1089" y="-208.8" font-family="Times,serif" font-size="14.00"> </text>
</g>
<!-- node18 -->
<g id="node19" class="node"><title>node18</title>
<polygon fill="grey" stroke="none" points="916,-144 916,-163 1135,-163 1135,-144 916,-144"/>
<text text-anchor="start" x="962.5" y="-150.8" font-family="DejaVu Sans" font-weight="bold" font-size="14.00">FBdv_00005339</text>
<g id="a_node19_11"><a xlink:href="http://purl.obolibrary.org/obo/FBdv_00005339" xlink:title="&lt;TABLE&gt;">
<polygon fill="#eeeeee" stroke="none" points="916,-129 916,-144 1135,-144 1135,-129 916,-129"/>
<text text-anchor="start" x="918" y="-134" font-family="DejaVu Sans" font-size="10.00" fill="#6666ff">http://purl.obolibrary.org/obo/FBdv_00005339</text>
</a>
</g>
<polygon fill="none" stroke="#666666" points="914.5,-128 914.5,-164 1135.5,-164 1135.5,-128 914.5,-128"/>
</g>
<!-- node2&#45;&gt;node18 -->
<g id="edge19" class="edge"><title>node2&#45;&gt;node18</title>
<path fill="none" stroke="BLACK" d="M480.532,-189.674C535.295,-184.906 596.794,-179.633 653,-175 733.701,-168.348 824.31,-161.258 895.781,-155.754"/>
<polygon fill="BLACK" stroke="BLACK" points="896.482,-159.21 906.184,-154.953 895.945,-152.231 896.482,-159.21"/>
<text text-anchor="start" x="675" y="-179.8" font-family="Times,serif" font-size="14.00"> </text>
<text text-anchor="start" x="679" y="-179.8" font-family="Times,serif" font-size="10.00" fill="#336633">OBO:GENO_0000580</text>
<text text-anchor="start" x="775" y="-179.8" font-family="Times,serif" font-size="14.00"> </text>
</g>
<!-- node20 -->
<g id="node21" class="node"><title>node20</title>
<polygon fill="grey" stroke="none" points="931,-82 931,-101 1119,-101 1119,-82 931,-82"/>
<text text-anchor="start" x="973" y="-88.8" font-family="DejaVu Sans" font-weight="bold" font-size="14.00">FBal0047071</text>
<g id="a_node21_12"><a xlink:href="http://flybase.org/reports/FBal0047071" xlink:title="&lt;TABLE&gt;">
<polygon fill="#eeeeee" stroke="none" points="931,-67 931,-82 1119,-82 1119,-67 931,-67"/>
<text text-anchor="start" x="933" y="-72" font-family="DejaVu Sans" font-size="10.00" fill="#6666ff">http://flybase.org/reports/FBal0047071</text>
</a>
</g>
<polygon fill="none" stroke="#666666" points="930,-66 930,-102 1120,-102 1120,-66 930,-66"/>
</g>
<!-- node2&#45;&gt;node20 -->
<g id="edge23" class="edge"><title>node2&#45;&gt;node20</title>
<path fill="none" stroke="BLACK" d="M437.427,-181.958C538.742,-163.395 688.263,-136.505 819,-115 849.075,-110.053 881.684,-104.987 911.859,-100.422"/>
<polygon fill="BLACK" stroke="BLACK" points="912.625,-103.846 921.992,-98.8935 911.582,-96.9239 912.625,-103.846"/>
<text text-anchor="start" x="675" y="-148.8" font-family="Times,serif" font-size="14.00"> </text>
<text text-anchor="start" x="679" y="-148.8" font-family="Times,serif" font-size="10.00" fill="#336633">OBO:GENO_0000580</text>
<text text-anchor="start" x="775" y="-148.8" font-family="Times,serif" font-size="14.00"> </text>
</g>
<!-- node23 -->
<g id="node24" class="node"><title>node23</title>
<polygon fill="grey" stroke="none" points="828,-20 828,-39 1222,-39 1222,-20 828,-20"/>
<text text-anchor="start" x="830" y="-26.8" font-family="DejaVu Sans" font-weight="bold" font-size="14.00">http://www.ncbi.nlm.nih.gov/pubmed/24487408</text>
<g id="a_node24_13"><a xlink:href="http://www.ncbi.nlm.nih.gov/pubmed/24487408" xlink:title="&lt;TABLE&gt;">
<polygon fill="#eeeeee" stroke="none" points="828,-5 828,-20 1222,-20 1222,-5 828,-5"/>
<text text-anchor="start" x="913.5" y="-10" font-family="DejaVu Sans" font-size="10.00" fill="#6666ff">http://www.ncbi.nlm.nih.gov/pubmed/24487408</text>
</a>
</g>
<polygon fill="none" stroke="#666666" points="827,-4 827,-40 1223,-40 1223,-4 827,-4"/>
</g>
<!-- node2&#45;&gt;node23 -->
<g id="edge26" class="edge"><title>node2&#45;&gt;node23</title>
<path fill="none" stroke="BLACK" d="M380.496,-181.905C474.272,-149.262 658.311,-88.222 819,-53 830.468,-50.4862 842.342,-48.1098 854.332,-45.8765"/>
<polygon fill="BLACK" stroke="BLACK" points="855.215,-49.2731 864.424,-44.0343 853.958,-42.3869 855.215,-49.2731"/>
<text text-anchor="start" x="703" y="-96.8" font-family="Times,serif" font-size="14.00"> </text>
<text text-anchor="start" x="707" y="-96.8" font-family="Times,serif" font-size="10.00" fill="#336633">dc:source</text>
<text text-anchor="start" x="747" y="-96.8" font-family="Times,serif" font-size="14.00"> </text>
</g>
<!-- node5 -->
<g id="node6" class="node"><title>node5</title>
<polygon fill="grey" stroke="none" points="1382,-326 1382,-345 1600,-345 1600,-326 1382,-326"/>
<text text-anchor="start" x="1430" y="-332.8" font-family="DejaVu Sans" font-weight="bold" font-size="14.00">GENO_0000512</text>
<g id="a_node6_14"><a xlink:href="http://purl.obolibrary.org/obo/GENO_0000512" xlink:title="&lt;TABLE&gt;">
<polygon fill="#eeeeee" stroke="none" points="1382,-311 1382,-326 1600,-326 1600,-311 1382,-311"/>
<text text-anchor="start" x="1384" y="-316" font-family="DejaVu Sans" font-size="10.00" fill="#6666ff">http://purl.obolibrary.org/obo/GENO_0000512</text>
</a>
</g>
<polygon fill="none" stroke="#666666" points="1381,-310 1381,-346 1601,-346 1601,-310 1381,-310"/>
</g>
<!-- node4&#45;&gt;node5 -->
<g id="edge3" class="edge"><title>node4&#45;&gt;node5</title>
<path fill="none" stroke="BLACK" d="M1135.01,-329.235C1171.13,-323.008 1211.65,-317.078 1249,-314 1295.07,-310.204 1306.84,-311.647 1353,-314 1356.12,-314.159 1359.28,-314.339 1362.47,-314.536"/>
<polygon fill="BLACK" stroke="BLACK" points="1362.51,-318.046 1372.73,-315.223 1362.98,-311.062 1362.51,-318.046"/>
<text text-anchor="start" x="1280.5" y="-318.8" font-family="Times,serif" font-size="14.00"> </text>
<text text-anchor="start" x="1284.5" y="-318.8" font-family="Times,serif" font-size="10.00" fill="#336633">rdf:type</text>
<text text-anchor="start" x="1317.5" y="-318.8" font-family="Times,serif" font-size="14.00"> </text>
</g>
<!-- node7 -->
<g id="node8" class="node"><title>node7</title>
<polygon fill="grey" stroke="none" points="1380,-264 1380,-283 1602,-283 1602,-264 1380,-264"/>
<text text-anchor="start" x="1424.5" y="-270.8" font-family="DejaVu Sans" font-weight="bold" font-size="14.00">NCBITaxon_7227</text>
<g id="a_node8_15"><a xlink:href="http://purl.obolibrary.org/obo/NCBITaxon_7227" xlink:title="&lt;TABLE&gt;">
<polygon fill="#eeeeee" stroke="none" points="1380,-249 1380,-264 1602,-264 1602,-249 1380,-249"/>
<text text-anchor="start" x="1382" y="-254" font-family="DejaVu Sans" font-size="10.00" fill="#6666ff">http://purl.obolibrary.org/obo/NCBITaxon_7227</text>
</a>
</g>
<polygon fill="none" stroke="#666666" points="1379,-248 1379,-284 1603,-284 1603,-248 1379,-248"/>
</g>
<!-- node4&#45;&gt;node7 -->
<g id="edge5" class="edge"><title>node4&#45;&gt;node7</title>
<path fill="none" stroke="BLACK" d="M1099.74,-328.989C1142.9,-316.819 1198.65,-302.319 1249,-293 1285.04,-286.329 1324.45,-281.073 1360.75,-277.04"/>
<polygon fill="BLACK" stroke="BLACK" points="1361.34,-280.497 1370.91,-275.935 1360.59,-273.538 1361.34,-280.497"/>
<text text-anchor="start" x="1256" y="-297.8" font-family="Times,serif" font-size="14.00"> </text>
<text text-anchor="start" x="1260" y="-297.8" font-family="Times,serif" font-size="10.00" fill="#336633">OBO:RO_0002162</text>
<text text-anchor="start" x="1342" y="-297.8" font-family="Times,serif" font-size="14.00"> </text>
</g>
<!-- node8 -->
<g id="node9" class="node"><title>node8</title>
<polygon fill="grey" stroke="none" points="1395,-388 1395,-407 1587,-407 1587,-388 1395,-388"/>
<text text-anchor="start" x="1436" y="-394.8" font-family="DejaVu Sans" font-weight="bold" font-size="14.00">FBgn0250787</text>
<g id="a_node9_16"><a xlink:href="http://flybase.org/reports/FBgn0250787" xlink:title="&lt;TABLE&gt;">
<polygon fill="#eeeeee" stroke="none" points="1395,-373 1395,-388 1587,-388 1587,-373 1395,-373"/>
<text text-anchor="start" x="1397" y="-378" font-family="DejaVu Sans" font-size="10.00" fill="#6666ff">http://flybase.org/reports/FBgn0250787</text>
</a>
</g>
<polygon fill="none" stroke="#666666" points="1394,-372 1394,-408 1588,-408 1588,-372 1394,-372"/>
</g>
<!-- node4&#45;&gt;node8 -->
<g id="edge17" class="edge"><title>node4&#45;&gt;node8</title>
<path fill="none" stroke="BLACK" d="M1135.2,-341.406C1199.21,-338.24 1281.32,-338.439 1353,-352 1361.43,-353.596 1362.83,-356.358 1371,-359 1377.41,-361.075 1384.06,-363.11 1390.77,-365.083"/>
<polygon fill="BLACK" stroke="BLACK" points="1390.07,-368.523 1400.65,-367.926 1392.01,-361.796 1390.07,-368.523"/>
<text text-anchor="start" x="1249" y="-356.8" font-family="Times,serif" font-size="14.00"> </text>
<text text-anchor="start" x="1253" y="-356.8" font-family="Times,serif" font-size="10.00" fill="#336633">OBO:GENO_0000639</text>
<text text-anchor="start" x="1349" y="-356.8" font-family="Times,serif" font-size="14.00"> </text>
</g>
<!-- node4&#45;&gt;node10 -->
<g id="edge7" class="edge"><title>node4&#45;&gt;node10</title>
<path fill="none" stroke="BLACK" d="M1135.12,-370.834C1167.6,-379.848 1202.18,-392.734 1231,-411 1342.05,-481.397 1433.56,-612.834 1471.34,-672.335"/>
<polygon fill="BLACK" stroke="BLACK" points="1468.45,-674.308 1476.73,-680.912 1474.38,-670.583 1468.45,-674.308"/>
<text text-anchor="start" x="1256" y="-520.8" font-family="Times,serif" font-size="14.00"> </text>
<text text-anchor="start" x="1260" y="-520.8" font-family="Times,serif" font-size="10.00" fill="#336633">OBO:RO_0003301</text>
<text text-anchor="start" x="1342" y="-520.8" font-family="Times,serif" font-size="14.00"> </text>
</g>
<!-- node14 -->
<g id="node15" class="node"><title>node14</title>
<polygon fill="grey" stroke="none" points="1393,-452 1393,-471 1590,-471 1590,-452 1393,-452"/>
<text text-anchor="start" x="1447.5" y="-458.8" font-family="DejaVu Sans" font-weight="bold" font-size="14.00">DOID_1094</text>
<g id="a_node15_17"><a xlink:href="http://purl.obolibrary.org/obo/DOID_1094" xlink:title="&lt;TABLE&gt;">
<polygon fill="#eeeeee" stroke="none" points="1393,-437 1393,-452 1590,-452 1590,-437 1393,-437"/>
<text text-anchor="start" x="1395" y="-442" font-family="DejaVu Sans" font-size="10.00" fill="#6666ff">http://purl.obolibrary.org/obo/DOID_1094</text>
</a>
</g>
<polygon fill="none" stroke="#666666" points="1391.5,-436 1391.5,-472 1590.5,-472 1590.5,-436 1391.5,-436"/>
</g>
<!-- node4&#45;&gt;node14 -->
<g id="edge18" class="edge"><title>node4&#45;&gt;node14</title>
<path fill="none" stroke="BLACK" d="M1135.07,-359.169C1222.97,-366.552 1334.85,-378.063 1353,-390 1366.31,-398.754 1358.39,-411.262 1371,-421 1373.67,-423.064 1376.47,-424.999 1379.36,-426.813"/>
<polygon fill="BLACK" stroke="BLACK" points="1377.87,-429.994 1388.29,-431.9 1381.33,-423.911 1377.87,-429.994"/>
<text text-anchor="start" x="1256" y="-394.8" font-family="Times,serif" font-size="14.00"> </text>
<text text-anchor="start" x="1260" y="-394.8" font-family="Times,serif" font-size="10.00" fill="#336633">OBO:RO_0003301</text>
<text text-anchor="start" x="1342" y="-394.8" font-family="Times,serif" font-size="14.00"> </text>
</g>
<!-- node4&#45;&gt;node16 -->
<g id="edge14" class="edge"><title>node4&#45;&gt;node16</title>
<path fill="none" stroke="BLACK" d="M1135.25,-334.336C1168.46,-325.302 1203.42,-311.395 1231,-290 1243.29,-280.469 1236.43,-269.153 1249,-260 1282.76,-235.416 1325.65,-221.428 1365.85,-213.534"/>
<polygon fill="BLACK" stroke="BLACK" points="1366.54,-216.966 1375.73,-211.703 1365.26,-210.083 1366.54,-216.966"/>
<text text-anchor="start" x="1256" y="-264.8" font-family="Times,serif" font-size="14.00"> </text>
<text text-anchor="start" x="1260" y="-264.8" font-family="Times,serif" font-size="10.00" fill="#336633">OBO:RO_0002200</text>
<text text-anchor="start" x="1342" y="-264.8" font-family="Times,serif" font-size="14.00"> </text>
</g>
<!-- node9 -->
<g id="node10" class="node"><title>node9</title>
<polygon fill="grey" stroke="none" points="1749.5,-481 1749.5,-500 2320.5,-500 2320.5,-481 1749.5,-481"/>
<text text-anchor="start" x="1751.5" y="-487.8" font-family="DejaVu Sans" font-weight="bold" font-size="14.00">http://www.genenames.org/cgi&#45;bin/gene_symbol_report?hgnc_id=933</text>
<g id="a_node10_18"><a xlink:href="http://www.genenames.org/cgi-bin/gene_symbol_report?hgnc_id=933" xlink:title="&lt;TABLE&gt;">
<polygon fill="#eeeeee" stroke="none" points="1749.5,-466 1749.5,-481 2320.5,-481 2320.5,-466 1749.5,-466"/>
<text text-anchor="start" x="1869.5" y="-471" font-family="DejaVu Sans" font-size="10.00" fill="#6666ff">http://www.genenames.org/cgi&#45;bin/gene_symbol_report?hgnc_id=933</text>
</a>
</g>
<polygon fill="none" stroke="#666666" points="1748,-465 1748,-501 2321,-501 2321,-465 1748,-465"/>
</g>
<!-- node8&#45;&gt;node9 -->
<g id="edge6" class="edge"><title>node8&#45;&gt;node9</title>
<path fill="none" stroke="BLACK" d="M1574.8,-412.021C1634,-427.512 1708.53,-446.433 1740,-452 1755.36,-454.717 1771.21,-457.225 1787.22,-459.537"/>
<polygon fill="BLACK" stroke="BLACK" points="1786.82,-463.015 1797.21,-460.952 1787.8,-456.084 1786.82,-463.015"/>
<text text-anchor="start" x="1629" y="-452.8" font-family="Times,serif" font-size="14.00"> </text>
<text text-anchor="start" x="1633" y="-452.8" font-family="Times,serif" font-size="10.00" fill="#336633">owl:equivalentClass</text>
<text text-anchor="start" x="1718" y="-452.8" font-family="Times,serif" font-size="14.00"> </text>
</g>
<!-- node17 -->
<g id="node18" class="node"><title>node17</title>
<polygon fill="grey" stroke="none" points="1932.5,-419 1932.5,-438 2136.5,-438 2136.5,-419 1932.5,-419"/>
<text text-anchor="start" x="1985" y="-425.8" font-family="DejaVu Sans" font-weight="bold" font-size="14.00">SO_0000704</text>
<g id="a_node18_19"><a xlink:href="http://purl.obolibrary.org/obo/SO_0000704" xlink:title="&lt;TABLE&gt;">
<polygon fill="#eeeeee" stroke="none" points="1932.5,-404 1932.5,-419 2136.5,-419 2136.5,-404 1932.5,-404"/>
<text text-anchor="start" x="1934.5" y="-409" font-family="DejaVu Sans" font-size="10.00" fill="#6666ff">http://purl.obolibrary.org/obo/SO_0000704</text>
</a>
</g>
<polygon fill="none" stroke="#666666" points="1931.5,-403 1931.5,-439 2137.5,-439 2137.5,-403 1931.5,-403"/>
</g>
<!-- node8&#45;&gt;node17 -->
<g id="edge15" class="edge"><title>node8&#45;&gt;node17</title>
<path fill="none" stroke="BLACK" d="M1596.09,-395.959C1686.64,-401.143 1817.9,-408.657 1912.99,-414.101"/>
<polygon fill="BLACK" stroke="BLACK" points="1913.05,-417.61 1923.24,-414.688 1913.45,-410.622 1913.05,-417.61"/>
<text text-anchor="start" x="1639" y="-407.8" font-family="Times,serif" font-size="14.00"> </text>
<text text-anchor="start" x="1643" y="-407.8" font-family="Times,serif" font-size="10.00" fill="#336633">rdfs:subClassOf</text>
<text text-anchor="start" x="1708" y="-407.8" font-family="Times,serif" font-size="14.00"> </text>
</g>
<!-- node19 -->
<g id="node20" class="node"><title>node19</title>
<polygon fill="grey" stroke="none" points="1944.5,-357 1944.5,-376 2125.5,-376 2125.5,-357 1944.5,-357"/>
<text text-anchor="start" x="2013.5" y="-363.8" font-family="DejaVu Sans" font-weight="bold" font-size="14.00">Class</text>
<g id="a_node20_20"><a xlink:href="http://www.w3.org/2002/07/owl#Class" xlink:title="&lt;TABLE&gt;">
<polygon fill="#eeeeee" stroke="none" points="1944.5,-342 1944.5,-357 2125.5,-357 2125.5,-342 1944.5,-342"/>
<text text-anchor="start" x="1946.5" y="-347" font-family="DejaVu Sans" font-size="10.00" fill="#6666ff">http://www.w3.org/2002/07/owl#Class</text>
</a>
</g>
<polygon fill="none" stroke="#666666" points="1943,-341 1943,-377 2126,-377 2126,-341 1943,-341"/>
</g>
<!-- node8&#45;&gt;node19 -->
<g id="edge22" class="edge"><title>node8&#45;&gt;node19</title>
<path fill="none" stroke="BLACK" d="M1596.33,-382.156C1607.36,-381.395 1618.41,-380.661 1629,-380 1729.12,-373.748 1843.25,-367.943 1924.7,-364.028"/>
<polygon fill="BLACK" stroke="BLACK" points="1925.15,-367.511 1934.97,-363.536 1924.81,-360.519 1925.15,-367.511"/>
<text text-anchor="start" x="1655" y="-384.8" font-family="Times,serif" font-size="14.00"> </text>
<text text-anchor="start" x="1659" y="-384.8" font-family="Times,serif" font-size="10.00" fill="#336633">rdf:type</text>
<text text-anchor="start" x="1692" y="-384.8" font-family="Times,serif" font-size="14.00"> </text>
</g>
<!-- node22 -->
<g id="node23" class="node"><title>node22</title>
<polygon fill="grey" stroke="none" points="1923.5,-295 1923.5,-314 2145.5,-314 2145.5,-295 1923.5,-295"/>
<text text-anchor="start" x="1968" y="-301.8" font-family="DejaVu Sans" font-weight="bold" font-size="14.00">NCBITaxon_9606</text>
<g id="a_node23_21"><a xlink:href="http://purl.obolibrary.org/obo/NCBITaxon_9606" xlink:title="&lt;TABLE&gt;">
<polygon fill="#eeeeee" stroke="none" points="1923.5,-280 1923.5,-295 2145.5,-295 2145.5,-280 1923.5,-280"/>
<text text-anchor="start" x="1925.5" y="-285" font-family="DejaVu Sans" font-size="10.00" fill="#6666ff">http://purl.obolibrary.org/obo/NCBITaxon_9606</text>
</a>
</g>
<polygon fill="none" stroke="#666666" points="1922.5,-279 1922.5,-315 2146.5,-315 2146.5,-279 1922.5,-279"/>
</g>
<!-- node8&#45;&gt;node22 -->
<g id="edge25" class="edge"><title>node8&#45;&gt;node22</title>
<path fill="none" stroke="BLACK" d="M1577.55,-367.986C1642.65,-351.342 1723.75,-330.875 1740,-328 1793.45,-318.544 1852.92,-311.605 1904.28,-306.72"/>
<polygon fill="BLACK" stroke="BLACK" points="1904.81,-310.186 1914.44,-305.77 1904.16,-303.216 1904.81,-310.186"/>
<text text-anchor="start" x="1630.5" y="-358.8" font-family="Times,serif" font-size="14.00"> </text>
<text text-anchor="start" x="1634.5" y="-358.8" font-family="Times,serif" font-size="10.00" fill="#336633">OBO:RO_0002162</text>
<text text-anchor="start" x="1716.5" y="-358.8" font-family="Times,serif" font-size="14.00"> </text>
</g>
<!-- node12 -->
<g id="node13" class="node"><title>node12</title>
<polygon fill="grey" stroke="none" points="9.5,-473 9.5,-492 626.5,-492 626.5,-473 9.5,-473"/>
<text text-anchor="start" x="175" y="-479.8" font-family="DejaVu Sans" font-weight="bold" font-size="14.00">MONARCH_bb1c7078e53bed9c0956</text>
<g id="a_node13_22"><a xlink:href="https://monarchinitiative.org/MONARCH_bb1c7078e53bed9c0956" xlink:title="&lt;TABLE&gt;">
<polygon fill="#eeeeee" stroke="none" points="9.5,-458 9.5,-473 626.5,-473 626.5,-458 9.5,-458"/>
<text text-anchor="start" x="162" y="-463" font-family="DejaVu Sans" font-size="10.00" fill="#6666ff">https://monarchinitiative.org/MONARCH_bb1c7078e53bed9c0956</text>
</a>
</g>
<text text-anchor="start" x="11.5" y="-444.8" font-family="DejaVu Sans" font-size="14.00">dc:description</text>
<text text-anchor="start" x="110.5" y="-444.8" font-family="DejaVu Sans" font-size="14.00">&quot;in combination with FLYBASE:Hsap\APP[695.UAS.Exel]; FB:FBal0256652&quot;</text>
<polygon fill="none" stroke="#666666" points="8,-438.5 8,-493.5 627,-493.5 627,-438.5 8,-438.5"/>
</g>
<!-- node12&#45;&gt;node4 -->
<g id="edge20" class="edge"><title>node12&#45;&gt;node4</title>
<path fill="none" stroke="BLACK" d="M481.168,-434.452C535.703,-424.248 596.902,-413.202 653,-404 736.857,-390.245 831.716,-376.73 904.523,-366.79"/>
<polygon fill="BLACK" stroke="BLACK" points="905.211,-370.229 914.647,-365.412 904.266,-363.293 905.211,-370.229"/>
<text text-anchor="start" x="657" y="-408.8" font-family="Times,serif" font-size="14.00"> </text>
<text text-anchor="start" x="661" y="-408.8" font-family="Times,serif" font-size="10.00" fill="#336633">OBAN:association_has_subject</text>
<text text-anchor="start" x="793" y="-408.8" font-family="Times,serif" font-size="14.00"> </text>
</g>
<!-- node12&#45;&gt;node6 -->
<g id="edge28" class="edge"><title>node12&#45;&gt;node6</title>
<path fill="none" stroke="BLACK" d="M497.368,-497.565C547.601,-505.697 602.339,-513.872 653,-520 746.284,-531.283 853.294,-539.428 928.339,-544.358"/>
<polygon fill="BLACK" stroke="BLACK" points="928.505,-547.877 938.712,-545.033 928.96,-540.891 928.505,-547.877"/>
<text text-anchor="start" x="706.5" y="-539.8" font-family="Times,serif" font-size="14.00"> </text>
<text text-anchor="start" x="710.5" y="-539.8" font-family="Times,serif" font-size="10.00" fill="#336633">rdf:type</text>
<text text-anchor="start" x="743.5" y="-539.8" font-family="Times,serif" font-size="14.00"> </text>
</g>
<!-- node13 -->
<g id="node14" class="node"><title>node13</title>
<polygon fill="grey" stroke="none" points="828,-486 828,-505 1222,-505 1222,-486 828,-486"/>
<text text-anchor="start" x="830" y="-492.8" font-family="DejaVu Sans" font-weight="bold" font-size="14.00">http://www.ncbi.nlm.nih.gov/pubmed/26753104</text>
<g id="a_node14_23"><a xlink:href="http://www.ncbi.nlm.nih.gov/pubmed/26753104" xlink:title="&lt;TABLE&gt;">
<polygon fill="#eeeeee" stroke="none" points="828,-471 828,-486 1222,-486 1222,-471 828,-471"/>
<text text-anchor="start" x="913.5" y="-476" font-family="DejaVu Sans" font-size="10.00" fill="#6666ff">http://www.ncbi.nlm.nih.gov/pubmed/26753104</text>
</a>
</g>
<polygon fill="none" stroke="#666666" points="827,-470 827,-506 1223,-506 1223,-470 827,-470"/>
</g>
<!-- node12&#45;&gt;node13 -->
<g id="edge11" class="edge"><title>node12&#45;&gt;node13</title>
<path fill="none" stroke="BLACK" d="M635.245,-462.504C690.519,-463.08 747.45,-464.429 801,-467 803.591,-467.124 806.199,-467.257 808.821,-467.396"/>
<polygon fill="BLACK" stroke="BLACK" points="808.815,-470.901 818.996,-467.969 809.209,-463.912 808.815,-470.901"/>
<text text-anchor="start" x="703" y="-471.8" font-family="Times,serif" font-size="14.00"> </text>
<text text-anchor="start" x="707" y="-471.8" font-family="Times,serif" font-size="10.00" fill="#336633">dc:source</text>
<text text-anchor="start" x="747" y="-471.8" font-family="Times,serif" font-size="14.00"> </text>
</g>
<!-- node12&#45;&gt;node14 -->
<g id="edge12" class="edge"><title>node12&#45;&gt;node14</title>
<path fill="none" stroke="BLACK" d="M635.136,-448.518C696.133,-445.801 759.536,-443.425 819,-442 1002.06,-437.614 1047.96,-436.919 1231,-442 1239.01,-442.222 1241,-442.595 1249,-443 1289.4,-445.044 1333.63,-447.112 1373.04,-448.894"/>
<polygon fill="BLACK" stroke="BLACK" points="1373.07,-452.399 1383.21,-449.353 1373.38,-445.406 1373.07,-452.399"/>
<text text-anchor="start" x="957" y="-446.8" font-family="Times,serif" font-size="14.00"> </text>
<text text-anchor="start" x="961" y="-446.8" font-family="Times,serif" font-size="10.00" fill="#336633">OBAN:association_has_object</text>
<text text-anchor="start" x="1089" y="-446.8" font-family="Times,serif" font-size="14.00"> </text>
</g>
<!-- node12&#45;&gt;node15 -->
<g id="edge13" class="edge"><title>node12&#45;&gt;node15</title>
<path fill="none" stroke="BLACK" d="M383.736,-497.537C449.936,-528.045 556.174,-572.95 653,-596 699.191,-606.996 814.337,-617.215 904.203,-623.935"/>
<polygon fill="BLACK" stroke="BLACK" points="903.967,-627.427 914.198,-624.675 904.484,-620.446 903.967,-627.427"/>
<text text-anchor="start" x="653" y="-620.8" font-family="Times,serif" font-size="14.00"> </text>
<text text-anchor="start" x="657" y="-620.8" font-family="Times,serif" font-size="10.00" fill="#336633">OBAN:association_has_predicate</text>
<text text-anchor="start" x="797" y="-620.8" font-family="Times,serif" font-size="14.00"> </text>
</g>
</g>
</svg>
