<?xml version="1.0" encoding="UTF-8" standalone="no"?>
<!DOCTYPE svg PUBLIC "-//W3C//DTD SVG 1.1//EN"
 "http://www.w3.org/Graphics/SVG/1.1/DTD/svg11.dtd">
<!-- Generated by graphviz version 2.38.0 (20140413.2041)
 -->
<!-- Title: %3 Pages: 1 -->
<svg width="4589pt" height="546pt"
 viewBox="0.00 0.00 4588.50 546.00" xmlns="http://www.w3.org/2000/svg" xmlns:xlink="http://www.w3.org/1999/xlink">
<g id="graph0" class="graph" transform="scale(1 1) rotate(0) translate(4 542)">
<title>%3</title>
<polygon fill="white" stroke="none" points="-4,4 -4,-542 4584.5,-542 4584.5,4 -4,4"/>
<!-- node0 -->
<g id="node1" class="node"><title>node0</title>
<polygon fill="grey" stroke="none" points="179.5,-513.5 179.5,-532.5 445.5,-532.5 445.5,-513.5 179.5,-513.5"/>
<text text-anchor="start" x="240.5" y="-520.3" font-family="DejaVu Sans" font-weight="bold" font-size="14.00">RCV000175394.nt</text>
<g id="a_node1_0"><a xlink:href="https://data.monarchinitiative.org/ttl/RCV000175394.nt" xlink:title="&lt;TABLE&gt;">
<polygon fill="#eeeeee" stroke="none" points="179.5,-498.5 179.5,-513.5 445.5,-513.5 445.5,-498.5 179.5,-498.5"/>
<text text-anchor="start" x="181.5" y="-503.5" font-family="DejaVu Sans" font-size="10.00" fill="#6666ff">https://data.monarchinitiative.org/ttl/RCV000175394.nt</text>
</a>
</g>
<text text-anchor="start" x="181.5" y="-485.3" font-family="DejaVu Sans" font-size="14.00">owl:versionInfo</text>
<text text-anchor="start" x="319.5" y="-485.3" font-family="DejaVu Sans" font-size="14.00">&quot;2019&#45;06&#45;03&quot;</text>
<polygon fill="none" stroke="#666666" points="178.5,-479 178.5,-534 446.5,-534 446.5,-479 178.5,-479"/>
</g>
<!-- node1 -->
<g id="node2" class="node"><title>node1</title>
<polygon fill="grey" stroke="none" points="213.5,-362 213.5,-381 411.5,-381 411.5,-362 213.5,-362"/>
<text text-anchor="start" x="275.5" y="-368.8" font-family="DejaVu Sans" font-weight="bold" font-size="14.00">Ontology</text>
<g id="a_node2_1"><a xlink:href="http://www.w3.org/2002/07/owl#Ontology" xlink:title="&lt;TABLE&gt;">
<polygon fill="#eeeeee" stroke="none" points="213.5,-347 213.5,-362 411.5,-362 411.5,-347 213.5,-347"/>
<text text-anchor="start" x="215.5" y="-352" font-family="DejaVu Sans" font-size="10.00" fill="#6666ff">http://www.w3.org/2002/07/owl#Ontology</text>
</a>
</g>
<polygon fill="none" stroke="#666666" points="212.5,-346 212.5,-382 412.5,-382 412.5,-346 212.5,-346"/>
</g>
<!-- node0&#45;&gt;node1 -->
<g id="edge1" class="edge"><title>node0&#45;&gt;node1</title>
<path fill="none" stroke="BLACK" d="M312.5,-474.667C312.5,-451.41 312.5,-419.632 312.5,-396.27"/>
<polygon fill="BLACK" stroke="BLACK" points="316,-396.189 312.5,-386.189 309,-396.189 316,-396.189"/>
<text text-anchor="start" x="312.5" y="-446.8" font-family="Times,serif" font-size="14.00"> </text>
<text text-anchor="start" x="316.5" y="-446.8" font-family="Times,serif" font-size="10.00" fill="#336633">rdf:type</text>
<text text-anchor="start" x="349.5" y="-446.8" font-family="Times,serif" font-size="14.00"> </text>
</g>
<!-- node3 -->
<g id="node3" class="node"><title>node3</title>
<polygon fill="grey" stroke="none" points="2806.5,-400 2806.5,-419 3249.5,-419 3249.5,-400 2806.5,-400"/>
<text text-anchor="start" x="2873" y="-406.8" font-family="DejaVu Sans" font-weight="bold" font-size="14.00">&quot;NM_000182.4(HADHA):c.2146+1G&gt;A&quot;</text>
<g id="a_node3_2"><a xlink:href="http://www.ncbi.nlm.nih.gov/clinvar/variation/192079" xlink:title="&lt;TABLE&gt;">
<polygon fill="#eeeeee" stroke="none" points="2806.5,-385 2806.5,-400 3249.5,-400 3249.5,-385 2806.5,-385"/>
<text text-anchor="start" x="2904.5" y="-390" font-family="DejaVu Sans" font-size="10.00" fill="#6666ff">http://www.ncbi.nlm.nih.gov/clinvar/variation/192079</text>
</a>
</g>
<text text-anchor="start" x="2808.5" y="-371.8" font-family="DejaVu Sans" font-size="14.00">oboInOwl:hasExactSynonym</text>
<text text-anchor="start" x="3010.5" y="-371.8" font-family="DejaVu Sans" font-size="14.00">&quot;NC_000002.11:g.26414351C&gt;T&quot;</text>
<text text-anchor="start" x="2808.5" y="-352.8" font-family="DejaVu Sans" font-size="14.00">oboInOwl:hasExactSynonym</text>
<text text-anchor="start" x="3010.5" y="-352.8" font-family="DejaVu Sans" font-size="14.00">&quot;NC_000002.12:g.26191482C&gt;T&quot;</text>
<text text-anchor="start" x="2808.5" y="-333.8" font-family="DejaVu Sans" font-size="14.00">oboInOwl:hasExactSynonym</text>
<text text-anchor="start" x="3010.5" y="-333.8" font-family="DejaVu Sans" font-size="14.00">&quot;NG_007121.1:g.58139G&gt;A&quot;</text>
<text text-anchor="start" x="2808.5" y="-314.8" font-family="DejaVu Sans" font-size="14.00">oboInOwl:hasExactSynonym</text>
<text text-anchor="start" x="3010.5" y="-314.8" font-family="DejaVu Sans" font-size="14.00">&quot;NM_000182.4:c.2146+1G&gt;A&quot;</text>
<polygon fill="none" stroke="#666666" points="2805,-308 2805,-420 3250,-420 3250,-308 2805,-308"/>
</g>
<!-- node4 -->
<g id="node4" class="node"><title>node4</title>
<polygon fill="grey" stroke="none" points="2227.5,-219.5 2227.5,-238.5 2709.5,-238.5 2709.5,-219.5 2227.5,-219.5"/>
<text text-anchor="start" x="2229.5" y="-226.3" font-family="DejaVu Sans" font-weight="bold" font-size="14.00">&quot;Long&#45;chain 3&#45;hydroxyacyl&#45;CoA dehydrogenase deficiency&quot;</text>
<g id="a_node4_3"><a xlink:href="http://omim.org/entry/609016" xlink:title="&lt;TABLE&gt;">
<polygon fill="#eeeeee" stroke="none" points="2227.5,-204.5 2227.5,-219.5 2709.5,-219.5 2709.5,-204.5 2227.5,-204.5"/>
<text text-anchor="start" x="2397.5" y="-209.5" font-family="DejaVu Sans" font-size="10.00" fill="#6666ff">http://omim.org/entry/609016</text>
</a>
</g>
<polygon fill="none" stroke="#666666" points="2226.5,-203.5 2226.5,-239.5 2710.5,-239.5 2710.5,-203.5 2226.5,-203.5"/>
</g>
<!-- node3&#45;&gt;node4 -->
<g id="edge2" class="edge"><title>node3&#45;&gt;node4</title>
<path fill="none" stroke="BLACK" d="M2796.91,-305.042C2714.52,-284.335 2626.28,-262.157 2562.04,-246.01"/>
<polygon fill="BLACK" stroke="BLACK" points="2562.89,-242.616 2552.34,-243.572 2561.18,-249.404 2562.89,-242.616"/>
<text text-anchor="start" x="2715.5" y="-275.8" font-family="Times,serif" font-size="14.00"> </text>
<text text-anchor="start" x="2719.5" y="-275.8" font-family="Times,serif" font-size="10.00" fill="#336633">OBO:GENO_0000841</text>
<text text-anchor="start" x="2815.5" y="-275.8" font-family="Times,serif" font-size="14.00"> </text>
</g>
<!-- node8 -->
<g id="node6" class="node"><title>node8</title>
<polygon fill="grey" stroke="none" points="2746.5,-219.5 2746.5,-238.5 3309.5,-238.5 3309.5,-219.5 2746.5,-219.5"/>
<text text-anchor="start" x="2748.5" y="-226.3" font-family="DejaVu Sans" font-weight="bold" font-size="14.00">http://www.ncbi.nlm.nih.gov/projects/SNP/snp_ref.cgi?rs=794727219</text>
<g id="a_node6_4"><a xlink:href="http://www.ncbi.nlm.nih.gov/projects/SNP/snp_ref.cgi?rs=794727219" xlink:title="&lt;TABLE&gt;">
<polygon fill="#eeeeee" stroke="none" points="2746.5,-204.5 2746.5,-219.5 3309.5,-219.5 3309.5,-204.5 2746.5,-204.5"/>
<text text-anchor="start" x="2865.5" y="-209.5" font-family="DejaVu Sans" font-size="10.00" fill="#6666ff">http://www.ncbi.nlm.nih.gov/projects/SNP/snp_ref.cgi?rs=794727219</text>
</a>
</g>
<polygon fill="none" stroke="#666666" points="2745,-203.5 2745,-239.5 3310,-239.5 3310,-203.5 2745,-203.5"/>
</g>
<!-- node3&#45;&gt;node8 -->
<g id="edge4" class="edge"><title>node3&#45;&gt;node8</title>
<path fill="none" stroke="BLACK" d="M3027.5,-303.823C3027.5,-286.563 3027.5,-268.389 3027.5,-253.609"/>
<polygon fill="BLACK" stroke="BLACK" points="3031,-253.509 3027.5,-243.509 3024,-253.509 3031,-253.509"/>
<text text-anchor="start" x="3027.5" y="-275.8" font-family="Times,serif" font-size="14.00"> </text>
<text text-anchor="start" x="3031.5" y="-275.8" font-family="Times,serif" font-size="10.00" fill="#336633">owl:sameAs</text>
<text text-anchor="start" x="3082.5" y="-275.8" font-family="Times,serif" font-size="14.00"> </text>
</g>
<!-- node11 -->
<g id="node9" class="node"><title>node11</title>
<polygon fill="grey" stroke="none" points="3345.5,-219.5 3345.5,-238.5 3549.5,-238.5 3549.5,-219.5 3345.5,-219.5"/>
<text text-anchor="start" x="3398" y="-226.3" font-family="DejaVu Sans" font-weight="bold" font-size="14.00">SO_0001483</text>
<g id="a_node9_5"><a xlink:href="http://purl.obolibrary.org/obo/SO_0001483" xlink:title="&lt;TABLE&gt;">
<polygon fill="#eeeeee" stroke="none" points="3345.5,-204.5 3345.5,-219.5 3549.5,-219.5 3549.5,-204.5 3345.5,-204.5"/>
<text text-anchor="start" x="3347.5" y="-209.5" font-family="DejaVu Sans" font-size="10.00" fill="#6666ff">http://purl.obolibrary.org/obo/SO_0001483</text>
</a>
</g>
<polygon fill="none" stroke="#666666" points="3344.5,-203.5 3344.5,-239.5 3550.5,-239.5 3550.5,-203.5 3344.5,-203.5"/>
</g>
<!-- node3&#45;&gt;node11 -->
<g id="edge7" class="edge"><title>node3&#45;&gt;node11</title>
<path fill="none" stroke="BLACK" d="M3204.1,-303.924C3264.12,-283.845 3327.88,-262.515 3375.08,-246.725"/>
<polygon fill="BLACK" stroke="BLACK" points="3376.22,-250.035 3384.6,-243.543 3374,-243.396 3376.22,-250.035"/>
<text text-anchor="start" x="3300.5" y="-275.8" font-family="Times,serif" font-size="14.00"> </text>
<text text-anchor="start" x="3304.5" y="-275.8" font-family="Times,serif" font-size="10.00" fill="#336633">rdf:type</text>
<text text-anchor="start" x="3337.5" y="-275.8" font-family="Times,serif" font-size="14.00"> </text>
</g>
<!-- node13 -->
<g id="node12" class="node"><title>node13</title>
<polygon fill="grey" stroke="none" points="3585.5,-219.5 3585.5,-238.5 3921.5,-238.5 3921.5,-219.5 3585.5,-219.5"/>
<text text-anchor="start" x="3587.5" y="-226.3" font-family="DejaVu Sans" font-weight="bold" font-size="14.00">https://www.ncbi.nlm.nih.gov/gene/3030</text>
<g id="a_node12_6"><a xlink:href="https://www.ncbi.nlm.nih.gov/gene/3030" xlink:title="&lt;TABLE&gt;">
<polygon fill="#eeeeee" stroke="none" points="3585.5,-204.5 3585.5,-219.5 3921.5,-219.5 3921.5,-204.5 3585.5,-204.5"/>
<text text-anchor="start" x="3659" y="-209.5" font-family="DejaVu Sans" font-size="10.00" fill="#6666ff">https://www.ncbi.nlm.nih.gov/gene/3030</text>
</a>
</g>
<polygon fill="none" stroke="#666666" points="3584.5,-203.5 3584.5,-239.5 3922.5,-239.5 3922.5,-203.5 3584.5,-203.5"/>
</g>
<!-- node3&#45;&gt;node13 -->
<g id="edge9" class="edge"><title>node3&#45;&gt;node13</title>
<path fill="none" stroke="BLACK" d="M3258.29,-305.715C3261.04,-305.135 3263.78,-304.563 3266.5,-304 3283.69,-300.446 3478.2,-268.083 3616.12,-245.227"/>
<polygon fill="BLACK" stroke="BLACK" points="3617.07,-248.617 3626.37,-243.529 3615.93,-241.711 3617.07,-248.617"/>
<text text-anchor="start" x="3450.5" y="-275.8" font-family="Times,serif" font-size="14.00"> </text>
<text text-anchor="start" x="3454.5" y="-275.8" font-family="Times,serif" font-size="10.00" fill="#336633">OBO:GENO_0000418</text>
<text text-anchor="start" x="3550.5" y="-275.8" font-family="Times,serif" font-size="14.00"> </text>
</g>
<!-- node14 -->
<g id="node14" class="node"><title>node14</title>
<polygon fill="grey" stroke="none" points="3957.5,-219.5 3957.5,-238.5 4179.5,-238.5 4179.5,-219.5 3957.5,-219.5"/>
<text text-anchor="start" x="4002" y="-226.3" font-family="DejaVu Sans" font-weight="bold" font-size="14.00">NCBITaxon_9606</text>
<g id="a_node14_7"><a xlink:href="http://purl.obolibrary.org/obo/NCBITaxon_9606" xlink:title="&lt;TABLE&gt;">
<polygon fill="#eeeeee" stroke="none" points="3957.5,-204.5 3957.5,-219.5 4179.5,-219.5 4179.5,-204.5 3957.5,-204.5"/>
<text text-anchor="start" x="3959.5" y="-209.5" font-family="DejaVu Sans" font-size="10.00" fill="#6666ff">http://purl.obolibrary.org/obo/NCBITaxon_9606</text>
</a>
</g>
<polygon fill="none" stroke="#666666" points="3956.5,-203.5 3956.5,-239.5 4180.5,-239.5 4180.5,-203.5 3956.5,-203.5"/>
</g>
<!-- node3&#45;&gt;node14 -->
<g id="edge13" class="edge"><title>node3&#45;&gt;node14</title>
<path fill="none" stroke="BLACK" d="M3258.22,-305.309C3260.99,-304.857 3263.75,-304.42 3266.5,-304 3395.03,-284.339 3428.83,-295.611 3558.5,-286 3728,-273.437 3771.68,-279.959 3939.5,-253 3951.87,-251.013 3964.81,-248.491 3977.53,-245.752"/>
<polygon fill="BLACK" stroke="BLACK" points="3978.65,-249.089 3987.66,-243.516 3977.14,-242.254 3978.65,-249.089"/>
<text text-anchor="start" x="3795.5" y="-275.8" font-family="Times,serif" font-size="14.00"> </text>
<text text-anchor="start" x="3799.5" y="-275.8" font-family="Times,serif" font-size="10.00" fill="#336633">OBO:RO_0002162</text>
<text text-anchor="start" x="3881.5" y="-275.8" font-family="Times,serif" font-size="14.00"> </text>
</g>
<!-- node18 -->
<g id="node18" class="node"><title>node18</title>
<polygon fill="grey" stroke="none" points="4215.5,-219.5 4215.5,-238.5 4571.5,-238.5 4571.5,-219.5 4215.5,-219.5"/>
<text text-anchor="start" x="4217.5" y="-226.3" font-family="DejaVu Sans" font-weight="bold" font-size="14.00">https://www.ncbi.nlm.nih.gov/gene/150946</text>
<g id="a_node18_8"><a xlink:href="https://www.ncbi.nlm.nih.gov/gene/150946" xlink:title="&lt;TABLE&gt;">
<polygon fill="#eeeeee" stroke="none" points="4215.5,-204.5 4215.5,-219.5 4571.5,-219.5 4571.5,-204.5 4215.5,-204.5"/>
<text text-anchor="start" x="4293" y="-209.5" font-family="DejaVu Sans" font-size="10.00" fill="#6666ff">https://www.ncbi.nlm.nih.gov/gene/150946</text>
</a>
</g>
<polygon fill="none" stroke="#666666" points="4214.5,-203.5 4214.5,-239.5 4572.5,-239.5 4572.5,-203.5 4214.5,-203.5"/>
</g>
<!-- node3&#45;&gt;node18 -->
<g id="edge18" class="edge"><title>node3&#45;&gt;node18</title>
<path fill="none" stroke="BLACK" d="M3258.2,-305.181C3260.98,-304.769 3263.75,-304.375 3266.5,-304 3540.97,-266.593 3613.13,-304.769 3889.5,-286 4026.86,-276.672 4061,-270.923 4197.5,-253 4215.89,-250.585 4235.22,-247.837 4254.28,-245.001"/>
<polygon fill="BLACK" stroke="BLACK" points="4254.84,-248.456 4264.21,-243.512 4253.8,-241.533 4254.84,-248.456"/>
<text text-anchor="start" x="4053.5" y="-275.8" font-family="Times,serif" font-size="14.00"> </text>
<text text-anchor="start" x="4057.5" y="-275.8" font-family="Times,serif" font-size="10.00" fill="#336633">OBO:BFO_0000050</text>
<text text-anchor="start" x="4144.5" y="-275.8" font-family="Times,serif" font-size="14.00"> </text>
</g>
<!-- node7 -->
<g id="node5" class="node"><title>node7</title>
<polygon fill="grey" stroke="none" points="2872.5,-504.5 2872.5,-523.5 3183.5,-523.5 3183.5,-504.5 2872.5,-504.5"/>
<text text-anchor="start" x="2888" y="-511.3" font-family="DejaVu Sans" font-weight="bold" font-size="14.00">MONARCH_b0c2b8f4b93e10f01eba</text>
<g id="a_node5_9"><a xlink:href="https://monarchinitiative.org/MONARCH_b0c2b8f4b93e10f01eba" xlink:title="&lt;TABLE&gt;">
<polygon fill="#eeeeee" stroke="none" points="2872.5,-489.5 2872.5,-504.5 3183.5,-504.5 3183.5,-489.5 2872.5,-489.5"/>
<text text-anchor="start" x="2874.5" y="-494.5" font-family="DejaVu Sans" font-size="10.00" fill="#6666ff">https://monarchinitiative.org/MONARCH_b0c2b8f4b93e10f01eba</text>
</a>
</g>
<polygon fill="none" stroke="#666666" points="2871,-488.5 2871,-524.5 3184,-524.5 3184,-488.5 2871,-488.5"/>
</g>
<!-- node7&#45;&gt;node3 -->
<g id="edge14" class="edge"><title>node7&#45;&gt;node3</title>
<path fill="none" stroke="BLACK" d="M3027.5,-484.466C3027.5,-470.966 3027.5,-452.594 3027.5,-434.307"/>
<polygon fill="BLACK" stroke="BLACK" points="3031,-434.188 3027.5,-424.188 3024,-434.188 3031,-434.188"/>
<text text-anchor="start" x="3027.5" y="-446.8" font-family="Times,serif" font-size="14.00"> </text>
<text text-anchor="start" x="3031.5" y="-446.8" font-family="Times,serif" font-size="10.00" fill="#336633">OBAN:association_has_subject</text>
<text text-anchor="start" x="3163.5" y="-446.8" font-family="Times,serif" font-size="14.00"> </text>
</g>
<!-- node7&#45;&gt;node4 -->
<g id="edge3" class="edge"><title>node7&#45;&gt;node4</title>
<path fill="none" stroke="BLACK" d="M2862.67,-492.125C2793.86,-481.032 2715.28,-460.811 2651.5,-424 2576.83,-380.905 2515.65,-296.903 2486.65,-252.181"/>
<polygon fill="BLACK" stroke="BLACK" points="2489.46,-250.068 2481.13,-243.524 2483.56,-253.836 2489.46,-250.068"/>
<text text-anchor="start" x="2651.5" y="-361.3" font-family="Times,serif" font-size="14.00"> </text>
<text text-anchor="start" x="2655.5" y="-361.3" font-family="Times,serif" font-size="10.00" fill="#336633">OBAN:association_has_object</text>
<text text-anchor="start" x="2783.5" y="-361.3" font-family="Times,serif" font-size="14.00"> </text>
</g>
<!-- node9 -->
<g id="node7" class="node"><title>node9</title>
<polygon fill="grey" stroke="none" points="838.5,-381 838.5,-400 1180.5,-400 1180.5,-381 838.5,-381"/>
<text text-anchor="start" x="866" y="-387.8" font-family="DejaVu Sans" font-weight="bold" font-size="14.00">&quot;b0c2b8f4b93e10f01eba_assertion&quot;</text>
<g id="a_node7_10"><a xlink:href="https://monarchinitiative.org/.well-known/genid/b13b11feeac6001ef4e1" xlink:title="&lt;TABLE&gt;">
<polygon fill="#eeeeee" stroke="none" points="838.5,-366 838.5,-381 1180.5,-381 1180.5,-366 838.5,-366"/>
<text text-anchor="start" x="840.5" y="-371" font-family="DejaVu Sans" font-size="10.00" fill="#6666ff">https://monarchinitiative.org/.well&#45;known/genid/b13b11feeac6001ef4e1</text>
</a>
</g>
<text text-anchor="start" x="840.5" y="-352.8" font-family="DejaVu Sans" font-size="14.00">OBO:SEPIO_0000021</text>
<text text-anchor="start" x="1018.5" y="-352.8" font-family="DejaVu Sans" font-size="14.00">&quot;2017&#45;04&#45;04&quot;</text>
<text text-anchor="start" x="840.5" y="-333.8" font-family="DejaVu Sans" font-size="14.00">dc:identifier</text>
<text text-anchor="start" x="1018.5" y="-333.8" font-family="DejaVu Sans" font-size="14.00">&quot;SCV000790664.1&quot;</text>
<polygon fill="none" stroke="#666666" points="837.5,-327 837.5,-401 1181.5,-401 1181.5,-327 837.5,-327"/>
</g>
<!-- node7&#45;&gt;node9 -->
<g id="edge11" class="edge"><title>node7&#45;&gt;node9</title>
<path fill="none" stroke="BLACK" d="M2862.79,-494.032C2491.99,-468.216 1593.46,-405.657 1199.71,-378.243"/>
<polygon fill="BLACK" stroke="BLACK" points="1199.86,-374.745 1189.64,-377.542 1199.37,-381.728 1199.86,-374.745"/>
<text text-anchor="start" x="2317.5" y="-446.8" font-family="Times,serif" font-size="14.00"> </text>
<text text-anchor="start" x="2321.5" y="-446.8" font-family="Times,serif" font-size="10.00" fill="#336633">OBO:SEPIO_0000015</text>
<text text-anchor="start" x="2415.5" y="-446.8" font-family="Times,serif" font-size="14.00"> </text>
</g>
<!-- node10 -->
<g id="node8" class="node"><title>node10</title>
<polygon fill="grey" stroke="none" points="245.5,-219.5 245.5,-238.5 588.5,-238.5 588.5,-219.5 245.5,-219.5"/>
<text text-anchor="start" x="274.5" y="-226.3" font-family="DejaVu Sans" font-weight="bold" font-size="14.00">&quot;b0c2b8f4b93e10f01eba_evidence&quot;</text>
<g id="a_node8_11"><a xlink:href="https://monarchinitiative.org/.well-known/genid/bec67224cccaa828d90f" xlink:title="&lt;TABLE&gt;">
<polygon fill="#eeeeee" stroke="none" points="245.5,-204.5 245.5,-219.5 588.5,-219.5 588.5,-204.5 245.5,-204.5"/>
<text text-anchor="start" x="247.5" y="-209.5" font-family="DejaVu Sans" font-size="10.00" fill="#6666ff">https://monarchinitiative.org/.well&#45;known/genid/bec67224cccaa828d90f</text>
</a>
</g>
<polygon fill="none" stroke="#666666" points="244,-203.5 244,-239.5 589,-239.5 589,-203.5 244,-203.5"/>
</g>
<!-- node7&#45;&gt;node10 -->
<g id="edge6" class="edge"><title>node7&#45;&gt;node10</title>
<path fill="none" stroke="BLACK" d="M2862.94,-504.878C2368.98,-502.29 920.661,-489.167 718.5,-424 606.321,-387.839 496.889,-296.993 446.046,-250.646"/>
<polygon fill="BLACK" stroke="BLACK" points="448.125,-247.803 438.397,-243.605 443.384,-252.953 448.125,-247.803"/>
<text text-anchor="start" x="718.5" y="-361.3" font-family="Times,serif" font-size="14.00"> </text>
<text text-anchor="start" x="722.5" y="-361.3" font-family="Times,serif" font-size="10.00" fill="#336633">OBO:SEPIO_0000007</text>
<text text-anchor="start" x="816.5" y="-361.3" font-family="Times,serif" font-size="14.00"> </text>
</g>
<!-- node17 -->
<g id="node17" class="node"><title>node17</title>
<polygon fill="grey" stroke="none" points="3285.5,-362 3285.5,-381 3528.5,-381 3528.5,-362 3285.5,-362"/>
<text text-anchor="start" x="3346.5" y="-368.8" font-family="DejaVu Sans" font-weight="bold" font-size="14.00">RCV000175394</text>
<g id="a_node17_12"><a xlink:href="http://www.ncbi.nlm.nih.gov/clinvar/RCV000175394" xlink:title="&lt;TABLE&gt;">
<polygon fill="#eeeeee" stroke="none" points="3285.5,-347 3285.5,-362 3528.5,-362 3528.5,-347 3285.5,-347"/>
<text text-anchor="start" x="3287.5" y="-352" font-family="DejaVu Sans" font-size="10.00" fill="#6666ff">http://www.ncbi.nlm.nih.gov/clinvar/RCV000175394</text>
</a>
</g>
<polygon fill="none" stroke="#666666" points="3284,-346 3284,-382 3529,-382 3529,-346 3284,-346"/>
</g>
<!-- node7&#45;&gt;node17 -->
<g id="edge17" class="edge"><title>node7&#45;&gt;node17</title>
<path fill="none" stroke="BLACK" d="M3093.67,-484.433C3141.92,-468.709 3208.69,-446.195 3266.5,-424 3293.9,-413.479 3323.94,-400.957 3349.13,-390.16"/>
<polygon fill="BLACK" stroke="BLACK" points="3350.74,-393.281 3358.54,-386.115 3347.97,-386.851 3350.74,-393.281"/>
<text text-anchor="start" x="3215.5" y="-446.8" font-family="Times,serif" font-size="14.00"> </text>
<text text-anchor="start" x="3219.5" y="-446.8" font-family="Times,serif" font-size="10.00" fill="#336633">oboInOwl:hasdbxref</text>
<text text-anchor="start" x="3304.5" y="-446.8" font-family="Times,serif" font-size="14.00"> </text>
</g>
<!-- node20 -->
<g id="node21" class="node"><title>node20</title>
<polygon fill="grey" stroke="none" points="3564.5,-362 3564.5,-381 3782.5,-381 3782.5,-362 3564.5,-362"/>
<text text-anchor="start" x="3612.5" y="-368.8" font-family="DejaVu Sans" font-weight="bold" font-size="14.00">GENO_0000841</text>
<g id="a_node21_13"><a xlink:href="http://purl.obolibrary.org/obo/GENO_0000841" xlink:title="&lt;TABLE&gt;">
<polygon fill="#eeeeee" stroke="none" points="3564.5,-347 3564.5,-362 3782.5,-362 3782.5,-347 3564.5,-347"/>
<text text-anchor="start" x="3566.5" y="-352" font-family="DejaVu Sans" font-size="10.00" fill="#6666ff">http://purl.obolibrary.org/obo/GENO_0000841</text>
</a>
</g>
<polygon fill="none" stroke="#666666" points="3563.5,-346 3563.5,-382 3783.5,-382 3783.5,-346 3563.5,-346"/>
</g>
<!-- node7&#45;&gt;node20 -->
<g id="edge21" class="edge"><title>node7&#45;&gt;node20</title>
<path fill="none" stroke="BLACK" d="M3192.24,-491.302C3295.34,-479.557 3430.05,-458.953 3545.5,-424 3573.1,-415.644 3602.42,-402.477 3626.02,-390.7"/>
<polygon fill="BLACK" stroke="BLACK" points="3627.76,-393.74 3635.1,-386.098 3624.6,-387.497 3627.76,-393.74"/>
<text text-anchor="start" x="3477.5" y="-446.8" font-family="Times,serif" font-size="14.00"> </text>
<text text-anchor="start" x="3481.5" y="-446.8" font-family="Times,serif" font-size="10.00" fill="#336633">OBAN:association_has_predicate</text>
<text text-anchor="start" x="3621.5" y="-446.8" font-family="Times,serif" font-size="14.00"> </text>
</g>
<!-- node21 -->
<g id="node22" class="node"><title>node21</title>
<polygon fill="grey" stroke="none" points="3818.5,-362 3818.5,-381 3972.5,-381 3972.5,-362 3818.5,-362"/>
<text text-anchor="start" x="3849.5" y="-368.8" font-family="DejaVu Sans" font-weight="bold" font-size="14.00">association</text>
<g id="a_node22_14"><a xlink:href="http://purl.org/oban/association" xlink:title="&lt;TABLE&gt;">
<polygon fill="#eeeeee" stroke="none" points="3818.5,-347 3818.5,-362 3972.5,-362 3972.5,-347 3818.5,-347"/>
<text text-anchor="start" x="3820.5" y="-352" font-family="DejaVu Sans" font-size="10.00" fill="#6666ff">http://purl.org/oban/association</text>
</a>
</g>
<polygon fill="none" stroke="#666666" points="3817.5,-346 3817.5,-382 3973.5,-382 3973.5,-346 3817.5,-346"/>
</g>
<!-- node7&#45;&gt;node21 -->
<g id="edge22" class="edge"><title>node7&#45;&gt;node21</title>
<path fill="none" stroke="BLACK" d="M3192.19,-497.141C3313.48,-489.793 3482.23,-477.08 3629.5,-457 3706.19,-446.543 3728.43,-452.22 3800.5,-424 3820.98,-415.983 3841.93,-403.512 3858.93,-392.096"/>
<polygon fill="BLACK" stroke="BLACK" points="3861.17,-394.8 3867.43,-386.252 3857.21,-389.03 3861.17,-394.8"/>
<text text-anchor="start" x="3743.5" y="-446.8" font-family="Times,serif" font-size="14.00"> </text>
<text text-anchor="start" x="3747.5" y="-446.8" font-family="Times,serif" font-size="10.00" fill="#336633">rdf:type</text>
<text text-anchor="start" x="3780.5" y="-446.8" font-family="Times,serif" font-size="14.00"> </text>
</g>
<!-- node9&#45;&gt;node10 -->
<g id="edge5" class="edge"><title>node9&#45;&gt;node10</title>
<path fill="none" stroke="BLACK" d="M840.364,-322.926C735.105,-297.987 603.406,-266.784 514.985,-245.834"/>
<polygon fill="BLACK" stroke="BLACK" points="515.764,-242.422 505.227,-243.522 514.15,-249.233 515.764,-242.422"/>
<text text-anchor="start" x="677.5" y="-275.8" font-family="Times,serif" font-size="14.00"> </text>
<text text-anchor="start" x="681.5" y="-275.8" font-family="Times,serif" font-size="10.00" fill="#336633">OBO:SEPIO_0000111</text>
<text text-anchor="start" x="775.5" y="-275.8" font-family="Times,serif" font-size="14.00"> </text>
</g>
<!-- node6 -->
<g id="node10" class="node"><title>node6</title>
<polygon fill="grey" stroke="none" points="879.5,-219.5 879.5,-238.5 1140.5,-238.5 1140.5,-219.5 879.5,-219.5"/>
<text text-anchor="start" x="970.5" y="-226.3" font-family="DejaVu Sans" font-weight="bold" font-size="14.00">&quot;Counsyl&quot;</text>
<g id="a_node10_15"><a xlink:href="http://www.ncbi.nlm.nih.gov/clinvar/submitters/320494" xlink:title="&lt;TABLE&gt;">
<polygon fill="#eeeeee" stroke="none" points="879.5,-204.5 879.5,-219.5 1140.5,-219.5 1140.5,-204.5 879.5,-204.5"/>
<text text-anchor="start" x="881.5" y="-209.5" font-family="DejaVu Sans" font-size="10.00" fill="#6666ff">http://www.ncbi.nlm.nih.gov/clinvar/submitters/320494</text>
</a>
</g>
<polygon fill="none" stroke="#666666" points="878,-203.5 878,-239.5 1141,-239.5 1141,-203.5 878,-203.5"/>
</g>
<!-- node9&#45;&gt;node6 -->
<g id="edge12" class="edge"><title>node9&#45;&gt;node6</title>
<path fill="none" stroke="BLACK" d="M1009.5,-322.738C1009.5,-300.88 1009.5,-274.254 1009.5,-253.939"/>
<polygon fill="BLACK" stroke="BLACK" points="1013,-253.661 1009.5,-243.661 1006,-253.661 1013,-253.661"/>
<text text-anchor="start" x="1009.5" y="-275.8" font-family="Times,serif" font-size="14.00"> </text>
<text text-anchor="start" x="1013.5" y="-275.8" font-family="Times,serif" font-size="10.00" fill="#336633">OBO:SEPIO_0000018</text>
<text text-anchor="start" x="1107.5" y="-275.8" font-family="Times,serif" font-size="14.00"> </text>
</g>
<!-- node2 -->
<g id="node19" class="node"><title>node2</title>
<polygon fill="grey" stroke="none" points="1176.5,-228.5 1176.5,-247.5 2191.5,-247.5 2191.5,-228.5 1176.5,-228.5"/>
<text text-anchor="start" x="1382" y="-235.3" font-family="DejaVu Sans" font-weight="bold" font-size="14.00">&quot;Counsyl Autosomal Recessive and X&#45;Linked Classification Criteria (2018)&quot;</text>
<g id="a_node19_16"><a xlink:href="https://monarchinitiative.org/.well-known/genid/bc99926ac85cd459a025" xlink:title="&lt;TABLE&gt;">
<polygon fill="#eeeeee" stroke="none" points="1176.5,-213.5 1176.5,-228.5 2191.5,-228.5 2191.5,-213.5 1176.5,-213.5"/>
<text text-anchor="start" x="1512.5" y="-218.5" font-family="DejaVu Sans" font-size="10.00" fill="#6666ff">https://monarchinitiative.org/.well&#45;known/genid/bc99926ac85cd459a025</text>
</a>
</g>
<text text-anchor="start" x="1178.5" y="-200.3" font-family="DejaVu Sans" font-size="14.00">OBO:ERO_0000480</text>
<text text-anchor="start" x="1320.5" y="-200.3" font-family="DejaVu Sans" font-size="14.00">&quot;https://submit.ncbi.nlm.nih.gov/ft/byid/3ys2zqtz/counsyl_autosomal_recessive_and_x&#45;linked_classification_criteria_2018_.pdf&quot;</text>
<polygon fill="none" stroke="#666666" points="1175,-194 1175,-249 2192,-249 2192,-194 1175,-194"/>
</g>
<!-- node9&#45;&gt;node2 -->
<g id="edge19" class="edge"><title>node9&#45;&gt;node2</title>
<path fill="none" stroke="BLACK" d="M1189.68,-325.441C1294.87,-303.512 1426.31,-276.114 1527.13,-255.097"/>
<polygon fill="BLACK" stroke="BLACK" points="1528.02,-258.487 1537.09,-253.019 1526.59,-251.634 1528.02,-258.487"/>
<text text-anchor="start" x="1446.5" y="-275.8" font-family="Times,serif" font-size="14.00"> </text>
<text text-anchor="start" x="1450.5" y="-275.8" font-family="Times,serif" font-size="10.00" fill="#336633">OBO:SEPIO_0000041</text>
<text text-anchor="start" x="1544.5" y="-275.8" font-family="Times,serif" font-size="14.00"> </text>
</g>
<!-- node22 -->
<g id="node23" class="node"><title>node22</title>
<polygon fill="grey" stroke="none" points="624.5,-219.5 624.5,-238.5 842.5,-238.5 842.5,-219.5 624.5,-219.5"/>
<text text-anchor="start" x="671.5" y="-226.3" font-family="DejaVu Sans" font-weight="bold" font-size="14.00">SEPIO_0000001</text>
<g id="a_node23_17"><a xlink:href="http://purl.obolibrary.org/obo/SEPIO_0000001" xlink:title="&lt;TABLE&gt;">
<polygon fill="#eeeeee" stroke="none" points="624.5,-204.5 624.5,-219.5 842.5,-219.5 842.5,-204.5 624.5,-204.5"/>
<text text-anchor="start" x="626.5" y="-209.5" font-family="DejaVu Sans" font-size="10.00" fill="#6666ff">http://purl.obolibrary.org/obo/SEPIO_0000001</text>
</a>
</g>
<polygon fill="none" stroke="#666666" points="623.5,-203.5 623.5,-239.5 843.5,-239.5 843.5,-203.5 623.5,-203.5"/>
</g>
<!-- node9&#45;&gt;node22 -->
<g id="edge23" class="edge"><title>node9&#45;&gt;node22</title>
<path fill="none" stroke="BLACK" d="M930.779,-322.926C883.526,-298.872 824.824,-268.989 783.79,-248.101"/>
<polygon fill="BLACK" stroke="BLACK" points="785.296,-244.94 774.796,-243.522 782.12,-251.178 785.296,-244.94"/>
<text text-anchor="start" x="855.5" y="-275.8" font-family="Times,serif" font-size="14.00"> </text>
<text text-anchor="start" x="859.5" y="-275.8" font-family="Times,serif" font-size="10.00" fill="#336633">rdf:type</text>
<text text-anchor="start" x="892.5" y="-275.8" font-family="Times,serif" font-size="14.00"> </text>
</g>
<!-- node5 -->
<g id="node13" class="node"><title>node5</title>
<polygon fill="grey" stroke="none" points="9.5,-115 9.5,-134 354.5,-134 354.5,-115 9.5,-115"/>
<text text-anchor="start" x="114" y="-121.8" font-family="DejaVu Sans" font-weight="bold" font-size="14.00">&quot;clinical testing&quot;</text>
<g id="a_node13_18"><a xlink:href="https://monarchinitiative.org/.well-known/genid/bfcd925176aeb5112036" xlink:title="&lt;TABLE&gt;">
<polygon fill="#eeeeee" stroke="none" points="9.5,-100 9.5,-115 354.5,-115 354.5,-100 9.5,-100"/>
<text text-anchor="start" x="11.5" y="-105" font-family="DejaVu Sans" font-size="10.00" fill="#6666ff">https://monarchinitiative.org/.well&#45;known/genid/bfcd925176aeb5112036</text>
</a>
</g>
<polygon fill="none" stroke="#666666" points="8,-99 8,-135 355,-135 355,-99 8,-99"/>
</g>
<!-- node10&#45;&gt;node5 -->
<g id="edge10" class="edge"><title>node10&#45;&gt;node5</title>
<path fill="none" stroke="BLACK" d="M368.093,-199.386C330.652,-183.055 278.694,-160.393 239.112,-143.128"/>
<polygon fill="BLACK" stroke="BLACK" points="240.41,-139.876 229.844,-139.086 237.611,-146.293 240.41,-139.876"/>
<text text-anchor="start" x="299.5" y="-161.8" font-family="Times,serif" font-size="14.00"> </text>
<text text-anchor="start" x="303.5" y="-161.8" font-family="Times,serif" font-size="10.00" fill="#336633">OBO:SEPIO_0000085</text>
<text text-anchor="start" x="397.5" y="-161.8" font-family="Times,serif" font-size="14.00"> </text>
</g>
<!-- node15 -->
<g id="node15" class="node"><title>node15</title>
<polygon fill="grey" stroke="none" points="390.5,-115 390.5,-134 600.5,-134 600.5,-115 390.5,-115"/>
<text text-anchor="start" x="441" y="-121.8" font-family="DejaVu Sans" font-weight="bold" font-size="14.00">ECO_0000000</text>
<g id="a_node15_19"><a xlink:href="http://purl.obolibrary.org/obo/ECO_0000000" xlink:title="&lt;TABLE&gt;">
<polygon fill="#eeeeee" stroke="none" points="390.5,-100 390.5,-115 600.5,-115 600.5,-100 390.5,-100"/>
<text text-anchor="start" x="392.5" y="-105" font-family="DejaVu Sans" font-size="10.00" fill="#6666ff">http://purl.obolibrary.org/obo/ECO_0000000</text>
</a>
</g>
<polygon fill="none" stroke="#666666" points="389.5,-99 389.5,-135 601.5,-135 601.5,-99 389.5,-99"/>
</g>
<!-- node10&#45;&gt;node15 -->
<g id="edge15" class="edge"><title>node10&#45;&gt;node15</title>
<path fill="none" stroke="BLACK" d="M432.869,-199.262C444.415,-184.282 460.031,-164.019 472.782,-147.476"/>
<polygon fill="BLACK" stroke="BLACK" points="475.82,-149.268 479.152,-139.211 470.275,-144.995 475.82,-149.268"/>
<text text-anchor="start" x="465.5" y="-161.8" font-family="Times,serif" font-size="14.00"> </text>
<text text-anchor="start" x="469.5" y="-161.8" font-family="Times,serif" font-size="10.00" fill="#336633">rdf:type</text>
<text text-anchor="start" x="502.5" y="-161.8" font-family="Times,serif" font-size="14.00"> </text>
</g>
<!-- node12 -->
<g id="node11" class="node"><title>node12</title>
<polygon fill="grey" stroke="none" points="916.5,-115 916.5,-134 1103.5,-134 1103.5,-115 916.5,-115"/>
<text text-anchor="start" x="958.5" y="-121.8" font-family="DejaVu Sans" font-weight="bold" font-size="14.00">organization</text>
<g id="a_node11_20"><a xlink:href="http://xmlns.com/foaf/0.1/organization" xlink:title="&lt;TABLE&gt;">
<polygon fill="#eeeeee" stroke="none" points="916.5,-100 916.5,-115 1103.5,-115 1103.5,-100 916.5,-100"/>
<text text-anchor="start" x="918.5" y="-105" font-family="DejaVu Sans" font-size="10.00" fill="#6666ff">http://xmlns.com/foaf/0.1/organization</text>
</a>
</g>
<polygon fill="none" stroke="#666666" points="915,-99 915,-135 1104,-135 1104,-99 915,-99"/>
</g>
<!-- node6&#45;&gt;node12 -->
<g id="edge8" class="edge"><title>node6&#45;&gt;node12</title>
<path fill="none" stroke="BLACK" d="M1009.5,-199.262C1009.5,-184.831 1009.5,-165.499 1009.5,-149.311"/>
<polygon fill="BLACK" stroke="BLACK" points="1013,-149.211 1009.5,-139.211 1006,-149.211 1013,-149.211"/>
<text text-anchor="start" x="1009.5" y="-161.8" font-family="Times,serif" font-size="14.00"> </text>
<text text-anchor="start" x="1013.5" y="-161.8" font-family="Times,serif" font-size="10.00" fill="#336633">rdf:type</text>
<text text-anchor="start" x="1046.5" y="-161.8" font-family="Times,serif" font-size="14.00"> </text>
</g>
<!-- node16 -->
<g id="node16" class="node"><title>node16</title>
<polygon fill="grey" stroke="none" points="72.5,-20 72.5,-39 290.5,-39 290.5,-20 72.5,-20"/>
<text text-anchor="start" x="119.5" y="-26.8" font-family="DejaVu Sans" font-weight="bold" font-size="14.00">SEPIO_0000067</text>
<g id="a_node16_21"><a xlink:href="http://purl.obolibrary.org/obo/SEPIO_0000067" xlink:title="&lt;TABLE&gt;">
<polygon fill="#eeeeee" stroke="none" points="72.5,-5 72.5,-20 290.5,-20 290.5,-5 72.5,-5"/>
<text text-anchor="start" x="74.5" y="-10" font-family="DejaVu Sans" font-size="10.00" fill="#6666ff">http://purl.obolibrary.org/obo/SEPIO_0000067</text>
</a>
</g>
<polygon fill="none" stroke="#666666" points="71.5,-4 71.5,-40 291.5,-40 291.5,-4 71.5,-4"/>
</g>
<!-- node5&#45;&gt;node16 -->
<g id="edge16" class="edge"><title>node5&#45;&gt;node16</title>
<path fill="none" stroke="BLACK" d="M181.5,-94.8969C181.5,-82.8873 181.5,-67.6175 181.5,-54.242"/>
<polygon fill="BLACK" stroke="BLACK" points="185,-54.0196 181.5,-44.0196 178,-54.0197 185,-54.0196"/>
<text text-anchor="start" x="181.5" y="-66.8" font-family="Times,serif" font-size="14.00"> </text>
<text text-anchor="start" x="185.5" y="-66.8" font-family="Times,serif" font-size="10.00" fill="#336633">rdf:type</text>
<text text-anchor="start" x="218.5" y="-66.8" font-family="Times,serif" font-size="14.00"> </text>
</g>
<!-- node19 -->
<g id="node20" class="node"><title>node19</title>
<polygon fill="grey" stroke="none" points="1574.5,-115 1574.5,-134 1792.5,-134 1792.5,-115 1574.5,-115"/>
<text text-anchor="start" x="1621.5" y="-121.8" font-family="DejaVu Sans" font-weight="bold" font-size="14.00">SEPIO_0000037</text>
<g id="a_node20_22"><a xlink:href="http://purl.obolibrary.org/obo/SEPIO_0000037" xlink:title="&lt;TABLE&gt;">
<polygon fill="#eeeeee" stroke="none" points="1574.5,-100 1574.5,-115 1792.5,-115 1792.5,-100 1574.5,-100"/>
<text text-anchor="start" x="1576.5" y="-105" font-family="DejaVu Sans" font-size="10.00" fill="#6666ff">http://purl.obolibrary.org/obo/SEPIO_0000037</text>
</a>
</g>
<polygon fill="none" stroke="#666666" points="1573.5,-99 1573.5,-135 1793.5,-135 1793.5,-99 1573.5,-99"/>
</g>
<!-- node2&#45;&gt;node19 -->
<g id="edge20" class="edge"><title>node2&#45;&gt;node19</title>
<path fill="none" stroke="BLACK" d="M1683.5,-189.747C1683.5,-177.031 1683.5,-162.301 1683.5,-149.508"/>
<polygon fill="BLACK" stroke="BLACK" points="1687,-149.304 1683.5,-139.304 1680,-149.304 1687,-149.304"/>
<text text-anchor="start" x="1683.5" y="-161.8" font-family="Times,serif" font-size="14.00"> </text>
<text text-anchor="start" x="1687.5" y="-161.8" font-family="Times,serif" font-size="10.00" fill="#336633">rdf:type</text>
<text text-anchor="start" x="1720.5" y="-161.8" font-family="Times,serif" font-size="14.00"> </text>
</g>
</g>
</svg>
