<?xml version="1.0" encoding="UTF-8" standalone="no"?>
<!DOCTYPE svg PUBLIC "-//W3C//DTD SVG 1.1//EN"
 "http://www.w3.org/Graphics/SVG/1.1/DTD/svg11.dtd">
<!-- Generated by graphviz version 2.38.0 (20140413.2041)
 -->
<!-- Title: %3 Pages: 1 -->
<svg width="3540pt" height="584pt"
 viewBox="0.00 0.00 3539.50 584.00" xmlns="http://www.w3.org/2000/svg" xmlns:xlink="http://www.w3.org/1999/xlink">
<g id="graph0" class="graph" transform="scale(1 1) rotate(0) translate(4 580)">
<title>%3</title>
<polygon fill="white" stroke="none" points="-4,4 -4,-580 3535.5,-580 3535.5,4 -4,4"/>
<!-- node3 -->
<g id="node1" class="node"><title>node3</title>
<polygon fill="grey" stroke="none" points="852.5,-267 852.5,-286 1196.5,-286 1196.5,-267 852.5,-267"/>
<text text-anchor="start" x="878.5" y="-273.8" font-family="DejaVu Sans" font-weight="bold" font-size="14.00">&quot;b25e1dcae8dd05dc4d16_evidence&quot;</text>
<g id="a_node1_0"><a xlink:href="https://monarchinitiative.org/.well-known/genid/b8e43a4f4ce6a8409c4a" xlink:title="&lt;TABLE&gt;">
<polygon fill="#eeeeee" stroke="none" points="852.5,-252 852.5,-267 1196.5,-267 1196.5,-252 852.5,-252"/>
<text text-anchor="start" x="854.5" y="-257" font-family="DejaVu Sans" font-size="10.00" fill="#6666ff">https://monarchinitiative.org/.well&#45;known/genid/b8e43a4f4ce6a8409c4a</text>
</a>
</g>
<polygon fill="none" stroke="#666666" points="851.5,-251 851.5,-287 1197.5,-287 1197.5,-251 851.5,-251"/>
</g>
<!-- node4 -->
<g id="node2" class="node"><title>node4</title>
<polygon fill="grey" stroke="none" points="1021.5,-115 1021.5,-134 1415.5,-134 1415.5,-115 1021.5,-115"/>
<text text-anchor="start" x="1023.5" y="-121.8" font-family="DejaVu Sans" font-weight="bold" font-size="14.00">http://www.ncbi.nlm.nih.gov/pubmed/25786579</text>
<g id="a_node2_1"><a xlink:href="http://www.ncbi.nlm.nih.gov/pubmed/25786579" xlink:title="&lt;TABLE&gt;">
<polygon fill="#eeeeee" stroke="none" points="1021.5,-100 1021.5,-115 1415.5,-115 1415.5,-100 1021.5,-100"/>
<text text-anchor="start" x="1107" y="-105" font-family="DejaVu Sans" font-size="10.00" fill="#6666ff">http://www.ncbi.nlm.nih.gov/pubmed/25786579</text>
</a>
</g>
<polygon fill="none" stroke="#666666" points="1020.5,-99 1020.5,-135 1416.5,-135 1416.5,-99 1020.5,-99"/>
</g>
<!-- node3&#45;&gt;node4 -->
<g id="edge1" class="edge"><title>node3&#45;&gt;node4</title>
<path fill="none" stroke="BLACK" d="M1050.29,-246.985C1078.17,-224.396 1124.06,-187.608 1164.5,-157 1169.64,-153.107 1175.11,-149.058 1180.51,-145.108"/>
<polygon fill="BLACK" stroke="BLACK" points="1182.86,-147.725 1188.9,-139.015 1178.75,-142.062 1182.86,-147.725"/>
<text text-anchor="start" x="1164.5" y="-161.8" font-family="Times,serif" font-size="14.00"> </text>
<text text-anchor="start" x="1168.5" y="-161.8" font-family="Times,serif" font-size="10.00" fill="#336633">OBO:SEPIO_0000124</text>
<text text-anchor="start" x="1262.5" y="-161.8" font-family="Times,serif" font-size="14.00"> </text>
</g>
<!-- node1 -->
<g id="node5" class="node"><title>node1</title>
<polygon fill="grey" stroke="none" points="401.5,-115 401.5,-134 739.5,-134 739.5,-115 401.5,-115"/>
<text text-anchor="start" x="528" y="-121.8" font-family="DejaVu Sans" font-weight="bold" font-size="14.00">&quot;research&quot;</text>
<g id="a_node5_2"><a xlink:href="https://monarchinitiative.org/.well-known/genid/bcff6acb169553f68e9b" xlink:title="&lt;TABLE&gt;">
<polygon fill="#eeeeee" stroke="none" points="401.5,-100 401.5,-115 739.5,-115 739.5,-100 401.5,-100"/>
<text text-anchor="start" x="403.5" y="-105" font-family="DejaVu Sans" font-size="10.00" fill="#6666ff">https://monarchinitiative.org/.well&#45;known/genid/bcff6acb169553f68e9b</text>
</a>
</g>
<polygon fill="none" stroke="#666666" points="400.5,-99 400.5,-135 740.5,-135 740.5,-99 400.5,-99"/>
</g>
<!-- node3&#45;&gt;node1 -->
<g id="edge5" class="edge"><title>node3&#45;&gt;node1</title>
<path fill="none" stroke="BLACK" d="M977.874,-246.971C939.782,-230.252 884.293,-206.938 834.5,-190 780.107,-171.497 718.188,-154.407 667.993,-141.525"/>
<polygon fill="BLACK" stroke="BLACK" points="668.671,-138.086 658.116,-139.006 666.941,-144.869 668.671,-138.086"/>
<text text-anchor="start" x="777.5" y="-161.8" font-family="Times,serif" font-size="14.00"> </text>
<text text-anchor="start" x="781.5" y="-161.8" font-family="Times,serif" font-size="10.00" fill="#336633">OBO:SEPIO_0000085</text>
<text text-anchor="start" x="875.5" y="-161.8" font-family="Times,serif" font-size="14.00"> </text>
</g>
<!-- node23 -->
<g id="node24" class="node"><title>node23</title>
<polygon fill="grey" stroke="none" points="775.5,-115 775.5,-134 985.5,-134 985.5,-115 775.5,-115"/>
<text text-anchor="start" x="826" y="-121.8" font-family="DejaVu Sans" font-weight="bold" font-size="14.00">ECO_0000000</text>
<g id="a_node24_3"><a xlink:href="http://purl.obolibrary.org/obo/ECO_0000000" xlink:title="&lt;TABLE&gt;">
<polygon fill="#eeeeee" stroke="none" points="775.5,-100 775.5,-115 985.5,-115 985.5,-100 775.5,-100"/>
<text text-anchor="start" x="777.5" y="-105" font-family="DejaVu Sans" font-size="10.00" fill="#6666ff">http://purl.obolibrary.org/obo/ECO_0000000</text>
</a>
</g>
<polygon fill="none" stroke="#666666" points="774.5,-99 774.5,-135 986.5,-135 986.5,-99 774.5,-99"/>
</g>
<!-- node3&#45;&gt;node23 -->
<g id="edge26" class="edge"><title>node3&#45;&gt;node23</title>
<path fill="none" stroke="BLACK" d="M1004.17,-246.827C978.981,-220.584 935.948,-175.758 907.869,-146.509"/>
<polygon fill="BLACK" stroke="BLACK" points="910.173,-143.856 900.723,-139.065 905.123,-148.703 910.173,-143.856"/>
<text text-anchor="start" x="931.5" y="-161.8" font-family="Times,serif" font-size="14.00"> </text>
<text text-anchor="start" x="935.5" y="-161.8" font-family="Times,serif" font-size="10.00" fill="#336633">rdf:type</text>
<text text-anchor="start" x="968.5" y="-161.8" font-family="Times,serif" font-size="14.00"> </text>
</g>
<!-- node22 -->
<g id="node23" class="node"><title>node22</title>
<polygon fill="grey" stroke="none" points="1115.5,-20 1115.5,-39 1321.5,-39 1321.5,-20 1115.5,-20"/>
<text text-anchor="start" x="1166" y="-26.8" font-family="DejaVu Sans" font-weight="bold" font-size="14.00">IAO_0000013</text>
<g id="a_node23_4"><a xlink:href="http://purl.obolibrary.org/obo/IAO_0000013" xlink:title="&lt;TABLE&gt;">
<polygon fill="#eeeeee" stroke="none" points="1115.5,-5 1115.5,-20 1321.5,-20 1321.5,-5 1115.5,-5"/>
<text text-anchor="start" x="1117.5" y="-10" font-family="DejaVu Sans" font-size="10.00" fill="#6666ff">http://purl.obolibrary.org/obo/IAO_0000013</text>
</a>
</g>
<polygon fill="none" stroke="#666666" points="1114.5,-4 1114.5,-40 1322.5,-40 1322.5,-4 1114.5,-4"/>
</g>
<!-- node4&#45;&gt;node22 -->
<g id="edge23" class="edge"><title>node4&#45;&gt;node22</title>
<path fill="none" stroke="BLACK" d="M1218.5,-94.8969C1218.5,-82.8873 1218.5,-67.6175 1218.5,-54.242"/>
<polygon fill="BLACK" stroke="BLACK" points="1222,-54.0196 1218.5,-44.0196 1215,-54.0197 1222,-54.0196"/>
<text text-anchor="start" x="1218.5" y="-66.8" font-family="Times,serif" font-size="14.00"> </text>
<text text-anchor="start" x="1222.5" y="-66.8" font-family="Times,serif" font-size="10.00" fill="#336633">rdf:type</text>
<text text-anchor="start" x="1255.5" y="-66.8" font-family="Times,serif" font-size="14.00"> </text>
</g>
<!-- node5 -->
<g id="node3" class="node"><title>node5</title>
<polygon fill="grey" stroke="none" points="2128.5,-542.5 2128.5,-561.5 2444.5,-561.5 2444.5,-542.5 2128.5,-542.5"/>
<text text-anchor="start" x="2142.5" y="-549.3" font-family="DejaVu Sans" font-weight="bold" font-size="14.00">MONARCH_b25e1dcae8dd05dc4d16</text>
<g id="a_node3_5"><a xlink:href="https://monarchinitiative.org/MONARCH_b25e1dcae8dd05dc4d16" xlink:title="&lt;TABLE&gt;">
<polygon fill="#eeeeee" stroke="none" points="2128.5,-527.5 2128.5,-542.5 2444.5,-542.5 2444.5,-527.5 2128.5,-527.5"/>
<text text-anchor="start" x="2130.5" y="-532.5" font-family="DejaVu Sans" font-size="10.00" fill="#6666ff">https://monarchinitiative.org/MONARCH_b25e1dcae8dd05dc4d16</text>
</a>
</g>
<polygon fill="none" stroke="#666666" points="2127.5,-526.5 2127.5,-562.5 2445.5,-562.5 2445.5,-526.5 2127.5,-526.5"/>
</g>
<!-- node5&#45;&gt;node3 -->
<g id="edge21" class="edge"><title>node5&#45;&gt;node3</title>
<path fill="none" stroke="BLACK" d="M2119.37,-540.924C1873.18,-536.213 1425.11,-523.895 1266.5,-495 1219.62,-486.46 1203.09,-489.949 1164.5,-462 1104.86,-418.805 1060.33,-342.501 1038.83,-300.259"/>
<polygon fill="BLACK" stroke="BLACK" points="1041.95,-298.672 1034.35,-291.288 1035.68,-301.799 1041.95,-298.672"/>
<text text-anchor="start" x="1164.5" y="-427.8" font-family="Times,serif" font-size="14.00"> </text>
<text text-anchor="start" x="1168.5" y="-427.8" font-family="Times,serif" font-size="10.00" fill="#336633">OBO:SEPIO_0000007</text>
<text text-anchor="start" x="1262.5" y="-427.8" font-family="Times,serif" font-size="14.00"> </text>
</g>
<!-- node5&#45;&gt;node4 -->
<g id="edge17" class="edge"><title>node5&#45;&gt;node4</title>
<path fill="none" stroke="BLACK" d="M2119.48,-531.454C1933.71,-514.015 1627.03,-473.074 1378.5,-381 1351.41,-370.964 1340.25,-370.791 1322.5,-348 1268.14,-278.21 1315.48,-230.662 1266.5,-157 1263.96,-153.175 1260.92,-149.539 1257.63,-146.136"/>
<polygon fill="BLACK" stroke="BLACK" points="1259.8,-143.37 1250.12,-139.076 1255.01,-148.473 1259.8,-143.37"/>
<text text-anchor="start" x="1378.5" y="-370.8" font-family="Times,serif" font-size="14.00"> </text>
<text text-anchor="start" x="1382.5" y="-370.8" font-family="Times,serif" font-size="10.00" fill="#336633">dc:source</text>
<text text-anchor="start" x="1422.5" y="-370.8" font-family="Times,serif" font-size="14.00"> </text>
</g>
<!-- node6 -->
<g id="node4" class="node"><title>node6</title>
<polygon fill="grey" stroke="none" points="1888.5,-428.5 1888.5,-447.5 2280.5,-447.5 2280.5,-428.5 1888.5,-428.5"/>
<text text-anchor="start" x="1890.5" y="-435.3" font-family="DejaVu Sans" font-weight="bold" font-size="14.00">&quot;NM_018136.4(ASPM):c.[10168C&gt;T];[8098C&gt;T]&quot;</text>
<g id="a_node4_6"><a xlink:href="http://www.ncbi.nlm.nih.gov/clinvar/variation/424707" xlink:title="&lt;TABLE&gt;">
<polygon fill="#eeeeee" stroke="none" points="1888.5,-413.5 1888.5,-428.5 2280.5,-428.5 2280.5,-413.5 1888.5,-413.5"/>
<text text-anchor="start" x="1961" y="-418.5" font-family="DejaVu Sans" font-size="10.00" fill="#6666ff">http://www.ncbi.nlm.nih.gov/clinvar/variation/424707</text>
</a>
</g>
<polygon fill="none" stroke="#666666" points="1887.5,-412.5 1887.5,-448.5 2281.5,-448.5 2281.5,-412.5 1887.5,-412.5"/>
</g>
<!-- node5&#45;&gt;node6 -->
<g id="edge2" class="edge"><title>node5&#45;&gt;node6</title>
<path fill="none" stroke="BLACK" d="M2248.51,-522.434C2215.32,-504.033 2167.02,-477.253 2131.43,-457.518"/>
<polygon fill="BLACK" stroke="BLACK" points="2133.11,-454.45 2122.67,-452.662 2129.72,-460.572 2133.11,-454.45"/>
<text text-anchor="start" x="2198.5" y="-484.8" font-family="Times,serif" font-size="14.00"> </text>
<text text-anchor="start" x="2202.5" y="-484.8" font-family="Times,serif" font-size="10.00" fill="#336633">OBAN:association_has_subject</text>
<text text-anchor="start" x="2334.5" y="-484.8" font-family="Times,serif" font-size="14.00"> </text>
</g>
<!-- node2 -->
<g id="node9" class="node"><title>node2</title>
<polygon fill="grey" stroke="none" points="607.5,-437.5 607.5,-456.5 956.5,-456.5 956.5,-437.5 607.5,-437.5"/>
<text text-anchor="start" x="673.5" y="-444.3" font-family="DejaVu Sans" font-weight="bold" font-size="14.00">&quot;ClinVarAssertion_336174&quot;</text>
<g id="a_node9_7"><a xlink:href="https://monarchinitiative.org/.well-known/genid/bd539326250b4352d101" xlink:title="&lt;TABLE&gt;">
<polygon fill="#eeeeee" stroke="none" points="607.5,-422.5 607.5,-437.5 956.5,-437.5 956.5,-422.5 607.5,-422.5"/>
<text text-anchor="start" x="609.5" y="-427.5" font-family="DejaVu Sans" font-size="10.00" fill="#6666ff">https://monarchinitiative.org/.well&#45;known/genid/bd539326250b4352d101</text>
</a>
</g>
<text text-anchor="start" x="609.5" y="-409.3" font-family="DejaVu Sans" font-size="14.00">dc:identifier</text>
<text text-anchor="start" x="756.5" y="-409.3" font-family="DejaVu Sans" font-size="14.00">&quot;SCV000189126.2&quot;</text>
<polygon fill="none" stroke="#666666" points="606,-403 606,-458 957,-458 957,-403 606,-403"/>
</g>
<!-- node5&#45;&gt;node2 -->
<g id="edge32" class="edge"><title>node5&#45;&gt;node2</title>
<path fill="none" stroke="BLACK" d="M2119.37,-542.425C1820.67,-539.636 1206.72,-529.737 995.5,-495 955.746,-488.462 912.988,-476.762 876.222,-465.171"/>
<polygon fill="BLACK" stroke="BLACK" points="877.107,-461.779 866.516,-462.07 874.976,-468.447 877.107,-461.779"/>
<text text-anchor="start" x="995.5" y="-484.8" font-family="Times,serif" font-size="14.00"> </text>
<text text-anchor="start" x="999.5" y="-484.8" font-family="Times,serif" font-size="10.00" fill="#336633">OBO:SEPIO_0000015</text>
<text text-anchor="start" x="1093.5" y="-484.8" font-family="Times,serif" font-size="14.00"> </text>
</g>
<!-- node13 -->
<g id="node12" class="node"><title>node13</title>
<polygon fill="grey" stroke="none" points="2566.5,-428.5 2566.5,-447.5 2784.5,-447.5 2784.5,-428.5 2566.5,-428.5"/>
<text text-anchor="start" x="2614.5" y="-435.3" font-family="DejaVu Sans" font-weight="bold" font-size="14.00">GENO_0000840</text>
<g id="a_node12_8"><a xlink:href="http://purl.obolibrary.org/obo/GENO_0000840" xlink:title="&lt;TABLE&gt;">
<polygon fill="#eeeeee" stroke="none" points="2566.5,-413.5 2566.5,-428.5 2784.5,-428.5 2784.5,-413.5 2566.5,-413.5"/>
<text text-anchor="start" x="2568.5" y="-418.5" font-family="DejaVu Sans" font-size="10.00" fill="#6666ff">http://purl.obolibrary.org/obo/GENO_0000840</text>
</a>
</g>
<polygon fill="none" stroke="#666666" points="2565.5,-412.5 2565.5,-448.5 2785.5,-448.5 2785.5,-412.5 2565.5,-412.5"/>
</g>
<!-- node5&#45;&gt;node13 -->
<g id="edge9" class="edge"><title>node5&#45;&gt;node13</title>
<path fill="none" stroke="BLACK" d="M2359.67,-522.434C2425.85,-503.379 2523.24,-475.339 2592.35,-455.441"/>
<polygon fill="BLACK" stroke="BLACK" points="2593.69,-458.697 2602.33,-452.567 2591.75,-451.97 2593.69,-458.697"/>
<text text-anchor="start" x="2504.5" y="-484.8" font-family="Times,serif" font-size="14.00"> </text>
<text text-anchor="start" x="2508.5" y="-484.8" font-family="Times,serif" font-size="10.00" fill="#336633">OBAN:association_has_predicate</text>
<text text-anchor="start" x="2648.5" y="-484.8" font-family="Times,serif" font-size="14.00"> </text>
</g>
<!-- node15 -->
<g id="node15" class="node"><title>node15</title>
<polygon fill="grey" stroke="none" points="2820.5,-428.5 2820.5,-447.5 2974.5,-447.5 2974.5,-428.5 2820.5,-428.5"/>
<text text-anchor="start" x="2851.5" y="-435.3" font-family="DejaVu Sans" font-weight="bold" font-size="14.00">association</text>
<g id="a_node15_9"><a xlink:href="http://purl.org/oban/association" xlink:title="&lt;TABLE&gt;">
<polygon fill="#eeeeee" stroke="none" points="2820.5,-413.5 2820.5,-428.5 2974.5,-428.5 2974.5,-413.5 2820.5,-413.5"/>
<text text-anchor="start" x="2822.5" y="-418.5" font-family="DejaVu Sans" font-size="10.00" fill="#6666ff">http://purl.org/oban/association</text>
</a>
</g>
<polygon fill="none" stroke="#666666" points="2819.5,-412.5 2819.5,-448.5 2975.5,-448.5 2975.5,-412.5 2819.5,-412.5"/>
</g>
<!-- node5&#45;&gt;node15 -->
<g id="edge12" class="edge"><title>node5&#45;&gt;node15</title>
<path fill="none" stroke="BLACK" d="M2453.74,-526.524C2555.71,-513.855 2687.99,-493.256 2802.5,-462 2809.84,-459.995 2817.47,-457.78 2825.05,-455.486"/>
<polygon fill="BLACK" stroke="BLACK" points="2826.09,-458.829 2834.62,-452.547 2824.04,-452.137 2826.09,-458.829"/>
<text text-anchor="start" x="2720.5" y="-484.8" font-family="Times,serif" font-size="14.00"> </text>
<text text-anchor="start" x="2724.5" y="-484.8" font-family="Times,serif" font-size="10.00" fill="#336633">rdf:type</text>
<text text-anchor="start" x="2757.5" y="-484.8" font-family="Times,serif" font-size="14.00"> </text>
</g>
<!-- node12 -->
<g id="node16" class="node"><title>node12</title>
<polygon fill="grey" stroke="none" points="2867.5,-267 2867.5,-286 3250.5,-286 3250.5,-267 2867.5,-267"/>
<text text-anchor="start" x="2869.5" y="-273.8" font-family="DejaVu Sans" font-weight="bold" font-size="14.00">&quot;Primary autosomal recessive microcephaly 5&quot;</text>
<g id="a_node16_10"><a xlink:href="http://omim.org/entry/608716" xlink:title="&lt;TABLE&gt;">
<polygon fill="#eeeeee" stroke="none" points="2867.5,-252 2867.5,-267 3250.5,-267 3250.5,-252 2867.5,-252"/>
<text text-anchor="start" x="2988" y="-257" font-family="DejaVu Sans" font-size="10.00" fill="#6666ff">http://omim.org/entry/608716</text>
</a>
</g>
<polygon fill="none" stroke="#666666" points="2866,-251 2866,-287 3251,-287 3251,-251 2866,-251"/>
</g>
<!-- node5&#45;&gt;node12 -->
<g id="edge27" class="edge"><title>node5&#45;&gt;node12</title>
<path fill="none" stroke="BLACK" d="M2313.27,-522.446C2322.93,-514.317 2333.62,-504.656 2342.5,-495 2378.24,-456.132 2366.02,-424.057 2412.5,-399 2449.12,-379.258 2745.88,-389.989 2786.5,-381 2868.01,-362.964 2956.47,-322.618 3009.69,-295.862"/>
<polygon fill="BLACK" stroke="BLACK" points="3011.55,-298.843 3018.88,-291.197 3008.38,-292.6 3011.55,-298.843"/>
<text text-anchor="start" x="2412.5" y="-427.8" font-family="Times,serif" font-size="14.00"> </text>
<text text-anchor="start" x="2416.5" y="-427.8" font-family="Times,serif" font-size="10.00" fill="#336633">OBAN:association_has_object</text>
<text text-anchor="start" x="2544.5" y="-427.8" font-family="Times,serif" font-size="14.00"> </text>
</g>
<!-- node24 -->
<g id="node25" class="node"><title>node24</title>
<polygon fill="grey" stroke="none" points="3011.5,-428.5 3011.5,-447.5 3254.5,-447.5 3254.5,-428.5 3011.5,-428.5"/>
<text text-anchor="start" x="3072.5" y="-435.3" font-family="DejaVu Sans" font-weight="bold" font-size="14.00">RCV000162061</text>
<g id="a_node25_11"><a xlink:href="http://www.ncbi.nlm.nih.gov/clinvar/RCV000162061" xlink:title="&lt;TABLE&gt;">
<polygon fill="#eeeeee" stroke="none" points="3011.5,-413.5 3011.5,-428.5 3254.5,-428.5 3254.5,-413.5 3011.5,-413.5"/>
<text text-anchor="start" x="3013.5" y="-418.5" font-family="DejaVu Sans" font-size="10.00" fill="#6666ff">http://www.ncbi.nlm.nih.gov/clinvar/RCV000162061</text>
</a>
</g>
<polygon fill="none" stroke="#666666" points="3010,-412.5 3010,-448.5 3255,-448.5 3255,-412.5 3010,-412.5"/>
</g>
<!-- node5&#45;&gt;node24 -->
<g id="edge28" class="edge"><title>node5&#45;&gt;node24</title>
<path fill="none" stroke="BLACK" d="M2453.58,-530.333C2597.2,-517.557 2809.49,-495.196 2992.5,-462 3004.76,-459.776 3017.59,-457.253 3030.29,-454.635"/>
<polygon fill="BLACK" stroke="BLACK" points="3031.36,-457.988 3040.43,-452.519 3029.93,-451.135 3031.36,-457.988"/>
<text text-anchor="start" x="2878.5" y="-484.8" font-family="Times,serif" font-size="14.00"> </text>
<text text-anchor="start" x="2882.5" y="-484.8" font-family="Times,serif" font-size="10.00" fill="#336633">oboInOwl:hasdbxref</text>
<text text-anchor="start" x="2967.5" y="-484.8" font-family="Times,serif" font-size="14.00"> </text>
</g>
<!-- node10 -->
<g id="node10" class="node"><title>node10</title>
<polygon fill="grey" stroke="none" points="2051.5,-115 2051.5,-134 2273.5,-134 2273.5,-115 2051.5,-115"/>
<text text-anchor="start" x="2096" y="-121.8" font-family="DejaVu Sans" font-weight="bold" font-size="14.00">NCBITaxon_9606</text>
<g id="a_node10_12"><a xlink:href="http://purl.obolibrary.org/obo/NCBITaxon_9606" xlink:title="&lt;TABLE&gt;">
<polygon fill="#eeeeee" stroke="none" points="2051.5,-100 2051.5,-115 2273.5,-115 2273.5,-100 2051.5,-100"/>
<text text-anchor="start" x="2053.5" y="-105" font-family="DejaVu Sans" font-size="10.00" fill="#6666ff">http://purl.obolibrary.org/obo/NCBITaxon_9606</text>
</a>
</g>
<polygon fill="none" stroke="#666666" points="2050.5,-99 2050.5,-135 2274.5,-135 2274.5,-99 2050.5,-99"/>
</g>
<!-- node6&#45;&gt;node10 -->
<g id="edge7" class="edge"><title>node6&#45;&gt;node10</title>
<path fill="none" stroke="BLACK" d="M1879.2,-418.552C1772.62,-408.112 1657.82,-387.738 1624.5,-348 1579.38,-294.188 1579.95,-244.28 1624.5,-190 1659.52,-147.336 2011.37,-141.488 2032.5,-139 2032.6,-138.988 2032.71,-138.976 2032.81,-138.964"/>
<polygon fill="BLACK" stroke="BLACK" points="2033,-142.467 2042.49,-137.771 2032.14,-135.52 2033,-142.467"/>
<text text-anchor="start" x="1624.5" y="-266.3" font-family="Times,serif" font-size="14.00"> </text>
<text text-anchor="start" x="1628.5" y="-266.3" font-family="Times,serif" font-size="10.00" fill="#336633">OBO:RO_0002162</text>
<text text-anchor="start" x="1710.5" y="-266.3" font-family="Times,serif" font-size="14.00"> </text>
</g>
<!-- node11 -->
<g id="node11" class="node"><title>node11</title>
<polygon fill="grey" stroke="none" points="1732.5,-314 1732.5,-333 2186.5,-333 2186.5,-314 1732.5,-314"/>
<text text-anchor="start" x="1755" y="-320.8" font-family="DejaVu Sans" font-weight="bold" font-size="14.00">&quot;NM_018136.4(ASPM):c.10168C&gt;T (p.Arg3390Ter)&quot;</text>
<g id="a_node11_13"><a xlink:href="http://www.ncbi.nlm.nih.gov/clinvar/variation/165918" xlink:title="&lt;TABLE&gt;">
<polygon fill="#eeeeee" stroke="none" points="1732.5,-299 1732.5,-314 2186.5,-314 2186.5,-299 1732.5,-299"/>
<text text-anchor="start" x="1836" y="-304" font-family="DejaVu Sans" font-size="10.00" fill="#6666ff">http://www.ncbi.nlm.nih.gov/clinvar/variation/165918</text>
</a>
</g>
<text text-anchor="start" x="1734.5" y="-285.8" font-family="DejaVu Sans" font-size="14.00">oboInOwl:hasExactSynonym</text>
<text text-anchor="start" x="1936.5" y="-285.8" font-family="DejaVu Sans" font-size="14.00">&quot;NC_000001.10:g.197056096G&gt;A&quot;</text>
<text text-anchor="start" x="1734.5" y="-266.8" font-family="DejaVu Sans" font-size="14.00">oboInOwl:hasExactSynonym</text>
<text text-anchor="start" x="1936.5" y="-266.8" font-family="DejaVu Sans" font-size="14.00">&quot;NC_000001.11:g.197086966G&gt;A&quot;</text>
<text text-anchor="start" x="1734.5" y="-247.8" font-family="DejaVu Sans" font-size="14.00">oboInOwl:hasExactSynonym</text>
<text text-anchor="start" x="1936.5" y="-247.8" font-family="DejaVu Sans" font-size="14.00">&quot;NG_015867.1:g.64729C&gt;T&quot;</text>
<text text-anchor="start" x="1734.5" y="-228.8" font-family="DejaVu Sans" font-size="14.00">oboInOwl:hasExactSynonym</text>
<text text-anchor="start" x="1936.5" y="-228.8" font-family="DejaVu Sans" font-size="14.00">&quot;NM_018136.4:c.10168C&gt;T&quot;</text>
<text text-anchor="start" x="1734.5" y="-209.8" font-family="DejaVu Sans" font-size="14.00">oboInOwl:hasExactSynonym</text>
<text text-anchor="start" x="1936.5" y="-209.8" font-family="DejaVu Sans" font-size="14.00">&quot;NP_060606.3:p.Arg3390Ter&quot;</text>
<polygon fill="none" stroke="#666666" points="1731.5,-203.5 1731.5,-334.5 2187.5,-334.5 2187.5,-203.5 1731.5,-203.5"/>
</g>
<!-- node6&#45;&gt;node11 -->
<g id="edge8" class="edge"><title>node6&#45;&gt;node11</title>
<path fill="none" stroke="BLACK" d="M2067.9,-408.32C2055.37,-392.325 2037.34,-369.326 2019.58,-346.66"/>
<polygon fill="BLACK" stroke="BLACK" points="2022.24,-344.38 2013.32,-338.668 2016.73,-348.698 2022.24,-344.38"/>
<text text-anchor="start" x="2044.5" y="-370.8" font-family="Times,serif" font-size="14.00"> </text>
<text text-anchor="start" x="2048.5" y="-370.8" font-family="Times,serif" font-size="10.00" fill="#336633">OBO:GENO_0000382</text>
<text text-anchor="start" x="2144.5" y="-370.8" font-family="Times,serif" font-size="14.00"> </text>
</g>
<!-- node0 -->
<g id="node13" class="node"><title>node0</title>
<polygon fill="grey" stroke="none" points="2223.5,-324 2223.5,-343 2690.5,-343 2690.5,-324 2223.5,-324"/>
<text text-anchor="start" x="2257" y="-330.8" font-family="DejaVu Sans" font-weight="bold" font-size="14.00">&quot;NM_018136.4(ASPM):c.8098C&gt;T (p.Arg2700Ter)&quot;</text>
<g id="a_node13_14"><a xlink:href="http://www.ncbi.nlm.nih.gov/clinvar/variation/165917" xlink:title="&lt;TABLE&gt;">
<polygon fill="#eeeeee" stroke="none" points="2223.5,-309 2223.5,-324 2690.5,-324 2690.5,-309 2223.5,-309"/>
<text text-anchor="start" x="2333.5" y="-314" font-family="DejaVu Sans" font-size="10.00" fill="#6666ff">http://www.ncbi.nlm.nih.gov/clinvar/variation/165917</text>
</a>
</g>
<text text-anchor="start" x="2225.5" y="-295.8" font-family="DejaVu Sans" font-size="14.00">oboInOwl:hasExactSynonym</text>
<text text-anchor="start" x="2427.5" y="-295.8" font-family="DejaVu Sans" font-size="14.00">&quot;NC_000001.10:g.197070283G&gt;A&quot;</text>
<text text-anchor="start" x="2225.5" y="-276.8" font-family="DejaVu Sans" font-size="14.00">oboInOwl:hasExactSynonym</text>
<text text-anchor="start" x="2427.5" y="-276.8" font-family="DejaVu Sans" font-size="14.00">&quot;NC_000001.11:g.197101153G&gt;A&quot;</text>
<text text-anchor="start" x="2225.5" y="-257.8" font-family="DejaVu Sans" font-size="14.00">oboInOwl:hasExactSynonym</text>
<text text-anchor="start" x="2427.5" y="-257.8" font-family="DejaVu Sans" font-size="14.00">&quot;NG_015867.1:g.50542C&gt;T&quot;</text>
<text text-anchor="start" x="2225.5" y="-238.8" font-family="DejaVu Sans" font-size="14.00">oboInOwl:hasExactSynonym</text>
<text text-anchor="start" x="2427.5" y="-238.8" font-family="DejaVu Sans" font-size="14.00">&quot;NM_001206846.1:c.4066&#45;4989C&gt;T&quot;</text>
<text text-anchor="start" x="2225.5" y="-219.8" font-family="DejaVu Sans" font-size="14.00">oboInOwl:hasExactSynonym</text>
<text text-anchor="start" x="2427.5" y="-219.8" font-family="DejaVu Sans" font-size="14.00">&quot;NM_018136.4:c.8098C&gt;T&quot;</text>
<text text-anchor="start" x="2225.5" y="-200.8" font-family="DejaVu Sans" font-size="14.00">oboInOwl:hasExactSynonym</text>
<text text-anchor="start" x="2427.5" y="-200.8" font-family="DejaVu Sans" font-size="14.00">&quot;NP_060606.3:p.Arg2700Ter&quot;</text>
<polygon fill="none" stroke="#666666" points="2222,-194 2222,-344 2691,-344 2691,-194 2222,-194"/>
</g>
<!-- node6&#45;&gt;node0 -->
<g id="edge30" class="edge"><title>node6&#45;&gt;node0</title>
<path fill="none" stroke="BLACK" d="M2133.52,-408.484C2167.8,-393.782 2216.03,-373.104 2264.78,-352.202"/>
<polygon fill="BLACK" stroke="BLACK" points="2266.4,-355.316 2274.21,-348.159 2263.64,-348.883 2266.4,-355.316"/>
<text text-anchor="start" x="2226.5" y="-370.8" font-family="Times,serif" font-size="14.00"> </text>
<text text-anchor="start" x="2230.5" y="-370.8" font-family="Times,serif" font-size="10.00" fill="#336633">OBO:GENO_0000382</text>
<text text-anchor="start" x="2326.5" y="-370.8" font-family="Times,serif" font-size="14.00"> </text>
</g>
<!-- node6&#45;&gt;node12 -->
<g id="edge13" class="edge"><title>node6&#45;&gt;node12</title>
<path fill="none" stroke="BLACK" d="M2278.91,-408.474C2313.08,-405.082 2348.31,-401.777 2381.5,-399 2443.19,-393.837 2600.76,-400.549 2659.5,-381 2671.08,-377.146 2671.01,-370.123 2682.5,-366 2750.27,-341.675 2773.39,-364.392 2843.5,-348 2898.5,-335.141 2958.75,-312.491 3001.45,-294.9"/>
<polygon fill="BLACK" stroke="BLACK" points="3002.93,-298.073 3010.82,-291.003 3000.24,-291.61 3002.93,-298.073"/>
<text text-anchor="start" x="2682.5" y="-370.8" font-family="Times,serif" font-size="14.00"> </text>
<text text-anchor="start" x="2686.5" y="-370.8" font-family="Times,serif" font-size="10.00" fill="#336633">OBO:GENO_0000840</text>
<text text-anchor="start" x="2782.5" y="-370.8" font-family="Times,serif" font-size="14.00"> </text>
</g>
<!-- node16 -->
<g id="node17" class="node"><title>node16</title>
<polygon fill="grey" stroke="none" points="2549.5,-115 2549.5,-134 2905.5,-134 2905.5,-115 2549.5,-115"/>
<text text-anchor="start" x="2551.5" y="-121.8" font-family="DejaVu Sans" font-weight="bold" font-size="14.00">https://www.ncbi.nlm.nih.gov/gene/259266</text>
<g id="a_node17_15"><a xlink:href="https://www.ncbi.nlm.nih.gov/gene/259266" xlink:title="&lt;TABLE&gt;">
<polygon fill="#eeeeee" stroke="none" points="2549.5,-100 2549.5,-115 2905.5,-115 2905.5,-100 2549.5,-100"/>
<text text-anchor="start" x="2627" y="-105" font-family="DejaVu Sans" font-size="10.00" fill="#6666ff">https://www.ncbi.nlm.nih.gov/gene/259266</text>
</a>
</g>
<polygon fill="none" stroke="#666666" points="2548.5,-99 2548.5,-135 2906.5,-135 2906.5,-99 2548.5,-99"/>
</g>
<!-- node6&#45;&gt;node16 -->
<g id="edge14" class="edge"><title>node6&#45;&gt;node16</title>
<path fill="none" stroke="BLACK" d="M2289.53,-408.851C2465.39,-390.18 2692.81,-363.339 2707.5,-348 2734,-320.328 2732.07,-205.716 2729.4,-149.449"/>
<polygon fill="BLACK" stroke="BLACK" points="2732.89,-149.143 2728.88,-139.335 2725.9,-149.502 2732.89,-149.143"/>
<text text-anchor="start" x="2731.5" y="-266.3" font-family="Times,serif" font-size="14.00"> </text>
<text text-anchor="start" x="2735.5" y="-266.3" font-family="Times,serif" font-size="10.00" fill="#336633">OBO:GENO_0000418</text>
<text text-anchor="start" x="2831.5" y="-266.3" font-family="Times,serif" font-size="14.00"> </text>
</g>
<!-- node21 -->
<g id="node22" class="node"><title>node21</title>
<polygon fill="grey" stroke="none" points="1340.5,-267 1340.5,-286 1558.5,-286 1558.5,-267 1340.5,-267"/>
<text text-anchor="start" x="1388.5" y="-273.8" font-family="DejaVu Sans" font-weight="bold" font-size="14.00">GENO_0000402</text>
<g id="a_node22_16"><a xlink:href="http://purl.obolibrary.org/obo/GENO_0000402" xlink:title="&lt;TABLE&gt;">
<polygon fill="#eeeeee" stroke="none" points="1340.5,-252 1340.5,-267 1558.5,-267 1558.5,-252 1340.5,-252"/>
<text text-anchor="start" x="1342.5" y="-257" font-family="DejaVu Sans" font-size="10.00" fill="#6666ff">http://purl.obolibrary.org/obo/GENO_0000402</text>
</a>
</g>
<polygon fill="none" stroke="#666666" points="1339.5,-251 1339.5,-287 1559.5,-287 1559.5,-251 1339.5,-251"/>
</g>
<!-- node6&#45;&gt;node21 -->
<g id="edge22" class="edge"><title>node6&#45;&gt;node21</title>
<path fill="none" stroke="BLACK" d="M1879.19,-422.822C1722.55,-416.018 1528.47,-403.229 1497.5,-381 1471.72,-362.493 1459.64,-327.137 1454.08,-301.284"/>
<polygon fill="BLACK" stroke="BLACK" points="1457.47,-300.363 1452.14,-291.209 1450.6,-301.691 1457.47,-300.363"/>
<text text-anchor="start" x="1497.5" y="-370.8" font-family="Times,serif" font-size="14.00"> </text>
<text text-anchor="start" x="1501.5" y="-370.8" font-family="Times,serif" font-size="10.00" fill="#336633">OBO:GENO_0000608</text>
<text text-anchor="start" x="1597.5" y="-370.8" font-family="Times,serif" font-size="14.00"> </text>
</g>
<!-- node6&#45;&gt;node21 -->
<g id="edge25" class="edge"><title>node6&#45;&gt;node21</title>
<path fill="none" stroke="BLACK" d="M1879.45,-427.8C1701.69,-424.132 1468.33,-413.156 1438.5,-381 1418.85,-359.819 1425.84,-325.626 1435.09,-300.781"/>
<polygon fill="BLACK" stroke="BLACK" points="1438.37,-302.017 1438.84,-291.433 1431.87,-299.413 1438.37,-302.017"/>
<text text-anchor="start" x="1438.5" y="-370.8" font-family="Times,serif" font-size="14.00"> </text>
<text text-anchor="start" x="1442.5" y="-370.8" font-family="Times,serif" font-size="10.00" fill="#336633">rdf:type</text>
<text text-anchor="start" x="1475.5" y="-370.8" font-family="Times,serif" font-size="14.00"> </text>
</g>
<!-- node7 -->
<g id="node6" class="node"><title>node7</title>
<polygon fill="grey" stroke="none" points="461.5,-20 461.5,-39 679.5,-39 679.5,-20 461.5,-20"/>
<text text-anchor="start" x="508.5" y="-26.8" font-family="DejaVu Sans" font-weight="bold" font-size="14.00">SEPIO_0000066</text>
<g id="a_node6_17"><a xlink:href="http://purl.obolibrary.org/obo/SEPIO_0000066" xlink:title="&lt;TABLE&gt;">
<polygon fill="#eeeeee" stroke="none" points="461.5,-5 461.5,-20 679.5,-20 679.5,-5 461.5,-5"/>
<text text-anchor="start" x="463.5" y="-10" font-family="DejaVu Sans" font-size="10.00" fill="#6666ff">http://purl.obolibrary.org/obo/SEPIO_0000066</text>
</a>
</g>
<polygon fill="none" stroke="#666666" points="460.5,-4 460.5,-40 680.5,-40 680.5,-4 460.5,-4"/>
</g>
<!-- node1&#45;&gt;node7 -->
<g id="edge3" class="edge"><title>node1&#45;&gt;node7</title>
<path fill="none" stroke="BLACK" d="M570.5,-94.8969C570.5,-82.8873 570.5,-67.6175 570.5,-54.242"/>
<polygon fill="BLACK" stroke="BLACK" points="574,-54.0196 570.5,-44.0196 567,-54.0197 574,-54.0196"/>
<text text-anchor="start" x="570.5" y="-66.8" font-family="Times,serif" font-size="14.00"> </text>
<text text-anchor="start" x="574.5" y="-66.8" font-family="Times,serif" font-size="10.00" fill="#336633">rdf:type</text>
<text text-anchor="start" x="607.5" y="-66.8" font-family="Times,serif" font-size="14.00"> </text>
</g>
<!-- node8 -->
<g id="node7" class="node"><title>node8</title>
<polygon fill="grey" stroke="none" points="9.5,-267 9.5,-286 548.5,-286 548.5,-267 9.5,-267"/>
<text text-anchor="start" x="11.5" y="-273.8" font-family="DejaVu Sans" font-weight="bold" font-size="14.00">&quot;Medical Research Institute,Tokyo Medical and Dental University&quot;</text>
<g id="a_node7_18"><a xlink:href="http://www.ncbi.nlm.nih.gov/clinvar/submitters/505721" xlink:title="&lt;TABLE&gt;">
<polygon fill="#eeeeee" stroke="none" points="9.5,-252 9.5,-267 548.5,-267 548.5,-252 9.5,-252"/>
<text text-anchor="start" x="150.5" y="-257" font-family="DejaVu Sans" font-size="10.00" fill="#6666ff">http://www.ncbi.nlm.nih.gov/clinvar/submitters/505721</text>
</a>
</g>
<polygon fill="none" stroke="#666666" points="8,-251 8,-287 549,-287 549,-251 8,-251"/>
</g>
<!-- node9 -->
<g id="node8" class="node"><title>node9</title>
<polygon fill="grey" stroke="none" points="179.5,-115 179.5,-134 366.5,-134 366.5,-115 179.5,-115"/>
<text text-anchor="start" x="221.5" y="-121.8" font-family="DejaVu Sans" font-weight="bold" font-size="14.00">organization</text>
<g id="a_node8_19"><a xlink:href="http://xmlns.com/foaf/0.1/organization" xlink:title="&lt;TABLE&gt;">
<polygon fill="#eeeeee" stroke="none" points="179.5,-100 179.5,-115 366.5,-115 366.5,-100 179.5,-100"/>
<text text-anchor="start" x="181.5" y="-105" font-family="DejaVu Sans" font-size="10.00" fill="#6666ff">http://xmlns.com/foaf/0.1/organization</text>
</a>
</g>
<polygon fill="none" stroke="#666666" points="178,-99 178,-135 367,-135 367,-99 178,-99"/>
</g>
<!-- node8&#45;&gt;node9 -->
<g id="edge4" class="edge"><title>node8&#45;&gt;node9</title>
<path fill="none" stroke="BLACK" d="M277.653,-246.827C276.635,-221.366 274.916,-178.412 273.747,-149.163"/>
<polygon fill="BLACK" stroke="BLACK" points="277.24,-148.918 273.343,-139.065 270.245,-149.197 277.24,-148.918"/>
<text text-anchor="start" x="275.5" y="-161.8" font-family="Times,serif" font-size="14.00"> </text>
<text text-anchor="start" x="279.5" y="-161.8" font-family="Times,serif" font-size="10.00" fill="#336633">rdf:type</text>
<text text-anchor="start" x="312.5" y="-161.8" font-family="Times,serif" font-size="14.00"> </text>
</g>
<!-- node2&#45;&gt;node3 -->
<g id="edge10" class="edge"><title>node2&#45;&gt;node3</title>
<path fill="none" stroke="BLACK" d="M828.065,-398.936C873.19,-369.316 940.94,-324.847 983.919,-296.636"/>
<polygon fill="BLACK" stroke="BLACK" points="985.995,-299.461 992.434,-291.047 982.154,-293.609 985.995,-299.461"/>
<text text-anchor="start" x="874.5" y="-370.8" font-family="Times,serif" font-size="14.00"> </text>
<text text-anchor="start" x="878.5" y="-370.8" font-family="Times,serif" font-size="10.00" fill="#336633">OBO:SEPIO_0000111</text>
<text text-anchor="start" x="972.5" y="-370.8" font-family="Times,serif" font-size="14.00"> </text>
</g>
<!-- node2&#45;&gt;node8 -->
<g id="edge6" class="edge"><title>node2&#45;&gt;node8</title>
<path fill="none" stroke="BLACK" d="M685.112,-398.936C588.877,-368.42 442.933,-322.141 354.565,-294.12"/>
<polygon fill="BLACK" stroke="BLACK" points="355.465,-290.734 344.875,-291.047 353.349,-297.406 355.465,-290.734"/>
<text text-anchor="start" x="619.5" y="-370.8" font-family="Times,serif" font-size="14.00"> </text>
<text text-anchor="start" x="623.5" y="-370.8" font-family="Times,serif" font-size="10.00" fill="#336633">OBO:SEPIO_0000018</text>
<text text-anchor="start" x="717.5" y="-370.8" font-family="Times,serif" font-size="14.00"> </text>
</g>
<!-- node17 -->
<g id="node18" class="node"><title>node17</title>
<polygon fill="grey" stroke="none" points="598.5,-267 598.5,-286 816.5,-286 816.5,-267 598.5,-267"/>
<text text-anchor="start" x="645.5" y="-273.8" font-family="DejaVu Sans" font-weight="bold" font-size="14.00">SEPIO_0000001</text>
<g id="a_node18_20"><a xlink:href="http://purl.obolibrary.org/obo/SEPIO_0000001" xlink:title="&lt;TABLE&gt;">
<polygon fill="#eeeeee" stroke="none" points="598.5,-252 598.5,-267 816.5,-267 816.5,-252 598.5,-252"/>
<text text-anchor="start" x="600.5" y="-257" font-family="DejaVu Sans" font-size="10.00" fill="#6666ff">http://purl.obolibrary.org/obo/SEPIO_0000001</text>
</a>
</g>
<polygon fill="none" stroke="#666666" points="597.5,-251 597.5,-287 817.5,-287 817.5,-251 597.5,-251"/>
</g>
<!-- node2&#45;&gt;node17 -->
<g id="edge15" class="edge"><title>node2&#45;&gt;node17</title>
<path fill="none" stroke="BLACK" d="M767.232,-398.747C754.158,-370.567 734.901,-329.06 721.813,-300.85"/>
<polygon fill="BLACK" stroke="BLACK" points="724.844,-299.068 717.461,-291.469 718.494,-302.014 724.844,-299.068"/>
<text text-anchor="start" x="758.5" y="-370.8" font-family="Times,serif" font-size="14.00"> </text>
<text text-anchor="start" x="762.5" y="-370.8" font-family="Times,serif" font-size="10.00" fill="#336633">rdf:type</text>
<text text-anchor="start" x="795.5" y="-370.8" font-family="Times,serif" font-size="14.00"> </text>
</g>
<!-- node11&#45;&gt;node10 -->
<g id="edge20" class="edge"><title>node11&#45;&gt;node10</title>
<path fill="none" stroke="BLACK" d="M1959.97,-199.242C1963.23,-183.655 1969.4,-168.368 1980.5,-157 1985.22,-152.16 2006.32,-146.315 2032.58,-140.64"/>
<polygon fill="BLACK" stroke="BLACK" points="2033.4,-144.043 2042.47,-138.559 2031.96,-137.194 2033.4,-144.043"/>
<text text-anchor="start" x="1980.5" y="-161.8" font-family="Times,serif" font-size="14.00"> </text>
<text text-anchor="start" x="1984.5" y="-161.8" font-family="Times,serif" font-size="10.00" fill="#336633">OBO:RO_0002162</text>
<text text-anchor="start" x="2066.5" y="-161.8" font-family="Times,serif" font-size="14.00"> </text>
</g>
<!-- node14 -->
<g id="node14" class="node"><title>node14</title>
<polygon fill="grey" stroke="none" points="2309.5,-115 2309.5,-134 2513.5,-134 2513.5,-115 2309.5,-115"/>
<text text-anchor="start" x="2362" y="-121.8" font-family="DejaVu Sans" font-weight="bold" font-size="14.00">SO_0001483</text>
<g id="a_node14_21"><a xlink:href="http://purl.obolibrary.org/obo/SO_0001483" xlink:title="&lt;TABLE&gt;">
<polygon fill="#eeeeee" stroke="none" points="2309.5,-100 2309.5,-115 2513.5,-115 2513.5,-100 2309.5,-100"/>
<text text-anchor="start" x="2311.5" y="-105" font-family="DejaVu Sans" font-size="10.00" fill="#6666ff">http://purl.obolibrary.org/obo/SO_0001483</text>
</a>
</g>
<polygon fill="none" stroke="#666666" points="2308.5,-99 2308.5,-135 2514.5,-135 2514.5,-99 2308.5,-99"/>
</g>
<!-- node11&#45;&gt;node14 -->
<g id="edge33" class="edge"><title>node11&#45;&gt;node14</title>
<path fill="none" stroke="BLACK" d="M2048.1,-199.438C2073.47,-182.959 2102.01,-167.193 2130.5,-157 2195.38,-133.79 2218.26,-147.871 2290.38,-139.028"/>
<polygon fill="BLACK" stroke="BLACK" points="2290.95,-142.483 2300.4,-137.693 2290.02,-135.544 2290.95,-142.483"/>
<text text-anchor="start" x="2130.5" y="-161.8" font-family="Times,serif" font-size="14.00"> </text>
<text text-anchor="start" x="2134.5" y="-161.8" font-family="Times,serif" font-size="10.00" fill="#336633">rdf:type</text>
<text text-anchor="start" x="2167.5" y="-161.8" font-family="Times,serif" font-size="14.00"> </text>
</g>
<!-- node11&#45;&gt;node16 -->
<g id="edge18" class="edge"><title>node11&#45;&gt;node16</title>
<path fill="none" stroke="BLACK" d="M2172.07,-199.475C2183.02,-196.212 2193.88,-193.035 2204.5,-190 2235.8,-181.058 2244.4,-181.605 2275.5,-172 2294.04,-166.275 2297.55,-161.18 2316.5,-157 2407.03,-137.029 2434.25,-147.363 2530.13,-139.079"/>
<polygon fill="BLACK" stroke="BLACK" points="2530.61,-142.549 2540.25,-138.157 2529.98,-135.578 2530.61,-142.549"/>
<text text-anchor="start" x="2316.5" y="-161.8" font-family="Times,serif" font-size="14.00"> </text>
<text text-anchor="start" x="2320.5" y="-161.8" font-family="Times,serif" font-size="10.00" fill="#336633">OBO:GENO_0000418</text>
<text text-anchor="start" x="2416.5" y="-161.8" font-family="Times,serif" font-size="14.00"> </text>
</g>
<!-- node20 -->
<g id="node21" class="node"><title>node20</title>
<polygon fill="grey" stroke="none" points="1452.5,-115 1452.5,-134 2015.5,-134 2015.5,-115 1452.5,-115"/>
<text text-anchor="start" x="1454.5" y="-121.8" font-family="DejaVu Sans" font-weight="bold" font-size="14.00">http://www.ncbi.nlm.nih.gov/projects/SNP/snp_ref.cgi?rs=587783211</text>
<g id="a_node21_22"><a xlink:href="http://www.ncbi.nlm.nih.gov/projects/SNP/snp_ref.cgi?rs=587783211" xlink:title="&lt;TABLE&gt;">
<polygon fill="#eeeeee" stroke="none" points="1452.5,-100 1452.5,-115 2015.5,-115 2015.5,-100 1452.5,-100"/>
<text text-anchor="start" x="1571.5" y="-105" font-family="DejaVu Sans" font-size="10.00" fill="#6666ff">http://www.ncbi.nlm.nih.gov/projects/SNP/snp_ref.cgi?rs=587783211</text>
</a>
</g>
<polygon fill="none" stroke="#666666" points="1451,-99 1451,-135 2016,-135 2016,-99 1451,-99"/>
</g>
<!-- node11&#45;&gt;node20 -->
<g id="edge19" class="edge"><title>node11&#45;&gt;node20</title>
<path fill="none" stroke="BLACK" d="M1856.09,-199.365C1826.82,-179.939 1796.69,-159.938 1773.62,-144.628"/>
<polygon fill="BLACK" stroke="BLACK" points="1775.41,-141.615 1765.14,-139.001 1771.54,-147.447 1775.41,-141.615"/>
<text text-anchor="start" x="1813.5" y="-161.8" font-family="Times,serif" font-size="14.00"> </text>
<text text-anchor="start" x="1817.5" y="-161.8" font-family="Times,serif" font-size="10.00" fill="#336633">owl:sameAs</text>
<text text-anchor="start" x="1868.5" y="-161.8" font-family="Times,serif" font-size="14.00"> </text>
</g>
<!-- node0&#45;&gt;node10 -->
<g id="edge24" class="edge"><title>node0&#45;&gt;node10</title>
<path fill="none" stroke="BLACK" d="M2213.71,-194.584C2203.7,-187.712 2194.23,-180.203 2185.5,-172 2178.83,-165.731 2174.01,-157.211 2170.56,-148.792"/>
<polygon fill="BLACK" stroke="BLACK" points="2173.76,-147.347 2167.11,-139.097 2167.16,-149.692 2173.76,-147.347"/>
<text text-anchor="start" x="2185.5" y="-161.8" font-family="Times,serif" font-size="14.00"> </text>
<text text-anchor="start" x="2189.5" y="-161.8" font-family="Times,serif" font-size="10.00" fill="#336633">OBO:RO_0002162</text>
<text text-anchor="start" x="2271.5" y="-161.8" font-family="Times,serif" font-size="14.00"> </text>
</g>
<!-- node0&#45;&gt;node14 -->
<g id="edge11" class="edge"><title>node0&#45;&gt;node14</title>
<path fill="none" stroke="BLACK" d="M2433.08,-189.925C2428.72,-175.389 2424.4,-161.008 2420.79,-148.97"/>
<polygon fill="BLACK" stroke="BLACK" points="2424.04,-147.622 2417.81,-139.049 2417.34,-149.633 2424.04,-147.622"/>
<text text-anchor="start" x="2427.5" y="-161.8" font-family="Times,serif" font-size="14.00"> </text>
<text text-anchor="start" x="2431.5" y="-161.8" font-family="Times,serif" font-size="10.00" fill="#336633">rdf:type</text>
<text text-anchor="start" x="2464.5" y="-161.8" font-family="Times,serif" font-size="14.00"> </text>
</g>
<!-- node0&#45;&gt;node16 -->
<g id="edge31" class="edge"><title>node0&#45;&gt;node16</title>
<path fill="none" stroke="BLACK" d="M2500.37,-189.951C2510.47,-177.355 2522.21,-165.636 2535.5,-157 2543.74,-151.648 2552.56,-147.007 2561.72,-142.985"/>
<polygon fill="BLACK" stroke="BLACK" points="2563.08,-146.209 2571,-139.165 2560.42,-139.736 2563.08,-146.209"/>
<text text-anchor="start" x="2535.5" y="-161.8" font-family="Times,serif" font-size="14.00"> </text>
<text text-anchor="start" x="2539.5" y="-161.8" font-family="Times,serif" font-size="10.00" fill="#336633">OBO:GENO_0000418</text>
<text text-anchor="start" x="2635.5" y="-161.8" font-family="Times,serif" font-size="14.00"> </text>
</g>
<!-- node25 -->
<g id="node26" class="node"><title>node25</title>
<polygon fill="grey" stroke="none" points="2942.5,-115 2942.5,-134 3505.5,-134 3505.5,-115 2942.5,-115"/>
<text text-anchor="start" x="2944.5" y="-121.8" font-family="DejaVu Sans" font-weight="bold" font-size="14.00">http://www.ncbi.nlm.nih.gov/projects/SNP/snp_ref.cgi?rs=730882076</text>
<g id="a_node26_23"><a xlink:href="http://www.ncbi.nlm.nih.gov/projects/SNP/snp_ref.cgi?rs=730882076" xlink:title="&lt;TABLE&gt;">
<polygon fill="#eeeeee" stroke="none" points="2942.5,-100 2942.5,-115 3505.5,-115 3505.5,-100 2942.5,-100"/>
<text text-anchor="start" x="3061.5" y="-105" font-family="DejaVu Sans" font-size="10.00" fill="#6666ff">http://www.ncbi.nlm.nih.gov/projects/SNP/snp_ref.cgi?rs=730882076</text>
</a>
</g>
<polygon fill="none" stroke="#666666" points="2941,-99 2941,-135 3506,-135 3506,-99 2941,-99"/>
</g>
<!-- node0&#45;&gt;node25 -->
<g id="edge29" class="edge"><title>node0&#45;&gt;node25</title>
<path fill="none" stroke="BLACK" d="M2699.05,-193.297C2703.9,-192.157 2708.72,-191.056 2713.5,-190 2811.12,-168.431 2920.74,-151.969 3013.27,-140.267"/>
<polygon fill="BLACK" stroke="BLACK" points="3013.83,-143.725 3023.31,-139.007 3012.96,-136.779 3013.83,-143.725"/>
<text text-anchor="start" x="2880.5" y="-161.8" font-family="Times,serif" font-size="14.00"> </text>
<text text-anchor="start" x="2884.5" y="-161.8" font-family="Times,serif" font-size="10.00" fill="#336633">owl:sameAs</text>
<text text-anchor="start" x="2935.5" y="-161.8" font-family="Times,serif" font-size="14.00"> </text>
</g>
<!-- node18 -->
<g id="node19" class="node"><title>node18</title>
<polygon fill="grey" stroke="none" points="3256.5,-551.5 3256.5,-570.5 3522.5,-570.5 3522.5,-551.5 3256.5,-551.5"/>
<text text-anchor="start" x="3317.5" y="-558.3" font-family="DejaVu Sans" font-weight="bold" font-size="14.00">RCV000162061.nt</text>
<g id="a_node19_24"><a xlink:href="https://data.monarchinitiative.org/ttl/RCV000162061.nt" xlink:title="&lt;TABLE&gt;">
<polygon fill="#eeeeee" stroke="none" points="3256.5,-536.5 3256.5,-551.5 3522.5,-551.5 3522.5,-536.5 3256.5,-536.5"/>
<text text-anchor="start" x="3258.5" y="-541.5" font-family="DejaVu Sans" font-size="10.00" fill="#6666ff">https://data.monarchinitiative.org/ttl/RCV000162061.nt</text>
</a>
</g>
<text text-anchor="start" x="3258.5" y="-523.3" font-family="DejaVu Sans" font-size="14.00">owl:versionInfo</text>
<text text-anchor="start" x="3396.5" y="-523.3" font-family="DejaVu Sans" font-size="14.00">&quot;2019&#45;06&#45;03&quot;</text>
<polygon fill="none" stroke="#666666" points="3255.5,-517 3255.5,-572 3523.5,-572 3523.5,-517 3255.5,-517"/>
</g>
<!-- node19 -->
<g id="node20" class="node"><title>node19</title>
<polygon fill="grey" stroke="none" points="3290.5,-428.5 3290.5,-447.5 3488.5,-447.5 3488.5,-428.5 3290.5,-428.5"/>
<text text-anchor="start" x="3352.5" y="-435.3" font-family="DejaVu Sans" font-weight="bold" font-size="14.00">Ontology</text>
<g id="a_node20_25"><a xlink:href="http://www.w3.org/2002/07/owl#Ontology" xlink:title="&lt;TABLE&gt;">
<polygon fill="#eeeeee" stroke="none" points="3290.5,-413.5 3290.5,-428.5 3488.5,-428.5 3488.5,-413.5 3290.5,-413.5"/>
<text text-anchor="start" x="3292.5" y="-418.5" font-family="DejaVu Sans" font-size="10.00" fill="#6666ff">http://www.w3.org/2002/07/owl#Ontology</text>
</a>
</g>
<polygon fill="none" stroke="#666666" points="3289.5,-412.5 3289.5,-448.5 3489.5,-448.5 3489.5,-412.5 3289.5,-412.5"/>
</g>
<!-- node18&#45;&gt;node19 -->
<g id="edge16" class="edge"><title>node18&#45;&gt;node19</title>
<path fill="none" stroke="BLACK" d="M3389.5,-512.896C3389.5,-497.319 3389.5,-478.416 3389.5,-462.749"/>
<polygon fill="BLACK" stroke="BLACK" points="3393,-462.501 3389.5,-452.501 3386,-462.501 3393,-462.501"/>
<text text-anchor="start" x="3389.5" y="-484.8" font-family="Times,serif" font-size="14.00"> </text>
<text text-anchor="start" x="3393.5" y="-484.8" font-family="Times,serif" font-size="10.00" fill="#336633">rdf:type</text>
<text text-anchor="start" x="3426.5" y="-484.8" font-family="Times,serif" font-size="14.00"> </text>
</g>
</g>
</svg>
