<?xml version="1.0" encoding="UTF-8" standalone="no"?>
<!DOCTYPE svg PUBLIC "-//W3C//DTD SVG 1.1//EN"
 "http://www.w3.org/Graphics/SVG/1.1/DTD/svg11.dtd">
<!-- Generated by graphviz version 2.38.0 (20140413.2041)
 -->
<!-- Title: %3 Pages: 1 -->
<svg width="3225pt" height="565pt"
 viewBox="0.00 0.00 3225.00 565.00" xmlns="http://www.w3.org/2000/svg" xmlns:xlink="http://www.w3.org/1999/xlink">
<g id="graph0" class="graph" transform="scale(1 1) rotate(0) translate(4 561)">
<title>%3</title>
<polygon fill="white" stroke="none" points="-4,4 -4,-561 3221,-561 3221,4 -4,4"/>
<!-- node1 -->
<g id="node1" class="node"><title>node1</title>
<polygon fill="grey" stroke="none" points="164,-532.5 164,-551.5 430,-551.5 430,-532.5 164,-532.5"/>
<text text-anchor="start" x="225" y="-539.3" font-family="DejaVu Sans" font-weight="bold" font-size="14.00">RCV000087646.nt</text>
<g id="a_node1_0"><a xlink:href="https://data.monarchinitiative.org/ttl/RCV000087646.nt" xlink:title="&lt;TABLE&gt;">
<polygon fill="#eeeeee" stroke="none" points="164,-517.5 164,-532.5 430,-532.5 430,-517.5 164,-517.5"/>
<text text-anchor="start" x="166" y="-522.5" font-family="DejaVu Sans" font-size="10.00" fill="#6666ff">https://data.monarchinitiative.org/ttl/RCV000087646.nt</text>
</a>
</g>
<text text-anchor="start" x="166" y="-504.3" font-family="DejaVu Sans" font-size="14.00">owl:versionInfo</text>
<text text-anchor="start" x="304" y="-504.3" font-family="DejaVu Sans" font-size="14.00">&quot;2019&#45;04&#45;03&quot;</text>
<polygon fill="none" stroke="#666666" points="163,-498 163,-553 431,-553 431,-498 163,-498"/>
</g>
<!-- node2 -->
<g id="node2" class="node"><title>node2</title>
<polygon fill="grey" stroke="none" points="198,-409.5 198,-428.5 396,-428.5 396,-409.5 198,-409.5"/>
<text text-anchor="start" x="260" y="-416.3" font-family="DejaVu Sans" font-weight="bold" font-size="14.00">Ontology</text>
<g id="a_node2_1"><a xlink:href="http://www.w3.org/2002/07/owl#Ontology" xlink:title="&lt;TABLE&gt;">
<polygon fill="#eeeeee" stroke="none" points="198,-394.5 198,-409.5 396,-409.5 396,-394.5 198,-394.5"/>
<text text-anchor="start" x="200" y="-399.5" font-family="DejaVu Sans" font-size="10.00" fill="#6666ff">http://www.w3.org/2002/07/owl#Ontology</text>
</a>
</g>
<polygon fill="none" stroke="#666666" points="197,-393.5 197,-429.5 397,-429.5 397,-393.5 197,-393.5"/>
</g>
<!-- node1&#45;&gt;node2 -->
<g id="edge1" class="edge"><title>node1&#45;&gt;node2</title>
<path fill="none" stroke="BLACK" d="M297,-493.896C297,-478.319 297,-459.416 297,-443.749"/>
<polygon fill="BLACK" stroke="BLACK" points="300.5,-443.501 297,-433.501 293.5,-443.501 300.5,-443.501"/>
<text text-anchor="start" x="297" y="-465.8" font-family="Times,serif" font-size="14.00"> </text>
<text text-anchor="start" x="301" y="-465.8" font-family="Times,serif" font-size="10.00" fill="#336633">rdf:type</text>
<text text-anchor="start" x="334" y="-465.8" font-family="Times,serif" font-size="14.00"> </text>
</g>
<!-- node3 -->
<g id="node3" class="node"><title>node3</title>
<polygon fill="grey" stroke="none" points="1704,-523.5 1704,-542.5 2021,-542.5 2021,-523.5 1704,-523.5"/>
<text text-anchor="start" x="1719" y="-530.3" font-family="DejaVu Sans" font-weight="bold" font-size="14.00">MONARCH_b409eb231ce1985a1a4d</text>
<g id="a_node3_2"><a xlink:href="https://monarchinitiative.org/MONARCH_b409eb231ce1985a1a4d" xlink:title="&lt;TABLE&gt;">
<polygon fill="#eeeeee" stroke="none" points="1704,-508.5 1704,-523.5 2021,-523.5 2021,-508.5 1704,-508.5"/>
<text text-anchor="start" x="1706" y="-513.5" font-family="DejaVu Sans" font-size="10.00" fill="#6666ff">https://monarchinitiative.org/MONARCH_b409eb231ce1985a1a4d</text>
</a>
</g>
<polygon fill="none" stroke="#666666" points="1702.5,-507.5 1702.5,-543.5 2021.5,-543.5 2021.5,-507.5 1702.5,-507.5"/>
</g>
<!-- node0 -->
<g id="node4" class="node"><title>node0</title>
<polygon fill="grey" stroke="none" points="871,-418.5 871,-437.5 1215,-437.5 1215,-418.5 871,-418.5"/>
<text text-anchor="start" x="896" y="-425.3" font-family="DejaVu Sans" font-weight="bold" font-size="14.00">&quot;b409eb231ce1985a1a4d_assertion&quot;</text>
<g id="a_node4_3"><a xlink:href="https://monarchinitiative.org/.well-known/genid/bb77ce61eda1e1160cfd" xlink:title="&lt;TABLE&gt;">
<polygon fill="#eeeeee" stroke="none" points="871,-403.5 871,-418.5 1215,-418.5 1215,-403.5 871,-403.5"/>
<text text-anchor="start" x="873" y="-408.5" font-family="DejaVu Sans" font-size="10.00" fill="#6666ff">https://monarchinitiative.org/.well&#45;known/genid/bb77ce61eda1e1160cfd</text>
</a>
</g>
<text text-anchor="start" x="873" y="-390.3" font-family="DejaVu Sans" font-size="14.00">dc:identifier</text>
<text text-anchor="start" x="1018" y="-390.3" font-family="DejaVu Sans" font-size="14.00">&quot;SCV000120538.1&quot;</text>
<polygon fill="none" stroke="#666666" points="870,-384 870,-439 1216,-439 1216,-384 870,-384"/>
</g>
<!-- node3&#45;&gt;node0 -->
<g id="edge2" class="edge"><title>node3&#45;&gt;node0</title>
<path fill="none" stroke="BLACK" d="M1708.43,-503.499C1574.21,-485.144 1378.75,-458.414 1234.37,-438.67"/>
<polygon fill="BLACK" stroke="BLACK" points="1234.45,-435.148 1224.07,-437.261 1233.5,-442.084 1234.45,-435.148"/>
<text text-anchor="start" x="1502" y="-465.8" font-family="Times,serif" font-size="14.00"> </text>
<text text-anchor="start" x="1506" y="-465.8" font-family="Times,serif" font-size="10.00" fill="#336633">OBO:SEPIO_0000015</text>
<text text-anchor="start" x="1600" y="-465.8" font-family="Times,serif" font-size="14.00"> </text>
</g>
<!-- node5 -->
<g id="node5" class="node"><title>node5</title>
<polygon fill="grey" stroke="none" points="1506,-409.5 1506,-428.5 1749,-428.5 1749,-409.5 1506,-409.5"/>
<text text-anchor="start" x="1567" y="-416.3" font-family="DejaVu Sans" font-weight="bold" font-size="14.00">RCV000087646</text>
<g id="a_node5_4"><a xlink:href="http://www.ncbi.nlm.nih.gov/clinvar/RCV000087646" xlink:title="&lt;TABLE&gt;">
<polygon fill="#eeeeee" stroke="none" points="1506,-394.5 1506,-409.5 1749,-409.5 1749,-394.5 1506,-394.5"/>
<text text-anchor="start" x="1508" y="-399.5" font-family="DejaVu Sans" font-size="10.00" fill="#6666ff">http://www.ncbi.nlm.nih.gov/clinvar/RCV000087646</text>
</a>
</g>
<polygon fill="none" stroke="#666666" points="1504.5,-393.5 1504.5,-429.5 1749.5,-429.5 1749.5,-393.5 1504.5,-393.5"/>
</g>
<!-- node3&#45;&gt;node5 -->
<g id="edge3" class="edge"><title>node3&#45;&gt;node5</title>
<path fill="none" stroke="BLACK" d="M1817.8,-503.434C1778.86,-484.877 1722.05,-457.798 1680.54,-438.018"/>
<polygon fill="BLACK" stroke="BLACK" points="1681.94,-434.805 1671.4,-433.662 1678.92,-441.124 1681.94,-434.805"/>
<text text-anchor="start" x="1759" y="-465.8" font-family="Times,serif" font-size="14.00"> </text>
<text text-anchor="start" x="1763" y="-465.8" font-family="Times,serif" font-size="10.00" fill="#336633">oboInOwl:hasdbxref</text>
<text text-anchor="start" x="1848" y="-465.8" font-family="Times,serif" font-size="14.00"> </text>
</g>
<!-- node4 -->
<g id="node9" class="node"><title>node4</title>
<polygon fill="grey" stroke="none" points="157,-257.5 157,-276.5 490,-276.5 490,-257.5 157,-257.5"/>
<text text-anchor="start" x="177.5" y="-264.3" font-family="DejaVu Sans" font-weight="bold" font-size="14.00">&quot;b409eb231ce1985a1a4d_evidence&quot;</text>
<g id="a_node9_5"><a xlink:href="https://monarchinitiative.org/.well-known/genid/bcffea4366ef7f890f2a" xlink:title="&lt;TABLE&gt;">
<polygon fill="#eeeeee" stroke="none" points="157,-242.5 157,-257.5 490,-257.5 490,-242.5 157,-242.5"/>
<text text-anchor="start" x="159" y="-247.5" font-family="DejaVu Sans" font-size="10.00" fill="#6666ff">https://monarchinitiative.org/.well&#45;known/genid/bcffea4366ef7f890f2a</text>
</a>
</g>
<polygon fill="none" stroke="#666666" points="155.5,-241.5 155.5,-277.5 490.5,-277.5 490.5,-241.5 155.5,-241.5"/>
</g>
<!-- node3&#45;&gt;node4 -->
<g id="edge7" class="edge"><title>node3&#45;&gt;node4</title>
<path fill="none" stroke="BLACK" d="M1694.49,-518.959C1429.33,-509.05 925.14,-485.272 751,-443 605.415,-407.66 446.14,-327.741 369.418,-286.383"/>
<polygon fill="BLACK" stroke="BLACK" points="370.937,-283.225 360.478,-281.536 367.601,-289.379 370.937,-283.225"/>
<text text-anchor="start" x="751" y="-408.8" font-family="Times,serif" font-size="14.00"> </text>
<text text-anchor="start" x="755" y="-408.8" font-family="Times,serif" font-size="10.00" fill="#336633">OBO:SEPIO_0000007</text>
<text text-anchor="start" x="849" y="-408.8" font-family="Times,serif" font-size="14.00"> </text>
</g>
<!-- node14 -->
<g id="node14" class="node"><title>node14</title>
<polygon fill="grey" stroke="none" points="1785,-409.5 1785,-428.5 1939,-428.5 1939,-409.5 1785,-409.5"/>
<text text-anchor="start" x="1816" y="-416.3" font-family="DejaVu Sans" font-weight="bold" font-size="14.00">association</text>
<g id="a_node14_6"><a xlink:href="http://purl.org/oban/association" xlink:title="&lt;TABLE&gt;">
<polygon fill="#eeeeee" stroke="none" points="1785,-394.5 1785,-409.5 1939,-409.5 1939,-394.5 1785,-394.5"/>
<text text-anchor="start" x="1787" y="-399.5" font-family="DejaVu Sans" font-size="10.00" fill="#6666ff">http://purl.org/oban/association</text>
</a>
</g>
<polygon fill="none" stroke="#666666" points="1784,-393.5 1784,-429.5 1940,-429.5 1940,-393.5 1784,-393.5"/>
</g>
<!-- node3&#45;&gt;node14 -->
<g id="edge10" class="edge"><title>node3&#45;&gt;node14</title>
<path fill="none" stroke="BLACK" d="M1862,-503.434C1862,-486.645 1862,-462.883 1862,-443.859"/>
<polygon fill="BLACK" stroke="BLACK" points="1865.5,-443.853 1862,-433.853 1858.5,-443.853 1865.5,-443.853"/>
<text text-anchor="start" x="1862" y="-465.8" font-family="Times,serif" font-size="14.00"> </text>
<text text-anchor="start" x="1866" y="-465.8" font-family="Times,serif" font-size="10.00" fill="#336633">rdf:type</text>
<text text-anchor="start" x="1899" y="-465.8" font-family="Times,serif" font-size="14.00"> </text>
</g>
<!-- node15 -->
<g id="node15" class="node"><title>node15</title>
<polygon fill="grey" stroke="none" points="1975,-409.5 1975,-428.5 2415,-428.5 2415,-409.5 1975,-409.5"/>
<text text-anchor="start" x="1977" y="-416.3" font-family="DejaVu Sans" font-weight="bold" font-size="14.00">http://www.ncbi.nlm.nih.gov/clinvar/variation/101408</text>
<g id="a_node15_7"><a xlink:href="http://www.ncbi.nlm.nih.gov/clinvar/variation/101408" xlink:title="&lt;TABLE&gt;">
<polygon fill="#eeeeee" stroke="none" points="1975,-394.5 1975,-409.5 2415,-409.5 2415,-394.5 1975,-394.5"/>
<text text-anchor="start" x="2071.5" y="-399.5" font-family="DejaVu Sans" font-size="10.00" fill="#6666ff">http://www.ncbi.nlm.nih.gov/clinvar/variation/101408</text>
</a>
</g>
<polygon fill="none" stroke="#666666" points="1974,-393.5 1974,-429.5 2416,-429.5 2416,-393.5 1974,-393.5"/>
</g>
<!-- node3&#45;&gt;node15 -->
<g id="edge13" class="edge"><title>node3&#45;&gt;node15</title>
<path fill="none" stroke="BLACK" d="M1924.63,-503.434C1980.94,-484.496 2063.63,-456.683 2122.72,-436.809"/>
<polygon fill="BLACK" stroke="BLACK" points="2124,-440.072 2132.36,-433.567 2121.77,-433.437 2124,-440.072"/>
<text text-anchor="start" x="2049" y="-465.8" font-family="Times,serif" font-size="14.00"> </text>
<text text-anchor="start" x="2053" y="-465.8" font-family="Times,serif" font-size="10.00" fill="#336633">OBAN:association_has_subject</text>
<text text-anchor="start" x="2185" y="-465.8" font-family="Times,serif" font-size="14.00"> </text>
</g>
<!-- node17 -->
<g id="node17" class="node"><title>node17</title>
<polygon fill="grey" stroke="none" points="2930,-257.5 2930,-276.5 3208,-276.5 3208,-257.5 2930,-257.5"/>
<text text-anchor="start" x="2932" y="-264.3" font-family="DejaVu Sans" font-weight="bold" font-size="14.00">&quot;Ehlers&#45;Danlos syndrome, type 4&quot;</text>
<g id="a_node17_8"><a xlink:href="http://omim.org/entry/130050" xlink:title="&lt;TABLE&gt;">
<polygon fill="#eeeeee" stroke="none" points="2930,-242.5 2930,-257.5 3208,-257.5 3208,-242.5 2930,-242.5"/>
<text text-anchor="start" x="2998" y="-247.5" font-family="DejaVu Sans" font-size="10.00" fill="#6666ff">http://omim.org/entry/130050</text>
</a>
</g>
<polygon fill="none" stroke="#666666" points="2929,-241.5 2929,-277.5 3209,-277.5 3209,-241.5 2929,-241.5"/>
</g>
<!-- node3&#45;&gt;node17 -->
<g id="edge15" class="edge"><title>node3&#45;&gt;node17</title>
<path fill="none" stroke="BLACK" d="M2029.51,-514.296C2172.76,-503.104 2366.07,-481.4 2433,-443 2464.01,-425.212 2451.79,-397.424 2483,-380 2650.66,-286.411 2726.69,-379.264 2912,-329 2949.72,-318.77 2990.08,-300.994 3020.43,-286.114"/>
<polygon fill="BLACK" stroke="BLACK" points="3022.12,-289.184 3029.52,-281.6 3019.01,-282.915 3022.12,-289.184"/>
<text text-anchor="start" x="2483" y="-408.8" font-family="Times,serif" font-size="14.00"> </text>
<text text-anchor="start" x="2487" y="-408.8" font-family="Times,serif" font-size="10.00" fill="#336633">OBAN:association_has_object</text>
<text text-anchor="start" x="2615" y="-408.8" font-family="Times,serif" font-size="14.00"> </text>
</g>
<!-- node18 -->
<g id="node18" class="node"><title>node18</title>
<polygon fill="grey" stroke="none" points="2637,-409.5 2637,-428.5 2855,-428.5 2855,-409.5 2637,-409.5"/>
<text text-anchor="start" x="2685" y="-416.3" font-family="DejaVu Sans" font-weight="bold" font-size="14.00">GENO_0000840</text>
<g id="a_node18_9"><a xlink:href="http://purl.obolibrary.org/obo/GENO_0000840" xlink:title="&lt;TABLE&gt;">
<polygon fill="#eeeeee" stroke="none" points="2637,-394.5 2637,-409.5 2855,-409.5 2855,-394.5 2637,-394.5"/>
<text text-anchor="start" x="2639" y="-399.5" font-family="DejaVu Sans" font-size="10.00" fill="#6666ff">http://purl.obolibrary.org/obo/GENO_0000840</text>
</a>
</g>
<polygon fill="none" stroke="#666666" points="2636,-393.5 2636,-429.5 2856,-429.5 2856,-393.5 2636,-393.5"/>
</g>
<!-- node3&#45;&gt;node18 -->
<g id="edge16" class="edge"><title>node3&#45;&gt;node18</title>
<path fill="none" stroke="BLACK" d="M2029.61,-518.98C2156.18,-513.008 2333.83,-500.774 2488,-476 2547.67,-466.412 2613.84,-450.006 2664.23,-436.272"/>
<polygon fill="BLACK" stroke="BLACK" points="2665.37,-439.587 2674.09,-433.564 2663.52,-432.837 2665.37,-439.587"/>
<text text-anchor="start" x="2560" y="-465.8" font-family="Times,serif" font-size="14.00"> </text>
<text text-anchor="start" x="2564" y="-465.8" font-family="Times,serif" font-size="10.00" fill="#336633">OBAN:association_has_predicate</text>
<text text-anchor="start" x="2704" y="-465.8" font-family="Times,serif" font-size="14.00"> </text>
</g>
<!-- node6 -->
<g id="node6" class="node"><title>node6</title>
<polygon fill="grey" stroke="none" points="526,-257.5 526,-276.5 1011,-276.5 1011,-257.5 526,-257.5"/>
<text text-anchor="start" x="528" y="-264.3" font-family="DejaVu Sans" font-weight="bold" font-size="14.00">&quot;Collagen Diagnostic Laboratory,University of Washington&quot;</text>
<g id="a_node6_10"><a xlink:href="http://www.ncbi.nlm.nih.gov/clinvar/submitters/1058" xlink:title="&lt;TABLE&gt;">
<polygon fill="#eeeeee" stroke="none" points="526,-242.5 526,-257.5 1011,-257.5 1011,-242.5 526,-242.5"/>
<text text-anchor="start" x="646" y="-247.5" font-family="DejaVu Sans" font-size="10.00" fill="#6666ff">http://www.ncbi.nlm.nih.gov/clinvar/submitters/1058</text>
</a>
</g>
<polygon fill="none" stroke="#666666" points="524.5,-241.5 524.5,-277.5 1011.5,-277.5 1011.5,-241.5 524.5,-241.5"/>
</g>
<!-- node0&#45;&gt;node6 -->
<g id="edge4" class="edge"><title>node0&#45;&gt;node6</title>
<path fill="none" stroke="BLACK" d="M987.018,-379.964C936.561,-352.443 863.184,-312.418 815.521,-286.421"/>
<polygon fill="BLACK" stroke="BLACK" points="817.094,-283.292 806.639,-281.576 813.742,-289.437 817.094,-283.292"/>
<text text-anchor="start" x="955" y="-351.8" font-family="Times,serif" font-size="14.00"> </text>
<text text-anchor="start" x="959" y="-351.8" font-family="Times,serif" font-size="10.00" fill="#336633">OBO:SEPIO_0000018</text>
<text text-anchor="start" x="1053" y="-351.8" font-family="Times,serif" font-size="14.00"> </text>
</g>
<!-- node0&#45;&gt;node4 -->
<g id="edge19" class="edge"><title>node0&#45;&gt;node4</title>
<path fill="none" stroke="BLACK" d="M861.854,-392.349C757.102,-379.528 623.398,-359.173 507,-329 463.687,-317.772 416.413,-300.048 380.629,-285.442"/>
<polygon fill="BLACK" stroke="BLACK" points="381.902,-282.181 371.322,-281.608 379.235,-288.653 381.902,-282.181"/>
<text text-anchor="start" x="653" y="-351.8" font-family="Times,serif" font-size="14.00"> </text>
<text text-anchor="start" x="657" y="-351.8" font-family="Times,serif" font-size="10.00" fill="#336633">OBO:SEPIO_0000111</text>
<text text-anchor="start" x="751" y="-351.8" font-family="Times,serif" font-size="14.00"> </text>
</g>
<!-- node13 -->
<g id="node13" class="node"><title>node13</title>
<polygon fill="grey" stroke="none" points="1047,-257.5 1047,-276.5 1265,-276.5 1265,-257.5 1047,-257.5"/>
<text text-anchor="start" x="1094" y="-264.3" font-family="DejaVu Sans" font-weight="bold" font-size="14.00">SEPIO_0000001</text>
<g id="a_node13_11"><a xlink:href="http://purl.obolibrary.org/obo/SEPIO_0000001" xlink:title="&lt;TABLE&gt;">
<polygon fill="#eeeeee" stroke="none" points="1047,-242.5 1047,-257.5 1265,-257.5 1265,-242.5 1047,-242.5"/>
<text text-anchor="start" x="1049" y="-247.5" font-family="DejaVu Sans" font-size="10.00" fill="#6666ff">http://purl.obolibrary.org/obo/SEPIO_0000001</text>
</a>
</g>
<polygon fill="none" stroke="#666666" points="1046,-241.5 1046,-277.5 1266,-277.5 1266,-241.5 1046,-241.5"/>
</g>
<!-- node0&#45;&gt;node13 -->
<g id="edge9" class="edge"><title>node0&#45;&gt;node13</title>
<path fill="none" stroke="BLACK" d="M1066.14,-379.783C1085.98,-353.447 1114.37,-315.761 1133.9,-289.832"/>
<polygon fill="BLACK" stroke="BLACK" points="1136.94,-291.617 1140.16,-281.523 1131.35,-287.405 1136.94,-291.617"/>
<text text-anchor="start" x="1090" y="-351.8" font-family="Times,serif" font-size="14.00"> </text>
<text text-anchor="start" x="1094" y="-351.8" font-family="Times,serif" font-size="10.00" fill="#336633">rdf:type</text>
<text text-anchor="start" x="1127" y="-351.8" font-family="Times,serif" font-size="14.00"> </text>
</g>
<!-- node21 -->
<g id="node21" class="node"><title>node21</title>
<polygon fill="grey" stroke="none" points="675,-115 675,-134 862,-134 862,-115 675,-115"/>
<text text-anchor="start" x="717" y="-121.8" font-family="DejaVu Sans" font-weight="bold" font-size="14.00">organization</text>
<g id="a_node21_12"><a xlink:href="http://xmlns.com/foaf/0.1/organization" xlink:title="&lt;TABLE&gt;">
<polygon fill="#eeeeee" stroke="none" points="675,-100 675,-115 862,-115 862,-100 675,-100"/>
<text text-anchor="start" x="677" y="-105" font-family="DejaVu Sans" font-size="10.00" fill="#6666ff">http://xmlns.com/foaf/0.1/organization</text>
</a>
</g>
<polygon fill="none" stroke="#666666" points="673.5,-99 673.5,-135 862.5,-135 862.5,-99 673.5,-99"/>
</g>
<!-- node6&#45;&gt;node21 -->
<g id="edge22" class="edge"><title>node6&#45;&gt;node21</title>
<path fill="none" stroke="BLACK" d="M768,-237.466C768,-214.083 768,-176.08 768,-149.224"/>
<polygon fill="BLACK" stroke="BLACK" points="771.5,-149.178 768,-139.178 764.5,-149.178 771.5,-149.178"/>
<text text-anchor="start" x="768" y="-161.8" font-family="Times,serif" font-size="14.00"> </text>
<text text-anchor="start" x="772" y="-161.8" font-family="Times,serif" font-size="10.00" fill="#336633">rdf:type</text>
<text text-anchor="start" x="805" y="-161.8" font-family="Times,serif" font-size="14.00"> </text>
</g>
<!-- node7 -->
<g id="node7" class="node"><title>node7</title>
<polygon fill="grey" stroke="none" points="255,-115 255,-134 603,-134 603,-115 255,-115"/>
<text text-anchor="start" x="361" y="-121.8" font-family="DejaVu Sans" font-weight="bold" font-size="14.00">&quot;clinical testing&quot;</text>
<g id="a_node7_13"><a xlink:href="https://monarchinitiative.org/.well-known/genid/b344a747065c549662e8" xlink:title="&lt;TABLE&gt;">
<polygon fill="#eeeeee" stroke="none" points="255,-100 255,-115 603,-115 603,-100 255,-100"/>
<text text-anchor="start" x="257" y="-105" font-family="DejaVu Sans" font-size="10.00" fill="#6666ff">https://monarchinitiative.org/.well&#45;known/genid/b344a747065c549662e8</text>
</a>
</g>
<polygon fill="none" stroke="#666666" points="254,-99 254,-135 604,-135 604,-99 254,-99"/>
</g>
<!-- node8 -->
<g id="node8" class="node"><title>node8</title>
<polygon fill="grey" stroke="none" points="320,-20 320,-39 538,-39 538,-20 320,-20"/>
<text text-anchor="start" x="367" y="-26.8" font-family="DejaVu Sans" font-weight="bold" font-size="14.00">SEPIO_0000067</text>
<g id="a_node8_14"><a xlink:href="http://purl.obolibrary.org/obo/SEPIO_0000067" xlink:title="&lt;TABLE&gt;">
<polygon fill="#eeeeee" stroke="none" points="320,-5 320,-20 538,-20 538,-5 320,-5"/>
<text text-anchor="start" x="322" y="-10" font-family="DejaVu Sans" font-size="10.00" fill="#6666ff">http://purl.obolibrary.org/obo/SEPIO_0000067</text>
</a>
</g>
<polygon fill="none" stroke="#666666" points="319,-4 319,-40 539,-40 539,-4 319,-4"/>
</g>
<!-- node7&#45;&gt;node8 -->
<g id="edge5" class="edge"><title>node7&#45;&gt;node8</title>
<path fill="none" stroke="BLACK" d="M429,-94.8969C429,-82.8873 429,-67.6175 429,-54.242"/>
<polygon fill="BLACK" stroke="BLACK" points="432.5,-54.0196 429,-44.0196 425.5,-54.0197 432.5,-54.0196"/>
<text text-anchor="start" x="429" y="-66.8" font-family="Times,serif" font-size="14.00"> </text>
<text text-anchor="start" x="433" y="-66.8" font-family="Times,serif" font-size="10.00" fill="#336633">rdf:type</text>
<text text-anchor="start" x="466" y="-66.8" font-family="Times,serif" font-size="14.00"> </text>
</g>
<!-- node4&#45;&gt;node7 -->
<g id="edge21" class="edge"><title>node4&#45;&gt;node7</title>
<path fill="none" stroke="BLACK" d="M338.869,-237.466C356.901,-213.565 386.456,-174.391 406.776,-147.458"/>
<polygon fill="BLACK" stroke="BLACK" points="409.794,-149.269 413.022,-139.178 404.205,-145.053 409.794,-149.269"/>
<text text-anchor="start" x="398" y="-161.8" font-family="Times,serif" font-size="14.00"> </text>
<text text-anchor="start" x="402" y="-161.8" font-family="Times,serif" font-size="10.00" fill="#336633">OBO:SEPIO_0000085</text>
<text text-anchor="start" x="496" y="-161.8" font-family="Times,serif" font-size="14.00"> </text>
</g>
<!-- node9 -->
<g id="node10" class="node"><title>node9</title>
<polygon fill="grey" stroke="none" points="9,-115 9,-134 219,-134 219,-115 9,-115"/>
<text text-anchor="start" x="59.5" y="-121.8" font-family="DejaVu Sans" font-weight="bold" font-size="14.00">ECO_0000000</text>
<g id="a_node10_15"><a xlink:href="http://purl.obolibrary.org/obo/ECO_0000000" xlink:title="&lt;TABLE&gt;">
<polygon fill="#eeeeee" stroke="none" points="9,-100 9,-115 219,-115 219,-100 9,-100"/>
<text text-anchor="start" x="11" y="-105" font-family="DejaVu Sans" font-size="10.00" fill="#6666ff">http://purl.obolibrary.org/obo/ECO_0000000</text>
</a>
</g>
<polygon fill="none" stroke="#666666" points="8,-99 8,-135 220,-135 220,-99 8,-99"/>
</g>
<!-- node4&#45;&gt;node9 -->
<g id="edge6" class="edge"><title>node4&#45;&gt;node9</title>
<path fill="none" stroke="BLACK" d="M291.711,-237.466C255.003,-212.789 194.076,-171.831 153.976,-144.874"/>
<polygon fill="BLACK" stroke="BLACK" points="155.755,-141.852 145.503,-139.178 151.85,-147.662 155.755,-141.852"/>
<text text-anchor="start" x="194" y="-161.8" font-family="Times,serif" font-size="14.00"> </text>
<text text-anchor="start" x="198" y="-161.8" font-family="Times,serif" font-size="10.00" fill="#336633">rdf:type</text>
<text text-anchor="start" x="231" y="-161.8" font-family="Times,serif" font-size="14.00"> </text>
</g>
<!-- node10 -->
<g id="node11" class="node"><title>node10</title>
<polygon fill="grey" stroke="none" points="2312,-304.5 2312,-323.5 2894,-323.5 2894,-304.5 2312,-304.5"/>
<text text-anchor="start" x="2314" y="-311.3" font-family="DejaVu Sans" font-weight="bold" font-size="14.00">&quot;NM_000090.3(COL3A1):c.[=/3440_3466del27] (p.Pro1147_Gly1155del)&quot;</text>
<g id="a_node11_16"><a xlink:href="http://www.ncbi.nlm.nih.gov/clinvar/variation/107155" xlink:title="&lt;TABLE&gt;">
<polygon fill="#eeeeee" stroke="none" points="2312,-289.5 2312,-304.5 2894,-304.5 2894,-289.5 2312,-289.5"/>
<text text-anchor="start" x="2479.5" y="-294.5" font-family="DejaVu Sans" font-size="10.00" fill="#6666ff">http://www.ncbi.nlm.nih.gov/clinvar/variation/107155</text>
</a>
</g>
<text text-anchor="start" x="2314" y="-276.3" font-family="DejaVu Sans" font-size="14.00">oboInOwl:hasExactSynonym</text>
<text text-anchor="start" x="2568" y="-276.3" font-family="DejaVu Sans" font-size="14.00">&quot;LRG_3p1:p.Pro1147_Gly1155del&quot;</text>
<text text-anchor="start" x="2314" y="-257.3" font-family="DejaVu Sans" font-size="14.00">oboInOwl:hasExactSynonym</text>
<text text-anchor="start" x="2568" y="-257.3" font-family="DejaVu Sans" font-size="14.00">&quot;LRG_3t1:c.[=/3440_3466del27]&quot;</text>
<text text-anchor="start" x="2314" y="-238.3" font-family="DejaVu Sans" font-size="14.00">oboInOwl:hasExactSynonym</text>
<text text-anchor="start" x="2568" y="-238.3" font-family="DejaVu Sans" font-size="14.00">&quot;NM_000090.3:c.3440&#45;3466del&quot;</text>
<text text-anchor="start" x="2314" y="-219.3" font-family="DejaVu Sans" font-size="14.00">oboInOwl:hasExactSynonym</text>
<text text-anchor="start" x="2568" y="-219.3" font-family="DejaVu Sans" font-size="14.00">&quot;NM_000090.3:c.[=/3440_3466del27]&quot;</text>
<text text-anchor="start" x="2314" y="-200.3" font-family="DejaVu Sans" font-size="14.00">oboInOwl:hasExactSynonym</text>
<text text-anchor="start" x="2568" y="-200.3" font-family="DejaVu Sans" font-size="14.00">&quot;NP_000081.1:p.Pro1147_Gly1155del&quot;</text>
<polygon fill="none" stroke="#666666" points="2311,-194 2311,-325 2895,-325 2895,-194 2311,-194"/>
</g>
<!-- node12 -->
<g id="node12" class="node"><title>node12</title>
<polygon fill="grey" stroke="none" points="2412,-115 2412,-134 2616,-134 2616,-115 2412,-115"/>
<text text-anchor="start" x="2464.5" y="-121.8" font-family="DejaVu Sans" font-weight="bold" font-size="14.00">SO_0000159</text>
<g id="a_node12_17"><a xlink:href="http://purl.obolibrary.org/obo/SO_0000159" xlink:title="&lt;TABLE&gt;">
<polygon fill="#eeeeee" stroke="none" points="2412,-100 2412,-115 2616,-115 2616,-100 2412,-100"/>
<text text-anchor="start" x="2414" y="-105" font-family="DejaVu Sans" font-size="10.00" fill="#6666ff">http://purl.obolibrary.org/obo/SO_0000159</text>
</a>
</g>
<polygon fill="none" stroke="#666666" points="2411,-99 2411,-135 2617,-135 2617,-99 2411,-99"/>
</g>
<!-- node10&#45;&gt;node12 -->
<g id="edge8" class="edge"><title>node10&#45;&gt;node12</title>
<path fill="none" stroke="BLACK" d="M2568.48,-189.833C2562.08,-178.606 2555.14,-167.29 2548,-157 2545.7,-153.691 2543.17,-150.345 2540.55,-147.075"/>
<polygon fill="BLACK" stroke="BLACK" points="2543.04,-144.605 2533.95,-139.173 2537.67,-149.092 2543.04,-144.605"/>
<text text-anchor="start" x="2557" y="-161.8" font-family="Times,serif" font-size="14.00"> </text>
<text text-anchor="start" x="2561" y="-161.8" font-family="Times,serif" font-size="10.00" fill="#336633">rdf:type</text>
<text text-anchor="start" x="2594" y="-161.8" font-family="Times,serif" font-size="14.00"> </text>
</g>
<!-- node16 -->
<g id="node16" class="node"><title>node16</title>
<polygon fill="grey" stroke="none" points="2084,-115 2084,-134 2306,-134 2306,-115 2084,-115"/>
<text text-anchor="start" x="2128.5" y="-121.8" font-family="DejaVu Sans" font-weight="bold" font-size="14.00">NCBITaxon_9606</text>
<g id="a_node16_18"><a xlink:href="http://purl.obolibrary.org/obo/NCBITaxon_9606" xlink:title="&lt;TABLE&gt;">
<polygon fill="#eeeeee" stroke="none" points="2084,-100 2084,-115 2306,-115 2306,-100 2084,-100"/>
<text text-anchor="start" x="2086" y="-105" font-family="DejaVu Sans" font-size="10.00" fill="#6666ff">http://purl.obolibrary.org/obo/NCBITaxon_9606</text>
</a>
</g>
<polygon fill="none" stroke="#666666" points="2083,-99 2083,-135 2307,-135 2307,-99 2083,-99"/>
</g>
<!-- node10&#45;&gt;node16 -->
<g id="edge17" class="edge"><title>node10&#45;&gt;node16</title>
<path fill="none" stroke="BLACK" d="M2478.52,-189.893C2452.77,-177.614 2425.43,-165.913 2399,-157 2375.47,-149.065 2349.84,-142.577 2324.94,-137.332"/>
<polygon fill="BLACK" stroke="BLACK" points="2325.57,-133.888 2315.07,-135.308 2324.17,-140.745 2325.57,-133.888"/>
<text text-anchor="start" x="2434" y="-161.8" font-family="Times,serif" font-size="14.00"> </text>
<text text-anchor="start" x="2438" y="-161.8" font-family="Times,serif" font-size="10.00" fill="#336633">OBO:RO_0002162</text>
<text text-anchor="start" x="2520" y="-161.8" font-family="Times,serif" font-size="14.00"> </text>
</g>
<!-- node20 -->
<g id="node20" class="node"><title>node20</title>
<polygon fill="grey" stroke="none" points="1704,-115 1704,-134 2040,-134 2040,-115 1704,-115"/>
<text text-anchor="start" x="1706" y="-121.8" font-family="DejaVu Sans" font-weight="bold" font-size="14.00">https://www.ncbi.nlm.nih.gov/gene/1281</text>
<g id="a_node20_19"><a xlink:href="https://www.ncbi.nlm.nih.gov/gene/1281" xlink:title="&lt;TABLE&gt;">
<polygon fill="#eeeeee" stroke="none" points="1704,-100 1704,-115 2040,-115 2040,-100 1704,-100"/>
<text text-anchor="start" x="1777.5" y="-105" font-family="DejaVu Sans" font-size="10.00" fill="#6666ff">https://www.ncbi.nlm.nih.gov/gene/1281</text>
</a>
</g>
<polygon fill="none" stroke="#666666" points="1703,-99 1703,-135 2041,-135 2041,-99 1703,-99"/>
</g>
<!-- node10&#45;&gt;node20 -->
<g id="edge20" class="edge"><title>node10&#45;&gt;node20</title>
<path fill="none" stroke="BLACK" d="M2341.9,-189.884C2327.56,-184.285 2313.5,-178.326 2300,-172 2289.28,-166.978 2289.15,-160.964 2278,-157 2188.9,-125.326 2160.12,-148.089 2066,-139 2063.74,-138.782 2061.46,-138.561 2059.18,-138.337"/>
<polygon fill="BLACK" stroke="BLACK" points="2059.37,-134.839 2049.08,-137.339 2058.68,-141.805 2059.37,-134.839"/>
<text text-anchor="start" x="2300" y="-161.8" font-family="Times,serif" font-size="14.00"> </text>
<text text-anchor="start" x="2304" y="-161.8" font-family="Times,serif" font-size="10.00" fill="#336633">OBO:BFO_0000050</text>
<text text-anchor="start" x="2391" y="-161.8" font-family="Times,serif" font-size="14.00"> </text>
</g>
<!-- node15&#45;&gt;node10 -->
<g id="edge14" class="edge"><title>node15&#45;&gt;node10</title>
<path fill="none" stroke="BLACK" d="M2201.16,-389.453C2206.36,-375.377 2215.2,-357.564 2229,-347 2233.16,-343.818 2257.81,-336.986 2292.65,-328.488"/>
<polygon fill="BLACK" stroke="BLACK" points="2293.84,-331.801 2302.73,-326.048 2292.19,-324.997 2293.84,-331.801"/>
<text text-anchor="start" x="2229" y="-351.8" font-family="Times,serif" font-size="14.00"> </text>
<text text-anchor="start" x="2233" y="-351.8" font-family="Times,serif" font-size="10.00" fill="#336633">OBO:GENO_0000382</text>
<text text-anchor="start" x="2329" y="-351.8" font-family="Times,serif" font-size="14.00"> </text>
</g>
<!-- node15&#45;&gt;node16 -->
<g id="edge11" class="edge"><title>node15&#45;&gt;node16</title>
<path fill="none" stroke="BLACK" d="M2195,-389.464C2195,-338.676 2195,-209.136 2195,-149.241"/>
<polygon fill="BLACK" stroke="BLACK" points="2198.5,-149.238 2195,-139.238 2191.5,-149.238 2198.5,-149.238"/>
<text text-anchor="start" x="2195" y="-256.8" font-family="Times,serif" font-size="14.00"> </text>
<text text-anchor="start" x="2199" y="-256.8" font-family="Times,serif" font-size="10.00" fill="#336633">OBO:RO_0002162</text>
<text text-anchor="start" x="2281" y="-256.8" font-family="Times,serif" font-size="14.00"> </text>
</g>
<!-- node15&#45;&gt;node17 -->
<g id="edge12" class="edge"><title>node15&#45;&gt;node17</title>
<path fill="none" stroke="BLACK" d="M2265.12,-389.493C2287.29,-381.896 2311.59,-372.553 2333,-362 2343.95,-356.605 2344.36,-350.666 2356,-347 2473.91,-309.862 2791.41,-356.205 2912,-329 2950.91,-320.222 2992.14,-301.839 3022.59,-286.325"/>
<polygon fill="BLACK" stroke="BLACK" points="3024.4,-289.325 3031.67,-281.616 3021.18,-283.11 3024.4,-289.325"/>
<text text-anchor="start" x="2356" y="-351.8" font-family="Times,serif" font-size="14.00"> </text>
<text text-anchor="start" x="2360" y="-351.8" font-family="Times,serif" font-size="10.00" fill="#336633">OBO:GENO_0000840</text>
<text text-anchor="start" x="2456" y="-351.8" font-family="Times,serif" font-size="14.00"> </text>
</g>
<!-- node19 -->
<g id="node19" class="node"><title>node19</title>
<polygon fill="grey" stroke="none" points="1302,-257.5 1302,-276.5 1529,-276.5 1529,-257.5 1302,-257.5"/>
<text text-anchor="start" x="1344.5" y="-264.3" font-family="DejaVu Sans" font-weight="bold" font-size="14.00">mosaic_genotype</text>
<g id="a_node19_20"><a xlink:href="https://monarchinitiative.org/mosaic_genotype" xlink:title="&lt;TABLE&gt;">
<polygon fill="#eeeeee" stroke="none" points="1302,-242.5 1302,-257.5 1529,-257.5 1529,-242.5 1302,-242.5"/>
<text text-anchor="start" x="1304" y="-247.5" font-family="DejaVu Sans" font-size="10.00" fill="#6666ff">https://monarchinitiative.org/mosaic_genotype</text>
</a>
</g>
<polygon fill="none" stroke="#666666" points="1300.5,-241.5 1300.5,-277.5 1529.5,-277.5 1529.5,-241.5 1300.5,-241.5"/>
</g>
<!-- node15&#45;&gt;node19 -->
<g id="edge18" class="edge"><title>node15&#45;&gt;node19</title>
<path fill="none" stroke="BLACK" d="M2031.78,-389.495C2006.73,-386.298 1981.18,-383.049 1957,-380 1774.38,-356.968 1721.7,-383.858 1546,-329 1514.25,-319.088 1481.08,-301.659 1456.06,-286.863"/>
<polygon fill="BLACK" stroke="BLACK" points="1457.6,-283.705 1447.23,-281.549 1453.99,-289.704 1457.6,-283.705"/>
<text text-anchor="start" x="1693" y="-351.8" font-family="Times,serif" font-size="14.00"> </text>
<text text-anchor="start" x="1697" y="-351.8" font-family="Times,serif" font-size="10.00" fill="#336633">rdf:type</text>
<text text-anchor="start" x="1730" y="-351.8" font-family="Times,serif" font-size="14.00"> </text>
</g>
<!-- node11 -->
<g id="node22" class="node"><title>node11</title>
<polygon fill="grey" stroke="none" points="1565,-304.5 1565,-323.5 2150,-323.5 2150,-304.5 1565,-304.5"/>
<text text-anchor="start" x="1567" y="-311.3" font-family="DejaVu Sans" font-weight="bold" font-size="14.00">&quot;NM_000090.3(COL3A1):c.[=/3426_3452del27] (p.Gly1143_Asp1151del)&quot;</text>
<g id="a_node22_21"><a xlink:href="http://www.ncbi.nlm.nih.gov/clinvar/variation/107154" xlink:title="&lt;TABLE&gt;">
<polygon fill="#eeeeee" stroke="none" points="1565,-289.5 1565,-304.5 2150,-304.5 2150,-289.5 1565,-289.5"/>
<text text-anchor="start" x="1734" y="-294.5" font-family="DejaVu Sans" font-size="10.00" fill="#6666ff">http://www.ncbi.nlm.nih.gov/clinvar/variation/107154</text>
</a>
</g>
<text text-anchor="start" x="1567" y="-276.3" font-family="DejaVu Sans" font-size="14.00">oboInOwl:hasExactSynonym</text>
<text text-anchor="start" x="1822" y="-276.3" font-family="DejaVu Sans" font-size="14.00">&quot;LRG_3p1:p.Gly1143_Asp1151del&quot;</text>
<text text-anchor="start" x="1567" y="-257.3" font-family="DejaVu Sans" font-size="14.00">oboInOwl:hasExactSynonym</text>
<text text-anchor="start" x="1822" y="-257.3" font-family="DejaVu Sans" font-size="14.00">&quot;LRG_3t1:c.[=/3426_3452del27]&quot;</text>
<text text-anchor="start" x="1567" y="-238.3" font-family="DejaVu Sans" font-size="14.00">oboInOwl:hasExactSynonym</text>
<text text-anchor="start" x="1822" y="-238.3" font-family="DejaVu Sans" font-size="14.00">&quot;NM_000090.3:c.3426&#45;3452del&quot;</text>
<text text-anchor="start" x="1567" y="-219.3" font-family="DejaVu Sans" font-size="14.00">oboInOwl:hasExactSynonym</text>
<text text-anchor="start" x="1822" y="-219.3" font-family="DejaVu Sans" font-size="14.00">&quot;NM_000090.3:c.[=/3426_3452del27]&quot;</text>
<text text-anchor="start" x="1567" y="-200.3" font-family="DejaVu Sans" font-size="14.00">oboInOwl:hasExactSynonym</text>
<text text-anchor="start" x="1822" y="-200.3" font-family="DejaVu Sans" font-size="14.00">&quot;NP_000081.1:p.Gly1143_Asp1151del&quot;</text>
<polygon fill="none" stroke="#666666" points="1563.5,-194 1563.5,-325 2150.5,-325 2150.5,-194 1563.5,-194"/>
</g>
<!-- node15&#45;&gt;node11 -->
<g id="edge23" class="edge"><title>node15&#45;&gt;node11</title>
<path fill="none" stroke="BLACK" d="M2142.52,-389.485C2122,-381.123 2098.32,-371.294 2077,-362 2056.08,-352.881 2034.15,-343.068 2012.57,-333.266"/>
<polygon fill="BLACK" stroke="BLACK" points="2013.9,-330.026 2003.35,-329.068 2011,-336.397 2013.9,-330.026"/>
<text text-anchor="start" x="2077" y="-351.8" font-family="Times,serif" font-size="14.00"> </text>
<text text-anchor="start" x="2081" y="-351.8" font-family="Times,serif" font-size="10.00" fill="#336633">OBO:GENO_0000382</text>
<text text-anchor="start" x="2177" y="-351.8" font-family="Times,serif" font-size="14.00"> </text>
</g>
<!-- node11&#45;&gt;node12 -->
<g id="edge26" class="edge"><title>node11&#45;&gt;node12</title>
<path fill="none" stroke="BLACK" d="M2095.91,-189.966C2142.47,-177.952 2191.08,-166.33 2237,-157 2287.76,-146.687 2344.3,-138.198 2393,-131.804"/>
<polygon fill="BLACK" stroke="BLACK" points="2393.48,-135.27 2402.95,-130.512 2392.58,-128.329 2393.48,-135.27"/>
<text text-anchor="start" x="2237" y="-161.8" font-family="Times,serif" font-size="14.00"> </text>
<text text-anchor="start" x="2241" y="-161.8" font-family="Times,serif" font-size="10.00" fill="#336633">rdf:type</text>
<text text-anchor="start" x="2274" y="-161.8" font-family="Times,serif" font-size="14.00"> </text>
</g>
<!-- node11&#45;&gt;node16 -->
<g id="edge25" class="edge"><title>node11&#45;&gt;node16</title>
<path fill="none" stroke="BLACK" d="M1951.12,-189.92C1971.16,-177.564 1992.71,-165.827 2014,-157 2030.16,-150.299 2047.63,-144.685 2065.12,-139.998"/>
<polygon fill="BLACK" stroke="BLACK" points="2066.02,-143.38 2074.83,-137.489 2064.27,-136.602 2066.02,-143.38"/>
<text text-anchor="start" x="2014" y="-161.8" font-family="Times,serif" font-size="14.00"> </text>
<text text-anchor="start" x="2018" y="-161.8" font-family="Times,serif" font-size="10.00" fill="#336633">OBO:RO_0002162</text>
<text text-anchor="start" x="2100" y="-161.8" font-family="Times,serif" font-size="14.00"> </text>
</g>
<!-- node11&#45;&gt;node20 -->
<g id="edge24" class="edge"><title>node11&#45;&gt;node20</title>
<path fill="none" stroke="BLACK" d="M1864.32,-189.896C1865.85,-175.565 1867.39,-161.143 1868.69,-149.016"/>
<polygon fill="BLACK" stroke="BLACK" points="1872.18,-149.326 1869.76,-139.011 1865.21,-148.582 1872.18,-149.326"/>
<text text-anchor="start" x="1868" y="-161.8" font-family="Times,serif" font-size="14.00"> </text>
<text text-anchor="start" x="1872" y="-161.8" font-family="Times,serif" font-size="10.00" fill="#336633">OBO:BFO_0000050</text>
<text text-anchor="start" x="1959" y="-161.8" font-family="Times,serif" font-size="14.00"> </text>
</g>
</g>
</svg>
