<?xml version="1.0" encoding="UTF-8" standalone="no"?>
<!DOCTYPE svg PUBLIC "-//W3C//DTD SVG 1.1//EN"
 "http://www.w3.org/Graphics/SVG/1.1/DTD/svg11.dtd">
<!-- Generated by graphviz version 2.38.0 (20140413.2041)
 -->
<!-- Title: %3 Pages: 1 -->
<svg width="5037pt" height="546pt"
 viewBox="0.00 0.00 5036.50 546.00" xmlns="http://www.w3.org/2000/svg" xmlns:xlink="http://www.w3.org/1999/xlink">
<g id="graph0" class="graph" transform="scale(1 1) rotate(0) translate(4 542)">
<title>%3</title>
<polygon fill="white" stroke="none" points="-4,4 -4,-542 5032.5,-542 5032.5,4 -4,4"/>
<!-- node0 -->
<g id="node1" class="node"><title>node0</title>
<polygon fill="grey" stroke="none" points="1215.5,-381 1215.5,-400 1557.5,-400 1557.5,-381 1215.5,-381"/>
<text text-anchor="start" x="1273.5" y="-387.8" font-family="DejaVu Sans" font-weight="bold" font-size="14.00">&quot;ClinVarAssertion_1540968&quot;</text>
<g id="a_node1_0"><a xlink:href="https://monarchinitiative.org/.well-known/genid/b13b11feeac6001ef4e1" xlink:title="&lt;TABLE&gt;">
<polygon fill="#eeeeee" stroke="none" points="1215.5,-366 1215.5,-381 1557.5,-381 1557.5,-366 1215.5,-366"/>
<text text-anchor="start" x="1217.5" y="-371" font-family="DejaVu Sans" font-size="10.00" fill="#6666ff">https://monarchinitiative.org/.well&#45;known/genid/b13b11feeac6001ef4e1</text>
</a>
</g>
<text text-anchor="start" x="1217.5" y="-352.8" font-family="DejaVu Sans" font-size="14.00">OBO:SEPIO_0000021</text>
<text text-anchor="start" x="1395.5" y="-352.8" font-family="DejaVu Sans" font-size="14.00">&quot;2017&#45;04&#45;04&quot;</text>
<text text-anchor="start" x="1217.5" y="-333.8" font-family="DejaVu Sans" font-size="14.00">dc:identifier</text>
<text text-anchor="start" x="1395.5" y="-333.8" font-family="DejaVu Sans" font-size="14.00">&quot;SCV000790664.1&quot;</text>
<polygon fill="none" stroke="#666666" points="1214.5,-327 1214.5,-401 1558.5,-401 1558.5,-327 1214.5,-327"/>
</g>
<!-- node1 -->
<g id="node2" class="node"><title>node1</title>
<polygon fill="grey" stroke="none" points="624.5,-219.5 624.5,-238.5 842.5,-238.5 842.5,-219.5 624.5,-219.5"/>
<text text-anchor="start" x="671.5" y="-226.3" font-family="DejaVu Sans" font-weight="bold" font-size="14.00">SEPIO_0000001</text>
<g id="a_node2_1"><a xlink:href="http://purl.obolibrary.org/obo/SEPIO_0000001" xlink:title="&lt;TABLE&gt;">
<polygon fill="#eeeeee" stroke="none" points="624.5,-204.5 624.5,-219.5 842.5,-219.5 842.5,-204.5 624.5,-204.5"/>
<text text-anchor="start" x="626.5" y="-209.5" font-family="DejaVu Sans" font-size="10.00" fill="#6666ff">http://purl.obolibrary.org/obo/SEPIO_0000001</text>
</a>
</g>
<polygon fill="none" stroke="#666666" points="623.5,-203.5 623.5,-239.5 843.5,-239.5 843.5,-203.5 623.5,-203.5"/>
</g>
<!-- node0&#45;&gt;node1 -->
<g id="edge1" class="edge"><title>node0&#45;&gt;node1</title>
<path fill="none" stroke="BLACK" d="M1206.37,-326.701C1104.67,-305.863 975.308,-278.785 860.5,-253 850.44,-250.741 839.948,-248.322 829.493,-245.871"/>
<polygon fill="BLACK" stroke="BLACK" points="830.033,-242.403 819.497,-243.516 828.428,-249.216 830.033,-242.403"/>
<text text-anchor="start" x="1005.5" y="-275.8" font-family="Times,serif" font-size="14.00"> </text>
<text text-anchor="start" x="1009.5" y="-275.8" font-family="Times,serif" font-size="10.00" fill="#336633">rdf:type</text>
<text text-anchor="start" x="1042.5" y="-275.8" font-family="Times,serif" font-size="14.00"> </text>
</g>
<!-- node7 -->
<g id="node8" class="node"><title>node7</title>
<polygon fill="grey" stroke="none" points="879.5,-228.5 879.5,-247.5 1894.5,-247.5 1894.5,-228.5 879.5,-228.5"/>
<text text-anchor="start" x="1085" y="-235.3" font-family="DejaVu Sans" font-weight="bold" font-size="14.00">&quot;Counsyl Autosomal Recessive and X&#45;Linked Classification Criteria (2018)&quot;</text>
<g id="a_node8_2"><a xlink:href="https://monarchinitiative.org/.well-known/genid/bc99926ac85cd459a025" xlink:title="&lt;TABLE&gt;">
<polygon fill="#eeeeee" stroke="none" points="879.5,-213.5 879.5,-228.5 1894.5,-228.5 1894.5,-213.5 879.5,-213.5"/>
<text text-anchor="start" x="1215.5" y="-218.5" font-family="DejaVu Sans" font-size="10.00" fill="#6666ff">https://monarchinitiative.org/.well&#45;known/genid/bc99926ac85cd459a025</text>
</a>
</g>
<text text-anchor="start" x="881.5" y="-200.3" font-family="DejaVu Sans" font-size="14.00">OBO:ERO_0000480</text>
<text text-anchor="start" x="1023.5" y="-200.3" font-family="DejaVu Sans" font-size="14.00">&quot;https://submit.ncbi.nlm.nih.gov/ft/byid/3ys2zqtz/counsyl_autosomal_recessive_and_x&#45;linked_classification_criteria_2018_.pdf&quot;</text>
<polygon fill="none" stroke="#666666" points="878,-194 878,-249 1895,-249 1895,-194 878,-194"/>
</g>
<!-- node0&#45;&gt;node7 -->
<g id="edge23" class="edge"><title>node0&#45;&gt;node7</title>
<path fill="none" stroke="BLACK" d="M1386.5,-322.738C1386.5,-304.215 1386.5,-282.266 1386.5,-263.637"/>
<polygon fill="BLACK" stroke="BLACK" points="1390,-263.388 1386.5,-253.388 1383,-263.388 1390,-263.388"/>
<text text-anchor="start" x="1386.5" y="-275.8" font-family="Times,serif" font-size="14.00"> </text>
<text text-anchor="start" x="1390.5" y="-275.8" font-family="Times,serif" font-size="10.00" fill="#336633">OBO:SEPIO_0000041</text>
<text text-anchor="start" x="1484.5" y="-275.8" font-family="Times,serif" font-size="14.00"> </text>
</g>
<!-- node13 -->
<g id="node14" class="node"><title>node13</title>
<polygon fill="grey" stroke="none" points="245.5,-219.5 245.5,-238.5 588.5,-238.5 588.5,-219.5 245.5,-219.5"/>
<text text-anchor="start" x="274.5" y="-226.3" font-family="DejaVu Sans" font-weight="bold" font-size="14.00">&quot;b0c2b8f4b93e10f01eba_evidence&quot;</text>
<g id="a_node14_3"><a xlink:href="https://monarchinitiative.org/.well-known/genid/bec67224cccaa828d90f" xlink:title="&lt;TABLE&gt;">
<polygon fill="#eeeeee" stroke="none" points="245.5,-204.5 245.5,-219.5 588.5,-219.5 588.5,-204.5 245.5,-204.5"/>
<text text-anchor="start" x="247.5" y="-209.5" font-family="DejaVu Sans" font-size="10.00" fill="#6666ff">https://monarchinitiative.org/.well&#45;known/genid/bec67224cccaa828d90f</text>
</a>
</g>
<polygon fill="none" stroke="#666666" points="244,-203.5 244,-239.5 589,-239.5 589,-203.5 244,-203.5"/>
</g>
<!-- node0&#45;&gt;node13 -->
<g id="edge20" class="edge"><title>node0&#45;&gt;node13</title>
<path fill="none" stroke="BLACK" d="M1206.28,-338.577C1048.1,-316.903 811.878,-283.963 606.5,-253 589.931,-250.502 572.561,-247.812 555.34,-245.101"/>
<polygon fill="BLACK" stroke="BLACK" points="555.649,-241.607 545.225,-243.504 554.557,-248.521 555.649,-241.607"/>
<text text-anchor="start" x="821.5" y="-275.8" font-family="Times,serif" font-size="14.00"> </text>
<text text-anchor="start" x="825.5" y="-275.8" font-family="Times,serif" font-size="10.00" fill="#336633">OBO:SEPIO_0000111</text>
<text text-anchor="start" x="919.5" y="-275.8" font-family="Times,serif" font-size="14.00"> </text>
</g>
<!-- node14 -->
<g id="node15" class="node"><title>node14</title>
<polygon fill="grey" stroke="none" points="1930.5,-219.5 1930.5,-238.5 2191.5,-238.5 2191.5,-219.5 1930.5,-219.5"/>
<text text-anchor="start" x="2021.5" y="-226.3" font-family="DejaVu Sans" font-weight="bold" font-size="14.00">&quot;Counsyl&quot;</text>
<g id="a_node15_4"><a xlink:href="http://www.ncbi.nlm.nih.gov/clinvar/submitters/320494" xlink:title="&lt;TABLE&gt;">
<polygon fill="#eeeeee" stroke="none" points="1930.5,-204.5 1930.5,-219.5 2191.5,-219.5 2191.5,-204.5 1930.5,-204.5"/>
<text text-anchor="start" x="1932.5" y="-209.5" font-family="DejaVu Sans" font-size="10.00" fill="#6666ff">http://www.ncbi.nlm.nih.gov/clinvar/submitters/320494</text>
</a>
</g>
<polygon fill="none" stroke="#666666" points="1929,-203.5 1929,-239.5 2192,-239.5 2192,-203.5 1929,-203.5"/>
</g>
<!-- node0&#45;&gt;node14 -->
<g id="edge11" class="edge"><title>node0&#45;&gt;node14</title>
<path fill="none" stroke="BLACK" d="M1566.68,-325.441C1688.51,-300.045 1845.53,-267.313 1949.43,-245.654"/>
<polygon fill="BLACK" stroke="BLACK" points="1950.24,-249.06 1959.32,-243.593 1948.81,-242.207 1950.24,-249.06"/>
<text text-anchor="start" x="1823.5" y="-275.8" font-family="Times,serif" font-size="14.00"> </text>
<text text-anchor="start" x="1827.5" y="-275.8" font-family="Times,serif" font-size="10.00" fill="#336633">OBO:SEPIO_0000018</text>
<text text-anchor="start" x="1921.5" y="-275.8" font-family="Times,serif" font-size="14.00"> </text>
</g>
<!-- node2 -->
<g id="node3" class="node"><title>node2</title>
<polygon fill="grey" stroke="none" points="3329.5,-400 3329.5,-419 3772.5,-419 3772.5,-400 3329.5,-400"/>
<text text-anchor="start" x="3396" y="-406.8" font-family="DejaVu Sans" font-weight="bold" font-size="14.00">&quot;NM_000182.4(HADHA):c.2146+1G&gt;A&quot;</text>
<g id="a_node3_5"><a xlink:href="http://www.ncbi.nlm.nih.gov/clinvar/variation/192079" xlink:title="&lt;TABLE&gt;">
<polygon fill="#eeeeee" stroke="none" points="3329.5,-385 3329.5,-400 3772.5,-400 3772.5,-385 3329.5,-385"/>
<text text-anchor="start" x="3427.5" y="-390" font-family="DejaVu Sans" font-size="10.00" fill="#6666ff">http://www.ncbi.nlm.nih.gov/clinvar/variation/192079</text>
</a>
</g>
<text text-anchor="start" x="3331.5" y="-371.8" font-family="DejaVu Sans" font-size="14.00">oboInOwl:hasExactSynonym</text>
<text text-anchor="start" x="3533.5" y="-371.8" font-family="DejaVu Sans" font-size="14.00">&quot;NC_000002.11:g.26414351C&gt;T&quot;</text>
<text text-anchor="start" x="3331.5" y="-352.8" font-family="DejaVu Sans" font-size="14.00">oboInOwl:hasExactSynonym</text>
<text text-anchor="start" x="3533.5" y="-352.8" font-family="DejaVu Sans" font-size="14.00">&quot;NC_000002.12:g.26191482C&gt;T&quot;</text>
<text text-anchor="start" x="3331.5" y="-333.8" font-family="DejaVu Sans" font-size="14.00">oboInOwl:hasExactSynonym</text>
<text text-anchor="start" x="3533.5" y="-333.8" font-family="DejaVu Sans" font-size="14.00">&quot;NG_007121.1:g.58139G&gt;A&quot;</text>
<text text-anchor="start" x="3331.5" y="-314.8" font-family="DejaVu Sans" font-size="14.00">oboInOwl:hasExactSynonym</text>
<text text-anchor="start" x="3533.5" y="-314.8" font-family="DejaVu Sans" font-size="14.00">&quot;NM_000182.4:c.2146+1G&gt;A&quot;</text>
<polygon fill="none" stroke="#666666" points="3328,-308 3328,-420 3773,-420 3773,-308 3328,-308"/>
</g>
<!-- node3 -->
<g id="node4" class="node"><title>node3</title>
<polygon fill="grey" stroke="none" points="3439.5,-219.5 3439.5,-238.5 3661.5,-238.5 3661.5,-219.5 3439.5,-219.5"/>
<text text-anchor="start" x="3484" y="-226.3" font-family="DejaVu Sans" font-weight="bold" font-size="14.00">NCBITaxon_9606</text>
<g id="a_node4_6"><a xlink:href="http://purl.obolibrary.org/obo/NCBITaxon_9606" xlink:title="&lt;TABLE&gt;">
<polygon fill="#eeeeee" stroke="none" points="3439.5,-204.5 3439.5,-219.5 3661.5,-219.5 3661.5,-204.5 3439.5,-204.5"/>
<text text-anchor="start" x="3441.5" y="-209.5" font-family="DejaVu Sans" font-size="10.00" fill="#6666ff">http://purl.obolibrary.org/obo/NCBITaxon_9606</text>
</a>
</g>
<polygon fill="none" stroke="#666666" points="3438.5,-203.5 3438.5,-239.5 3662.5,-239.5 3662.5,-203.5 3438.5,-203.5"/>
</g>
<!-- node2&#45;&gt;node3 -->
<g id="edge2" class="edge"><title>node2&#45;&gt;node3</title>
<path fill="none" stroke="BLACK" d="M3550.5,-303.823C3550.5,-286.563 3550.5,-268.389 3550.5,-253.609"/>
<polygon fill="BLACK" stroke="BLACK" points="3554,-253.509 3550.5,-243.509 3547,-253.509 3554,-253.509"/>
<text text-anchor="start" x="3550.5" y="-275.8" font-family="Times,serif" font-size="14.00"> </text>
<text text-anchor="start" x="3554.5" y="-275.8" font-family="Times,serif" font-size="10.00" fill="#336633">OBO:RO_0002162</text>
<text text-anchor="start" x="3636.5" y="-275.8" font-family="Times,serif" font-size="14.00"> </text>
</g>
<!-- node9 -->
<g id="node10" class="node"><title>node9</title>
<polygon fill="grey" stroke="none" points="2599.5,-219.5 2599.5,-238.5 2803.5,-238.5 2803.5,-219.5 2599.5,-219.5"/>
<text text-anchor="start" x="2652" y="-226.3" font-family="DejaVu Sans" font-weight="bold" font-size="14.00">SO_0001483</text>
<g id="a_node10_7"><a xlink:href="http://purl.obolibrary.org/obo/SO_0001483" xlink:title="&lt;TABLE&gt;">
<polygon fill="#eeeeee" stroke="none" points="2599.5,-204.5 2599.5,-219.5 2803.5,-219.5 2803.5,-204.5 2599.5,-204.5"/>
<text text-anchor="start" x="2601.5" y="-209.5" font-family="DejaVu Sans" font-size="10.00" fill="#6666ff">http://purl.obolibrary.org/obo/SO_0001483</text>
</a>
</g>
<polygon fill="none" stroke="#666666" points="2598.5,-203.5 2598.5,-239.5 2804.5,-239.5 2804.5,-203.5 2598.5,-203.5"/>
</g>
<!-- node2&#45;&gt;node9 -->
<g id="edge6" class="edge"><title>node2&#45;&gt;node9</title>
<path fill="none" stroke="BLACK" d="M3319.65,-334.125C3175.75,-314.655 2987.11,-286.455 2821.5,-253 2811.09,-250.898 2800.24,-248.472 2789.49,-245.925"/>
<polygon fill="BLACK" stroke="BLACK" points="2790.21,-242.499 2779.67,-243.558 2788.57,-249.304 2790.21,-242.499"/>
<text text-anchor="start" x="3000.5" y="-275.8" font-family="Times,serif" font-size="14.00"> </text>
<text text-anchor="start" x="3004.5" y="-275.8" font-family="Times,serif" font-size="10.00" fill="#336633">rdf:type</text>
<text text-anchor="start" x="3037.5" y="-275.8" font-family="Times,serif" font-size="14.00"> </text>
</g>
<!-- node17 -->
<g id="node17" class="node"><title>node17</title>
<polygon fill="grey" stroke="none" points="2840.5,-219.5 2840.5,-238.5 3403.5,-238.5 3403.5,-219.5 2840.5,-219.5"/>
<text text-anchor="start" x="2842.5" y="-226.3" font-family="DejaVu Sans" font-weight="bold" font-size="14.00">http://www.ncbi.nlm.nih.gov/projects/SNP/snp_ref.cgi?rs=794727219</text>
<g id="a_node17_8"><a xlink:href="http://www.ncbi.nlm.nih.gov/projects/SNP/snp_ref.cgi?rs=794727219" xlink:title="&lt;TABLE&gt;">
<polygon fill="#eeeeee" stroke="none" points="2840.5,-204.5 2840.5,-219.5 3403.5,-219.5 3403.5,-204.5 2840.5,-204.5"/>
<text text-anchor="start" x="2959.5" y="-209.5" font-family="DejaVu Sans" font-size="10.00" fill="#6666ff">http://www.ncbi.nlm.nih.gov/projects/SNP/snp_ref.cgi?rs=794727219</text>
</a>
</g>
<polygon fill="none" stroke="#666666" points="2839,-203.5 2839,-239.5 3404,-239.5 3404,-203.5 2839,-203.5"/>
</g>
<!-- node2&#45;&gt;node17 -->
<g id="edge13" class="edge"><title>node2&#45;&gt;node17</title>
<path fill="none" stroke="BLACK" d="M3370.12,-303.924C3308.81,-283.845 3243.68,-262.515 3195.47,-246.725"/>
<polygon fill="BLACK" stroke="BLACK" points="3196.34,-243.329 3185.75,-243.543 3194.17,-249.981 3196.34,-243.329"/>
<text text-anchor="start" x="3310.5" y="-275.8" font-family="Times,serif" font-size="14.00"> </text>
<text text-anchor="start" x="3314.5" y="-275.8" font-family="Times,serif" font-size="10.00" fill="#336633">owl:sameAs</text>
<text text-anchor="start" x="3365.5" y="-275.8" font-family="Times,serif" font-size="14.00"> </text>
</g>
<!-- node16 -->
<g id="node18" class="node"><title>node16</title>
<polygon fill="grey" stroke="none" points="4089.5,-219.5 4089.5,-238.5 4571.5,-238.5 4571.5,-219.5 4089.5,-219.5"/>
<text text-anchor="start" x="4091.5" y="-226.3" font-family="DejaVu Sans" font-weight="bold" font-size="14.00">&quot;Long&#45;chain 3&#45;hydroxyacyl&#45;CoA dehydrogenase deficiency&quot;</text>
<g id="a_node18_9"><a xlink:href="http://omim.org/entry/609016" xlink:title="&lt;TABLE&gt;">
<polygon fill="#eeeeee" stroke="none" points="4089.5,-204.5 4089.5,-219.5 4571.5,-219.5 4571.5,-204.5 4089.5,-204.5"/>
<text text-anchor="start" x="4259.5" y="-209.5" font-family="DejaVu Sans" font-size="10.00" fill="#6666ff">http://omim.org/entry/609016</text>
</a>
</g>
<polygon fill="none" stroke="#666666" points="4088.5,-203.5 4088.5,-239.5 4572.5,-239.5 4572.5,-203.5 4088.5,-203.5"/>
</g>
<!-- node2&#45;&gt;node16 -->
<g id="edge15" class="edge"><title>node2&#45;&gt;node16</title>
<path fill="none" stroke="BLACK" d="M3720.7,-303.983C3733.99,-298.261 3747.06,-292.248 3759.5,-286 3770.41,-280.523 3770.92,-274.84 3782.5,-271 3843.58,-250.755 4007.41,-258.765 4071.5,-253 4098.11,-250.607 4126.21,-247.696 4153.7,-244.634"/>
<polygon fill="BLACK" stroke="BLACK" points="4154.25,-248.095 4163.8,-243.5 4153.47,-241.138 4154.25,-248.095"/>
<text text-anchor="start" x="3782.5" y="-275.8" font-family="Times,serif" font-size="14.00"> </text>
<text text-anchor="start" x="3786.5" y="-275.8" font-family="Times,serif" font-size="10.00" fill="#336633">OBO:GENO_0000841</text>
<text text-anchor="start" x="3882.5" y="-275.8" font-family="Times,serif" font-size="14.00"> </text>
</g>
<!-- node19 -->
<g id="node20" class="node"><title>node19</title>
<polygon fill="grey" stroke="none" points="3697.5,-219.5 3697.5,-238.5 4053.5,-238.5 4053.5,-219.5 3697.5,-219.5"/>
<text text-anchor="start" x="3699.5" y="-226.3" font-family="DejaVu Sans" font-weight="bold" font-size="14.00">https://www.ncbi.nlm.nih.gov/gene/150946</text>
<g id="a_node20_10"><a xlink:href="https://www.ncbi.nlm.nih.gov/gene/150946" xlink:title="&lt;TABLE&gt;">
<polygon fill="#eeeeee" stroke="none" points="3697.5,-204.5 3697.5,-219.5 4053.5,-219.5 4053.5,-204.5 3697.5,-204.5"/>
<text text-anchor="start" x="3775" y="-209.5" font-family="DejaVu Sans" font-size="10.00" fill="#6666ff">https://www.ncbi.nlm.nih.gov/gene/150946</text>
</a>
</g>
<polygon fill="none" stroke="#666666" points="3696.5,-203.5 3696.5,-239.5 4054.5,-239.5 4054.5,-203.5 3696.5,-203.5"/>
</g>
<!-- node2&#45;&gt;node19 -->
<g id="edge18" class="edge"><title>node2&#45;&gt;node19</title>
<path fill="none" stroke="BLACK" d="M3621.08,-303.987C3641.06,-287.701 3658.92,-273.71 3664.5,-271 3685.58,-260.755 3708.9,-252.624 3732.13,-246.184"/>
<polygon fill="BLACK" stroke="BLACK" points="3733.31,-249.49 3742.07,-243.527 3731.5,-242.728 3733.31,-249.49"/>
<text text-anchor="start" x="3664.5" y="-275.8" font-family="Times,serif" font-size="14.00"> </text>
<text text-anchor="start" x="3668.5" y="-275.8" font-family="Times,serif" font-size="10.00" fill="#336633">OBO:BFO_0000050</text>
<text text-anchor="start" x="3755.5" y="-275.8" font-family="Times,serif" font-size="14.00"> </text>
</g>
<!-- node21 -->
<g id="node22" class="node"><title>node21</title>
<polygon fill="grey" stroke="none" points="2227.5,-219.5 2227.5,-238.5 2563.5,-238.5 2563.5,-219.5 2227.5,-219.5"/>
<text text-anchor="start" x="2229.5" y="-226.3" font-family="DejaVu Sans" font-weight="bold" font-size="14.00">https://www.ncbi.nlm.nih.gov/gene/3030</text>
<g id="a_node22_11"><a xlink:href="https://www.ncbi.nlm.nih.gov/gene/3030" xlink:title="&lt;TABLE&gt;">
<polygon fill="#eeeeee" stroke="none" points="2227.5,-204.5 2227.5,-219.5 2563.5,-219.5 2563.5,-204.5 2227.5,-204.5"/>
<text text-anchor="start" x="2301" y="-209.5" font-family="DejaVu Sans" font-size="10.00" fill="#6666ff">https://www.ncbi.nlm.nih.gov/gene/3030</text>
</a>
</g>
<polygon fill="none" stroke="#666666" points="2226.5,-203.5 2226.5,-239.5 2564.5,-239.5 2564.5,-203.5 2226.5,-203.5"/>
</g>
<!-- node2&#45;&gt;node21 -->
<g id="edge21" class="edge"><title>node2&#45;&gt;node21</title>
<path fill="none" stroke="BLACK" d="M3319.64,-341.183C3174.01,-326.859 2982.06,-306.949 2812.5,-286 2709.57,-273.283 2684.01,-268.725 2581.5,-253 2565.28,-250.511 2548.27,-247.827 2531.41,-245.12"/>
<polygon fill="BLACK" stroke="BLACK" points="2531.94,-241.659 2521.51,-243.524 2530.83,-248.57 2531.94,-241.659"/>
<text text-anchor="start" x="2812.5" y="-275.8" font-family="Times,serif" font-size="14.00"> </text>
<text text-anchor="start" x="2816.5" y="-275.8" font-family="Times,serif" font-size="10.00" fill="#336633">OBO:GENO_0000418</text>
<text text-anchor="start" x="2912.5" y="-275.8" font-family="Times,serif" font-size="14.00"> </text>
</g>
<!-- node4 -->
<g id="node5" class="node"><title>node4</title>
<polygon fill="grey" stroke="none" points="9.5,-115 9.5,-134 354.5,-134 354.5,-115 9.5,-115"/>
<text text-anchor="start" x="13" y="-121.8" font-family="DejaVu Sans" font-weight="bold" font-size="14.00">&quot;_:bec67224cccaa828d90fSEPIO:0000067&quot;</text>
<g id="a_node5_12"><a xlink:href="https://monarchinitiative.org/.well-known/genid/bfcd925176aeb5112036" xlink:title="&lt;TABLE&gt;">
<polygon fill="#eeeeee" stroke="none" points="9.5,-100 9.5,-115 354.5,-115 354.5,-100 9.5,-100"/>
<text text-anchor="start" x="11.5" y="-105" font-family="DejaVu Sans" font-size="10.00" fill="#6666ff">https://monarchinitiative.org/.well&#45;known/genid/bfcd925176aeb5112036</text>
</a>
</g>
<polygon fill="none" stroke="#666666" points="8,-99 8,-135 355,-135 355,-99 8,-99"/>
</g>
<!-- node5 -->
<g id="node6" class="node"><title>node5</title>
<polygon fill="grey" stroke="none" points="72.5,-20 72.5,-39 290.5,-39 290.5,-20 72.5,-20"/>
<text text-anchor="start" x="119.5" y="-26.8" font-family="DejaVu Sans" font-weight="bold" font-size="14.00">SEPIO_0000067</text>
<g id="a_node6_13"><a xlink:href="http://purl.obolibrary.org/obo/SEPIO_0000067" xlink:title="&lt;TABLE&gt;">
<polygon fill="#eeeeee" stroke="none" points="72.5,-5 72.5,-20 290.5,-20 290.5,-5 72.5,-5"/>
<text text-anchor="start" x="74.5" y="-10" font-family="DejaVu Sans" font-size="10.00" fill="#6666ff">http://purl.obolibrary.org/obo/SEPIO_0000067</text>
</a>
</g>
<polygon fill="none" stroke="#666666" points="71.5,-4 71.5,-40 291.5,-40 291.5,-4 71.5,-4"/>
</g>
<!-- node4&#45;&gt;node5 -->
<g id="edge3" class="edge"><title>node4&#45;&gt;node5</title>
<path fill="none" stroke="BLACK" d="M181.5,-94.8969C181.5,-82.8873 181.5,-67.6175 181.5,-54.242"/>
<polygon fill="BLACK" stroke="BLACK" points="185,-54.0196 181.5,-44.0196 178,-54.0197 185,-54.0196"/>
<text text-anchor="start" x="181.5" y="-66.8" font-family="Times,serif" font-size="14.00"> </text>
<text text-anchor="start" x="185.5" y="-66.8" font-family="Times,serif" font-size="10.00" fill="#336633">rdf:type</text>
<text text-anchor="start" x="218.5" y="-66.8" font-family="Times,serif" font-size="14.00"> </text>
</g>
<!-- node6 -->
<g id="node7" class="node"><title>node6</title>
<polygon fill="grey" stroke="none" points="3745.5,-504.5 3745.5,-523.5 4056.5,-523.5 4056.5,-504.5 3745.5,-504.5"/>
<text text-anchor="start" x="3761" y="-511.3" font-family="DejaVu Sans" font-weight="bold" font-size="14.00">MONARCH_b0c2b8f4b93e10f01eba</text>
<g id="a_node7_14"><a xlink:href="https://monarchinitiative.org/MONARCH_b0c2b8f4b93e10f01eba" xlink:title="&lt;TABLE&gt;">
<polygon fill="#eeeeee" stroke="none" points="3745.5,-489.5 3745.5,-504.5 4056.5,-504.5 4056.5,-489.5 3745.5,-489.5"/>
<text text-anchor="start" x="3747.5" y="-494.5" font-family="DejaVu Sans" font-size="10.00" fill="#6666ff">https://monarchinitiative.org/MONARCH_b0c2b8f4b93e10f01eba</text>
</a>
</g>
<polygon fill="none" stroke="#666666" points="3744,-488.5 3744,-524.5 4057,-524.5 4057,-488.5 3744,-488.5"/>
</g>
<!-- node6&#45;&gt;node0 -->
<g id="edge14" class="edge"><title>node6&#45;&gt;node0</title>
<path fill="none" stroke="BLACK" d="M3735.55,-496.281C3288,-471.269 2052.56,-402.224 1576.75,-375.632"/>
<polygon fill="BLACK" stroke="BLACK" points="1576.87,-372.134 1566.69,-375.07 1576.47,-379.123 1576.87,-372.134"/>
<text text-anchor="start" x="3016.5" y="-446.8" font-family="Times,serif" font-size="14.00"> </text>
<text text-anchor="start" x="3020.5" y="-446.8" font-family="Times,serif" font-size="10.00" fill="#336633">OBO:SEPIO_0000015</text>
<text text-anchor="start" x="3114.5" y="-446.8" font-family="Times,serif" font-size="14.00"> </text>
</g>
<!-- node6&#45;&gt;node2 -->
<g id="edge4" class="edge"><title>node6&#45;&gt;node2</title>
<path fill="none" stroke="BLACK" d="M3826.56,-484.411C3800.95,-476.528 3772.22,-467.035 3746.5,-457 3724.34,-448.354 3701.16,-438.361 3678.82,-428.215"/>
<polygon fill="BLACK" stroke="BLACK" points="3680.18,-424.992 3669.63,-424.016 3677.27,-431.358 3680.18,-424.992"/>
<text text-anchor="start" x="3746.5" y="-446.8" font-family="Times,serif" font-size="14.00"> </text>
<text text-anchor="start" x="3750.5" y="-446.8" font-family="Times,serif" font-size="10.00" fill="#336633">OBAN:association_has_subject</text>
<text text-anchor="start" x="3882.5" y="-446.8" font-family="Times,serif" font-size="14.00"> </text>
</g>
<!-- node10 -->
<g id="node11" class="node"><title>node10</title>
<polygon fill="grey" stroke="none" points="4064.5,-362 4064.5,-381 4307.5,-381 4307.5,-362 4064.5,-362"/>
<text text-anchor="start" x="4125.5" y="-368.8" font-family="DejaVu Sans" font-weight="bold" font-size="14.00">RCV000175394</text>
<g id="a_node11_15"><a xlink:href="http://www.ncbi.nlm.nih.gov/clinvar/RCV000175394" xlink:title="&lt;TABLE&gt;">
<polygon fill="#eeeeee" stroke="none" points="4064.5,-347 4064.5,-362 4307.5,-362 4307.5,-347 4064.5,-347"/>
<text text-anchor="start" x="4066.5" y="-352" font-family="DejaVu Sans" font-size="10.00" fill="#6666ff">http://www.ncbi.nlm.nih.gov/clinvar/RCV000175394</text>
</a>
</g>
<polygon fill="none" stroke="#666666" points="4063,-346 4063,-382 4308,-382 4308,-346 4063,-346"/>
</g>
<!-- node6&#45;&gt;node10 -->
<g id="edge7" class="edge"><title>node6&#45;&gt;node10</title>
<path fill="none" stroke="BLACK" d="M3943.17,-484.466C3993.96,-459.427 4078.75,-417.626 4133.38,-390.696"/>
<polygon fill="BLACK" stroke="BLACK" points="4135.12,-393.739 4142.54,-386.178 4132.02,-387.461 4135.12,-393.739"/>
<text text-anchor="start" x="4026.5" y="-446.8" font-family="Times,serif" font-size="14.00"> </text>
<text text-anchor="start" x="4030.5" y="-446.8" font-family="Times,serif" font-size="10.00" fill="#336633">oboInOwl:hasdbxref</text>
<text text-anchor="start" x="4115.5" y="-446.8" font-family="Times,serif" font-size="14.00"> </text>
</g>
<!-- node6&#45;&gt;node13 -->
<g id="edge9" class="edge"><title>node6&#45;&gt;node13</title>
<path fill="none" stroke="BLACK" d="M3735.97,-503.206C3174.65,-495.036 1355.35,-465.604 1095.5,-424 862.849,-386.75 598.071,-292.375 479.599,-247.258"/>
<polygon fill="BLACK" stroke="BLACK" points="480.549,-243.875 469.958,-243.573 478.049,-250.413 480.549,-243.875"/>
<text text-anchor="start" x="1095.5" y="-361.3" font-family="Times,serif" font-size="14.00"> </text>
<text text-anchor="start" x="1099.5" y="-361.3" font-family="Times,serif" font-size="10.00" fill="#336633">OBO:SEPIO_0000007</text>
<text text-anchor="start" x="1193.5" y="-361.3" font-family="Times,serif" font-size="14.00"> </text>
</g>
<!-- node15 -->
<g id="node16" class="node"><title>node15</title>
<polygon fill="grey" stroke="none" points="4343.5,-362 4343.5,-381 4497.5,-381 4497.5,-362 4343.5,-362"/>
<text text-anchor="start" x="4374.5" y="-368.8" font-family="DejaVu Sans" font-weight="bold" font-size="14.00">association</text>
<g id="a_node16_16"><a xlink:href="http://purl.org/oban/association" xlink:title="&lt;TABLE&gt;">
<polygon fill="#eeeeee" stroke="none" points="4343.5,-347 4343.5,-362 4497.5,-362 4497.5,-347 4343.5,-347"/>
<text text-anchor="start" x="4345.5" y="-352" font-family="DejaVu Sans" font-size="10.00" fill="#6666ff">http://purl.org/oban/association</text>
</a>
</g>
<polygon fill="none" stroke="#666666" points="4342.5,-346 4342.5,-382 4498.5,-382 4498.5,-346 4342.5,-346"/>
</g>
<!-- node6&#45;&gt;node15 -->
<g id="edge12" class="edge"><title>node6&#45;&gt;node15</title>
<path fill="none" stroke="BLACK" d="M4065.16,-487.941C4145.32,-475.885 4241.96,-456.059 4324.5,-424 4345.15,-415.978 4366.32,-403.506 4383.51,-392.092"/>
<polygon fill="BLACK" stroke="BLACK" points="4385.8,-394.763 4392.11,-386.248 4381.87,-388.973 4385.8,-394.763"/>
<text text-anchor="start" x="4269.5" y="-446.8" font-family="Times,serif" font-size="14.00"> </text>
<text text-anchor="start" x="4273.5" y="-446.8" font-family="Times,serif" font-size="10.00" fill="#336633">rdf:type</text>
<text text-anchor="start" x="4306.5" y="-446.8" font-family="Times,serif" font-size="14.00"> </text>
</g>
<!-- node6&#45;&gt;node16 -->
<g id="edge16" class="edge"><title>node6&#45;&gt;node16</title>
<path fill="none" stroke="BLACK" d="M3898.29,-484.251C3893.96,-438.043 3886.68,-330.442 3909.5,-304 3926.64,-284.138 4052.57,-261.437 4162.28,-245.046"/>
<polygon fill="BLACK" stroke="BLACK" points="4163.12,-248.459 4172.5,-243.53 4162.1,-241.535 4163.12,-248.459"/>
<text text-anchor="start" x="3909.5" y="-361.3" font-family="Times,serif" font-size="14.00"> </text>
<text text-anchor="start" x="3913.5" y="-361.3" font-family="Times,serif" font-size="10.00" fill="#336633">OBAN:association_has_object</text>
<text text-anchor="start" x="4041.5" y="-361.3" font-family="Times,serif" font-size="14.00"> </text>
</g>
<!-- node18 -->
<g id="node19" class="node"><title>node18</title>
<polygon fill="grey" stroke="none" points="4533.5,-362 4533.5,-381 4751.5,-381 4751.5,-362 4533.5,-362"/>
<text text-anchor="start" x="4581.5" y="-368.8" font-family="DejaVu Sans" font-weight="bold" font-size="14.00">GENO_0000841</text>
<g id="a_node19_17"><a xlink:href="http://purl.obolibrary.org/obo/GENO_0000841" xlink:title="&lt;TABLE&gt;">
<polygon fill="#eeeeee" stroke="none" points="4533.5,-347 4533.5,-362 4751.5,-362 4751.5,-347 4533.5,-347"/>
<text text-anchor="start" x="4535.5" y="-352" font-family="DejaVu Sans" font-size="10.00" fill="#6666ff">http://purl.obolibrary.org/obo/GENO_0000841</text>
</a>
</g>
<polygon fill="none" stroke="#666666" points="4532.5,-346 4532.5,-382 4752.5,-382 4752.5,-346 4532.5,-346"/>
</g>
<!-- node6&#45;&gt;node18 -->
<g id="edge17" class="edge"><title>node6&#45;&gt;node18</title>
<path fill="none" stroke="BLACK" d="M4065.21,-498.591C4190.91,-489.773 4367.15,-469.697 4515.5,-424 4542.88,-415.565 4571.97,-402.392 4595.39,-390.631"/>
<polygon fill="BLACK" stroke="BLACK" points="4597.08,-393.698 4604.4,-386.036 4593.9,-387.462 4597.08,-393.698"/>
<text text-anchor="start" x="4434.5" y="-446.8" font-family="Times,serif" font-size="14.00"> </text>
<text text-anchor="start" x="4438.5" y="-446.8" font-family="Times,serif" font-size="10.00" fill="#336633">OBAN:association_has_predicate</text>
<text text-anchor="start" x="4578.5" y="-446.8" font-family="Times,serif" font-size="14.00"> </text>
</g>
<!-- node8 -->
<g id="node9" class="node"><title>node8</title>
<polygon fill="grey" stroke="none" points="1277.5,-115 1277.5,-134 1495.5,-134 1495.5,-115 1277.5,-115"/>
<text text-anchor="start" x="1324.5" y="-121.8" font-family="DejaVu Sans" font-weight="bold" font-size="14.00">SEPIO_0000037</text>
<g id="a_node9_18"><a xlink:href="http://purl.obolibrary.org/obo/SEPIO_0000037" xlink:title="&lt;TABLE&gt;">
<polygon fill="#eeeeee" stroke="none" points="1277.5,-100 1277.5,-115 1495.5,-115 1495.5,-100 1277.5,-100"/>
<text text-anchor="start" x="1279.5" y="-105" font-family="DejaVu Sans" font-size="10.00" fill="#6666ff">http://purl.obolibrary.org/obo/SEPIO_0000037</text>
</a>
</g>
<polygon fill="none" stroke="#666666" points="1276.5,-99 1276.5,-135 1496.5,-135 1496.5,-99 1276.5,-99"/>
</g>
<!-- node7&#45;&gt;node8 -->
<g id="edge5" class="edge"><title>node7&#45;&gt;node8</title>
<path fill="none" stroke="BLACK" d="M1386.5,-189.747C1386.5,-177.031 1386.5,-162.301 1386.5,-149.508"/>
<polygon fill="BLACK" stroke="BLACK" points="1390,-149.304 1386.5,-139.304 1383,-149.304 1390,-149.304"/>
<text text-anchor="start" x="1386.5" y="-161.8" font-family="Times,serif" font-size="14.00"> </text>
<text text-anchor="start" x="1390.5" y="-161.8" font-family="Times,serif" font-size="10.00" fill="#336633">rdf:type</text>
<text text-anchor="start" x="1423.5" y="-161.8" font-family="Times,serif" font-size="14.00"> </text>
</g>
<!-- node11 -->
<g id="node12" class="node"><title>node11</title>
<polygon fill="grey" stroke="none" points="4753.5,-513.5 4753.5,-532.5 5019.5,-532.5 5019.5,-513.5 4753.5,-513.5"/>
<text text-anchor="start" x="4814.5" y="-520.3" font-family="DejaVu Sans" font-weight="bold" font-size="14.00">RCV000175394.nt</text>
<g id="a_node12_19"><a xlink:href="https://data.monarchinitiative.org/ttl/RCV000175394.nt" xlink:title="&lt;TABLE&gt;">
<polygon fill="#eeeeee" stroke="none" points="4753.5,-498.5 4753.5,-513.5 5019.5,-513.5 5019.5,-498.5 4753.5,-498.5"/>
<text text-anchor="start" x="4755.5" y="-503.5" font-family="DejaVu Sans" font-size="10.00" fill="#6666ff">https://data.monarchinitiative.org/ttl/RCV000175394.nt</text>
</a>
</g>
<text text-anchor="start" x="4755.5" y="-485.3" font-family="DejaVu Sans" font-size="14.00">owl:versionInfo</text>
<text text-anchor="start" x="4893.5" y="-485.3" font-family="DejaVu Sans" font-size="14.00">&quot;2019&#45;04&#45;03&quot;</text>
<polygon fill="none" stroke="#666666" points="4752.5,-479 4752.5,-534 5020.5,-534 5020.5,-479 4752.5,-479"/>
</g>
<!-- node12 -->
<g id="node13" class="node"><title>node12</title>
<polygon fill="grey" stroke="none" points="4787.5,-362 4787.5,-381 4985.5,-381 4985.5,-362 4787.5,-362"/>
<text text-anchor="start" x="4849.5" y="-368.8" font-family="DejaVu Sans" font-weight="bold" font-size="14.00">Ontology</text>
<g id="a_node13_20"><a xlink:href="http://www.w3.org/2002/07/owl#Ontology" xlink:title="&lt;TABLE&gt;">
<polygon fill="#eeeeee" stroke="none" points="4787.5,-347 4787.5,-362 4985.5,-362 4985.5,-347 4787.5,-347"/>
<text text-anchor="start" x="4789.5" y="-352" font-family="DejaVu Sans" font-size="10.00" fill="#6666ff">http://www.w3.org/2002/07/owl#Ontology</text>
</a>
</g>
<polygon fill="none" stroke="#666666" points="4786.5,-346 4786.5,-382 4986.5,-382 4986.5,-346 4786.5,-346"/>
</g>
<!-- node11&#45;&gt;node12 -->
<g id="edge8" class="edge"><title>node11&#45;&gt;node12</title>
<path fill="none" stroke="BLACK" d="M4886.5,-474.667C4886.5,-451.41 4886.5,-419.632 4886.5,-396.27"/>
<polygon fill="BLACK" stroke="BLACK" points="4890,-396.189 4886.5,-386.189 4883,-396.189 4890,-396.189"/>
<text text-anchor="start" x="4886.5" y="-446.8" font-family="Times,serif" font-size="14.00"> </text>
<text text-anchor="start" x="4890.5" y="-446.8" font-family="Times,serif" font-size="10.00" fill="#336633">rdf:type</text>
<text text-anchor="start" x="4923.5" y="-446.8" font-family="Times,serif" font-size="14.00"> </text>
</g>
<!-- node13&#45;&gt;node4 -->
<g id="edge10" class="edge"><title>node13&#45;&gt;node4</title>
<path fill="none" stroke="BLACK" d="M368.093,-199.386C330.652,-183.055 278.694,-160.393 239.112,-143.128"/>
<polygon fill="BLACK" stroke="BLACK" points="240.41,-139.876 229.844,-139.086 237.611,-146.293 240.41,-139.876"/>
<text text-anchor="start" x="299.5" y="-161.8" font-family="Times,serif" font-size="14.00"> </text>
<text text-anchor="start" x="303.5" y="-161.8" font-family="Times,serif" font-size="10.00" fill="#336633">OBO:SEPIO_0000085</text>
<text text-anchor="start" x="397.5" y="-161.8" font-family="Times,serif" font-size="14.00"> </text>
</g>
<!-- node22 -->
<g id="node23" class="node"><title>node22</title>
<polygon fill="grey" stroke="none" points="390.5,-115 390.5,-134 600.5,-134 600.5,-115 390.5,-115"/>
<text text-anchor="start" x="441" y="-121.8" font-family="DejaVu Sans" font-weight="bold" font-size="14.00">ECO_0000000</text>
<g id="a_node23_21"><a xlink:href="http://purl.obolibrary.org/obo/ECO_0000000" xlink:title="&lt;TABLE&gt;">
<polygon fill="#eeeeee" stroke="none" points="390.5,-100 390.5,-115 600.5,-115 600.5,-100 390.5,-100"/>
<text text-anchor="start" x="392.5" y="-105" font-family="DejaVu Sans" font-size="10.00" fill="#6666ff">http://purl.obolibrary.org/obo/ECO_0000000</text>
</a>
</g>
<polygon fill="none" stroke="#666666" points="389.5,-99 389.5,-135 601.5,-135 601.5,-99 389.5,-99"/>
</g>
<!-- node13&#45;&gt;node22 -->
<g id="edge22" class="edge"><title>node13&#45;&gt;node22</title>
<path fill="none" stroke="BLACK" d="M432.869,-199.262C444.415,-184.282 460.031,-164.019 472.782,-147.476"/>
<polygon fill="BLACK" stroke="BLACK" points="475.82,-149.268 479.152,-139.211 470.275,-144.995 475.82,-149.268"/>
<text text-anchor="start" x="465.5" y="-161.8" font-family="Times,serif" font-size="14.00"> </text>
<text text-anchor="start" x="469.5" y="-161.8" font-family="Times,serif" font-size="10.00" fill="#336633">rdf:type</text>
<text text-anchor="start" x="502.5" y="-161.8" font-family="Times,serif" font-size="14.00"> </text>
</g>
<!-- node20 -->
<g id="node21" class="node"><title>node20</title>
<polygon fill="grey" stroke="none" points="1967.5,-115 1967.5,-134 2154.5,-134 2154.5,-115 1967.5,-115"/>
<text text-anchor="start" x="2009.5" y="-121.8" font-family="DejaVu Sans" font-weight="bold" font-size="14.00">organization</text>
<g id="a_node21_22"><a xlink:href="http://xmlns.com/foaf/0.1/organization" xlink:title="&lt;TABLE&gt;">
<polygon fill="#eeeeee" stroke="none" points="1967.5,-100 1967.5,-115 2154.5,-115 2154.5,-100 1967.5,-100"/>
<text text-anchor="start" x="1969.5" y="-105" font-family="DejaVu Sans" font-size="10.00" fill="#6666ff">http://xmlns.com/foaf/0.1/organization</text>
</a>
</g>
<polygon fill="none" stroke="#666666" points="1966,-99 1966,-135 2155,-135 2155,-99 1966,-99"/>
</g>
<!-- node14&#45;&gt;node20 -->
<g id="edge19" class="edge"><title>node14&#45;&gt;node20</title>
<path fill="none" stroke="BLACK" d="M2060.5,-199.262C2060.5,-184.831 2060.5,-165.499 2060.5,-149.311"/>
<polygon fill="BLACK" stroke="BLACK" points="2064,-149.211 2060.5,-139.211 2057,-149.211 2064,-149.211"/>
<text text-anchor="start" x="2060.5" y="-161.8" font-family="Times,serif" font-size="14.00"> </text>
<text text-anchor="start" x="2064.5" y="-161.8" font-family="Times,serif" font-size="10.00" fill="#336633">rdf:type</text>
<text text-anchor="start" x="2097.5" y="-161.8" font-family="Times,serif" font-size="14.00"> </text>
</g>
</g>
</svg>
