<?xml version="1.0" encoding="UTF-8" standalone="no"?>
<!DOCTYPE svg PUBLIC "-//W3C//DTD SVG 1.1//EN"
 "http://www.w3.org/Graphics/SVG/1.1/DTD/svg11.dtd">
<!-- Generated by graphviz version 2.38.0 (20140413.2041)
 -->
<!-- Title: %3 Pages: 1 -->
<svg width="3423pt" height="565pt"
 viewBox="0.00 0.00 3422.77 565.00" xmlns="http://www.w3.org/2000/svg" xmlns:xlink="http://www.w3.org/1999/xlink">
<g id="graph0" class="graph" transform="scale(1 1) rotate(0) translate(4 561)">
<title>%3</title>
<polygon fill="white" stroke="none" points="-4,4 -4,-561 3418.77,-561 3418.77,4 -4,4"/>
<!-- node0 -->
<g id="node1" class="node"><title>node0</title>
<polygon fill="grey" stroke="none" points="1050.77,-409.5 1050.77,-428.5 1490.77,-428.5 1490.77,-409.5 1050.77,-409.5"/>
<text text-anchor="start" x="1052.77" y="-416.3" font-family="DejaVu Sans" font-weight="bold" font-size="14.00">http://www.ncbi.nlm.nih.gov/clinvar/variation/101408</text>
<g id="a_node1_0"><a xlink:href="http://www.ncbi.nlm.nih.gov/clinvar/variation/101408" xlink:title="&lt;TABLE&gt;">
<polygon fill="#eeeeee" stroke="none" points="1050.77,-394.5 1050.77,-409.5 1490.77,-409.5 1490.77,-394.5 1050.77,-394.5"/>
<text text-anchor="start" x="1147.27" y="-399.5" font-family="DejaVu Sans" font-size="10.00" fill="#6666ff">http://www.ncbi.nlm.nih.gov/clinvar/variation/101408</text>
</a>
</g>
<polygon fill="none" stroke="#666666" points="1049.77,-393.5 1049.77,-429.5 1491.77,-429.5 1491.77,-393.5 1049.77,-393.5"/>
</g>
<!-- node1 -->
<g id="node2" class="node"><title>node1</title>
<polygon fill="grey" stroke="none" points="318.772,-115 318.772,-134 540.772,-134 540.772,-115 318.772,-115"/>
<text text-anchor="start" x="363.272" y="-121.8" font-family="DejaVu Sans" font-weight="bold" font-size="14.00">NCBITaxon_9606</text>
<g id="a_node2_1"><a xlink:href="http://purl.obolibrary.org/obo/NCBITaxon_9606" xlink:title="&lt;TABLE&gt;">
<polygon fill="#eeeeee" stroke="none" points="318.772,-100 318.772,-115 540.772,-115 540.772,-100 318.772,-100"/>
<text text-anchor="start" x="320.772" y="-105" font-family="DejaVu Sans" font-size="10.00" fill="#6666ff">http://purl.obolibrary.org/obo/NCBITaxon_9606</text>
</a>
</g>
<polygon fill="none" stroke="#666666" points="317.772,-99 317.772,-135 541.772,-135 541.772,-99 317.772,-99"/>
</g>
<!-- node0&#45;&gt;node1 -->
<g id="edge1" class="edge"><title>node0&#45;&gt;node1</title>
<path fill="none" stroke="BLACK" d="M1041.51,-403.442C692.564,-391.566 64.747,-365.281 30.7724,-329 -11.4543,-283.907 -8.84296,-237.404 30.7724,-190 64.7087,-149.392 196.437,-131.647 299.368,-123.918"/>
<polygon fill="BLACK" stroke="BLACK" points="299.83,-127.394 309.55,-123.178 299.323,-120.412 299.83,-127.394"/>
<text text-anchor="start" x="30.7724" y="-256.8" font-family="Times,serif" font-size="14.00"> </text>
<text text-anchor="start" x="34.7724" y="-256.8" font-family="Times,serif" font-size="10.00" fill="#336633">OBO:RO_0002162</text>
<text text-anchor="start" x="116.772" y="-256.8" font-family="Times,serif" font-size="14.00"> </text>
</g>
<!-- node2 -->
<g id="node3" class="node"><title>node2</title>
<polygon fill="grey" stroke="none" points="1378.77,-257.5 1378.77,-276.5 1605.77,-276.5 1605.77,-257.5 1378.77,-257.5"/>
<text text-anchor="start" x="1421.27" y="-264.3" font-family="DejaVu Sans" font-weight="bold" font-size="14.00">mosaic_genotype</text>
<g id="a_node3_2"><a xlink:href="https://monarchinitiative.org/mosaic_genotype" xlink:title="&lt;TABLE&gt;">
<polygon fill="#eeeeee" stroke="none" points="1378.77,-242.5 1378.77,-257.5 1605.77,-257.5 1605.77,-242.5 1378.77,-242.5"/>
<text text-anchor="start" x="1380.77" y="-247.5" font-family="DejaVu Sans" font-size="10.00" fill="#6666ff">https://monarchinitiative.org/mosaic_genotype</text>
</a>
</g>
<polygon fill="none" stroke="#666666" points="1377.27,-241.5 1377.27,-277.5 1606.27,-277.5 1606.27,-241.5 1377.27,-241.5"/>
</g>
<!-- node0&#45;&gt;node2 -->
<g id="edge2" class="edge"><title>node0&#45;&gt;node2</title>
<path fill="none" stroke="BLACK" d="M1301.97,-389.327C1341.37,-362.581 1409.22,-316.534 1452.22,-287.346"/>
<polygon fill="BLACK" stroke="BLACK" points="1454.43,-290.077 1460.74,-281.565 1450.5,-284.286 1454.43,-290.077"/>
<text text-anchor="start" x="1361.77" y="-351.8" font-family="Times,serif" font-size="14.00"> </text>
<text text-anchor="start" x="1365.77" y="-351.8" font-family="Times,serif" font-size="10.00" fill="#336633">rdf:type</text>
<text text-anchor="start" x="1398.77" y="-351.8" font-family="Times,serif" font-size="14.00"> </text>
</g>
<!-- node3 -->
<g id="node4" class="node"><title>node3</title>
<polygon fill="grey" stroke="none" points="138.772,-304.5 138.772,-323.5 720.772,-323.5 720.772,-304.5 138.772,-304.5"/>
<text text-anchor="start" x="140.772" y="-311.3" font-family="DejaVu Sans" font-weight="bold" font-size="14.00">&quot;NM_000090.3(COL3A1):c.[=/3440_3466del27] (p.Pro1147_Gly1155del)&quot;</text>
<g id="a_node4_3"><a xlink:href="http://www.ncbi.nlm.nih.gov/clinvar/variation/107155" xlink:title="&lt;TABLE&gt;">
<polygon fill="#eeeeee" stroke="none" points="138.772,-289.5 138.772,-304.5 720.772,-304.5 720.772,-289.5 138.772,-289.5"/>
<text text-anchor="start" x="306.272" y="-294.5" font-family="DejaVu Sans" font-size="10.00" fill="#6666ff">http://www.ncbi.nlm.nih.gov/clinvar/variation/107155</text>
</a>
</g>
<text text-anchor="start" x="140.772" y="-276.3" font-family="DejaVu Sans" font-size="14.00">oboInOwl:hasExactSynonym</text>
<text text-anchor="start" x="394.772" y="-276.3" font-family="DejaVu Sans" font-size="14.00">&quot;LRG_3p1:p.Pro1147_Gly1155del&quot;</text>
<text text-anchor="start" x="140.772" y="-257.3" font-family="DejaVu Sans" font-size="14.00">oboInOwl:hasExactSynonym</text>
<text text-anchor="start" x="394.772" y="-257.3" font-family="DejaVu Sans" font-size="14.00">&quot;LRG_3t1:c.[=/3440_3466del27]&quot;</text>
<text text-anchor="start" x="140.772" y="-238.3" font-family="DejaVu Sans" font-size="14.00">oboInOwl:hasExactSynonym</text>
<text text-anchor="start" x="394.772" y="-238.3" font-family="DejaVu Sans" font-size="14.00">&quot;NM_000090.3:c.3440&#45;3466del&quot;</text>
<text text-anchor="start" x="140.772" y="-219.3" font-family="DejaVu Sans" font-size="14.00">oboInOwl:hasExactSynonym</text>
<text text-anchor="start" x="394.772" y="-219.3" font-family="DejaVu Sans" font-size="14.00">&quot;NM_000090.3:c.[=/3440_3466del27]&quot;</text>
<text text-anchor="start" x="140.772" y="-200.3" font-family="DejaVu Sans" font-size="14.00">oboInOwl:hasExactSynonym</text>
<text text-anchor="start" x="394.772" y="-200.3" font-family="DejaVu Sans" font-size="14.00">&quot;NP_000081.1:p.Pro1147_Gly1155del&quot;</text>
<polygon fill="none" stroke="#666666" points="137.772,-194 137.772,-325 721.772,-325 721.772,-194 137.772,-194"/>
</g>
<!-- node0&#45;&gt;node3 -->
<g id="edge19" class="edge"><title>node0&#45;&gt;node3</title>
<path fill="none" stroke="BLACK" d="M1115.51,-389.477C1011.75,-374.769 872.07,-353.702 739.738,-329.158"/>
<polygon fill="BLACK" stroke="BLACK" points="740.29,-325.701 729.818,-327.309 739.007,-332.582 740.29,-325.701"/>
<text text-anchor="start" x="928.772" y="-351.8" font-family="Times,serif" font-size="14.00"> </text>
<text text-anchor="start" x="932.772" y="-351.8" font-family="Times,serif" font-size="10.00" fill="#336633">OBO:GENO_0000382</text>
<text text-anchor="start" x="1028.77" y="-351.8" font-family="Times,serif" font-size="14.00"> </text>
</g>
<!-- node8 -->
<g id="node7" class="node"><title>node8</title>
<polygon fill="grey" stroke="none" points="1641.77,-257.5 1641.77,-276.5 1919.77,-276.5 1919.77,-257.5 1641.77,-257.5"/>
<text text-anchor="start" x="1643.77" y="-264.3" font-family="DejaVu Sans" font-weight="bold" font-size="14.00">&quot;Ehlers&#45;Danlos syndrome, type 4&quot;</text>
<g id="a_node7_4"><a xlink:href="http://omim.org/entry/130050" xlink:title="&lt;TABLE&gt;">
<polygon fill="#eeeeee" stroke="none" points="1641.77,-242.5 1641.77,-257.5 1919.77,-257.5 1919.77,-242.5 1641.77,-242.5"/>
<text text-anchor="start" x="1709.77" y="-247.5" font-family="DejaVu Sans" font-size="10.00" fill="#6666ff">http://omim.org/entry/130050</text>
</a>
</g>
<polygon fill="none" stroke="#666666" points="1640.77,-241.5 1640.77,-277.5 1920.77,-277.5 1920.77,-241.5 1640.77,-241.5"/>
</g>
<!-- node0&#45;&gt;node8 -->
<g id="edge17" class="edge"><title>node0&#45;&gt;node8</title>
<path fill="none" stroke="BLACK" d="M1385.16,-389.495C1454.73,-375.376 1544.88,-354.668 1622.77,-329 1659.06,-317.044 1698.48,-299.957 1728.88,-285.84"/>
<polygon fill="BLACK" stroke="BLACK" points="1730.43,-288.975 1738,-281.563 1727.46,-282.636 1730.43,-288.975"/>
<text text-anchor="start" x="1556.77" y="-351.8" font-family="Times,serif" font-size="14.00"> </text>
<text text-anchor="start" x="1560.77" y="-351.8" font-family="Times,serif" font-size="10.00" fill="#336633">OBO:GENO_0000840</text>
<text text-anchor="start" x="1656.77" y="-351.8" font-family="Times,serif" font-size="14.00"> </text>
</g>
<!-- node6 -->
<g id="node17" class="node"><title>node6</title>
<polygon fill="grey" stroke="none" points="757.772,-304.5 757.772,-323.5 1342.77,-323.5 1342.77,-304.5 757.772,-304.5"/>
<text text-anchor="start" x="759.772" y="-311.3" font-family="DejaVu Sans" font-weight="bold" font-size="14.00">&quot;NM_000090.3(COL3A1):c.[=/3426_3452del27] (p.Gly1143_Asp1151del)&quot;</text>
<g id="a_node17_5"><a xlink:href="http://www.ncbi.nlm.nih.gov/clinvar/variation/107154" xlink:title="&lt;TABLE&gt;">
<polygon fill="#eeeeee" stroke="none" points="757.772,-289.5 757.772,-304.5 1342.77,-304.5 1342.77,-289.5 757.772,-289.5"/>
<text text-anchor="start" x="926.772" y="-294.5" font-family="DejaVu Sans" font-size="10.00" fill="#6666ff">http://www.ncbi.nlm.nih.gov/clinvar/variation/107154</text>
</a>
</g>
<text text-anchor="start" x="759.772" y="-276.3" font-family="DejaVu Sans" font-size="14.00">oboInOwl:hasExactSynonym</text>
<text text-anchor="start" x="1014.77" y="-276.3" font-family="DejaVu Sans" font-size="14.00">&quot;LRG_3p1:p.Gly1143_Asp1151del&quot;</text>
<text text-anchor="start" x="759.772" y="-257.3" font-family="DejaVu Sans" font-size="14.00">oboInOwl:hasExactSynonym</text>
<text text-anchor="start" x="1014.77" y="-257.3" font-family="DejaVu Sans" font-size="14.00">&quot;LRG_3t1:c.[=/3426_3452del27]&quot;</text>
<text text-anchor="start" x="759.772" y="-238.3" font-family="DejaVu Sans" font-size="14.00">oboInOwl:hasExactSynonym</text>
<text text-anchor="start" x="1014.77" y="-238.3" font-family="DejaVu Sans" font-size="14.00">&quot;NM_000090.3:c.3426&#45;3452del&quot;</text>
<text text-anchor="start" x="759.772" y="-219.3" font-family="DejaVu Sans" font-size="14.00">oboInOwl:hasExactSynonym</text>
<text text-anchor="start" x="1014.77" y="-219.3" font-family="DejaVu Sans" font-size="14.00">&quot;NM_000090.3:c.[=/3426_3452del27]&quot;</text>
<text text-anchor="start" x="759.772" y="-200.3" font-family="DejaVu Sans" font-size="14.00">oboInOwl:hasExactSynonym</text>
<text text-anchor="start" x="1014.77" y="-200.3" font-family="DejaVu Sans" font-size="14.00">&quot;NP_000081.1:p.Gly1143_Asp1151del&quot;</text>
<polygon fill="none" stroke="#666666" points="756.272,-194 756.272,-325 1343.27,-325 1343.27,-194 756.272,-194"/>
</g>
<!-- node0&#45;&gt;node6 -->
<g id="edge25" class="edge"><title>node0&#45;&gt;node6</title>
<path fill="none" stroke="BLACK" d="M1239.58,-389.327C1218.26,-374.859 1188.62,-354.742 1159.1,-334.702"/>
<polygon fill="BLACK" stroke="BLACK" points="1161.02,-331.776 1150.78,-329.056 1157.09,-337.568 1161.02,-331.776"/>
<text text-anchor="start" x="1199.77" y="-351.8" font-family="Times,serif" font-size="14.00"> </text>
<text text-anchor="start" x="1203.77" y="-351.8" font-family="Times,serif" font-size="10.00" fill="#336633">OBO:GENO_0000382</text>
<text text-anchor="start" x="1299.77" y="-351.8" font-family="Times,serif" font-size="14.00"> </text>
</g>
<!-- node3&#45;&gt;node1 -->
<g id="edge23" class="edge"><title>node3&#45;&gt;node1</title>
<path fill="none" stroke="BLACK" d="M429.772,-189.896C429.772,-175.565 429.772,-161.143 429.772,-149.016"/>
<polygon fill="BLACK" stroke="BLACK" points="433.272,-149.011 429.772,-139.011 426.272,-149.011 433.272,-149.011"/>
<text text-anchor="start" x="429.772" y="-161.8" font-family="Times,serif" font-size="14.00"> </text>
<text text-anchor="start" x="433.772" y="-161.8" font-family="Times,serif" font-size="10.00" fill="#336633">OBO:RO_0002162</text>
<text text-anchor="start" x="515.772" y="-161.8" font-family="Times,serif" font-size="14.00"> </text>
</g>
<!-- node4 -->
<g id="node5" class="node"><title>node4</title>
<polygon fill="grey" stroke="none" points="591.772,-115 591.772,-134 795.772,-134 795.772,-115 591.772,-115"/>
<text text-anchor="start" x="644.272" y="-121.8" font-family="DejaVu Sans" font-weight="bold" font-size="14.00">SO_0000159</text>
<g id="a_node5_6"><a xlink:href="http://purl.obolibrary.org/obo/SO_0000159" xlink:title="&lt;TABLE&gt;">
<polygon fill="#eeeeee" stroke="none" points="591.772,-100 591.772,-115 795.772,-115 795.772,-100 591.772,-100"/>
<text text-anchor="start" x="593.772" y="-105" font-family="DejaVu Sans" font-size="10.00" fill="#6666ff">http://purl.obolibrary.org/obo/SO_0000159</text>
</a>
</g>
<polygon fill="none" stroke="#666666" points="590.772,-99 590.772,-135 796.772,-135 796.772,-99 590.772,-99"/>
</g>
<!-- node3&#45;&gt;node4 -->
<g id="edge3" class="edge"><title>node3&#45;&gt;node4</title>
<path fill="none" stroke="BLACK" d="M558.679,-189.896C589.551,-173.466 620.649,-156.916 645.213,-143.843"/>
<polygon fill="BLACK" stroke="BLACK" points="647.11,-146.798 654.294,-139.011 643.821,-140.619 647.11,-146.798"/>
<text text-anchor="start" x="615.772" y="-161.8" font-family="Times,serif" font-size="14.00"> </text>
<text text-anchor="start" x="619.772" y="-161.8" font-family="Times,serif" font-size="10.00" fill="#336633">rdf:type</text>
<text text-anchor="start" x="652.772" y="-161.8" font-family="Times,serif" font-size="14.00"> </text>
</g>
<!-- node10 -->
<g id="node9" class="node"><title>node10</title>
<polygon fill="grey" stroke="none" points="846.772,-115 846.772,-134 1182.77,-134 1182.77,-115 846.772,-115"/>
<text text-anchor="start" x="848.772" y="-121.8" font-family="DejaVu Sans" font-weight="bold" font-size="14.00">https://www.ncbi.nlm.nih.gov/gene/1281</text>
<g id="a_node9_7"><a xlink:href="https://www.ncbi.nlm.nih.gov/gene/1281" xlink:title="&lt;TABLE&gt;">
<polygon fill="#eeeeee" stroke="none" points="846.772,-100 846.772,-115 1182.77,-115 1182.77,-100 846.772,-100"/>
<text text-anchor="start" x="920.272" y="-105" font-family="DejaVu Sans" font-size="10.00" fill="#6666ff">https://www.ncbi.nlm.nih.gov/gene/1281</text>
</a>
</g>
<polygon fill="none" stroke="#666666" points="845.772,-99 845.772,-135 1183.77,-135 1183.77,-99 845.772,-99"/>
</g>
<!-- node3&#45;&gt;node10 -->
<g id="edge6" class="edge"><title>node3&#45;&gt;node10</title>
<path fill="none" stroke="BLACK" d="M709.291,-189.934C733.146,-183.927 756.89,-177.892 779.772,-172 804.725,-165.575 810.733,-163.078 835.772,-157 857.85,-151.641 881.543,-146.237 904.231,-141.229"/>
<polygon fill="BLACK" stroke="BLACK" points="905.212,-144.597 914.229,-139.033 903.711,-137.76 905.212,-144.597"/>
<text text-anchor="start" x="835.772" y="-161.8" font-family="Times,serif" font-size="14.00"> </text>
<text text-anchor="start" x="839.772" y="-161.8" font-family="Times,serif" font-size="10.00" fill="#336633">OBO:BFO_0000050</text>
<text text-anchor="start" x="926.772" y="-161.8" font-family="Times,serif" font-size="14.00"> </text>
</g>
<!-- node7 -->
<g id="node6" class="node"><title>node7</title>
<polygon fill="grey" stroke="none" points="2062.77,-523.5 2062.77,-542.5 2379.77,-542.5 2379.77,-523.5 2062.77,-523.5"/>
<text text-anchor="start" x="2077.77" y="-530.3" font-family="DejaVu Sans" font-weight="bold" font-size="14.00">MONARCH_b409eb231ce1985a1a4d</text>
<g id="a_node6_8"><a xlink:href="https://monarchinitiative.org/MONARCH_b409eb231ce1985a1a4d" xlink:title="&lt;TABLE&gt;">
<polygon fill="#eeeeee" stroke="none" points="2062.77,-508.5 2062.77,-523.5 2379.77,-523.5 2379.77,-508.5 2062.77,-508.5"/>
<text text-anchor="start" x="2064.77" y="-513.5" font-family="DejaVu Sans" font-size="10.00" fill="#6666ff">https://monarchinitiative.org/MONARCH_b409eb231ce1985a1a4d</text>
</a>
</g>
<polygon fill="none" stroke="#666666" points="2061.27,-507.5 2061.27,-543.5 2380.27,-543.5 2380.27,-507.5 2061.27,-507.5"/>
</g>
<!-- node7&#45;&gt;node0 -->
<g id="edge26" class="edge"><title>node7&#45;&gt;node0</title>
<path fill="none" stroke="BLACK" d="M2053.09,-515.718C1931.16,-508.205 1762.31,-495.469 1614.77,-476 1535.74,-465.571 1447.32,-449.142 1379.91,-435.609"/>
<polygon fill="BLACK" stroke="BLACK" points="1380.19,-432.095 1369.7,-433.548 1378.81,-438.957 1380.19,-432.095"/>
<text text-anchor="start" x="1614.77" y="-465.8" font-family="Times,serif" font-size="14.00"> </text>
<text text-anchor="start" x="1618.77" y="-465.8" font-family="Times,serif" font-size="10.00" fill="#336633">OBAN:association_has_subject</text>
<text text-anchor="start" x="1750.77" y="-465.8" font-family="Times,serif" font-size="14.00"> </text>
</g>
<!-- node7&#45;&gt;node8 -->
<g id="edge4" class="edge"><title>node7&#45;&gt;node8</title>
<path fill="none" stroke="BLACK" d="M2053.08,-515.479C1942.93,-505.64 1812.93,-485.214 1777.77,-443 1742.42,-400.552 1756.61,-331.289 1769.26,-291.414"/>
<polygon fill="BLACK" stroke="BLACK" points="1772.65,-292.299 1772.49,-281.705 1766.01,-290.086 1772.65,-292.299"/>
<text text-anchor="start" x="1777.77" y="-408.8" font-family="Times,serif" font-size="14.00"> </text>
<text text-anchor="start" x="1781.77" y="-408.8" font-family="Times,serif" font-size="10.00" fill="#336633">OBAN:association_has_object</text>
<text text-anchor="start" x="1909.77" y="-408.8" font-family="Times,serif" font-size="14.00"> </text>
</g>
<!-- node9 -->
<g id="node8" class="node"><title>node9</title>
<polygon fill="grey" stroke="none" points="1932.77,-409.5 1932.77,-428.5 2175.77,-428.5 2175.77,-409.5 1932.77,-409.5"/>
<text text-anchor="start" x="1993.77" y="-416.3" font-family="DejaVu Sans" font-weight="bold" font-size="14.00">RCV000087646</text>
<g id="a_node8_9"><a xlink:href="http://www.ncbi.nlm.nih.gov/clinvar/RCV000087646" xlink:title="&lt;TABLE&gt;">
<polygon fill="#eeeeee" stroke="none" points="1932.77,-394.5 1932.77,-409.5 2175.77,-409.5 2175.77,-394.5 1932.77,-394.5"/>
<text text-anchor="start" x="1934.77" y="-399.5" font-family="DejaVu Sans" font-size="10.00" fill="#6666ff">http://www.ncbi.nlm.nih.gov/clinvar/RCV000087646</text>
</a>
</g>
<polygon fill="none" stroke="#666666" points="1931.27,-393.5 1931.27,-429.5 2176.27,-429.5 2176.27,-393.5 1931.27,-393.5"/>
</g>
<!-- node7&#45;&gt;node9 -->
<g id="edge5" class="edge"><title>node7&#45;&gt;node9</title>
<path fill="none" stroke="BLACK" d="M2163.55,-503.461C2146.77,-496.023 2128.88,-486.779 2113.77,-476 2100.23,-466.338 2087.28,-453.299 2076.89,-441.549"/>
<polygon fill="BLACK" stroke="BLACK" points="2079.31,-438.989 2070.14,-433.678 2074,-443.547 2079.31,-438.989"/>
<text text-anchor="start" x="2113.77" y="-465.8" font-family="Times,serif" font-size="14.00"> </text>
<text text-anchor="start" x="2117.77" y="-465.8" font-family="Times,serif" font-size="10.00" fill="#336633">oboInOwl:hasdbxref</text>
<text text-anchor="start" x="2202.77" y="-465.8" font-family="Times,serif" font-size="14.00"> </text>
</g>
<!-- node11 -->
<g id="node10" class="node"><title>node11</title>
<polygon fill="grey" stroke="none" points="2349.77,-418.5 2349.77,-437.5 2693.77,-437.5 2693.77,-418.5 2349.77,-418.5"/>
<text text-anchor="start" x="2413.27" y="-425.3" font-family="DejaVu Sans" font-weight="bold" font-size="14.00">&quot;ClinVarAssertion_212295&quot;</text>
<g id="a_node10_10"><a xlink:href="https://monarchinitiative.org/.well-known/genid/bb77ce61eda1e1160cfd" xlink:title="&lt;TABLE&gt;">
<polygon fill="#eeeeee" stroke="none" points="2349.77,-403.5 2349.77,-418.5 2693.77,-418.5 2693.77,-403.5 2349.77,-403.5"/>
<text text-anchor="start" x="2351.77" y="-408.5" font-family="DejaVu Sans" font-size="10.00" fill="#6666ff">https://monarchinitiative.org/.well&#45;known/genid/bb77ce61eda1e1160cfd</text>
</a>
</g>
<text text-anchor="start" x="2351.77" y="-390.3" font-family="DejaVu Sans" font-size="14.00">dc:identifier</text>
<text text-anchor="start" x="2496.77" y="-390.3" font-family="DejaVu Sans" font-size="14.00">&quot;SCV000120538.1&quot;</text>
<polygon fill="none" stroke="#666666" points="2348.77,-384 2348.77,-439 2694.77,-439 2694.77,-384 2348.77,-384"/>
</g>
<!-- node7&#45;&gt;node11 -->
<g id="edge10" class="edge"><title>node7&#45;&gt;node11</title>
<path fill="none" stroke="BLACK" d="M2277.39,-503.434C2320.34,-487.45 2380.29,-465.144 2430.06,-446.625"/>
<polygon fill="BLACK" stroke="BLACK" points="2431.4,-449.862 2439.55,-443.095 2428.96,-443.302 2431.4,-449.862"/>
<text text-anchor="start" x="2389.77" y="-465.8" font-family="Times,serif" font-size="14.00"> </text>
<text text-anchor="start" x="2393.77" y="-465.8" font-family="Times,serif" font-size="10.00" fill="#336633">OBO:SEPIO_0000015</text>
<text text-anchor="start" x="2487.77" y="-465.8" font-family="Times,serif" font-size="14.00"> </text>
</g>
<!-- node12 -->
<g id="node11" class="node"><title>node12</title>
<polygon fill="grey" stroke="none" points="2005.77,-257.5 2005.77,-276.5 2338.77,-276.5 2338.77,-257.5 2005.77,-257.5"/>
<text text-anchor="start" x="2026.27" y="-264.3" font-family="DejaVu Sans" font-weight="bold" font-size="14.00">&quot;b409eb231ce1985a1a4d_evidence&quot;</text>
<g id="a_node11_11"><a xlink:href="https://monarchinitiative.org/.well-known/genid/bcffea4366ef7f890f2a" xlink:title="&lt;TABLE&gt;">
<polygon fill="#eeeeee" stroke="none" points="2005.77,-242.5 2005.77,-257.5 2338.77,-257.5 2338.77,-242.5 2005.77,-242.5"/>
<text text-anchor="start" x="2007.77" y="-247.5" font-family="DejaVu Sans" font-size="10.00" fill="#6666ff">https://monarchinitiative.org/.well&#45;known/genid/bcffea4366ef7f890f2a</text>
</a>
</g>
<polygon fill="none" stroke="#666666" points="2004.27,-241.5 2004.27,-277.5 2339.27,-277.5 2339.27,-241.5 2004.27,-241.5"/>
</g>
<!-- node7&#45;&gt;node12 -->
<g id="edge9" class="edge"><title>node7&#45;&gt;node12</title>
<path fill="none" stroke="BLACK" d="M2216.85,-503.342C2208.24,-457 2187.7,-346.331 2177.59,-291.867"/>
<polygon fill="BLACK" stroke="BLACK" points="2180.98,-290.952 2175.72,-281.759 2174.1,-292.23 2180.98,-290.952"/>
<text text-anchor="start" x="2205.77" y="-408.8" font-family="Times,serif" font-size="14.00"> </text>
<text text-anchor="start" x="2209.77" y="-408.8" font-family="Times,serif" font-size="10.00" fill="#336633">OBO:SEPIO_0000007</text>
<text text-anchor="start" x="2303.77" y="-408.8" font-family="Times,serif" font-size="14.00"> </text>
</g>
<!-- node13 -->
<g id="node12" class="node"><title>node13</title>
<polygon fill="grey" stroke="none" points="2729.77,-409.5 2729.77,-428.5 2947.77,-428.5 2947.77,-409.5 2729.77,-409.5"/>
<text text-anchor="start" x="2777.77" y="-416.3" font-family="DejaVu Sans" font-weight="bold" font-size="14.00">GENO_0000840</text>
<g id="a_node12_12"><a xlink:href="http://purl.obolibrary.org/obo/GENO_0000840" xlink:title="&lt;TABLE&gt;">
<polygon fill="#eeeeee" stroke="none" points="2729.77,-394.5 2729.77,-409.5 2947.77,-409.5 2947.77,-394.5 2729.77,-394.5"/>
<text text-anchor="start" x="2731.77" y="-399.5" font-family="DejaVu Sans" font-size="10.00" fill="#6666ff">http://purl.obolibrary.org/obo/GENO_0000840</text>
</a>
</g>
<polygon fill="none" stroke="#666666" points="2728.77,-393.5 2728.77,-429.5 2948.77,-429.5 2948.77,-393.5 2728.77,-393.5"/>
</g>
<!-- node7&#45;&gt;node13 -->
<g id="edge8" class="edge"><title>node7&#45;&gt;node13</title>
<path fill="none" stroke="BLACK" d="M2363.87,-503.499C2462.08,-488.414 2595.22,-466.637 2711.77,-443 2722.6,-440.804 2733.91,-438.339 2745.12,-435.787"/>
<polygon fill="BLACK" stroke="BLACK" points="2745.97,-439.182 2754.93,-433.526 2744.4,-432.36 2745.97,-439.182"/>
<text text-anchor="start" x="2618.77" y="-465.8" font-family="Times,serif" font-size="14.00"> </text>
<text text-anchor="start" x="2622.77" y="-465.8" font-family="Times,serif" font-size="10.00" fill="#336633">OBAN:association_has_predicate</text>
<text text-anchor="start" x="2762.77" y="-465.8" font-family="Times,serif" font-size="14.00"> </text>
</g>
<!-- node19 -->
<g id="node19" class="node"><title>node19</title>
<polygon fill="grey" stroke="none" points="2983.77,-409.5 2983.77,-428.5 3137.77,-428.5 3137.77,-409.5 2983.77,-409.5"/>
<text text-anchor="start" x="3014.77" y="-416.3" font-family="DejaVu Sans" font-weight="bold" font-size="14.00">association</text>
<g id="a_node19_13"><a xlink:href="http://purl.org/oban/association" xlink:title="&lt;TABLE&gt;">
<polygon fill="#eeeeee" stroke="none" points="2983.77,-394.5 2983.77,-409.5 3137.77,-409.5 3137.77,-394.5 2983.77,-394.5"/>
<text text-anchor="start" x="2985.77" y="-399.5" font-family="DejaVu Sans" font-size="10.00" fill="#6666ff">http://purl.org/oban/association</text>
</a>
</g>
<polygon fill="none" stroke="#666666" points="2982.77,-393.5 2982.77,-429.5 3138.77,-429.5 3138.77,-393.5 2982.77,-393.5"/>
</g>
<!-- node7&#45;&gt;node19 -->
<g id="edge15" class="edge"><title>node7&#45;&gt;node19</title>
<path fill="none" stroke="BLACK" d="M2388.62,-518.6C2541.05,-510.316 2771.1,-490.464 2965.77,-443 2973.61,-441.089 2981.74,-438.864 2989.79,-436.503"/>
<polygon fill="BLACK" stroke="BLACK" points="2990.99,-439.798 2999.56,-433.567 2988.97,-433.095 2990.99,-439.798"/>
<text text-anchor="start" x="2866.77" y="-465.8" font-family="Times,serif" font-size="14.00"> </text>
<text text-anchor="start" x="2870.77" y="-465.8" font-family="Times,serif" font-size="10.00" fill="#336633">rdf:type</text>
<text text-anchor="start" x="2903.77" y="-465.8" font-family="Times,serif" font-size="14.00"> </text>
</g>
<!-- node11&#45;&gt;node12 -->
<g id="edge7" class="edge"><title>node11&#45;&gt;node12</title>
<path fill="none" stroke="BLACK" d="M2450.52,-379.964C2385.64,-352.157 2290.97,-311.585 2230.37,-285.615"/>
<polygon fill="BLACK" stroke="BLACK" points="2231.52,-282.298 2220.95,-281.576 2228.76,-288.732 2231.52,-282.298"/>
<text text-anchor="start" x="2408.77" y="-351.8" font-family="Times,serif" font-size="14.00"> </text>
<text text-anchor="start" x="2412.77" y="-351.8" font-family="Times,serif" font-size="10.00" fill="#336633">OBO:SEPIO_0000111</text>
<text text-anchor="start" x="2506.77" y="-351.8" font-family="Times,serif" font-size="14.00"> </text>
</g>
<!-- node20 -->
<g id="node20" class="node"><title>node20</title>
<polygon fill="grey" stroke="none" points="2895.77,-257.5 2895.77,-276.5 3113.77,-276.5 3113.77,-257.5 2895.77,-257.5"/>
<text text-anchor="start" x="2942.77" y="-264.3" font-family="DejaVu Sans" font-weight="bold" font-size="14.00">SEPIO_0000001</text>
<g id="a_node20_14"><a xlink:href="http://purl.obolibrary.org/obo/SEPIO_0000001" xlink:title="&lt;TABLE&gt;">
<polygon fill="#eeeeee" stroke="none" points="2895.77,-242.5 2895.77,-257.5 3113.77,-257.5 3113.77,-242.5 2895.77,-242.5"/>
<text text-anchor="start" x="2897.77" y="-247.5" font-family="DejaVu Sans" font-size="10.00" fill="#6666ff">http://purl.obolibrary.org/obo/SEPIO_0000001</text>
</a>
</g>
<polygon fill="none" stroke="#666666" points="2894.77,-241.5 2894.77,-277.5 3114.77,-277.5 3114.77,-241.5 2894.77,-241.5"/>
</g>
<!-- node11&#45;&gt;node20 -->
<g id="edge16" class="edge"><title>node11&#45;&gt;node20</title>
<path fill="none" stroke="BLACK" d="M2696.93,-379.947C2755.12,-367.262 2819.63,-350.412 2876.77,-329 2906.73,-317.776 2938.44,-300.845 2962.81,-286.624"/>
<polygon fill="BLACK" stroke="BLACK" points="2964.61,-289.625 2971.43,-281.523 2961.04,-283.6 2964.61,-289.625"/>
<text text-anchor="start" x="2820.77" y="-351.8" font-family="Times,serif" font-size="14.00"> </text>
<text text-anchor="start" x="2824.77" y="-351.8" font-family="Times,serif" font-size="10.00" fill="#336633">rdf:type</text>
<text text-anchor="start" x="2857.77" y="-351.8" font-family="Times,serif" font-size="14.00"> </text>
</g>
<!-- node5 -->
<g id="node21" class="node"><title>node5</title>
<polygon fill="grey" stroke="none" points="2374.77,-257.5 2374.77,-276.5 2859.77,-276.5 2859.77,-257.5 2374.77,-257.5"/>
<text text-anchor="start" x="2376.77" y="-264.3" font-family="DejaVu Sans" font-weight="bold" font-size="14.00">&quot;Collagen Diagnostic Laboratory,University of Washington&quot;</text>
<g id="a_node21_15"><a xlink:href="http://www.ncbi.nlm.nih.gov/clinvar/submitters/1058" xlink:title="&lt;TABLE&gt;">
<polygon fill="#eeeeee" stroke="none" points="2374.77,-242.5 2374.77,-257.5 2859.77,-257.5 2859.77,-242.5 2374.77,-242.5"/>
<text text-anchor="start" x="2494.77" y="-247.5" font-family="DejaVu Sans" font-size="10.00" fill="#6666ff">http://www.ncbi.nlm.nih.gov/clinvar/submitters/1058</text>
</a>
</g>
<polygon fill="none" stroke="#666666" points="2373.27,-241.5 2373.27,-277.5 2860.27,-277.5 2860.27,-241.5 2373.27,-241.5"/>
</g>
<!-- node11&#45;&gt;node5 -->
<g id="edge20" class="edge"><title>node11&#45;&gt;node5</title>
<path fill="none" stroke="BLACK" d="M2541.23,-379.783C2557.83,-353.561 2581.57,-316.088 2597.98,-290.171"/>
<polygon fill="BLACK" stroke="BLACK" points="2601.06,-291.844 2603.46,-281.523 2595.15,-288.099 2601.06,-291.844"/>
<text text-anchor="start" x="2560.77" y="-351.8" font-family="Times,serif" font-size="14.00"> </text>
<text text-anchor="start" x="2564.77" y="-351.8" font-family="Times,serif" font-size="10.00" fill="#336633">OBO:SEPIO_0000018</text>
<text text-anchor="start" x="2658.77" y="-351.8" font-family="Times,serif" font-size="14.00"> </text>
</g>
<!-- node16 -->
<g id="node15" class="node"><title>node16</title>
<polygon fill="grey" stroke="none" points="1787.77,-115 1787.77,-134 2135.77,-134 2135.77,-115 1787.77,-115"/>
<text text-anchor="start" x="1798.77" y="-121.8" font-family="DejaVu Sans" font-weight="bold" font-size="14.00">&quot;_:bcffea4366ef7f890f2aSEPIO:0000067&quot;</text>
<g id="a_node15_16"><a xlink:href="https://monarchinitiative.org/.well-known/genid/b344a747065c549662e8" xlink:title="&lt;TABLE&gt;">
<polygon fill="#eeeeee" stroke="none" points="1787.77,-100 1787.77,-115 2135.77,-115 2135.77,-100 1787.77,-100"/>
<text text-anchor="start" x="1789.77" y="-105" font-family="DejaVu Sans" font-size="10.00" fill="#6666ff">https://monarchinitiative.org/.well&#45;known/genid/b344a747065c549662e8</text>
</a>
</g>
<polygon fill="none" stroke="#666666" points="1786.77,-99 1786.77,-135 2136.77,-135 2136.77,-99 1786.77,-99"/>
</g>
<!-- node12&#45;&gt;node16 -->
<g id="edge21" class="edge"><title>node12&#45;&gt;node16</title>
<path fill="none" stroke="BLACK" d="M2140.33,-237.466C2103.45,-212.789 2042.23,-171.831 2001.94,-144.874"/>
<polygon fill="BLACK" stroke="BLACK" points="2003.68,-141.83 1993.43,-139.178 1999.79,-147.648 2003.68,-141.83"/>
<text text-anchor="start" x="2042.77" y="-161.8" font-family="Times,serif" font-size="14.00"> </text>
<text text-anchor="start" x="2046.77" y="-161.8" font-family="Times,serif" font-size="10.00" fill="#336633">OBO:SEPIO_0000085</text>
<text text-anchor="start" x="2140.77" y="-161.8" font-family="Times,serif" font-size="14.00"> </text>
</g>
<!-- node18 -->
<g id="node18" class="node"><title>node18</title>
<polygon fill="grey" stroke="none" points="2171.77,-115 2171.77,-134 2381.77,-134 2381.77,-115 2171.77,-115"/>
<text text-anchor="start" x="2222.27" y="-121.8" font-family="DejaVu Sans" font-weight="bold" font-size="14.00">ECO_0000000</text>
<g id="a_node18_17"><a xlink:href="http://purl.obolibrary.org/obo/ECO_0000000" xlink:title="&lt;TABLE&gt;">
<polygon fill="#eeeeee" stroke="none" points="2171.77,-100 2171.77,-115 2381.77,-115 2381.77,-100 2171.77,-100"/>
<text text-anchor="start" x="2173.77" y="-105" font-family="DejaVu Sans" font-size="10.00" fill="#6666ff">http://purl.obolibrary.org/obo/ECO_0000000</text>
</a>
</g>
<polygon fill="none" stroke="#666666" points="2170.77,-99 2170.77,-135 2382.77,-135 2382.77,-99 2170.77,-99"/>
</g>
<!-- node12&#45;&gt;node18 -->
<g id="edge14" class="edge"><title>node12&#45;&gt;node18</title>
<path fill="none" stroke="BLACK" d="M2187.49,-237.466C2205.35,-213.565 2234.63,-174.391 2254.76,-147.458"/>
<polygon fill="BLACK" stroke="BLACK" points="2257.76,-149.284 2260.95,-139.178 2252.16,-145.093 2257.76,-149.284"/>
<text text-anchor="start" x="2245.77" y="-161.8" font-family="Times,serif" font-size="14.00"> </text>
<text text-anchor="start" x="2249.77" y="-161.8" font-family="Times,serif" font-size="10.00" fill="#336633">rdf:type</text>
<text text-anchor="start" x="2282.77" y="-161.8" font-family="Times,serif" font-size="14.00"> </text>
</g>
<!-- node14 -->
<g id="node13" class="node"><title>node14</title>
<polygon fill="grey" stroke="none" points="3139.77,-532.5 3139.77,-551.5 3405.77,-551.5 3405.77,-532.5 3139.77,-532.5"/>
<text text-anchor="start" x="3200.77" y="-539.3" font-family="DejaVu Sans" font-weight="bold" font-size="14.00">RCV000087646.nt</text>
<g id="a_node13_18"><a xlink:href="https://data.monarchinitiative.org/ttl/RCV000087646.nt" xlink:title="&lt;TABLE&gt;">
<polygon fill="#eeeeee" stroke="none" points="3139.77,-517.5 3139.77,-532.5 3405.77,-532.5 3405.77,-517.5 3139.77,-517.5"/>
<text text-anchor="start" x="3141.77" y="-522.5" font-family="DejaVu Sans" font-size="10.00" fill="#6666ff">https://data.monarchinitiative.org/ttl/RCV000087646.nt</text>
</a>
</g>
<text text-anchor="start" x="3141.77" y="-504.3" font-family="DejaVu Sans" font-size="14.00">owl:versionInfo</text>
<text text-anchor="start" x="3279.77" y="-504.3" font-family="DejaVu Sans" font-size="14.00">&quot;2019&#45;06&#45;03&quot;</text>
<polygon fill="none" stroke="#666666" points="3138.77,-498 3138.77,-553 3406.77,-553 3406.77,-498 3138.77,-498"/>
</g>
<!-- node15 -->
<g id="node14" class="node"><title>node15</title>
<polygon fill="grey" stroke="none" points="3173.77,-409.5 3173.77,-428.5 3371.77,-428.5 3371.77,-409.5 3173.77,-409.5"/>
<text text-anchor="start" x="3235.77" y="-416.3" font-family="DejaVu Sans" font-weight="bold" font-size="14.00">Ontology</text>
<g id="a_node14_19"><a xlink:href="http://www.w3.org/2002/07/owl#Ontology" xlink:title="&lt;TABLE&gt;">
<polygon fill="#eeeeee" stroke="none" points="3173.77,-394.5 3173.77,-409.5 3371.77,-409.5 3371.77,-394.5 3173.77,-394.5"/>
<text text-anchor="start" x="3175.77" y="-399.5" font-family="DejaVu Sans" font-size="10.00" fill="#6666ff">http://www.w3.org/2002/07/owl#Ontology</text>
</a>
</g>
<polygon fill="none" stroke="#666666" points="3172.77,-393.5 3172.77,-429.5 3372.77,-429.5 3372.77,-393.5 3172.77,-393.5"/>
</g>
<!-- node14&#45;&gt;node15 -->
<g id="edge11" class="edge"><title>node14&#45;&gt;node15</title>
<path fill="none" stroke="BLACK" d="M3272.77,-493.896C3272.77,-478.319 3272.77,-459.416 3272.77,-443.749"/>
<polygon fill="BLACK" stroke="BLACK" points="3276.27,-443.501 3272.77,-433.501 3269.27,-443.501 3276.27,-443.501"/>
<text text-anchor="start" x="3272.77" y="-465.8" font-family="Times,serif" font-size="14.00"> </text>
<text text-anchor="start" x="3276.77" y="-465.8" font-family="Times,serif" font-size="10.00" fill="#336633">rdf:type</text>
<text text-anchor="start" x="3309.77" y="-465.8" font-family="Times,serif" font-size="14.00"> </text>
</g>
<!-- node17 -->
<g id="node16" class="node"><title>node17</title>
<polygon fill="grey" stroke="none" points="1852.77,-20 1852.77,-39 2070.77,-39 2070.77,-20 1852.77,-20"/>
<text text-anchor="start" x="1899.77" y="-26.8" font-family="DejaVu Sans" font-weight="bold" font-size="14.00">SEPIO_0000067</text>
<g id="a_node16_20"><a xlink:href="http://purl.obolibrary.org/obo/SEPIO_0000067" xlink:title="&lt;TABLE&gt;">
<polygon fill="#eeeeee" stroke="none" points="1852.77,-5 1852.77,-20 2070.77,-20 2070.77,-5 1852.77,-5"/>
<text text-anchor="start" x="1854.77" y="-10" font-family="DejaVu Sans" font-size="10.00" fill="#6666ff">http://purl.obolibrary.org/obo/SEPIO_0000067</text>
</a>
</g>
<polygon fill="none" stroke="#666666" points="1851.77,-4 1851.77,-40 2071.77,-40 2071.77,-4 1851.77,-4"/>
</g>
<!-- node16&#45;&gt;node17 -->
<g id="edge12" class="edge"><title>node16&#45;&gt;node17</title>
<path fill="none" stroke="BLACK" d="M1961.77,-94.8969C1961.77,-82.8873 1961.77,-67.6175 1961.77,-54.242"/>
<polygon fill="BLACK" stroke="BLACK" points="1965.27,-54.0196 1961.77,-44.0196 1958.27,-54.0197 1965.27,-54.0196"/>
<text text-anchor="start" x="1961.77" y="-66.8" font-family="Times,serif" font-size="14.00"> </text>
<text text-anchor="start" x="1965.77" y="-66.8" font-family="Times,serif" font-size="10.00" fill="#336633">rdf:type</text>
<text text-anchor="start" x="1998.77" y="-66.8" font-family="Times,serif" font-size="14.00"> </text>
</g>
<!-- node6&#45;&gt;node1 -->
<g id="edge13" class="edge"><title>node6&#45;&gt;node1</title>
<path fill="none" stroke="BLACK" d="M747.956,-191.631C722.029,-184.599 700.209,-177.882 685.772,-172 673.772,-167.111 672.927,-161.49 660.772,-157 650.332,-153.143 606.585,-145.454 559.923,-137.915"/>
<polygon fill="BLACK" stroke="BLACK" points="560.362,-134.441 549.933,-136.31 559.251,-141.352 560.362,-134.441"/>
<text text-anchor="start" x="685.772" y="-161.8" font-family="Times,serif" font-size="14.00"> </text>
<text text-anchor="start" x="689.772" y="-161.8" font-family="Times,serif" font-size="10.00" fill="#336633">OBO:RO_0002162</text>
<text text-anchor="start" x="771.772" y="-161.8" font-family="Times,serif" font-size="14.00"> </text>
</g>
<!-- node6&#45;&gt;node4 -->
<g id="edge22" class="edge"><title>node6&#45;&gt;node4</title>
<path fill="none" stroke="BLACK" d="M984.432,-189.794C969.248,-177.136 952.346,-165.311 934.772,-157 931.762,-155.576 873.579,-146.144 815.143,-136.913"/>
<polygon fill="BLACK" stroke="BLACK" points="815.433,-133.416 805.01,-135.315 814.342,-140.33 815.433,-133.416"/>
<text text-anchor="start" x="960.772" y="-161.8" font-family="Times,serif" font-size="14.00"> </text>
<text text-anchor="start" x="964.772" y="-161.8" font-family="Times,serif" font-size="10.00" fill="#336633">rdf:type</text>
<text text-anchor="start" x="997.772" y="-161.8" font-family="Times,serif" font-size="14.00"> </text>
</g>
<!-- node6&#45;&gt;node10 -->
<g id="edge18" class="edge"><title>node6&#45;&gt;node10</title>
<path fill="none" stroke="BLACK" d="M1032.68,-189.896C1029.11,-175.565 1025.52,-161.143 1022.5,-149.016"/>
<polygon fill="BLACK" stroke="BLACK" points="1025.82,-147.868 1020.01,-139.011 1019.03,-149.56 1025.82,-147.868"/>
<text text-anchor="start" x="1028.77" y="-161.8" font-family="Times,serif" font-size="14.00"> </text>
<text text-anchor="start" x="1032.77" y="-161.8" font-family="Times,serif" font-size="10.00" fill="#336633">OBO:BFO_0000050</text>
<text text-anchor="start" x="1119.77" y="-161.8" font-family="Times,serif" font-size="14.00"> </text>
</g>
<!-- node21 -->
<g id="node22" class="node"><title>node21</title>
<polygon fill="grey" stroke="none" points="2523.77,-115 2523.77,-134 2710.77,-134 2710.77,-115 2523.77,-115"/>
<text text-anchor="start" x="2565.77" y="-121.8" font-family="DejaVu Sans" font-weight="bold" font-size="14.00">organization</text>
<g id="a_node22_21"><a xlink:href="http://xmlns.com/foaf/0.1/organization" xlink:title="&lt;TABLE&gt;">
<polygon fill="#eeeeee" stroke="none" points="2523.77,-100 2523.77,-115 2710.77,-115 2710.77,-100 2523.77,-100"/>
<text text-anchor="start" x="2525.77" y="-105" font-family="DejaVu Sans" font-size="10.00" fill="#6666ff">http://xmlns.com/foaf/0.1/organization</text>
</a>
</g>
<polygon fill="none" stroke="#666666" points="2522.27,-99 2522.27,-135 2711.27,-135 2711.27,-99 2522.27,-99"/>
</g>
<!-- node5&#45;&gt;node21 -->
<g id="edge24" class="edge"><title>node5&#45;&gt;node21</title>
<path fill="none" stroke="BLACK" d="M2616.77,-237.466C2616.77,-214.083 2616.77,-176.08 2616.77,-149.224"/>
<polygon fill="BLACK" stroke="BLACK" points="2620.27,-149.178 2616.77,-139.178 2613.27,-149.178 2620.27,-149.178"/>
<text text-anchor="start" x="2616.77" y="-161.8" font-family="Times,serif" font-size="14.00"> </text>
<text text-anchor="start" x="2620.77" y="-161.8" font-family="Times,serif" font-size="10.00" fill="#336633">rdf:type</text>
<text text-anchor="start" x="2653.77" y="-161.8" font-family="Times,serif" font-size="14.00"> </text>
</g>
</g>
</svg>
