<?xml version="1.0" encoding="UTF-8" standalone="no"?>
<!DOCTYPE svg PUBLIC "-//W3C//DTD SVG 1.1//EN"
 "http://www.w3.org/Graphics/SVG/1.1/DTD/svg11.dtd">
<!-- Generated by graphviz version 2.38.0 (20140413.2041)
 -->
<!-- Title: %3 Pages: 1 -->
<svg width="3079pt" height="565pt"
 viewBox="0.00 0.00 3079.00 565.00" xmlns="http://www.w3.org/2000/svg" xmlns:xlink="http://www.w3.org/1999/xlink">
<g id="graph0" class="graph" transform="scale(1 1) rotate(0) translate(4 561)">
<title>%3</title>
<polygon fill="white" stroke="none" points="-4,4 -4,-561 3075,-561 3075,4 -4,4"/>
<!-- node1 -->
<g id="node1" class="node"><title>node1</title>
<polygon fill="grey" stroke="none" points="516.5,-418.5 516.5,-437.5 860.5,-437.5 860.5,-418.5 516.5,-418.5"/>
<text text-anchor="start" x="580" y="-425.3" font-family="DejaVu Sans" font-weight="bold" font-size="14.00">&quot;ClinVarAssertion_212295&quot;</text>
<g id="a_node1_0"><a xlink:href="https://monarchinitiative.org/.well-known/genid/bb77ce61eda1e1160cfd" xlink:title="&lt;TABLE&gt;">
<polygon fill="#eeeeee" stroke="none" points="516.5,-403.5 516.5,-418.5 860.5,-418.5 860.5,-403.5 516.5,-403.5"/>
<text text-anchor="start" x="518.5" y="-408.5" font-family="DejaVu Sans" font-size="10.00" fill="#6666ff">https://monarchinitiative.org/.well&#45;known/genid/bb77ce61eda1e1160cfd</text>
</a>
</g>
<text text-anchor="start" x="518.5" y="-390.3" font-family="DejaVu Sans" font-size="14.00">dc:identifier</text>
<text text-anchor="start" x="663.5" y="-390.3" font-family="DejaVu Sans" font-size="14.00">&quot;SCV000120538.1&quot;</text>
<polygon fill="none" stroke="#666666" points="515.5,-384 515.5,-439 861.5,-439 861.5,-384 515.5,-384"/>
</g>
<!-- node2 -->
<g id="node2" class="node"><title>node2</title>
<polygon fill="grey" stroke="none" points="530.5,-257.5 530.5,-276.5 748.5,-276.5 748.5,-257.5 530.5,-257.5"/>
<text text-anchor="start" x="577.5" y="-264.3" font-family="DejaVu Sans" font-weight="bold" font-size="14.00">SEPIO_0000001</text>
<g id="a_node2_1"><a xlink:href="http://purl.obolibrary.org/obo/SEPIO_0000001" xlink:title="&lt;TABLE&gt;">
<polygon fill="#eeeeee" stroke="none" points="530.5,-242.5 530.5,-257.5 748.5,-257.5 748.5,-242.5 530.5,-242.5"/>
<text text-anchor="start" x="532.5" y="-247.5" font-family="DejaVu Sans" font-size="10.00" fill="#6666ff">http://purl.obolibrary.org/obo/SEPIO_0000001</text>
</a>
</g>
<polygon fill="none" stroke="#666666" points="529.5,-241.5 529.5,-277.5 749.5,-277.5 749.5,-241.5 529.5,-241.5"/>
</g>
<!-- node1&#45;&gt;node2 -->
<g id="edge1" class="edge"><title>node1&#45;&gt;node2</title>
<path fill="none" stroke="BLACK" d="M678.466,-379.783C670.012,-353.905 657.979,-317.068 649.527,-291.196"/>
<polygon fill="BLACK" stroke="BLACK" points="652.8,-289.942 646.368,-281.523 646.146,-292.116 652.8,-289.942"/>
<text text-anchor="start" x="673.5" y="-351.8" font-family="Times,serif" font-size="14.00"> </text>
<text text-anchor="start" x="677.5" y="-351.8" font-family="Times,serif" font-size="10.00" fill="#336633">rdf:type</text>
<text text-anchor="start" x="710.5" y="-351.8" font-family="Times,serif" font-size="14.00"> </text>
</g>
<!-- node11 -->
<g id="node11" class="node"><title>node11</title>
<polygon fill="grey" stroke="none" points="9.5,-257.5 9.5,-276.5 494.5,-276.5 494.5,-257.5 9.5,-257.5"/>
<text text-anchor="start" x="11.5" y="-264.3" font-family="DejaVu Sans" font-weight="bold" font-size="14.00">&quot;Collagen Diagnostic Laboratory,University of Washington&quot;</text>
<g id="a_node11_2"><a xlink:href="http://www.ncbi.nlm.nih.gov/clinvar/submitters/1058" xlink:title="&lt;TABLE&gt;">
<polygon fill="#eeeeee" stroke="none" points="9.5,-242.5 9.5,-257.5 494.5,-257.5 494.5,-242.5 9.5,-242.5"/>
<text text-anchor="start" x="129.5" y="-247.5" font-family="DejaVu Sans" font-size="10.00" fill="#6666ff">http://www.ncbi.nlm.nih.gov/clinvar/submitters/1058</text>
</a>
</g>
<polygon fill="none" stroke="#666666" points="8,-241.5 8,-277.5 495,-277.5 495,-241.5 8,-241.5"/>
</g>
<!-- node1&#45;&gt;node11 -->
<g id="edge11" class="edge"><title>node1&#45;&gt;node11</title>
<path fill="none" stroke="BLACK" d="M599.54,-379.964C517.859,-351.928 398.379,-310.916 322.808,-284.976"/>
<polygon fill="BLACK" stroke="BLACK" points="323.496,-281.512 312.901,-281.576 321.223,-288.133 323.496,-281.512"/>
<text text-anchor="start" x="547.5" y="-351.8" font-family="Times,serif" font-size="14.00"> </text>
<text text-anchor="start" x="551.5" y="-351.8" font-family="Times,serif" font-size="10.00" fill="#336633">OBO:SEPIO_0000018</text>
<text text-anchor="start" x="645.5" y="-351.8" font-family="Times,serif" font-size="14.00"> </text>
</g>
<!-- node0 -->
<g id="node18" class="node"><title>node0</title>
<polygon fill="grey" stroke="none" points="785.5,-257.5 785.5,-276.5 1118.5,-276.5 1118.5,-257.5 785.5,-257.5"/>
<text text-anchor="start" x="806" y="-264.3" font-family="DejaVu Sans" font-weight="bold" font-size="14.00">&quot;b409eb231ce1985a1a4d_evidence&quot;</text>
<g id="a_node18_3"><a xlink:href="https://monarchinitiative.org/.well-known/genid/bcffea4366ef7f890f2a" xlink:title="&lt;TABLE&gt;">
<polygon fill="#eeeeee" stroke="none" points="785.5,-242.5 785.5,-257.5 1118.5,-257.5 1118.5,-242.5 785.5,-242.5"/>
<text text-anchor="start" x="787.5" y="-247.5" font-family="DejaVu Sans" font-size="10.00" fill="#6666ff">https://monarchinitiative.org/.well&#45;known/genid/bcffea4366ef7f890f2a</text>
</a>
</g>
<polygon fill="none" stroke="#666666" points="784,-241.5 784,-277.5 1119,-277.5 1119,-241.5 784,-241.5"/>
</g>
<!-- node1&#45;&gt;node0 -->
<g id="edge26" class="edge"><title>node1&#45;&gt;node0</title>
<path fill="none" stroke="BLACK" d="M742.039,-379.964C790.194,-352.5 860.178,-312.585 905.768,-286.583"/>
<polygon fill="BLACK" stroke="BLACK" points="907.594,-289.571 914.547,-281.576 904.126,-283.49 907.594,-289.571"/>
<text text-anchor="start" x="796.5" y="-351.8" font-family="Times,serif" font-size="14.00"> </text>
<text text-anchor="start" x="800.5" y="-351.8" font-family="Times,serif" font-size="10.00" fill="#336633">OBO:SEPIO_0000111</text>
<text text-anchor="start" x="894.5" y="-351.8" font-family="Times,serif" font-size="14.00"> </text>
</g>
<!-- node3 -->
<g id="node3" class="node"><title>node3</title>
<polygon fill="grey" stroke="none" points="1454.5,-523.5 1454.5,-542.5 1771.5,-542.5 1771.5,-523.5 1454.5,-523.5"/>
<text text-anchor="start" x="1469.5" y="-530.3" font-family="DejaVu Sans" font-weight="bold" font-size="14.00">MONARCH_b409eb231ce1985a1a4d</text>
<g id="a_node3_4"><a xlink:href="https://monarchinitiative.org/MONARCH_b409eb231ce1985a1a4d" xlink:title="&lt;TABLE&gt;">
<polygon fill="#eeeeee" stroke="none" points="1454.5,-508.5 1454.5,-523.5 1771.5,-523.5 1771.5,-508.5 1454.5,-508.5"/>
<text text-anchor="start" x="1456.5" y="-513.5" font-family="DejaVu Sans" font-size="10.00" fill="#6666ff">https://monarchinitiative.org/MONARCH_b409eb231ce1985a1a4d</text>
</a>
</g>
<polygon fill="none" stroke="#666666" points="1453,-507.5 1453,-543.5 1772,-543.5 1772,-507.5 1453,-507.5"/>
</g>
<!-- node3&#45;&gt;node1 -->
<g id="edge19" class="edge"><title>node3&#45;&gt;node1</title>
<path fill="none" stroke="BLACK" d="M1444.66,-521.975C1303.84,-517.654 1097.85,-506.182 920.5,-476 878.285,-468.816 832.665,-457.198 793.141,-445.852"/>
<polygon fill="BLACK" stroke="BLACK" points="794.073,-442.478 783.494,-443.053 792.123,-449.201 794.073,-442.478"/>
<text text-anchor="start" x="920.5" y="-465.8" font-family="Times,serif" font-size="14.00"> </text>
<text text-anchor="start" x="924.5" y="-465.8" font-family="Times,serif" font-size="10.00" fill="#336633">OBO:SEPIO_0000015</text>
<text text-anchor="start" x="1018.5" y="-465.8" font-family="Times,serif" font-size="14.00"> </text>
</g>
<!-- node4 -->
<g id="node4" class="node"><title>node4</title>
<polygon fill="grey" stroke="none" points="1154.5,-257.5 1154.5,-276.5 1432.5,-276.5 1432.5,-257.5 1154.5,-257.5"/>
<text text-anchor="start" x="1156.5" y="-264.3" font-family="DejaVu Sans" font-weight="bold" font-size="14.00">&quot;Ehlers&#45;Danlos syndrome, type 4&quot;</text>
<g id="a_node4_5"><a xlink:href="http://omim.org/entry/130050" xlink:title="&lt;TABLE&gt;">
<polygon fill="#eeeeee" stroke="none" points="1154.5,-242.5 1154.5,-257.5 1432.5,-257.5 1432.5,-242.5 1154.5,-242.5"/>
<text text-anchor="start" x="1222.5" y="-247.5" font-family="DejaVu Sans" font-size="10.00" fill="#6666ff">http://omim.org/entry/130050</text>
</a>
</g>
<polygon fill="none" stroke="#666666" points="1153.5,-241.5 1153.5,-277.5 1433.5,-277.5 1433.5,-241.5 1153.5,-241.5"/>
</g>
<!-- node3&#45;&gt;node4 -->
<g id="edge2" class="edge"><title>node3&#45;&gt;node4</title>
<path fill="none" stroke="BLACK" d="M1444.75,-508.484C1358.13,-496.377 1265.1,-476.024 1238.5,-443 1202.12,-397.839 1241.32,-328.986 1269.67,-290.041"/>
<polygon fill="BLACK" stroke="BLACK" points="1272.7,-291.845 1275.88,-281.741 1267.09,-287.652 1272.7,-291.845"/>
<text text-anchor="start" x="1238.5" y="-408.8" font-family="Times,serif" font-size="14.00"> </text>
<text text-anchor="start" x="1242.5" y="-408.8" font-family="Times,serif" font-size="10.00" fill="#336633">OBAN:association_has_object</text>
<text text-anchor="start" x="1370.5" y="-408.8" font-family="Times,serif" font-size="14.00"> </text>
</g>
<!-- node5 -->
<g id="node5" class="node"><title>node5</title>
<polygon fill="grey" stroke="none" points="1868.5,-409.5 1868.5,-428.5 2022.5,-428.5 2022.5,-409.5 1868.5,-409.5"/>
<text text-anchor="start" x="1899.5" y="-416.3" font-family="DejaVu Sans" font-weight="bold" font-size="14.00">association</text>
<g id="a_node5_6"><a xlink:href="http://purl.org/oban/association" xlink:title="&lt;TABLE&gt;">
<polygon fill="#eeeeee" stroke="none" points="1868.5,-394.5 1868.5,-409.5 2022.5,-409.5 2022.5,-394.5 1868.5,-394.5"/>
<text text-anchor="start" x="1870.5" y="-399.5" font-family="DejaVu Sans" font-size="10.00" fill="#6666ff">http://purl.org/oban/association</text>
</a>
</g>
<polygon fill="none" stroke="#666666" points="1867.5,-393.5 1867.5,-429.5 2023.5,-429.5 2023.5,-393.5 1867.5,-393.5"/>
</g>
<!-- node3&#45;&gt;node5 -->
<g id="edge3" class="edge"><title>node3&#45;&gt;node5</title>
<path fill="none" stroke="BLACK" d="M1675.13,-503.434C1731.44,-484.496 1814.13,-456.683 1873.22,-436.809"/>
<polygon fill="BLACK" stroke="BLACK" points="1874.5,-440.072 1882.86,-433.567 1872.27,-433.437 1874.5,-440.072"/>
<text text-anchor="start" x="1799.5" y="-465.8" font-family="Times,serif" font-size="14.00"> </text>
<text text-anchor="start" x="1803.5" y="-465.8" font-family="Times,serif" font-size="10.00" fill="#336633">rdf:type</text>
<text text-anchor="start" x="1836.5" y="-465.8" font-family="Times,serif" font-size="14.00"> </text>
</g>
<!-- node9 -->
<g id="node8" class="node"><title>node9</title>
<polygon fill="grey" stroke="none" points="1392.5,-409.5 1392.5,-428.5 1832.5,-428.5 1832.5,-409.5 1392.5,-409.5"/>
<text text-anchor="start" x="1394.5" y="-416.3" font-family="DejaVu Sans" font-weight="bold" font-size="14.00">http://www.ncbi.nlm.nih.gov/clinvar/variation/101408</text>
<g id="a_node8_7"><a xlink:href="http://www.ncbi.nlm.nih.gov/clinvar/variation/101408" xlink:title="&lt;TABLE&gt;">
<polygon fill="#eeeeee" stroke="none" points="1392.5,-394.5 1392.5,-409.5 1832.5,-409.5 1832.5,-394.5 1392.5,-394.5"/>
<text text-anchor="start" x="1489" y="-399.5" font-family="DejaVu Sans" font-size="10.00" fill="#6666ff">http://www.ncbi.nlm.nih.gov/clinvar/variation/101408</text>
</a>
</g>
<polygon fill="none" stroke="#666666" points="1391.5,-393.5 1391.5,-429.5 1833.5,-429.5 1833.5,-393.5 1391.5,-393.5"/>
</g>
<!-- node3&#45;&gt;node9 -->
<g id="edge17" class="edge"><title>node3&#45;&gt;node9</title>
<path fill="none" stroke="BLACK" d="M1612.5,-503.434C1612.5,-486.645 1612.5,-462.883 1612.5,-443.859"/>
<polygon fill="BLACK" stroke="BLACK" points="1616,-443.853 1612.5,-433.853 1609,-443.853 1616,-443.853"/>
<text text-anchor="start" x="1612.5" y="-465.8" font-family="Times,serif" font-size="14.00"> </text>
<text text-anchor="start" x="1616.5" y="-465.8" font-family="Times,serif" font-size="10.00" fill="#336633">OBAN:association_has_subject</text>
<text text-anchor="start" x="1748.5" y="-465.8" font-family="Times,serif" font-size="14.00"> </text>
</g>
<!-- node10 -->
<g id="node9" class="node"><title>node10</title>
<polygon fill="grey" stroke="none" points="2058.5,-409.5 2058.5,-428.5 2276.5,-428.5 2276.5,-409.5 2058.5,-409.5"/>
<text text-anchor="start" x="2106.5" y="-416.3" font-family="DejaVu Sans" font-weight="bold" font-size="14.00">GENO_0000840</text>
<g id="a_node9_8"><a xlink:href="http://purl.obolibrary.org/obo/GENO_0000840" xlink:title="&lt;TABLE&gt;">
<polygon fill="#eeeeee" stroke="none" points="2058.5,-394.5 2058.5,-409.5 2276.5,-409.5 2276.5,-394.5 2058.5,-394.5"/>
<text text-anchor="start" x="2060.5" y="-399.5" font-family="DejaVu Sans" font-size="10.00" fill="#6666ff">http://purl.obolibrary.org/obo/GENO_0000840</text>
</a>
</g>
<polygon fill="none" stroke="#666666" points="2057.5,-393.5 2057.5,-429.5 2277.5,-429.5 2277.5,-393.5 2057.5,-393.5"/>
</g>
<!-- node3&#45;&gt;node10 -->
<g id="edge6" class="edge"><title>node3&#45;&gt;node10</title>
<path fill="none" stroke="BLACK" d="M1731.35,-503.435C1817.41,-487.8 1936.42,-465.395 2040.5,-443 2050.85,-440.772 2061.66,-438.342 2072.4,-435.858"/>
<polygon fill="BLACK" stroke="BLACK" points="2073.29,-439.244 2082.23,-433.566 2071.7,-432.427 2073.29,-439.244"/>
<text text-anchor="start" x="1947.5" y="-465.8" font-family="Times,serif" font-size="14.00"> </text>
<text text-anchor="start" x="1951.5" y="-465.8" font-family="Times,serif" font-size="10.00" fill="#336633">OBAN:association_has_predicate</text>
<text text-anchor="start" x="2091.5" y="-465.8" font-family="Times,serif" font-size="14.00"> </text>
</g>
<!-- node18 -->
<g id="node17" class="node"><title>node18</title>
<polygon fill="grey" stroke="none" points="2313.5,-409.5 2313.5,-428.5 2556.5,-428.5 2556.5,-409.5 2313.5,-409.5"/>
<text text-anchor="start" x="2374.5" y="-416.3" font-family="DejaVu Sans" font-weight="bold" font-size="14.00">RCV000087646</text>
<g id="a_node17_9"><a xlink:href="http://www.ncbi.nlm.nih.gov/clinvar/RCV000087646" xlink:title="&lt;TABLE&gt;">
<polygon fill="#eeeeee" stroke="none" points="2313.5,-394.5 2313.5,-409.5 2556.5,-409.5 2556.5,-394.5 2313.5,-394.5"/>
<text text-anchor="start" x="2315.5" y="-399.5" font-family="DejaVu Sans" font-size="10.00" fill="#6666ff">http://www.ncbi.nlm.nih.gov/clinvar/RCV000087646</text>
</a>
</g>
<polygon fill="none" stroke="#666666" points="2312,-393.5 2312,-429.5 2557,-429.5 2557,-393.5 2312,-393.5"/>
</g>
<!-- node3&#45;&gt;node18 -->
<g id="edge13" class="edge"><title>node3&#45;&gt;node18</title>
<path fill="none" stroke="BLACK" d="M1780.18,-510.651C1874.24,-502.169 1993.6,-490.217 2099.5,-476 2186.62,-464.304 2208.2,-459.693 2294.5,-443 2306.35,-440.707 2318.74,-438.188 2331.04,-435.61"/>
<polygon fill="BLACK" stroke="BLACK" points="2331.81,-439.025 2340.87,-433.534 2330.36,-432.176 2331.81,-439.025"/>
<text text-anchor="start" x="2197.5" y="-465.8" font-family="Times,serif" font-size="14.00"> </text>
<text text-anchor="start" x="2201.5" y="-465.8" font-family="Times,serif" font-size="10.00" fill="#336633">oboInOwl:hasdbxref</text>
<text text-anchor="start" x="2286.5" y="-465.8" font-family="Times,serif" font-size="14.00"> </text>
</g>
<!-- node3&#45;&gt;node0 -->
<g id="edge14" class="edge"><title>node3&#45;&gt;node0</title>
<path fill="none" stroke="BLACK" d="M1444.76,-509.774C1323.86,-496.764 1172.81,-474.864 1118.5,-443 1052.59,-404.326 997.618,-331.241 970.226,-290.268"/>
<polygon fill="BLACK" stroke="BLACK" points="973.069,-288.222 964.648,-281.793 967.222,-292.071 973.069,-288.222"/>
<text text-anchor="start" x="1118.5" y="-408.8" font-family="Times,serif" font-size="14.00"> </text>
<text text-anchor="start" x="1122.5" y="-408.8" font-family="Times,serif" font-size="10.00" fill="#336633">OBO:SEPIO_0000007</text>
<text text-anchor="start" x="1216.5" y="-408.8" font-family="Times,serif" font-size="14.00"> </text>
</g>
<!-- node7 -->
<g id="node6" class="node"><title>node7</title>
<polygon fill="grey" stroke="none" points="2558.5,-532.5 2558.5,-551.5 2824.5,-551.5 2824.5,-532.5 2558.5,-532.5"/>
<text text-anchor="start" x="2619.5" y="-539.3" font-family="DejaVu Sans" font-weight="bold" font-size="14.00">RCV000087646.nt</text>
<g id="a_node6_10"><a xlink:href="https://data.monarchinitiative.org/ttl/RCV000087646.nt" xlink:title="&lt;TABLE&gt;">
<polygon fill="#eeeeee" stroke="none" points="2558.5,-517.5 2558.5,-532.5 2824.5,-532.5 2824.5,-517.5 2558.5,-517.5"/>
<text text-anchor="start" x="2560.5" y="-522.5" font-family="DejaVu Sans" font-size="10.00" fill="#6666ff">https://data.monarchinitiative.org/ttl/RCV000087646.nt</text>
</a>
</g>
<text text-anchor="start" x="2560.5" y="-504.3" font-family="DejaVu Sans" font-size="14.00">owl:versionInfo</text>
<text text-anchor="start" x="2698.5" y="-504.3" font-family="DejaVu Sans" font-size="14.00">&quot;2019&#45;06&#45;03&quot;</text>
<polygon fill="none" stroke="#666666" points="2557.5,-498 2557.5,-553 2825.5,-553 2825.5,-498 2557.5,-498"/>
</g>
<!-- node8 -->
<g id="node7" class="node"><title>node8</title>
<polygon fill="grey" stroke="none" points="2592.5,-409.5 2592.5,-428.5 2790.5,-428.5 2790.5,-409.5 2592.5,-409.5"/>
<text text-anchor="start" x="2654.5" y="-416.3" font-family="DejaVu Sans" font-weight="bold" font-size="14.00">Ontology</text>
<g id="a_node7_11"><a xlink:href="http://www.w3.org/2002/07/owl#Ontology" xlink:title="&lt;TABLE&gt;">
<polygon fill="#eeeeee" stroke="none" points="2592.5,-394.5 2592.5,-409.5 2790.5,-409.5 2790.5,-394.5 2592.5,-394.5"/>
<text text-anchor="start" x="2594.5" y="-399.5" font-family="DejaVu Sans" font-size="10.00" fill="#6666ff">http://www.w3.org/2002/07/owl#Ontology</text>
</a>
</g>
<polygon fill="none" stroke="#666666" points="2591.5,-393.5 2591.5,-429.5 2791.5,-429.5 2791.5,-393.5 2591.5,-393.5"/>
</g>
<!-- node7&#45;&gt;node8 -->
<g id="edge4" class="edge"><title>node7&#45;&gt;node8</title>
<path fill="none" stroke="BLACK" d="M2691.5,-493.896C2691.5,-478.319 2691.5,-459.416 2691.5,-443.749"/>
<polygon fill="BLACK" stroke="BLACK" points="2695,-443.501 2691.5,-433.501 2688,-443.501 2695,-443.501"/>
<text text-anchor="start" x="2691.5" y="-465.8" font-family="Times,serif" font-size="14.00"> </text>
<text text-anchor="start" x="2695.5" y="-465.8" font-family="Times,serif" font-size="10.00" fill="#336633">rdf:type</text>
<text text-anchor="start" x="2728.5" y="-465.8" font-family="Times,serif" font-size="14.00"> </text>
</g>
<!-- node9&#45;&gt;node4 -->
<g id="edge5" class="edge"><title>node9&#45;&gt;node4</title>
<path fill="none" stroke="BLACK" d="M1557.41,-389.407C1536.87,-381.236 1513.46,-371.557 1492.5,-362 1439.96,-338.038 1381.21,-307.612 1341.26,-286.348"/>
<polygon fill="BLACK" stroke="BLACK" points="1342.74,-283.175 1332.27,-281.554 1339.45,-289.35 1342.74,-283.175"/>
<text text-anchor="start" x="1492.5" y="-351.8" font-family="Times,serif" font-size="14.00"> </text>
<text text-anchor="start" x="1496.5" y="-351.8" font-family="Times,serif" font-size="10.00" fill="#336633">OBO:GENO_0000840</text>
<text text-anchor="start" x="1592.5" y="-351.8" font-family="Times,serif" font-size="14.00"> </text>
</g>
<!-- node12 -->
<g id="node10" class="node"><title>node12</title>
<polygon fill="grey" stroke="none" points="1469.5,-257.5 1469.5,-276.5 1696.5,-276.5 1696.5,-257.5 1469.5,-257.5"/>
<text text-anchor="start" x="1512" y="-264.3" font-family="DejaVu Sans" font-weight="bold" font-size="14.00">mosaic_genotype</text>
<g id="a_node10_12"><a xlink:href="https://monarchinitiative.org/mosaic_genotype" xlink:title="&lt;TABLE&gt;">
<polygon fill="#eeeeee" stroke="none" points="1469.5,-242.5 1469.5,-257.5 1696.5,-257.5 1696.5,-242.5 1469.5,-242.5"/>
<text text-anchor="start" x="1471.5" y="-247.5" font-family="DejaVu Sans" font-size="10.00" fill="#6666ff">https://monarchinitiative.org/mosaic_genotype</text>
</a>
</g>
<polygon fill="none" stroke="#666666" points="1468,-241.5 1468,-277.5 1697,-277.5 1697,-241.5 1468,-241.5"/>
</g>
<!-- node9&#45;&gt;node12 -->
<g id="edge7" class="edge"><title>node9&#45;&gt;node12</title>
<path fill="none" stroke="BLACK" d="M1608.27,-389.327C1603.17,-363.866 1594.58,-320.912 1588.73,-291.663"/>
<polygon fill="BLACK" stroke="BLACK" points="1592.11,-290.685 1586.71,-281.565 1585.24,-292.058 1592.11,-290.685"/>
<text text-anchor="start" x="1603.5" y="-351.8" font-family="Times,serif" font-size="14.00"> </text>
<text text-anchor="start" x="1607.5" y="-351.8" font-family="Times,serif" font-size="10.00" fill="#336633">rdf:type</text>
<text text-anchor="start" x="1640.5" y="-351.8" font-family="Times,serif" font-size="14.00"> </text>
</g>
<!-- node14 -->
<g id="node13" class="node"><title>node14</title>
<polygon fill="grey" stroke="none" points="2477.5,-304.5 2477.5,-323.5 3062.5,-323.5 3062.5,-304.5 2477.5,-304.5"/>
<text text-anchor="start" x="2479.5" y="-311.3" font-family="DejaVu Sans" font-weight="bold" font-size="14.00">&quot;NM_000090.3(COL3A1):c.[=/3426_3452del27] (p.Gly1143_Asp1151del)&quot;</text>
<g id="a_node13_13"><a xlink:href="http://www.ncbi.nlm.nih.gov/clinvar/variation/107154" xlink:title="&lt;TABLE&gt;">
<polygon fill="#eeeeee" stroke="none" points="2477.5,-289.5 2477.5,-304.5 3062.5,-304.5 3062.5,-289.5 2477.5,-289.5"/>
<text text-anchor="start" x="2646.5" y="-294.5" font-family="DejaVu Sans" font-size="10.00" fill="#6666ff">http://www.ncbi.nlm.nih.gov/clinvar/variation/107154</text>
</a>
</g>
<text text-anchor="start" x="2479.5" y="-276.3" font-family="DejaVu Sans" font-size="14.00">oboInOwl:hasExactSynonym</text>
<text text-anchor="start" x="2734.5" y="-276.3" font-family="DejaVu Sans" font-size="14.00">&quot;LRG_3p1:p.Gly1143_Asp1151del&quot;</text>
<text text-anchor="start" x="2479.5" y="-257.3" font-family="DejaVu Sans" font-size="14.00">oboInOwl:hasExactSynonym</text>
<text text-anchor="start" x="2734.5" y="-257.3" font-family="DejaVu Sans" font-size="14.00">&quot;LRG_3t1:c.[=/3426_3452del27]&quot;</text>
<text text-anchor="start" x="2479.5" y="-238.3" font-family="DejaVu Sans" font-size="14.00">oboInOwl:hasExactSynonym</text>
<text text-anchor="start" x="2734.5" y="-238.3" font-family="DejaVu Sans" font-size="14.00">&quot;NM_000090.3:c.3426&#45;3452del&quot;</text>
<text text-anchor="start" x="2479.5" y="-219.3" font-family="DejaVu Sans" font-size="14.00">oboInOwl:hasExactSynonym</text>
<text text-anchor="start" x="2734.5" y="-219.3" font-family="DejaVu Sans" font-size="14.00">&quot;NM_000090.3:c.[=/3426_3452del27]&quot;</text>
<text text-anchor="start" x="2479.5" y="-200.3" font-family="DejaVu Sans" font-size="14.00">oboInOwl:hasExactSynonym</text>
<text text-anchor="start" x="2734.5" y="-200.3" font-family="DejaVu Sans" font-size="14.00">&quot;NP_000081.1:p.Gly1143_Asp1151del&quot;</text>
<polygon fill="none" stroke="#666666" points="2476,-194 2476,-325 3063,-325 3063,-194 2476,-194"/>
</g>
<!-- node9&#45;&gt;node14 -->
<g id="edge20" class="edge"><title>node9&#45;&gt;node14</title>
<path fill="none" stroke="BLACK" d="M1768.89,-389.467C1796.08,-386.094 1824.09,-382.798 1850.5,-380 2116.87,-351.774 2188.64,-369.151 2457.9,-329.047"/>
<polygon fill="BLACK" stroke="BLACK" points="2458.61,-332.481 2467.97,-327.534 2457.57,-325.558 2458.61,-332.481"/>
<text text-anchor="start" x="2318.5" y="-351.8" font-family="Times,serif" font-size="14.00"> </text>
<text text-anchor="start" x="2322.5" y="-351.8" font-family="Times,serif" font-size="10.00" fill="#336633">OBO:GENO_0000382</text>
<text text-anchor="start" x="2418.5" y="-351.8" font-family="Times,serif" font-size="14.00"> </text>
</g>
<!-- node16 -->
<g id="node14" class="node"><title>node16</title>
<polygon fill="grey" stroke="none" points="2037.5,-115 2037.5,-134 2259.5,-134 2259.5,-115 2037.5,-115"/>
<text text-anchor="start" x="2082" y="-121.8" font-family="DejaVu Sans" font-weight="bold" font-size="14.00">NCBITaxon_9606</text>
<g id="a_node14_14"><a xlink:href="http://purl.obolibrary.org/obo/NCBITaxon_9606" xlink:title="&lt;TABLE&gt;">
<polygon fill="#eeeeee" stroke="none" points="2037.5,-100 2037.5,-115 2259.5,-115 2259.5,-100 2037.5,-100"/>
<text text-anchor="start" x="2039.5" y="-105" font-family="DejaVu Sans" font-size="10.00" fill="#6666ff">http://purl.obolibrary.org/obo/NCBITaxon_9606</text>
</a>
</g>
<polygon fill="none" stroke="#666666" points="2036.5,-99 2036.5,-135 2260.5,-135 2260.5,-99 2036.5,-99"/>
</g>
<!-- node9&#45;&gt;node16 -->
<g id="edge18" class="edge"><title>node9&#45;&gt;node16</title>
<path fill="none" stroke="BLACK" d="M1649.23,-389.216C1670.95,-374.832 1697.3,-353.943 1713.5,-329 1748.32,-275.386 1703.5,-233.333 1750.5,-190 1788.97,-154.532 1917.54,-135.958 2018.27,-126.629"/>
<polygon fill="BLACK" stroke="BLACK" points="2018.59,-130.115 2028.23,-125.728 2017.96,-123.143 2018.59,-130.115"/>
<text text-anchor="start" x="1750.5" y="-256.8" font-family="Times,serif" font-size="14.00"> </text>
<text text-anchor="start" x="1754.5" y="-256.8" font-family="Times,serif" font-size="10.00" fill="#336633">OBO:RO_0002162</text>
<text text-anchor="start" x="1836.5" y="-256.8" font-family="Times,serif" font-size="14.00"> </text>
</g>
<!-- node6 -->
<g id="node16" class="node"><title>node6</title>
<polygon fill="grey" stroke="none" points="1858.5,-304.5 1858.5,-323.5 2440.5,-323.5 2440.5,-304.5 1858.5,-304.5"/>
<text text-anchor="start" x="1860.5" y="-311.3" font-family="DejaVu Sans" font-weight="bold" font-size="14.00">&quot;NM_000090.3(COL3A1):c.[=/3440_3466del27] (p.Pro1147_Gly1155del)&quot;</text>
<g id="a_node16_15"><a xlink:href="http://www.ncbi.nlm.nih.gov/clinvar/variation/107155" xlink:title="&lt;TABLE&gt;">
<polygon fill="#eeeeee" stroke="none" points="1858.5,-289.5 1858.5,-304.5 2440.5,-304.5 2440.5,-289.5 1858.5,-289.5"/>
<text text-anchor="start" x="2026" y="-294.5" font-family="DejaVu Sans" font-size="10.00" fill="#6666ff">http://www.ncbi.nlm.nih.gov/clinvar/variation/107155</text>
</a>
</g>
<text text-anchor="start" x="1860.5" y="-276.3" font-family="DejaVu Sans" font-size="14.00">oboInOwl:hasExactSynonym</text>
<text text-anchor="start" x="2114.5" y="-276.3" font-family="DejaVu Sans" font-size="14.00">&quot;LRG_3p1:p.Pro1147_Gly1155del&quot;</text>
<text text-anchor="start" x="1860.5" y="-257.3" font-family="DejaVu Sans" font-size="14.00">oboInOwl:hasExactSynonym</text>
<text text-anchor="start" x="2114.5" y="-257.3" font-family="DejaVu Sans" font-size="14.00">&quot;LRG_3t1:c.[=/3440_3466del27]&quot;</text>
<text text-anchor="start" x="1860.5" y="-238.3" font-family="DejaVu Sans" font-size="14.00">oboInOwl:hasExactSynonym</text>
<text text-anchor="start" x="2114.5" y="-238.3" font-family="DejaVu Sans" font-size="14.00">&quot;NM_000090.3:c.3440&#45;3466del&quot;</text>
<text text-anchor="start" x="1860.5" y="-219.3" font-family="DejaVu Sans" font-size="14.00">oboInOwl:hasExactSynonym</text>
<text text-anchor="start" x="2114.5" y="-219.3" font-family="DejaVu Sans" font-size="14.00">&quot;NM_000090.3:c.[=/3440_3466del27]&quot;</text>
<text text-anchor="start" x="1860.5" y="-200.3" font-family="DejaVu Sans" font-size="14.00">oboInOwl:hasExactSynonym</text>
<text text-anchor="start" x="2114.5" y="-200.3" font-family="DejaVu Sans" font-size="14.00">&quot;NP_000081.1:p.Pro1147_Gly1155del&quot;</text>
<polygon fill="none" stroke="#666666" points="1857.5,-194 1857.5,-325 2441.5,-325 2441.5,-194 1857.5,-194"/>
</g>
<!-- node9&#45;&gt;node6 -->
<g id="edge12" class="edge"><title>node9&#45;&gt;node6</title>
<path fill="none" stroke="BLACK" d="M1687.73,-389.485C1742.13,-374.291 1819.03,-352.809 1894.51,-331.726"/>
<polygon fill="BLACK" stroke="BLACK" points="1895.5,-335.085 1904.19,-329.024 1893.61,-328.343 1895.5,-335.085"/>
<text text-anchor="start" x="1833.5" y="-351.8" font-family="Times,serif" font-size="14.00"> </text>
<text text-anchor="start" x="1837.5" y="-351.8" font-family="Times,serif" font-size="10.00" fill="#336633">OBO:GENO_0000382</text>
<text text-anchor="start" x="1933.5" y="-351.8" font-family="Times,serif" font-size="14.00"> </text>
</g>
<!-- node15 -->
<g id="node12" class="node"><title>node15</title>
<polygon fill="grey" stroke="none" points="158.5,-115 158.5,-134 345.5,-134 345.5,-115 158.5,-115"/>
<text text-anchor="start" x="200.5" y="-121.8" font-family="DejaVu Sans" font-weight="bold" font-size="14.00">organization</text>
<g id="a_node12_16"><a xlink:href="http://xmlns.com/foaf/0.1/organization" xlink:title="&lt;TABLE&gt;">
<polygon fill="#eeeeee" stroke="none" points="158.5,-100 158.5,-115 345.5,-115 345.5,-100 158.5,-100"/>
<text text-anchor="start" x="160.5" y="-105" font-family="DejaVu Sans" font-size="10.00" fill="#6666ff">http://xmlns.com/foaf/0.1/organization</text>
</a>
</g>
<polygon fill="none" stroke="#666666" points="157,-99 157,-135 346,-135 346,-99 157,-99"/>
</g>
<!-- node11&#45;&gt;node15 -->
<g id="edge8" class="edge"><title>node11&#45;&gt;node15</title>
<path fill="none" stroke="BLACK" d="M251.5,-237.466C251.5,-214.083 251.5,-176.08 251.5,-149.224"/>
<polygon fill="BLACK" stroke="BLACK" points="255,-149.178 251.5,-139.178 248,-149.178 255,-149.178"/>
<text text-anchor="start" x="251.5" y="-161.8" font-family="Times,serif" font-size="14.00"> </text>
<text text-anchor="start" x="255.5" y="-161.8" font-family="Times,serif" font-size="10.00" fill="#336633">rdf:type</text>
<text text-anchor="start" x="288.5" y="-161.8" font-family="Times,serif" font-size="14.00"> </text>
</g>
<!-- node14&#45;&gt;node16 -->
<g id="edge9" class="edge"><title>node14&#45;&gt;node16</title>
<path fill="none" stroke="BLACK" d="M2476,-189.844C2461.12,-184.291 2446.53,-178.349 2432.5,-172 2421.72,-167.122 2421.55,-161.24 2410.5,-157 2357.64,-136.711 2338.45,-146.644 2278.61,-139.045"/>
<polygon fill="BLACK" stroke="BLACK" points="2279.03,-135.57 2268.65,-137.668 2278.08,-142.504 2279.03,-135.57"/>
<text text-anchor="start" x="2432.5" y="-161.8" font-family="Times,serif" font-size="14.00"> </text>
<text text-anchor="start" x="2436.5" y="-161.8" font-family="Times,serif" font-size="10.00" fill="#336633">OBO:RO_0002162</text>
<text text-anchor="start" x="2518.5" y="-161.8" font-family="Times,serif" font-size="14.00"> </text>
</g>
<!-- node17 -->
<g id="node15" class="node"><title>node17</title>
<polygon fill="grey" stroke="none" points="2295.5,-115 2295.5,-134 2631.5,-134 2631.5,-115 2295.5,-115"/>
<text text-anchor="start" x="2297.5" y="-121.8" font-family="DejaVu Sans" font-weight="bold" font-size="14.00">https://www.ncbi.nlm.nih.gov/gene/1281</text>
<g id="a_node15_17"><a xlink:href="https://www.ncbi.nlm.nih.gov/gene/1281" xlink:title="&lt;TABLE&gt;">
<polygon fill="#eeeeee" stroke="none" points="2295.5,-100 2295.5,-115 2631.5,-115 2631.5,-100 2295.5,-100"/>
<text text-anchor="start" x="2369" y="-105" font-family="DejaVu Sans" font-size="10.00" fill="#6666ff">https://www.ncbi.nlm.nih.gov/gene/1281</text>
</a>
</g>
<polygon fill="none" stroke="#666666" points="2294.5,-99 2294.5,-135 2632.5,-135 2632.5,-99 2294.5,-99"/>
</g>
<!-- node14&#45;&gt;node17 -->
<g id="edge10" class="edge"><title>node14&#45;&gt;node17</title>
<path fill="none" stroke="BLACK" d="M2675.12,-189.773C2655.72,-177.651 2634.95,-166.039 2614.5,-157 2601.62,-151.307 2587.75,-146.318 2573.81,-141.981"/>
<polygon fill="BLACK" stroke="BLACK" points="2574.75,-138.608 2564.16,-139.083 2572.73,-145.312 2574.75,-138.608"/>
<text text-anchor="start" x="2642.5" y="-161.8" font-family="Times,serif" font-size="14.00"> </text>
<text text-anchor="start" x="2646.5" y="-161.8" font-family="Times,serif" font-size="10.00" fill="#336633">OBO:BFO_0000050</text>
<text text-anchor="start" x="2733.5" y="-161.8" font-family="Times,serif" font-size="14.00"> </text>
</g>
<!-- node19 -->
<g id="node19" class="node"><title>node19</title>
<polygon fill="grey" stroke="none" points="2667.5,-115 2667.5,-134 2871.5,-134 2871.5,-115 2667.5,-115"/>
<text text-anchor="start" x="2720" y="-121.8" font-family="DejaVu Sans" font-weight="bold" font-size="14.00">SO_0000159</text>
<g id="a_node19_18"><a xlink:href="http://purl.obolibrary.org/obo/SO_0000159" xlink:title="&lt;TABLE&gt;">
<polygon fill="#eeeeee" stroke="none" points="2667.5,-100 2667.5,-115 2871.5,-115 2871.5,-100 2667.5,-100"/>
<text text-anchor="start" x="2669.5" y="-105" font-family="DejaVu Sans" font-size="10.00" fill="#6666ff">http://purl.obolibrary.org/obo/SO_0000159</text>
</a>
</g>
<polygon fill="none" stroke="#666666" points="2666.5,-99 2666.5,-135 2872.5,-135 2872.5,-99 2666.5,-99"/>
</g>
<!-- node14&#45;&gt;node19 -->
<g id="edge16" class="edge"><title>node14&#45;&gt;node19</title>
<path fill="none" stroke="BLACK" d="M2769.5,-189.896C2769.5,-175.565 2769.5,-161.143 2769.5,-149.016"/>
<polygon fill="BLACK" stroke="BLACK" points="2773,-149.011 2769.5,-139.011 2766,-149.011 2773,-149.011"/>
<text text-anchor="start" x="2769.5" y="-161.8" font-family="Times,serif" font-size="14.00"> </text>
<text text-anchor="start" x="2773.5" y="-161.8" font-family="Times,serif" font-size="10.00" fill="#336633">rdf:type</text>
<text text-anchor="start" x="2806.5" y="-161.8" font-family="Times,serif" font-size="14.00"> </text>
</g>
<!-- node6&#45;&gt;node16 -->
<g id="edge15" class="edge"><title>node6&#45;&gt;node16</title>
<path fill="none" stroke="BLACK" d="M2149.01,-189.896C2148.91,-175.565 2148.81,-161.143 2148.72,-149.016"/>
<polygon fill="BLACK" stroke="BLACK" points="2152.22,-148.985 2148.65,-139.011 2145.22,-149.035 2152.22,-148.985"/>
<text text-anchor="start" x="2149.5" y="-161.8" font-family="Times,serif" font-size="14.00"> </text>
<text text-anchor="start" x="2153.5" y="-161.8" font-family="Times,serif" font-size="10.00" fill="#336633">OBO:RO_0002162</text>
<text text-anchor="start" x="2235.5" y="-161.8" font-family="Times,serif" font-size="14.00"> </text>
</g>
<!-- node6&#45;&gt;node17 -->
<g id="edge22" class="edge"><title>node6&#45;&gt;node17</title>
<path fill="none" stroke="BLACK" d="M2251.5,-189.786C2272.12,-177.735 2294.06,-166.146 2315.5,-157 2328.71,-151.367 2342.93,-146.374 2357.15,-142.002"/>
<polygon fill="BLACK" stroke="BLACK" points="2358.4,-145.282 2366.99,-139.075 2356.41,-138.573 2358.4,-145.282"/>
<text text-anchor="start" x="2315.5" y="-161.8" font-family="Times,serif" font-size="14.00"> </text>
<text text-anchor="start" x="2319.5" y="-161.8" font-family="Times,serif" font-size="10.00" fill="#336633">OBO:BFO_0000050</text>
<text text-anchor="start" x="2406.5" y="-161.8" font-family="Times,serif" font-size="14.00"> </text>
</g>
<!-- node6&#45;&gt;node19 -->
<g id="edge23" class="edge"><title>node6&#45;&gt;node19</title>
<path fill="none" stroke="BLACK" d="M2449.83,-191.51C2481.73,-183.898 2508.92,-177.067 2526.5,-172 2545.95,-166.395 2549.96,-162.284 2569.5,-157 2585.28,-152.732 2615.74,-146.461 2648.23,-140.19"/>
<polygon fill="BLACK" stroke="BLACK" points="2649.2,-143.568 2658.36,-138.247 2647.88,-136.694 2649.2,-143.568"/>
<text text-anchor="start" x="2569.5" y="-161.8" font-family="Times,serif" font-size="14.00"> </text>
<text text-anchor="start" x="2573.5" y="-161.8" font-family="Times,serif" font-size="10.00" fill="#336633">rdf:type</text>
<text text-anchor="start" x="2606.5" y="-161.8" font-family="Times,serif" font-size="14.00"> </text>
</g>
<!-- node13 -->
<g id="node20" class="node"><title>node13</title>
<polygon fill="grey" stroke="none" points="572.5,-115 572.5,-134 920.5,-134 920.5,-115 572.5,-115"/>
<text text-anchor="start" x="583.5" y="-121.8" font-family="DejaVu Sans" font-weight="bold" font-size="14.00">&quot;_:bcffea4366ef7f890f2aSEPIO:0000067&quot;</text>
<g id="a_node20_19"><a xlink:href="https://monarchinitiative.org/.well-known/genid/b344a747065c549662e8" xlink:title="&lt;TABLE&gt;">
<polygon fill="#eeeeee" stroke="none" points="572.5,-100 572.5,-115 920.5,-115 920.5,-100 572.5,-100"/>
<text text-anchor="start" x="574.5" y="-105" font-family="DejaVu Sans" font-size="10.00" fill="#6666ff">https://monarchinitiative.org/.well&#45;known/genid/b344a747065c549662e8</text>
</a>
</g>
<polygon fill="none" stroke="#666666" points="571.5,-99 571.5,-135 921.5,-135 921.5,-99 571.5,-99"/>
</g>
<!-- node0&#45;&gt;node13 -->
<g id="edge25" class="edge"><title>node0&#45;&gt;node13</title>
<path fill="none" stroke="BLACK" d="M920.809,-237.466C884.88,-212.841 825.294,-172.003 785.959,-145.044"/>
<polygon fill="BLACK" stroke="BLACK" points="787.628,-141.944 777.4,-139.178 783.67,-147.718 787.628,-141.944"/>
<text text-anchor="start" x="825.5" y="-161.8" font-family="Times,serif" font-size="14.00"> </text>
<text text-anchor="start" x="829.5" y="-161.8" font-family="Times,serif" font-size="10.00" fill="#336633">OBO:SEPIO_0000085</text>
<text text-anchor="start" x="923.5" y="-161.8" font-family="Times,serif" font-size="14.00"> </text>
</g>
<!-- node21 -->
<g id="node22" class="node"><title>node21</title>
<polygon fill="grey" stroke="none" points="956.5,-115 956.5,-134 1166.5,-134 1166.5,-115 956.5,-115"/>
<text text-anchor="start" x="1007" y="-121.8" font-family="DejaVu Sans" font-weight="bold" font-size="14.00">ECO_0000000</text>
<g id="a_node22_20"><a xlink:href="http://purl.obolibrary.org/obo/ECO_0000000" xlink:title="&lt;TABLE&gt;">
<polygon fill="#eeeeee" stroke="none" points="956.5,-100 956.5,-115 1166.5,-115 1166.5,-100 956.5,-100"/>
<text text-anchor="start" x="958.5" y="-105" font-family="DejaVu Sans" font-size="10.00" fill="#6666ff">http://purl.obolibrary.org/obo/ECO_0000000</text>
</a>
</g>
<polygon fill="none" stroke="#666666" points="955.5,-99 955.5,-135 1167.5,-135 1167.5,-99 955.5,-99"/>
</g>
<!-- node0&#45;&gt;node21 -->
<g id="edge24" class="edge"><title>node0&#45;&gt;node21</title>
<path fill="none" stroke="BLACK" d="M967.968,-237.466C986.761,-213.462 1017.62,-174.052 1038.71,-147.109"/>
<polygon fill="BLACK" stroke="BLACK" points="1041.51,-149.21 1044.92,-139.178 1036,-144.894 1041.51,-149.21"/>
<text text-anchor="start" x="1029.5" y="-161.8" font-family="Times,serif" font-size="14.00"> </text>
<text text-anchor="start" x="1033.5" y="-161.8" font-family="Times,serif" font-size="10.00" fill="#336633">rdf:type</text>
<text text-anchor="start" x="1066.5" y="-161.8" font-family="Times,serif" font-size="14.00"> </text>
</g>
<!-- node20 -->
<g id="node21" class="node"><title>node20</title>
<polygon fill="grey" stroke="none" points="637.5,-20 637.5,-39 855.5,-39 855.5,-20 637.5,-20"/>
<text text-anchor="start" x="684.5" y="-26.8" font-family="DejaVu Sans" font-weight="bold" font-size="14.00">SEPIO_0000067</text>
<g id="a_node21_21"><a xlink:href="http://purl.obolibrary.org/obo/SEPIO_0000067" xlink:title="&lt;TABLE&gt;">
<polygon fill="#eeeeee" stroke="none" points="637.5,-5 637.5,-20 855.5,-20 855.5,-5 637.5,-5"/>
<text text-anchor="start" x="639.5" y="-10" font-family="DejaVu Sans" font-size="10.00" fill="#6666ff">http://purl.obolibrary.org/obo/SEPIO_0000067</text>
</a>
</g>
<polygon fill="none" stroke="#666666" points="636.5,-4 636.5,-40 856.5,-40 856.5,-4 636.5,-4"/>
</g>
<!-- node13&#45;&gt;node20 -->
<g id="edge21" class="edge"><title>node13&#45;&gt;node20</title>
<path fill="none" stroke="BLACK" d="M746.5,-94.8969C746.5,-82.8873 746.5,-67.6175 746.5,-54.242"/>
<polygon fill="BLACK" stroke="BLACK" points="750,-54.0196 746.5,-44.0196 743,-54.0197 750,-54.0196"/>
<text text-anchor="start" x="746.5" y="-66.8" font-family="Times,serif" font-size="14.00"> </text>
<text text-anchor="start" x="750.5" y="-66.8" font-family="Times,serif" font-size="10.00" fill="#336633">rdf:type</text>
<text text-anchor="start" x="783.5" y="-66.8" font-family="Times,serif" font-size="14.00"> </text>
</g>
</g>
</svg>
