<?xml version="1.0" encoding="UTF-8" standalone="no"?>
<!DOCTYPE svg PUBLIC "-//W3C//DTD SVG 1.1//EN"
 "http://www.w3.org/Graphics/SVG/1.1/DTD/svg11.dtd">
<!-- Generated by graphviz version 2.38.0 (20140413.2041)
 -->
<!-- Title: %3 Pages: 1 -->
<svg width="3706pt" height="565pt"
 viewBox="0.00 0.00 3706.00 565.00" xmlns="http://www.w3.org/2000/svg" xmlns:xlink="http://www.w3.org/1999/xlink">
<g id="graph0" class="graph" transform="scale(1 1) rotate(0) translate(4 561)">
<title>%3</title>
<polygon fill="white" stroke="none" points="-4,4 -4,-561 3702,-561 3702,4 -4,4"/>
<!-- node1 -->
<g id="node1" class="node"><title>node1</title>
<polygon fill="grey" stroke="none" points="2412,-523.5 2412,-542.5 2729,-542.5 2729,-523.5 2412,-523.5"/>
<text text-anchor="start" x="2427" y="-530.3" font-family="DejaVu Sans" font-weight="bold" font-size="14.00">MONARCH_b409eb231ce1985a1a4d</text>
<g id="a_node1_0"><a xlink:href="https://monarchinitiative.org/MONARCH_b409eb231ce1985a1a4d" xlink:title="&lt;TABLE&gt;">
<polygon fill="#eeeeee" stroke="none" points="2412,-508.5 2412,-523.5 2729,-523.5 2729,-508.5 2412,-508.5"/>
<text text-anchor="start" x="2414" y="-513.5" font-family="DejaVu Sans" font-size="10.00" fill="#6666ff">https://monarchinitiative.org/MONARCH_b409eb231ce1985a1a4d</text>
</a>
</g>
<polygon fill="none" stroke="#666666" points="2410.5,-507.5 2410.5,-543.5 2729.5,-543.5 2729.5,-507.5 2410.5,-507.5"/>
</g>
<!-- node2 -->
<g id="node2" class="node"><title>node2</title>
<polygon fill="grey" stroke="none" points="253,-257.5 253,-276.5 586,-276.5 586,-257.5 253,-257.5"/>
<text text-anchor="start" x="273.5" y="-264.3" font-family="DejaVu Sans" font-weight="bold" font-size="14.00">&quot;b409eb231ce1985a1a4d_evidence&quot;</text>
<g id="a_node2_1"><a xlink:href="https://monarchinitiative.org/.well-known/genid/bcffea4366ef7f890f2a" xlink:title="&lt;TABLE&gt;">
<polygon fill="#eeeeee" stroke="none" points="253,-242.5 253,-257.5 586,-257.5 586,-242.5 253,-242.5"/>
<text text-anchor="start" x="255" y="-247.5" font-family="DejaVu Sans" font-size="10.00" fill="#6666ff">https://monarchinitiative.org/.well&#45;known/genid/bcffea4366ef7f890f2a</text>
</a>
</g>
<polygon fill="none" stroke="#666666" points="251.5,-241.5 251.5,-277.5 586.5,-277.5 586.5,-241.5 251.5,-241.5"/>
</g>
<!-- node1&#45;&gt;node2 -->
<g id="edge1" class="edge"><title>node1&#45;&gt;node2</title>
<path fill="none" stroke="BLACK" d="M2402.14,-521.423C1934.95,-512.362 648.365,-483.824 567,-443 501.578,-410.175 455.158,-333.71 433.242,-290.904"/>
<polygon fill="BLACK" stroke="BLACK" points="436.295,-289.183 428.693,-281.803 430.034,-292.313 436.295,-289.183"/>
<text text-anchor="start" x="567" y="-408.8" font-family="Times,serif" font-size="14.00"> </text>
<text text-anchor="start" x="571" y="-408.8" font-family="Times,serif" font-size="10.00" fill="#336633">OBO:SEPIO_0000007</text>
<text text-anchor="start" x="665" y="-408.8" font-family="Times,serif" font-size="14.00"> </text>
</g>
<!-- node4 -->
<g id="node3" class="node"><title>node4</title>
<polygon fill="grey" stroke="none" points="2078,-409.5 2078,-428.5 2518,-428.5 2518,-409.5 2078,-409.5"/>
<text text-anchor="start" x="2080" y="-416.3" font-family="DejaVu Sans" font-weight="bold" font-size="14.00">http://www.ncbi.nlm.nih.gov/clinvar/variation/101408</text>
<g id="a_node3_2"><a xlink:href="http://www.ncbi.nlm.nih.gov/clinvar/variation/101408" xlink:title="&lt;TABLE&gt;">
<polygon fill="#eeeeee" stroke="none" points="2078,-394.5 2078,-409.5 2518,-409.5 2518,-394.5 2078,-394.5"/>
<text text-anchor="start" x="2174.5" y="-399.5" font-family="DejaVu Sans" font-size="10.00" fill="#6666ff">http://www.ncbi.nlm.nih.gov/clinvar/variation/101408</text>
</a>
</g>
<polygon fill="none" stroke="#666666" points="2077,-393.5 2077,-429.5 2519,-429.5 2519,-393.5 2077,-393.5"/>
</g>
<!-- node1&#45;&gt;node4 -->
<g id="edge2" class="edge"><title>node1&#45;&gt;node4</title>
<path fill="none" stroke="BLACK" d="M2493.39,-503.488C2468.36,-495.802 2440.66,-486.41 2416,-476 2390.66,-465.306 2363.56,-450.948 2341.73,-438.59"/>
<polygon fill="BLACK" stroke="BLACK" points="2343.45,-435.538 2333.03,-433.611 2339.97,-441.614 2343.45,-435.538"/>
<text text-anchor="start" x="2416" y="-465.8" font-family="Times,serif" font-size="14.00"> </text>
<text text-anchor="start" x="2420" y="-465.8" font-family="Times,serif" font-size="10.00" fill="#336633">OBAN:association_has_subject</text>
<text text-anchor="start" x="2552" y="-465.8" font-family="Times,serif" font-size="14.00"> </text>
</g>
<!-- node6 -->
<g id="node4" class="node"><title>node6</title>
<polygon fill="grey" stroke="none" points="687,-418.5 687,-437.5 1031,-437.5 1031,-418.5 687,-418.5"/>
<text text-anchor="start" x="750.5" y="-425.3" font-family="DejaVu Sans" font-weight="bold" font-size="14.00">&quot;ClinVarAssertion_212295&quot;</text>
<g id="a_node4_3"><a xlink:href="https://monarchinitiative.org/.well-known/genid/bb77ce61eda1e1160cfd" xlink:title="&lt;TABLE&gt;">
<polygon fill="#eeeeee" stroke="none" points="687,-403.5 687,-418.5 1031,-418.5 1031,-403.5 687,-403.5"/>
<text text-anchor="start" x="689" y="-408.5" font-family="DejaVu Sans" font-size="10.00" fill="#6666ff">https://monarchinitiative.org/.well&#45;known/genid/bb77ce61eda1e1160cfd</text>
</a>
</g>
<text text-anchor="start" x="689" y="-390.3" font-family="DejaVu Sans" font-size="14.00">dc:identifier</text>
<text text-anchor="start" x="834" y="-390.3" font-family="DejaVu Sans" font-size="14.00">&quot;SCV000120538.1&quot;</text>
<polygon fill="none" stroke="#666666" points="686,-384 686,-439 1032,-439 1032,-384 686,-384"/>
</g>
<!-- node1&#45;&gt;node6 -->
<g id="edge4" class="edge"><title>node1&#45;&gt;node6</title>
<path fill="none" stroke="BLACK" d="M2402.44,-513.531C2082.85,-492.611 1388.05,-447.131 1050.6,-425.042"/>
<polygon fill="BLACK" stroke="BLACK" points="1050.44,-421.524 1040.23,-424.363 1049.98,-428.509 1050.44,-421.524"/>
<text text-anchor="start" x="1817" y="-465.8" font-family="Times,serif" font-size="14.00"> </text>
<text text-anchor="start" x="1821" y="-465.8" font-family="Times,serif" font-size="10.00" fill="#336633">OBO:SEPIO_0000015</text>
<text text-anchor="start" x="1915" y="-465.8" font-family="Times,serif" font-size="14.00"> </text>
</g>
<!-- node8 -->
<g id="node7" class="node"><title>node8</title>
<polygon fill="grey" stroke="none" points="2734,-409.5 2734,-428.5 2977,-428.5 2977,-409.5 2734,-409.5"/>
<text text-anchor="start" x="2795" y="-416.3" font-family="DejaVu Sans" font-weight="bold" font-size="14.00">RCV000087646</text>
<g id="a_node7_4"><a xlink:href="http://www.ncbi.nlm.nih.gov/clinvar/RCV000087646" xlink:title="&lt;TABLE&gt;">
<polygon fill="#eeeeee" stroke="none" points="2734,-394.5 2734,-409.5 2977,-409.5 2977,-394.5 2734,-394.5"/>
<text text-anchor="start" x="2736" y="-399.5" font-family="DejaVu Sans" font-size="10.00" fill="#6666ff">http://www.ncbi.nlm.nih.gov/clinvar/RCV000087646</text>
</a>
</g>
<polygon fill="none" stroke="#666666" points="2732.5,-393.5 2732.5,-429.5 2977.5,-429.5 2977.5,-393.5 2732.5,-393.5"/>
</g>
<!-- node1&#45;&gt;node8 -->
<g id="edge6" class="edge"><title>node1&#45;&gt;node8</title>
<path fill="none" stroke="BLACK" d="M2623.61,-503.434C2671.32,-484.682 2741.18,-457.229 2791.65,-437.397"/>
<polygon fill="BLACK" stroke="BLACK" points="2793.12,-440.577 2801.15,-433.662 2790.56,-434.062 2793.12,-440.577"/>
<text text-anchor="start" x="2730" y="-465.8" font-family="Times,serif" font-size="14.00"> </text>
<text text-anchor="start" x="2734" y="-465.8" font-family="Times,serif" font-size="10.00" fill="#336633">oboInOwl:hasdbxref</text>
<text text-anchor="start" x="2819" y="-465.8" font-family="Times,serif" font-size="14.00"> </text>
</g>
<!-- node14 -->
<g id="node14" class="node"><title>node14</title>
<polygon fill="grey" stroke="none" points="3026,-257.5 3026,-276.5 3304,-276.5 3304,-257.5 3026,-257.5"/>
<text text-anchor="start" x="3028" y="-264.3" font-family="DejaVu Sans" font-weight="bold" font-size="14.00">&quot;Ehlers&#45;Danlos syndrome, type 4&quot;</text>
<g id="a_node14_5"><a xlink:href="http://omim.org/entry/130050" xlink:title="&lt;TABLE&gt;">
<polygon fill="#eeeeee" stroke="none" points="3026,-242.5 3026,-257.5 3304,-257.5 3304,-242.5 3026,-242.5"/>
<text text-anchor="start" x="3094" y="-247.5" font-family="DejaVu Sans" font-size="10.00" fill="#6666ff">http://omim.org/entry/130050</text>
</a>
</g>
<polygon fill="none" stroke="#666666" points="3025,-241.5 3025,-277.5 3305,-277.5 3305,-241.5 3025,-241.5"/>
</g>
<!-- node1&#45;&gt;node14 -->
<g id="edge11" class="edge"><title>node1&#45;&gt;node14</title>
<path fill="none" stroke="BLACK" d="M2563.88,-503.332C2556.23,-471.929 2547.66,-413.151 2579,-380 2644.95,-310.237 2915.34,-354.132 3008,-329 3045.72,-318.77 3086.08,-300.994 3116.43,-286.114"/>
<polygon fill="BLACK" stroke="BLACK" points="3118.12,-289.184 3125.52,-281.6 3115.01,-282.915 3118.12,-289.184"/>
<text text-anchor="start" x="2579" y="-408.8" font-family="Times,serif" font-size="14.00"> </text>
<text text-anchor="start" x="2583" y="-408.8" font-family="Times,serif" font-size="10.00" fill="#336633">OBAN:association_has_object</text>
<text text-anchor="start" x="2711" y="-408.8" font-family="Times,serif" font-size="14.00"> </text>
</g>
<!-- node19 -->
<g id="node20" class="node"><title>node19</title>
<polygon fill="grey" stroke="none" points="3013,-409.5 3013,-428.5 3167,-428.5 3167,-409.5 3013,-409.5"/>
<text text-anchor="start" x="3044" y="-416.3" font-family="DejaVu Sans" font-weight="bold" font-size="14.00">association</text>
<g id="a_node20_6"><a xlink:href="http://purl.org/oban/association" xlink:title="&lt;TABLE&gt;">
<polygon fill="#eeeeee" stroke="none" points="3013,-394.5 3013,-409.5 3167,-409.5 3167,-394.5 3013,-394.5"/>
<text text-anchor="start" x="3015" y="-399.5" font-family="DejaVu Sans" font-size="10.00" fill="#6666ff">http://purl.org/oban/association</text>
</a>
</g>
<polygon fill="none" stroke="#666666" points="3012,-393.5 3012,-429.5 3168,-429.5 3168,-393.5 3012,-393.5"/>
</g>
<!-- node1&#45;&gt;node19 -->
<g id="edge18" class="edge"><title>node1&#45;&gt;node19</title>
<path fill="none" stroke="BLACK" d="M2701.76,-503.472C2785.93,-488.983 2897.07,-467.889 2994,-443 3001.71,-441.021 3009.71,-438.782 3017.65,-436.438"/>
<polygon fill="BLACK" stroke="BLACK" points="3018.73,-439.77 3027.29,-433.537 3016.71,-433.067 3018.73,-439.77"/>
<text text-anchor="start" x="2914" y="-465.8" font-family="Times,serif" font-size="14.00"> </text>
<text text-anchor="start" x="2918" y="-465.8" font-family="Times,serif" font-size="10.00" fill="#336633">rdf:type</text>
<text text-anchor="start" x="2951" y="-465.8" font-family="Times,serif" font-size="14.00"> </text>
</g>
<!-- node20 -->
<g id="node21" class="node"><title>node20</title>
<polygon fill="grey" stroke="none" points="3203,-409.5 3203,-428.5 3421,-428.5 3421,-409.5 3203,-409.5"/>
<text text-anchor="start" x="3251" y="-416.3" font-family="DejaVu Sans" font-weight="bold" font-size="14.00">GENO_0000840</text>
<g id="a_node21_7"><a xlink:href="http://purl.obolibrary.org/obo/GENO_0000840" xlink:title="&lt;TABLE&gt;">
<polygon fill="#eeeeee" stroke="none" points="3203,-394.5 3203,-409.5 3421,-409.5 3421,-394.5 3203,-394.5"/>
<text text-anchor="start" x="3205" y="-399.5" font-family="DejaVu Sans" font-size="10.00" fill="#6666ff">http://purl.obolibrary.org/obo/GENO_0000840</text>
</a>
</g>
<polygon fill="none" stroke="#666666" points="3202,-393.5 3202,-429.5 3422,-429.5 3422,-393.5 3202,-393.5"/>
</g>
<!-- node1&#45;&gt;node20 -->
<g id="edge23" class="edge"><title>node1&#45;&gt;node20</title>
<path fill="none" stroke="BLACK" d="M2737.58,-507.659C2861.72,-493.885 3034.69,-471.961 3185,-443 3196.11,-440.86 3207.71,-438.396 3219.19,-435.815"/>
<polygon fill="BLACK" stroke="BLACK" points="3220.26,-439.16 3229.23,-433.522 3218.7,-432.336 3220.26,-439.16"/>
<text text-anchor="start" x="3069" y="-465.8" font-family="Times,serif" font-size="14.00"> </text>
<text text-anchor="start" x="3073" y="-465.8" font-family="Times,serif" font-size="10.00" fill="#336633">OBAN:association_has_predicate</text>
<text text-anchor="start" x="3213" y="-465.8" font-family="Times,serif" font-size="14.00"> </text>
</g>
<!-- node16 -->
<g id="node17" class="node"><title>node16</title>
<polygon fill="grey" stroke="none" points="393,-115 393,-134 603,-134 603,-115 393,-115"/>
<text text-anchor="start" x="443.5" y="-121.8" font-family="DejaVu Sans" font-weight="bold" font-size="14.00">ECO_0000000</text>
<g id="a_node17_8"><a xlink:href="http://purl.obolibrary.org/obo/ECO_0000000" xlink:title="&lt;TABLE&gt;">
<polygon fill="#eeeeee" stroke="none" points="393,-100 393,-115 603,-115 603,-100 393,-100"/>
<text text-anchor="start" x="395" y="-105" font-family="DejaVu Sans" font-size="10.00" fill="#6666ff">http://purl.obolibrary.org/obo/ECO_0000000</text>
</a>
</g>
<polygon fill="none" stroke="#666666" points="392,-99 392,-135 604,-135 604,-99 392,-99"/>
</g>
<!-- node2&#45;&gt;node16 -->
<g id="edge14" class="edge"><title>node2&#45;&gt;node16</title>
<path fill="none" stroke="BLACK" d="M430.827,-237.466C444.149,-213.772 465.912,-175.068 481.042,-148.16"/>
<polygon fill="BLACK" stroke="BLACK" points="484.242,-149.61 486.092,-139.178 478.14,-146.179 484.242,-149.61"/>
<text text-anchor="start" x="475" y="-161.8" font-family="Times,serif" font-size="14.00"> </text>
<text text-anchor="start" x="479" y="-161.8" font-family="Times,serif" font-size="10.00" fill="#336633">rdf:type</text>
<text text-anchor="start" x="512" y="-161.8" font-family="Times,serif" font-size="14.00"> </text>
</g>
<!-- node17 -->
<g id="node18" class="node"><title>node17</title>
<polygon fill="grey" stroke="none" points="9,-115 9,-134 357,-134 357,-115 9,-115"/>
<text text-anchor="start" x="115" y="-121.8" font-family="DejaVu Sans" font-weight="bold" font-size="14.00">&quot;clinical testing&quot;</text>
<g id="a_node18_9"><a xlink:href="https://monarchinitiative.org/.well-known/genid/b344a747065c549662e8" xlink:title="&lt;TABLE&gt;">
<polygon fill="#eeeeee" stroke="none" points="9,-100 9,-115 357,-115 357,-100 9,-100"/>
<text text-anchor="start" x="11" y="-105" font-family="DejaVu Sans" font-size="10.00" fill="#6666ff">https://monarchinitiative.org/.well&#45;known/genid/b344a747065c549662e8</text>
</a>
</g>
<polygon fill="none" stroke="#666666" points="8,-99 8,-135 358,-135 358,-99 8,-99"/>
</g>
<!-- node2&#45;&gt;node17 -->
<g id="edge21" class="edge"><title>node2&#45;&gt;node17</title>
<path fill="none" stroke="BLACK" d="M383.668,-237.466C341.958,-212.634 272.555,-171.315 227.289,-144.367"/>
<polygon fill="BLACK" stroke="BLACK" points="228.956,-141.286 218.573,-139.178 225.375,-147.301 228.956,-141.286"/>
<text text-anchor="start" x="273" y="-161.8" font-family="Times,serif" font-size="14.00"> </text>
<text text-anchor="start" x="277" y="-161.8" font-family="Times,serif" font-size="10.00" fill="#336633">OBO:SEPIO_0000085</text>
<text text-anchor="start" x="371" y="-161.8" font-family="Times,serif" font-size="14.00"> </text>
</g>
<!-- node3 -->
<g id="node6" class="node"><title>node3</title>
<polygon fill="grey" stroke="none" points="2408,-304.5 2408,-323.5 2990,-323.5 2990,-304.5 2408,-304.5"/>
<text text-anchor="start" x="2410" y="-311.3" font-family="DejaVu Sans" font-weight="bold" font-size="14.00">&quot;NM_000090.3(COL3A1):c.[=/3440_3466del27] (p.Pro1147_Gly1155del)&quot;</text>
<g id="a_node6_10"><a xlink:href="http://www.ncbi.nlm.nih.gov/clinvar/variation/107155" xlink:title="&lt;TABLE&gt;">
<polygon fill="#eeeeee" stroke="none" points="2408,-289.5 2408,-304.5 2990,-304.5 2990,-289.5 2408,-289.5"/>
<text text-anchor="start" x="2575.5" y="-294.5" font-family="DejaVu Sans" font-size="10.00" fill="#6666ff">http://www.ncbi.nlm.nih.gov/clinvar/variation/107155</text>
</a>
</g>
<text text-anchor="start" x="2410" y="-276.3" font-family="DejaVu Sans" font-size="14.00">oboInOwl:hasExactSynonym</text>
<text text-anchor="start" x="2664" y="-276.3" font-family="DejaVu Sans" font-size="14.00">&quot;LRG_3p1:p.Pro1147_Gly1155del&quot;</text>
<text text-anchor="start" x="2410" y="-257.3" font-family="DejaVu Sans" font-size="14.00">oboInOwl:hasExactSynonym</text>
<text text-anchor="start" x="2664" y="-257.3" font-family="DejaVu Sans" font-size="14.00">&quot;LRG_3t1:c.[=/3440_3466del27]&quot;</text>
<text text-anchor="start" x="2410" y="-238.3" font-family="DejaVu Sans" font-size="14.00">oboInOwl:hasExactSynonym</text>
<text text-anchor="start" x="2664" y="-238.3" font-family="DejaVu Sans" font-size="14.00">&quot;NM_000090.3:c.3440&#45;3466del&quot;</text>
<text text-anchor="start" x="2410" y="-219.3" font-family="DejaVu Sans" font-size="14.00">oboInOwl:hasExactSynonym</text>
<text text-anchor="start" x="2664" y="-219.3" font-family="DejaVu Sans" font-size="14.00">&quot;NM_000090.3:c.[=/3440_3466del27]&quot;</text>
<text text-anchor="start" x="2410" y="-200.3" font-family="DejaVu Sans" font-size="14.00">oboInOwl:hasExactSynonym</text>
<text text-anchor="start" x="2664" y="-200.3" font-family="DejaVu Sans" font-size="14.00">&quot;NP_000081.1:p.Pro1147_Gly1155del&quot;</text>
<polygon fill="none" stroke="#666666" points="2407,-194 2407,-325 2991,-325 2991,-194 2407,-194"/>
</g>
<!-- node4&#45;&gt;node3 -->
<g id="edge5" class="edge"><title>node4&#45;&gt;node3</title>
<path fill="none" stroke="BLACK" d="M2301.85,-389.235C2305.48,-375.247 2312.33,-357.625 2325,-347 2329.03,-343.623 2353.77,-336.66 2388.78,-328.082"/>
<polygon fill="BLACK" stroke="BLACK" points="2390.02,-331.382 2398.91,-325.622 2388.37,-324.579 2390.02,-331.382"/>
<text text-anchor="start" x="2325" y="-351.8" font-family="Times,serif" font-size="14.00"> </text>
<text text-anchor="start" x="2329" y="-351.8" font-family="Times,serif" font-size="10.00" fill="#336633">OBO:GENO_0000382</text>
<text text-anchor="start" x="2425" y="-351.8" font-family="Times,serif" font-size="14.00"> </text>
</g>
<!-- node5 -->
<g id="node8" class="node"><title>node5</title>
<polygon fill="grey" stroke="none" points="1661,-304.5 1661,-323.5 2246,-323.5 2246,-304.5 1661,-304.5"/>
<text text-anchor="start" x="1663" y="-311.3" font-family="DejaVu Sans" font-weight="bold" font-size="14.00">&quot;NM_000090.3(COL3A1):c.[=/3426_3452del27] (p.Gly1143_Asp1151del)&quot;</text>
<g id="a_node8_11"><a xlink:href="http://www.ncbi.nlm.nih.gov/clinvar/variation/107154" xlink:title="&lt;TABLE&gt;">
<polygon fill="#eeeeee" stroke="none" points="1661,-289.5 1661,-304.5 2246,-304.5 2246,-289.5 1661,-289.5"/>
<text text-anchor="start" x="1830" y="-294.5" font-family="DejaVu Sans" font-size="10.00" fill="#6666ff">http://www.ncbi.nlm.nih.gov/clinvar/variation/107154</text>
</a>
</g>
<text text-anchor="start" x="1663" y="-276.3" font-family="DejaVu Sans" font-size="14.00">oboInOwl:hasExactSynonym</text>
<text text-anchor="start" x="1918" y="-276.3" font-family="DejaVu Sans" font-size="14.00">&quot;LRG_3p1:p.Gly1143_Asp1151del&quot;</text>
<text text-anchor="start" x="1663" y="-257.3" font-family="DejaVu Sans" font-size="14.00">oboInOwl:hasExactSynonym</text>
<text text-anchor="start" x="1918" y="-257.3" font-family="DejaVu Sans" font-size="14.00">&quot;LRG_3t1:c.[=/3426_3452del27]&quot;</text>
<text text-anchor="start" x="1663" y="-238.3" font-family="DejaVu Sans" font-size="14.00">oboInOwl:hasExactSynonym</text>
<text text-anchor="start" x="1918" y="-238.3" font-family="DejaVu Sans" font-size="14.00">&quot;NM_000090.3:c.3426&#45;3452del&quot;</text>
<text text-anchor="start" x="1663" y="-219.3" font-family="DejaVu Sans" font-size="14.00">oboInOwl:hasExactSynonym</text>
<text text-anchor="start" x="1918" y="-219.3" font-family="DejaVu Sans" font-size="14.00">&quot;NM_000090.3:c.[=/3426_3452del27]&quot;</text>
<text text-anchor="start" x="1663" y="-200.3" font-family="DejaVu Sans" font-size="14.00">oboInOwl:hasExactSynonym</text>
<text text-anchor="start" x="1918" y="-200.3" font-family="DejaVu Sans" font-size="14.00">&quot;NP_000081.1:p.Gly1143_Asp1151del&quot;</text>
<polygon fill="none" stroke="#666666" points="1659.5,-194 1659.5,-325 2246.5,-325 2246.5,-194 1659.5,-194"/>
</g>
<!-- node4&#45;&gt;node5 -->
<g id="edge25" class="edge"><title>node4&#45;&gt;node5</title>
<path fill="none" stroke="BLACK" d="M2241.39,-389.389C2219.86,-381.137 2195.18,-371.408 2173,-362 2151.74,-352.981 2129.48,-343.161 2107.62,-333.3"/>
<polygon fill="BLACK" stroke="BLACK" points="2108.84,-330.009 2098.29,-329.073 2105.95,-336.386 2108.84,-330.009"/>
<text text-anchor="start" x="2173" y="-351.8" font-family="Times,serif" font-size="14.00"> </text>
<text text-anchor="start" x="2177" y="-351.8" font-family="Times,serif" font-size="10.00" fill="#336633">OBO:GENO_0000382</text>
<text text-anchor="start" x="2273" y="-351.8" font-family="Times,serif" font-size="14.00"> </text>
</g>
<!-- node11 -->
<g id="node10" class="node"><title>node11</title>
<polygon fill="grey" stroke="none" points="2180,-115 2180,-134 2402,-134 2402,-115 2180,-115"/>
<text text-anchor="start" x="2224.5" y="-121.8" font-family="DejaVu Sans" font-weight="bold" font-size="14.00">NCBITaxon_9606</text>
<g id="a_node10_12"><a xlink:href="http://purl.obolibrary.org/obo/NCBITaxon_9606" xlink:title="&lt;TABLE&gt;">
<polygon fill="#eeeeee" stroke="none" points="2180,-100 2180,-115 2402,-115 2402,-100 2180,-100"/>
<text text-anchor="start" x="2182" y="-105" font-family="DejaVu Sans" font-size="10.00" fill="#6666ff">http://purl.obolibrary.org/obo/NCBITaxon_9606</text>
</a>
</g>
<polygon fill="none" stroke="#666666" points="2179,-99 2179,-135 2403,-135 2403,-99 2179,-99"/>
</g>
<!-- node4&#45;&gt;node11 -->
<g id="edge16" class="edge"><title>node4&#45;&gt;node11</title>
<path fill="none" stroke="BLACK" d="M2297.5,-389.464C2296.28,-338.676 2293.18,-209.136 2291.75,-149.241"/>
<polygon fill="BLACK" stroke="BLACK" points="2295.25,-149.152 2291.51,-139.238 2288.25,-149.319 2295.25,-149.152"/>
<text text-anchor="start" x="2296" y="-256.8" font-family="Times,serif" font-size="14.00"> </text>
<text text-anchor="start" x="2300" y="-256.8" font-family="Times,serif" font-size="10.00" fill="#336633">OBO:RO_0002162</text>
<text text-anchor="start" x="2382" y="-256.8" font-family="Times,serif" font-size="14.00"> </text>
</g>
<!-- node4&#45;&gt;node14 -->
<g id="edge22" class="edge"><title>node4&#45;&gt;node14</title>
<path fill="none" stroke="BLACK" d="M2363.51,-389.49C2384.83,-381.804 2408.31,-372.411 2429,-362 2439.9,-356.514 2440.36,-350.666 2452,-347 2569.91,-309.862 2887.41,-356.205 3008,-329 3046.91,-320.222 3088.14,-301.839 3118.59,-286.325"/>
<polygon fill="BLACK" stroke="BLACK" points="3120.4,-289.325 3127.67,-281.616 3117.18,-283.11 3120.4,-289.325"/>
<text text-anchor="start" x="2452" y="-351.8" font-family="Times,serif" font-size="14.00"> </text>
<text text-anchor="start" x="2456" y="-351.8" font-family="Times,serif" font-size="10.00" fill="#336633">OBO:GENO_0000840</text>
<text text-anchor="start" x="2552" y="-351.8" font-family="Times,serif" font-size="14.00"> </text>
</g>
<!-- node21 -->
<g id="node22" class="node"><title>node21</title>
<polygon fill="grey" stroke="none" points="1398,-257.5 1398,-276.5 1625,-276.5 1625,-257.5 1398,-257.5"/>
<text text-anchor="start" x="1440.5" y="-264.3" font-family="DejaVu Sans" font-weight="bold" font-size="14.00">mosaic_genotype</text>
<g id="a_node22_13"><a xlink:href="https://monarchinitiative.org/mosaic_genotype" xlink:title="&lt;TABLE&gt;">
<polygon fill="#eeeeee" stroke="none" points="1398,-242.5 1398,-257.5 1625,-257.5 1625,-242.5 1398,-242.5"/>
<text text-anchor="start" x="1400" y="-247.5" font-family="DejaVu Sans" font-size="10.00" fill="#6666ff">https://monarchinitiative.org/mosaic_genotype</text>
</a>
</g>
<polygon fill="none" stroke="#666666" points="1396.5,-241.5 1396.5,-277.5 1625.5,-277.5 1625.5,-241.5 1396.5,-241.5"/>
</g>
<!-- node4&#45;&gt;node21 -->
<g id="edge24" class="edge"><title>node4&#45;&gt;node21</title>
<path fill="none" stroke="BLACK" d="M2068.71,-402.114C1940.78,-392.483 1779.89,-372.064 1642,-329 1610.25,-319.086 1577.08,-301.657 1552.06,-286.861"/>
<polygon fill="BLACK" stroke="BLACK" points="1553.6,-283.704 1543.23,-281.548 1549.99,-289.702 1553.6,-283.704"/>
<text text-anchor="start" x="1765" y="-351.8" font-family="Times,serif" font-size="14.00"> </text>
<text text-anchor="start" x="1769" y="-351.8" font-family="Times,serif" font-size="10.00" fill="#336633">rdf:type</text>
<text text-anchor="start" x="1802" y="-351.8" font-family="Times,serif" font-size="14.00"> </text>
</g>
<!-- node6&#45;&gt;node2 -->
<g id="edge19" class="edge"><title>node6&#45;&gt;node2</title>
<path fill="none" stroke="BLACK" d="M757.712,-379.903C738.831,-374.059 719.292,-367.917 701,-362 625.77,-337.663 540.489,-306.455 483.597,-285.108"/>
<polygon fill="BLACK" stroke="BLACK" points="484.607,-281.749 474.015,-281.506 482.144,-288.301 484.607,-281.749"/>
<text text-anchor="start" x="701" y="-351.8" font-family="Times,serif" font-size="14.00"> </text>
<text text-anchor="start" x="705" y="-351.8" font-family="Times,serif" font-size="10.00" fill="#336633">OBO:SEPIO_0000111</text>
<text text-anchor="start" x="799" y="-351.8" font-family="Times,serif" font-size="14.00"> </text>
</g>
<!-- node7 -->
<g id="node5" class="node"><title>node7</title>
<polygon fill="grey" stroke="none" points="622,-257.5 622,-276.5 840,-276.5 840,-257.5 622,-257.5"/>
<text text-anchor="start" x="669" y="-264.3" font-family="DejaVu Sans" font-weight="bold" font-size="14.00">SEPIO_0000001</text>
<g id="a_node5_14"><a xlink:href="http://purl.obolibrary.org/obo/SEPIO_0000001" xlink:title="&lt;TABLE&gt;">
<polygon fill="#eeeeee" stroke="none" points="622,-242.5 622,-257.5 840,-257.5 840,-242.5 622,-242.5"/>
<text text-anchor="start" x="624" y="-247.5" font-family="DejaVu Sans" font-size="10.00" fill="#6666ff">http://purl.obolibrary.org/obo/SEPIO_0000001</text>
</a>
</g>
<polygon fill="none" stroke="#666666" points="621,-241.5 621,-277.5 841,-277.5 841,-241.5 621,-241.5"/>
</g>
<!-- node6&#45;&gt;node7 -->
<g id="edge3" class="edge"><title>node6&#45;&gt;node7</title>
<path fill="none" stroke="BLACK" d="M832.788,-379.783C810.119,-353.218 777.596,-315.104 755.455,-289.159"/>
<polygon fill="BLACK" stroke="BLACK" points="758.094,-286.858 748.94,-281.523 752.769,-291.402 758.094,-286.858"/>
<text text-anchor="start" x="818" y="-351.8" font-family="Times,serif" font-size="14.00"> </text>
<text text-anchor="start" x="822" y="-351.8" font-family="Times,serif" font-size="10.00" fill="#336633">rdf:type</text>
<text text-anchor="start" x="855" y="-351.8" font-family="Times,serif" font-size="14.00"> </text>
</g>
<!-- node9 -->
<g id="node15" class="node"><title>node9</title>
<polygon fill="grey" stroke="none" points="877,-257.5 877,-276.5 1362,-276.5 1362,-257.5 877,-257.5"/>
<text text-anchor="start" x="879" y="-264.3" font-family="DejaVu Sans" font-weight="bold" font-size="14.00">&quot;Collagen Diagnostic Laboratory,University of Washington&quot;</text>
<g id="a_node15_15"><a xlink:href="http://www.ncbi.nlm.nih.gov/clinvar/submitters/1058" xlink:title="&lt;TABLE&gt;">
<polygon fill="#eeeeee" stroke="none" points="877,-242.5 877,-257.5 1362,-257.5 1362,-242.5 877,-242.5"/>
<text text-anchor="start" x="997" y="-247.5" font-family="DejaVu Sans" font-size="10.00" fill="#6666ff">http://www.ncbi.nlm.nih.gov/clinvar/submitters/1058</text>
</a>
</g>
<polygon fill="none" stroke="#666666" points="875.5,-241.5 875.5,-277.5 1362.5,-277.5 1362.5,-241.5 875.5,-241.5"/>
</g>
<!-- node6&#45;&gt;node9 -->
<g id="edge13" class="edge"><title>node6&#45;&gt;node9</title>
<path fill="none" stroke="BLACK" d="M911.928,-379.964C959.534,-352.5 1028.72,-312.585 1073.79,-286.583"/>
<polygon fill="BLACK" stroke="BLACK" points="1075.56,-289.605 1082.47,-281.576 1072.06,-283.542 1075.56,-289.605"/>
<text text-anchor="start" x="966" y="-351.8" font-family="Times,serif" font-size="14.00"> </text>
<text text-anchor="start" x="970" y="-351.8" font-family="Times,serif" font-size="10.00" fill="#336633">OBO:SEPIO_0000018</text>
<text text-anchor="start" x="1064" y="-351.8" font-family="Times,serif" font-size="14.00"> </text>
</g>
<!-- node10 -->
<g id="node9" class="node"><title>node10</title>
<polygon fill="grey" stroke="none" points="2461,-115 2461,-134 2797,-134 2797,-115 2461,-115"/>
<text text-anchor="start" x="2463" y="-121.8" font-family="DejaVu Sans" font-weight="bold" font-size="14.00">https://www.ncbi.nlm.nih.gov/gene/1281</text>
<g id="a_node9_16"><a xlink:href="https://www.ncbi.nlm.nih.gov/gene/1281" xlink:title="&lt;TABLE&gt;">
<polygon fill="#eeeeee" stroke="none" points="2461,-100 2461,-115 2797,-115 2797,-100 2461,-100"/>
<text text-anchor="start" x="2534.5" y="-105" font-family="DejaVu Sans" font-size="10.00" fill="#6666ff">https://www.ncbi.nlm.nih.gov/gene/1281</text>
</a>
</g>
<polygon fill="none" stroke="#666666" points="2460,-99 2460,-135 2798,-135 2798,-99 2460,-99"/>
</g>
<!-- node3&#45;&gt;node10 -->
<g id="edge20" class="edge"><title>node3&#45;&gt;node10</title>
<path fill="none" stroke="BLACK" d="M2664.82,-189.896C2657.54,-175.276 2650.2,-160.56 2644.09,-148.284"/>
<polygon fill="BLACK" stroke="BLACK" points="2647.06,-146.4 2639.47,-139.011 2640.79,-149.522 2647.06,-146.4"/>
<text text-anchor="start" x="2656" y="-161.8" font-family="Times,serif" font-size="14.00"> </text>
<text text-anchor="start" x="2660" y="-161.8" font-family="Times,serif" font-size="10.00" fill="#336633">OBO:BFO_0000050</text>
<text text-anchor="start" x="2747" y="-161.8" font-family="Times,serif" font-size="14.00"> </text>
</g>
<!-- node3&#45;&gt;node11 -->
<g id="edge8" class="edge"><title>node3&#45;&gt;node11</title>
<path fill="none" stroke="BLACK" d="M2552.4,-189.9C2523.78,-177.944 2493.74,-166.36 2465,-157 2447.33,-151.244 2428.38,-146.043 2409.71,-141.453"/>
<polygon fill="BLACK" stroke="BLACK" points="2410.53,-138.05 2399.99,-139.109 2408.89,-144.855 2410.53,-138.05"/>
<text text-anchor="start" x="2505" y="-161.8" font-family="Times,serif" font-size="14.00"> </text>
<text text-anchor="start" x="2509" y="-161.8" font-family="Times,serif" font-size="10.00" fill="#336633">OBO:RO_0002162</text>
<text text-anchor="start" x="2591" y="-161.8" font-family="Times,serif" font-size="14.00"> </text>
</g>
<!-- node12 -->
<g id="node11" class="node"><title>node12</title>
<polygon fill="grey" stroke="none" points="1899,-115 1899,-134 2103,-134 2103,-115 1899,-115"/>
<text text-anchor="start" x="1951.5" y="-121.8" font-family="DejaVu Sans" font-weight="bold" font-size="14.00">SO_0000159</text>
<g id="a_node11_17"><a xlink:href="http://purl.obolibrary.org/obo/SO_0000159" xlink:title="&lt;TABLE&gt;">
<polygon fill="#eeeeee" stroke="none" points="1899,-100 1899,-115 2103,-115 2103,-100 1899,-100"/>
<text text-anchor="start" x="1901" y="-105" font-family="DejaVu Sans" font-size="10.00" fill="#6666ff">http://purl.obolibrary.org/obo/SO_0000159</text>
</a>
</g>
<polygon fill="none" stroke="#666666" points="1898,-99 1898,-135 2104,-135 2104,-99 1898,-99"/>
</g>
<!-- node3&#45;&gt;node12 -->
<g id="edge26" class="edge"><title>node3&#45;&gt;node12</title>
<path fill="none" stroke="BLACK" d="M2460.44,-189.857C2446.59,-184.234 2433.02,-178.28 2420,-172 2409.34,-166.858 2409.17,-160.916 2398,-157 2348.37,-139.595 2214.32,-144.403 2162,-139 2149.15,-137.673 2135.75,-136.148 2122.39,-134.539"/>
<polygon fill="BLACK" stroke="BLACK" points="2122.55,-131.033 2112.2,-133.294 2121.7,-137.981 2122.55,-131.033"/>
<text text-anchor="start" x="2420" y="-161.8" font-family="Times,serif" font-size="14.00"> </text>
<text text-anchor="start" x="2424" y="-161.8" font-family="Times,serif" font-size="10.00" fill="#336633">rdf:type</text>
<text text-anchor="start" x="2457" y="-161.8" font-family="Times,serif" font-size="14.00"> </text>
</g>
<!-- node5&#45;&gt;node10 -->
<g id="edge7" class="edge"><title>node5&#45;&gt;node10</title>
<path fill="none" stroke="BLACK" d="M2168.67,-189.988C2212.79,-177.665 2259.14,-165.922 2303,-157 2330.47,-151.413 2384.94,-144.363 2441.62,-137.799"/>
<polygon fill="BLACK" stroke="BLACK" points="2442.31,-141.242 2451.85,-136.622 2441.51,-134.288 2442.31,-141.242"/>
<text text-anchor="start" x="2303" y="-161.8" font-family="Times,serif" font-size="14.00"> </text>
<text text-anchor="start" x="2307" y="-161.8" font-family="Times,serif" font-size="10.00" fill="#336633">OBO:BFO_0000050</text>
<text text-anchor="start" x="2394" y="-161.8" font-family="Times,serif" font-size="14.00"> </text>
</g>
<!-- node5&#45;&gt;node11 -->
<g id="edge17" class="edge"><title>node5&#45;&gt;node11</title>
<path fill="none" stroke="BLACK" d="M2010.62,-189.809C2024.28,-177.149 2039.67,-165.321 2056,-157 2075.1,-147.267 2117.27,-139.021 2160.7,-132.654"/>
<polygon fill="BLACK" stroke="BLACK" points="2161.45,-136.081 2170.86,-131.2 2160.46,-129.152 2161.45,-136.081"/>
<text text-anchor="start" x="2056" y="-161.8" font-family="Times,serif" font-size="14.00"> </text>
<text text-anchor="start" x="2060" y="-161.8" font-family="Times,serif" font-size="10.00" fill="#336633">OBO:RO_0002162</text>
<text text-anchor="start" x="2142" y="-161.8" font-family="Times,serif" font-size="14.00"> </text>
</g>
<!-- node5&#45;&gt;node12 -->
<g id="edge9" class="edge"><title>node5&#45;&gt;node12</title>
<path fill="none" stroke="BLACK" d="M1956.96,-189.808C1959.15,-178.527 1962.36,-167.2 1967,-157 1968.54,-153.612 1970.48,-150.299 1972.63,-147.126"/>
<polygon fill="BLACK" stroke="BLACK" points="1975.48,-149.17 1978.75,-139.095 1969.91,-144.926 1975.48,-149.17"/>
<text text-anchor="start" x="1967" y="-161.8" font-family="Times,serif" font-size="14.00"> </text>
<text text-anchor="start" x="1971" y="-161.8" font-family="Times,serif" font-size="10.00" fill="#336633">rdf:type</text>
<text text-anchor="start" x="2004" y="-161.8" font-family="Times,serif" font-size="14.00"> </text>
</g>
<!-- node0 -->
<g id="node12" class="node"><title>node0</title>
<polygon fill="grey" stroke="none" points="3423,-532.5 3423,-551.5 3689,-551.5 3689,-532.5 3423,-532.5"/>
<text text-anchor="start" x="3484" y="-539.3" font-family="DejaVu Sans" font-weight="bold" font-size="14.00">RCV000087646.nt</text>
<g id="a_node12_18"><a xlink:href="https://data.monarchinitiative.org/ttl/RCV000087646.nt" xlink:title="&lt;TABLE&gt;">
<polygon fill="#eeeeee" stroke="none" points="3423,-517.5 3423,-532.5 3689,-532.5 3689,-517.5 3423,-517.5"/>
<text text-anchor="start" x="3425" y="-522.5" font-family="DejaVu Sans" font-size="10.00" fill="#6666ff">https://data.monarchinitiative.org/ttl/RCV000087646.nt</text>
</a>
</g>
<text text-anchor="start" x="3425" y="-504.3" font-family="DejaVu Sans" font-size="14.00">owl:versionInfo</text>
<text text-anchor="start" x="3563" y="-504.3" font-family="DejaVu Sans" font-size="14.00">&quot;2019&#45;04&#45;03&quot;</text>
<polygon fill="none" stroke="#666666" points="3422,-498 3422,-553 3690,-553 3690,-498 3422,-498"/>
</g>
<!-- node13 -->
<g id="node13" class="node"><title>node13</title>
<polygon fill="grey" stroke="none" points="3457,-409.5 3457,-428.5 3655,-428.5 3655,-409.5 3457,-409.5"/>
<text text-anchor="start" x="3519" y="-416.3" font-family="DejaVu Sans" font-weight="bold" font-size="14.00">Ontology</text>
<g id="a_node13_19"><a xlink:href="http://www.w3.org/2002/07/owl#Ontology" xlink:title="&lt;TABLE&gt;">
<polygon fill="#eeeeee" stroke="none" points="3457,-394.5 3457,-409.5 3655,-409.5 3655,-394.5 3457,-394.5"/>
<text text-anchor="start" x="3459" y="-399.5" font-family="DejaVu Sans" font-size="10.00" fill="#6666ff">http://www.w3.org/2002/07/owl#Ontology</text>
</a>
</g>
<polygon fill="none" stroke="#666666" points="3456,-393.5 3456,-429.5 3656,-429.5 3656,-393.5 3456,-393.5"/>
</g>
<!-- node0&#45;&gt;node13 -->
<g id="edge10" class="edge"><title>node0&#45;&gt;node13</title>
<path fill="none" stroke="BLACK" d="M3556,-493.896C3556,-478.319 3556,-459.416 3556,-443.749"/>
<polygon fill="BLACK" stroke="BLACK" points="3559.5,-443.501 3556,-433.501 3552.5,-443.501 3559.5,-443.501"/>
<text text-anchor="start" x="3556" y="-465.8" font-family="Times,serif" font-size="14.00"> </text>
<text text-anchor="start" x="3560" y="-465.8" font-family="Times,serif" font-size="10.00" fill="#336633">rdf:type</text>
<text text-anchor="start" x="3593" y="-465.8" font-family="Times,serif" font-size="14.00"> </text>
</g>
<!-- node15 -->
<g id="node16" class="node"><title>node15</title>
<polygon fill="grey" stroke="none" points="1026,-115 1026,-134 1213,-134 1213,-115 1026,-115"/>
<text text-anchor="start" x="1068" y="-121.8" font-family="DejaVu Sans" font-weight="bold" font-size="14.00">organization</text>
<g id="a_node16_20"><a xlink:href="http://xmlns.com/foaf/0.1/organization" xlink:title="&lt;TABLE&gt;">
<polygon fill="#eeeeee" stroke="none" points="1026,-100 1026,-115 1213,-115 1213,-100 1026,-100"/>
<text text-anchor="start" x="1028" y="-105" font-family="DejaVu Sans" font-size="10.00" fill="#6666ff">http://xmlns.com/foaf/0.1/organization</text>
</a>
</g>
<polygon fill="none" stroke="#666666" points="1024.5,-99 1024.5,-135 1213.5,-135 1213.5,-99 1024.5,-99"/>
</g>
<!-- node9&#45;&gt;node15 -->
<g id="edge12" class="edge"><title>node9&#45;&gt;node15</title>
<path fill="none" stroke="BLACK" d="M1119,-237.466C1119,-214.083 1119,-176.08 1119,-149.224"/>
<polygon fill="BLACK" stroke="BLACK" points="1122.5,-149.178 1119,-139.178 1115.5,-149.178 1122.5,-149.178"/>
<text text-anchor="start" x="1119" y="-161.8" font-family="Times,serif" font-size="14.00"> </text>
<text text-anchor="start" x="1123" y="-161.8" font-family="Times,serif" font-size="10.00" fill="#336633">rdf:type</text>
<text text-anchor="start" x="1156" y="-161.8" font-family="Times,serif" font-size="14.00"> </text>
</g>
<!-- node18 -->
<g id="node19" class="node"><title>node18</title>
<polygon fill="grey" stroke="none" points="74,-20 74,-39 292,-39 292,-20 74,-20"/>
<text text-anchor="start" x="121" y="-26.8" font-family="DejaVu Sans" font-weight="bold" font-size="14.00">SEPIO_0000067</text>
<g id="a_node19_21"><a xlink:href="http://purl.obolibrary.org/obo/SEPIO_0000067" xlink:title="&lt;TABLE&gt;">
<polygon fill="#eeeeee" stroke="none" points="74,-5 74,-20 292,-20 292,-5 74,-5"/>
<text text-anchor="start" x="76" y="-10" font-family="DejaVu Sans" font-size="10.00" fill="#6666ff">http://purl.obolibrary.org/obo/SEPIO_0000067</text>
</a>
</g>
<polygon fill="none" stroke="#666666" points="73,-4 73,-40 293,-40 293,-4 73,-4"/>
</g>
<!-- node17&#45;&gt;node18 -->
<g id="edge15" class="edge"><title>node17&#45;&gt;node18</title>
<path fill="none" stroke="BLACK" d="M183,-94.8969C183,-82.8873 183,-67.6175 183,-54.242"/>
<polygon fill="BLACK" stroke="BLACK" points="186.5,-54.0196 183,-44.0196 179.5,-54.0197 186.5,-54.0196"/>
<text text-anchor="start" x="183" y="-66.8" font-family="Times,serif" font-size="14.00"> </text>
<text text-anchor="start" x="187" y="-66.8" font-family="Times,serif" font-size="10.00" fill="#336633">rdf:type</text>
<text text-anchor="start" x="220" y="-66.8" font-family="Times,serif" font-size="14.00"> </text>
</g>
</g>
</svg>
