<?xml version="1.0" encoding="UTF-8" standalone="no"?>
<!DOCTYPE svg PUBLIC "-//W3C//DTD SVG 1.1//EN"
 "http://www.w3.org/Graphics/SVG/1.1/DTD/svg11.dtd">
<!-- Generated by graphviz version 2.38.0 (20140413.2041)
 -->
<!-- Title: %3 Pages: 1 -->
<svg width="4033pt" height="489pt"
 viewBox="0.00 0.00 4033.00 489.00" xmlns="http://www.w3.org/2000/svg" xmlns:xlink="http://www.w3.org/1999/xlink">
<g id="graph0" class="graph" transform="scale(1 1) rotate(0) translate(4 485)">
<title>%3</title>
<polygon fill="white" stroke="none" points="-4,4 -4,-485 4029,-485 4029,4 -4,4"/>
<!-- node1 -->
<g id="node1" class="node"><title>node1</title>
<polygon fill="grey" stroke="none" points="253,-228.5 253,-247.5 752,-247.5 752,-228.5 253,-228.5"/>
<text text-anchor="start" x="306.5" y="-235.3" font-family="DejaVu Sans" font-weight="bold" font-size="14.00">&quot;GRCh37/hg19 1p36.31(chr1:6051187&#45;6158763)&quot;</text>
<g id="a_node1_0"><a xlink:href="http://www.ncbi.nlm.nih.gov/clinvar/variation/425239" xlink:title="&lt;TABLE&gt;">
<polygon fill="#eeeeee" stroke="none" points="253,-213.5 253,-228.5 752,-228.5 752,-213.5 253,-213.5"/>
<text text-anchor="start" x="379" y="-218.5" font-family="DejaVu Sans" font-size="10.00" fill="#6666ff">http://www.ncbi.nlm.nih.gov/clinvar/variation/425239</text>
</a>
</g>
<text text-anchor="start" x="255" y="-200.3" font-family="DejaVu Sans" font-size="14.00">oboInOwl:hasExactSynonym</text>
<text text-anchor="start" x="457" y="-200.3" font-family="DejaVu Sans" font-size="14.00">&quot;NC_000001.10:g.6051187_6158763dup&quot;</text>
<polygon fill="none" stroke="#666666" points="251.5,-194 251.5,-249 752.5,-249 752.5,-194 251.5,-194"/>
</g>
<!-- node2 -->
<g id="node2" class="node"><title>node2</title>
<polygon fill="grey" stroke="none" points="639,-115 639,-134 843,-134 843,-115 639,-115"/>
<text text-anchor="start" x="691.5" y="-121.8" font-family="DejaVu Sans" font-weight="bold" font-size="14.00">SO_0001742</text>
<g id="a_node2_1"><a xlink:href="http://purl.obolibrary.org/obo/SO_0001742" xlink:title="&lt;TABLE&gt;">
<polygon fill="#eeeeee" stroke="none" points="639,-100 639,-115 843,-115 843,-100 639,-100"/>
<text text-anchor="start" x="641" y="-105" font-family="DejaVu Sans" font-size="10.00" fill="#6666ff">http://purl.obolibrary.org/obo/SO_0001742</text>
</a>
</g>
<polygon fill="none" stroke="#666666" points="638,-99 638,-135 844,-135 844,-99 638,-99"/>
</g>
<!-- node1&#45;&gt;node2 -->
<g id="edge1" class="edge"><title>node1&#45;&gt;node2</title>
<path fill="none" stroke="BLACK" d="M573.384,-189.885C608.187,-174.959 649.527,-157.23 682.443,-143.113"/>
<polygon fill="BLACK" stroke="BLACK" points="684.12,-146.203 691.93,-139.044 681.36,-139.769 684.12,-146.203"/>
<text text-anchor="start" x="650" y="-161.8" font-family="Times,serif" font-size="14.00"> </text>
<text text-anchor="start" x="654" y="-161.8" font-family="Times,serif" font-size="10.00" fill="#336633">rdf:type</text>
<text text-anchor="start" x="687" y="-161.8" font-family="Times,serif" font-size="14.00"> </text>
</g>
<!-- node14 -->
<g id="node15" class="node"><title>node14</title>
<polygon fill="grey" stroke="none" points="879,-115 879,-134 1235,-134 1235,-115 879,-115"/>
<text text-anchor="start" x="881" y="-121.8" font-family="DejaVu Sans" font-weight="bold" font-size="14.00">https://www.ncbi.nlm.nih.gov/gene/261734</text>
<g id="a_node15_2"><a xlink:href="https://www.ncbi.nlm.nih.gov/gene/261734" xlink:title="&lt;TABLE&gt;">
<polygon fill="#eeeeee" stroke="none" points="879,-100 879,-115 1235,-115 1235,-100 879,-100"/>
<text text-anchor="start" x="956.5" y="-105" font-family="DejaVu Sans" font-size="10.00" fill="#6666ff">https://www.ncbi.nlm.nih.gov/gene/261734</text>
</a>
</g>
<polygon fill="none" stroke="#666666" points="878,-99 878,-135 1236,-135 1236,-99 878,-99"/>
</g>
<!-- node1&#45;&gt;node14 -->
<g id="edge12" class="edge"><title>node1&#45;&gt;node14</title>
<path fill="none" stroke="BLACK" d="M754.164,-189.979C785.821,-184.417 812.765,-178.35 829,-172 840.021,-167.689 840.067,-161.529 851,-157 865.481,-151.001 880.919,-145.916 896.582,-141.609"/>
<polygon fill="BLACK" stroke="BLACK" points="897.584,-144.964 906.358,-139.026 895.795,-138.196 897.584,-144.964"/>
<text text-anchor="start" x="851" y="-161.8" font-family="Times,serif" font-size="14.00"> </text>
<text text-anchor="start" x="855" y="-161.8" font-family="Times,serif" font-size="10.00" fill="#336633">OBO:BFO_0000050</text>
<text text-anchor="start" x="942" y="-161.8" font-family="Times,serif" font-size="14.00"> </text>
</g>
<!-- node17 -->
<g id="node18" class="node"><title>node17</title>
<polygon fill="grey" stroke="none" points="381,-115 381,-134 603,-134 603,-115 381,-115"/>
<text text-anchor="start" x="425.5" y="-121.8" font-family="DejaVu Sans" font-weight="bold" font-size="14.00">NCBITaxon_9606</text>
<g id="a_node18_3"><a xlink:href="http://purl.obolibrary.org/obo/NCBITaxon_9606" xlink:title="&lt;TABLE&gt;">
<polygon fill="#eeeeee" stroke="none" points="381,-100 381,-115 603,-115 603,-100 381,-100"/>
<text text-anchor="start" x="383" y="-105" font-family="DejaVu Sans" font-size="10.00" fill="#6666ff">http://purl.obolibrary.org/obo/NCBITaxon_9606</text>
</a>
</g>
<polygon fill="none" stroke="#666666" points="380,-99 380,-135 604,-135 604,-99 380,-99"/>
</g>
<!-- node1&#45;&gt;node17 -->
<g id="edge14" class="edge"><title>node1&#45;&gt;node17</title>
<path fill="none" stroke="BLACK" d="M499,-189.747C497.759,-177.031 496.322,-162.301 495.074,-149.508"/>
<polygon fill="BLACK" stroke="BLACK" points="498.533,-148.917 494.078,-139.304 491.566,-149.597 498.533,-148.917"/>
<text text-anchor="start" x="497" y="-161.8" font-family="Times,serif" font-size="14.00"> </text>
<text text-anchor="start" x="501" y="-161.8" font-family="Times,serif" font-size="10.00" fill="#336633">OBO:RO_0002162</text>
<text text-anchor="start" x="583" y="-161.8" font-family="Times,serif" font-size="14.00"> </text>
</g>
<!-- node21 -->
<g id="node22" class="node"><title>node21</title>
<polygon fill="grey" stroke="none" points="9,-115 9,-134 345,-134 345,-115 9,-115"/>
<text text-anchor="start" x="11" y="-121.8" font-family="DejaVu Sans" font-weight="bold" font-size="14.00">https://www.ncbi.nlm.nih.gov/gene/8514</text>
<g id="a_node22_4"><a xlink:href="https://www.ncbi.nlm.nih.gov/gene/8514" xlink:title="&lt;TABLE&gt;">
<polygon fill="#eeeeee" stroke="none" points="9,-100 9,-115 345,-115 345,-100 9,-100"/>
<text text-anchor="start" x="82.5" y="-105" font-family="DejaVu Sans" font-size="10.00" fill="#6666ff">https://www.ncbi.nlm.nih.gov/gene/8514</text>
</a>
</g>
<polygon fill="none" stroke="#666666" points="8,-99 8,-135 346,-135 346,-99 8,-99"/>
</g>
<!-- node1&#45;&gt;node21 -->
<g id="edge21" class="edge"><title>node1&#45;&gt;node21</title>
<path fill="none" stroke="BLACK" d="M404.93,-189.885C356.486,-174.607 298.729,-156.391 253.477,-142.12"/>
<polygon fill="BLACK" stroke="BLACK" points="254.316,-138.714 243.726,-139.044 252.211,-145.39 254.316,-138.714"/>
<text text-anchor="start" x="340" y="-161.8" font-family="Times,serif" font-size="14.00"> </text>
<text text-anchor="start" x="344" y="-161.8" font-family="Times,serif" font-size="10.00" fill="#336633">OBO:BFO_0000050</text>
<text text-anchor="start" x="431" y="-161.8" font-family="Times,serif" font-size="14.00"> </text>
</g>
<!-- node0 -->
<g id="node3" class="node"><title>node0</title>
<polygon fill="grey" stroke="none" points="2672,-219.5 2672,-238.5 3017,-238.5 3017,-219.5 2672,-219.5"/>
<text text-anchor="start" x="2701.5" y="-226.3" font-family="DejaVu Sans" font-weight="bold" font-size="14.00">&quot;bcd52bafc1e2e04193a9_evidence&quot;</text>
<g id="a_node3_5"><a xlink:href="https://monarchinitiative.org/.well-known/genid/be870b3d47783bbdcf05" xlink:title="&lt;TABLE&gt;">
<polygon fill="#eeeeee" stroke="none" points="2672,-204.5 2672,-219.5 3017,-219.5 3017,-204.5 2672,-204.5"/>
<text text-anchor="start" x="2674" y="-209.5" font-family="DejaVu Sans" font-size="10.00" fill="#6666ff">https://monarchinitiative.org/.well&#45;known/genid/be870b3d47783bbdcf05</text>
</a>
</g>
<polygon fill="none" stroke="#666666" points="2670.5,-203.5 2670.5,-239.5 3017.5,-239.5 3017.5,-203.5 2670.5,-203.5"/>
</g>
<!-- node3 -->
<g id="node4" class="node"><title>node3</title>
<polygon fill="grey" stroke="none" points="2512,-115 2512,-134 2862,-134 2862,-115 2512,-115"/>
<text text-anchor="start" x="2514" y="-121.8" font-family="DejaVu Sans" font-weight="bold" font-size="14.00">&quot;_:be870b3d47783bbdcf05SEPIO:0000066&quot;</text>
<g id="a_node4_6"><a xlink:href="https://monarchinitiative.org/.well-known/genid/b664828053687f26b867" xlink:title="&lt;TABLE&gt;">
<polygon fill="#eeeeee" stroke="none" points="2512,-100 2512,-115 2862,-115 2862,-100 2512,-100"/>
<text text-anchor="start" x="2516" y="-105" font-family="DejaVu Sans" font-size="10.00" fill="#6666ff">https://monarchinitiative.org/.well&#45;known/genid/b664828053687f26b867</text>
</a>
</g>
<polygon fill="none" stroke="#666666" points="2511,-99 2511,-135 2863,-135 2863,-99 2511,-99"/>
</g>
<!-- node0&#45;&gt;node3 -->
<g id="edge2" class="edge"><title>node0&#45;&gt;node3</title>
<path fill="none" stroke="BLACK" d="M2809.24,-199.331C2795.67,-190.95 2780.02,-181.147 2766,-172 2752.77,-163.372 2738.47,-153.706 2725.73,-144.962"/>
<polygon fill="BLACK" stroke="BLACK" points="2727.4,-141.867 2717.18,-139.08 2723.43,-147.633 2727.4,-141.867"/>
<text text-anchor="start" x="2766" y="-161.8" font-family="Times,serif" font-size="14.00"> </text>
<text text-anchor="start" x="2770" y="-161.8" font-family="Times,serif" font-size="10.00" fill="#336633">OBO:SEPIO_0000085</text>
<text text-anchor="start" x="2864" y="-161.8" font-family="Times,serif" font-size="14.00"> </text>
</g>
<!-- node10 -->
<g id="node11" class="node"><title>node10</title>
<polygon fill="grey" stroke="none" points="2898,-115 2898,-134 3292,-134 3292,-115 2898,-115"/>
<text text-anchor="start" x="2900" y="-121.8" font-family="DejaVu Sans" font-weight="bold" font-size="14.00">http://www.ncbi.nlm.nih.gov/pubmed/27486776</text>
<g id="a_node11_7"><a xlink:href="http://www.ncbi.nlm.nih.gov/pubmed/27486776" xlink:title="&lt;TABLE&gt;">
<polygon fill="#eeeeee" stroke="none" points="2898,-100 2898,-115 3292,-115 3292,-100 2898,-100"/>
<text text-anchor="start" x="2983.5" y="-105" font-family="DejaVu Sans" font-size="10.00" fill="#6666ff">http://www.ncbi.nlm.nih.gov/pubmed/27486776</text>
</a>
</g>
<polygon fill="none" stroke="#666666" points="2897,-99 2897,-135 3293,-135 3293,-99 2897,-99"/>
</g>
<!-- node0&#45;&gt;node10 -->
<g id="edge22" class="edge"><title>node0&#45;&gt;node10</title>
<path fill="none" stroke="BLACK" d="M2869.36,-199.484C2887.27,-185.606 2912.37,-168.015 2937,-157 2949.89,-151.236 2963.76,-146.237 2977.75,-141.923"/>
<polygon fill="BLACK" stroke="BLACK" points="2978.85,-145.247 2987.44,-139.044 2976.86,-138.536 2978.85,-145.247"/>
<text text-anchor="start" x="2937" y="-161.8" font-family="Times,serif" font-size="14.00"> </text>
<text text-anchor="start" x="2941" y="-161.8" font-family="Times,serif" font-size="10.00" fill="#336633">OBO:SEPIO_0000124</text>
<text text-anchor="start" x="3035" y="-161.8" font-family="Times,serif" font-size="14.00"> </text>
</g>
<!-- node20 -->
<g id="node21" class="node"><title>node20</title>
<polygon fill="grey" stroke="none" points="2266,-115 2266,-134 2476,-134 2476,-115 2266,-115"/>
<text text-anchor="start" x="2316.5" y="-121.8" font-family="DejaVu Sans" font-weight="bold" font-size="14.00">ECO_0000000</text>
<g id="a_node21_8"><a xlink:href="http://purl.obolibrary.org/obo/ECO_0000000" xlink:title="&lt;TABLE&gt;">
<polygon fill="#eeeeee" stroke="none" points="2266,-100 2266,-115 2476,-115 2476,-100 2266,-100"/>
<text text-anchor="start" x="2268" y="-105" font-family="DejaVu Sans" font-size="10.00" fill="#6666ff">http://purl.obolibrary.org/obo/ECO_0000000</text>
</a>
</g>
<polygon fill="none" stroke="#666666" points="2265,-99 2265,-135 2477,-135 2477,-99 2265,-99"/>
</g>
<!-- node0&#45;&gt;node20 -->
<g id="edge20" class="edge"><title>node0&#45;&gt;node20</title>
<path fill="none" stroke="BLACK" d="M2746.85,-199.448C2668.68,-182.509 2558.94,-158.727 2478.21,-141.233"/>
<polygon fill="BLACK" stroke="BLACK" points="2478.53,-137.721 2468.02,-139.024 2477.05,-144.563 2478.53,-137.721"/>
<text text-anchor="start" x="2608" y="-161.8" font-family="Times,serif" font-size="14.00"> </text>
<text text-anchor="start" x="2612" y="-161.8" font-family="Times,serif" font-size="10.00" fill="#336633">rdf:type</text>
<text text-anchor="start" x="2645" y="-161.8" font-family="Times,serif" font-size="14.00"> </text>
</g>
<!-- node13 -->
<g id="node13" class="node"><title>node13</title>
<polygon fill="grey" stroke="none" points="2578,-20 2578,-39 2796,-39 2796,-20 2578,-20"/>
<text text-anchor="start" x="2625" y="-26.8" font-family="DejaVu Sans" font-weight="bold" font-size="14.00">SEPIO_0000066</text>
<g id="a_node13_9"><a xlink:href="http://purl.obolibrary.org/obo/SEPIO_0000066" xlink:title="&lt;TABLE&gt;">
<polygon fill="#eeeeee" stroke="none" points="2578,-5 2578,-20 2796,-20 2796,-5 2578,-5"/>
<text text-anchor="start" x="2580" y="-10" font-family="DejaVu Sans" font-size="10.00" fill="#6666ff">http://purl.obolibrary.org/obo/SEPIO_0000066</text>
</a>
</g>
<polygon fill="none" stroke="#666666" points="2577,-4 2577,-40 2797,-40 2797,-4 2577,-4"/>
</g>
<!-- node3&#45;&gt;node13 -->
<g id="edge10" class="edge"><title>node3&#45;&gt;node13</title>
<path fill="none" stroke="BLACK" d="M2687,-94.8969C2687,-82.8873 2687,-67.6175 2687,-54.242"/>
<polygon fill="BLACK" stroke="BLACK" points="2690.5,-54.0196 2687,-44.0196 2683.5,-54.0197 2690.5,-54.0196"/>
<text text-anchor="start" x="2687" y="-66.8" font-family="Times,serif" font-size="14.00"> </text>
<text text-anchor="start" x="2691" y="-66.8" font-family="Times,serif" font-size="10.00" fill="#336633">rdf:type</text>
<text text-anchor="start" x="2724" y="-66.8" font-family="Times,serif" font-size="14.00"> </text>
</g>
<!-- node4 -->
<g id="node5" class="node"><title>node4</title>
<polygon fill="grey" stroke="none" points="1108,-333.5 1108,-352.5 1548,-352.5 1548,-333.5 1108,-333.5"/>
<text text-anchor="start" x="1110" y="-340.3" font-family="DejaVu Sans" font-weight="bold" font-size="14.00">http://www.ncbi.nlm.nih.gov/clinvar/variation/431733</text>
<g id="a_node5_10"><a xlink:href="http://www.ncbi.nlm.nih.gov/clinvar/variation/431733" xlink:title="&lt;TABLE&gt;">
<polygon fill="#eeeeee" stroke="none" points="1108,-318.5 1108,-333.5 1548,-333.5 1548,-318.5 1108,-318.5"/>
<text text-anchor="start" x="1204.5" y="-323.5" font-family="DejaVu Sans" font-size="10.00" fill="#6666ff">http://www.ncbi.nlm.nih.gov/clinvar/variation/431733</text>
</a>
</g>
<polygon fill="none" stroke="#666666" points="1107,-317.5 1107,-353.5 1549,-353.5 1549,-317.5 1107,-317.5"/>
</g>
<!-- node4&#45;&gt;node1 -->
<g id="edge4" class="edge"><title>node4&#45;&gt;node1</title>
<path fill="none" stroke="BLACK" d="M1173.12,-313.499C1050.41,-296.86 876.944,-273.34 737.114,-254.38"/>
<polygon fill="BLACK" stroke="BLACK" points="737.486,-250.898 727.106,-253.023 736.545,-257.835 737.486,-250.898"/>
<text text-anchor="start" x="965" y="-275.8" font-family="Times,serif" font-size="14.00"> </text>
<text text-anchor="start" x="969" y="-275.8" font-family="Times,serif" font-size="10.00" fill="#336633">OBO:GENO_0000382</text>
<text text-anchor="start" x="1065" y="-275.8" font-family="Times,serif" font-size="14.00"> </text>
</g>
<!-- node5 -->
<g id="node6" class="node"><title>node5</title>
<polygon fill="grey" stroke="none" points="1563,-219.5 1563,-238.5 1769,-238.5 1769,-219.5 1563,-219.5"/>
<text text-anchor="start" x="1565" y="-226.3" font-family="DejaVu Sans" font-weight="bold" font-size="14.00">&quot;Bardet&#45;Biedl syndrome&quot;</text>
<g id="a_node6_11"><a xlink:href="http://omim.org/entry/PS209900" xlink:title="&lt;TABLE&gt;">
<polygon fill="#eeeeee" stroke="none" points="1563,-204.5 1563,-219.5 1769,-219.5 1769,-204.5 1563,-204.5"/>
<text text-anchor="start" x="1588.5" y="-209.5" font-family="DejaVu Sans" font-size="10.00" fill="#6666ff">http://omim.org/entry/PS209900</text>
</a>
</g>
<polygon fill="none" stroke="#666666" points="1562,-203.5 1562,-239.5 1770,-239.5 1770,-203.5 1562,-203.5"/>
</g>
<!-- node4&#45;&gt;node5 -->
<g id="edge3" class="edge"><title>node4&#45;&gt;node5</title>
<path fill="none" stroke="BLACK" d="M1391.58,-313.434C1448.73,-294.496 1532.66,-266.683 1592.64,-246.809"/>
<polygon fill="BLACK" stroke="BLACK" points="1594.03,-250.035 1602.42,-243.567 1591.83,-243.39 1594.03,-250.035"/>
<text text-anchor="start" x="1518" y="-275.8" font-family="Times,serif" font-size="14.00"> </text>
<text text-anchor="start" x="1522" y="-275.8" font-family="Times,serif" font-size="10.00" fill="#336633">OBO:GENO_0000841</text>
<text text-anchor="start" x="1618" y="-275.8" font-family="Times,serif" font-size="14.00"> </text>
</g>
<!-- node11 -->
<g id="node14" class="node"><title>node11</title>
<polygon fill="grey" stroke="none" points="788,-228.5 788,-247.5 1287,-247.5 1287,-228.5 788,-228.5"/>
<text text-anchor="start" x="841.5" y="-235.3" font-family="DejaVu Sans" font-weight="bold" font-size="14.00">&quot;GRCh37/hg19 1p36.31(chr1:5910699&#45;6038368)&quot;</text>
<g id="a_node14_12"><a xlink:href="http://www.ncbi.nlm.nih.gov/clinvar/variation/425238" xlink:title="&lt;TABLE&gt;">
<polygon fill="#eeeeee" stroke="none" points="788,-213.5 788,-228.5 1287,-228.5 1287,-213.5 788,-213.5"/>
<text text-anchor="start" x="914" y="-218.5" font-family="DejaVu Sans" font-size="10.00" fill="#6666ff">http://www.ncbi.nlm.nih.gov/clinvar/variation/425238</text>
</a>
</g>
<text text-anchor="start" x="790" y="-200.3" font-family="DejaVu Sans" font-size="14.00">oboInOwl:hasExactSynonym</text>
<text text-anchor="start" x="992" y="-200.3" font-family="DejaVu Sans" font-size="14.00">&quot;NC_000001.10:g.5910699_6038368dup&quot;</text>
<polygon fill="none" stroke="#666666" points="786.5,-194 786.5,-249 1287.5,-249 1287.5,-194 786.5,-194"/>
</g>
<!-- node4&#45;&gt;node11 -->
<g id="edge24" class="edge"><title>node4&#45;&gt;node11</title>
<path fill="none" stroke="BLACK" d="M1273.27,-313.434C1231.82,-297.483 1174.02,-275.237 1125.97,-256.741"/>
<polygon fill="BLACK" stroke="BLACK" points="1127.08,-253.42 1116.49,-253.095 1124.57,-259.953 1127.08,-253.42"/>
<text text-anchor="start" x="1200" y="-275.8" font-family="Times,serif" font-size="14.00"> </text>
<text text-anchor="start" x="1204" y="-275.8" font-family="Times,serif" font-size="10.00" fill="#336633">OBO:GENO_0000382</text>
<text text-anchor="start" x="1300" y="-275.8" font-family="Times,serif" font-size="14.00"> </text>
</g>
<!-- node4&#45;&gt;node17 -->
<g id="edge17" class="edge"><title>node4&#45;&gt;node17</title>
<path fill="none" stroke="BLACK" d="M1098.72,-335.16C772.762,-333.666 207.601,-321.129 144,-253 124.893,-232.532 126.412,-211.786 144,-190 151.17,-181.118 266.38,-158.439 362.301,-140.885"/>
<polygon fill="BLACK" stroke="BLACK" points="363.197,-144.279 372.406,-139.042 361.941,-137.393 363.197,-144.279"/>
<text text-anchor="start" x="144" y="-218.8" font-family="Times,serif" font-size="14.00"> </text>
<text text-anchor="start" x="148" y="-218.8" font-family="Times,serif" font-size="10.00" fill="#336633">OBO:RO_0002162</text>
<text text-anchor="start" x="230" y="-218.8" font-family="Times,serif" font-size="14.00"> </text>
</g>
<!-- node23 -->
<g id="node24" class="node"><title>node23</title>
<polygon fill="grey" stroke="none" points="1323,-219.5 1323,-238.5 1527,-238.5 1527,-219.5 1323,-219.5"/>
<text text-anchor="start" x="1375.5" y="-226.3" font-family="DejaVu Sans" font-weight="bold" font-size="14.00">SO_0001024</text>
<g id="a_node24_13"><a xlink:href="http://purl.obolibrary.org/obo/SO_0001024" xlink:title="&lt;TABLE&gt;">
<polygon fill="#eeeeee" stroke="none" points="1323,-204.5 1323,-219.5 1527,-219.5 1527,-204.5 1323,-204.5"/>
<text text-anchor="start" x="1325" y="-209.5" font-family="DejaVu Sans" font-size="10.00" fill="#6666ff">http://purl.obolibrary.org/obo/SO_0001024</text>
</a>
</g>
<polygon fill="none" stroke="#666666" points="1322,-203.5 1322,-239.5 1528,-239.5 1528,-203.5 1322,-203.5"/>
</g>
<!-- node4&#45;&gt;node23 -->
<g id="edge29" class="edge"><title>node4&#45;&gt;node23</title>
<path fill="none" stroke="BLACK" d="M1346.24,-313.434C1361.39,-295.946 1383.09,-270.891 1399.88,-251.507"/>
<polygon fill="BLACK" stroke="BLACK" points="1402.61,-253.703 1406.51,-243.853 1397.31,-249.12 1402.61,-253.703"/>
<text text-anchor="start" x="1383" y="-275.8" font-family="Times,serif" font-size="14.00"> </text>
<text text-anchor="start" x="1387" y="-275.8" font-family="Times,serif" font-size="10.00" fill="#336633">rdf:type</text>
<text text-anchor="start" x="1420" y="-275.8" font-family="Times,serif" font-size="14.00"> </text>
</g>
<!-- node6 -->
<g id="node7" class="node"><title>node6</title>
<polygon fill="grey" stroke="none" points="2405,-342.5 2405,-361.5 2747,-361.5 2747,-342.5 2405,-342.5"/>
<text text-anchor="start" x="2463" y="-349.3" font-family="DejaVu Sans" font-weight="bold" font-size="14.00">&quot;ClinVarAssertion_1142533&quot;</text>
<g id="a_node7_14"><a xlink:href="https://monarchinitiative.org/.well-known/genid/bd8e0f2fc4633580d875" xlink:title="&lt;TABLE&gt;">
<polygon fill="#eeeeee" stroke="none" points="2405,-327.5 2405,-342.5 2747,-342.5 2747,-327.5 2405,-327.5"/>
<text text-anchor="start" x="2407" y="-332.5" font-family="DejaVu Sans" font-size="10.00" fill="#6666ff">https://monarchinitiative.org/.well&#45;known/genid/bd8e0f2fc4633580d875</text>
</a>
</g>
<text text-anchor="start" x="2407" y="-314.3" font-family="DejaVu Sans" font-size="14.00">dc:identifier</text>
<text text-anchor="start" x="2551" y="-314.3" font-family="DejaVu Sans" font-size="14.00">&quot;SCV000296057.1&quot;</text>
<polygon fill="none" stroke="#666666" points="2404,-308 2404,-363 2748,-363 2748,-308 2404,-308"/>
</g>
<!-- node6&#45;&gt;node0 -->
<g id="edge27" class="edge"><title>node6&#45;&gt;node0</title>
<path fill="none" stroke="BLACK" d="M2649.23,-303.896C2691.7,-286.147 2744.5,-264.081 2784.41,-247.403"/>
<polygon fill="BLACK" stroke="BLACK" points="2785.87,-250.586 2793.75,-243.501 2783.17,-244.127 2785.87,-250.586"/>
<text text-anchor="start" x="2727" y="-275.8" font-family="Times,serif" font-size="14.00"> </text>
<text text-anchor="start" x="2731" y="-275.8" font-family="Times,serif" font-size="10.00" fill="#336633">OBO:SEPIO_0000111</text>
<text text-anchor="start" x="2825" y="-275.8" font-family="Times,serif" font-size="14.00"> </text>
</g>
<!-- node7 -->
<g id="node8" class="node"><title>node7</title>
<polygon fill="grey" stroke="none" points="1806,-219.5 1806,-238.5 2381,-238.5 2381,-219.5 1806,-219.5"/>
<text text-anchor="start" x="1808" y="-226.3" font-family="DejaVu Sans" font-weight="bold" font-size="14.00">&quot;Center for Human Disease Modeling,Duke University Medical Center&quot;</text>
<g id="a_node8_15"><a xlink:href="http://www.ncbi.nlm.nih.gov/clinvar/submitters/505664" xlink:title="&lt;TABLE&gt;">
<polygon fill="#eeeeee" stroke="none" points="1806,-204.5 1806,-219.5 2381,-219.5 2381,-204.5 1806,-204.5"/>
<text text-anchor="start" x="1965" y="-209.5" font-family="DejaVu Sans" font-size="10.00" fill="#6666ff">http://www.ncbi.nlm.nih.gov/clinvar/submitters/505664</text>
</a>
</g>
<polygon fill="none" stroke="#666666" points="1804.5,-203.5 1804.5,-239.5 2381.5,-239.5 2381.5,-203.5 1804.5,-203.5"/>
</g>
<!-- node6&#45;&gt;node7 -->
<g id="edge5" class="edge"><title>node6&#45;&gt;node7</title>
<path fill="none" stroke="BLACK" d="M2444.34,-303.97C2365.37,-285.658 2266.49,-262.73 2193.77,-245.867"/>
<polygon fill="BLACK" stroke="BLACK" points="2194.22,-242.378 2183.68,-243.528 2192.64,-249.197 2194.22,-242.378"/>
<text text-anchor="start" x="2364" y="-275.8" font-family="Times,serif" font-size="14.00"> </text>
<text text-anchor="start" x="2368" y="-275.8" font-family="Times,serif" font-size="10.00" fill="#336633">OBO:SEPIO_0000018</text>
<text text-anchor="start" x="2462" y="-275.8" font-family="Times,serif" font-size="14.00"> </text>
</g>
<!-- node22 -->
<g id="node23" class="node"><title>node22</title>
<polygon fill="grey" stroke="none" points="2417,-219.5 2417,-238.5 2635,-238.5 2635,-219.5 2417,-219.5"/>
<text text-anchor="start" x="2464" y="-226.3" font-family="DejaVu Sans" font-weight="bold" font-size="14.00">SEPIO_0000001</text>
<g id="a_node23_16"><a xlink:href="http://purl.obolibrary.org/obo/SEPIO_0000001" xlink:title="&lt;TABLE&gt;">
<polygon fill="#eeeeee" stroke="none" points="2417,-204.5 2417,-219.5 2635,-219.5 2635,-204.5 2417,-204.5"/>
<text text-anchor="start" x="2419" y="-209.5" font-family="DejaVu Sans" font-size="10.00" fill="#6666ff">http://purl.obolibrary.org/obo/SEPIO_0000001</text>
</a>
</g>
<polygon fill="none" stroke="#666666" points="2416,-203.5 2416,-239.5 2636,-239.5 2636,-203.5 2416,-203.5"/>
</g>
<!-- node6&#45;&gt;node22 -->
<g id="edge28" class="edge"><title>node6&#45;&gt;node22</title>
<path fill="none" stroke="BLACK" d="M2562.34,-303.896C2555.25,-288.019 2546.62,-268.688 2539.55,-252.849"/>
<polygon fill="BLACK" stroke="BLACK" points="2542.65,-251.205 2535.38,-243.501 2536.26,-254.059 2542.65,-251.205"/>
<text text-anchor="start" x="2554" y="-275.8" font-family="Times,serif" font-size="14.00"> </text>
<text text-anchor="start" x="2558" y="-275.8" font-family="Times,serif" font-size="10.00" fill="#336633">rdf:type</text>
<text text-anchor="start" x="2591" y="-275.8" font-family="Times,serif" font-size="14.00"> </text>
</g>
<!-- node8 -->
<g id="node9" class="node"><title>node8</title>
<polygon fill="grey" stroke="none" points="2000,-115 2000,-134 2187,-134 2187,-115 2000,-115"/>
<text text-anchor="start" x="2042" y="-121.8" font-family="DejaVu Sans" font-weight="bold" font-size="14.00">organization</text>
<g id="a_node9_17"><a xlink:href="http://xmlns.com/foaf/0.1/organization" xlink:title="&lt;TABLE&gt;">
<polygon fill="#eeeeee" stroke="none" points="2000,-100 2000,-115 2187,-115 2187,-100 2000,-100"/>
<text text-anchor="start" x="2002" y="-105" font-family="DejaVu Sans" font-size="10.00" fill="#6666ff">http://xmlns.com/foaf/0.1/organization</text>
</a>
</g>
<polygon fill="none" stroke="#666666" points="1998.5,-99 1998.5,-135 2187.5,-135 2187.5,-99 1998.5,-99"/>
</g>
<!-- node7&#45;&gt;node8 -->
<g id="edge6" class="edge"><title>node7&#45;&gt;node8</title>
<path fill="none" stroke="BLACK" d="M2093,-199.262C2093,-184.831 2093,-165.499 2093,-149.311"/>
<polygon fill="BLACK" stroke="BLACK" points="2096.5,-149.211 2093,-139.211 2089.5,-149.211 2096.5,-149.211"/>
<text text-anchor="start" x="2093" y="-161.8" font-family="Times,serif" font-size="14.00"> </text>
<text text-anchor="start" x="2097" y="-161.8" font-family="Times,serif" font-size="10.00" fill="#336633">rdf:type</text>
<text text-anchor="start" x="2130" y="-161.8" font-family="Times,serif" font-size="14.00"> </text>
</g>
<!-- node9 -->
<g id="node10" class="node"><title>node9</title>
<polygon fill="grey" stroke="none" points="2763,-447.5 2763,-466.5 3076,-466.5 3076,-447.5 2763,-447.5"/>
<text text-anchor="start" x="2778.5" y="-454.3" font-family="DejaVu Sans" font-weight="bold" font-size="14.00">MONARCH_bcd52bafc1e2e04193a9</text>
<g id="a_node10_18"><a xlink:href="https://monarchinitiative.org/MONARCH_bcd52bafc1e2e04193a9" xlink:title="&lt;TABLE&gt;">
<polygon fill="#eeeeee" stroke="none" points="2763,-432.5 2763,-447.5 3076,-447.5 3076,-432.5 2763,-432.5"/>
<text text-anchor="start" x="2765" y="-437.5" font-family="DejaVu Sans" font-size="10.00" fill="#6666ff">https://monarchinitiative.org/MONARCH_bcd52bafc1e2e04193a9</text>
</a>
</g>
<polygon fill="none" stroke="#666666" points="2761.5,-431.5 2761.5,-467.5 3076.5,-467.5 3076.5,-431.5 2761.5,-431.5"/>
</g>
<!-- node9&#45;&gt;node0 -->
<g id="edge9" class="edge"><title>node9&#45;&gt;node0</title>
<path fill="none" stroke="BLACK" d="M2911.94,-427.238C2898.59,-387.007 2869.59,-299.616 2854.15,-253.088"/>
<polygon fill="BLACK" stroke="BLACK" points="2857.45,-251.929 2850.98,-243.54 2850.81,-254.134 2857.45,-251.929"/>
<text text-anchor="start" x="2892" y="-332.8" font-family="Times,serif" font-size="14.00"> </text>
<text text-anchor="start" x="2896" y="-332.8" font-family="Times,serif" font-size="10.00" fill="#336633">OBO:SEPIO_0000007</text>
<text text-anchor="start" x="2990" y="-332.8" font-family="Times,serif" font-size="14.00"> </text>
</g>
<!-- node9&#45;&gt;node4 -->
<g id="edge18" class="edge"><title>node9&#45;&gt;node4</title>
<path fill="none" stroke="BLACK" d="M2753.15,-441.383C2573.03,-433.222 2276.9,-418.546 2022,-400 1862.34,-388.383 1682.33,-371.812 1545.65,-358.51"/>
<polygon fill="BLACK" stroke="BLACK" points="1545.77,-355.005 1535.47,-357.518 1545.09,-361.972 1545.77,-355.005"/>
<text text-anchor="start" x="2022" y="-389.8" font-family="Times,serif" font-size="14.00"> </text>
<text text-anchor="start" x="2026" y="-389.8" font-family="Times,serif" font-size="10.00" fill="#336633">OBAN:association_has_subject</text>
<text text-anchor="start" x="2158" y="-389.8" font-family="Times,serif" font-size="14.00"> </text>
</g>
<!-- node9&#45;&gt;node5 -->
<g id="edge16" class="edge"><title>node9&#45;&gt;node5</title>
<path fill="none" stroke="BLACK" d="M2753.46,-433.857C2617.77,-420.526 2421.08,-398.154 2251,-367 2042.12,-328.739 1993.07,-304.286 1787,-253 1777.95,-250.748 1768.52,-248.391 1759.1,-246.027"/>
<polygon fill="BLACK" stroke="BLACK" points="1759.85,-242.607 1749.3,-243.567 1758.15,-249.396 1759.85,-242.607"/>
<text text-anchor="start" x="2251" y="-332.8" font-family="Times,serif" font-size="14.00"> </text>
<text text-anchor="start" x="2255" y="-332.8" font-family="Times,serif" font-size="10.00" fill="#336633">OBAN:association_has_object</text>
<text text-anchor="start" x="2383" y="-332.8" font-family="Times,serif" font-size="14.00"> </text>
</g>
<!-- node9&#45;&gt;node6 -->
<g id="edge26" class="edge"><title>node9&#45;&gt;node6</title>
<path fill="none" stroke="BLACK" d="M2832.33,-427.382C2802.25,-419.497 2768.44,-410.01 2738,-400 2711.79,-391.382 2683.66,-380.83 2658.32,-370.822"/>
<polygon fill="BLACK" stroke="BLACK" points="2659.34,-367.461 2648.76,-367.018 2656.75,-373.966 2659.34,-367.461"/>
<text text-anchor="start" x="2738" y="-389.8" font-family="Times,serif" font-size="14.00"> </text>
<text text-anchor="start" x="2742" y="-389.8" font-family="Times,serif" font-size="10.00" fill="#336633">OBO:SEPIO_0000015</text>
<text text-anchor="start" x="2836" y="-389.8" font-family="Times,serif" font-size="14.00"> </text>
</g>
<!-- node9&#45;&gt;node10 -->
<g id="edge7" class="edge"><title>node9&#45;&gt;node10</title>
<path fill="none" stroke="BLACK" d="M2944.15,-427.434C2961.19,-412.097 2983.2,-390.051 2998,-367 3044.09,-295.194 3074.02,-198.044 3087.22,-149.028"/>
<polygon fill="BLACK" stroke="BLACK" points="3090.62,-149.888 3089.79,-139.325 3083.85,-148.1 3090.62,-149.888"/>
<text text-anchor="start" x="3047" y="-275.8" font-family="Times,serif" font-size="14.00"> </text>
<text text-anchor="start" x="3051" y="-275.8" font-family="Times,serif" font-size="10.00" fill="#336633">dc:source</text>
<text text-anchor="start" x="3091" y="-275.8" font-family="Times,serif" font-size="14.00"> </text>
</g>
<!-- node12 -->
<g id="node12" class="node"><title>node12</title>
<polygon fill="grey" stroke="none" points="3061,-333.5 3061,-352.5 3304,-352.5 3304,-333.5 3061,-333.5"/>
<text text-anchor="start" x="3122" y="-340.3" font-family="DejaVu Sans" font-weight="bold" font-size="14.00">RCV000498447</text>
<g id="a_node12_19"><a xlink:href="http://www.ncbi.nlm.nih.gov/clinvar/RCV000498447" xlink:title="&lt;TABLE&gt;">
<polygon fill="#eeeeee" stroke="none" points="3061,-318.5 3061,-333.5 3304,-333.5 3304,-318.5 3061,-318.5"/>
<text text-anchor="start" x="3063" y="-323.5" font-family="DejaVu Sans" font-size="10.00" fill="#6666ff">http://www.ncbi.nlm.nih.gov/clinvar/RCV000498447</text>
</a>
</g>
<polygon fill="none" stroke="#666666" points="3059.5,-317.5 3059.5,-353.5 3304.5,-353.5 3304.5,-317.5 3059.5,-317.5"/>
</g>
<!-- node9&#45;&gt;node12 -->
<g id="edge8" class="edge"><title>node9&#45;&gt;node12</title>
<path fill="none" stroke="BLACK" d="M2971.09,-427.387C2991.67,-418.971 3015.49,-409.129 3037,-400 3066.31,-387.563 3098.78,-373.379 3125.55,-361.576"/>
<polygon fill="BLACK" stroke="BLACK" points="3127.04,-364.747 3134.77,-357.507 3124.21,-358.343 3127.04,-364.747"/>
<text text-anchor="start" x="3069" y="-389.8" font-family="Times,serif" font-size="14.00"> </text>
<text text-anchor="start" x="3073" y="-389.8" font-family="Times,serif" font-size="10.00" fill="#336633">oboInOwl:hasdbxref</text>
<text text-anchor="start" x="3158" y="-389.8" font-family="Times,serif" font-size="14.00"> </text>
</g>
<!-- node18 -->
<g id="node19" class="node"><title>node18</title>
<polygon fill="grey" stroke="none" points="3340,-333.5 3340,-352.5 3494,-352.5 3494,-333.5 3340,-333.5"/>
<text text-anchor="start" x="3371" y="-340.3" font-family="DejaVu Sans" font-weight="bold" font-size="14.00">association</text>
<g id="a_node19_20"><a xlink:href="http://purl.org/oban/association" xlink:title="&lt;TABLE&gt;">
<polygon fill="#eeeeee" stroke="none" points="3340,-318.5 3340,-333.5 3494,-333.5 3494,-318.5 3340,-318.5"/>
<text text-anchor="start" x="3342" y="-323.5" font-family="DejaVu Sans" font-size="10.00" fill="#6666ff">http://purl.org/oban/association</text>
</a>
</g>
<polygon fill="none" stroke="#666666" points="3339,-317.5 3339,-353.5 3495,-353.5 3495,-317.5 3339,-317.5"/>
</g>
<!-- node9&#45;&gt;node18 -->
<g id="edge15" class="edge"><title>node9&#45;&gt;node18</title>
<path fill="none" stroke="BLACK" d="M3041.69,-427.491C3121.75,-412.834 3228.24,-391.548 3321,-367 3328.49,-365.018 3336.26,-362.809 3343.99,-360.511"/>
<polygon fill="BLACK" stroke="BLACK" points="3345.18,-363.807 3353.74,-357.562 3343.16,-357.107 3345.18,-363.807"/>
<text text-anchor="start" x="3245" y="-389.8" font-family="Times,serif" font-size="14.00"> </text>
<text text-anchor="start" x="3249" y="-389.8" font-family="Times,serif" font-size="10.00" fill="#336633">rdf:type</text>
<text text-anchor="start" x="3282" y="-389.8" font-family="Times,serif" font-size="14.00"> </text>
</g>
<!-- node24 -->
<g id="node25" class="node"><title>node24</title>
<polygon fill="grey" stroke="none" points="3530,-333.5 3530,-352.5 3748,-352.5 3748,-333.5 3530,-333.5"/>
<text text-anchor="start" x="3578" y="-340.3" font-family="DejaVu Sans" font-weight="bold" font-size="14.00">GENO_0000841</text>
<g id="a_node25_21"><a xlink:href="http://purl.obolibrary.org/obo/GENO_0000841" xlink:title="&lt;TABLE&gt;">
<polygon fill="#eeeeee" stroke="none" points="3530,-318.5 3530,-333.5 3748,-333.5 3748,-318.5 3530,-318.5"/>
<text text-anchor="start" x="3532" y="-323.5" font-family="DejaVu Sans" font-size="10.00" fill="#6666ff">http://purl.obolibrary.org/obo/GENO_0000841</text>
</a>
</g>
<polygon fill="none" stroke="#666666" points="3529,-317.5 3529,-353.5 3749,-353.5 3749,-317.5 3529,-317.5"/>
</g>
<!-- node9&#45;&gt;node24 -->
<g id="edge30" class="edge"><title>node9&#45;&gt;node24</title>
<path fill="none" stroke="BLACK" d="M3084.68,-430.682C3204.04,-416.642 3368.67,-394.808 3512,-367 3523.02,-364.862 3534.52,-362.411 3545.92,-359.847"/>
<polygon fill="BLACK" stroke="BLACK" points="3546.92,-363.209 3555.89,-357.57 3545.36,-356.385 3546.92,-363.209"/>
<text text-anchor="start" x="3400" y="-389.8" font-family="Times,serif" font-size="14.00"> </text>
<text text-anchor="start" x="3404" y="-389.8" font-family="Times,serif" font-size="10.00" fill="#336633">OBAN:association_has_predicate</text>
<text text-anchor="start" x="3544" y="-389.8" font-family="Times,serif" font-size="14.00"> </text>
</g>
<!-- node19 -->
<g id="node20" class="node"><title>node19</title>
<polygon fill="grey" stroke="none" points="2992,-20 2992,-39 3198,-39 3198,-20 2992,-20"/>
<text text-anchor="start" x="3042.5" y="-26.8" font-family="DejaVu Sans" font-weight="bold" font-size="14.00">IAO_0000013</text>
<g id="a_node20_22"><a xlink:href="http://purl.obolibrary.org/obo/IAO_0000013" xlink:title="&lt;TABLE&gt;">
<polygon fill="#eeeeee" stroke="none" points="2992,-5 2992,-20 3198,-20 3198,-5 2992,-5"/>
<text text-anchor="start" x="2994" y="-10" font-family="DejaVu Sans" font-size="10.00" fill="#6666ff">http://purl.obolibrary.org/obo/IAO_0000013</text>
</a>
</g>
<polygon fill="none" stroke="#666666" points="2991,-4 2991,-40 3199,-40 3199,-4 2991,-4"/>
</g>
<!-- node10&#45;&gt;node19 -->
<g id="edge19" class="edge"><title>node10&#45;&gt;node19</title>
<path fill="none" stroke="BLACK" d="M3095,-94.8969C3095,-82.8873 3095,-67.6175 3095,-54.242"/>
<polygon fill="BLACK" stroke="BLACK" points="3098.5,-54.0196 3095,-44.0196 3091.5,-54.0197 3098.5,-54.0196"/>
<text text-anchor="start" x="3095" y="-66.8" font-family="Times,serif" font-size="14.00"> </text>
<text text-anchor="start" x="3099" y="-66.8" font-family="Times,serif" font-size="10.00" fill="#336633">rdf:type</text>
<text text-anchor="start" x="3132" y="-66.8" font-family="Times,serif" font-size="14.00"> </text>
</g>
<!-- node11&#45;&gt;node2 -->
<g id="edge23" class="edge"><title>node11&#45;&gt;node2</title>
<path fill="none" stroke="BLACK" d="M1002.4,-189.723C987.263,-177.789 968.713,-165.078 950,-157 945.313,-154.977 905.644,-147.419 862.104,-139.487"/>
<polygon fill="BLACK" stroke="BLACK" points="862.637,-136.027 852.172,-137.684 861.386,-142.914 862.637,-136.027"/>
<text text-anchor="start" x="976" y="-161.8" font-family="Times,serif" font-size="14.00"> </text>
<text text-anchor="start" x="980" y="-161.8" font-family="Times,serif" font-size="10.00" fill="#336633">rdf:type</text>
<text text-anchor="start" x="1013" y="-161.8" font-family="Times,serif" font-size="14.00"> </text>
</g>
<!-- node11&#45;&gt;node14 -->
<g id="edge11" class="edge"><title>node11&#45;&gt;node14</title>
<path fill="none" stroke="BLACK" d="M1043,-189.747C1045.51,-176.904 1048.41,-162.006 1050.93,-149.125"/>
<polygon fill="BLACK" stroke="BLACK" points="1054.36,-149.789 1052.84,-139.304 1047.49,-148.449 1054.36,-149.789"/>
<text text-anchor="start" x="1050" y="-161.8" font-family="Times,serif" font-size="14.00"> </text>
<text text-anchor="start" x="1054" y="-161.8" font-family="Times,serif" font-size="10.00" fill="#336633">OBO:BFO_0000050</text>
<text text-anchor="start" x="1141" y="-161.8" font-family="Times,serif" font-size="14.00"> </text>
</g>
<!-- node11&#45;&gt;node17 -->
<g id="edge25" class="edge"><title>node11&#45;&gt;node17</title>
<path fill="none" stroke="BLACK" d="M822.069,-189.933C793.978,-184.649 765.697,-178.673 739,-172 718.956,-166.99 714.971,-162.295 695,-157 671.6,-150.796 646.437,-145.153 622.065,-140.207"/>
<polygon fill="BLACK" stroke="BLACK" points="622.535,-136.732 612.043,-138.203 621.163,-143.596 622.535,-136.732"/>
<text text-anchor="start" x="739" y="-161.8" font-family="Times,serif" font-size="14.00"> </text>
<text text-anchor="start" x="743" y="-161.8" font-family="Times,serif" font-size="10.00" fill="#336633">OBO:RO_0002162</text>
<text text-anchor="start" x="825" y="-161.8" font-family="Times,serif" font-size="14.00"> </text>
</g>
<!-- node15 -->
<g id="node16" class="node"><title>node15</title>
<polygon fill="grey" stroke="none" points="3750,-456.5 3750,-475.5 4016,-475.5 4016,-456.5 3750,-456.5"/>
<text text-anchor="start" x="3811" y="-463.3" font-family="DejaVu Sans" font-weight="bold" font-size="14.00">RCV000498447.nt</text>
<g id="a_node16_23"><a xlink:href="https://data.monarchinitiative.org/ttl/RCV000498447.nt" xlink:title="&lt;TABLE&gt;">
<polygon fill="#eeeeee" stroke="none" points="3750,-441.5 3750,-456.5 4016,-456.5 4016,-441.5 3750,-441.5"/>
<text text-anchor="start" x="3752" y="-446.5" font-family="DejaVu Sans" font-size="10.00" fill="#6666ff">https://data.monarchinitiative.org/ttl/RCV000498447.nt</text>
</a>
</g>
<text text-anchor="start" x="3752" y="-428.3" font-family="DejaVu Sans" font-size="14.00">owl:versionInfo</text>
<text text-anchor="start" x="3890" y="-428.3" font-family="DejaVu Sans" font-size="14.00">&quot;2019&#45;06&#45;03&quot;</text>
<polygon fill="none" stroke="#666666" points="3749,-422 3749,-477 4017,-477 4017,-422 3749,-422"/>
</g>
<!-- node16 -->
<g id="node17" class="node"><title>node16</title>
<polygon fill="grey" stroke="none" points="3784,-333.5 3784,-352.5 3982,-352.5 3982,-333.5 3784,-333.5"/>
<text text-anchor="start" x="3846" y="-340.3" font-family="DejaVu Sans" font-weight="bold" font-size="14.00">Ontology</text>
<g id="a_node17_24"><a xlink:href="http://www.w3.org/2002/07/owl#Ontology" xlink:title="&lt;TABLE&gt;">
<polygon fill="#eeeeee" stroke="none" points="3784,-318.5 3784,-333.5 3982,-333.5 3982,-318.5 3784,-318.5"/>
<text text-anchor="start" x="3786" y="-323.5" font-family="DejaVu Sans" font-size="10.00" fill="#6666ff">http://www.w3.org/2002/07/owl#Ontology</text>
</a>
</g>
<polygon fill="none" stroke="#666666" points="3783,-317.5 3783,-353.5 3983,-353.5 3983,-317.5 3783,-317.5"/>
</g>
<!-- node15&#45;&gt;node16 -->
<g id="edge13" class="edge"><title>node15&#45;&gt;node16</title>
<path fill="none" stroke="BLACK" d="M3883,-417.896C3883,-402.319 3883,-383.416 3883,-367.749"/>
<polygon fill="BLACK" stroke="BLACK" points="3886.5,-367.501 3883,-357.501 3879.5,-367.501 3886.5,-367.501"/>
<text text-anchor="start" x="3883" y="-389.8" font-family="Times,serif" font-size="14.00"> </text>
<text text-anchor="start" x="3887" y="-389.8" font-family="Times,serif" font-size="10.00" fill="#336633">rdf:type</text>
<text text-anchor="start" x="3920" y="-389.8" font-family="Times,serif" font-size="14.00"> </text>
</g>
</g>
</svg>
