<?xml version="1.0" encoding="UTF-8" standalone="no"?>
<!DOCTYPE svg PUBLIC "-//W3C//DTD SVG 1.1//EN"
 "http://www.w3.org/Graphics/SVG/1.1/DTD/svg11.dtd">
<!-- Generated by graphviz version 2.38.0 (20140413.2041)
 -->
<!-- Title: %3 Pages: 1 -->
<svg width="2985pt" height="489pt"
 viewBox="0.00 0.00 2984.50 489.00" xmlns="http://www.w3.org/2000/svg" xmlns:xlink="http://www.w3.org/1999/xlink">
<g id="graph0" class="graph" transform="scale(1 1) rotate(0) translate(4 485)">
<title>%3</title>
<polygon fill="white" stroke="none" points="-4,4 -4,-485 2980.5,-485 2980.5,4 -4,4"/>
<!-- node1 -->
<g id="node1" class="node"><title>node1</title>
<polygon fill="grey" stroke="none" points="1157.5,-447.5 1157.5,-466.5 1470.5,-466.5 1470.5,-447.5 1157.5,-447.5"/>
<text text-anchor="start" x="1173" y="-454.3" font-family="DejaVu Sans" font-weight="bold" font-size="14.00">MONARCH_bcd52bafc1e2e04193a9</text>
<g id="a_node1_0"><a xlink:href="https://monarchinitiative.org/MONARCH_bcd52bafc1e2e04193a9" xlink:title="&lt;TABLE&gt;">
<polygon fill="#eeeeee" stroke="none" points="1157.5,-432.5 1157.5,-447.5 1470.5,-447.5 1470.5,-432.5 1157.5,-432.5"/>
<text text-anchor="start" x="1159.5" y="-437.5" font-family="DejaVu Sans" font-size="10.00" fill="#6666ff">https://monarchinitiative.org/MONARCH_bcd52bafc1e2e04193a9</text>
</a>
</g>
<polygon fill="none" stroke="#666666" points="1156,-431.5 1156,-467.5 1471,-467.5 1471,-431.5 1156,-431.5"/>
</g>
<!-- node2 -->
<g id="node2" class="node"><title>node2</title>
<polygon fill="grey" stroke="none" points="460.5,-333.5 460.5,-352.5 703.5,-352.5 703.5,-333.5 460.5,-333.5"/>
<text text-anchor="start" x="521.5" y="-340.3" font-family="DejaVu Sans" font-weight="bold" font-size="14.00">RCV000498447</text>
<g id="a_node2_1"><a xlink:href="http://www.ncbi.nlm.nih.gov/clinvar/RCV000498447" xlink:title="&lt;TABLE&gt;">
<polygon fill="#eeeeee" stroke="none" points="460.5,-318.5 460.5,-333.5 703.5,-333.5 703.5,-318.5 460.5,-318.5"/>
<text text-anchor="start" x="462.5" y="-323.5" font-family="DejaVu Sans" font-size="10.00" fill="#6666ff">http://www.ncbi.nlm.nih.gov/clinvar/RCV000498447</text>
</a>
</g>
<polygon fill="none" stroke="#666666" points="459,-317.5 459,-353.5 704,-353.5 704,-317.5 459,-317.5"/>
</g>
<!-- node1&#45;&gt;node2 -->
<g id="edge1" class="edge"><title>node1&#45;&gt;node2</title>
<path fill="none" stroke="BLACK" d="M1147.78,-433.169C1067.97,-424.918 971.036,-413.625 884.5,-400 811.485,-388.504 793.834,-382.201 721.5,-367 710.279,-364.642 698.56,-362.144 686.886,-359.634"/>
<polygon fill="BLACK" stroke="BLACK" points="687.616,-356.211 677.103,-357.525 686.141,-363.053 687.616,-356.211"/>
<text text-anchor="start" x="884.5" y="-389.8" font-family="Times,serif" font-size="14.00"> </text>
<text text-anchor="start" x="888.5" y="-389.8" font-family="Times,serif" font-size="10.00" fill="#336633">oboInOwl:hasdbxref</text>
<text text-anchor="start" x="973.5" y="-389.8" font-family="Times,serif" font-size="14.00"> </text>
</g>
<!-- node3 -->
<g id="node3" class="node"><title>node3</title>
<polygon fill="grey" stroke="none" points="739.5,-342.5 739.5,-361.5 1081.5,-361.5 1081.5,-342.5 739.5,-342.5"/>
<text text-anchor="start" x="766" y="-349.3" font-family="DejaVu Sans" font-weight="bold" font-size="14.00">&quot;bcd52bafc1e2e04193a9_assertion&quot;</text>
<g id="a_node3_2"><a xlink:href="https://monarchinitiative.org/.well-known/genid/bd8e0f2fc4633580d875" xlink:title="&lt;TABLE&gt;">
<polygon fill="#eeeeee" stroke="none" points="739.5,-327.5 739.5,-342.5 1081.5,-342.5 1081.5,-327.5 739.5,-327.5"/>
<text text-anchor="start" x="741.5" y="-332.5" font-family="DejaVu Sans" font-size="10.00" fill="#6666ff">https://monarchinitiative.org/.well&#45;known/genid/bd8e0f2fc4633580d875</text>
</a>
</g>
<text text-anchor="start" x="741.5" y="-314.3" font-family="DejaVu Sans" font-size="14.00">dc:identifier</text>
<text text-anchor="start" x="885.5" y="-314.3" font-family="DejaVu Sans" font-size="14.00">&quot;SCV000296057.1&quot;</text>
<polygon fill="none" stroke="#666666" points="738.5,-308 738.5,-363 1082.5,-363 1082.5,-308 738.5,-308"/>
</g>
<!-- node1&#45;&gt;node3 -->
<g id="edge10" class="edge"><title>node1&#45;&gt;node3</title>
<path fill="none" stroke="BLACK" d="M1147.97,-434.409C1102.44,-427.224 1053.72,-416.377 1010.5,-400 992.651,-393.236 974.6,-383.03 958.84,-372.767"/>
<polygon fill="BLACK" stroke="BLACK" points="960.594,-369.73 950.336,-367.081 956.703,-375.549 960.594,-369.73"/>
<text text-anchor="start" x="1010.5" y="-389.8" font-family="Times,serif" font-size="14.00"> </text>
<text text-anchor="start" x="1014.5" y="-389.8" font-family="Times,serif" font-size="10.00" fill="#336633">OBO:SEPIO_0000015</text>
<text text-anchor="start" x="1108.5" y="-389.8" font-family="Times,serif" font-size="14.00"> </text>
</g>
<!-- node5 -->
<g id="node5" class="node"><title>node5</title>
<polygon fill="grey" stroke="none" points="875.5,-219.5 875.5,-238.5 1220.5,-238.5 1220.5,-219.5 875.5,-219.5"/>
<text text-anchor="start" x="905" y="-226.3" font-family="DejaVu Sans" font-weight="bold" font-size="14.00">&quot;bcd52bafc1e2e04193a9_evidence&quot;</text>
<g id="a_node5_3"><a xlink:href="https://monarchinitiative.org/.well-known/genid/be870b3d47783bbdcf05" xlink:title="&lt;TABLE&gt;">
<polygon fill="#eeeeee" stroke="none" points="875.5,-204.5 875.5,-219.5 1220.5,-219.5 1220.5,-204.5 875.5,-204.5"/>
<text text-anchor="start" x="877.5" y="-209.5" font-family="DejaVu Sans" font-size="10.00" fill="#6666ff">https://monarchinitiative.org/.well&#45;known/genid/be870b3d47783bbdcf05</text>
</a>
</g>
<polygon fill="none" stroke="#666666" points="874,-203.5 874,-239.5 1221,-239.5 1221,-203.5 874,-203.5"/>
</g>
<!-- node1&#45;&gt;node5 -->
<g id="edge3" class="edge"><title>node1&#45;&gt;node5</title>
<path fill="none" stroke="BLACK" d="M1242.5,-427.445C1208.34,-414.451 1168.76,-394.843 1140.5,-367 1106.66,-333.662 1120.6,-310.016 1093.5,-271 1088.84,-264.298 1083.28,-257.619 1077.65,-251.456"/>
<polygon fill="BLACK" stroke="BLACK" points="1079.97,-248.816 1070.55,-243.962 1074.89,-253.63 1079.97,-248.816"/>
<text text-anchor="start" x="1140.5" y="-332.8" font-family="Times,serif" font-size="14.00"> </text>
<text text-anchor="start" x="1144.5" y="-332.8" font-family="Times,serif" font-size="10.00" fill="#336633">OBO:SEPIO_0000007</text>
<text text-anchor="start" x="1238.5" y="-332.8" font-family="Times,serif" font-size="14.00"> </text>
</g>
<!-- node7 -->
<g id="node6" class="node"><title>node7</title>
<polygon fill="grey" stroke="none" points="1293.5,-333.5 1293.5,-352.5 1447.5,-352.5 1447.5,-333.5 1293.5,-333.5"/>
<text text-anchor="start" x="1324.5" y="-340.3" font-family="DejaVu Sans" font-weight="bold" font-size="14.00">association</text>
<g id="a_node6_4"><a xlink:href="http://purl.org/oban/association" xlink:title="&lt;TABLE&gt;">
<polygon fill="#eeeeee" stroke="none" points="1293.5,-318.5 1293.5,-333.5 1447.5,-333.5 1447.5,-318.5 1293.5,-318.5"/>
<text text-anchor="start" x="1295.5" y="-323.5" font-family="DejaVu Sans" font-size="10.00" fill="#6666ff">http://purl.org/oban/association</text>
</a>
</g>
<polygon fill="none" stroke="#666666" points="1292.5,-317.5 1292.5,-353.5 1448.5,-353.5 1448.5,-317.5 1292.5,-317.5"/>
</g>
<!-- node1&#45;&gt;node7 -->
<g id="edge4" class="edge"><title>node1&#45;&gt;node7</title>
<path fill="none" stroke="BLACK" d="M1324.22,-427.434C1332.92,-410.335 1345.31,-386.001 1355.08,-366.808"/>
<polygon fill="BLACK" stroke="BLACK" points="1358.22,-368.352 1359.63,-357.853 1351.98,-365.177 1358.22,-368.352"/>
<text text-anchor="start" x="1345.5" y="-389.8" font-family="Times,serif" font-size="14.00"> </text>
<text text-anchor="start" x="1349.5" y="-389.8" font-family="Times,serif" font-size="10.00" fill="#336633">rdf:type</text>
<text text-anchor="start" x="1382.5" y="-389.8" font-family="Times,serif" font-size="14.00"> </text>
</g>
<!-- node8 -->
<g id="node7" class="node"><title>node8</title>
<polygon fill="grey" stroke="none" points="1668.5,-333.5 1668.5,-352.5 2108.5,-352.5 2108.5,-333.5 1668.5,-333.5"/>
<text text-anchor="start" x="1670.5" y="-340.3" font-family="DejaVu Sans" font-weight="bold" font-size="14.00">http://www.ncbi.nlm.nih.gov/clinvar/variation/431733</text>
<g id="a_node7_5"><a xlink:href="http://www.ncbi.nlm.nih.gov/clinvar/variation/431733" xlink:title="&lt;TABLE&gt;">
<polygon fill="#eeeeee" stroke="none" points="1668.5,-318.5 1668.5,-333.5 2108.5,-333.5 2108.5,-318.5 1668.5,-318.5"/>
<text text-anchor="start" x="1765" y="-323.5" font-family="DejaVu Sans" font-size="10.00" fill="#6666ff">http://www.ncbi.nlm.nih.gov/clinvar/variation/431733</text>
</a>
</g>
<polygon fill="none" stroke="#666666" points="1667.5,-317.5 1667.5,-353.5 2109.5,-353.5 2109.5,-317.5 1667.5,-317.5"/>
</g>
<!-- node1&#45;&gt;node8 -->
<g id="edge23" class="edge"><title>node1&#45;&gt;node8</title>
<path fill="none" stroke="BLACK" d="M1421.32,-427.499C1520.61,-408.159 1667.62,-379.524 1770.13,-359.557"/>
<polygon fill="BLACK" stroke="BLACK" points="1771.07,-362.94 1780.21,-357.592 1769.73,-356.069 1771.07,-362.94"/>
<text text-anchor="start" x="1635.5" y="-389.8" font-family="Times,serif" font-size="14.00"> </text>
<text text-anchor="start" x="1639.5" y="-389.8" font-family="Times,serif" font-size="10.00" fill="#336633">OBAN:association_has_subject</text>
<text text-anchor="start" x="1771.5" y="-389.8" font-family="Times,serif" font-size="14.00"> </text>
</g>
<!-- node15 -->
<g id="node14" class="node"><title>node15</title>
<polygon fill="grey" stroke="none" points="1058.5,-115 1058.5,-134 1452.5,-134 1452.5,-115 1058.5,-115"/>
<text text-anchor="start" x="1060.5" y="-121.8" font-family="DejaVu Sans" font-weight="bold" font-size="14.00">http://www.ncbi.nlm.nih.gov/pubmed/27486776</text>
<g id="a_node14_6"><a xlink:href="http://www.ncbi.nlm.nih.gov/pubmed/27486776" xlink:title="&lt;TABLE&gt;">
<polygon fill="#eeeeee" stroke="none" points="1058.5,-100 1058.5,-115 1452.5,-115 1452.5,-100 1058.5,-100"/>
<text text-anchor="start" x="1144" y="-105" font-family="DejaVu Sans" font-size="10.00" fill="#6666ff">http://www.ncbi.nlm.nih.gov/pubmed/27486776</text>
</a>
</g>
<polygon fill="none" stroke="#666666" points="1057.5,-99 1057.5,-135 1453.5,-135 1453.5,-99 1057.5,-99"/>
</g>
<!-- node1&#45;&gt;node15 -->
<g id="edge13" class="edge"><title>node1&#45;&gt;node15</title>
<path fill="none" stroke="BLACK" d="M1301.16,-427.497C1292.39,-411.485 1281.2,-388.585 1275.5,-367 1255.32,-290.595 1253.74,-196.803 1254.5,-149.087"/>
<polygon fill="BLACK" stroke="BLACK" points="1258,-149.149 1254.7,-139.079 1251,-149.005 1258,-149.149"/>
<text text-anchor="start" x="1261.5" y="-275.8" font-family="Times,serif" font-size="14.00"> </text>
<text text-anchor="start" x="1265.5" y="-275.8" font-family="Times,serif" font-size="10.00" fill="#336633">dc:source</text>
<text text-anchor="start" x="1305.5" y="-275.8" font-family="Times,serif" font-size="14.00"> </text>
</g>
<!-- node6 -->
<g id="node20" class="node"><title>node6</title>
<polygon fill="grey" stroke="none" points="2748.5,-219.5 2748.5,-238.5 2954.5,-238.5 2954.5,-219.5 2748.5,-219.5"/>
<text text-anchor="start" x="2750.5" y="-226.3" font-family="DejaVu Sans" font-weight="bold" font-size="14.00">&quot;Bardet&#45;Biedl syndrome&quot;</text>
<g id="a_node20_7"><a xlink:href="http://omim.org/entry/PS209900" xlink:title="&lt;TABLE&gt;">
<polygon fill="#eeeeee" stroke="none" points="2748.5,-204.5 2748.5,-219.5 2954.5,-219.5 2954.5,-204.5 2748.5,-204.5"/>
<text text-anchor="start" x="2774" y="-209.5" font-family="DejaVu Sans" font-size="10.00" fill="#6666ff">http://omim.org/entry/PS209900</text>
</a>
</g>
<polygon fill="none" stroke="#666666" points="2747.5,-203.5 2747.5,-239.5 2955.5,-239.5 2955.5,-203.5 2747.5,-203.5"/>
</g>
<!-- node1&#45;&gt;node6 -->
<g id="edge22" class="edge"><title>node1&#45;&gt;node6</title>
<path fill="none" stroke="BLACK" d="M1479.26,-441.78C1644.61,-432.766 1905.18,-412.283 2126.5,-367 2218.22,-348.234 2236.04,-323.97 2327.5,-304 2503.45,-265.583 2552.49,-286.232 2729.5,-253 2740.45,-250.944 2751.89,-248.495 2763.18,-245.891"/>
<polygon fill="BLACK" stroke="BLACK" points="2764.12,-249.267 2773.05,-243.57 2762.51,-242.453 2764.12,-249.267"/>
<text text-anchor="start" x="2327.5" y="-332.8" font-family="Times,serif" font-size="14.00"> </text>
<text text-anchor="start" x="2331.5" y="-332.8" font-family="Times,serif" font-size="10.00" fill="#336633">OBAN:association_has_object</text>
<text text-anchor="start" x="2459.5" y="-332.8" font-family="Times,serif" font-size="14.00"> </text>
</g>
<!-- node22 -->
<g id="node23" class="node"><title>node22</title>
<polygon fill="grey" stroke="none" points="2481.5,-333.5 2481.5,-352.5 2699.5,-352.5 2699.5,-333.5 2481.5,-333.5"/>
<text text-anchor="start" x="2529.5" y="-340.3" font-family="DejaVu Sans" font-weight="bold" font-size="14.00">GENO_0000841</text>
<g id="a_node23_8"><a xlink:href="http://purl.obolibrary.org/obo/GENO_0000841" xlink:title="&lt;TABLE&gt;">
<polygon fill="#eeeeee" stroke="none" points="2481.5,-318.5 2481.5,-333.5 2699.5,-333.5 2699.5,-318.5 2481.5,-318.5"/>
<text text-anchor="start" x="2483.5" y="-323.5" font-family="DejaVu Sans" font-size="10.00" fill="#6666ff">http://purl.obolibrary.org/obo/GENO_0000841</text>
</a>
</g>
<polygon fill="none" stroke="#666666" points="2480.5,-317.5 2480.5,-353.5 2700.5,-353.5 2700.5,-317.5 2480.5,-317.5"/>
</g>
<!-- node1&#45;&gt;node22 -->
<g id="edge26" class="edge"><title>node1&#45;&gt;node22</title>
<path fill="none" stroke="BLACK" d="M1479.22,-444.514C1724.64,-437.946 2172.9,-423.215 2332.5,-400 2393.16,-391.176 2460.37,-374.402 2510.98,-360.31"/>
<polygon fill="BLACK" stroke="BLACK" points="2512.19,-363.604 2520.87,-357.53 2510.3,-356.865 2512.19,-363.604"/>
<text text-anchor="start" x="2411.5" y="-389.8" font-family="Times,serif" font-size="14.00"> </text>
<text text-anchor="start" x="2415.5" y="-389.8" font-family="Times,serif" font-size="10.00" fill="#336633">OBAN:association_has_predicate</text>
<text text-anchor="start" x="2555.5" y="-389.8" font-family="Times,serif" font-size="14.00"> </text>
</g>
<!-- node4 -->
<g id="node4" class="node"><title>node4</title>
<polygon fill="grey" stroke="none" points="9.5,-219.5 9.5,-238.5 584.5,-238.5 584.5,-219.5 9.5,-219.5"/>
<text text-anchor="start" x="11.5" y="-226.3" font-family="DejaVu Sans" font-weight="bold" font-size="14.00">&quot;Center for Human Disease Modeling,Duke University Medical Center&quot;</text>
<g id="a_node4_9"><a xlink:href="http://www.ncbi.nlm.nih.gov/clinvar/submitters/505664" xlink:title="&lt;TABLE&gt;">
<polygon fill="#eeeeee" stroke="none" points="9.5,-204.5 9.5,-219.5 584.5,-219.5 584.5,-204.5 9.5,-204.5"/>
<text text-anchor="start" x="168.5" y="-209.5" font-family="DejaVu Sans" font-size="10.00" fill="#6666ff">http://www.ncbi.nlm.nih.gov/clinvar/submitters/505664</text>
</a>
</g>
<polygon fill="none" stroke="#666666" points="8,-203.5 8,-239.5 585,-239.5 585,-203.5 8,-203.5"/>
</g>
<!-- node3&#45;&gt;node4 -->
<g id="edge2" class="edge"><title>node3&#45;&gt;node4</title>
<path fill="none" stroke="BLACK" d="M743.127,-303.97C641.716,-285.471 514.475,-262.261 421.773,-245.351"/>
<polygon fill="BLACK" stroke="BLACK" points="422.246,-241.88 411.78,-243.528 420.99,-248.766 422.246,-241.88"/>
<text text-anchor="start" x="640.5" y="-275.8" font-family="Times,serif" font-size="14.00"> </text>
<text text-anchor="start" x="644.5" y="-275.8" font-family="Times,serif" font-size="10.00" fill="#336633">OBO:SEPIO_0000018</text>
<text text-anchor="start" x="738.5" y="-275.8" font-family="Times,serif" font-size="14.00"> </text>
</g>
<!-- node3&#45;&gt;node5 -->
<g id="edge28" class="edge"><title>node3&#45;&gt;node5</title>
<path fill="none" stroke="BLACK" d="M947.936,-303.896C968.547,-287.046 993.918,-266.304 1013.89,-249.976"/>
<polygon fill="BLACK" stroke="BLACK" points="1016.28,-252.54 1021.81,-243.501 1011.85,-247.12 1016.28,-252.54"/>
<text text-anchor="start" x="987.5" y="-275.8" font-family="Times,serif" font-size="14.00"> </text>
<text text-anchor="start" x="991.5" y="-275.8" font-family="Times,serif" font-size="10.00" fill="#336633">OBO:SEPIO_0000111</text>
<text text-anchor="start" x="1085.5" y="-275.8" font-family="Times,serif" font-size="14.00"> </text>
</g>
<!-- node14 -->
<g id="node13" class="node"><title>node14</title>
<polygon fill="grey" stroke="none" points="620.5,-219.5 620.5,-238.5 838.5,-238.5 838.5,-219.5 620.5,-219.5"/>
<text text-anchor="start" x="667.5" y="-226.3" font-family="DejaVu Sans" font-weight="bold" font-size="14.00">SEPIO_0000001</text>
<g id="a_node13_10"><a xlink:href="http://purl.obolibrary.org/obo/SEPIO_0000001" xlink:title="&lt;TABLE&gt;">
<polygon fill="#eeeeee" stroke="none" points="620.5,-204.5 620.5,-219.5 838.5,-219.5 838.5,-204.5 620.5,-204.5"/>
<text text-anchor="start" x="622.5" y="-209.5" font-family="DejaVu Sans" font-size="10.00" fill="#6666ff">http://purl.obolibrary.org/obo/SEPIO_0000001</text>
</a>
</g>
<polygon fill="none" stroke="#666666" points="619.5,-203.5 619.5,-239.5 839.5,-239.5 839.5,-203.5 619.5,-203.5"/>
</g>
<!-- node3&#45;&gt;node14 -->
<g id="edge12" class="edge"><title>node3&#45;&gt;node14</title>
<path fill="none" stroke="BLACK" d="M861.041,-303.896C833.205,-286.671 798.798,-265.381 772.155,-248.895"/>
<polygon fill="BLACK" stroke="BLACK" points="773.784,-245.786 763.438,-243.501 770.1,-251.739 773.784,-245.786"/>
<text text-anchor="start" x="831.5" y="-275.8" font-family="Times,serif" font-size="14.00"> </text>
<text text-anchor="start" x="835.5" y="-275.8" font-family="Times,serif" font-size="10.00" fill="#336633">rdf:type</text>
<text text-anchor="start" x="868.5" y="-275.8" font-family="Times,serif" font-size="14.00"> </text>
</g>
<!-- node23 -->
<g id="node24" class="node"><title>node23</title>
<polygon fill="grey" stroke="none" points="203.5,-115 203.5,-134 390.5,-134 390.5,-115 203.5,-115"/>
<text text-anchor="start" x="245.5" y="-121.8" font-family="DejaVu Sans" font-weight="bold" font-size="14.00">organization</text>
<g id="a_node24_11"><a xlink:href="http://xmlns.com/foaf/0.1/organization" xlink:title="&lt;TABLE&gt;">
<polygon fill="#eeeeee" stroke="none" points="203.5,-100 203.5,-115 390.5,-115 390.5,-100 203.5,-100"/>
<text text-anchor="start" x="205.5" y="-105" font-family="DejaVu Sans" font-size="10.00" fill="#6666ff">http://xmlns.com/foaf/0.1/organization</text>
</a>
</g>
<polygon fill="none" stroke="#666666" points="202,-99 202,-135 391,-135 391,-99 202,-99"/>
</g>
<!-- node4&#45;&gt;node23 -->
<g id="edge29" class="edge"><title>node4&#45;&gt;node23</title>
<path fill="none" stroke="BLACK" d="M296.5,-199.262C296.5,-184.831 296.5,-165.499 296.5,-149.311"/>
<polygon fill="BLACK" stroke="BLACK" points="300,-149.211 296.5,-139.211 293,-149.211 300,-149.211"/>
<text text-anchor="start" x="296.5" y="-161.8" font-family="Times,serif" font-size="14.00"> </text>
<text text-anchor="start" x="300.5" y="-161.8" font-family="Times,serif" font-size="10.00" fill="#336633">rdf:type</text>
<text text-anchor="start" x="333.5" y="-161.8" font-family="Times,serif" font-size="14.00"> </text>
</g>
<!-- node0 -->
<g id="node11" class="node"><title>node0</title>
<polygon fill="grey" stroke="none" points="426.5,-115 426.5,-134 776.5,-134 776.5,-115 426.5,-115"/>
<text text-anchor="start" x="428.5" y="-121.8" font-family="DejaVu Sans" font-weight="bold" font-size="14.00">&quot;_:be870b3d47783bbdcf05SEPIO:0000066&quot;</text>
<g id="a_node11_12"><a xlink:href="https://monarchinitiative.org/.well-known/genid/b664828053687f26b867" xlink:title="&lt;TABLE&gt;">
<polygon fill="#eeeeee" stroke="none" points="426.5,-100 426.5,-115 776.5,-115 776.5,-100 426.5,-100"/>
<text text-anchor="start" x="430.5" y="-105" font-family="DejaVu Sans" font-size="10.00" fill="#6666ff">https://monarchinitiative.org/.well&#45;known/genid/b664828053687f26b867</text>
</a>
</g>
<polygon fill="none" stroke="#666666" points="425.5,-99 425.5,-135 777.5,-135 777.5,-99 425.5,-99"/>
</g>
<!-- node5&#45;&gt;node0 -->
<g id="edge27" class="edge"><title>node5&#45;&gt;node0</title>
<path fill="none" stroke="BLACK" d="M955.899,-199.448C882.342,-182.543 779.134,-158.824 703.058,-141.34"/>
<polygon fill="BLACK" stroke="BLACK" points="703.51,-137.853 692.98,-139.024 701.942,-144.675 703.51,-137.853"/>
<text text-anchor="start" x="824.5" y="-161.8" font-family="Times,serif" font-size="14.00"> </text>
<text text-anchor="start" x="828.5" y="-161.8" font-family="Times,serif" font-size="10.00" fill="#336633">OBO:SEPIO_0000085</text>
<text text-anchor="start" x="922.5" y="-161.8" font-family="Times,serif" font-size="14.00"> </text>
</g>
<!-- node5&#45;&gt;node15 -->
<g id="edge21" class="edge"><title>node5&#45;&gt;node15</title>
<path fill="none" stroke="BLACK" d="M1074.36,-199.253C1092.31,-185.803 1116.89,-168.789 1140.5,-157 1151.04,-151.74 1162.45,-146.919 1173.86,-142.595"/>
<polygon fill="BLACK" stroke="BLACK" points="1175.24,-145.816 1183.42,-139.081 1172.82,-139.246 1175.24,-145.816"/>
<text text-anchor="start" x="1140.5" y="-161.8" font-family="Times,serif" font-size="14.00"> </text>
<text text-anchor="start" x="1144.5" y="-161.8" font-family="Times,serif" font-size="10.00" fill="#336633">OBO:SEPIO_0000124</text>
<text text-anchor="start" x="1238.5" y="-161.8" font-family="Times,serif" font-size="14.00"> </text>
</g>
<!-- node24 -->
<g id="node25" class="node"><title>node24</title>
<polygon fill="grey" stroke="none" points="812.5,-115 812.5,-134 1022.5,-134 1022.5,-115 812.5,-115"/>
<text text-anchor="start" x="863" y="-121.8" font-family="DejaVu Sans" font-weight="bold" font-size="14.00">ECO_0000000</text>
<g id="a_node25_13"><a xlink:href="http://purl.obolibrary.org/obo/ECO_0000000" xlink:title="&lt;TABLE&gt;">
<polygon fill="#eeeeee" stroke="none" points="812.5,-100 812.5,-115 1022.5,-115 1022.5,-100 812.5,-100"/>
<text text-anchor="start" x="814.5" y="-105" font-family="DejaVu Sans" font-size="10.00" fill="#6666ff">http://purl.obolibrary.org/obo/ECO_0000000</text>
</a>
</g>
<polygon fill="none" stroke="#666666" points="811.5,-99 811.5,-135 1023.5,-135 1023.5,-99 811.5,-99"/>
</g>
<!-- node5&#45;&gt;node24 -->
<g id="edge30" class="edge"><title>node5&#45;&gt;node24</title>
<path fill="none" stroke="BLACK" d="M1020.56,-199.262C1000.78,-183.663 973.733,-162.337 952.31,-145.446"/>
<polygon fill="BLACK" stroke="BLACK" points="954.421,-142.654 944.402,-139.211 950.087,-148.151 954.421,-142.654"/>
<text text-anchor="start" x="982.5" y="-161.8" font-family="Times,serif" font-size="14.00"> </text>
<text text-anchor="start" x="986.5" y="-161.8" font-family="Times,serif" font-size="10.00" fill="#336633">rdf:type</text>
<text text-anchor="start" x="1019.5" y="-161.8" font-family="Times,serif" font-size="14.00"> </text>
</g>
<!-- node9 -->
<g id="node8" class="node"><title>node9</title>
<polygon fill="grey" stroke="none" points="1488.5,-115 1488.5,-134 1710.5,-134 1710.5,-115 1488.5,-115"/>
<text text-anchor="start" x="1533" y="-121.8" font-family="DejaVu Sans" font-weight="bold" font-size="14.00">NCBITaxon_9606</text>
<g id="a_node8_14"><a xlink:href="http://purl.obolibrary.org/obo/NCBITaxon_9606" xlink:title="&lt;TABLE&gt;">
<polygon fill="#eeeeee" stroke="none" points="1488.5,-100 1488.5,-115 1710.5,-115 1710.5,-100 1488.5,-100"/>
<text text-anchor="start" x="1490.5" y="-105" font-family="DejaVu Sans" font-size="10.00" fill="#6666ff">http://purl.obolibrary.org/obo/NCBITaxon_9606</text>
</a>
</g>
<polygon fill="none" stroke="#666666" points="1487.5,-99 1487.5,-135 1711.5,-135 1711.5,-99 1487.5,-99"/>
</g>
<!-- node8&#45;&gt;node9 -->
<g id="edge5" class="edge"><title>node8&#45;&gt;node9</title>
<path fill="none" stroke="BLACK" d="M1659.28,-315.249C1514.6,-300.708 1350.88,-278.867 1328.5,-253 1310.18,-231.823 1311.43,-212.196 1328.5,-190 1338.76,-176.663 1416.97,-156.733 1486.75,-141.221"/>
<polygon fill="BLACK" stroke="BLACK" points="1487.52,-144.635 1496.53,-139.062 1486.01,-137.799 1487.52,-144.635"/>
<text text-anchor="start" x="1328.5" y="-218.8" font-family="Times,serif" font-size="14.00"> </text>
<text text-anchor="start" x="1332.5" y="-218.8" font-family="Times,serif" font-size="10.00" fill="#336633">OBO:RO_0002162</text>
<text text-anchor="start" x="1414.5" y="-218.8" font-family="Times,serif" font-size="14.00"> </text>
</g>
<!-- node10 -->
<g id="node9" class="node"><title>node10</title>
<polygon fill="grey" stroke="none" points="2213.5,-228.5 2213.5,-247.5 2712.5,-247.5 2712.5,-228.5 2213.5,-228.5"/>
<text text-anchor="start" x="2267" y="-235.3" font-family="DejaVu Sans" font-weight="bold" font-size="14.00">&quot;GRCh37/hg19 1p36.31(chr1:5910699&#45;6038368)&quot;</text>
<g id="a_node9_15"><a xlink:href="http://www.ncbi.nlm.nih.gov/clinvar/variation/425238" xlink:title="&lt;TABLE&gt;">
<polygon fill="#eeeeee" stroke="none" points="2213.5,-213.5 2213.5,-228.5 2712.5,-228.5 2712.5,-213.5 2213.5,-213.5"/>
<text text-anchor="start" x="2339.5" y="-218.5" font-family="DejaVu Sans" font-size="10.00" fill="#6666ff">http://www.ncbi.nlm.nih.gov/clinvar/variation/425238</text>
</a>
</g>
<text text-anchor="start" x="2215.5" y="-200.3" font-family="DejaVu Sans" font-size="14.00">oboInOwl:hasExactSynonym</text>
<text text-anchor="start" x="2417.5" y="-200.3" font-family="DejaVu Sans" font-size="14.00">&quot;NC_000001.10:g.5910699_6038368dup&quot;</text>
<polygon fill="none" stroke="#666666" points="2212,-194 2212,-249 2713,-249 2713,-194 2212,-194"/>
</g>
<!-- node8&#45;&gt;node10 -->
<g id="edge8" class="edge"><title>node8&#45;&gt;node10</title>
<path fill="none" stroke="BLACK" d="M1958.04,-313.486C1983.52,-305.399 2012.49,-295.755 2038.5,-286 2054.35,-280.057 2057.16,-275.424 2073.5,-271 2087.57,-267.19 2135.79,-260.499 2193.72,-253.281"/>
<polygon fill="BLACK" stroke="BLACK" points="2194.37,-256.727 2203.87,-252.023 2193.51,-249.78 2194.37,-256.727"/>
<text text-anchor="start" x="2073.5" y="-275.8" font-family="Times,serif" font-size="14.00"> </text>
<text text-anchor="start" x="2077.5" y="-275.8" font-family="Times,serif" font-size="10.00" fill="#336633">OBO:GENO_0000382</text>
<text text-anchor="start" x="2173.5" y="-275.8" font-family="Times,serif" font-size="14.00"> </text>
</g>
<!-- node11 -->
<g id="node10" class="node"><title>node11</title>
<polygon fill="grey" stroke="none" points="1437.5,-228.5 1437.5,-247.5 1936.5,-247.5 1936.5,-228.5 1437.5,-228.5"/>
<text text-anchor="start" x="1491" y="-235.3" font-family="DejaVu Sans" font-weight="bold" font-size="14.00">&quot;GRCh37/hg19 1p36.31(chr1:6051187&#45;6158763)&quot;</text>
<g id="a_node10_16"><a xlink:href="http://www.ncbi.nlm.nih.gov/clinvar/variation/425239" xlink:title="&lt;TABLE&gt;">
<polygon fill="#eeeeee" stroke="none" points="1437.5,-213.5 1437.5,-228.5 1936.5,-228.5 1936.5,-213.5 1437.5,-213.5"/>
<text text-anchor="start" x="1563.5" y="-218.5" font-family="DejaVu Sans" font-size="10.00" fill="#6666ff">http://www.ncbi.nlm.nih.gov/clinvar/variation/425239</text>
</a>
</g>
<text text-anchor="start" x="1439.5" y="-200.3" font-family="DejaVu Sans" font-size="14.00">oboInOwl:hasExactSynonym</text>
<text text-anchor="start" x="1641.5" y="-200.3" font-family="DejaVu Sans" font-size="14.00">&quot;NC_000001.10:g.6051187_6158763dup&quot;</text>
<polygon fill="none" stroke="#666666" points="1436,-194 1436,-249 1937,-249 1937,-194 1436,-194"/>
</g>
<!-- node8&#45;&gt;node11 -->
<g id="edge11" class="edge"><title>node8&#45;&gt;node11</title>
<path fill="none" stroke="BLACK" d="M1850.51,-313.434C1822.51,-297.911 1783.76,-276.426 1750.95,-258.237"/>
<polygon fill="BLACK" stroke="BLACK" points="1752.32,-254.99 1741.87,-253.202 1748.92,-261.112 1752.32,-254.99"/>
<text text-anchor="start" x="1800.5" y="-275.8" font-family="Times,serif" font-size="14.00"> </text>
<text text-anchor="start" x="1804.5" y="-275.8" font-family="Times,serif" font-size="10.00" fill="#336633">OBO:GENO_0000382</text>
<text text-anchor="start" x="1900.5" y="-275.8" font-family="Times,serif" font-size="14.00"> </text>
</g>
<!-- node18 -->
<g id="node18" class="node"><title>node18</title>
<polygon fill="grey" stroke="none" points="1972.5,-219.5 1972.5,-238.5 2176.5,-238.5 2176.5,-219.5 1972.5,-219.5"/>
<text text-anchor="start" x="2025" y="-226.3" font-family="DejaVu Sans" font-weight="bold" font-size="14.00">SO_0001024</text>
<g id="a_node18_17"><a xlink:href="http://purl.obolibrary.org/obo/SO_0001024" xlink:title="&lt;TABLE&gt;">
<polygon fill="#eeeeee" stroke="none" points="1972.5,-204.5 1972.5,-219.5 2176.5,-219.5 2176.5,-204.5 1972.5,-204.5"/>
<text text-anchor="start" x="1974.5" y="-209.5" font-family="DejaVu Sans" font-size="10.00" fill="#6666ff">http://purl.obolibrary.org/obo/SO_0001024</text>
</a>
</g>
<polygon fill="none" stroke="#666666" points="1971.5,-203.5 1971.5,-239.5 2177.5,-239.5 2177.5,-203.5 1971.5,-203.5"/>
</g>
<!-- node8&#45;&gt;node18 -->
<g id="edge17" class="edge"><title>node8&#45;&gt;node18</title>
<path fill="none" stroke="BLACK" d="M1923.49,-313.434C1953.79,-295.189 1997.76,-268.706 2030.46,-249.021"/>
<polygon fill="BLACK" stroke="BLACK" points="2032.59,-251.819 2039.36,-243.662 2028.98,-245.822 2032.59,-251.819"/>
<text text-anchor="start" x="1993.5" y="-275.8" font-family="Times,serif" font-size="14.00"> </text>
<text text-anchor="start" x="1997.5" y="-275.8" font-family="Times,serif" font-size="10.00" fill="#336633">rdf:type</text>
<text text-anchor="start" x="2030.5" y="-275.8" font-family="Times,serif" font-size="14.00"> </text>
</g>
<!-- node8&#45;&gt;node6 -->
<g id="edge19" class="edge"><title>node8&#45;&gt;node6</title>
<path fill="none" stroke="BLACK" d="M2081.54,-313.475C2114.2,-306.718 2147.29,-297.791 2177.5,-286 2188.87,-281.563 2188.86,-274.676 2200.5,-271 2312.66,-235.571 2613.02,-269.355 2729.5,-253 2741.95,-251.251 2754.98,-248.746 2767.69,-245.912"/>
<polygon fill="BLACK" stroke="BLACK" points="2768.84,-249.238 2777.8,-243.577 2767.27,-242.417 2768.84,-249.238"/>
<text text-anchor="start" x="2200.5" y="-275.8" font-family="Times,serif" font-size="14.00"> </text>
<text text-anchor="start" x="2204.5" y="-275.8" font-family="Times,serif" font-size="10.00" fill="#336633">OBO:GENO_0000841</text>
<text text-anchor="start" x="2300.5" y="-275.8" font-family="Times,serif" font-size="14.00"> </text>
</g>
<!-- node10&#45;&gt;node9 -->
<g id="edge6" class="edge"><title>node10&#45;&gt;node9</title>
<path fill="none" stroke="BLACK" d="M2281.93,-189.977C2196.86,-175.977 2104.89,-161.495 2062.5,-157 1917.99,-141.677 1878.08,-154.368 1729.99,-139.085"/>
<polygon fill="BLACK" stroke="BLACK" points="1729.92,-135.558 1719.61,-137.987 1729.18,-142.52 1729.92,-135.558"/>
<text text-anchor="start" x="2168.5" y="-161.8" font-family="Times,serif" font-size="14.00"> </text>
<text text-anchor="start" x="2172.5" y="-161.8" font-family="Times,serif" font-size="10.00" fill="#336633">OBO:RO_0002162</text>
<text text-anchor="start" x="2254.5" y="-161.8" font-family="Times,serif" font-size="14.00"> </text>
</g>
<!-- node16 -->
<g id="node15" class="node"><title>node16</title>
<polygon fill="grey" stroke="none" points="2358.5,-115 2358.5,-134 2714.5,-134 2714.5,-115 2358.5,-115"/>
<text text-anchor="start" x="2360.5" y="-121.8" font-family="DejaVu Sans" font-weight="bold" font-size="14.00">https://www.ncbi.nlm.nih.gov/gene/261734</text>
<g id="a_node15_18"><a xlink:href="https://www.ncbi.nlm.nih.gov/gene/261734" xlink:title="&lt;TABLE&gt;">
<polygon fill="#eeeeee" stroke="none" points="2358.5,-100 2358.5,-115 2714.5,-115 2714.5,-100 2358.5,-100"/>
<text text-anchor="start" x="2436" y="-105" font-family="DejaVu Sans" font-size="10.00" fill="#6666ff">https://www.ncbi.nlm.nih.gov/gene/261734</text>
</a>
</g>
<polygon fill="none" stroke="#666666" points="2357.5,-99 2357.5,-135 2715.5,-135 2715.5,-99 2357.5,-99"/>
</g>
<!-- node10&#45;&gt;node16 -->
<g id="edge16" class="edge"><title>node10&#45;&gt;node16</title>
<path fill="none" stroke="BLACK" d="M2484.7,-189.747C2494.34,-176.396 2505.58,-160.823 2515.13,-147.604"/>
<polygon fill="BLACK" stroke="BLACK" points="2518.1,-149.461 2521.12,-139.304 2512.43,-145.363 2518.1,-149.461"/>
<text text-anchor="start" x="2508.5" y="-161.8" font-family="Times,serif" font-size="14.00"> </text>
<text text-anchor="start" x="2512.5" y="-161.8" font-family="Times,serif" font-size="10.00" fill="#336633">OBO:BFO_0000050</text>
<text text-anchor="start" x="2599.5" y="-161.8" font-family="Times,serif" font-size="14.00"> </text>
</g>
<!-- node20 -->
<g id="node21" class="node"><title>node20</title>
<polygon fill="grey" stroke="none" points="2118.5,-115 2118.5,-134 2322.5,-134 2322.5,-115 2118.5,-115"/>
<text text-anchor="start" x="2171" y="-121.8" font-family="DejaVu Sans" font-weight="bold" font-size="14.00">SO_0001742</text>
<g id="a_node21_19"><a xlink:href="http://purl.obolibrary.org/obo/SO_0001742" xlink:title="&lt;TABLE&gt;">
<polygon fill="#eeeeee" stroke="none" points="2118.5,-100 2118.5,-115 2322.5,-115 2322.5,-100 2118.5,-100"/>
<text text-anchor="start" x="2120.5" y="-105" font-family="DejaVu Sans" font-size="10.00" fill="#6666ff">http://purl.obolibrary.org/obo/SO_0001742</text>
</a>
</g>
<polygon fill="none" stroke="#666666" points="2117.5,-99 2117.5,-135 2323.5,-135 2323.5,-99 2117.5,-99"/>
</g>
<!-- node10&#45;&gt;node20 -->
<g id="edge20" class="edge"><title>node10&#45;&gt;node20</title>
<path fill="none" stroke="BLACK" d="M2439.18,-189.775C2428.62,-177.849 2415.2,-165.131 2400.5,-157 2394.09,-153.454 2369.2,-147.449 2339.89,-141.2"/>
<polygon fill="BLACK" stroke="BLACK" points="2340.31,-137.711 2329.8,-139.074 2338.86,-144.56 2340.31,-137.711"/>
<text text-anchor="start" x="2420.5" y="-161.8" font-family="Times,serif" font-size="14.00"> </text>
<text text-anchor="start" x="2424.5" y="-161.8" font-family="Times,serif" font-size="10.00" fill="#336633">rdf:type</text>
<text text-anchor="start" x="2457.5" y="-161.8" font-family="Times,serif" font-size="14.00"> </text>
</g>
<!-- node11&#45;&gt;node9 -->
<g id="edge7" class="edge"><title>node11&#45;&gt;node9</title>
<path fill="none" stroke="BLACK" d="M1660.4,-189.747C1648.96,-176.269 1635.6,-160.526 1624.31,-147.227"/>
<polygon fill="BLACK" stroke="BLACK" points="1626.72,-144.663 1617.58,-139.304 1621.39,-149.193 1626.72,-144.663"/>
<text text-anchor="start" x="1643.5" y="-161.8" font-family="Times,serif" font-size="14.00"> </text>
<text text-anchor="start" x="1647.5" y="-161.8" font-family="Times,serif" font-size="10.00" fill="#336633">OBO:RO_0002162</text>
<text text-anchor="start" x="1729.5" y="-161.8" font-family="Times,serif" font-size="14.00"> </text>
</g>
<!-- node11&#45;&gt;node16 -->
<g id="edge14" class="edge"><title>node11&#45;&gt;node16</title>
<path fill="none" stroke="BLACK" d="M1945.35,-190.8C1948.42,-190.527 1951.47,-190.26 1954.5,-190 2092,-178.193 2129.86,-202.33 2264.5,-172 2281.81,-168.1 2284.42,-161.815 2301.5,-157 2323.44,-150.814 2346.83,-145.483 2370.03,-140.927"/>
<polygon fill="BLACK" stroke="BLACK" points="2370.79,-144.344 2379.95,-139.021 2369.47,-137.47 2370.79,-144.344"/>
<text text-anchor="start" x="2301.5" y="-161.8" font-family="Times,serif" font-size="14.00"> </text>
<text text-anchor="start" x="2305.5" y="-161.8" font-family="Times,serif" font-size="10.00" fill="#336633">OBO:BFO_0000050</text>
<text text-anchor="start" x="2392.5" y="-161.8" font-family="Times,serif" font-size="14.00"> </text>
</g>
<!-- node11&#45;&gt;node20 -->
<g id="edge25" class="edge"><title>node11&#45;&gt;node20</title>
<path fill="none" stroke="BLACK" d="M1845.63,-189.955C1927.41,-174.257 2025.42,-155.444 2100.72,-140.992"/>
<polygon fill="BLACK" stroke="BLACK" points="2101.55,-144.395 2110.72,-139.073 2100.24,-137.521 2101.55,-144.395"/>
<text text-anchor="start" x="2017.5" y="-161.8" font-family="Times,serif" font-size="14.00"> </text>
<text text-anchor="start" x="2021.5" y="-161.8" font-family="Times,serif" font-size="10.00" fill="#336633">rdf:type</text>
<text text-anchor="start" x="2054.5" y="-161.8" font-family="Times,serif" font-size="14.00"> </text>
</g>
<!-- node21 -->
<g id="node22" class="node"><title>node21</title>
<polygon fill="grey" stroke="none" points="1746.5,-115 1746.5,-134 2082.5,-134 2082.5,-115 1746.5,-115"/>
<text text-anchor="start" x="1748.5" y="-121.8" font-family="DejaVu Sans" font-weight="bold" font-size="14.00">https://www.ncbi.nlm.nih.gov/gene/8514</text>
<g id="a_node22_20"><a xlink:href="https://www.ncbi.nlm.nih.gov/gene/8514" xlink:title="&lt;TABLE&gt;">
<polygon fill="#eeeeee" stroke="none" points="1746.5,-100 1746.5,-115 2082.5,-115 2082.5,-100 1746.5,-100"/>
<text text-anchor="start" x="1820" y="-105" font-family="DejaVu Sans" font-size="10.00" fill="#6666ff">https://www.ncbi.nlm.nih.gov/gene/8514</text>
</a>
</g>
<polygon fill="none" stroke="#666666" points="1745.5,-99 1745.5,-135 2083.5,-135 2083.5,-99 1745.5,-99"/>
</g>
<!-- node11&#45;&gt;node21 -->
<g id="edge24" class="edge"><title>node11&#45;&gt;node21</title>
<path fill="none" stroke="BLACK" d="M1754.6,-189.885C1787.66,-175.023 1826.9,-157.382 1858.23,-143.295"/>
<polygon fill="BLACK" stroke="BLACK" points="1860,-146.337 1867.69,-139.044 1857.13,-139.953 1860,-146.337"/>
<text text-anchor="start" x="1828.5" y="-161.8" font-family="Times,serif" font-size="14.00"> </text>
<text text-anchor="start" x="1832.5" y="-161.8" font-family="Times,serif" font-size="10.00" fill="#336633">OBO:BFO_0000050</text>
<text text-anchor="start" x="1919.5" y="-161.8" font-family="Times,serif" font-size="14.00"> </text>
</g>
<!-- node12 -->
<g id="node12" class="node"><title>node12</title>
<polygon fill="grey" stroke="none" points="492.5,-20 492.5,-39 710.5,-39 710.5,-20 492.5,-20"/>
<text text-anchor="start" x="539.5" y="-26.8" font-family="DejaVu Sans" font-weight="bold" font-size="14.00">SEPIO_0000066</text>
<g id="a_node12_21"><a xlink:href="http://purl.obolibrary.org/obo/SEPIO_0000066" xlink:title="&lt;TABLE&gt;">
<polygon fill="#eeeeee" stroke="none" points="492.5,-5 492.5,-20 710.5,-20 710.5,-5 492.5,-5"/>
<text text-anchor="start" x="494.5" y="-10" font-family="DejaVu Sans" font-size="10.00" fill="#6666ff">http://purl.obolibrary.org/obo/SEPIO_0000066</text>
</a>
</g>
<polygon fill="none" stroke="#666666" points="491.5,-4 491.5,-40 711.5,-40 711.5,-4 491.5,-4"/>
</g>
<!-- node0&#45;&gt;node12 -->
<g id="edge9" class="edge"><title>node0&#45;&gt;node12</title>
<path fill="none" stroke="BLACK" d="M601.5,-94.8969C601.5,-82.8873 601.5,-67.6175 601.5,-54.242"/>
<polygon fill="BLACK" stroke="BLACK" points="605,-54.0196 601.5,-44.0196 598,-54.0197 605,-54.0196"/>
<text text-anchor="start" x="601.5" y="-66.8" font-family="Times,serif" font-size="14.00"> </text>
<text text-anchor="start" x="605.5" y="-66.8" font-family="Times,serif" font-size="10.00" fill="#336633">rdf:type</text>
<text text-anchor="start" x="638.5" y="-66.8" font-family="Times,serif" font-size="14.00"> </text>
</g>
<!-- node19 -->
<g id="node19" class="node"><title>node19</title>
<polygon fill="grey" stroke="none" points="1152.5,-20 1152.5,-39 1358.5,-39 1358.5,-20 1152.5,-20"/>
<text text-anchor="start" x="1203" y="-26.8" font-family="DejaVu Sans" font-weight="bold" font-size="14.00">IAO_0000013</text>
<g id="a_node19_22"><a xlink:href="http://purl.obolibrary.org/obo/IAO_0000013" xlink:title="&lt;TABLE&gt;">
<polygon fill="#eeeeee" stroke="none" points="1152.5,-5 1152.5,-20 1358.5,-20 1358.5,-5 1152.5,-5"/>
<text text-anchor="start" x="1154.5" y="-10" font-family="DejaVu Sans" font-size="10.00" fill="#6666ff">http://purl.obolibrary.org/obo/IAO_0000013</text>
</a>
</g>
<polygon fill="none" stroke="#666666" points="1151.5,-4 1151.5,-40 1359.5,-40 1359.5,-4 1151.5,-4"/>
</g>
<!-- node15&#45;&gt;node19 -->
<g id="edge18" class="edge"><title>node15&#45;&gt;node19</title>
<path fill="none" stroke="BLACK" d="M1255.5,-94.8969C1255.5,-82.8873 1255.5,-67.6175 1255.5,-54.242"/>
<polygon fill="BLACK" stroke="BLACK" points="1259,-54.0196 1255.5,-44.0196 1252,-54.0197 1259,-54.0196"/>
<text text-anchor="start" x="1255.5" y="-66.8" font-family="Times,serif" font-size="14.00"> </text>
<text text-anchor="start" x="1259.5" y="-66.8" font-family="Times,serif" font-size="10.00" fill="#336633">rdf:type</text>
<text text-anchor="start" x="1292.5" y="-66.8" font-family="Times,serif" font-size="14.00"> </text>
</g>
<!-- node13 -->
<g id="node16" class="node"><title>node13</title>
<polygon fill="grey" stroke="none" points="2701.5,-456.5 2701.5,-475.5 2967.5,-475.5 2967.5,-456.5 2701.5,-456.5"/>
<text text-anchor="start" x="2762.5" y="-463.3" font-family="DejaVu Sans" font-weight="bold" font-size="14.00">RCV000498447.nt</text>
<g id="a_node16_23"><a xlink:href="https://data.monarchinitiative.org/ttl/RCV000498447.nt" xlink:title="&lt;TABLE&gt;">
<polygon fill="#eeeeee" stroke="none" points="2701.5,-441.5 2701.5,-456.5 2967.5,-456.5 2967.5,-441.5 2701.5,-441.5"/>
<text text-anchor="start" x="2703.5" y="-446.5" font-family="DejaVu Sans" font-size="10.00" fill="#6666ff">https://data.monarchinitiative.org/ttl/RCV000498447.nt</text>
</a>
</g>
<text text-anchor="start" x="2703.5" y="-428.3" font-family="DejaVu Sans" font-size="14.00">owl:versionInfo</text>
<text text-anchor="start" x="2841.5" y="-428.3" font-family="DejaVu Sans" font-size="14.00">&quot;2019&#45;04&#45;03&quot;</text>
<polygon fill="none" stroke="#666666" points="2700.5,-422 2700.5,-477 2968.5,-477 2968.5,-422 2700.5,-422"/>
</g>
<!-- node17 -->
<g id="node17" class="node"><title>node17</title>
<polygon fill="grey" stroke="none" points="2735.5,-333.5 2735.5,-352.5 2933.5,-352.5 2933.5,-333.5 2735.5,-333.5"/>
<text text-anchor="start" x="2797.5" y="-340.3" font-family="DejaVu Sans" font-weight="bold" font-size="14.00">Ontology</text>
<g id="a_node17_24"><a xlink:href="http://www.w3.org/2002/07/owl#Ontology" xlink:title="&lt;TABLE&gt;">
<polygon fill="#eeeeee" stroke="none" points="2735.5,-318.5 2735.5,-333.5 2933.5,-333.5 2933.5,-318.5 2735.5,-318.5"/>
<text text-anchor="start" x="2737.5" y="-323.5" font-family="DejaVu Sans" font-size="10.00" fill="#6666ff">http://www.w3.org/2002/07/owl#Ontology</text>
</a>
</g>
<polygon fill="none" stroke="#666666" points="2734.5,-317.5 2734.5,-353.5 2934.5,-353.5 2934.5,-317.5 2734.5,-317.5"/>
</g>
<!-- node13&#45;&gt;node17 -->
<g id="edge15" class="edge"><title>node13&#45;&gt;node17</title>
<path fill="none" stroke="BLACK" d="M2834.5,-417.896C2834.5,-402.319 2834.5,-383.416 2834.5,-367.749"/>
<polygon fill="BLACK" stroke="BLACK" points="2838,-367.501 2834.5,-357.501 2831,-367.501 2838,-367.501"/>
<text text-anchor="start" x="2834.5" y="-389.8" font-family="Times,serif" font-size="14.00"> </text>
<text text-anchor="start" x="2838.5" y="-389.8" font-family="Times,serif" font-size="10.00" fill="#336633">rdf:type</text>
<text text-anchor="start" x="2871.5" y="-389.8" font-family="Times,serif" font-size="14.00"> </text>
</g>
</g>
</svg>
