<?xml version="1.0" encoding="UTF-8" standalone="no"?>
<!DOCTYPE svg PUBLIC "-//W3C//DTD SVG 1.1//EN"
 "http://www.w3.org/Graphics/SVG/1.1/DTD/svg11.dtd">
<!-- Generated by graphviz version 2.38.0 (20140413.2041)
 -->
<!-- Title: %3 Pages: 1 -->
<svg width="4139pt" height="584pt"
 viewBox="0.00 0.00 4139.00 584.00" xmlns="http://www.w3.org/2000/svg" xmlns:xlink="http://www.w3.org/1999/xlink">
<g id="graph0" class="graph" transform="scale(1 1) rotate(0) translate(4 580)">
<title>%3</title>
<polygon fill="white" stroke="none" points="-4,4 -4,-580 4135,-580 4135,4 -4,4"/>
<!-- node0 -->
<g id="node1" class="node"><title>node0</title>
<polygon fill="grey" stroke="none" points="389,-314 389,-333 843,-333 843,-314 389,-314"/>
<text text-anchor="start" x="411.5" y="-320.8" font-family="DejaVu Sans" font-weight="bold" font-size="14.00">&quot;NM_018136.4(ASPM):c.10168C&gt;T (p.Arg3390Ter)&quot;</text>
<g id="a_node1_0"><a xlink:href="http://www.ncbi.nlm.nih.gov/clinvar/variation/165918" xlink:title="&lt;TABLE&gt;">
<polygon fill="#eeeeee" stroke="none" points="389,-299 389,-314 843,-314 843,-299 389,-299"/>
<text text-anchor="start" x="492.5" y="-304" font-family="DejaVu Sans" font-size="10.00" fill="#6666ff">http://www.ncbi.nlm.nih.gov/clinvar/variation/165918</text>
</a>
</g>
<text text-anchor="start" x="391" y="-285.8" font-family="DejaVu Sans" font-size="14.00">oboInOwl:hasExactSynonym</text>
<text text-anchor="start" x="593" y="-285.8" font-family="DejaVu Sans" font-size="14.00">&quot;NC_000001.10:g.197056096G&gt;A&quot;</text>
<text text-anchor="start" x="391" y="-266.8" font-family="DejaVu Sans" font-size="14.00">oboInOwl:hasExactSynonym</text>
<text text-anchor="start" x="593" y="-266.8" font-family="DejaVu Sans" font-size="14.00">&quot;NC_000001.11:g.197086966G&gt;A&quot;</text>
<text text-anchor="start" x="391" y="-247.8" font-family="DejaVu Sans" font-size="14.00">oboInOwl:hasExactSynonym</text>
<text text-anchor="start" x="593" y="-247.8" font-family="DejaVu Sans" font-size="14.00">&quot;NG_015867.1:g.64729C&gt;T&quot;</text>
<text text-anchor="start" x="391" y="-228.8" font-family="DejaVu Sans" font-size="14.00">oboInOwl:hasExactSynonym</text>
<text text-anchor="start" x="593" y="-228.8" font-family="DejaVu Sans" font-size="14.00">&quot;NM_018136.4:c.10168C&gt;T&quot;</text>
<text text-anchor="start" x="391" y="-209.8" font-family="DejaVu Sans" font-size="14.00">oboInOwl:hasExactSynonym</text>
<text text-anchor="start" x="593" y="-209.8" font-family="DejaVu Sans" font-size="14.00">&quot;NP_060606.3:p.Arg3390Ter&quot;</text>
<polygon fill="none" stroke="#666666" points="388,-203.5 388,-334.5 844,-334.5 844,-203.5 388,-203.5"/>
</g>
<!-- node1 -->
<g id="node2" class="node"><title>node1</title>
<polygon fill="grey" stroke="none" points="1001,-115 1001,-134 1205,-134 1205,-115 1001,-115"/>
<text text-anchor="start" x="1053.5" y="-121.8" font-family="DejaVu Sans" font-weight="bold" font-size="14.00">SO_0001483</text>
<g id="a_node2_1"><a xlink:href="http://purl.obolibrary.org/obo/SO_0001483" xlink:title="&lt;TABLE&gt;">
<polygon fill="#eeeeee" stroke="none" points="1001,-100 1001,-115 1205,-115 1205,-100 1001,-100"/>
<text text-anchor="start" x="1003" y="-105" font-family="DejaVu Sans" font-size="10.00" fill="#6666ff">http://purl.obolibrary.org/obo/SO_0001483</text>
</a>
</g>
<polygon fill="none" stroke="#666666" points="1000,-99 1000,-135 1206,-135 1206,-99 1000,-99"/>
</g>
<!-- node0&#45;&gt;node1 -->
<g id="edge1" class="edge"><title>node0&#45;&gt;node1</title>
<path fill="none" stroke="BLACK" d="M736.486,-199.448C769.484,-183.227 805.863,-167.586 841,-157 901.489,-138.775 919.529,-148.404 982,-139 982.102,-138.985 982.204,-138.969 982.307,-138.954"/>
<polygon fill="BLACK" stroke="BLACK" points="982.577,-142.453 991.93,-137.476 981.514,-135.535 982.577,-142.453"/>
<text text-anchor="start" x="841" y="-161.8" font-family="Times,serif" font-size="14.00"> </text>
<text text-anchor="start" x="845" y="-161.8" font-family="Times,serif" font-size="10.00" fill="#336633">rdf:type</text>
<text text-anchor="start" x="878" y="-161.8" font-family="Times,serif" font-size="14.00"> </text>
</g>
<!-- node10 -->
<g id="node9" class="node"><title>node10</title>
<polygon fill="grey" stroke="none" points="1241,-115 1241,-134 1463,-134 1463,-115 1241,-115"/>
<text text-anchor="start" x="1285.5" y="-121.8" font-family="DejaVu Sans" font-weight="bold" font-size="14.00">NCBITaxon_9606</text>
<g id="a_node9_2"><a xlink:href="http://purl.obolibrary.org/obo/NCBITaxon_9606" xlink:title="&lt;TABLE&gt;">
<polygon fill="#eeeeee" stroke="none" points="1241,-100 1241,-115 1463,-115 1463,-100 1241,-100"/>
<text text-anchor="start" x="1243" y="-105" font-family="DejaVu Sans" font-size="10.00" fill="#6666ff">http://purl.obolibrary.org/obo/NCBITaxon_9606</text>
</a>
</g>
<polygon fill="none" stroke="#666666" points="1240,-99 1240,-135 1464,-135 1464,-99 1240,-99"/>
</g>
<!-- node0&#45;&gt;node10 -->
<g id="edge7" class="edge"><title>node0&#45;&gt;node10</title>
<path fill="none" stroke="BLACK" d="M821.767,-199.419C834.974,-195.971 848.13,-192.789 861,-190 927.053,-175.684 947.865,-193.322 1012,-172 1024.66,-167.791 1025.3,-161.071 1038,-157 1113.67,-132.749 1139.14,-148.345 1221.78,-139.042"/>
<polygon fill="BLACK" stroke="BLACK" points="1222.37,-142.497 1231.87,-137.816 1221.52,-135.548 1222.37,-142.497"/>
<text text-anchor="start" x="1038" y="-161.8" font-family="Times,serif" font-size="14.00"> </text>
<text text-anchor="start" x="1042" y="-161.8" font-family="Times,serif" font-size="10.00" fill="#336633">OBO:RO_0002162</text>
<text text-anchor="start" x="1124" y="-161.8" font-family="Times,serif" font-size="14.00"> </text>
</g>
<!-- node16 -->
<g id="node16" class="node"><title>node16</title>
<polygon fill="grey" stroke="none" points="9,-115 9,-134 365,-134 365,-115 9,-115"/>
<text text-anchor="start" x="11" y="-121.8" font-family="DejaVu Sans" font-weight="bold" font-size="14.00">https://www.ncbi.nlm.nih.gov/gene/259266</text>
<g id="a_node16_3"><a xlink:href="https://www.ncbi.nlm.nih.gov/gene/259266" xlink:title="&lt;TABLE&gt;">
<polygon fill="#eeeeee" stroke="none" points="9,-100 9,-115 365,-115 365,-100 9,-100"/>
<text text-anchor="start" x="86.5" y="-105" font-family="DejaVu Sans" font-size="10.00" fill="#6666ff">https://www.ncbi.nlm.nih.gov/gene/259266</text>
</a>
</g>
<polygon fill="none" stroke="#666666" points="8,-99 8,-135 366,-135 366,-99 8,-99"/>
</g>
<!-- node0&#45;&gt;node16 -->
<g id="edge31" class="edge"><title>node0&#45;&gt;node16</title>
<path fill="none" stroke="BLACK" d="M420.018,-199.475C361.596,-179.047 301.327,-157.975 256.723,-142.379"/>
<polygon fill="BLACK" stroke="BLACK" points="257.759,-139.033 247.164,-139.036 255.449,-145.641 257.759,-139.033"/>
<text text-anchor="start" x="339" y="-161.8" font-family="Times,serif" font-size="14.00"> </text>
<text text-anchor="start" x="343" y="-161.8" font-family="Times,serif" font-size="10.00" fill="#336633">OBO:GENO_0000418</text>
<text text-anchor="start" x="439" y="-161.8" font-family="Times,serif" font-size="14.00"> </text>
</g>
<!-- node19 -->
<g id="node19" class="node"><title>node19</title>
<polygon fill="grey" stroke="none" points="402,-115 402,-134 965,-134 965,-115 402,-115"/>
<text text-anchor="start" x="404" y="-121.8" font-family="DejaVu Sans" font-weight="bold" font-size="14.00">http://www.ncbi.nlm.nih.gov/projects/SNP/snp_ref.cgi?rs=587783211</text>
<g id="a_node19_4"><a xlink:href="http://www.ncbi.nlm.nih.gov/projects/SNP/snp_ref.cgi?rs=587783211" xlink:title="&lt;TABLE&gt;">
<polygon fill="#eeeeee" stroke="none" points="402,-100 402,-115 965,-115 965,-100 402,-100"/>
<text text-anchor="start" x="521" y="-105" font-family="DejaVu Sans" font-size="10.00" fill="#6666ff">http://www.ncbi.nlm.nih.gov/projects/SNP/snp_ref.cgi?rs=587783211</text>
</a>
</g>
<polygon fill="none" stroke="#666666" points="400.5,-99 400.5,-135 965.5,-135 965.5,-99 400.5,-99"/>
</g>
<!-- node0&#45;&gt;node19 -->
<g id="edge16" class="edge"><title>node0&#45;&gt;node19</title>
<path fill="none" stroke="BLACK" d="M646.755,-199.146C654.637,-181.5 662.723,-163.397 669.252,-148.779"/>
<polygon fill="BLACK" stroke="BLACK" points="672.619,-149.823 673.502,-139.265 666.228,-146.968 672.619,-149.823"/>
<text text-anchor="start" x="666" y="-161.8" font-family="Times,serif" font-size="14.00"> </text>
<text text-anchor="start" x="670" y="-161.8" font-family="Times,serif" font-size="10.00" fill="#336633">owl:sameAs</text>
<text text-anchor="start" x="721" y="-161.8" font-family="Times,serif" font-size="14.00"> </text>
</g>
<!-- node2 -->
<g id="node3" class="node"><title>node2</title>
<polygon fill="grey" stroke="none" points="886,-428.5 886,-447.5 1278,-447.5 1278,-428.5 886,-428.5"/>
<text text-anchor="start" x="888" y="-435.3" font-family="DejaVu Sans" font-weight="bold" font-size="14.00">&quot;NM_018136.4(ASPM):c.[10168C&gt;T];[8098C&gt;T]&quot;</text>
<g id="a_node3_5"><a xlink:href="http://www.ncbi.nlm.nih.gov/clinvar/variation/424707" xlink:title="&lt;TABLE&gt;">
<polygon fill="#eeeeee" stroke="none" points="886,-413.5 886,-428.5 1278,-428.5 1278,-413.5 886,-413.5"/>
<text text-anchor="start" x="958.5" y="-418.5" font-family="DejaVu Sans" font-size="10.00" fill="#6666ff">http://www.ncbi.nlm.nih.gov/clinvar/variation/424707</text>
</a>
</g>
<polygon fill="none" stroke="#666666" points="885,-412.5 885,-448.5 1279,-448.5 1279,-412.5 885,-412.5"/>
</g>
<!-- node2&#45;&gt;node0 -->
<g id="edge29" class="edge"><title>node2&#45;&gt;node0</title>
<path fill="none" stroke="BLACK" d="M960.705,-408.442C926.738,-401.178 890.073,-392.032 857,-381 825.083,-370.353 791.761,-356.746 760.433,-342.735"/>
<polygon fill="BLACK" stroke="BLACK" points="761.771,-339.499 751.217,-338.576 758.892,-345.879 761.771,-339.499"/>
<text text-anchor="start" x="857" y="-370.8" font-family="Times,serif" font-size="14.00"> </text>
<text text-anchor="start" x="861" y="-370.8" font-family="Times,serif" font-size="10.00" fill="#336633">OBO:GENO_0000382</text>
<text text-anchor="start" x="957" y="-370.8" font-family="Times,serif" font-size="14.00"> </text>
</g>
<!-- node3 -->
<g id="node4" class="node"><title>node3</title>
<polygon fill="grey" stroke="none" points="879,-267 879,-286 1097,-286 1097,-267 879,-267"/>
<text text-anchor="start" x="927" y="-273.8" font-family="DejaVu Sans" font-weight="bold" font-size="14.00">GENO_0000402</text>
<g id="a_node4_6"><a xlink:href="http://purl.obolibrary.org/obo/GENO_0000402" xlink:title="&lt;TABLE&gt;">
<polygon fill="#eeeeee" stroke="none" points="879,-252 879,-267 1097,-267 1097,-252 879,-252"/>
<text text-anchor="start" x="881" y="-257" font-family="DejaVu Sans" font-size="10.00" fill="#6666ff">http://purl.obolibrary.org/obo/GENO_0000402</text>
</a>
</g>
<polygon fill="none" stroke="#666666" points="878,-251 878,-287 1098,-287 1098,-251 878,-251"/>
</g>
<!-- node2&#45;&gt;node3 -->
<g id="edge2" class="edge"><title>node2&#45;&gt;node3</title>
<path fill="none" stroke="BLACK" d="M1050.31,-408.342C1040.77,-400.677 1030.98,-391.334 1024,-381 1007.68,-356.832 998.329,-324.746 993.272,-301.289"/>
<polygon fill="BLACK" stroke="BLACK" points="996.642,-300.292 991.241,-291.178 989.779,-301.671 996.642,-300.292"/>
<text text-anchor="start" x="1024" y="-370.8" font-family="Times,serif" font-size="14.00"> </text>
<text text-anchor="start" x="1028" y="-370.8" font-family="Times,serif" font-size="10.00" fill="#336633">OBO:GENO_0000608</text>
<text text-anchor="start" x="1124" y="-370.8" font-family="Times,serif" font-size="14.00"> </text>
</g>
<!-- node2&#45;&gt;node3 -->
<g id="edge22" class="edge"><title>node2&#45;&gt;node3</title>
<path fill="none" stroke="BLACK" d="M1002.17,-408.355C989.827,-401.598 978.657,-392.702 971,-381 955.332,-357.056 963.219,-324.079 972.801,-300.299"/>
<polygon fill="BLACK" stroke="BLACK" points="976.047,-301.609 976.801,-291.041 969.621,-298.833 976.047,-301.609"/>
<text text-anchor="start" x="971" y="-370.8" font-family="Times,serif" font-size="14.00"> </text>
<text text-anchor="start" x="975" y="-370.8" font-family="Times,serif" font-size="10.00" fill="#336633">rdf:type</text>
<text text-anchor="start" x="1008" y="-370.8" font-family="Times,serif" font-size="14.00"> </text>
</g>
<!-- node7 -->
<g id="node6" class="node"><title>node7</title>
<polygon fill="grey" stroke="none" points="1763,-267 1763,-286 2146,-286 2146,-267 1763,-267"/>
<text text-anchor="start" x="1765" y="-273.8" font-family="DejaVu Sans" font-weight="bold" font-size="14.00">&quot;Primary autosomal recessive microcephaly 5&quot;</text>
<g id="a_node6_7"><a xlink:href="http://omim.org/entry/608716" xlink:title="&lt;TABLE&gt;">
<polygon fill="#eeeeee" stroke="none" points="1763,-252 1763,-267 2146,-267 2146,-252 1763,-252"/>
<text text-anchor="start" x="1883.5" y="-257" font-family="DejaVu Sans" font-size="10.00" fill="#6666ff">http://omim.org/entry/608716</text>
</a>
</g>
<polygon fill="none" stroke="#666666" points="1761.5,-251 1761.5,-287 2146.5,-287 2146.5,-251 1761.5,-251"/>
</g>
<!-- node2&#45;&gt;node7 -->
<g id="edge12" class="edge"><title>node2&#45;&gt;node7</title>
<path fill="none" stroke="BLACK" d="M1287.03,-416.648C1418.93,-405.351 1593.24,-384.743 1744,-348 1797.46,-334.971 1855.97,-312.519 1897.62,-295.04"/>
<polygon fill="BLACK" stroke="BLACK" points="1899.19,-298.175 1907.04,-291.053 1896.46,-291.729 1899.19,-298.175"/>
<text text-anchor="start" x="1656" y="-370.8" font-family="Times,serif" font-size="14.00"> </text>
<text text-anchor="start" x="1660" y="-370.8" font-family="Times,serif" font-size="10.00" fill="#336633">OBO:GENO_0000840</text>
<text text-anchor="start" x="1756" y="-370.8" font-family="Times,serif" font-size="14.00"> </text>
</g>
<!-- node2&#45;&gt;node10 -->
<g id="edge5" class="edge"><title>node2&#45;&gt;node10</title>
<path fill="none" stroke="BLACK" d="M1107.89,-408.161C1115.61,-400.423 1123.26,-391.083 1128,-381 1164.37,-303.62 1105.09,-262.128 1151,-190 1165.9,-166.592 1178.52,-167.991 1204,-157 1217.08,-151.356 1231.18,-146.365 1245.29,-142.001"/>
<polygon fill="BLACK" stroke="BLACK" points="1246.47,-145.301 1255.05,-139.08 1244.47,-138.595 1246.47,-145.301"/>
<text text-anchor="start" x="1151" y="-266.3" font-family="Times,serif" font-size="14.00"> </text>
<text text-anchor="start" x="1155" y="-266.3" font-family="Times,serif" font-size="10.00" fill="#336633">OBO:RO_0002162</text>
<text text-anchor="start" x="1237" y="-266.3" font-family="Times,serif" font-size="14.00"> </text>
</g>
<!-- node5 -->
<g id="node14" class="node"><title>node5</title>
<polygon fill="grey" stroke="none" points="1260,-324 1260,-343 1727,-343 1727,-324 1260,-324"/>
<text text-anchor="start" x="1293.5" y="-330.8" font-family="DejaVu Sans" font-weight="bold" font-size="14.00">&quot;NM_018136.4(ASPM):c.8098C&gt;T (p.Arg2700Ter)&quot;</text>
<g id="a_node14_8"><a xlink:href="http://www.ncbi.nlm.nih.gov/clinvar/variation/165917" xlink:title="&lt;TABLE&gt;">
<polygon fill="#eeeeee" stroke="none" points="1260,-309 1260,-324 1727,-324 1727,-309 1260,-309"/>
<text text-anchor="start" x="1370" y="-314" font-family="DejaVu Sans" font-size="10.00" fill="#6666ff">http://www.ncbi.nlm.nih.gov/clinvar/variation/165917</text>
</a>
</g>
<text text-anchor="start" x="1262" y="-295.8" font-family="DejaVu Sans" font-size="14.00">oboInOwl:hasExactSynonym</text>
<text text-anchor="start" x="1464" y="-295.8" font-family="DejaVu Sans" font-size="14.00">&quot;NC_000001.10:g.197070283G&gt;A&quot;</text>
<text text-anchor="start" x="1262" y="-276.8" font-family="DejaVu Sans" font-size="14.00">oboInOwl:hasExactSynonym</text>
<text text-anchor="start" x="1464" y="-276.8" font-family="DejaVu Sans" font-size="14.00">&quot;NC_000001.11:g.197101153G&gt;A&quot;</text>
<text text-anchor="start" x="1262" y="-257.8" font-family="DejaVu Sans" font-size="14.00">oboInOwl:hasExactSynonym</text>
<text text-anchor="start" x="1464" y="-257.8" font-family="DejaVu Sans" font-size="14.00">&quot;NG_015867.1:g.50542C&gt;T&quot;</text>
<text text-anchor="start" x="1262" y="-238.8" font-family="DejaVu Sans" font-size="14.00">oboInOwl:hasExactSynonym</text>
<text text-anchor="start" x="1464" y="-238.8" font-family="DejaVu Sans" font-size="14.00">&quot;NM_001206846.1:c.4066&#45;4989C&gt;T&quot;</text>
<text text-anchor="start" x="1262" y="-219.8" font-family="DejaVu Sans" font-size="14.00">oboInOwl:hasExactSynonym</text>
<text text-anchor="start" x="1464" y="-219.8" font-family="DejaVu Sans" font-size="14.00">&quot;NM_018136.4:c.8098C&gt;T&quot;</text>
<text text-anchor="start" x="1262" y="-200.8" font-family="DejaVu Sans" font-size="14.00">oboInOwl:hasExactSynonym</text>
<text text-anchor="start" x="1464" y="-200.8" font-family="DejaVu Sans" font-size="14.00">&quot;NP_060606.3:p.Arg2700Ter&quot;</text>
<polygon fill="none" stroke="#666666" points="1258.5,-194 1258.5,-344 1727.5,-344 1727.5,-194 1258.5,-194"/>
</g>
<!-- node2&#45;&gt;node5 -->
<g id="edge32" class="edge"><title>node2&#45;&gt;node5</title>
<path fill="none" stroke="BLACK" d="M1136.15,-408.484C1174.27,-393.69 1227.99,-372.846 1282.19,-351.81"/>
<polygon fill="BLACK" stroke="BLACK" points="1283.54,-355.04 1291.6,-348.159 1281.01,-348.514 1283.54,-355.04"/>
<text text-anchor="start" x="1239" y="-370.8" font-family="Times,serif" font-size="14.00"> </text>
<text text-anchor="start" x="1243" y="-370.8" font-family="Times,serif" font-size="10.00" fill="#336633">OBO:GENO_0000382</text>
<text text-anchor="start" x="1339" y="-370.8" font-family="Times,serif" font-size="14.00"> </text>
</g>
<!-- node2&#45;&gt;node16 -->
<g id="edge25" class="edge"><title>node2&#45;&gt;node16</title>
<path fill="none" stroke="BLACK" d="M876.927,-420.394C651.231,-408.598 313.961,-385.042 267,-348 205.176,-299.234 190.966,-199.683 187.812,-149.056"/>
<polygon fill="BLACK" stroke="BLACK" points="191.305,-148.838 187.293,-139.032 184.315,-149.199 191.305,-148.838"/>
<text text-anchor="start" x="267" y="-266.3" font-family="Times,serif" font-size="14.00"> </text>
<text text-anchor="start" x="271" y="-266.3" font-family="Times,serif" font-size="10.00" fill="#336633">OBO:GENO_0000418</text>
<text text-anchor="start" x="367" y="-266.3" font-family="Times,serif" font-size="14.00"> </text>
</g>
<!-- node6 -->
<g id="node5" class="node"><title>node6</title>
<polygon fill="grey" stroke="none" points="2783,-542.5 2783,-561.5 3099,-561.5 3099,-542.5 2783,-542.5"/>
<text text-anchor="start" x="2797" y="-549.3" font-family="DejaVu Sans" font-weight="bold" font-size="14.00">MONARCH_b25e1dcae8dd05dc4d16</text>
<g id="a_node5_9"><a xlink:href="https://monarchinitiative.org/MONARCH_b25e1dcae8dd05dc4d16" xlink:title="&lt;TABLE&gt;">
<polygon fill="#eeeeee" stroke="none" points="2783,-527.5 2783,-542.5 3099,-542.5 3099,-527.5 2783,-527.5"/>
<text text-anchor="start" x="2785" y="-532.5" font-family="DejaVu Sans" font-size="10.00" fill="#6666ff">https://monarchinitiative.org/MONARCH_b25e1dcae8dd05dc4d16</text>
</a>
</g>
<polygon fill="none" stroke="#666666" points="2782,-526.5 2782,-562.5 3100,-562.5 3100,-526.5 2782,-526.5"/>
</g>
<!-- node6&#45;&gt;node2 -->
<g id="edge18" class="edge"><title>node6&#45;&gt;node2</title>
<path fill="none" stroke="BLACK" d="M2773.91,-535.552C2588.27,-526.536 2279.63,-510.997 2014,-495 1768.28,-480.202 1486.3,-460.629 1297.45,-447.145"/>
<polygon fill="BLACK" stroke="BLACK" points="1297.62,-443.649 1287.4,-446.427 1297.12,-450.631 1297.62,-443.649"/>
<text text-anchor="start" x="2014" y="-484.8" font-family="Times,serif" font-size="14.00"> </text>
<text text-anchor="start" x="2018" y="-484.8" font-family="Times,serif" font-size="10.00" fill="#336633">OBAN:association_has_subject</text>
<text text-anchor="start" x="2150" y="-484.8" font-family="Times,serif" font-size="14.00"> </text>
</g>
<!-- node6&#45;&gt;node7 -->
<g id="edge3" class="edge"><title>node6&#45;&gt;node7</title>
<path fill="none" stroke="BLACK" d="M2773.64,-532.028C2604.48,-518.882 2355.49,-494.839 2265,-462 2155.22,-422.162 2042.54,-340.364 1987.87,-297.532"/>
<polygon fill="BLACK" stroke="BLACK" points="1989.94,-294.704 1979.92,-291.255 1985.6,-300.198 1989.94,-294.704"/>
<text text-anchor="start" x="2265" y="-427.8" font-family="Times,serif" font-size="14.00"> </text>
<text text-anchor="start" x="2269" y="-427.8" font-family="Times,serif" font-size="10.00" fill="#336633">OBAN:association_has_object</text>
<text text-anchor="start" x="2397" y="-427.8" font-family="Times,serif" font-size="14.00"> </text>
</g>
<!-- node8 -->
<g id="node7" class="node"><title>node8</title>
<polygon fill="grey" stroke="none" points="3196,-115 3196,-134 3590,-134 3590,-115 3196,-115"/>
<text text-anchor="start" x="3198" y="-121.8" font-family="DejaVu Sans" font-weight="bold" font-size="14.00">http://www.ncbi.nlm.nih.gov/pubmed/25786579</text>
<g id="a_node7_10"><a xlink:href="http://www.ncbi.nlm.nih.gov/pubmed/25786579" xlink:title="&lt;TABLE&gt;">
<polygon fill="#eeeeee" stroke="none" points="3196,-100 3196,-115 3590,-115 3590,-100 3196,-100"/>
<text text-anchor="start" x="3281.5" y="-105" font-family="DejaVu Sans" font-size="10.00" fill="#6666ff">http://www.ncbi.nlm.nih.gov/pubmed/25786579</text>
</a>
</g>
<polygon fill="none" stroke="#666666" points="3195,-99 3195,-135 3591,-135 3591,-99 3195,-99"/>
</g>
<!-- node6&#45;&gt;node8 -->
<g id="edge11" class="edge"><title>node6&#45;&gt;node8</title>
<path fill="none" stroke="BLACK" d="M2964.6,-522.341C3001.2,-490.677 3075.04,-431.246 3148,-399 3241.78,-357.549 3305.6,-425.269 3373,-348 3421.48,-292.425 3410.6,-197.921 3400.65,-149.159"/>
<polygon fill="BLACK" stroke="BLACK" points="3404.03,-148.232 3398.5,-139.197 3397.19,-149.711 3404.03,-148.232"/>
<text text-anchor="start" x="3353" y="-370.8" font-family="Times,serif" font-size="14.00"> </text>
<text text-anchor="start" x="3357" y="-370.8" font-family="Times,serif" font-size="10.00" fill="#336633">dc:source</text>
<text text-anchor="start" x="3397" y="-370.8" font-family="Times,serif" font-size="14.00"> </text>
</g>
<!-- node11 -->
<g id="node10" class="node"><title>node11</title>
<polygon fill="grey" stroke="none" points="2579,-437.5 2579,-456.5 2928,-456.5 2928,-437.5 2579,-437.5"/>
<text text-anchor="start" x="2606" y="-444.3" font-family="DejaVu Sans" font-weight="bold" font-size="14.00">&quot;b25e1dcae8dd05dc4d16_assertion&quot;</text>
<g id="a_node10_11"><a xlink:href="https://monarchinitiative.org/.well-known/genid/bd539326250b4352d101" xlink:title="&lt;TABLE&gt;">
<polygon fill="#eeeeee" stroke="none" points="2579,-422.5 2579,-437.5 2928,-437.5 2928,-422.5 2579,-422.5"/>
<text text-anchor="start" x="2581" y="-427.5" font-family="DejaVu Sans" font-size="10.00" fill="#6666ff">https://monarchinitiative.org/.well&#45;known/genid/bd539326250b4352d101</text>
</a>
</g>
<text text-anchor="start" x="2581" y="-409.3" font-family="DejaVu Sans" font-size="14.00">dc:identifier</text>
<text text-anchor="start" x="2728" y="-409.3" font-family="DejaVu Sans" font-size="14.00">&quot;SCV000189126.2&quot;</text>
<polygon fill="none" stroke="#666666" points="2577.5,-403 2577.5,-458 2928.5,-458 2928.5,-403 2577.5,-403"/>
</g>
<!-- node6&#45;&gt;node11 -->
<g id="edge14" class="edge"><title>node6&#45;&gt;node11</title>
<path fill="none" stroke="BLACK" d="M2905.64,-522.434C2879.69,-506.977 2843.83,-485.609 2813.38,-467.47"/>
<polygon fill="BLACK" stroke="BLACK" points="2814.92,-464.313 2804.53,-462.202 2811.33,-470.327 2814.92,-464.313"/>
<text text-anchor="start" x="2859" y="-484.8" font-family="Times,serif" font-size="14.00"> </text>
<text text-anchor="start" x="2863" y="-484.8" font-family="Times,serif" font-size="10.00" fill="#336633">OBO:SEPIO_0000015</text>
<text text-anchor="start" x="2957" y="-484.8" font-family="Times,serif" font-size="14.00"> </text>
</g>
<!-- node12 -->
<g id="node12" class="node"><title>node12</title>
<polygon fill="grey" stroke="none" points="2182,-267 2182,-286 2526,-286 2526,-267 2182,-267"/>
<text text-anchor="start" x="2208" y="-273.8" font-family="DejaVu Sans" font-weight="bold" font-size="14.00">&quot;b25e1dcae8dd05dc4d16_evidence&quot;</text>
<g id="a_node12_12"><a xlink:href="https://monarchinitiative.org/.well-known/genid/b8e43a4f4ce6a8409c4a" xlink:title="&lt;TABLE&gt;">
<polygon fill="#eeeeee" stroke="none" points="2182,-252 2182,-267 2526,-267 2526,-252 2182,-252"/>
<text text-anchor="start" x="2184" y="-257" font-family="DejaVu Sans" font-size="10.00" fill="#6666ff">https://monarchinitiative.org/.well&#45;known/genid/b8e43a4f4ce6a8409c4a</text>
</a>
</g>
<polygon fill="none" stroke="#666666" points="2181,-251 2181,-287 2527,-287 2527,-251 2181,-251"/>
</g>
<!-- node6&#45;&gt;node12 -->
<g id="edge23" class="edge"><title>node6&#45;&gt;node12</title>
<path fill="none" stroke="BLACK" d="M2773.76,-530.863C2654.91,-519.024 2507.89,-497.676 2458,-462 2402.76,-422.499 2373.9,-344.265 2361.56,-300.848"/>
<polygon fill="BLACK" stroke="BLACK" points="2364.91,-299.84 2358.9,-291.115 2358.16,-301.684 2364.91,-299.84"/>
<text text-anchor="start" x="2458" y="-427.8" font-family="Times,serif" font-size="14.00"> </text>
<text text-anchor="start" x="2462" y="-427.8" font-family="Times,serif" font-size="10.00" fill="#336633">OBO:SEPIO_0000007</text>
<text text-anchor="start" x="2556" y="-427.8" font-family="Times,serif" font-size="14.00"> </text>
</g>
<!-- node21 -->
<g id="node22" class="node"><title>node21</title>
<polygon fill="grey" stroke="none" points="3166,-428.5 3166,-447.5 3384,-447.5 3384,-428.5 3166,-428.5"/>
<text text-anchor="start" x="3214" y="-435.3" font-family="DejaVu Sans" font-weight="bold" font-size="14.00">GENO_0000840</text>
<g id="a_node22_13"><a xlink:href="http://purl.obolibrary.org/obo/GENO_0000840" xlink:title="&lt;TABLE&gt;">
<polygon fill="#eeeeee" stroke="none" points="3166,-413.5 3166,-428.5 3384,-428.5 3384,-413.5 3166,-413.5"/>
<text text-anchor="start" x="3168" y="-418.5" font-family="DejaVu Sans" font-size="10.00" fill="#6666ff">http://purl.obolibrary.org/obo/GENO_0000840</text>
</a>
</g>
<polygon fill="none" stroke="#666666" points="3165,-412.5 3165,-448.5 3385,-448.5 3385,-412.5 3165,-412.5"/>
</g>
<!-- node6&#45;&gt;node21 -->
<g id="edge20" class="edge"><title>node6&#45;&gt;node21</title>
<path fill="none" stroke="BLACK" d="M3047.34,-522.439C3078.56,-515.061 3112.51,-505.856 3143,-495 3171.89,-484.715 3202.85,-470.028 3227.53,-457.37"/>
<polygon fill="BLACK" stroke="BLACK" points="3229.39,-460.344 3236.66,-452.631 3226.17,-454.131 3229.39,-460.344"/>
<text text-anchor="start" x="3181" y="-484.8" font-family="Times,serif" font-size="14.00"> </text>
<text text-anchor="start" x="3185" y="-484.8" font-family="Times,serif" font-size="10.00" fill="#336633">OBAN:association_has_predicate</text>
<text text-anchor="start" x="3325" y="-484.8" font-family="Times,serif" font-size="14.00"> </text>
</g>
<!-- node22 -->
<g id="node23" class="node"><title>node22</title>
<polygon fill="grey" stroke="none" points="3421,-428.5 3421,-447.5 3664,-447.5 3664,-428.5 3421,-428.5"/>
<text text-anchor="start" x="3482" y="-435.3" font-family="DejaVu Sans" font-weight="bold" font-size="14.00">RCV000162061</text>
<g id="a_node23_14"><a xlink:href="http://www.ncbi.nlm.nih.gov/clinvar/RCV000162061" xlink:title="&lt;TABLE&gt;">
<polygon fill="#eeeeee" stroke="none" points="3421,-413.5 3421,-428.5 3664,-428.5 3664,-413.5 3421,-413.5"/>
<text text-anchor="start" x="3423" y="-418.5" font-family="DejaVu Sans" font-size="10.00" fill="#6666ff">http://www.ncbi.nlm.nih.gov/clinvar/RCV000162061</text>
</a>
</g>
<polygon fill="none" stroke="#666666" points="3419.5,-412.5 3419.5,-448.5 3664.5,-448.5 3664.5,-412.5 3419.5,-412.5"/>
</g>
<!-- node6&#45;&gt;node22 -->
<g id="edge21" class="edge"><title>node6&#45;&gt;node22</title>
<path fill="none" stroke="BLACK" d="M3108.47,-529.181C3178.34,-521.555 3260.05,-510.475 3333,-495 3380.29,-484.967 3432.32,-469.179 3472.63,-455.856"/>
<polygon fill="BLACK" stroke="BLACK" points="3473.97,-459.097 3482.35,-452.615 3471.76,-452.457 3473.97,-459.097"/>
<text text-anchor="start" x="3392" y="-484.8" font-family="Times,serif" font-size="14.00"> </text>
<text text-anchor="start" x="3396" y="-484.8" font-family="Times,serif" font-size="10.00" fill="#336633">oboInOwl:hasdbxref</text>
<text text-anchor="start" x="3481" y="-484.8" font-family="Times,serif" font-size="14.00"> </text>
</g>
<!-- node25 -->
<g id="node26" class="node"><title>node25</title>
<polygon fill="grey" stroke="none" points="3700,-428.5 3700,-447.5 3854,-447.5 3854,-428.5 3700,-428.5"/>
<text text-anchor="start" x="3731" y="-435.3" font-family="DejaVu Sans" font-weight="bold" font-size="14.00">association</text>
<g id="a_node26_15"><a xlink:href="http://purl.org/oban/association" xlink:title="&lt;TABLE&gt;">
<polygon fill="#eeeeee" stroke="none" points="3700,-413.5 3700,-428.5 3854,-428.5 3854,-413.5 3700,-413.5"/>
<text text-anchor="start" x="3702" y="-418.5" font-family="DejaVu Sans" font-size="10.00" fill="#6666ff">http://purl.org/oban/association</text>
</a>
</g>
<polygon fill="none" stroke="#666666" points="3699,-412.5 3699,-448.5 3855,-448.5 3855,-412.5 3699,-412.5"/>
</g>
<!-- node6&#45;&gt;node25 -->
<g id="edge27" class="edge"><title>node6&#45;&gt;node25</title>
<path fill="none" stroke="BLACK" d="M3108.08,-537.408C3259.47,-528.997 3487.77,-509.066 3681,-462 3689,-460.052 3697.3,-457.788 3705.53,-455.392"/>
<polygon fill="BLACK" stroke="BLACK" points="3706.54,-458.742 3715.13,-452.529 3704.54,-452.034 3706.54,-458.742"/>
<text text-anchor="start" x="3583" y="-484.8" font-family="Times,serif" font-size="14.00"> </text>
<text text-anchor="start" x="3587" y="-484.8" font-family="Times,serif" font-size="10.00" fill="#336633">rdf:type</text>
<text text-anchor="start" x="3620" y="-484.8" font-family="Times,serif" font-size="14.00"> </text>
</g>
<!-- node9 -->
<g id="node8" class="node"><title>node9</title>
<polygon fill="grey" stroke="none" points="3290,-20 3290,-39 3496,-39 3496,-20 3290,-20"/>
<text text-anchor="start" x="3340.5" y="-26.8" font-family="DejaVu Sans" font-weight="bold" font-size="14.00">IAO_0000013</text>
<g id="a_node8_16"><a xlink:href="http://purl.obolibrary.org/obo/IAO_0000013" xlink:title="&lt;TABLE&gt;">
<polygon fill="#eeeeee" stroke="none" points="3290,-5 3290,-20 3496,-20 3496,-5 3290,-5"/>
<text text-anchor="start" x="3292" y="-10" font-family="DejaVu Sans" font-size="10.00" fill="#6666ff">http://purl.obolibrary.org/obo/IAO_0000013</text>
</a>
</g>
<polygon fill="none" stroke="#666666" points="3289,-4 3289,-40 3497,-40 3497,-4 3289,-4"/>
</g>
<!-- node8&#45;&gt;node9 -->
<g id="edge4" class="edge"><title>node8&#45;&gt;node9</title>
<path fill="none" stroke="BLACK" d="M3393,-94.8969C3393,-82.8873 3393,-67.6175 3393,-54.242"/>
<polygon fill="BLACK" stroke="BLACK" points="3396.5,-54.0196 3393,-44.0196 3389.5,-54.0197 3396.5,-54.0196"/>
<text text-anchor="start" x="3393" y="-66.8" font-family="Times,serif" font-size="14.00"> </text>
<text text-anchor="start" x="3397" y="-66.8" font-family="Times,serif" font-size="10.00" fill="#336633">rdf:type</text>
<text text-anchor="start" x="3430" y="-66.8" font-family="Times,serif" font-size="14.00"> </text>
</g>
<!-- node4 -->
<g id="node11" class="node"><title>node4</title>
<polygon fill="grey" stroke="none" points="2817,-267 2817,-286 3356,-286 3356,-267 2817,-267"/>
<text text-anchor="start" x="2819" y="-273.8" font-family="DejaVu Sans" font-weight="bold" font-size="14.00">&quot;Medical Research Institute,Tokyo Medical and Dental University&quot;</text>
<g id="a_node11_17"><a xlink:href="http://www.ncbi.nlm.nih.gov/clinvar/submitters/505721" xlink:title="&lt;TABLE&gt;">
<polygon fill="#eeeeee" stroke="none" points="2817,-252 2817,-267 3356,-267 3356,-252 2817,-252"/>
<text text-anchor="start" x="2958" y="-257" font-family="DejaVu Sans" font-size="10.00" fill="#6666ff">http://www.ncbi.nlm.nih.gov/clinvar/submitters/505721</text>
</a>
</g>
<polygon fill="none" stroke="#666666" points="2815.5,-251 2815.5,-287 3356.5,-287 3356.5,-251 2815.5,-251"/>
</g>
<!-- node11&#45;&gt;node4 -->
<g id="edge6" class="edge"><title>node11&#45;&gt;node4</title>
<path fill="none" stroke="BLACK" d="M2816.81,-398.936C2879.55,-368.884 2974.21,-323.544 3032.95,-295.41"/>
<polygon fill="BLACK" stroke="BLACK" points="3034.55,-298.524 3042.06,-291.047 3031.53,-292.211 3034.55,-298.524"/>
<text text-anchor="start" x="2880" y="-370.8" font-family="Times,serif" font-size="14.00"> </text>
<text text-anchor="start" x="2884" y="-370.8" font-family="Times,serif" font-size="10.00" fill="#336633">OBO:SEPIO_0000018</text>
<text text-anchor="start" x="2978" y="-370.8" font-family="Times,serif" font-size="14.00"> </text>
</g>
<!-- node11&#45;&gt;node12 -->
<g id="edge30" class="edge"><title>node11&#45;&gt;node12</title>
<path fill="none" stroke="BLACK" d="M2664.27,-398.973C2648.15,-393.174 2631.52,-387.029 2616,-381 2544.54,-353.243 2463.44,-318.35 2410.65,-295.172"/>
<polygon fill="BLACK" stroke="BLACK" points="2412.02,-291.95 2401.45,-291.128 2409.2,-298.358 2412.02,-291.95"/>
<text text-anchor="start" x="2616" y="-370.8" font-family="Times,serif" font-size="14.00"> </text>
<text text-anchor="start" x="2620" y="-370.8" font-family="Times,serif" font-size="10.00" fill="#336633">OBO:SEPIO_0000111</text>
<text text-anchor="start" x="2714" y="-370.8" font-family="Times,serif" font-size="14.00"> </text>
</g>
<!-- node20 -->
<g id="node20" class="node"><title>node20</title>
<polygon fill="grey" stroke="none" points="2562,-267 2562,-286 2780,-286 2780,-267 2562,-267"/>
<text text-anchor="start" x="2609" y="-273.8" font-family="DejaVu Sans" font-weight="bold" font-size="14.00">SEPIO_0000001</text>
<g id="a_node20_18"><a xlink:href="http://purl.obolibrary.org/obo/SEPIO_0000001" xlink:title="&lt;TABLE&gt;">
<polygon fill="#eeeeee" stroke="none" points="2562,-252 2562,-267 2780,-267 2780,-252 2562,-252"/>
<text text-anchor="start" x="2564" y="-257" font-family="DejaVu Sans" font-size="10.00" fill="#6666ff">http://purl.obolibrary.org/obo/SEPIO_0000001</text>
</a>
</g>
<polygon fill="none" stroke="#666666" points="2561,-251 2561,-287 2781,-287 2781,-251 2561,-251"/>
</g>
<!-- node11&#45;&gt;node20 -->
<g id="edge17" class="edge"><title>node11&#45;&gt;node20</title>
<path fill="none" stroke="BLACK" d="M2737.19,-398.747C2722.64,-370.444 2701.18,-328.698 2686.67,-300.481"/>
<polygon fill="BLACK" stroke="BLACK" points="2689.72,-298.763 2682.04,-291.469 2683.5,-301.963 2689.72,-298.763"/>
<text text-anchor="start" x="2727" y="-370.8" font-family="Times,serif" font-size="14.00"> </text>
<text text-anchor="start" x="2731" y="-370.8" font-family="Times,serif" font-size="10.00" fill="#336633">rdf:type</text>
<text text-anchor="start" x="2764" y="-370.8" font-family="Times,serif" font-size="14.00"> </text>
</g>
<!-- node14 -->
<g id="node13" class="node"><title>node14</title>
<polygon fill="grey" stroke="none" points="2973,-115 2973,-134 3160,-134 3160,-115 2973,-115"/>
<text text-anchor="start" x="3015" y="-121.8" font-family="DejaVu Sans" font-weight="bold" font-size="14.00">organization</text>
<g id="a_node13_19"><a xlink:href="http://xmlns.com/foaf/0.1/organization" xlink:title="&lt;TABLE&gt;">
<polygon fill="#eeeeee" stroke="none" points="2973,-100 2973,-115 3160,-115 3160,-100 2973,-100"/>
<text text-anchor="start" x="2975" y="-105" font-family="DejaVu Sans" font-size="10.00" fill="#6666ff">http://xmlns.com/foaf/0.1/organization</text>
</a>
</g>
<polygon fill="none" stroke="#666666" points="2971.5,-99 2971.5,-135 3160.5,-135 3160.5,-99 2971.5,-99"/>
</g>
<!-- node4&#45;&gt;node14 -->
<g id="edge9" class="edge"><title>node4&#45;&gt;node14</title>
<path fill="none" stroke="BLACK" d="M3083.18,-246.827C3079.78,-221.366 3074.05,-178.412 3070.16,-149.163"/>
<polygon fill="BLACK" stroke="BLACK" points="3073.6,-148.515 3068.81,-139.065 3066.66,-149.44 3073.6,-148.515"/>
<text text-anchor="start" x="3074" y="-161.8" font-family="Times,serif" font-size="14.00"> </text>
<text text-anchor="start" x="3078" y="-161.8" font-family="Times,serif" font-size="10.00" fill="#336633">rdf:type</text>
<text text-anchor="start" x="3111" y="-161.8" font-family="Times,serif" font-size="14.00"> </text>
</g>
<!-- node12&#45;&gt;node8 -->
<g id="edge8" class="edge"><title>node12&#45;&gt;node8</title>
<path fill="none" stroke="BLACK" d="M2394.65,-246.987C2432.31,-228.581 2490.42,-202.826 2544,-190 2610.14,-174.166 3071.57,-147.279 3176.65,-138.966"/>
<polygon fill="BLACK" stroke="BLACK" points="3177.25,-142.428 3186.93,-138.111 3176.67,-135.453 3177.25,-142.428"/>
<text text-anchor="start" x="2911" y="-161.8" font-family="Times,serif" font-size="14.00"> </text>
<text text-anchor="start" x="2915" y="-161.8" font-family="Times,serif" font-size="10.00" fill="#336633">OBO:SEPIO_0000124</text>
<text text-anchor="start" x="3009" y="-161.8" font-family="Times,serif" font-size="14.00"> </text>
</g>
<!-- node17 -->
<g id="node21" class="node"><title>node17</title>
<polygon fill="grey" stroke="none" points="2463,-115 2463,-134 2801,-134 2801,-115 2463,-115"/>
<text text-anchor="start" x="2589.5" y="-121.8" font-family="DejaVu Sans" font-weight="bold" font-size="14.00">&quot;research&quot;</text>
<g id="a_node21_20"><a xlink:href="https://monarchinitiative.org/.well-known/genid/bcff6acb169553f68e9b" xlink:title="&lt;TABLE&gt;">
<polygon fill="#eeeeee" stroke="none" points="2463,-100 2463,-115 2801,-115 2801,-100 2463,-100"/>
<text text-anchor="start" x="2465" y="-105" font-family="DejaVu Sans" font-size="10.00" fill="#6666ff">https://monarchinitiative.org/.well&#45;known/genid/bcff6acb169553f68e9b</text>
</a>
</g>
<polygon fill="none" stroke="#666666" points="2462,-99 2462,-135 2802,-135 2802,-99 2462,-99"/>
</g>
<!-- node12&#45;&gt;node17 -->
<g id="edge19" class="edge"><title>node12&#45;&gt;node17</title>
<path fill="none" stroke="BLACK" d="M2392.95,-246.985C2442.95,-220.003 2529.71,-173.191 2583.82,-143.997"/>
<polygon fill="BLACK" stroke="BLACK" points="2585.73,-146.943 2592.87,-139.114 2582.41,-140.783 2585.73,-146.943"/>
<text text-anchor="start" x="2558" y="-161.8" font-family="Times,serif" font-size="14.00"> </text>
<text text-anchor="start" x="2562" y="-161.8" font-family="Times,serif" font-size="10.00" fill="#336633">OBO:SEPIO_0000085</text>
<text text-anchor="start" x="2656" y="-161.8" font-family="Times,serif" font-size="14.00"> </text>
</g>
<!-- node24 -->
<g id="node25" class="node"><title>node24</title>
<polygon fill="grey" stroke="none" points="2217,-115 2217,-134 2427,-134 2427,-115 2217,-115"/>
<text text-anchor="start" x="2267.5" y="-121.8" font-family="DejaVu Sans" font-weight="bold" font-size="14.00">ECO_0000000</text>
<g id="a_node25_21"><a xlink:href="http://purl.obolibrary.org/obo/ECO_0000000" xlink:title="&lt;TABLE&gt;">
<polygon fill="#eeeeee" stroke="none" points="2217,-100 2217,-115 2427,-115 2427,-100 2217,-100"/>
<text text-anchor="start" x="2219" y="-105" font-family="DejaVu Sans" font-size="10.00" fill="#6666ff">http://purl.obolibrary.org/obo/ECO_0000000</text>
</a>
</g>
<polygon fill="none" stroke="#666666" points="2216,-99 2216,-135 2428,-135 2428,-99 2216,-99"/>
</g>
<!-- node12&#45;&gt;node24 -->
<g id="edge26" class="edge"><title>node12&#45;&gt;node24</title>
<path fill="none" stroke="BLACK" d="M2349.48,-246.827C2344.05,-221.366 2334.89,-178.412 2328.65,-149.163"/>
<polygon fill="BLACK" stroke="BLACK" points="2332,-148.115 2326.49,-139.065 2325.16,-149.576 2332,-148.115"/>
<text text-anchor="start" x="2334" y="-161.8" font-family="Times,serif" font-size="14.00"> </text>
<text text-anchor="start" x="2338" y="-161.8" font-family="Times,serif" font-size="10.00" fill="#336633">rdf:type</text>
<text text-anchor="start" x="2371" y="-161.8" font-family="Times,serif" font-size="14.00"> </text>
</g>
<!-- node5&#45;&gt;node1 -->
<g id="edge33" class="edge"><title>node5&#45;&gt;node1</title>
<path fill="none" stroke="BLACK" d="M1290,-189.925C1245.34,-172.746 1201.24,-155.784 1167.09,-142.649"/>
<polygon fill="BLACK" stroke="BLACK" points="1168.32,-139.373 1157.73,-139.049 1165.81,-145.906 1168.32,-139.373"/>
<text text-anchor="start" x="1241" y="-161.8" font-family="Times,serif" font-size="14.00"> </text>
<text text-anchor="start" x="1245" y="-161.8" font-family="Times,serif" font-size="10.00" fill="#336633">rdf:type</text>
<text text-anchor="start" x="1278" y="-161.8" font-family="Times,serif" font-size="14.00"> </text>
</g>
<!-- node5&#45;&gt;node10 -->
<g id="edge28" class="edge"><title>node5&#45;&gt;node10</title>
<path fill="none" stroke="BLACK" d="M1419.61,-189.925C1404.98,-174.362 1390.52,-158.975 1378.75,-146.453"/>
<polygon fill="BLACK" stroke="BLACK" points="1381.19,-143.939 1371.79,-139.049 1376.09,-148.733 1381.19,-143.939"/>
<text text-anchor="start" x="1402" y="-161.8" font-family="Times,serif" font-size="14.00"> </text>
<text text-anchor="start" x="1406" y="-161.8" font-family="Times,serif" font-size="10.00" fill="#336633">OBO:RO_0002162</text>
<text text-anchor="start" x="1488" y="-161.8" font-family="Times,serif" font-size="14.00"> </text>
</g>
<!-- node15 -->
<g id="node15" class="node"><title>node15</title>
<polygon fill="grey" stroke="none" points="1500,-115 1500,-134 2063,-134 2063,-115 1500,-115"/>
<text text-anchor="start" x="1502" y="-121.8" font-family="DejaVu Sans" font-weight="bold" font-size="14.00">http://www.ncbi.nlm.nih.gov/projects/SNP/snp_ref.cgi?rs=730882076</text>
<g id="a_node15_22"><a xlink:href="http://www.ncbi.nlm.nih.gov/projects/SNP/snp_ref.cgi?rs=730882076" xlink:title="&lt;TABLE&gt;">
<polygon fill="#eeeeee" stroke="none" points="1500,-100 1500,-115 2063,-115 2063,-100 1500,-100"/>
<text text-anchor="start" x="1619" y="-105" font-family="DejaVu Sans" font-size="10.00" fill="#6666ff">http://www.ncbi.nlm.nih.gov/projects/SNP/snp_ref.cgi?rs=730882076</text>
</a>
</g>
<polygon fill="none" stroke="#666666" points="1498.5,-99 1498.5,-135 2063.5,-135 2063.5,-99 1498.5,-99"/>
</g>
<!-- node5&#45;&gt;node15 -->
<g id="edge10" class="edge"><title>node5&#45;&gt;node15</title>
<path fill="none" stroke="BLACK" d="M1642.9,-189.925C1674.9,-173.26 1706.51,-156.799 1731.39,-143.838"/>
<polygon fill="BLACK" stroke="BLACK" points="1733.33,-146.773 1740.59,-139.049 1730.1,-140.565 1733.33,-146.773"/>
<text text-anchor="start" x="1704" y="-161.8" font-family="Times,serif" font-size="14.00"> </text>
<text text-anchor="start" x="1708" y="-161.8" font-family="Times,serif" font-size="10.00" fill="#336633">owl:sameAs</text>
<text text-anchor="start" x="1759" y="-161.8" font-family="Times,serif" font-size="14.00"> </text>
</g>
<!-- node5&#45;&gt;node16 -->
<g id="edge13" class="edge"><title>node5&#45;&gt;node16</title>
<path fill="none" stroke="BLACK" d="M1250.22,-192.658C1245.45,-191.717 1240.71,-190.829 1236,-190 1163.23,-177.178 973.988,-195.683 904,-172 892.79,-168.207 893.244,-160.692 882,-157 831.553,-140.437 471.312,-142.715 384.252,-138.903"/>
<polygon fill="BLACK" stroke="BLACK" points="384.408,-135.406 374.23,-138.35 384.022,-142.396 384.408,-135.406"/>
<text text-anchor="start" x="904" y="-161.8" font-family="Times,serif" font-size="14.00"> </text>
<text text-anchor="start" x="908" y="-161.8" font-family="Times,serif" font-size="10.00" fill="#336633">OBO:GENO_0000418</text>
<text text-anchor="start" x="1004" y="-161.8" font-family="Times,serif" font-size="14.00"> </text>
</g>
<!-- node13 -->
<g id="node17" class="node"><title>node13</title>
<polygon fill="grey" stroke="none" points="3856,-551.5 3856,-570.5 4122,-570.5 4122,-551.5 3856,-551.5"/>
<text text-anchor="start" x="3917" y="-558.3" font-family="DejaVu Sans" font-weight="bold" font-size="14.00">RCV000162061.nt</text>
<g id="a_node17_23"><a xlink:href="https://data.monarchinitiative.org/ttl/RCV000162061.nt" xlink:title="&lt;TABLE&gt;">
<polygon fill="#eeeeee" stroke="none" points="3856,-536.5 3856,-551.5 4122,-551.5 4122,-536.5 3856,-536.5"/>
<text text-anchor="start" x="3858" y="-541.5" font-family="DejaVu Sans" font-size="10.00" fill="#6666ff">https://data.monarchinitiative.org/ttl/RCV000162061.nt</text>
</a>
</g>
<text text-anchor="start" x="3858" y="-523.3" font-family="DejaVu Sans" font-size="14.00">owl:versionInfo</text>
<text text-anchor="start" x="3996" y="-523.3" font-family="DejaVu Sans" font-size="14.00">&quot;2019&#45;04&#45;03&quot;</text>
<polygon fill="none" stroke="#666666" points="3855,-517 3855,-572 4123,-572 4123,-517 3855,-517"/>
</g>
<!-- node18 -->
<g id="node18" class="node"><title>node18</title>
<polygon fill="grey" stroke="none" points="3890,-428.5 3890,-447.5 4088,-447.5 4088,-428.5 3890,-428.5"/>
<text text-anchor="start" x="3952" y="-435.3" font-family="DejaVu Sans" font-weight="bold" font-size="14.00">Ontology</text>
<g id="a_node18_24"><a xlink:href="http://www.w3.org/2002/07/owl#Ontology" xlink:title="&lt;TABLE&gt;">
<polygon fill="#eeeeee" stroke="none" points="3890,-413.5 3890,-428.5 4088,-428.5 4088,-413.5 3890,-413.5"/>
<text text-anchor="start" x="3892" y="-418.5" font-family="DejaVu Sans" font-size="10.00" fill="#6666ff">http://www.w3.org/2002/07/owl#Ontology</text>
</a>
</g>
<polygon fill="none" stroke="#666666" points="3889,-412.5 3889,-448.5 4089,-448.5 4089,-412.5 3889,-412.5"/>
</g>
<!-- node13&#45;&gt;node18 -->
<g id="edge15" class="edge"><title>node13&#45;&gt;node18</title>
<path fill="none" stroke="BLACK" d="M3989,-512.896C3989,-497.319 3989,-478.416 3989,-462.749"/>
<polygon fill="BLACK" stroke="BLACK" points="3992.5,-462.501 3989,-452.501 3985.5,-462.501 3992.5,-462.501"/>
<text text-anchor="start" x="3989" y="-484.8" font-family="Times,serif" font-size="14.00"> </text>
<text text-anchor="start" x="3993" y="-484.8" font-family="Times,serif" font-size="10.00" fill="#336633">rdf:type</text>
<text text-anchor="start" x="4026" y="-484.8" font-family="Times,serif" font-size="14.00"> </text>
</g>
<!-- node23 -->
<g id="node24" class="node"><title>node23</title>
<polygon fill="grey" stroke="none" points="2523,-20 2523,-39 2741,-39 2741,-20 2523,-20"/>
<text text-anchor="start" x="2570" y="-26.8" font-family="DejaVu Sans" font-weight="bold" font-size="14.00">SEPIO_0000066</text>
<g id="a_node24_25"><a xlink:href="http://purl.obolibrary.org/obo/SEPIO_0000066" xlink:title="&lt;TABLE&gt;">
<polygon fill="#eeeeee" stroke="none" points="2523,-5 2523,-20 2741,-20 2741,-5 2523,-5"/>
<text text-anchor="start" x="2525" y="-10" font-family="DejaVu Sans" font-size="10.00" fill="#6666ff">http://purl.obolibrary.org/obo/SEPIO_0000066</text>
</a>
</g>
<polygon fill="none" stroke="#666666" points="2522,-4 2522,-40 2742,-40 2742,-4 2522,-4"/>
</g>
<!-- node17&#45;&gt;node23 -->
<g id="edge24" class="edge"><title>node17&#45;&gt;node23</title>
<path fill="none" stroke="BLACK" d="M2632,-94.8969C2632,-82.8873 2632,-67.6175 2632,-54.242"/>
<polygon fill="BLACK" stroke="BLACK" points="2635.5,-54.0196 2632,-44.0196 2628.5,-54.0197 2635.5,-54.0196"/>
<text text-anchor="start" x="2632" y="-66.8" font-family="Times,serif" font-size="14.00"> </text>
<text text-anchor="start" x="2636" y="-66.8" font-family="Times,serif" font-size="10.00" fill="#336633">rdf:type</text>
<text text-anchor="start" x="2669" y="-66.8" font-family="Times,serif" font-size="14.00"> </text>
</g>
</g>
</svg>
