<?xml version="1.0" encoding="UTF-8" standalone="no"?>
<!DOCTYPE svg PUBLIC "-//W3C//DTD SVG 1.1//EN"
 "http://www.w3.org/Graphics/SVG/1.1/DTD/svg11.dtd">
<!-- Generated by graphviz version 2.38.0 (20140413.2041)
 -->
<!-- Title: %3 Pages: 1 -->
<svg width="3797pt" height="584pt"
 viewBox="0.00 0.00 3796.50 584.00" xmlns="http://www.w3.org/2000/svg" xmlns:xlink="http://www.w3.org/1999/xlink">
<g id="graph0" class="graph" transform="scale(1 1) rotate(0) translate(4 580)">
<title>%3</title>
<polygon fill="white" stroke="none" points="-4,4 -4,-580 3792.5,-580 3792.5,4 -4,4"/>
<!-- node0 -->
<g id="node1" class="node"><title>node0</title>
<polygon fill="grey" stroke="none" points="1981.5,-542.5 1981.5,-561.5 2297.5,-561.5 2297.5,-542.5 1981.5,-542.5"/>
<text text-anchor="start" x="1995.5" y="-549.3" font-family="DejaVu Sans" font-weight="bold" font-size="14.00">MONARCH_b25e1dcae8dd05dc4d16</text>
<g id="a_node1_0"><a xlink:href="https://monarchinitiative.org/MONARCH_b25e1dcae8dd05dc4d16" xlink:title="&lt;TABLE&gt;">
<polygon fill="#eeeeee" stroke="none" points="1981.5,-527.5 1981.5,-542.5 2297.5,-542.5 2297.5,-527.5 1981.5,-527.5"/>
<text text-anchor="start" x="1983.5" y="-532.5" font-family="DejaVu Sans" font-size="10.00" fill="#6666ff">https://monarchinitiative.org/MONARCH_b25e1dcae8dd05dc4d16</text>
</a>
</g>
<polygon fill="none" stroke="#666666" points="1980.5,-526.5 1980.5,-562.5 2298.5,-562.5 2298.5,-526.5 1980.5,-526.5"/>
</g>
<!-- node1 -->
<g id="node2" class="node"><title>node1</title>
<polygon fill="grey" stroke="none" points="858.5,-267 858.5,-286 1202.5,-286 1202.5,-267 858.5,-267"/>
<text text-anchor="start" x="884.5" y="-273.8" font-family="DejaVu Sans" font-weight="bold" font-size="14.00">&quot;b25e1dcae8dd05dc4d16_evidence&quot;</text>
<g id="a_node2_1"><a xlink:href="https://monarchinitiative.org/.well-known/genid/b8e43a4f4ce6a8409c4a" xlink:title="&lt;TABLE&gt;">
<polygon fill="#eeeeee" stroke="none" points="858.5,-252 858.5,-267 1202.5,-267 1202.5,-252 858.5,-252"/>
<text text-anchor="start" x="860.5" y="-257" font-family="DejaVu Sans" font-size="10.00" fill="#6666ff">https://monarchinitiative.org/.well&#45;known/genid/b8e43a4f4ce6a8409c4a</text>
</a>
</g>
<polygon fill="none" stroke="#666666" points="857.5,-251 857.5,-287 1203.5,-287 1203.5,-251 857.5,-251"/>
</g>
<!-- node0&#45;&gt;node1 -->
<g id="edge1" class="edge"><title>node0&#45;&gt;node1</title>
<path fill="none" stroke="BLACK" d="M1972.07,-538.844C1765.47,-532.218 1426.34,-518.225 1302.5,-495 1255.67,-486.217 1240.37,-488.092 1200.5,-462 1133.72,-418.298 1077.11,-341.664 1049.17,-299.641"/>
<polygon fill="BLACK" stroke="BLACK" points="1052.06,-297.666 1043.65,-291.223 1046.21,-301.505 1052.06,-297.666"/>
<text text-anchor="start" x="1200.5" y="-427.8" font-family="Times,serif" font-size="14.00"> </text>
<text text-anchor="start" x="1204.5" y="-427.8" font-family="Times,serif" font-size="10.00" fill="#336633">OBO:SEPIO_0000007</text>
<text text-anchor="start" x="1298.5" y="-427.8" font-family="Times,serif" font-size="14.00"> </text>
</g>
<!-- node5 -->
<g id="node5" class="node"><title>node5</title>
<polygon fill="grey" stroke="none" points="1015.5,-115 1015.5,-134 1409.5,-134 1409.5,-115 1015.5,-115"/>
<text text-anchor="start" x="1017.5" y="-121.8" font-family="DejaVu Sans" font-weight="bold" font-size="14.00">http://www.ncbi.nlm.nih.gov/pubmed/25786579</text>
<g id="a_node5_2"><a xlink:href="http://www.ncbi.nlm.nih.gov/pubmed/25786579" xlink:title="&lt;TABLE&gt;">
<polygon fill="#eeeeee" stroke="none" points="1015.5,-100 1015.5,-115 1409.5,-115 1409.5,-100 1015.5,-100"/>
<text text-anchor="start" x="1101" y="-105" font-family="DejaVu Sans" font-size="10.00" fill="#6666ff">http://www.ncbi.nlm.nih.gov/pubmed/25786579</text>
</a>
</g>
<polygon fill="none" stroke="#666666" points="1014.5,-99 1014.5,-135 1410.5,-135 1410.5,-99 1014.5,-99"/>
</g>
<!-- node0&#45;&gt;node5 -->
<g id="edge7" class="edge"><title>node0&#45;&gt;node5</title>
<path fill="none" stroke="BLACK" d="M1972.5,-538.847C1804.92,-526.141 1547.38,-483.803 1373.5,-348 1297.49,-288.635 1335.3,-228.436 1270.5,-157 1266.73,-152.843 1262.43,-148.915 1257.91,-145.27"/>
<polygon fill="BLACK" stroke="BLACK" points="1259.71,-142.242 1249.62,-139.023 1255.5,-147.834 1259.71,-142.242"/>
<text text-anchor="start" x="1420.5" y="-370.8" font-family="Times,serif" font-size="14.00"> </text>
<text text-anchor="start" x="1424.5" y="-370.8" font-family="Times,serif" font-size="10.00" fill="#336633">dc:source</text>
<text text-anchor="start" x="1464.5" y="-370.8" font-family="Times,serif" font-size="14.00"> </text>
</g>
<!-- node9 -->
<g id="node7" class="node"><title>node9</title>
<polygon fill="grey" stroke="none" points="1901.5,-428.5 1901.5,-447.5 2144.5,-447.5 2144.5,-428.5 1901.5,-428.5"/>
<text text-anchor="start" x="1962.5" y="-435.3" font-family="DejaVu Sans" font-weight="bold" font-size="14.00">RCV000162061</text>
<g id="a_node7_3"><a xlink:href="http://www.ncbi.nlm.nih.gov/clinvar/RCV000162061" xlink:title="&lt;TABLE&gt;">
<polygon fill="#eeeeee" stroke="none" points="1901.5,-413.5 1901.5,-428.5 2144.5,-428.5 2144.5,-413.5 1901.5,-413.5"/>
<text text-anchor="start" x="1903.5" y="-418.5" font-family="DejaVu Sans" font-size="10.00" fill="#6666ff">http://www.ncbi.nlm.nih.gov/clinvar/RCV000162061</text>
</a>
</g>
<polygon fill="none" stroke="#666666" points="1900,-412.5 1900,-448.5 2145,-448.5 2145,-412.5 1900,-412.5"/>
</g>
<!-- node0&#45;&gt;node9 -->
<g id="edge5" class="edge"><title>node0&#45;&gt;node9</title>
<path fill="none" stroke="BLACK" d="M2117.49,-522.434C2099.06,-504.791 2072.59,-479.445 2052.26,-459.991"/>
<polygon fill="BLACK" stroke="BLACK" points="2054.45,-457.239 2044.81,-452.853 2049.61,-462.296 2054.45,-457.239"/>
<text text-anchor="start" x="2088.5" y="-484.8" font-family="Times,serif" font-size="14.00"> </text>
<text text-anchor="start" x="2092.5" y="-484.8" font-family="Times,serif" font-size="10.00" fill="#336633">oboInOwl:hasdbxref</text>
<text text-anchor="start" x="2177.5" y="-484.8" font-family="Times,serif" font-size="14.00"> </text>
</g>
<!-- node6 -->
<g id="node10" class="node"><title>node6</title>
<polygon fill="grey" stroke="none" points="2180.5,-428.5 2180.5,-447.5 2572.5,-447.5 2572.5,-428.5 2180.5,-428.5"/>
<text text-anchor="start" x="2182.5" y="-435.3" font-family="DejaVu Sans" font-weight="bold" font-size="14.00">&quot;NM_018136.4(ASPM):c.[10168C&gt;T];[8098C&gt;T]&quot;</text>
<g id="a_node10_4"><a xlink:href="http://www.ncbi.nlm.nih.gov/clinvar/variation/424707" xlink:title="&lt;TABLE&gt;">
<polygon fill="#eeeeee" stroke="none" points="2180.5,-413.5 2180.5,-428.5 2572.5,-428.5 2572.5,-413.5 2180.5,-413.5"/>
<text text-anchor="start" x="2253" y="-418.5" font-family="DejaVu Sans" font-size="10.00" fill="#6666ff">http://www.ncbi.nlm.nih.gov/clinvar/variation/424707</text>
</a>
</g>
<polygon fill="none" stroke="#666666" points="2179.5,-412.5 2179.5,-448.5 2573.5,-448.5 2573.5,-412.5 2179.5,-412.5"/>
</g>
<!-- node0&#45;&gt;node6 -->
<g id="edge29" class="edge"><title>node0&#45;&gt;node6</title>
<path fill="none" stroke="BLACK" d="M2184.08,-522.434C2223.35,-503.877 2280.65,-476.798 2322.5,-457.018"/>
<polygon fill="BLACK" stroke="BLACK" points="2324.17,-460.099 2331.72,-452.662 2321.18,-453.77 2324.17,-460.099"/>
<text text-anchor="start" x="2272.5" y="-484.8" font-family="Times,serif" font-size="14.00"> </text>
<text text-anchor="start" x="2276.5" y="-484.8" font-family="Times,serif" font-size="10.00" fill="#336633">OBAN:association_has_subject</text>
<text text-anchor="start" x="2408.5" y="-484.8" font-family="Times,serif" font-size="14.00"> </text>
</g>
<!-- node11 -->
<g id="node11" class="node"><title>node11</title>
<polygon fill="grey" stroke="none" points="3103.5,-428.5 3103.5,-447.5 3321.5,-447.5 3321.5,-428.5 3103.5,-428.5"/>
<text text-anchor="start" x="3151.5" y="-435.3" font-family="DejaVu Sans" font-weight="bold" font-size="14.00">GENO_0000840</text>
<g id="a_node11_5"><a xlink:href="http://purl.obolibrary.org/obo/GENO_0000840" xlink:title="&lt;TABLE&gt;">
<polygon fill="#eeeeee" stroke="none" points="3103.5,-413.5 3103.5,-428.5 3321.5,-428.5 3321.5,-413.5 3103.5,-413.5"/>
<text text-anchor="start" x="3105.5" y="-418.5" font-family="DejaVu Sans" font-size="10.00" fill="#6666ff">http://purl.obolibrary.org/obo/GENO_0000840</text>
</a>
</g>
<polygon fill="none" stroke="#666666" points="3102.5,-412.5 3102.5,-448.5 3322.5,-448.5 3322.5,-412.5 3102.5,-412.5"/>
</g>
<!-- node0&#45;&gt;node11 -->
<g id="edge9" class="edge"><title>node0&#45;&gt;node11</title>
<path fill="none" stroke="BLACK" d="M2306.66,-542.415C2472.06,-539.263 2732.02,-528.711 2954.5,-495 3014.79,-485.865 3081.6,-469.233 3132.13,-455.282"/>
<polygon fill="BLACK" stroke="BLACK" points="3133.32,-458.585 3142.02,-452.531 3131.44,-451.841 3133.32,-458.585"/>
<text text-anchor="start" x="3033.5" y="-484.8" font-family="Times,serif" font-size="14.00"> </text>
<text text-anchor="start" x="3037.5" y="-484.8" font-family="Times,serif" font-size="10.00" fill="#336633">OBAN:association_has_predicate</text>
<text text-anchor="start" x="3177.5" y="-484.8" font-family="Times,serif" font-size="14.00"> </text>
</g>
<!-- node13 -->
<g id="node12" class="node"><title>node13</title>
<polygon fill="grey" stroke="none" points="2906.5,-267 2906.5,-286 3289.5,-286 3289.5,-267 2906.5,-267"/>
<text text-anchor="start" x="2908.5" y="-273.8" font-family="DejaVu Sans" font-weight="bold" font-size="14.00">&quot;Primary autosomal recessive microcephaly 5&quot;</text>
<g id="a_node12_6"><a xlink:href="http://omim.org/entry/608716" xlink:title="&lt;TABLE&gt;">
<polygon fill="#eeeeee" stroke="none" points="2906.5,-252 2906.5,-267 3289.5,-267 3289.5,-252 2906.5,-252"/>
<text text-anchor="start" x="3027" y="-257" font-family="DejaVu Sans" font-size="10.00" fill="#6666ff">http://omim.org/entry/608716</text>
</a>
</g>
<polygon fill="none" stroke="#666666" points="2905,-251 2905,-287 3290,-287 3290,-251 2905,-251"/>
</g>
<!-- node0&#45;&gt;node13 -->
<g id="edge12" class="edge"><title>node0&#45;&gt;node13</title>
<path fill="none" stroke="BLACK" d="M2306.62,-528.759C2470.08,-509.839 2723.36,-468.365 2926.5,-381 2977.46,-359.085 3030.11,-322.403 3063.28,-297.247"/>
<polygon fill="BLACK" stroke="BLACK" points="3065.48,-299.976 3071.29,-291.116 3061.22,-294.42 3065.48,-299.976"/>
<text text-anchor="start" x="2882.5" y="-427.8" font-family="Times,serif" font-size="14.00"> </text>
<text text-anchor="start" x="2886.5" y="-427.8" font-family="Times,serif" font-size="10.00" fill="#336633">OBAN:association_has_object</text>
<text text-anchor="start" x="3014.5" y="-427.8" font-family="Times,serif" font-size="14.00"> </text>
</g>
<!-- node14 -->
<g id="node19" class="node"><title>node14</title>
<polygon fill="grey" stroke="none" points="628.5,-437.5 628.5,-456.5 977.5,-456.5 977.5,-437.5 628.5,-437.5"/>
<text text-anchor="start" x="694.5" y="-444.3" font-family="DejaVu Sans" font-weight="bold" font-size="14.00">&quot;ClinVarAssertion_336174&quot;</text>
<g id="a_node19_7"><a xlink:href="https://monarchinitiative.org/.well-known/genid/bd539326250b4352d101" xlink:title="&lt;TABLE&gt;">
<polygon fill="#eeeeee" stroke="none" points="628.5,-422.5 628.5,-437.5 977.5,-437.5 977.5,-422.5 628.5,-422.5"/>
<text text-anchor="start" x="630.5" y="-427.5" font-family="DejaVu Sans" font-size="10.00" fill="#6666ff">https://monarchinitiative.org/.well&#45;known/genid/bd539326250b4352d101</text>
</a>
</g>
<text text-anchor="start" x="630.5" y="-409.3" font-family="DejaVu Sans" font-size="14.00">dc:identifier</text>
<text text-anchor="start" x="777.5" y="-409.3" font-family="DejaVu Sans" font-size="14.00">&quot;SCV000189126.2&quot;</text>
<polygon fill="none" stroke="#666666" points="627,-403 627,-458 978,-458 978,-403 627,-403"/>
</g>
<!-- node0&#45;&gt;node14 -->
<g id="edge25" class="edge"><title>node0&#45;&gt;node14</title>
<path fill="none" stroke="BLACK" d="M1972.49,-540.824C1708.72,-535.813 1207.59,-522.897 1031.5,-495 989.145,-488.29 943.433,-476.56 904.072,-464.994"/>
<polygon fill="BLACK" stroke="BLACK" points="904.79,-461.556 894.207,-462.06 902.795,-468.266 904.79,-461.556"/>
<text text-anchor="start" x="1031.5" y="-484.8" font-family="Times,serif" font-size="14.00"> </text>
<text text-anchor="start" x="1035.5" y="-484.8" font-family="Times,serif" font-size="10.00" fill="#336633">OBO:SEPIO_0000015</text>
<text text-anchor="start" x="1129.5" y="-484.8" font-family="Times,serif" font-size="14.00"> </text>
</g>
<!-- node22 -->
<g id="node23" class="node"><title>node22</title>
<polygon fill="grey" stroke="none" points="3357.5,-428.5 3357.5,-447.5 3511.5,-447.5 3511.5,-428.5 3357.5,-428.5"/>
<text text-anchor="start" x="3388.5" y="-435.3" font-family="DejaVu Sans" font-weight="bold" font-size="14.00">association</text>
<g id="a_node23_8"><a xlink:href="http://purl.org/oban/association" xlink:title="&lt;TABLE&gt;">
<polygon fill="#eeeeee" stroke="none" points="3357.5,-413.5 3357.5,-428.5 3511.5,-428.5 3511.5,-413.5 3357.5,-413.5"/>
<text text-anchor="start" x="3359.5" y="-418.5" font-family="DejaVu Sans" font-size="10.00" fill="#6666ff">http://purl.org/oban/association</text>
</a>
</g>
<polygon fill="none" stroke="#666666" points="3356.5,-412.5 3356.5,-448.5 3512.5,-448.5 3512.5,-412.5 3356.5,-412.5"/>
</g>
<!-- node0&#45;&gt;node22 -->
<g id="edge24" class="edge"><title>node0&#45;&gt;node22</title>
<path fill="none" stroke="BLACK" d="M2306.91,-544.207C2514.07,-543.137 2877.21,-534.902 3185.5,-495 3254.92,-486.015 3271.87,-480.054 3339.5,-462 3346.91,-460.021 3354.61,-457.813 3362.26,-455.516"/>
<polygon fill="BLACK" stroke="BLACK" points="3363.37,-458.837 3371.91,-452.568 3361.32,-452.143 3363.37,-458.837"/>
<text text-anchor="start" x="3271.5" y="-484.8" font-family="Times,serif" font-size="14.00"> </text>
<text text-anchor="start" x="3275.5" y="-484.8" font-family="Times,serif" font-size="10.00" fill="#336633">rdf:type</text>
<text text-anchor="start" x="3308.5" y="-484.8" font-family="Times,serif" font-size="14.00"> </text>
</g>
<!-- node1&#45;&gt;node5 -->
<g id="edge3" class="edge"><title>node1&#45;&gt;node5</title>
<path fill="none" stroke="BLACK" d="M1056.19,-246.827C1088.3,-220.361 1143.35,-174.993 1178.81,-145.766"/>
<polygon fill="BLACK" stroke="BLACK" points="1181.45,-148.126 1186.94,-139.065 1177,-142.725 1181.45,-148.126"/>
<text text-anchor="start" x="1164.5" y="-161.8" font-family="Times,serif" font-size="14.00"> </text>
<text text-anchor="start" x="1168.5" y="-161.8" font-family="Times,serif" font-size="10.00" fill="#336633">OBO:SEPIO_0000124</text>
<text text-anchor="start" x="1262.5" y="-161.8" font-family="Times,serif" font-size="14.00"> </text>
</g>
<!-- node12 -->
<g id="node13" class="node"><title>node12</title>
<polygon fill="grey" stroke="none" points="635.5,-115 635.5,-134 979.5,-134 979.5,-115 635.5,-115"/>
<text text-anchor="start" x="637.5" y="-121.8" font-family="DejaVu Sans" font-weight="bold" font-size="14.00">&quot;_:b8e43a4f4ce6a8409c4aSEPIO:0000066&quot;</text>
<g id="a_node13_9"><a xlink:href="https://monarchinitiative.org/.well-known/genid/bcff6acb169553f68e9b" xlink:title="&lt;TABLE&gt;">
<polygon fill="#eeeeee" stroke="none" points="635.5,-100 635.5,-115 979.5,-115 979.5,-100 635.5,-100"/>
<text text-anchor="start" x="640.5" y="-105" font-family="DejaVu Sans" font-size="10.00" fill="#6666ff">https://monarchinitiative.org/.well&#45;known/genid/bcff6acb169553f68e9b</text>
</a>
</g>
<polygon fill="none" stroke="#666666" points="634.5,-99 634.5,-135 980.5,-135 980.5,-99 634.5,-99"/>
</g>
<!-- node1&#45;&gt;node12 -->
<g id="edge17" class="edge"><title>node1&#45;&gt;node12</title>
<path fill="none" stroke="BLACK" d="M999.023,-246.827C959.178,-220.026 890.518,-173.842 847.14,-144.664"/>
<polygon fill="BLACK" stroke="BLACK" points="849.068,-141.743 838.817,-139.065 845.161,-147.551 849.068,-141.743"/>
<text text-anchor="start" x="886.5" y="-161.8" font-family="Times,serif" font-size="14.00"> </text>
<text text-anchor="start" x="890.5" y="-161.8" font-family="Times,serif" font-size="10.00" fill="#336633">OBO:SEPIO_0000085</text>
<text text-anchor="start" x="984.5" y="-161.8" font-family="Times,serif" font-size="14.00"> </text>
</g>
<!-- node25 -->
<g id="node26" class="node"><title>node25</title>
<polygon fill="grey" stroke="none" points="389.5,-115 389.5,-134 599.5,-134 599.5,-115 389.5,-115"/>
<text text-anchor="start" x="440" y="-121.8" font-family="DejaVu Sans" font-weight="bold" font-size="14.00">ECO_0000000</text>
<g id="a_node26_10"><a xlink:href="http://purl.obolibrary.org/obo/ECO_0000000" xlink:title="&lt;TABLE&gt;">
<polygon fill="#eeeeee" stroke="none" points="389.5,-100 389.5,-115 599.5,-115 599.5,-100 389.5,-100"/>
<text text-anchor="start" x="391.5" y="-105" font-family="DejaVu Sans" font-size="10.00" fill="#6666ff">http://purl.obolibrary.org/obo/ECO_0000000</text>
</a>
</g>
<polygon fill="none" stroke="#666666" points="388.5,-99 388.5,-135 600.5,-135 600.5,-99 388.5,-99"/>
</g>
<!-- node1&#45;&gt;node25 -->
<g id="edge31" class="edge"><title>node1&#45;&gt;node25</title>
<path fill="none" stroke="BLACK" d="M985.674,-246.843C947.705,-229.596 891.469,-205.619 840.5,-190 799.207,-177.346 698.698,-156.836 616.587,-140.937"/>
<polygon fill="BLACK" stroke="BLACK" points="617.152,-137.482 606.67,-139.022 615.825,-144.355 617.152,-137.482"/>
<text text-anchor="start" x="767.5" y="-161.8" font-family="Times,serif" font-size="14.00"> </text>
<text text-anchor="start" x="771.5" y="-161.8" font-family="Times,serif" font-size="10.00" fill="#336633">rdf:type</text>
<text text-anchor="start" x="804.5" y="-161.8" font-family="Times,serif" font-size="14.00"> </text>
</g>
<!-- node3 -->
<g id="node3" class="node"><title>node3</title>
<polygon fill="grey" stroke="none" points="1646.5,-324 1646.5,-343 2113.5,-343 2113.5,-324 1646.5,-324"/>
<text text-anchor="start" x="1680" y="-330.8" font-family="DejaVu Sans" font-weight="bold" font-size="14.00">&quot;NM_018136.4(ASPM):c.8098C&gt;T (p.Arg2700Ter)&quot;</text>
<g id="a_node3_11"><a xlink:href="http://www.ncbi.nlm.nih.gov/clinvar/variation/165917" xlink:title="&lt;TABLE&gt;">
<polygon fill="#eeeeee" stroke="none" points="1646.5,-309 1646.5,-324 2113.5,-324 2113.5,-309 1646.5,-309"/>
<text text-anchor="start" x="1756.5" y="-314" font-family="DejaVu Sans" font-size="10.00" fill="#6666ff">http://www.ncbi.nlm.nih.gov/clinvar/variation/165917</text>
</a>
</g>
<text text-anchor="start" x="1648.5" y="-295.8" font-family="DejaVu Sans" font-size="14.00">oboInOwl:hasExactSynonym</text>
<text text-anchor="start" x="1850.5" y="-295.8" font-family="DejaVu Sans" font-size="14.00">&quot;NC_000001.10:g.197070283G&gt;A&quot;</text>
<text text-anchor="start" x="1648.5" y="-276.8" font-family="DejaVu Sans" font-size="14.00">oboInOwl:hasExactSynonym</text>
<text text-anchor="start" x="1850.5" y="-276.8" font-family="DejaVu Sans" font-size="14.00">&quot;NC_000001.11:g.197101153G&gt;A&quot;</text>
<text text-anchor="start" x="1648.5" y="-257.8" font-family="DejaVu Sans" font-size="14.00">oboInOwl:hasExactSynonym</text>
<text text-anchor="start" x="1850.5" y="-257.8" font-family="DejaVu Sans" font-size="14.00">&quot;NG_015867.1:g.50542C&gt;T&quot;</text>
<text text-anchor="start" x="1648.5" y="-238.8" font-family="DejaVu Sans" font-size="14.00">oboInOwl:hasExactSynonym</text>
<text text-anchor="start" x="1850.5" y="-238.8" font-family="DejaVu Sans" font-size="14.00">&quot;NM_001206846.1:c.4066&#45;4989C&gt;T&quot;</text>
<text text-anchor="start" x="1648.5" y="-219.8" font-family="DejaVu Sans" font-size="14.00">oboInOwl:hasExactSynonym</text>
<text text-anchor="start" x="1850.5" y="-219.8" font-family="DejaVu Sans" font-size="14.00">&quot;NM_018136.4:c.8098C&gt;T&quot;</text>
<text text-anchor="start" x="1648.5" y="-200.8" font-family="DejaVu Sans" font-size="14.00">oboInOwl:hasExactSynonym</text>
<text text-anchor="start" x="1850.5" y="-200.8" font-family="DejaVu Sans" font-size="14.00">&quot;NP_060606.3:p.Arg2700Ter&quot;</text>
<polygon fill="none" stroke="#666666" points="1645,-194 1645,-344 2114,-344 2114,-194 1645,-194"/>
</g>
<!-- node4 -->
<g id="node4" class="node"><title>node4</title>
<polygon fill="grey" stroke="none" points="2285.5,-115 2285.5,-134 2641.5,-134 2641.5,-115 2285.5,-115"/>
<text text-anchor="start" x="2287.5" y="-121.8" font-family="DejaVu Sans" font-weight="bold" font-size="14.00">https://www.ncbi.nlm.nih.gov/gene/259266</text>
<g id="a_node4_12"><a xlink:href="https://www.ncbi.nlm.nih.gov/gene/259266" xlink:title="&lt;TABLE&gt;">
<polygon fill="#eeeeee" stroke="none" points="2285.5,-100 2285.5,-115 2641.5,-115 2641.5,-100 2285.5,-100"/>
<text text-anchor="start" x="2363" y="-105" font-family="DejaVu Sans" font-size="10.00" fill="#6666ff">https://www.ncbi.nlm.nih.gov/gene/259266</text>
</a>
</g>
<polygon fill="none" stroke="#666666" points="2284.5,-99 2284.5,-135 2642.5,-135 2642.5,-99 2284.5,-99"/>
</g>
<!-- node3&#45;&gt;node4 -->
<g id="edge2" class="edge"><title>node3&#45;&gt;node4</title>
<path fill="none" stroke="BLACK" d="M2016.74,-189.967C2044.12,-177.124 2073.18,-165.313 2101.5,-157 2102.07,-156.833 2181.8,-148.236 2266.29,-139.157"/>
<polygon fill="BLACK" stroke="BLACK" points="2266.77,-142.626 2276.34,-138.077 2266.02,-135.666 2266.77,-142.626"/>
<text text-anchor="start" x="2101.5" y="-161.8" font-family="Times,serif" font-size="14.00"> </text>
<text text-anchor="start" x="2105.5" y="-161.8" font-family="Times,serif" font-size="10.00" fill="#336633">OBO:GENO_0000418</text>
<text text-anchor="start" x="2201.5" y="-161.8" font-family="Times,serif" font-size="14.00"> </text>
</g>
<!-- node7 -->
<g id="node6" class="node"><title>node7</title>
<polygon fill="grey" stroke="none" points="2045.5,-115 2045.5,-134 2249.5,-134 2249.5,-115 2045.5,-115"/>
<text text-anchor="start" x="2098" y="-121.8" font-family="DejaVu Sans" font-weight="bold" font-size="14.00">SO_0001483</text>
<g id="a_node6_13"><a xlink:href="http://purl.obolibrary.org/obo/SO_0001483" xlink:title="&lt;TABLE&gt;">
<polygon fill="#eeeeee" stroke="none" points="2045.5,-100 2045.5,-115 2249.5,-115 2249.5,-100 2045.5,-100"/>
<text text-anchor="start" x="2047.5" y="-105" font-family="DejaVu Sans" font-size="10.00" fill="#6666ff">http://purl.obolibrary.org/obo/SO_0001483</text>
</a>
</g>
<polygon fill="none" stroke="#666666" points="2044.5,-99 2044.5,-135 2250.5,-135 2250.5,-99 2044.5,-99"/>
</g>
<!-- node3&#45;&gt;node7 -->
<g id="edge4" class="edge"><title>node3&#45;&gt;node7</title>
<path fill="none" stroke="BLACK" d="M1942.11,-189.806C1955.02,-177.381 1969.34,-165.76 1984.5,-157 1993.44,-151.831 2009.97,-146.53 2029.17,-141.566"/>
<polygon fill="BLACK" stroke="BLACK" points="2030.26,-144.902 2039.12,-139.082 2028.57,-138.111 2030.26,-144.902"/>
<text text-anchor="start" x="1984.5" y="-161.8" font-family="Times,serif" font-size="14.00"> </text>
<text text-anchor="start" x="1988.5" y="-161.8" font-family="Times,serif" font-size="10.00" fill="#336633">rdf:type</text>
<text text-anchor="start" x="2021.5" y="-161.8" font-family="Times,serif" font-size="14.00"> </text>
</g>
<!-- node10 -->
<g id="node9" class="node"><title>node10</title>
<polygon fill="grey" stroke="none" points="2677.5,-115 2677.5,-134 2899.5,-134 2899.5,-115 2677.5,-115"/>
<text text-anchor="start" x="2722" y="-121.8" font-family="DejaVu Sans" font-weight="bold" font-size="14.00">NCBITaxon_9606</text>
<g id="a_node9_14"><a xlink:href="http://purl.obolibrary.org/obo/NCBITaxon_9606" xlink:title="&lt;TABLE&gt;">
<polygon fill="#eeeeee" stroke="none" points="2677.5,-100 2677.5,-115 2899.5,-115 2899.5,-100 2677.5,-100"/>
<text text-anchor="start" x="2679.5" y="-105" font-family="DejaVu Sans" font-size="10.00" fill="#6666ff">http://purl.obolibrary.org/obo/NCBITaxon_9606</text>
</a>
</g>
<polygon fill="none" stroke="#666666" points="2676.5,-99 2676.5,-135 2900.5,-135 2900.5,-99 2676.5,-99"/>
</g>
<!-- node3&#45;&gt;node10 -->
<g id="edge21" class="edge"><title>node3&#45;&gt;node10</title>
<path fill="none" stroke="BLACK" d="M2122.34,-191.756C2125.41,-191.147 2128.46,-190.561 2131.5,-190 2252.82,-167.606 2285.72,-184.047 2408.5,-172 2517.31,-161.324 2546.55,-155.698 2658.36,-139.157"/>
<polygon fill="BLACK" stroke="BLACK" points="2658.97,-142.605 2668.35,-137.683 2657.95,-135.68 2658.97,-142.605"/>
<text text-anchor="start" x="2534.5" y="-161.8" font-family="Times,serif" font-size="14.00"> </text>
<text text-anchor="start" x="2538.5" y="-161.8" font-family="Times,serif" font-size="10.00" fill="#336633">OBO:RO_0002162</text>
<text text-anchor="start" x="2620.5" y="-161.8" font-family="Times,serif" font-size="14.00"> </text>
</g>
<!-- node21 -->
<g id="node22" class="node"><title>node21</title>
<polygon fill="grey" stroke="none" points="1446.5,-115 1446.5,-134 2009.5,-134 2009.5,-115 1446.5,-115"/>
<text text-anchor="start" x="1448.5" y="-121.8" font-family="DejaVu Sans" font-weight="bold" font-size="14.00">http://www.ncbi.nlm.nih.gov/projects/SNP/snp_ref.cgi?rs=730882076</text>
<g id="a_node22_15"><a xlink:href="http://www.ncbi.nlm.nih.gov/projects/SNP/snp_ref.cgi?rs=730882076" xlink:title="&lt;TABLE&gt;">
<polygon fill="#eeeeee" stroke="none" points="1446.5,-100 1446.5,-115 2009.5,-115 2009.5,-100 1446.5,-100"/>
<text text-anchor="start" x="1565.5" y="-105" font-family="DejaVu Sans" font-size="10.00" fill="#6666ff">http://www.ncbi.nlm.nih.gov/projects/SNP/snp_ref.cgi?rs=730882076</text>
</a>
</g>
<polygon fill="none" stroke="#666666" points="1445,-99 1445,-135 2010,-135 2010,-99 1445,-99"/>
</g>
<!-- node3&#45;&gt;node21 -->
<g id="edge22" class="edge"><title>node3&#45;&gt;node21</title>
<path fill="none" stroke="BLACK" d="M1800.38,-189.925C1784.46,-174.215 1768.73,-158.685 1755.97,-146.099"/>
<polygon fill="BLACK" stroke="BLACK" points="1758.41,-143.582 1748.83,-139.049 1753.49,-148.565 1758.41,-143.582"/>
<text text-anchor="start" x="1781.5" y="-161.8" font-family="Times,serif" font-size="14.00"> </text>
<text text-anchor="start" x="1785.5" y="-161.8" font-family="Times,serif" font-size="10.00" fill="#336633">owl:sameAs</text>
<text text-anchor="start" x="1836.5" y="-161.8" font-family="Times,serif" font-size="14.00"> </text>
</g>
<!-- node23 -->
<g id="node24" class="node"><title>node23</title>
<polygon fill="grey" stroke="none" points="1109.5,-20 1109.5,-39 1315.5,-39 1315.5,-20 1109.5,-20"/>
<text text-anchor="start" x="1160" y="-26.8" font-family="DejaVu Sans" font-weight="bold" font-size="14.00">IAO_0000013</text>
<g id="a_node24_16"><a xlink:href="http://purl.obolibrary.org/obo/IAO_0000013" xlink:title="&lt;TABLE&gt;">
<polygon fill="#eeeeee" stroke="none" points="1109.5,-5 1109.5,-20 1315.5,-20 1315.5,-5 1109.5,-5"/>
<text text-anchor="start" x="1111.5" y="-10" font-family="DejaVu Sans" font-size="10.00" fill="#6666ff">http://purl.obolibrary.org/obo/IAO_0000013</text>
</a>
</g>
<polygon fill="none" stroke="#666666" points="1108.5,-4 1108.5,-40 1316.5,-40 1316.5,-4 1108.5,-4"/>
</g>
<!-- node5&#45;&gt;node23 -->
<g id="edge26" class="edge"><title>node5&#45;&gt;node23</title>
<path fill="none" stroke="BLACK" d="M1212.5,-94.8969C1212.5,-82.8873 1212.5,-67.6175 1212.5,-54.242"/>
<polygon fill="BLACK" stroke="BLACK" points="1216,-54.0196 1212.5,-44.0196 1209,-54.0197 1216,-54.0196"/>
<text text-anchor="start" x="1212.5" y="-66.8" font-family="Times,serif" font-size="14.00"> </text>
<text text-anchor="start" x="1216.5" y="-66.8" font-family="Times,serif" font-size="10.00" fill="#336633">rdf:type</text>
<text text-anchor="start" x="1249.5" y="-66.8" font-family="Times,serif" font-size="14.00"> </text>
</g>
<!-- node2 -->
<g id="node8" class="node"><title>node2</title>
<polygon fill="grey" stroke="none" points="2149.5,-314 2149.5,-333 2603.5,-333 2603.5,-314 2149.5,-314"/>
<text text-anchor="start" x="2172" y="-320.8" font-family="DejaVu Sans" font-weight="bold" font-size="14.00">&quot;NM_018136.4(ASPM):c.10168C&gt;T (p.Arg3390Ter)&quot;</text>
<g id="a_node8_17"><a xlink:href="http://www.ncbi.nlm.nih.gov/clinvar/variation/165918" xlink:title="&lt;TABLE&gt;">
<polygon fill="#eeeeee" stroke="none" points="2149.5,-299 2149.5,-314 2603.5,-314 2603.5,-299 2149.5,-299"/>
<text text-anchor="start" x="2253" y="-304" font-family="DejaVu Sans" font-size="10.00" fill="#6666ff">http://www.ncbi.nlm.nih.gov/clinvar/variation/165918</text>
</a>
</g>
<text text-anchor="start" x="2151.5" y="-285.8" font-family="DejaVu Sans" font-size="14.00">oboInOwl:hasExactSynonym</text>
<text text-anchor="start" x="2353.5" y="-285.8" font-family="DejaVu Sans" font-size="14.00">&quot;NC_000001.10:g.197056096G&gt;A&quot;</text>
<text text-anchor="start" x="2151.5" y="-266.8" font-family="DejaVu Sans" font-size="14.00">oboInOwl:hasExactSynonym</text>
<text text-anchor="start" x="2353.5" y="-266.8" font-family="DejaVu Sans" font-size="14.00">&quot;NC_000001.11:g.197086966G&gt;A&quot;</text>
<text text-anchor="start" x="2151.5" y="-247.8" font-family="DejaVu Sans" font-size="14.00">oboInOwl:hasExactSynonym</text>
<text text-anchor="start" x="2353.5" y="-247.8" font-family="DejaVu Sans" font-size="14.00">&quot;NG_015867.1:g.64729C&gt;T&quot;</text>
<text text-anchor="start" x="2151.5" y="-228.8" font-family="DejaVu Sans" font-size="14.00">oboInOwl:hasExactSynonym</text>
<text text-anchor="start" x="2353.5" y="-228.8" font-family="DejaVu Sans" font-size="14.00">&quot;NM_018136.4:c.10168C&gt;T&quot;</text>
<text text-anchor="start" x="2151.5" y="-209.8" font-family="DejaVu Sans" font-size="14.00">oboInOwl:hasExactSynonym</text>
<text text-anchor="start" x="2353.5" y="-209.8" font-family="DejaVu Sans" font-size="14.00">&quot;NP_060606.3:p.Arg3390Ter&quot;</text>
<polygon fill="none" stroke="#666666" points="2148.5,-203.5 2148.5,-334.5 2604.5,-334.5 2604.5,-203.5 2148.5,-203.5"/>
</g>
<!-- node2&#45;&gt;node4 -->
<g id="edge13" class="edge"><title>node2&#45;&gt;node4</title>
<path fill="none" stroke="BLACK" d="M2303.01,-199.449C2295.58,-185.09 2294.08,-170.284 2304.5,-157 2308.82,-151.496 2317.35,-146.667 2328.32,-142.457"/>
<polygon fill="BLACK" stroke="BLACK" points="2329.78,-145.657 2338.07,-139.065 2327.48,-139.046 2329.78,-145.657"/>
<text text-anchor="start" x="2304.5" y="-161.8" font-family="Times,serif" font-size="14.00"> </text>
<text text-anchor="start" x="2308.5" y="-161.8" font-family="Times,serif" font-size="10.00" fill="#336633">OBO:GENO_0000418</text>
<text text-anchor="start" x="2404.5" y="-161.8" font-family="Times,serif" font-size="14.00"> </text>
</g>
<!-- node2&#45;&gt;node7 -->
<g id="edge33" class="edge"><title>node2&#45;&gt;node7</title>
<path fill="none" stroke="BLACK" d="M2271.72,-199.365C2242.06,-179.939 2211.53,-159.938 2188.15,-144.628"/>
<polygon fill="BLACK" stroke="BLACK" points="2189.84,-141.553 2179.56,-139.001 2186.01,-147.408 2189.84,-141.553"/>
<text text-anchor="start" x="2228.5" y="-161.8" font-family="Times,serif" font-size="14.00"> </text>
<text text-anchor="start" x="2232.5" y="-161.8" font-family="Times,serif" font-size="10.00" fill="#336633">rdf:type</text>
<text text-anchor="start" x="2265.5" y="-161.8" font-family="Times,serif" font-size="14.00"> </text>
</g>
<!-- node2&#45;&gt;node10 -->
<g id="edge6" class="edge"><title>node2&#45;&gt;node10</title>
<path fill="none" stroke="BLACK" d="M2564.72,-199.475C2620.71,-179.09 2678.46,-158.063 2721.27,-142.477"/>
<polygon fill="BLACK" stroke="BLACK" points="2722.52,-145.746 2730.72,-139.036 2720.13,-139.169 2722.52,-145.746"/>
<text text-anchor="start" x="2678.5" y="-161.8" font-family="Times,serif" font-size="14.00"> </text>
<text text-anchor="start" x="2682.5" y="-161.8" font-family="Times,serif" font-size="10.00" fill="#336633">OBO:RO_0002162</text>
<text text-anchor="start" x="2764.5" y="-161.8" font-family="Times,serif" font-size="14.00"> </text>
</g>
<!-- node18 -->
<g id="node18" class="node"><title>node18</title>
<polygon fill="grey" stroke="none" points="2936.5,-115 2936.5,-134 3499.5,-134 3499.5,-115 2936.5,-115"/>
<text text-anchor="start" x="2938.5" y="-121.8" font-family="DejaVu Sans" font-weight="bold" font-size="14.00">http://www.ncbi.nlm.nih.gov/projects/SNP/snp_ref.cgi?rs=587783211</text>
<g id="a_node18_18"><a xlink:href="http://www.ncbi.nlm.nih.gov/projects/SNP/snp_ref.cgi?rs=587783211" xlink:title="&lt;TABLE&gt;">
<polygon fill="#eeeeee" stroke="none" points="2936.5,-100 2936.5,-115 3499.5,-115 3499.5,-100 2936.5,-100"/>
<text text-anchor="start" x="3055.5" y="-105" font-family="DejaVu Sans" font-size="10.00" fill="#6666ff">http://www.ncbi.nlm.nih.gov/projects/SNP/snp_ref.cgi?rs=587783211</text>
</a>
</g>
<polygon fill="none" stroke="#666666" points="2935,-99 2935,-135 3500,-135 3500,-99 2935,-99"/>
</g>
<!-- node2&#45;&gt;node18 -->
<g id="edge18" class="edge"><title>node2&#45;&gt;node18</title>
<path fill="none" stroke="BLACK" d="M2586.51,-199.491C2599.98,-196.026 2613.39,-192.82 2626.5,-190 2629.04,-189.454 2861.43,-161.203 3034,-140.257"/>
<polygon fill="BLACK" stroke="BLACK" points="3034.48,-143.725 3043.98,-139.045 3033.63,-136.776 3034.48,-143.725"/>
<text text-anchor="start" x="2888.5" y="-161.8" font-family="Times,serif" font-size="14.00"> </text>
<text text-anchor="start" x="2892.5" y="-161.8" font-family="Times,serif" font-size="10.00" fill="#336633">owl:sameAs</text>
<text text-anchor="start" x="2943.5" y="-161.8" font-family="Times,serif" font-size="14.00"> </text>
</g>
<!-- node6&#45;&gt;node3 -->
<g id="edge10" class="edge"><title>node6&#45;&gt;node3</title>
<path fill="none" stroke="BLACK" d="M2311.01,-408.484C2264.35,-393.508 2198.36,-372.33 2131.99,-351.031"/>
<polygon fill="BLACK" stroke="BLACK" points="2132.79,-347.611 2122.2,-347.888 2130.65,-354.277 2132.79,-347.611"/>
<text text-anchor="start" x="2216.5" y="-370.8" font-family="Times,serif" font-size="14.00"> </text>
<text text-anchor="start" x="2220.5" y="-370.8" font-family="Times,serif" font-size="10.00" fill="#336633">OBO:GENO_0000382</text>
<text text-anchor="start" x="2316.5" y="-370.8" font-family="Times,serif" font-size="14.00"> </text>
</g>
<!-- node6&#45;&gt;node4 -->
<g id="edge32" class="edge"><title>node6&#45;&gt;node4</title>
<path fill="none" stroke="BLACK" d="M2529.3,-408.471C2564.64,-396.354 2598.57,-377.442 2621.5,-348 2647.64,-314.436 2661.03,-190.259 2634.5,-157 2630.05,-151.421 2621.5,-146.577 2610.49,-142.387"/>
<polygon fill="BLACK" stroke="BLACK" points="2611.3,-138.964 2600.71,-139.019 2609.02,-145.583 2611.3,-138.964"/>
<text text-anchor="start" x="2649.5" y="-266.3" font-family="Times,serif" font-size="14.00"> </text>
<text text-anchor="start" x="2653.5" y="-266.3" font-family="Times,serif" font-size="10.00" fill="#336633">OBO:GENO_0000418</text>
<text text-anchor="start" x="2749.5" y="-266.3" font-family="Times,serif" font-size="14.00"> </text>
</g>
<!-- node6&#45;&gt;node2 -->
<g id="edge28" class="edge"><title>node6&#45;&gt;node2</title>
<path fill="none" stroke="BLACK" d="M2376.5,-408.32C2376.5,-392.814 2376.5,-370.725 2376.5,-348.739"/>
<polygon fill="BLACK" stroke="BLACK" points="2380,-348.668 2376.5,-338.668 2373,-348.668 2380,-348.668"/>
<text text-anchor="start" x="2376.5" y="-370.8" font-family="Times,serif" font-size="14.00"> </text>
<text text-anchor="start" x="2380.5" y="-370.8" font-family="Times,serif" font-size="10.00" fill="#336633">OBO:GENO_0000382</text>
<text text-anchor="start" x="2476.5" y="-370.8" font-family="Times,serif" font-size="14.00"> </text>
</g>
<!-- node6&#45;&gt;node10 -->
<g id="edge8" class="edge"><title>node6&#45;&gt;node10</title>
<path fill="none" stroke="BLACK" d="M2573.04,-408.491C2652.35,-395.86 2731.33,-376.546 2757.5,-348 2783.53,-319.61 2787.97,-205.352 2788.55,-149.31"/>
<polygon fill="BLACK" stroke="BLACK" points="2792.05,-149.263 2788.62,-139.239 2785.05,-149.215 2792.05,-149.263"/>
<text text-anchor="start" x="2787.5" y="-266.3" font-family="Times,serif" font-size="14.00"> </text>
<text text-anchor="start" x="2791.5" y="-266.3" font-family="Times,serif" font-size="10.00" fill="#336633">OBO:RO_0002162</text>
<text text-anchor="start" x="2873.5" y="-266.3" font-family="Times,serif" font-size="14.00"> </text>
</g>
<!-- node6&#45;&gt;node13 -->
<g id="edge11" class="edge"><title>node6&#45;&gt;node13</title>
<path fill="none" stroke="BLACK" d="M2581.75,-414.87C2668.73,-406.838 2759.21,-395.525 2799.5,-381 2810.98,-376.861 2811.43,-371.139 2822.5,-366 2847.75,-354.276 2856.07,-356.751 2882.5,-348 2933.31,-331.175 2990.23,-310.441 3032.73,-294.581"/>
<polygon fill="BLACK" stroke="BLACK" points="3033.98,-297.851 3042.12,-291.069 3031.52,-291.295 3033.98,-297.851"/>
<text text-anchor="start" x="2822.5" y="-370.8" font-family="Times,serif" font-size="14.00"> </text>
<text text-anchor="start" x="2826.5" y="-370.8" font-family="Times,serif" font-size="10.00" fill="#336633">OBO:GENO_0000840</text>
<text text-anchor="start" x="2922.5" y="-370.8" font-family="Times,serif" font-size="14.00"> </text>
</g>
<!-- node16 -->
<g id="node15" class="node"><title>node16</title>
<polygon fill="grey" stroke="none" points="1391.5,-267 1391.5,-286 1609.5,-286 1609.5,-267 1391.5,-267"/>
<text text-anchor="start" x="1439.5" y="-273.8" font-family="DejaVu Sans" font-weight="bold" font-size="14.00">GENO_0000402</text>
<g id="a_node15_19"><a xlink:href="http://purl.obolibrary.org/obo/GENO_0000402" xlink:title="&lt;TABLE&gt;">
<polygon fill="#eeeeee" stroke="none" points="1391.5,-252 1391.5,-267 1609.5,-267 1609.5,-252 1391.5,-252"/>
<text text-anchor="start" x="1393.5" y="-257" font-family="DejaVu Sans" font-size="10.00" fill="#6666ff">http://purl.obolibrary.org/obo/GENO_0000402</text>
</a>
</g>
<polygon fill="none" stroke="#666666" points="1390.5,-251 1390.5,-287 1610.5,-287 1610.5,-251 1390.5,-251"/>
</g>
<!-- node6&#45;&gt;node16 -->
<g id="edge15" class="edge"><title>node6&#45;&gt;node16</title>
<path fill="none" stroke="BLACK" d="M2234.95,-408.482C2210.48,-405.118 2185.27,-401.82 2161.5,-399 1924.75,-370.916 1853.58,-423.675 1627.5,-348 1593.7,-336.686 1559.5,-314.962 1535.12,-297.308"/>
<polygon fill="BLACK" stroke="BLACK" points="1537.05,-294.38 1526.92,-291.257 1532.89,-300.012 1537.05,-294.38"/>
<text text-anchor="start" x="1747.5" y="-370.8" font-family="Times,serif" font-size="14.00"> </text>
<text text-anchor="start" x="1751.5" y="-370.8" font-family="Times,serif" font-size="10.00" fill="#336633">OBO:GENO_0000608</text>
<text text-anchor="start" x="1847.5" y="-370.8" font-family="Times,serif" font-size="14.00"> </text>
</g>
<!-- node6&#45;&gt;node16 -->
<g id="edge23" class="edge"><title>node6&#45;&gt;node16</title>
<path fill="none" stroke="BLACK" d="M2244.29,-408.497C2216.98,-404.791 2188.35,-401.367 2161.5,-399 2104.46,-393.972 1700.43,-400.229 1646.5,-381 1598.8,-363.993 1554.02,-325.274 1526.94,-298.385"/>
<polygon fill="BLACK" stroke="BLACK" points="1529.3,-295.796 1519.78,-291.143 1524.32,-300.716 1529.3,-295.796"/>
<text text-anchor="start" x="1646.5" y="-370.8" font-family="Times,serif" font-size="14.00"> </text>
<text text-anchor="start" x="1650.5" y="-370.8" font-family="Times,serif" font-size="10.00" fill="#336633">rdf:type</text>
<text text-anchor="start" x="1683.5" y="-370.8" font-family="Times,serif" font-size="14.00"> </text>
</g>
<!-- node15 -->
<g id="node14" class="node"><title>node15</title>
<polygon fill="grey" stroke="none" points="698.5,-20 698.5,-39 916.5,-39 916.5,-20 698.5,-20"/>
<text text-anchor="start" x="745.5" y="-26.8" font-family="DejaVu Sans" font-weight="bold" font-size="14.00">SEPIO_0000066</text>
<g id="a_node14_20"><a xlink:href="http://purl.obolibrary.org/obo/SEPIO_0000066" xlink:title="&lt;TABLE&gt;">
<polygon fill="#eeeeee" stroke="none" points="698.5,-5 698.5,-20 916.5,-20 916.5,-5 698.5,-5"/>
<text text-anchor="start" x="700.5" y="-10" font-family="DejaVu Sans" font-size="10.00" fill="#6666ff">http://purl.obolibrary.org/obo/SEPIO_0000066</text>
</a>
</g>
<polygon fill="none" stroke="#666666" points="697.5,-4 697.5,-40 917.5,-40 917.5,-4 697.5,-4"/>
</g>
<!-- node12&#45;&gt;node15 -->
<g id="edge14" class="edge"><title>node12&#45;&gt;node15</title>
<path fill="none" stroke="BLACK" d="M807.5,-94.8969C807.5,-82.8873 807.5,-67.6175 807.5,-54.242"/>
<polygon fill="BLACK" stroke="BLACK" points="811,-54.0196 807.5,-44.0196 804,-54.0197 811,-54.0196"/>
<text text-anchor="start" x="807.5" y="-66.8" font-family="Times,serif" font-size="14.00"> </text>
<text text-anchor="start" x="811.5" y="-66.8" font-family="Times,serif" font-size="10.00" fill="#336633">rdf:type</text>
<text text-anchor="start" x="844.5" y="-66.8" font-family="Times,serif" font-size="14.00"> </text>
</g>
<!-- node8 -->
<g id="node16" class="node"><title>node8</title>
<polygon fill="grey" stroke="none" points="9.5,-267 9.5,-286 548.5,-286 548.5,-267 9.5,-267"/>
<text text-anchor="start" x="11.5" y="-273.8" font-family="DejaVu Sans" font-weight="bold" font-size="14.00">&quot;Medical Research Institute,Tokyo Medical and Dental University&quot;</text>
<g id="a_node16_21"><a xlink:href="http://www.ncbi.nlm.nih.gov/clinvar/submitters/505721" xlink:title="&lt;TABLE&gt;">
<polygon fill="#eeeeee" stroke="none" points="9.5,-252 9.5,-267 548.5,-267 548.5,-252 9.5,-252"/>
<text text-anchor="start" x="150.5" y="-257" font-family="DejaVu Sans" font-size="10.00" fill="#6666ff">http://www.ncbi.nlm.nih.gov/clinvar/submitters/505721</text>
</a>
</g>
<polygon fill="none" stroke="#666666" points="8,-251 8,-287 549,-287 549,-251 8,-251"/>
</g>
<!-- node17 -->
<g id="node17" class="node"><title>node17</title>
<polygon fill="grey" stroke="none" points="166.5,-115 166.5,-134 353.5,-134 353.5,-115 166.5,-115"/>
<text text-anchor="start" x="208.5" y="-121.8" font-family="DejaVu Sans" font-weight="bold" font-size="14.00">organization</text>
<g id="a_node17_22"><a xlink:href="http://xmlns.com/foaf/0.1/organization" xlink:title="&lt;TABLE&gt;">
<polygon fill="#eeeeee" stroke="none" points="166.5,-100 166.5,-115 353.5,-115 353.5,-100 166.5,-100"/>
<text text-anchor="start" x="168.5" y="-105" font-family="DejaVu Sans" font-size="10.00" fill="#6666ff">http://xmlns.com/foaf/0.1/organization</text>
</a>
</g>
<polygon fill="none" stroke="#666666" points="165,-99 165,-135 354,-135 354,-99 165,-99"/>
</g>
<!-- node8&#45;&gt;node17 -->
<g id="edge16" class="edge"><title>node8&#45;&gt;node17</title>
<path fill="none" stroke="BLACK" d="M275.818,-246.827C272.593,-221.366 267.152,-178.412 263.447,-149.163"/>
<polygon fill="BLACK" stroke="BLACK" points="266.897,-148.546 262.168,-139.065 259.953,-149.426 266.897,-148.546"/>
<text text-anchor="start" x="266.5" y="-161.8" font-family="Times,serif" font-size="14.00"> </text>
<text text-anchor="start" x="270.5" y="-161.8" font-family="Times,serif" font-size="10.00" fill="#336633">rdf:type</text>
<text text-anchor="start" x="303.5" y="-161.8" font-family="Times,serif" font-size="14.00"> </text>
</g>
<!-- node14&#45;&gt;node1 -->
<g id="edge19" class="edge"><title>node14&#45;&gt;node1</title>
<path fill="none" stroke="BLACK" d="M846.191,-398.936C888.442,-369.378 951.833,-325.033 992.171,-296.813"/>
<polygon fill="BLACK" stroke="BLACK" points="994.226,-299.647 1000.41,-291.047 990.213,-293.912 994.226,-299.647"/>
<text text-anchor="start" x="889.5" y="-370.8" font-family="Times,serif" font-size="14.00"> </text>
<text text-anchor="start" x="893.5" y="-370.8" font-family="Times,serif" font-size="10.00" fill="#336633">OBO:SEPIO_0000111</text>
<text text-anchor="start" x="987.5" y="-370.8" font-family="Times,serif" font-size="14.00"> </text>
</g>
<!-- node14&#45;&gt;node8 -->
<g id="edge27" class="edge"><title>node14&#45;&gt;node8</title>
<path fill="none" stroke="BLACK" d="M702.088,-398.936C601.734,-368.389 449.49,-322.047 357.461,-294.035"/>
<polygon fill="BLACK" stroke="BLACK" points="358.232,-290.611 347.646,-291.047 356.193,-297.308 358.232,-290.611"/>
<text text-anchor="start" x="633.5" y="-370.8" font-family="Times,serif" font-size="14.00"> </text>
<text text-anchor="start" x="637.5" y="-370.8" font-family="Times,serif" font-size="10.00" fill="#336633">OBO:SEPIO_0000018</text>
<text text-anchor="start" x="731.5" y="-370.8" font-family="Times,serif" font-size="14.00"> </text>
</g>
<!-- node24 -->
<g id="node25" class="node"><title>node24</title>
<polygon fill="grey" stroke="none" points="604.5,-267 604.5,-286 822.5,-286 822.5,-267 604.5,-267"/>
<text text-anchor="start" x="651.5" y="-273.8" font-family="DejaVu Sans" font-weight="bold" font-size="14.00">SEPIO_0000001</text>
<g id="a_node25_23"><a xlink:href="http://purl.obolibrary.org/obo/SEPIO_0000001" xlink:title="&lt;TABLE&gt;">
<polygon fill="#eeeeee" stroke="none" points="604.5,-252 604.5,-267 822.5,-267 822.5,-252 604.5,-252"/>
<text text-anchor="start" x="606.5" y="-257" font-family="DejaVu Sans" font-size="10.00" fill="#6666ff">http://purl.obolibrary.org/obo/SEPIO_0000001</text>
</a>
</g>
<polygon fill="none" stroke="#666666" points="603.5,-251 603.5,-287 823.5,-287 823.5,-251 603.5,-251"/>
</g>
<!-- node14&#45;&gt;node24 -->
<g id="edge30" class="edge"><title>node14&#45;&gt;node24</title>
<path fill="none" stroke="BLACK" d="M785.34,-398.747C769.547,-370.444 746.253,-328.698 730.508,-300.481"/>
<polygon fill="BLACK" stroke="BLACK" points="733.409,-298.497 725.48,-291.469 727.296,-301.907 733.409,-298.497"/>
<text text-anchor="start" x="774.5" y="-370.8" font-family="Times,serif" font-size="14.00"> </text>
<text text-anchor="start" x="778.5" y="-370.8" font-family="Times,serif" font-size="10.00" fill="#336633">rdf:type</text>
<text text-anchor="start" x="811.5" y="-370.8" font-family="Times,serif" font-size="14.00"> </text>
</g>
<!-- node19 -->
<g id="node20" class="node"><title>node19</title>
<polygon fill="grey" stroke="none" points="3513.5,-551.5 3513.5,-570.5 3779.5,-570.5 3779.5,-551.5 3513.5,-551.5"/>
<text text-anchor="start" x="3574.5" y="-558.3" font-family="DejaVu Sans" font-weight="bold" font-size="14.00">RCV000162061.nt</text>
<g id="a_node20_24"><a xlink:href="https://data.monarchinitiative.org/ttl/RCV000162061.nt" xlink:title="&lt;TABLE&gt;">
<polygon fill="#eeeeee" stroke="none" points="3513.5,-536.5 3513.5,-551.5 3779.5,-551.5 3779.5,-536.5 3513.5,-536.5"/>
<text text-anchor="start" x="3515.5" y="-541.5" font-family="DejaVu Sans" font-size="10.00" fill="#6666ff">https://data.monarchinitiative.org/ttl/RCV000162061.nt</text>
</a>
</g>
<text text-anchor="start" x="3515.5" y="-523.3" font-family="DejaVu Sans" font-size="14.00">owl:versionInfo</text>
<text text-anchor="start" x="3653.5" y="-523.3" font-family="DejaVu Sans" font-size="14.00">&quot;2019&#45;06&#45;03&quot;</text>
<polygon fill="none" stroke="#666666" points="3512.5,-517 3512.5,-572 3780.5,-572 3780.5,-517 3512.5,-517"/>
</g>
<!-- node20 -->
<g id="node21" class="node"><title>node20</title>
<polygon fill="grey" stroke="none" points="3547.5,-428.5 3547.5,-447.5 3745.5,-447.5 3745.5,-428.5 3547.5,-428.5"/>
<text text-anchor="start" x="3609.5" y="-435.3" font-family="DejaVu Sans" font-weight="bold" font-size="14.00">Ontology</text>
<g id="a_node21_25"><a xlink:href="http://www.w3.org/2002/07/owl#Ontology" xlink:title="&lt;TABLE&gt;">
<polygon fill="#eeeeee" stroke="none" points="3547.5,-413.5 3547.5,-428.5 3745.5,-428.5 3745.5,-413.5 3547.5,-413.5"/>
<text text-anchor="start" x="3549.5" y="-418.5" font-family="DejaVu Sans" font-size="10.00" fill="#6666ff">http://www.w3.org/2002/07/owl#Ontology</text>
</a>
</g>
<polygon fill="none" stroke="#666666" points="3546.5,-412.5 3546.5,-448.5 3746.5,-448.5 3746.5,-412.5 3546.5,-412.5"/>
</g>
<!-- node19&#45;&gt;node20 -->
<g id="edge20" class="edge"><title>node19&#45;&gt;node20</title>
<path fill="none" stroke="BLACK" d="M3646.5,-512.896C3646.5,-497.319 3646.5,-478.416 3646.5,-462.749"/>
<polygon fill="BLACK" stroke="BLACK" points="3650,-462.501 3646.5,-452.501 3643,-462.501 3650,-462.501"/>
<text text-anchor="start" x="3646.5" y="-484.8" font-family="Times,serif" font-size="14.00"> </text>
<text text-anchor="start" x="3650.5" y="-484.8" font-family="Times,serif" font-size="10.00" fill="#336633">rdf:type</text>
<text text-anchor="start" x="3683.5" y="-484.8" font-family="Times,serif" font-size="14.00"> </text>
</g>
</g>
</svg>
