<?xml version="1.0" encoding="UTF-8" standalone="no"?>
<!DOCTYPE svg PUBLIC "-//W3C//DTD SVG 1.1//EN"
 "http://www.w3.org/Graphics/SVG/1.1/DTD/svg11.dtd">
<!-- Generated by graphviz version 2.38.0 (20140413.2041)
 -->
<!-- Title: %3 Pages: 1 -->
<svg width="3392pt" height="489pt"
 viewBox="0.00 0.00 3392.00 489.00" xmlns="http://www.w3.org/2000/svg" xmlns:xlink="http://www.w3.org/1999/xlink">
<g id="graph0" class="graph" transform="scale(1 1) rotate(0) translate(4 485)">
<title>%3</title>
<polygon fill="white" stroke="none" points="-4,4 -4,-485 3388,-485 3388,4 -4,4"/>
<!-- node1 -->
<g id="node1" class="node"><title>node1</title>
<polygon fill="grey" stroke="none" points="1717,-333.5 1717,-352.5 2157,-352.5 2157,-333.5 1717,-333.5"/>
<text text-anchor="start" x="1719" y="-340.3" font-family="DejaVu Sans" font-weight="bold" font-size="14.00">http://www.ncbi.nlm.nih.gov/clinvar/variation/431733</text>
<g id="a_node1_0"><a xlink:href="http://www.ncbi.nlm.nih.gov/clinvar/variation/431733" xlink:title="&lt;TABLE&gt;">
<polygon fill="#eeeeee" stroke="none" points="1717,-318.5 1717,-333.5 2157,-333.5 2157,-318.5 1717,-318.5"/>
<text text-anchor="start" x="1813.5" y="-323.5" font-family="DejaVu Sans" font-size="10.00" fill="#6666ff">http://www.ncbi.nlm.nih.gov/clinvar/variation/431733</text>
</a>
</g>
<polygon fill="none" stroke="#666666" points="1716,-317.5 1716,-353.5 2158,-353.5 2158,-317.5 1716,-317.5"/>
</g>
<!-- node2 -->
<g id="node2" class="node"><title>node2</title>
<polygon fill="grey" stroke="none" points="3055,-219.5 3055,-238.5 3261,-238.5 3261,-219.5 3055,-219.5"/>
<text text-anchor="start" x="3057" y="-226.3" font-family="DejaVu Sans" font-weight="bold" font-size="14.00">&quot;Bardet&#45;Biedl syndrome&quot;</text>
<g id="a_node2_1"><a xlink:href="http://omim.org/entry/PS209900" xlink:title="&lt;TABLE&gt;">
<polygon fill="#eeeeee" stroke="none" points="3055,-204.5 3055,-219.5 3261,-219.5 3261,-204.5 3055,-204.5"/>
<text text-anchor="start" x="3080.5" y="-209.5" font-family="DejaVu Sans" font-size="10.00" fill="#6666ff">http://omim.org/entry/PS209900</text>
</a>
</g>
<polygon fill="none" stroke="#666666" points="3054,-203.5 3054,-239.5 3262,-239.5 3262,-203.5 3054,-203.5"/>
</g>
<!-- node1&#45;&gt;node2 -->
<g id="edge1" class="edge"><title>node1&#45;&gt;node2</title>
<path fill="none" stroke="BLACK" d="M2056.86,-313.468C2085.38,-306.478 2115.28,-297.459 2142,-286 2153.22,-281.19 2153.34,-274.598 2165,-271 2257.5,-242.46 2940.05,-265.819 3036,-253 3048.85,-251.284 3062.3,-248.723 3075.38,-245.802"/>
<polygon fill="BLACK" stroke="BLACK" points="3076.34,-249.172 3085.29,-243.506 3074.76,-242.352 3076.34,-249.172"/>
<text text-anchor="start" x="2165" y="-275.8" font-family="Times,serif" font-size="14.00"> </text>
<text text-anchor="start" x="2169" y="-275.8" font-family="Times,serif" font-size="10.00" fill="#336633">OBO:GENO_0000841</text>
<text text-anchor="start" x="2265" y="-275.8" font-family="Times,serif" font-size="14.00"> </text>
</g>
<!-- node5 -->
<g id="node5" class="node"><title>node5</title>
<polygon fill="grey" stroke="none" points="1985,-228.5 1985,-247.5 2484,-247.5 2484,-228.5 1985,-228.5"/>
<text text-anchor="start" x="2038.5" y="-235.3" font-family="DejaVu Sans" font-weight="bold" font-size="14.00">&quot;GRCh37/hg19 1p36.31(chr1:5910699&#45;6038368)&quot;</text>
<g id="a_node5_2"><a xlink:href="http://www.ncbi.nlm.nih.gov/clinvar/variation/425238" xlink:title="&lt;TABLE&gt;">
<polygon fill="#eeeeee" stroke="none" points="1985,-213.5 1985,-228.5 2484,-228.5 2484,-213.5 1985,-213.5"/>
<text text-anchor="start" x="2111" y="-218.5" font-family="DejaVu Sans" font-size="10.00" fill="#6666ff">http://www.ncbi.nlm.nih.gov/clinvar/variation/425238</text>
</a>
</g>
<text text-anchor="start" x="1987" y="-200.3" font-family="DejaVu Sans" font-size="14.00">oboInOwl:hasExactSynonym</text>
<text text-anchor="start" x="2189" y="-200.3" font-family="DejaVu Sans" font-size="14.00">&quot;NC_000001.10:g.5910699_6038368dup&quot;</text>
<polygon fill="none" stroke="#666666" points="1983.5,-194 1983.5,-249 2484.5,-249 2484.5,-194 1983.5,-194"/>
</g>
<!-- node1&#45;&gt;node5 -->
<g id="edge15" class="edge"><title>node1&#45;&gt;node5</title>
<path fill="none" stroke="BLACK" d="M1917.82,-313.223C1908.2,-299.928 1900.58,-283.097 1911,-271 1914.53,-266.898 1944.71,-260.926 1985.31,-254.566"/>
<polygon fill="BLACK" stroke="BLACK" points="1985.92,-258.013 1995.27,-253.029 1984.86,-251.095 1985.92,-258.013"/>
<text text-anchor="start" x="1911" y="-275.8" font-family="Times,serif" font-size="14.00"> </text>
<text text-anchor="start" x="1915" y="-275.8" font-family="Times,serif" font-size="10.00" fill="#336633">OBO:GENO_0000382</text>
<text text-anchor="start" x="2011" y="-275.8" font-family="Times,serif" font-size="14.00"> </text>
</g>
<!-- node7 -->
<g id="node7" class="node"><title>node7</title>
<polygon fill="grey" stroke="none" points="2520,-228.5 2520,-247.5 3019,-247.5 3019,-228.5 2520,-228.5"/>
<text text-anchor="start" x="2573.5" y="-235.3" font-family="DejaVu Sans" font-weight="bold" font-size="14.00">&quot;GRCh37/hg19 1p36.31(chr1:6051187&#45;6158763)&quot;</text>
<g id="a_node7_3"><a xlink:href="http://www.ncbi.nlm.nih.gov/clinvar/variation/425239" xlink:title="&lt;TABLE&gt;">
<polygon fill="#eeeeee" stroke="none" points="2520,-213.5 2520,-228.5 3019,-228.5 3019,-213.5 2520,-213.5"/>
<text text-anchor="start" x="2646" y="-218.5" font-family="DejaVu Sans" font-size="10.00" fill="#6666ff">http://www.ncbi.nlm.nih.gov/clinvar/variation/425239</text>
</a>
</g>
<text text-anchor="start" x="2522" y="-200.3" font-family="DejaVu Sans" font-size="14.00">oboInOwl:hasExactSynonym</text>
<text text-anchor="start" x="2724" y="-200.3" font-family="DejaVu Sans" font-size="14.00">&quot;NC_000001.10:g.6051187_6158763dup&quot;</text>
<polygon fill="none" stroke="#666666" points="2518.5,-194 2518.5,-249 3019.5,-249 3019.5,-194 2518.5,-194"/>
</g>
<!-- node1&#45;&gt;node7 -->
<g id="edge11" class="edge"><title>node1&#45;&gt;node7</title>
<path fill="none" stroke="BLACK" d="M1971.27,-313.412C1984.92,-304.956 2000.74,-295.08 2015,-286 2025.29,-279.444 2026.37,-274.704 2038,-271 2133.24,-240.664 2383.11,-259.637 2499.95,-252.959"/>
<polygon fill="BLACK" stroke="BLACK" points="2500.41,-256.437 2510.16,-252.283 2499.95,-249.452 2500.41,-256.437"/>
<text text-anchor="start" x="2038" y="-275.8" font-family="Times,serif" font-size="14.00"> </text>
<text text-anchor="start" x="2042" y="-275.8" font-family="Times,serif" font-size="10.00" fill="#336633">OBO:GENO_0000382</text>
<text text-anchor="start" x="2138" y="-275.8" font-family="Times,serif" font-size="14.00"> </text>
</g>
<!-- node17 -->
<g id="node18" class="node"><title>node17</title>
<polygon fill="grey" stroke="none" points="1821,-115 1821,-134 2043,-134 2043,-115 1821,-115"/>
<text text-anchor="start" x="1865.5" y="-121.8" font-family="DejaVu Sans" font-weight="bold" font-size="14.00">NCBITaxon_9606</text>
<g id="a_node18_4"><a xlink:href="http://purl.obolibrary.org/obo/NCBITaxon_9606" xlink:title="&lt;TABLE&gt;">
<polygon fill="#eeeeee" stroke="none" points="1821,-100 1821,-115 2043,-115 2043,-100 1821,-100"/>
<text text-anchor="start" x="1823" y="-105" font-family="DejaVu Sans" font-size="10.00" fill="#6666ff">http://purl.obolibrary.org/obo/NCBITaxon_9606</text>
</a>
</g>
<polygon fill="none" stroke="#666666" points="1820,-99 1820,-135 2044,-135 2044,-99 1820,-99"/>
</g>
<!-- node1&#45;&gt;node17 -->
<g id="edge13" class="edge"><title>node1&#45;&gt;node17</title>
<path fill="none" stroke="BLACK" d="M1797.36,-313.427C1728.81,-299.932 1656.56,-279.871 1636,-253 1618.98,-230.764 1618.7,-212.015 1636,-190 1657.1,-163.149 1732.25,-145.065 1801.54,-133.737"/>
<polygon fill="BLACK" stroke="BLACK" points="1802.39,-137.146 1811.71,-132.114 1801.28,-130.233 1802.39,-137.146"/>
<text text-anchor="start" x="1636" y="-218.8" font-family="Times,serif" font-size="14.00"> </text>
<text text-anchor="start" x="1640" y="-218.8" font-family="Times,serif" font-size="10.00" fill="#336633">OBO:RO_0002162</text>
<text text-anchor="start" x="1722" y="-218.8" font-family="Times,serif" font-size="14.00"> </text>
</g>
<!-- node22 -->
<g id="node23" class="node"><title>node22</title>
<polygon fill="grey" stroke="none" points="1744,-219.5 1744,-238.5 1948,-238.5 1948,-219.5 1744,-219.5"/>
<text text-anchor="start" x="1796.5" y="-226.3" font-family="DejaVu Sans" font-weight="bold" font-size="14.00">SO_0001024</text>
<g id="a_node23_5"><a xlink:href="http://purl.obolibrary.org/obo/SO_0001024" xlink:title="&lt;TABLE&gt;">
<polygon fill="#eeeeee" stroke="none" points="1744,-204.5 1744,-219.5 1948,-219.5 1948,-204.5 1744,-204.5"/>
<text text-anchor="start" x="1746" y="-209.5" font-family="DejaVu Sans" font-size="10.00" fill="#6666ff">http://purl.obolibrary.org/obo/SO_0001024</text>
</a>
</g>
<polygon fill="none" stroke="#666666" points="1743,-203.5 1743,-239.5 1949,-239.5 1949,-203.5 1743,-203.5"/>
</g>
<!-- node1&#45;&gt;node22 -->
<g id="edge26" class="edge"><title>node1&#45;&gt;node22</title>
<path fill="none" stroke="BLACK" d="M1876.48,-313.382C1864.78,-306.485 1854.01,-297.527 1847,-286 1841.23,-276.504 1839.85,-264.642 1840.29,-253.75"/>
<polygon fill="BLACK" stroke="BLACK" points="1843.78,-253.986 1841.2,-243.712 1836.81,-253.358 1843.78,-253.986"/>
<text text-anchor="start" x="1847" y="-275.8" font-family="Times,serif" font-size="14.00"> </text>
<text text-anchor="start" x="1851" y="-275.8" font-family="Times,serif" font-size="10.00" fill="#336633">rdf:type</text>
<text text-anchor="start" x="1884" y="-275.8" font-family="Times,serif" font-size="14.00"> </text>
</g>
<!-- node3 -->
<g id="node3" class="node"><title>node3</title>
<polygon fill="grey" stroke="none" points="1940,-447.5 1940,-466.5 2253,-466.5 2253,-447.5 1940,-447.5"/>
<text text-anchor="start" x="1955.5" y="-454.3" font-family="DejaVu Sans" font-weight="bold" font-size="14.00">MONARCH_bcd52bafc1e2e04193a9</text>
<g id="a_node3_6"><a xlink:href="https://monarchinitiative.org/MONARCH_bcd52bafc1e2e04193a9" xlink:title="&lt;TABLE&gt;">
<polygon fill="#eeeeee" stroke="none" points="1940,-432.5 1940,-447.5 2253,-447.5 2253,-432.5 1940,-432.5"/>
<text text-anchor="start" x="1942" y="-437.5" font-family="DejaVu Sans" font-size="10.00" fill="#6666ff">https://monarchinitiative.org/MONARCH_bcd52bafc1e2e04193a9</text>
</a>
</g>
<polygon fill="none" stroke="#666666" points="1938.5,-431.5 1938.5,-467.5 2253.5,-467.5 2253.5,-431.5 1938.5,-431.5"/>
</g>
<!-- node3&#45;&gt;node1 -->
<g id="edge20" class="edge"><title>node3&#45;&gt;node1</title>
<path fill="none" stroke="BLACK" d="M2066.09,-427.434C2040.41,-409.344 2003.24,-383.158 1975.37,-363.528"/>
<polygon fill="BLACK" stroke="BLACK" points="1977.23,-360.559 1967.04,-357.662 1973.2,-366.282 1977.23,-360.559"/>
<text text-anchor="start" x="2027" y="-389.8" font-family="Times,serif" font-size="14.00"> </text>
<text text-anchor="start" x="2031" y="-389.8" font-family="Times,serif" font-size="10.00" fill="#336633">OBAN:association_has_subject</text>
<text text-anchor="start" x="2163" y="-389.8" font-family="Times,serif" font-size="14.00"> </text>
</g>
<!-- node3&#45;&gt;node2 -->
<g id="edge23" class="edge"><title>node3&#45;&gt;node2</title>
<path fill="none" stroke="BLACK" d="M2132.23,-427.348C2144.92,-419.356 2158.99,-409.81 2171,-400 2217.24,-362.221 2210.75,-328.947 2265,-304 2421.01,-232.266 2866.36,-279.596 3036,-253 3048.08,-251.106 3060.72,-248.58 3073.09,-245.789"/>
<polygon fill="BLACK" stroke="BLACK" points="3073.99,-249.174 3082.94,-243.502 3072.41,-242.355 3073.99,-249.174"/>
<text text-anchor="start" x="2265" y="-332.8" font-family="Times,serif" font-size="14.00"> </text>
<text text-anchor="start" x="2269" y="-332.8" font-family="Times,serif" font-size="10.00" fill="#336633">OBAN:association_has_object</text>
<text text-anchor="start" x="2397" y="-332.8" font-family="Times,serif" font-size="14.00"> </text>
</g>
<!-- node4 -->
<g id="node4" class="node"><title>node4</title>
<polygon fill="grey" stroke="none" points="372,-219.5 372,-238.5 717,-238.5 717,-219.5 372,-219.5"/>
<text text-anchor="start" x="401.5" y="-226.3" font-family="DejaVu Sans" font-weight="bold" font-size="14.00">&quot;bcd52bafc1e2e04193a9_evidence&quot;</text>
<g id="a_node4_7"><a xlink:href="https://monarchinitiative.org/.well-known/genid/be870b3d47783bbdcf05" xlink:title="&lt;TABLE&gt;">
<polygon fill="#eeeeee" stroke="none" points="372,-204.5 372,-219.5 717,-219.5 717,-204.5 372,-204.5"/>
<text text-anchor="start" x="374" y="-209.5" font-family="DejaVu Sans" font-size="10.00" fill="#6666ff">https://monarchinitiative.org/.well&#45;known/genid/be870b3d47783bbdcf05</text>
</a>
</g>
<polygon fill="none" stroke="#666666" points="370.5,-203.5 370.5,-239.5 717.5,-239.5 717.5,-203.5 370.5,-203.5"/>
</g>
<!-- node3&#45;&gt;node4 -->
<g id="edge2" class="edge"><title>node3&#45;&gt;node4</title>
<path fill="none" stroke="BLACK" d="M1930.07,-442.856C1735.05,-434.331 1402.22,-413.864 1120,-367 939.331,-336.999 732.051,-279.057 622.084,-246.396"/>
<polygon fill="BLACK" stroke="BLACK" points="622.979,-243.011 612.396,-243.509 620.98,-249.719 622.979,-243.011"/>
<text text-anchor="start" x="1120" y="-332.8" font-family="Times,serif" font-size="14.00"> </text>
<text text-anchor="start" x="1124" y="-332.8" font-family="Times,serif" font-size="10.00" fill="#336633">OBO:SEPIO_0000007</text>
<text text-anchor="start" x="1218" y="-332.8" font-family="Times,serif" font-size="14.00"> </text>
</g>
<!-- node8 -->
<g id="node8" class="node"><title>node8</title>
<polygon fill="grey" stroke="none" points="1240,-342.5 1240,-361.5 1582,-361.5 1582,-342.5 1240,-342.5"/>
<text text-anchor="start" x="1266.5" y="-349.3" font-family="DejaVu Sans" font-weight="bold" font-size="14.00">&quot;bcd52bafc1e2e04193a9_assertion&quot;</text>
<g id="a_node8_8"><a xlink:href="https://monarchinitiative.org/.well-known/genid/bd8e0f2fc4633580d875" xlink:title="&lt;TABLE&gt;">
<polygon fill="#eeeeee" stroke="none" points="1240,-327.5 1240,-342.5 1582,-342.5 1582,-327.5 1240,-327.5"/>
<text text-anchor="start" x="1242" y="-332.5" font-family="DejaVu Sans" font-size="10.00" fill="#6666ff">https://monarchinitiative.org/.well&#45;known/genid/bd8e0f2fc4633580d875</text>
</a>
</g>
<text text-anchor="start" x="1242" y="-314.3" font-family="DejaVu Sans" font-size="14.00">dc:identifier</text>
<text text-anchor="start" x="1386" y="-314.3" font-family="DejaVu Sans" font-size="14.00">&quot;SCV000296057.1&quot;</text>
<polygon fill="none" stroke="#666666" points="1239,-308 1239,-363 1583,-363 1583,-308 1239,-308"/>
</g>
<!-- node3&#45;&gt;node8 -->
<g id="edge14" class="edge"><title>node3&#45;&gt;node8</title>
<path fill="none" stroke="BLACK" d="M1967.56,-427.499C1864.42,-410.636 1718.05,-386.704 1601.3,-367.615"/>
<polygon fill="BLACK" stroke="BLACK" points="1601.6,-364.118 1591.17,-365.958 1600.47,-371.026 1601.6,-364.118"/>
<text text-anchor="start" x="1795" y="-389.8" font-family="Times,serif" font-size="14.00"> </text>
<text text-anchor="start" x="1799" y="-389.8" font-family="Times,serif" font-size="10.00" fill="#336633">OBO:SEPIO_0000015</text>
<text text-anchor="start" x="1893" y="-389.8" font-family="Times,serif" font-size="14.00"> </text>
</g>
<!-- node12 -->
<g id="node12" class="node"><title>node12</title>
<polygon fill="grey" stroke="none" points="2419,-333.5 2419,-352.5 2637,-352.5 2637,-333.5 2419,-333.5"/>
<text text-anchor="start" x="2467" y="-340.3" font-family="DejaVu Sans" font-weight="bold" font-size="14.00">GENO_0000841</text>
<g id="a_node12_9"><a xlink:href="http://purl.obolibrary.org/obo/GENO_0000841" xlink:title="&lt;TABLE&gt;">
<polygon fill="#eeeeee" stroke="none" points="2419,-318.5 2419,-333.5 2637,-333.5 2637,-318.5 2419,-318.5"/>
<text text-anchor="start" x="2421" y="-323.5" font-family="DejaVu Sans" font-size="10.00" fill="#6666ff">http://purl.obolibrary.org/obo/GENO_0000841</text>
</a>
</g>
<polygon fill="none" stroke="#666666" points="2418,-317.5 2418,-353.5 2638,-353.5 2638,-317.5 2418,-317.5"/>
</g>
<!-- node3&#45;&gt;node12 -->
<g id="edge7" class="edge"><title>node3&#45;&gt;node12</title>
<path fill="none" stroke="BLACK" d="M2177,-427.499C2250.92,-408.335 2360.05,-380.043 2436.96,-360.103"/>
<polygon fill="BLACK" stroke="BLACK" points="2437.84,-363.49 2446.64,-357.592 2436.09,-356.714 2437.84,-363.49"/>
<text text-anchor="start" x="2338" y="-389.8" font-family="Times,serif" font-size="14.00"> </text>
<text text-anchor="start" x="2342" y="-389.8" font-family="Times,serif" font-size="10.00" fill="#336633">OBAN:association_has_predicate</text>
<text text-anchor="start" x="2482" y="-389.8" font-family="Times,serif" font-size="14.00"> </text>
</g>
<!-- node16 -->
<g id="node17" class="node"><title>node16</title>
<polygon fill="grey" stroke="none" points="2673,-333.5 2673,-352.5 2827,-352.5 2827,-333.5 2673,-333.5"/>
<text text-anchor="start" x="2704" y="-340.3" font-family="DejaVu Sans" font-weight="bold" font-size="14.00">association</text>
<g id="a_node17_10"><a xlink:href="http://purl.org/oban/association" xlink:title="&lt;TABLE&gt;">
<polygon fill="#eeeeee" stroke="none" points="2673,-318.5 2673,-333.5 2827,-333.5 2827,-318.5 2673,-318.5"/>
<text text-anchor="start" x="2675" y="-323.5" font-family="DejaVu Sans" font-size="10.00" fill="#6666ff">http://purl.org/oban/association</text>
</a>
</g>
<polygon fill="none" stroke="#666666" points="2672,-317.5 2672,-353.5 2828,-353.5 2828,-317.5 2672,-317.5"/>
</g>
<!-- node3&#45;&gt;node16 -->
<g id="edge12" class="edge"><title>node3&#45;&gt;node16</title>
<path fill="none" stroke="BLACK" d="M2261.77,-433.929C2374,-421.732 2524.95,-400.766 2655,-367 2662.54,-365.041 2670.37,-362.828 2678.15,-360.512"/>
<polygon fill="BLACK" stroke="BLACK" points="2679.4,-363.79 2687.95,-357.533 2677.37,-357.092 2679.4,-363.79"/>
<text text-anchor="start" x="2566" y="-389.8" font-family="Times,serif" font-size="14.00"> </text>
<text text-anchor="start" x="2570" y="-389.8" font-family="Times,serif" font-size="10.00" fill="#336633">rdf:type</text>
<text text-anchor="start" x="2603" y="-389.8" font-family="Times,serif" font-size="14.00"> </text>
</g>
<!-- node19 -->
<g id="node20" class="node"><title>node19</title>
<polygon fill="grey" stroke="none" points="9,-115 9,-134 403,-134 403,-115 9,-115"/>
<text text-anchor="start" x="11" y="-121.8" font-family="DejaVu Sans" font-weight="bold" font-size="14.00">http://www.ncbi.nlm.nih.gov/pubmed/27486776</text>
<g id="a_node20_11"><a xlink:href="http://www.ncbi.nlm.nih.gov/pubmed/27486776" xlink:title="&lt;TABLE&gt;">
<polygon fill="#eeeeee" stroke="none" points="9,-100 9,-115 403,-115 403,-100 9,-100"/>
<text text-anchor="start" x="94.5" y="-105" font-family="DejaVu Sans" font-size="10.00" fill="#6666ff">http://www.ncbi.nlm.nih.gov/pubmed/27486776</text>
</a>
</g>
<polygon fill="none" stroke="#666666" points="8,-99 8,-135 404,-135 404,-99 8,-99"/>
</g>
<!-- node3&#45;&gt;node19 -->
<g id="edge18" class="edge"><title>node3&#45;&gt;node19</title>
<path fill="none" stroke="BLACK" d="M1930.32,-447.444C1688.09,-443.725 1223.71,-428.344 834,-367 616.972,-332.838 547.076,-355.968 353,-253 302.564,-226.241 256.154,-178 229.482,-147.017"/>
<polygon fill="BLACK" stroke="BLACK" points="231.952,-144.517 222.816,-139.152 226.612,-149.043 231.952,-144.517"/>
<text text-anchor="start" x="420" y="-275.8" font-family="Times,serif" font-size="14.00"> </text>
<text text-anchor="start" x="424" y="-275.8" font-family="Times,serif" font-size="10.00" fill="#336633">dc:source</text>
<text text-anchor="start" x="464" y="-275.8" font-family="Times,serif" font-size="14.00"> </text>
</g>
<!-- node20 -->
<g id="node21" class="node"><title>node20</title>
<polygon fill="grey" stroke="none" points="2864,-333.5 2864,-352.5 3107,-352.5 3107,-333.5 2864,-333.5"/>
<text text-anchor="start" x="2925" y="-340.3" font-family="DejaVu Sans" font-weight="bold" font-size="14.00">RCV000498447</text>
<g id="a_node21_12"><a xlink:href="http://www.ncbi.nlm.nih.gov/clinvar/RCV000498447" xlink:title="&lt;TABLE&gt;">
<polygon fill="#eeeeee" stroke="none" points="2864,-318.5 2864,-333.5 3107,-333.5 3107,-318.5 2864,-318.5"/>
<text text-anchor="start" x="2866" y="-323.5" font-family="DejaVu Sans" font-size="10.00" fill="#6666ff">http://www.ncbi.nlm.nih.gov/clinvar/RCV000498447</text>
</a>
</g>
<polygon fill="none" stroke="#666666" points="2862.5,-317.5 2862.5,-353.5 3107.5,-353.5 3107.5,-317.5 2862.5,-317.5"/>
</g>
<!-- node3&#45;&gt;node20 -->
<g id="edge21" class="edge"><title>node3&#45;&gt;node20</title>
<path fill="none" stroke="BLACK" d="M2261.68,-437.063C2414.08,-424.985 2645.92,-402.673 2845,-367 2857.27,-364.802 2870.1,-362.295 2882.8,-359.686"/>
<polygon fill="BLACK" stroke="BLACK" points="2883.87,-363.039 2892.94,-357.575 2882.44,-356.186 2883.87,-363.039"/>
<text text-anchor="start" x="2724" y="-389.8" font-family="Times,serif" font-size="14.00"> </text>
<text text-anchor="start" x="2728" y="-389.8" font-family="Times,serif" font-size="10.00" fill="#336633">oboInOwl:hasdbxref</text>
<text text-anchor="start" x="2813" y="-389.8" font-family="Times,serif" font-size="14.00"> </text>
</g>
<!-- node11 -->
<g id="node13" class="node"><title>node11</title>
<polygon fill="grey" stroke="none" points="685,-115 685,-134 1035,-134 1035,-115 685,-115"/>
<text text-anchor="start" x="687" y="-121.8" font-family="DejaVu Sans" font-weight="bold" font-size="14.00">&quot;_:be870b3d47783bbdcf05SEPIO:0000066&quot;</text>
<g id="a_node13_13"><a xlink:href="https://monarchinitiative.org/.well-known/genid/b664828053687f26b867" xlink:title="&lt;TABLE&gt;">
<polygon fill="#eeeeee" stroke="none" points="685,-100 685,-115 1035,-115 1035,-100 685,-100"/>
<text text-anchor="start" x="689" y="-105" font-family="DejaVu Sans" font-size="10.00" fill="#6666ff">https://monarchinitiative.org/.well&#45;known/genid/b664828053687f26b867</text>
</a>
</g>
<polygon fill="none" stroke="#666666" points="684,-99 684,-135 1036,-135 1036,-99 684,-99"/>
</g>
<!-- node4&#45;&gt;node11 -->
<g id="edge16" class="edge"><title>node4&#45;&gt;node11</title>
<path fill="none" stroke="BLACK" d="M609.092,-199.386C660.288,-182.78 731.669,-159.626 785.211,-142.259"/>
<polygon fill="BLACK" stroke="BLACK" points="786.56,-145.501 794.992,-139.086 784.4,-138.843 786.56,-145.501"/>
<text text-anchor="start" x="740" y="-161.8" font-family="Times,serif" font-size="14.00"> </text>
<text text-anchor="start" x="744" y="-161.8" font-family="Times,serif" font-size="10.00" fill="#336633">OBO:SEPIO_0000085</text>
<text text-anchor="start" x="838" y="-161.8" font-family="Times,serif" font-size="14.00"> </text>
</g>
<!-- node14 -->
<g id="node15" class="node"><title>node14</title>
<polygon fill="grey" stroke="none" points="439,-115 439,-134 649,-134 649,-115 439,-115"/>
<text text-anchor="start" x="489.5" y="-121.8" font-family="DejaVu Sans" font-weight="bold" font-size="14.00">ECO_0000000</text>
<g id="a_node15_14"><a xlink:href="http://purl.obolibrary.org/obo/ECO_0000000" xlink:title="&lt;TABLE&gt;">
<polygon fill="#eeeeee" stroke="none" points="439,-100 439,-115 649,-115 649,-100 439,-100"/>
<text text-anchor="start" x="441" y="-105" font-family="DejaVu Sans" font-size="10.00" fill="#6666ff">http://purl.obolibrary.org/obo/ECO_0000000</text>
</a>
</g>
<polygon fill="none" stroke="#666666" points="438,-99 438,-135 650,-135 650,-99 438,-99"/>
</g>
<!-- node4&#45;&gt;node14 -->
<g id="edge9" class="edge"><title>node4&#45;&gt;node14</title>
<path fill="none" stroke="BLACK" d="M544,-199.262C544,-184.831 544,-165.499 544,-149.311"/>
<polygon fill="BLACK" stroke="BLACK" points="547.5,-149.211 544,-139.211 540.5,-149.211 547.5,-149.211"/>
<text text-anchor="start" x="544" y="-161.8" font-family="Times,serif" font-size="14.00"> </text>
<text text-anchor="start" x="548" y="-161.8" font-family="Times,serif" font-size="10.00" fill="#336633">rdf:type</text>
<text text-anchor="start" x="581" y="-161.8" font-family="Times,serif" font-size="14.00"> </text>
</g>
<!-- node4&#45;&gt;node19 -->
<g id="edge30" class="edge"><title>node4&#45;&gt;node19</title>
<path fill="none" stroke="BLACK" d="M474.376,-199.386C419.388,-182.711 342.631,-159.434 285.284,-142.043"/>
<polygon fill="BLACK" stroke="BLACK" points="286.119,-138.639 275.534,-139.086 284.088,-145.338 286.119,-138.639"/>
<text text-anchor="start" x="375" y="-161.8" font-family="Times,serif" font-size="14.00"> </text>
<text text-anchor="start" x="379" y="-161.8" font-family="Times,serif" font-size="10.00" fill="#336633">OBO:SEPIO_0000124</text>
<text text-anchor="start" x="473" y="-161.8" font-family="Times,serif" font-size="14.00"> </text>
</g>
<!-- node6 -->
<g id="node6" class="node"><title>node6</title>
<polygon fill="grey" stroke="none" points="2471,-115 2471,-134 2675,-134 2675,-115 2471,-115"/>
<text text-anchor="start" x="2523.5" y="-121.8" font-family="DejaVu Sans" font-weight="bold" font-size="14.00">SO_0001742</text>
<g id="a_node6_15"><a xlink:href="http://purl.obolibrary.org/obo/SO_0001742" xlink:title="&lt;TABLE&gt;">
<polygon fill="#eeeeee" stroke="none" points="2471,-100 2471,-115 2675,-115 2675,-100 2471,-100"/>
<text text-anchor="start" x="2473" y="-105" font-family="DejaVu Sans" font-size="10.00" fill="#6666ff">http://purl.obolibrary.org/obo/SO_0001742</text>
</a>
</g>
<polygon fill="none" stroke="#666666" points="2470,-99 2470,-135 2676,-135 2676,-99 2470,-99"/>
</g>
<!-- node5&#45;&gt;node6 -->
<g id="edge3" class="edge"><title>node5&#45;&gt;node6</title>
<path fill="none" stroke="BLACK" d="M2437.5,-189.919C2455.87,-184.825 2473.95,-178.897 2491,-172 2507.62,-165.277 2524.42,-154.963 2538.45,-145.145"/>
<polygon fill="BLACK" stroke="BLACK" points="2540.74,-147.815 2546.81,-139.132 2536.65,-142.134 2540.74,-147.815"/>
<text text-anchor="start" x="2520" y="-161.8" font-family="Times,serif" font-size="14.00"> </text>
<text text-anchor="start" x="2524" y="-161.8" font-family="Times,serif" font-size="10.00" fill="#336633">rdf:type</text>
<text text-anchor="start" x="2557" y="-161.8" font-family="Times,serif" font-size="14.00"> </text>
</g>
<!-- node15 -->
<g id="node16" class="node"><title>node15</title>
<polygon fill="grey" stroke="none" points="2079,-115 2079,-134 2435,-134 2435,-115 2079,-115"/>
<text text-anchor="start" x="2081" y="-121.8" font-family="DejaVu Sans" font-weight="bold" font-size="14.00">https://www.ncbi.nlm.nih.gov/gene/261734</text>
<g id="a_node16_16"><a xlink:href="https://www.ncbi.nlm.nih.gov/gene/261734" xlink:title="&lt;TABLE&gt;">
<polygon fill="#eeeeee" stroke="none" points="2079,-100 2079,-115 2435,-115 2435,-100 2079,-100"/>
<text text-anchor="start" x="2156.5" y="-105" font-family="DejaVu Sans" font-size="10.00" fill="#6666ff">https://www.ncbi.nlm.nih.gov/gene/261734</text>
</a>
</g>
<polygon fill="none" stroke="#666666" points="2078,-99 2078,-135 2436,-135 2436,-99 2078,-99"/>
</g>
<!-- node5&#45;&gt;node15 -->
<g id="edge10" class="edge"><title>node5&#45;&gt;node15</title>
<path fill="none" stroke="BLACK" d="M2240.9,-189.747C2243.78,-176.904 2247.13,-162.006 2250.02,-149.125"/>
<polygon fill="BLACK" stroke="BLACK" points="2253.45,-149.828 2252.22,-139.304 2246.61,-148.295 2253.45,-149.828"/>
<text text-anchor="start" x="2249" y="-161.8" font-family="Times,serif" font-size="14.00"> </text>
<text text-anchor="start" x="2253" y="-161.8" font-family="Times,serif" font-size="10.00" fill="#336633">OBO:BFO_0000050</text>
<text text-anchor="start" x="2340" y="-161.8" font-family="Times,serif" font-size="14.00"> </text>
</g>
<!-- node5&#45;&gt;node17 -->
<g id="edge22" class="edge"><title>node5&#45;&gt;node17</title>
<path fill="none" stroke="BLACK" d="M2143.8,-189.885C2098.97,-174.671 2045.56,-156.544 2003.59,-142.299"/>
<polygon fill="BLACK" stroke="BLACK" points="2004.6,-138.944 1994,-139.044 2002.35,-145.573 2004.6,-138.944"/>
<text text-anchor="start" x="2083" y="-161.8" font-family="Times,serif" font-size="14.00"> </text>
<text text-anchor="start" x="2087" y="-161.8" font-family="Times,serif" font-size="10.00" fill="#336633">OBO:RO_0002162</text>
<text text-anchor="start" x="2169" y="-161.8" font-family="Times,serif" font-size="14.00"> </text>
</g>
<!-- node7&#45;&gt;node6 -->
<g id="edge4" class="edge"><title>node7&#45;&gt;node6</title>
<path fill="none" stroke="BLACK" d="M2752.83,-189.682C2745.23,-177.888 2735.14,-165.291 2723,-157 2713.98,-150.843 2704.06,-145.658 2693.73,-141.291"/>
<polygon fill="BLACK" stroke="BLACK" points="2694.74,-137.927 2684.16,-137.507 2692.17,-144.437 2694.74,-137.927"/>
<text text-anchor="start" x="2739" y="-161.8" font-family="Times,serif" font-size="14.00"> </text>
<text text-anchor="start" x="2743" y="-161.8" font-family="Times,serif" font-size="10.00" fill="#336633">rdf:type</text>
<text text-anchor="start" x="2776" y="-161.8" font-family="Times,serif" font-size="14.00"> </text>
</g>
<!-- node7&#45;&gt;node15 -->
<g id="edge25" class="edge"><title>node7&#45;&gt;node15</title>
<path fill="none" stroke="BLACK" d="M2676.4,-189.949C2633.32,-176.09 2586.84,-161.743 2565,-157 2542.37,-152.084 2500.22,-146.074 2454.2,-140.257"/>
<polygon fill="BLACK" stroke="BLACK" points="2454.38,-136.752 2444.02,-138.981 2453.51,-143.697 2454.38,-136.752"/>
<text text-anchor="start" x="2620" y="-161.8" font-family="Times,serif" font-size="14.00"> </text>
<text text-anchor="start" x="2624" y="-161.8" font-family="Times,serif" font-size="10.00" fill="#336633">OBO:BFO_0000050</text>
<text text-anchor="start" x="2711" y="-161.8" font-family="Times,serif" font-size="14.00"> </text>
</g>
<!-- node7&#45;&gt;node17 -->
<g id="edge27" class="edge"><title>node7&#45;&gt;node17</title>
<path fill="none" stroke="BLACK" d="M2511.29,-189.995C2463.52,-183.602 2421.11,-177.223 2397,-172 2374.74,-167.178 2370.41,-161.074 2348,-157 2225.45,-134.718 2189.8,-152.34 2062.27,-139.054"/>
<polygon fill="BLACK" stroke="BLACK" points="2062.43,-135.551 2052.11,-137.952 2061.68,-142.511 2062.43,-135.551"/>
<text text-anchor="start" x="2397" y="-161.8" font-family="Times,serif" font-size="14.00"> </text>
<text text-anchor="start" x="2401" y="-161.8" font-family="Times,serif" font-size="10.00" fill="#336633">OBO:RO_0002162</text>
<text text-anchor="start" x="2483" y="-161.8" font-family="Times,serif" font-size="14.00"> </text>
</g>
<!-- node21 -->
<g id="node22" class="node"><title>node21</title>
<polygon fill="grey" stroke="none" points="2711,-115 2711,-134 3047,-134 3047,-115 2711,-115"/>
<text text-anchor="start" x="2713" y="-121.8" font-family="DejaVu Sans" font-weight="bold" font-size="14.00">https://www.ncbi.nlm.nih.gov/gene/8514</text>
<g id="a_node22_17"><a xlink:href="https://www.ncbi.nlm.nih.gov/gene/8514" xlink:title="&lt;TABLE&gt;">
<polygon fill="#eeeeee" stroke="none" points="2711,-100 2711,-115 3047,-115 3047,-100 2711,-100"/>
<text text-anchor="start" x="2784.5" y="-105" font-family="DejaVu Sans" font-size="10.00" fill="#6666ff">https://www.ncbi.nlm.nih.gov/gene/8514</text>
</a>
</g>
<polygon fill="none" stroke="#666666" points="2710,-99 2710,-135 3048,-135 3048,-99 2710,-99"/>
</g>
<!-- node7&#45;&gt;node21 -->
<g id="edge24" class="edge"><title>node7&#45;&gt;node21</title>
<path fill="none" stroke="BLACK" d="M2802,-189.747C2816.74,-176.014 2834,-159.931 2848.44,-146.477"/>
<polygon fill="BLACK" stroke="BLACK" points="2851.21,-148.682 2856.14,-139.304 2846.43,-143.561 2851.21,-148.682"/>
<text text-anchor="start" x="2838" y="-161.8" font-family="Times,serif" font-size="14.00"> </text>
<text text-anchor="start" x="2842" y="-161.8" font-family="Times,serif" font-size="10.00" fill="#336633">OBO:BFO_0000050</text>
<text text-anchor="start" x="2929" y="-161.8" font-family="Times,serif" font-size="14.00"> </text>
</g>
<!-- node8&#45;&gt;node4 -->
<g id="edge19" class="edge"><title>node8&#45;&gt;node4</title>
<path fill="none" stroke="BLACK" d="M1230.79,-314.759C1094.25,-299.328 902.084,-276.599 734,-253 716.693,-250.57 698.525,-247.86 680.571,-245.085"/>
<polygon fill="BLACK" stroke="BLACK" points="681.045,-241.617 670.626,-243.538 679.969,-248.533 681.045,-241.617"/>
<text text-anchor="start" x="976" y="-275.8" font-family="Times,serif" font-size="14.00"> </text>
<text text-anchor="start" x="980" y="-275.8" font-family="Times,serif" font-size="10.00" fill="#336633">OBO:SEPIO_0000111</text>
<text text-anchor="start" x="1074" y="-275.8" font-family="Times,serif" font-size="14.00"> </text>
</g>
<!-- node9 -->
<g id="node9" class="node"><title>node9</title>
<polygon fill="grey" stroke="none" points="753,-219.5 753,-238.5 1328,-238.5 1328,-219.5 753,-219.5"/>
<text text-anchor="start" x="755" y="-226.3" font-family="DejaVu Sans" font-weight="bold" font-size="14.00">&quot;Center for Human Disease Modeling,Duke University Medical Center&quot;</text>
<g id="a_node9_18"><a xlink:href="http://www.ncbi.nlm.nih.gov/clinvar/submitters/505664" xlink:title="&lt;TABLE&gt;">
<polygon fill="#eeeeee" stroke="none" points="753,-204.5 753,-219.5 1328,-219.5 1328,-204.5 753,-204.5"/>
<text text-anchor="start" x="912" y="-209.5" font-family="DejaVu Sans" font-size="10.00" fill="#6666ff">http://www.ncbi.nlm.nih.gov/clinvar/submitters/505664</text>
</a>
</g>
<polygon fill="none" stroke="#666666" points="751.5,-203.5 751.5,-239.5 1328.5,-239.5 1328.5,-203.5 751.5,-203.5"/>
</g>
<!-- node8&#45;&gt;node9 -->
<g id="edge5" class="edge"><title>node8&#45;&gt;node9</title>
<path fill="none" stroke="BLACK" d="M1309.62,-303.896C1249.71,-285.81 1174.96,-263.241 1119.36,-246.459"/>
<polygon fill="BLACK" stroke="BLACK" points="1120.15,-243.04 1109.56,-243.501 1118.13,-249.741 1120.15,-243.04"/>
<text text-anchor="start" x="1248" y="-275.8" font-family="Times,serif" font-size="14.00"> </text>
<text text-anchor="start" x="1252" y="-275.8" font-family="Times,serif" font-size="10.00" fill="#336633">OBO:SEPIO_0000018</text>
<text text-anchor="start" x="1346" y="-275.8" font-family="Times,serif" font-size="14.00"> </text>
</g>
<!-- node18 -->
<g id="node19" class="node"><title>node18</title>
<polygon fill="grey" stroke="none" points="1364,-219.5 1364,-238.5 1582,-238.5 1582,-219.5 1364,-219.5"/>
<text text-anchor="start" x="1411" y="-226.3" font-family="DejaVu Sans" font-weight="bold" font-size="14.00">SEPIO_0000001</text>
<g id="a_node19_19"><a xlink:href="http://purl.obolibrary.org/obo/SEPIO_0000001" xlink:title="&lt;TABLE&gt;">
<polygon fill="#eeeeee" stroke="none" points="1364,-204.5 1364,-219.5 1582,-219.5 1582,-204.5 1364,-204.5"/>
<text text-anchor="start" x="1366" y="-209.5" font-family="DejaVu Sans" font-size="10.00" fill="#6666ff">http://purl.obolibrary.org/obo/SEPIO_0000001</text>
</a>
</g>
<polygon fill="none" stroke="#666666" points="1363,-203.5 1363,-239.5 1583,-239.5 1583,-203.5 1363,-203.5"/>
</g>
<!-- node8&#45;&gt;node18 -->
<g id="edge17" class="edge"><title>node8&#45;&gt;node18</title>
<path fill="none" stroke="BLACK" d="M1427.94,-303.896C1436.81,-287.87 1447.63,-268.323 1456.45,-252.402"/>
<polygon fill="BLACK" stroke="BLACK" points="1459.59,-253.945 1461.37,-243.501 1453.47,-250.554 1459.59,-253.945"/>
<text text-anchor="start" x="1446" y="-275.8" font-family="Times,serif" font-size="14.00"> </text>
<text text-anchor="start" x="1450" y="-275.8" font-family="Times,serif" font-size="10.00" fill="#336633">rdf:type</text>
<text text-anchor="start" x="1483" y="-275.8" font-family="Times,serif" font-size="14.00"> </text>
</g>
<!-- node24 -->
<g id="node25" class="node"><title>node24</title>
<polygon fill="grey" stroke="none" points="1072,-115 1072,-134 1259,-134 1259,-115 1072,-115"/>
<text text-anchor="start" x="1114" y="-121.8" font-family="DejaVu Sans" font-weight="bold" font-size="14.00">organization</text>
<g id="a_node25_20"><a xlink:href="http://xmlns.com/foaf/0.1/organization" xlink:title="&lt;TABLE&gt;">
<polygon fill="#eeeeee" stroke="none" points="1072,-100 1072,-115 1259,-115 1259,-100 1072,-100"/>
<text text-anchor="start" x="1074" y="-105" font-family="DejaVu Sans" font-size="10.00" fill="#6666ff">http://xmlns.com/foaf/0.1/organization</text>
</a>
</g>
<polygon fill="none" stroke="#666666" points="1070.5,-99 1070.5,-135 1259.5,-135 1259.5,-99 1070.5,-99"/>
</g>
<!-- node9&#45;&gt;node24 -->
<g id="edge29" class="edge"><title>node9&#45;&gt;node24</title>
<path fill="none" stroke="BLACK" d="M1065.9,-199.262C1084.84,-183.732 1110.7,-162.525 1131.26,-145.67"/>
<polygon fill="BLACK" stroke="BLACK" points="1133.62,-148.258 1139.13,-139.211 1129.18,-142.845 1133.62,-148.258"/>
<text text-anchor="start" x="1118" y="-161.8" font-family="Times,serif" font-size="14.00"> </text>
<text text-anchor="start" x="1122" y="-161.8" font-family="Times,serif" font-size="10.00" fill="#336633">rdf:type</text>
<text text-anchor="start" x="1155" y="-161.8" font-family="Times,serif" font-size="14.00"> </text>
</g>
<!-- node0 -->
<g id="node10" class="node"><title>node0</title>
<polygon fill="grey" stroke="none" points="3109,-456.5 3109,-475.5 3375,-475.5 3375,-456.5 3109,-456.5"/>
<text text-anchor="start" x="3170" y="-463.3" font-family="DejaVu Sans" font-weight="bold" font-size="14.00">RCV000498447.nt</text>
<g id="a_node10_21"><a xlink:href="https://data.monarchinitiative.org/ttl/RCV000498447.nt" xlink:title="&lt;TABLE&gt;">
<polygon fill="#eeeeee" stroke="none" points="3109,-441.5 3109,-456.5 3375,-456.5 3375,-441.5 3109,-441.5"/>
<text text-anchor="start" x="3111" y="-446.5" font-family="DejaVu Sans" font-size="10.00" fill="#6666ff">https://data.monarchinitiative.org/ttl/RCV000498447.nt</text>
</a>
</g>
<text text-anchor="start" x="3111" y="-428.3" font-family="DejaVu Sans" font-size="14.00">owl:versionInfo</text>
<text text-anchor="start" x="3249" y="-428.3" font-family="DejaVu Sans" font-size="14.00">&quot;2019&#45;06&#45;03&quot;</text>
<polygon fill="none" stroke="#666666" points="3108,-422 3108,-477 3376,-477 3376,-422 3108,-422"/>
</g>
<!-- node10 -->
<g id="node11" class="node"><title>node10</title>
<polygon fill="grey" stroke="none" points="3143,-333.5 3143,-352.5 3341,-352.5 3341,-333.5 3143,-333.5"/>
<text text-anchor="start" x="3205" y="-340.3" font-family="DejaVu Sans" font-weight="bold" font-size="14.00">Ontology</text>
<g id="a_node11_22"><a xlink:href="http://www.w3.org/2002/07/owl#Ontology" xlink:title="&lt;TABLE&gt;">
<polygon fill="#eeeeee" stroke="none" points="3143,-318.5 3143,-333.5 3341,-333.5 3341,-318.5 3143,-318.5"/>
<text text-anchor="start" x="3145" y="-323.5" font-family="DejaVu Sans" font-size="10.00" fill="#6666ff">http://www.w3.org/2002/07/owl#Ontology</text>
</a>
</g>
<polygon fill="none" stroke="#666666" points="3142,-317.5 3142,-353.5 3342,-353.5 3342,-317.5 3142,-317.5"/>
</g>
<!-- node0&#45;&gt;node10 -->
<g id="edge6" class="edge"><title>node0&#45;&gt;node10</title>
<path fill="none" stroke="BLACK" d="M3242,-417.896C3242,-402.319 3242,-383.416 3242,-367.749"/>
<polygon fill="BLACK" stroke="BLACK" points="3245.5,-367.501 3242,-357.501 3238.5,-367.501 3245.5,-367.501"/>
<text text-anchor="start" x="3242" y="-389.8" font-family="Times,serif" font-size="14.00"> </text>
<text text-anchor="start" x="3246" y="-389.8" font-family="Times,serif" font-size="10.00" fill="#336633">rdf:type</text>
<text text-anchor="start" x="3279" y="-389.8" font-family="Times,serif" font-size="14.00"> </text>
</g>
<!-- node13 -->
<g id="node14" class="node"><title>node13</title>
<polygon fill="grey" stroke="none" points="751,-20 751,-39 969,-39 969,-20 751,-20"/>
<text text-anchor="start" x="798" y="-26.8" font-family="DejaVu Sans" font-weight="bold" font-size="14.00">SEPIO_0000066</text>
<g id="a_node14_23"><a xlink:href="http://purl.obolibrary.org/obo/SEPIO_0000066" xlink:title="&lt;TABLE&gt;">
<polygon fill="#eeeeee" stroke="none" points="751,-5 751,-20 969,-20 969,-5 751,-5"/>
<text text-anchor="start" x="753" y="-10" font-family="DejaVu Sans" font-size="10.00" fill="#6666ff">http://purl.obolibrary.org/obo/SEPIO_0000066</text>
</a>
</g>
<polygon fill="none" stroke="#666666" points="750,-4 750,-40 970,-40 970,-4 750,-4"/>
</g>
<!-- node11&#45;&gt;node13 -->
<g id="edge8" class="edge"><title>node11&#45;&gt;node13</title>
<path fill="none" stroke="BLACK" d="M860,-94.8969C860,-82.8873 860,-67.6175 860,-54.242"/>
<polygon fill="BLACK" stroke="BLACK" points="863.5,-54.0196 860,-44.0196 856.5,-54.0197 863.5,-54.0196"/>
<text text-anchor="start" x="860" y="-66.8" font-family="Times,serif" font-size="14.00"> </text>
<text text-anchor="start" x="864" y="-66.8" font-family="Times,serif" font-size="10.00" fill="#336633">rdf:type</text>
<text text-anchor="start" x="897" y="-66.8" font-family="Times,serif" font-size="14.00"> </text>
</g>
<!-- node23 -->
<g id="node24" class="node"><title>node23</title>
<polygon fill="grey" stroke="none" points="103,-20 103,-39 309,-39 309,-20 103,-20"/>
<text text-anchor="start" x="153.5" y="-26.8" font-family="DejaVu Sans" font-weight="bold" font-size="14.00">IAO_0000013</text>
<g id="a_node24_24"><a xlink:href="http://purl.obolibrary.org/obo/IAO_0000013" xlink:title="&lt;TABLE&gt;">
<polygon fill="#eeeeee" stroke="none" points="103,-5 103,-20 309,-20 309,-5 103,-5"/>
<text text-anchor="start" x="105" y="-10" font-family="DejaVu Sans" font-size="10.00" fill="#6666ff">http://purl.obolibrary.org/obo/IAO_0000013</text>
</a>
</g>
<polygon fill="none" stroke="#666666" points="102,-4 102,-40 310,-40 310,-4 102,-4"/>
</g>
<!-- node19&#45;&gt;node23 -->
<g id="edge28" class="edge"><title>node19&#45;&gt;node23</title>
<path fill="none" stroke="BLACK" d="M206,-94.8969C206,-82.8873 206,-67.6175 206,-54.242"/>
<polygon fill="BLACK" stroke="BLACK" points="209.5,-54.0196 206,-44.0196 202.5,-54.0197 209.5,-54.0196"/>
<text text-anchor="start" x="206" y="-66.8" font-family="Times,serif" font-size="14.00"> </text>
<text text-anchor="start" x="210" y="-66.8" font-family="Times,serif" font-size="10.00" fill="#336633">rdf:type</text>
<text text-anchor="start" x="243" y="-66.8" font-family="Times,serif" font-size="14.00"> </text>
</g>
</g>
</svg>
