<?xml version="1.0" encoding="UTF-8" standalone="no"?>
<!DOCTYPE svg PUBLIC "-//W3C//DTD SVG 1.1//EN"
 "http://www.w3.org/Graphics/SVG/1.1/DTD/svg11.dtd">
<!-- Generated by graphviz version 2.38.0 (20140413.2041)
 -->
<!-- Title: %3 Pages: 1 -->
<svg width="3532pt" height="489pt"
 viewBox="0.00 0.00 3532.00 489.00" xmlns="http://www.w3.org/2000/svg" xmlns:xlink="http://www.w3.org/1999/xlink">
<g id="graph0" class="graph" transform="scale(1 1) rotate(0) translate(4 485)">
<title>%3</title>
<polygon fill="white" stroke="none" points="-4,4 -4,-485 3528,-485 3528,4 -4,4"/>
<!-- node0 -->
<g id="node1" class="node"><title>node0</title>
<polygon fill="grey" stroke="none" points="920,-333.5 920,-352.5 1360,-352.5 1360,-333.5 920,-333.5"/>
<text text-anchor="start" x="922" y="-340.3" font-family="DejaVu Sans" font-weight="bold" font-size="14.00">http://www.ncbi.nlm.nih.gov/clinvar/variation/431733</text>
<g id="a_node1_0"><a xlink:href="http://www.ncbi.nlm.nih.gov/clinvar/variation/431733" xlink:title="&lt;TABLE&gt;">
<polygon fill="#eeeeee" stroke="none" points="920,-318.5 920,-333.5 1360,-333.5 1360,-318.5 920,-318.5"/>
<text text-anchor="start" x="1016.5" y="-323.5" font-family="DejaVu Sans" font-size="10.00" fill="#6666ff">http://www.ncbi.nlm.nih.gov/clinvar/variation/431733</text>
</a>
</g>
<polygon fill="none" stroke="#666666" points="919,-317.5 919,-353.5 1361,-353.5 1361,-317.5 919,-317.5"/>
</g>
<!-- node1 -->
<g id="node2" class="node"><title>node1</title>
<polygon fill="grey" stroke="none" points="166,-228.5 166,-247.5 665,-247.5 665,-228.5 166,-228.5"/>
<text text-anchor="start" x="219.5" y="-235.3" font-family="DejaVu Sans" font-weight="bold" font-size="14.00">&quot;GRCh37/hg19 1p36.31(chr1:5910699&#45;6038368)&quot;</text>
<g id="a_node2_1"><a xlink:href="http://www.ncbi.nlm.nih.gov/clinvar/variation/425238" xlink:title="&lt;TABLE&gt;">
<polygon fill="#eeeeee" stroke="none" points="166,-213.5 166,-228.5 665,-228.5 665,-213.5 166,-213.5"/>
<text text-anchor="start" x="292" y="-218.5" font-family="DejaVu Sans" font-size="10.00" fill="#6666ff">http://www.ncbi.nlm.nih.gov/clinvar/variation/425238</text>
</a>
</g>
<text text-anchor="start" x="168" y="-200.3" font-family="DejaVu Sans" font-size="14.00">oboInOwl:hasExactSynonym</text>
<text text-anchor="start" x="370" y="-200.3" font-family="DejaVu Sans" font-size="14.00">&quot;NC_000001.10:g.5910699_6038368dup&quot;</text>
<polygon fill="none" stroke="#666666" points="164.5,-194 164.5,-249 665.5,-249 665.5,-194 164.5,-194"/>
</g>
<!-- node0&#45;&gt;node1 -->
<g id="edge1" class="edge"><title>node0&#45;&gt;node1</title>
<path fill="none" stroke="BLACK" d="M1004.06,-313.499C896.672,-296.91 745.011,-273.481 622.471,-254.551"/>
<polygon fill="BLACK" stroke="BLACK" points="622.998,-251.091 612.581,-253.023 621.929,-258.009 622.998,-251.091"/>
<text text-anchor="start" x="821" y="-275.8" font-family="Times,serif" font-size="14.00"> </text>
<text text-anchor="start" x="825" y="-275.8" font-family="Times,serif" font-size="10.00" fill="#336633">OBO:GENO_0000382</text>
<text text-anchor="start" x="921" y="-275.8" font-family="Times,serif" font-size="14.00"> </text>
</g>
<!-- node8 -->
<g id="node9" class="node"><title>node8</title>
<polygon fill="grey" stroke="none" points="1476,-219.5 1476,-238.5 1682,-238.5 1682,-219.5 1476,-219.5"/>
<text text-anchor="start" x="1478" y="-226.3" font-family="DejaVu Sans" font-weight="bold" font-size="14.00">&quot;Bardet&#45;Biedl syndrome&quot;</text>
<g id="a_node9_2"><a xlink:href="http://omim.org/entry/PS209900" xlink:title="&lt;TABLE&gt;">
<polygon fill="#eeeeee" stroke="none" points="1476,-204.5 1476,-219.5 1682,-219.5 1682,-204.5 1476,-204.5"/>
<text text-anchor="start" x="1501.5" y="-209.5" font-family="DejaVu Sans" font-size="10.00" fill="#6666ff">http://omim.org/entry/PS209900</text>
</a>
</g>
<polygon fill="none" stroke="#666666" points="1475,-203.5 1475,-239.5 1683,-239.5 1683,-203.5 1475,-203.5"/>
</g>
<!-- node0&#45;&gt;node8 -->
<g id="edge6" class="edge"><title>node0&#45;&gt;node8</title>
<path fill="none" stroke="BLACK" d="M1222.31,-313.499C1297.43,-294.335 1408.33,-266.043 1486.48,-246.103"/>
<polygon fill="BLACK" stroke="BLACK" points="1487.5,-249.456 1496.33,-243.592 1485.77,-242.673 1487.5,-249.456"/>
<text text-anchor="start" x="1386" y="-275.8" font-family="Times,serif" font-size="14.00"> </text>
<text text-anchor="start" x="1390" y="-275.8" font-family="Times,serif" font-size="10.00" fill="#336633">OBO:GENO_0000841</text>
<text text-anchor="start" x="1486" y="-275.8" font-family="Times,serif" font-size="14.00"> </text>
</g>
<!-- node11 -->
<g id="node12" class="node"><title>node11</title>
<polygon fill="grey" stroke="none" points="701,-228.5 701,-247.5 1200,-247.5 1200,-228.5 701,-228.5"/>
<text text-anchor="start" x="754.5" y="-235.3" font-family="DejaVu Sans" font-weight="bold" font-size="14.00">&quot;GRCh37/hg19 1p36.31(chr1:6051187&#45;6158763)&quot;</text>
<g id="a_node12_3"><a xlink:href="http://www.ncbi.nlm.nih.gov/clinvar/variation/425239" xlink:title="&lt;TABLE&gt;">
<polygon fill="#eeeeee" stroke="none" points="701,-213.5 701,-228.5 1200,-228.5 1200,-213.5 701,-213.5"/>
<text text-anchor="start" x="827" y="-218.5" font-family="DejaVu Sans" font-size="10.00" fill="#6666ff">http://www.ncbi.nlm.nih.gov/clinvar/variation/425239</text>
</a>
</g>
<text text-anchor="start" x="703" y="-200.3" font-family="DejaVu Sans" font-size="14.00">oboInOwl:hasExactSynonym</text>
<text text-anchor="start" x="905" y="-200.3" font-family="DejaVu Sans" font-size="14.00">&quot;NC_000001.10:g.6051187_6158763dup&quot;</text>
<polygon fill="none" stroke="#666666" points="699.5,-194 699.5,-249 1200.5,-249 1200.5,-194 699.5,-194"/>
</g>
<!-- node0&#45;&gt;node11 -->
<g id="edge23" class="edge"><title>node0&#45;&gt;node11</title>
<path fill="none" stroke="BLACK" d="M1104.26,-313.434C1078.04,-297.977 1041.79,-276.609 1011.02,-258.47"/>
<polygon fill="BLACK" stroke="BLACK" points="1012.48,-255.265 1002.08,-253.202 1008.92,-261.295 1012.48,-255.265"/>
<text text-anchor="start" x="1057" y="-275.8" font-family="Times,serif" font-size="14.00"> </text>
<text text-anchor="start" x="1061" y="-275.8" font-family="Times,serif" font-size="10.00" fill="#336633">OBO:GENO_0000382</text>
<text text-anchor="start" x="1157" y="-275.8" font-family="Times,serif" font-size="14.00"> </text>
</g>
<!-- node14 -->
<g id="node14" class="node"><title>node14</title>
<polygon fill="grey" stroke="none" points="9,-115 9,-134 231,-134 231,-115 9,-115"/>
<text text-anchor="start" x="53.5" y="-121.8" font-family="DejaVu Sans" font-weight="bold" font-size="14.00">NCBITaxon_9606</text>
<g id="a_node14_4"><a xlink:href="http://purl.obolibrary.org/obo/NCBITaxon_9606" xlink:title="&lt;TABLE&gt;">
<polygon fill="#eeeeee" stroke="none" points="9,-100 9,-115 231,-115 231,-100 9,-100"/>
<text text-anchor="start" x="11" y="-105" font-family="DejaVu Sans" font-size="10.00" fill="#6666ff">http://purl.obolibrary.org/obo/NCBITaxon_9606</text>
</a>
</g>
<polygon fill="none" stroke="#666666" points="8,-99 8,-135 232,-135 232,-99 8,-99"/>
</g>
<!-- node0&#45;&gt;node14 -->
<g id="edge13" class="edge"><title>node0&#45;&gt;node14</title>
<path fill="none" stroke="BLACK" d="M910.779,-333.486C610.09,-329.725 113.76,-314.192 57,-253 28.4213,-222.19 61.4981,-176.107 89.4786,-146.55"/>
<polygon fill="BLACK" stroke="BLACK" points="92.326,-148.644 96.8101,-139.045 87.3186,-143.753 92.326,-148.644"/>
<text text-anchor="start" x="57" y="-218.8" font-family="Times,serif" font-size="14.00"> </text>
<text text-anchor="start" x="61" y="-218.8" font-family="Times,serif" font-size="10.00" fill="#336633">OBO:RO_0002162</text>
<text text-anchor="start" x="143" y="-218.8" font-family="Times,serif" font-size="14.00"> </text>
</g>
<!-- node18 -->
<g id="node18" class="node"><title>node18</title>
<polygon fill="grey" stroke="none" points="1236,-219.5 1236,-238.5 1440,-238.5 1440,-219.5 1236,-219.5"/>
<text text-anchor="start" x="1288.5" y="-226.3" font-family="DejaVu Sans" font-weight="bold" font-size="14.00">SO_0001024</text>
<g id="a_node18_5"><a xlink:href="http://purl.obolibrary.org/obo/SO_0001024" xlink:title="&lt;TABLE&gt;">
<polygon fill="#eeeeee" stroke="none" points="1236,-204.5 1236,-219.5 1440,-219.5 1440,-204.5 1236,-204.5"/>
<text text-anchor="start" x="1238" y="-209.5" font-family="DejaVu Sans" font-size="10.00" fill="#6666ff">http://purl.obolibrary.org/obo/SO_0001024</text>
</a>
</g>
<polygon fill="none" stroke="#666666" points="1235,-203.5 1235,-239.5 1441,-239.5 1441,-203.5 1235,-203.5"/>
</g>
<!-- node0&#45;&gt;node18 -->
<g id="edge17" class="edge"><title>node0&#45;&gt;node18</title>
<path fill="none" stroke="BLACK" d="M1177.24,-313.434C1209.63,-295.111 1256.71,-268.48 1291.56,-248.769"/>
<polygon fill="BLACK" stroke="BLACK" points="1293.61,-251.632 1300.59,-243.662 1290.16,-245.539 1293.61,-251.632"/>
<text text-anchor="start" x="1251" y="-275.8" font-family="Times,serif" font-size="14.00"> </text>
<text text-anchor="start" x="1255" y="-275.8" font-family="Times,serif" font-size="10.00" fill="#336633">rdf:type</text>
<text text-anchor="start" x="1288" y="-275.8" font-family="Times,serif" font-size="14.00"> </text>
</g>
<!-- node2 -->
<g id="node3" class="node"><title>node2</title>
<polygon fill="grey" stroke="none" points="659,-115 659,-134 863,-134 863,-115 659,-115"/>
<text text-anchor="start" x="711.5" y="-121.8" font-family="DejaVu Sans" font-weight="bold" font-size="14.00">SO_0001742</text>
<g id="a_node3_6"><a xlink:href="http://purl.obolibrary.org/obo/SO_0001742" xlink:title="&lt;TABLE&gt;">
<polygon fill="#eeeeee" stroke="none" points="659,-100 659,-115 863,-115 863,-100 659,-100"/>
<text text-anchor="start" x="661" y="-105" font-family="DejaVu Sans" font-size="10.00" fill="#6666ff">http://purl.obolibrary.org/obo/SO_0001742</text>
</a>
</g>
<polygon fill="none" stroke="#666666" points="658,-99 658,-135 864,-135 864,-99 658,-99"/>
</g>
<!-- node1&#45;&gt;node2 -->
<g id="edge2" class="edge"><title>node1&#45;&gt;node2</title>
<path fill="none" stroke="BLACK" d="M625.087,-189.927C643.596,-184.836 661.812,-178.906 679,-172 695.635,-165.317 712.442,-155.011 726.471,-145.187"/>
<polygon fill="BLACK" stroke="BLACK" points="728.755,-147.855 734.822,-139.169 724.662,-142.176 728.755,-147.855"/>
<text text-anchor="start" x="708" y="-161.8" font-family="Times,serif" font-size="14.00"> </text>
<text text-anchor="start" x="712" y="-161.8" font-family="Times,serif" font-size="10.00" fill="#336633">rdf:type</text>
<text text-anchor="start" x="745" y="-161.8" font-family="Times,serif" font-size="14.00"> </text>
</g>
<!-- node12 -->
<g id="node13" class="node"><title>node12</title>
<polygon fill="grey" stroke="none" points="267,-115 267,-134 623,-134 623,-115 267,-115"/>
<text text-anchor="start" x="269" y="-121.8" font-family="DejaVu Sans" font-weight="bold" font-size="14.00">https://www.ncbi.nlm.nih.gov/gene/261734</text>
<g id="a_node13_7"><a xlink:href="https://www.ncbi.nlm.nih.gov/gene/261734" xlink:title="&lt;TABLE&gt;">
<polygon fill="#eeeeee" stroke="none" points="267,-100 267,-115 623,-115 623,-100 267,-100"/>
<text text-anchor="start" x="344.5" y="-105" font-family="DejaVu Sans" font-size="10.00" fill="#6666ff">https://www.ncbi.nlm.nih.gov/gene/261734</text>
</a>
</g>
<polygon fill="none" stroke="#666666" points="266,-99 266,-135 624,-135 624,-99 266,-99"/>
</g>
<!-- node1&#45;&gt;node12 -->
<g id="edge9" class="edge"><title>node1&#45;&gt;node12</title>
<path fill="none" stroke="BLACK" d="M424.001,-189.747C427.76,-176.904 432.12,-162.006 435.89,-149.125"/>
<polygon fill="BLACK" stroke="BLACK" points="439.315,-149.885 438.765,-139.304 432.596,-147.918 439.315,-149.885"/>
<text text-anchor="start" x="434" y="-161.8" font-family="Times,serif" font-size="14.00"> </text>
<text text-anchor="start" x="438" y="-161.8" font-family="Times,serif" font-size="10.00" fill="#336633">OBO:BFO_0000050</text>
<text text-anchor="start" x="525" y="-161.8" font-family="Times,serif" font-size="14.00"> </text>
</g>
<!-- node1&#45;&gt;node14 -->
<g id="edge21" class="edge"><title>node1&#45;&gt;node14</title>
<path fill="none" stroke="BLACK" d="M326.89,-189.885C283.194,-174.703 231.151,-156.62 190.194,-142.389"/>
<polygon fill="BLACK" stroke="BLACK" points="191.162,-139.021 180.567,-139.044 188.864,-145.633 191.162,-139.021"/>
<text text-anchor="start" x="268" y="-161.8" font-family="Times,serif" font-size="14.00"> </text>
<text text-anchor="start" x="272" y="-161.8" font-family="Times,serif" font-size="10.00" fill="#336633">OBO:RO_0002162</text>
<text text-anchor="start" x="354" y="-161.8" font-family="Times,serif" font-size="14.00"> </text>
</g>
<!-- node4 -->
<g id="node4" class="node"><title>node4</title>
<polygon fill="grey" stroke="none" points="2111,-447.5 2111,-466.5 2424,-466.5 2424,-447.5 2111,-447.5"/>
<text text-anchor="start" x="2126.5" y="-454.3" font-family="DejaVu Sans" font-weight="bold" font-size="14.00">MONARCH_bcd52bafc1e2e04193a9</text>
<g id="a_node4_8"><a xlink:href="https://monarchinitiative.org/MONARCH_bcd52bafc1e2e04193a9" xlink:title="&lt;TABLE&gt;">
<polygon fill="#eeeeee" stroke="none" points="2111,-432.5 2111,-447.5 2424,-447.5 2424,-432.5 2111,-432.5"/>
<text text-anchor="start" x="2113" y="-437.5" font-family="DejaVu Sans" font-size="10.00" fill="#6666ff">https://monarchinitiative.org/MONARCH_bcd52bafc1e2e04193a9</text>
</a>
</g>
<polygon fill="none" stroke="#666666" points="2109.5,-431.5 2109.5,-467.5 2424.5,-467.5 2424.5,-431.5 2109.5,-431.5"/>
</g>
<!-- node4&#45;&gt;node0 -->
<g id="edge15" class="edge"><title>node4&#45;&gt;node0</title>
<path fill="none" stroke="BLACK" d="M2101.49,-443.743C1944.03,-437.898 1700.71,-425.436 1491,-400 1409.26,-390.086 1317.74,-373.341 1248.66,-359.535"/>
<polygon fill="BLACK" stroke="BLACK" points="1249.12,-356.059 1238.63,-357.52 1247.75,-362.922 1249.12,-356.059"/>
<text text-anchor="start" x="1491" y="-389.8" font-family="Times,serif" font-size="14.00"> </text>
<text text-anchor="start" x="1495" y="-389.8" font-family="Times,serif" font-size="10.00" fill="#336633">OBAN:association_has_subject</text>
<text text-anchor="start" x="1627" y="-389.8" font-family="Times,serif" font-size="14.00"> </text>
</g>
<!-- node5 -->
<g id="node5" class="node"><title>node5</title>
<polygon fill="grey" stroke="none" points="1849,-333.5 1849,-352.5 2067,-352.5 2067,-333.5 1849,-333.5"/>
<text text-anchor="start" x="1897" y="-340.3" font-family="DejaVu Sans" font-weight="bold" font-size="14.00">GENO_0000841</text>
<g id="a_node5_9"><a xlink:href="http://purl.obolibrary.org/obo/GENO_0000841" xlink:title="&lt;TABLE&gt;">
<polygon fill="#eeeeee" stroke="none" points="1849,-318.5 1849,-333.5 2067,-333.5 2067,-318.5 1849,-318.5"/>
<text text-anchor="start" x="1851" y="-323.5" font-family="DejaVu Sans" font-size="10.00" fill="#6666ff">http://purl.obolibrary.org/obo/GENO_0000841</text>
</a>
</g>
<polygon fill="none" stroke="#666666" points="1848,-317.5 1848,-353.5 2068,-353.5 2068,-317.5 1848,-317.5"/>
</g>
<!-- node4&#45;&gt;node5 -->
<g id="edge3" class="edge"><title>node4&#45;&gt;node5</title>
<path fill="none" stroke="BLACK" d="M2155.43,-427.48C2126.13,-420.336 2094.92,-411.241 2067,-400 2042.75,-390.24 2017.43,-375.78 1997.29,-363.123"/>
<polygon fill="BLACK" stroke="BLACK" points="1999.03,-360.079 1988.72,-357.644 1995.26,-365.977 1999.03,-360.079"/>
<text text-anchor="start" x="2067" y="-389.8" font-family="Times,serif" font-size="14.00"> </text>
<text text-anchor="start" x="2071" y="-389.8" font-family="Times,serif" font-size="10.00" fill="#336633">OBAN:association_has_predicate</text>
<text text-anchor="start" x="2211" y="-389.8" font-family="Times,serif" font-size="14.00"> </text>
</g>
<!-- node6 -->
<g id="node6" class="node"><title>node6</title>
<polygon fill="grey" stroke="none" points="2103,-333.5 2103,-352.5 2257,-352.5 2257,-333.5 2103,-333.5"/>
<text text-anchor="start" x="2134" y="-340.3" font-family="DejaVu Sans" font-weight="bold" font-size="14.00">association</text>
<g id="a_node6_10"><a xlink:href="http://purl.org/oban/association" xlink:title="&lt;TABLE&gt;">
<polygon fill="#eeeeee" stroke="none" points="2103,-318.5 2103,-333.5 2257,-333.5 2257,-318.5 2103,-318.5"/>
<text text-anchor="start" x="2105" y="-323.5" font-family="DejaVu Sans" font-size="10.00" fill="#6666ff">http://purl.org/oban/association</text>
</a>
</g>
<polygon fill="none" stroke="#666666" points="2102,-317.5 2102,-353.5 2258,-353.5 2258,-317.5 2102,-317.5"/>
</g>
<!-- node4&#45;&gt;node6 -->
<g id="edge4" class="edge"><title>node4&#45;&gt;node6</title>
<path fill="none" stroke="BLACK" d="M2250.64,-427.434C2237.11,-410.024 2217.76,-385.113 2202.73,-365.766"/>
<polygon fill="BLACK" stroke="BLACK" points="2205.49,-363.603 2196.59,-357.853 2199.96,-367.897 2205.49,-363.603"/>
<text text-anchor="start" x="2229" y="-389.8" font-family="Times,serif" font-size="14.00"> </text>
<text text-anchor="start" x="2233" y="-389.8" font-family="Times,serif" font-size="10.00" fill="#336633">rdf:type</text>
<text text-anchor="start" x="2266" y="-389.8" font-family="Times,serif" font-size="14.00"> </text>
</g>
<!-- node3 -->
<g id="node7" class="node"><title>node3</title>
<polygon fill="grey" stroke="none" points="2293,-342.5 2293,-361.5 2635,-361.5 2635,-342.5 2293,-342.5"/>
<text text-anchor="start" x="2351" y="-349.3" font-family="DejaVu Sans" font-weight="bold" font-size="14.00">&quot;ClinVarAssertion_1142533&quot;</text>
<g id="a_node7_11"><a xlink:href="https://monarchinitiative.org/.well-known/genid/bd8e0f2fc4633580d875" xlink:title="&lt;TABLE&gt;">
<polygon fill="#eeeeee" stroke="none" points="2293,-327.5 2293,-342.5 2635,-342.5 2635,-327.5 2293,-327.5"/>
<text text-anchor="start" x="2295" y="-332.5" font-family="DejaVu Sans" font-size="10.00" fill="#6666ff">https://monarchinitiative.org/.well&#45;known/genid/bd8e0f2fc4633580d875</text>
</a>
</g>
<text text-anchor="start" x="2295" y="-314.3" font-family="DejaVu Sans" font-size="14.00">dc:identifier</text>
<text text-anchor="start" x="2439" y="-314.3" font-family="DejaVu Sans" font-size="14.00">&quot;SCV000296057.1&quot;</text>
<polygon fill="none" stroke="#666666" points="2292,-308 2292,-363 2636,-363 2636,-308 2292,-308"/>
</g>
<!-- node4&#45;&gt;node3 -->
<g id="edge26" class="edge"><title>node4&#45;&gt;node3</title>
<path fill="none" stroke="BLACK" d="M2304.05,-427.434C2331.36,-411.911 2369.15,-390.426 2401.14,-372.237"/>
<polygon fill="BLACK" stroke="BLACK" points="2403.03,-375.187 2410,-367.202 2399.57,-369.101 2403.03,-375.187"/>
<text text-anchor="start" x="2378" y="-389.8" font-family="Times,serif" font-size="14.00"> </text>
<text text-anchor="start" x="2382" y="-389.8" font-family="Times,serif" font-size="10.00" fill="#336633">OBO:SEPIO_0000015</text>
<text text-anchor="start" x="2476" y="-389.8" font-family="Times,serif" font-size="14.00"> </text>
</g>
<!-- node4&#45;&gt;node8 -->
<g id="edge10" class="edge"><title>node4&#45;&gt;node8</title>
<path fill="none" stroke="BLACK" d="M2101.34,-438.398C1957.67,-427.212 1762.49,-405.458 1695,-367 1648.12,-340.285 1612.87,-286.546 1594.14,-252.663"/>
<polygon fill="BLACK" stroke="BLACK" points="1597.12,-250.817 1589.3,-243.672 1590.96,-254.136 1597.12,-250.817"/>
<text text-anchor="start" x="1695" y="-332.8" font-family="Times,serif" font-size="14.00"> </text>
<text text-anchor="start" x="1699" y="-332.8" font-family="Times,serif" font-size="10.00" fill="#336633">OBAN:association_has_object</text>
<text text-anchor="start" x="1827" y="-332.8" font-family="Times,serif" font-size="14.00"> </text>
</g>
<!-- node15 -->
<g id="node15" class="node"><title>node15</title>
<polygon fill="grey" stroke="none" points="2585,-219.5 2585,-238.5 2930,-238.5 2930,-219.5 2585,-219.5"/>
<text text-anchor="start" x="2614.5" y="-226.3" font-family="DejaVu Sans" font-weight="bold" font-size="14.00">&quot;bcd52bafc1e2e04193a9_evidence&quot;</text>
<g id="a_node15_12"><a xlink:href="https://monarchinitiative.org/.well-known/genid/be870b3d47783bbdcf05" xlink:title="&lt;TABLE&gt;">
<polygon fill="#eeeeee" stroke="none" points="2585,-204.5 2585,-219.5 2930,-219.5 2930,-204.5 2585,-204.5"/>
<text text-anchor="start" x="2587" y="-209.5" font-family="DejaVu Sans" font-size="10.00" fill="#6666ff">https://monarchinitiative.org/.well&#45;known/genid/be870b3d47783bbdcf05</text>
</a>
</g>
<polygon fill="none" stroke="#666666" points="2583.5,-203.5 2583.5,-239.5 2930.5,-239.5 2930.5,-203.5 2583.5,-203.5"/>
</g>
<!-- node4&#45;&gt;node15 -->
<g id="edge19" class="edge"><title>node4&#45;&gt;node15</title>
<path fill="none" stroke="BLACK" d="M2432.59,-440.239C2504.98,-430.177 2588.01,-409.347 2653,-367 2696.13,-338.894 2727.16,-286.193 2743.58,-252.798"/>
<polygon fill="BLACK" stroke="BLACK" points="2746.86,-254.048 2748.01,-243.516 2740.55,-251.031 2746.86,-254.048"/>
<text text-anchor="start" x="2713" y="-332.8" font-family="Times,serif" font-size="14.00"> </text>
<text text-anchor="start" x="2717" y="-332.8" font-family="Times,serif" font-size="10.00" fill="#336633">OBO:SEPIO_0000007</text>
<text text-anchor="start" x="2811" y="-332.8" font-family="Times,serif" font-size="14.00"> </text>
</g>
<!-- node17 -->
<g id="node17" class="node"><title>node17</title>
<polygon fill="grey" stroke="none" points="2811,-115 2811,-134 3205,-134 3205,-115 2811,-115"/>
<text text-anchor="start" x="2813" y="-121.8" font-family="DejaVu Sans" font-weight="bold" font-size="14.00">http://www.ncbi.nlm.nih.gov/pubmed/27486776</text>
<g id="a_node17_13"><a xlink:href="http://www.ncbi.nlm.nih.gov/pubmed/27486776" xlink:title="&lt;TABLE&gt;">
<polygon fill="#eeeeee" stroke="none" points="2811,-100 2811,-115 3205,-115 3205,-100 2811,-100"/>
<text text-anchor="start" x="2896.5" y="-105" font-family="DejaVu Sans" font-size="10.00" fill="#6666ff">http://www.ncbi.nlm.nih.gov/pubmed/27486776</text>
</a>
</g>
<polygon fill="none" stroke="#666666" points="2810,-99 2810,-135 3206,-135 3206,-99 2810,-99"/>
</g>
<!-- node4&#45;&gt;node17 -->
<g id="edge30" class="edge"><title>node4&#45;&gt;node17</title>
<path fill="none" stroke="BLACK" d="M2432.71,-434.839C2569.81,-421.565 2752.44,-398.755 2819,-367 2887.76,-334.196 2901.89,-314.385 2947,-253 2970.84,-220.558 2988.34,-177.312 2998.33,-148.606"/>
<polygon fill="BLACK" stroke="BLACK" points="3001.66,-149.695 3001.55,-139.101 2995.03,-147.449 3001.66,-149.695"/>
<text text-anchor="start" x="2934" y="-275.8" font-family="Times,serif" font-size="14.00"> </text>
<text text-anchor="start" x="2938" y="-275.8" font-family="Times,serif" font-size="10.00" fill="#336633">dc:source</text>
<text text-anchor="start" x="2978" y="-275.8" font-family="Times,serif" font-size="14.00"> </text>
</g>
<!-- node19 -->
<g id="node19" class="node"><title>node19</title>
<polygon fill="grey" stroke="none" points="3004,-333.5 3004,-352.5 3247,-352.5 3247,-333.5 3004,-333.5"/>
<text text-anchor="start" x="3065" y="-340.3" font-family="DejaVu Sans" font-weight="bold" font-size="14.00">RCV000498447</text>
<g id="a_node19_14"><a xlink:href="http://www.ncbi.nlm.nih.gov/clinvar/RCV000498447" xlink:title="&lt;TABLE&gt;">
<polygon fill="#eeeeee" stroke="none" points="3004,-318.5 3004,-333.5 3247,-333.5 3247,-318.5 3004,-318.5"/>
<text text-anchor="start" x="3006" y="-323.5" font-family="DejaVu Sans" font-size="10.00" fill="#6666ff">http://www.ncbi.nlm.nih.gov/clinvar/RCV000498447</text>
</a>
</g>
<polygon fill="none" stroke="#666666" points="3002.5,-317.5 3002.5,-353.5 3247.5,-353.5 3247.5,-317.5 3002.5,-317.5"/>
</g>
<!-- node4&#45;&gt;node19 -->
<g id="edge18" class="edge"><title>node4&#45;&gt;node19</title>
<path fill="none" stroke="BLACK" d="M2432.73,-443.807C2610.29,-437.609 2880.06,-424.494 2980,-400 3014.05,-391.654 3050.18,-375.856 3077.85,-362.106"/>
<polygon fill="BLACK" stroke="BLACK" points="3079.55,-365.169 3086.9,-357.536 3076.39,-358.922 3079.55,-365.169"/>
<text text-anchor="start" x="3026" y="-389.8" font-family="Times,serif" font-size="14.00"> </text>
<text text-anchor="start" x="3030" y="-389.8" font-family="Times,serif" font-size="10.00" fill="#336633">oboInOwl:hasdbxref</text>
<text text-anchor="start" x="3115" y="-389.8" font-family="Times,serif" font-size="14.00"> </text>
</g>
<!-- node7 -->
<g id="node8" class="node"><title>node7</title>
<polygon fill="grey" stroke="none" points="1719,-219.5 1719,-238.5 2294,-238.5 2294,-219.5 1719,-219.5"/>
<text text-anchor="start" x="1721" y="-226.3" font-family="DejaVu Sans" font-weight="bold" font-size="14.00">&quot;Center for Human Disease Modeling,Duke University Medical Center&quot;</text>
<g id="a_node8_15"><a xlink:href="http://www.ncbi.nlm.nih.gov/clinvar/submitters/505664" xlink:title="&lt;TABLE&gt;">
<polygon fill="#eeeeee" stroke="none" points="1719,-204.5 1719,-219.5 2294,-219.5 2294,-204.5 1719,-204.5"/>
<text text-anchor="start" x="1878" y="-209.5" font-family="DejaVu Sans" font-size="10.00" fill="#6666ff">http://www.ncbi.nlm.nih.gov/clinvar/submitters/505664</text>
</a>
</g>
<polygon fill="none" stroke="#666666" points="1717.5,-203.5 1717.5,-239.5 2294.5,-239.5 2294.5,-203.5 1717.5,-203.5"/>
</g>
<!-- node3&#45;&gt;node7 -->
<g id="edge5" class="edge"><title>node3&#45;&gt;node7</title>
<path fill="none" stroke="BLACK" d="M2339.15,-303.97C2264.43,-285.696 2170.9,-262.824 2101.98,-245.97"/>
<polygon fill="BLACK" stroke="BLACK" points="2102.54,-242.504 2091.99,-243.528 2100.87,-249.304 2102.54,-242.504"/>
<text text-anchor="start" x="2263" y="-275.8" font-family="Times,serif" font-size="14.00"> </text>
<text text-anchor="start" x="2267" y="-275.8" font-family="Times,serif" font-size="10.00" fill="#336633">OBO:SEPIO_0000018</text>
<text text-anchor="start" x="2361" y="-275.8" font-family="Times,serif" font-size="14.00"> </text>
</g>
<!-- node3&#45;&gt;node15 -->
<g id="edge20" class="edge"><title>node3&#45;&gt;node15</title>
<path fill="none" stroke="BLACK" d="M2519.13,-303.949C2540.81,-292.671 2566.18,-280.37 2590,-271 2613.34,-261.822 2639.11,-253.494 2663.28,-246.431"/>
<polygon fill="BLACK" stroke="BLACK" points="2664.53,-249.714 2673.17,-243.584 2662.59,-242.987 2664.53,-249.714"/>
<text text-anchor="start" x="2590" y="-275.8" font-family="Times,serif" font-size="14.00"> </text>
<text text-anchor="start" x="2594" y="-275.8" font-family="Times,serif" font-size="10.00" fill="#336633">OBO:SEPIO_0000111</text>
<text text-anchor="start" x="2688" y="-275.8" font-family="Times,serif" font-size="14.00"> </text>
</g>
<!-- node20 -->
<g id="node20" class="node"><title>node20</title>
<polygon fill="grey" stroke="none" points="2330,-219.5 2330,-238.5 2548,-238.5 2548,-219.5 2330,-219.5"/>
<text text-anchor="start" x="2377" y="-226.3" font-family="DejaVu Sans" font-weight="bold" font-size="14.00">SEPIO_0000001</text>
<g id="a_node20_16"><a xlink:href="http://purl.obolibrary.org/obo/SEPIO_0000001" xlink:title="&lt;TABLE&gt;">
<polygon fill="#eeeeee" stroke="none" points="2330,-204.5 2330,-219.5 2548,-219.5 2548,-204.5 2330,-204.5"/>
<text text-anchor="start" x="2332" y="-209.5" font-family="DejaVu Sans" font-size="10.00" fill="#6666ff">http://purl.obolibrary.org/obo/SEPIO_0000001</text>
</a>
</g>
<polygon fill="none" stroke="#666666" points="2329,-203.5 2329,-239.5 2549,-239.5 2549,-203.5 2329,-203.5"/>
</g>
<!-- node3&#45;&gt;node20 -->
<g id="edge22" class="edge"><title>node3&#45;&gt;node20</title>
<path fill="none" stroke="BLACK" d="M2457.17,-303.896C2453.66,-288.169 2449.39,-269.053 2445.87,-253.298"/>
<polygon fill="BLACK" stroke="BLACK" points="2449.28,-252.498 2443.69,-243.501 2442.45,-254.023 2449.28,-252.498"/>
<text text-anchor="start" x="2453" y="-275.8" font-family="Times,serif" font-size="14.00"> </text>
<text text-anchor="start" x="2457" y="-275.8" font-family="Times,serif" font-size="10.00" fill="#336633">rdf:type</text>
<text text-anchor="start" x="2490" y="-275.8" font-family="Times,serif" font-size="14.00"> </text>
</g>
<!-- node16 -->
<g id="node16" class="node"><title>node16</title>
<polygon fill="grey" stroke="none" points="1913,-115 1913,-134 2100,-134 2100,-115 1913,-115"/>
<text text-anchor="start" x="1955" y="-121.8" font-family="DejaVu Sans" font-weight="bold" font-size="14.00">organization</text>
<g id="a_node16_17"><a xlink:href="http://xmlns.com/foaf/0.1/organization" xlink:title="&lt;TABLE&gt;">
<polygon fill="#eeeeee" stroke="none" points="1913,-100 1913,-115 2100,-115 2100,-100 1913,-100"/>
<text text-anchor="start" x="1915" y="-105" font-family="DejaVu Sans" font-size="10.00" fill="#6666ff">http://xmlns.com/foaf/0.1/organization</text>
</a>
</g>
<polygon fill="none" stroke="#666666" points="1911.5,-99 1911.5,-135 2100.5,-135 2100.5,-99 1911.5,-99"/>
</g>
<!-- node7&#45;&gt;node16 -->
<g id="edge14" class="edge"><title>node7&#45;&gt;node16</title>
<path fill="none" stroke="BLACK" d="M2006,-199.262C2006,-184.831 2006,-165.499 2006,-149.311"/>
<polygon fill="BLACK" stroke="BLACK" points="2009.5,-149.211 2006,-139.211 2002.5,-149.211 2009.5,-149.211"/>
<text text-anchor="start" x="2006" y="-161.8" font-family="Times,serif" font-size="14.00"> </text>
<text text-anchor="start" x="2010" y="-161.8" font-family="Times,serif" font-size="10.00" fill="#336633">rdf:type</text>
<text text-anchor="start" x="2043" y="-161.8" font-family="Times,serif" font-size="14.00"> </text>
</g>
<!-- node9 -->
<g id="node10" class="node"><title>node9</title>
<polygon fill="grey" stroke="none" points="2425,-115 2425,-134 2775,-134 2775,-115 2425,-115"/>
<text text-anchor="start" x="2427" y="-121.8" font-family="DejaVu Sans" font-weight="bold" font-size="14.00">&quot;_:be870b3d47783bbdcf05SEPIO:0000066&quot;</text>
<g id="a_node10_18"><a xlink:href="https://monarchinitiative.org/.well-known/genid/b664828053687f26b867" xlink:title="&lt;TABLE&gt;">
<polygon fill="#eeeeee" stroke="none" points="2425,-100 2425,-115 2775,-115 2775,-100 2425,-100"/>
<text text-anchor="start" x="2429" y="-105" font-family="DejaVu Sans" font-size="10.00" fill="#6666ff">https://monarchinitiative.org/.well&#45;known/genid/b664828053687f26b867</text>
</a>
</g>
<polygon fill="none" stroke="#666666" points="2424,-99 2424,-135 2776,-135 2776,-99 2424,-99"/>
</g>
<!-- node10 -->
<g id="node11" class="node"><title>node10</title>
<polygon fill="grey" stroke="none" points="2491,-20 2491,-39 2709,-39 2709,-20 2491,-20"/>
<text text-anchor="start" x="2538" y="-26.8" font-family="DejaVu Sans" font-weight="bold" font-size="14.00">SEPIO_0000066</text>
<g id="a_node11_19"><a xlink:href="http://purl.obolibrary.org/obo/SEPIO_0000066" xlink:title="&lt;TABLE&gt;">
<polygon fill="#eeeeee" stroke="none" points="2491,-5 2491,-20 2709,-20 2709,-5 2491,-5"/>
<text text-anchor="start" x="2493" y="-10" font-family="DejaVu Sans" font-size="10.00" fill="#6666ff">http://purl.obolibrary.org/obo/SEPIO_0000066</text>
</a>
</g>
<polygon fill="none" stroke="#666666" points="2490,-4 2490,-40 2710,-40 2710,-4 2490,-4"/>
</g>
<!-- node9&#45;&gt;node10 -->
<g id="edge7" class="edge"><title>node9&#45;&gt;node10</title>
<path fill="none" stroke="BLACK" d="M2600,-94.8969C2600,-82.8873 2600,-67.6175 2600,-54.242"/>
<polygon fill="BLACK" stroke="BLACK" points="2603.5,-54.0196 2600,-44.0196 2596.5,-54.0197 2603.5,-54.0196"/>
<text text-anchor="start" x="2600" y="-66.8" font-family="Times,serif" font-size="14.00"> </text>
<text text-anchor="start" x="2604" y="-66.8" font-family="Times,serif" font-size="10.00" fill="#336633">rdf:type</text>
<text text-anchor="start" x="2637" y="-66.8" font-family="Times,serif" font-size="14.00"> </text>
</g>
<!-- node11&#45;&gt;node2 -->
<g id="edge25" class="edge"><title>node11&#45;&gt;node2</title>
<path fill="none" stroke="BLACK" d="M925.26,-189.758C914.549,-178.117 901.211,-165.611 887,-157 878.095,-151.604 868.379,-146.895 858.42,-142.799"/>
<polygon fill="BLACK" stroke="BLACK" points="859.405,-139.426 848.816,-139.057 856.863,-145.948 859.405,-139.426"/>
<text text-anchor="start" x="907" y="-161.8" font-family="Times,serif" font-size="14.00"> </text>
<text text-anchor="start" x="911" y="-161.8" font-family="Times,serif" font-size="10.00" fill="#336633">rdf:type</text>
<text text-anchor="start" x="944" y="-161.8" font-family="Times,serif" font-size="14.00"> </text>
</g>
<!-- node11&#45;&gt;node12 -->
<g id="edge8" class="edge"><title>node11&#45;&gt;node12</title>
<path fill="none" stroke="BLACK" d="M841.819,-189.983C823.733,-184.347 805.25,-178.255 788,-172 772.09,-166.23 769.331,-161.439 753,-157 740.269,-153.539 692.227,-147.021 637.744,-140.291"/>
<polygon fill="BLACK" stroke="BLACK" points="637.855,-136.778 627.503,-139.032 637.001,-143.726 637.855,-136.778"/>
<text text-anchor="start" x="788" y="-161.8" font-family="Times,serif" font-size="14.00"> </text>
<text text-anchor="start" x="792" y="-161.8" font-family="Times,serif" font-size="10.00" fill="#336633">OBO:BFO_0000050</text>
<text text-anchor="start" x="879" y="-161.8" font-family="Times,serif" font-size="14.00"> </text>
</g>
<!-- node11&#45;&gt;node14 -->
<g id="edge11" class="edge"><title>node11&#45;&gt;node14</title>
<path fill="none" stroke="BLACK" d="M691.454,-191.009C655.554,-185.499 619.256,-179.175 585,-172 561.457,-167.069 556.698,-161.118 533,-157 411.556,-135.895 376.449,-152.298 250.171,-139.046"/>
<polygon fill="BLACK" stroke="BLACK" points="250.433,-135.554 240.113,-137.949 249.674,-142.513 250.433,-135.554"/>
<text text-anchor="start" x="585" y="-161.8" font-family="Times,serif" font-size="14.00"> </text>
<text text-anchor="start" x="589" y="-161.8" font-family="Times,serif" font-size="10.00" fill="#336633">OBO:RO_0002162</text>
<text text-anchor="start" x="671" y="-161.8" font-family="Times,serif" font-size="14.00"> </text>
</g>
<!-- node23 -->
<g id="node24" class="node"><title>node23</title>
<polygon fill="grey" stroke="none" points="899,-115 899,-134 1235,-134 1235,-115 899,-115"/>
<text text-anchor="start" x="901" y="-121.8" font-family="DejaVu Sans" font-weight="bold" font-size="14.00">https://www.ncbi.nlm.nih.gov/gene/8514</text>
<g id="a_node24_20"><a xlink:href="https://www.ncbi.nlm.nih.gov/gene/8514" xlink:title="&lt;TABLE&gt;">
<polygon fill="#eeeeee" stroke="none" points="899,-100 899,-115 1235,-115 1235,-100 899,-100"/>
<text text-anchor="start" x="972.5" y="-105" font-family="DejaVu Sans" font-size="10.00" fill="#6666ff">https://www.ncbi.nlm.nih.gov/gene/8514</text>
</a>
</g>
<polygon fill="none" stroke="#666666" points="898,-99 898,-135 1236,-135 1236,-99 898,-99"/>
</g>
<!-- node11&#45;&gt;node23 -->
<g id="edge28" class="edge"><title>node11&#45;&gt;node23</title>
<path fill="none" stroke="BLACK" d="M985.104,-189.747C1000.92,-175.887 1019.48,-159.633 1034.92,-146.104"/>
<polygon fill="BLACK" stroke="BLACK" points="1037.47,-148.526 1042.68,-139.304 1032.85,-143.261 1037.47,-148.526"/>
<text text-anchor="start" x="1023" y="-161.8" font-family="Times,serif" font-size="14.00"> </text>
<text text-anchor="start" x="1027" y="-161.8" font-family="Times,serif" font-size="10.00" fill="#336633">OBO:BFO_0000050</text>
<text text-anchor="start" x="1114" y="-161.8" font-family="Times,serif" font-size="14.00"> </text>
</g>
<!-- node15&#45;&gt;node9 -->
<g id="edge12" class="edge"><title>node15&#45;&gt;node9</title>
<path fill="none" stroke="BLACK" d="M2722.24,-199.331C2708.67,-190.95 2693.02,-181.147 2679,-172 2665.77,-163.372 2651.47,-153.706 2638.73,-144.962"/>
<polygon fill="BLACK" stroke="BLACK" points="2640.4,-141.867 2630.18,-139.08 2636.43,-147.633 2640.4,-141.867"/>
<text text-anchor="start" x="2679" y="-161.8" font-family="Times,serif" font-size="14.00"> </text>
<text text-anchor="start" x="2683" y="-161.8" font-family="Times,serif" font-size="10.00" fill="#336633">OBO:SEPIO_0000085</text>
<text text-anchor="start" x="2777" y="-161.8" font-family="Times,serif" font-size="14.00"> </text>
</g>
<!-- node15&#45;&gt;node17 -->
<g id="edge16" class="edge"><title>node15&#45;&gt;node17</title>
<path fill="none" stroke="BLACK" d="M2782.36,-199.484C2800.27,-185.606 2825.37,-168.015 2850,-157 2862.89,-151.236 2876.76,-146.237 2890.75,-141.923"/>
<polygon fill="BLACK" stroke="BLACK" points="2891.85,-145.247 2900.44,-139.044 2889.86,-138.536 2891.85,-145.247"/>
<text text-anchor="start" x="2850" y="-161.8" font-family="Times,serif" font-size="14.00"> </text>
<text text-anchor="start" x="2854" y="-161.8" font-family="Times,serif" font-size="10.00" fill="#336633">OBO:SEPIO_0000124</text>
<text text-anchor="start" x="2948" y="-161.8" font-family="Times,serif" font-size="14.00"> </text>
</g>
<!-- node24 -->
<g id="node25" class="node"><title>node24</title>
<polygon fill="grey" stroke="none" points="2179,-115 2179,-134 2389,-134 2389,-115 2179,-115"/>
<text text-anchor="start" x="2229.5" y="-121.8" font-family="DejaVu Sans" font-weight="bold" font-size="14.00">ECO_0000000</text>
<g id="a_node25_21"><a xlink:href="http://purl.obolibrary.org/obo/ECO_0000000" xlink:title="&lt;TABLE&gt;">
<polygon fill="#eeeeee" stroke="none" points="2179,-100 2179,-115 2389,-115 2389,-100 2179,-100"/>
<text text-anchor="start" x="2181" y="-105" font-family="DejaVu Sans" font-size="10.00" fill="#6666ff">http://purl.obolibrary.org/obo/ECO_0000000</text>
</a>
</g>
<polygon fill="none" stroke="#666666" points="2178,-99 2178,-135 2390,-135 2390,-99 2178,-99"/>
</g>
<!-- node15&#45;&gt;node24 -->
<g id="edge29" class="edge"><title>node15&#45;&gt;node24</title>
<path fill="none" stroke="BLACK" d="M2659.85,-199.448C2581.68,-182.509 2471.94,-158.727 2391.21,-141.233"/>
<polygon fill="BLACK" stroke="BLACK" points="2391.53,-137.721 2381.02,-139.024 2390.05,-144.563 2391.53,-137.721"/>
<text text-anchor="start" x="2521" y="-161.8" font-family="Times,serif" font-size="14.00"> </text>
<text text-anchor="start" x="2525" y="-161.8" font-family="Times,serif" font-size="10.00" fill="#336633">rdf:type</text>
<text text-anchor="start" x="2558" y="-161.8" font-family="Times,serif" font-size="14.00"> </text>
</g>
<!-- node21 -->
<g id="node21" class="node"><title>node21</title>
<polygon fill="grey" stroke="none" points="2905,-20 2905,-39 3111,-39 3111,-20 2905,-20"/>
<text text-anchor="start" x="2955.5" y="-26.8" font-family="DejaVu Sans" font-weight="bold" font-size="14.00">IAO_0000013</text>
<g id="a_node21_22"><a xlink:href="http://purl.obolibrary.org/obo/IAO_0000013" xlink:title="&lt;TABLE&gt;">
<polygon fill="#eeeeee" stroke="none" points="2905,-5 2905,-20 3111,-20 3111,-5 2905,-5"/>
<text text-anchor="start" x="2907" y="-10" font-family="DejaVu Sans" font-size="10.00" fill="#6666ff">http://purl.obolibrary.org/obo/IAO_0000013</text>
</a>
</g>
<polygon fill="none" stroke="#666666" points="2904,-4 2904,-40 3112,-40 3112,-4 2904,-4"/>
</g>
<!-- node17&#45;&gt;node21 -->
<g id="edge24" class="edge"><title>node17&#45;&gt;node21</title>
<path fill="none" stroke="BLACK" d="M3008,-94.8969C3008,-82.8873 3008,-67.6175 3008,-54.242"/>
<polygon fill="BLACK" stroke="BLACK" points="3011.5,-54.0196 3008,-44.0196 3004.5,-54.0197 3011.5,-54.0196"/>
<text text-anchor="start" x="3008" y="-66.8" font-family="Times,serif" font-size="14.00"> </text>
<text text-anchor="start" x="3012" y="-66.8" font-family="Times,serif" font-size="10.00" fill="#336633">rdf:type</text>
<text text-anchor="start" x="3045" y="-66.8" font-family="Times,serif" font-size="14.00"> </text>
</g>
<!-- node13 -->
<g id="node22" class="node"><title>node13</title>
<polygon fill="grey" stroke="none" points="3249,-456.5 3249,-475.5 3515,-475.5 3515,-456.5 3249,-456.5"/>
<text text-anchor="start" x="3310" y="-463.3" font-family="DejaVu Sans" font-weight="bold" font-size="14.00">RCV000498447.nt</text>
<g id="a_node22_23"><a xlink:href="https://data.monarchinitiative.org/ttl/RCV000498447.nt" xlink:title="&lt;TABLE&gt;">
<polygon fill="#eeeeee" stroke="none" points="3249,-441.5 3249,-456.5 3515,-456.5 3515,-441.5 3249,-441.5"/>
<text text-anchor="start" x="3251" y="-446.5" font-family="DejaVu Sans" font-size="10.00" fill="#6666ff">https://data.monarchinitiative.org/ttl/RCV000498447.nt</text>
</a>
</g>
<text text-anchor="start" x="3251" y="-428.3" font-family="DejaVu Sans" font-size="14.00">owl:versionInfo</text>
<text text-anchor="start" x="3389" y="-428.3" font-family="DejaVu Sans" font-size="14.00">&quot;2019&#45;04&#45;03&quot;</text>
<polygon fill="none" stroke="#666666" points="3248,-422 3248,-477 3516,-477 3516,-422 3248,-422"/>
</g>
<!-- node22 -->
<g id="node23" class="node"><title>node22</title>
<polygon fill="grey" stroke="none" points="3283,-333.5 3283,-352.5 3481,-352.5 3481,-333.5 3283,-333.5"/>
<text text-anchor="start" x="3345" y="-340.3" font-family="DejaVu Sans" font-weight="bold" font-size="14.00">Ontology</text>
<g id="a_node23_24"><a xlink:href="http://www.w3.org/2002/07/owl#Ontology" xlink:title="&lt;TABLE&gt;">
<polygon fill="#eeeeee" stroke="none" points="3283,-318.5 3283,-333.5 3481,-333.5 3481,-318.5 3283,-318.5"/>
<text text-anchor="start" x="3285" y="-323.5" font-family="DejaVu Sans" font-size="10.00" fill="#6666ff">http://www.w3.org/2002/07/owl#Ontology</text>
</a>
</g>
<polygon fill="none" stroke="#666666" points="3282,-317.5 3282,-353.5 3482,-353.5 3482,-317.5 3282,-317.5"/>
</g>
<!-- node13&#45;&gt;node22 -->
<g id="edge27" class="edge"><title>node13&#45;&gt;node22</title>
<path fill="none" stroke="BLACK" d="M3382,-417.896C3382,-402.319 3382,-383.416 3382,-367.749"/>
<polygon fill="BLACK" stroke="BLACK" points="3385.5,-367.501 3382,-357.501 3378.5,-367.501 3385.5,-367.501"/>
<text text-anchor="start" x="3382" y="-389.8" font-family="Times,serif" font-size="14.00"> </text>
<text text-anchor="start" x="3386" y="-389.8" font-family="Times,serif" font-size="10.00" fill="#336633">rdf:type</text>
<text text-anchor="start" x="3419" y="-389.8" font-family="Times,serif" font-size="14.00"> </text>
</g>
</g>
</svg>
